<svg xmlns="http://www.w3.org/2000/svg" width="820" height="99" viewBox="0 0 820 99">
  <g id="Grupo_1088424" data-name="Grupo 1088424" transform="translate(-599.9 -4930)">
    <path id="Trazado_833754" data-name="Trazado 833754" d="M8,0H812a8,8,0,0,1,8,8V91a8,8,0,0,1-8,8H8a8,8,0,0,1-8-8V8A8,8,0,0,1,8,0Z" transform="translate(599.9 4930)" fill="#24135a"/>
    <path id="Trazado_833755" data-name="Trazado 833755" d="M3.674,0H.208L3.467-18.75H6.921ZM14.148-13.452a5.3,5.3,0,0,1,3.009.9,5.053,5.053,0,0,1,1.855,2.4,7.44,7.44,0,0,1,.421,3.4,8.037,8.037,0,0,1-2.191,5.1,6.187,6.187,0,0,1-4.718,1.9A5.282,5.282,0,0,1,9.546-.641,5.034,5.034,0,0,1,7.69-3.027,7.276,7.276,0,0,1,7.263-6.4a8.274,8.274,0,0,1,2.222-5.2A6.059,6.059,0,0,1,14.148-13.452Zm-3.479,8.3A3.048,3.048,0,0,0,11.218-3.3a1.826,1.826,0,0,0,1.477.7,2.676,2.676,0,0,0,2.49-1.456,7.26,7.26,0,0,0,.842-3.955,3.315,3.315,0,0,0-.568-1.871,1.8,1.8,0,0,0-1.483-.725,2.679,2.679,0,0,0-2.46,1.444A7.185,7.185,0,0,0,10.669-5.148ZM21.082-6.616a9.139,9.139,0,0,1,2-4.974,5.065,5.065,0,0,1,4.108-1.874,3.7,3.7,0,0,1,3.149,1.526l.452-1.282,3.162.012L31.787-.452a6.224,6.224,0,0,1-2.246,4.175,6.986,6.986,0,0,1-4.687,1.489,6.513,6.513,0,0,1-2.612-.592A5.586,5.586,0,0,1,20.19,3.064L21.9.964a3.67,3.67,0,0,0,2.881,1.5,3.384,3.384,0,0,0,2.295-.7A3.756,3.756,0,0,0,28.369-.354l.2-.793A4.3,4.3,0,0,1,25.33.244,3.794,3.794,0,0,1,22.266-1.19a6.167,6.167,0,0,1-1.245-3.668A12.328,12.328,0,0,1,21.082-6.616Zm3.381,1.449a3.157,3.157,0,0,0,.482,1.84,1.687,1.687,0,0,0,1.4.727,3.082,3.082,0,0,0,2.49-1.2l1.025-5.6a2.025,2.025,0,0,0-1.941-1.2,2.7,2.7,0,0,0-2.234,1.064A5.564,5.564,0,0,0,24.536-6.61,12.834,12.834,0,0,0,24.463-5.168ZM38.025,0H34.558l2.295-13.208H40.32Zm-.769-16.565a1.719,1.719,0,0,1,.537-1.355,1.89,1.89,0,0,1,1.355-.537,1.9,1.9,0,0,1,1.355.476,1.712,1.712,0,0,1,.6,1.294,1.768,1.768,0,0,1-.507,1.318,1.9,1.9,0,0,1-1.385.586,1.93,1.93,0,0,1-1.349-.464A1.7,1.7,0,0,1,37.256-16.565Zm10.669.11-.574,3.247h2.2L49.1-10.62H46.9L45.776-4a1.682,1.682,0,0,0,.1.952q.171.33.83.354.2.012,1.05-.061l-.244,2.7A5.79,5.79,0,0,1,45.532.22,3.1,3.1,0,0,1,43.005-.842a3.837,3.837,0,0,1-.684-2.808l1.135-6.97H41.589l.452-2.588h1.868l.562-3.247Zm8.948,9.277a20.629,20.629,0,0,1,2.606-7.794,11.211,11.211,0,0,1,5.072-4.791l.586,1.965q-4.175,3.186-5.286,10.242a30.275,30.275,0,0,0-.4,4.3q-.061,5.017,2.295,6.97l-.769,1.843A8.016,8.016,0,0,1,57.288.488a16.984,16.984,0,0,1-.623-5.176,20.5,20.5,0,0,1,.159-2.2Zm19.861.61a10.908,10.908,0,0,1-1.086,3.687A5.978,5.978,0,0,1,73.584-.488,4.778,4.778,0,0,1,70.85.256a3.813,3.813,0,0,1-3.027-1.428l-1.208,6.25H63.171l3.162-18.286,3.174-.012-.232,1.331a4.217,4.217,0,0,1,3.369-1.562,3.751,3.751,0,0,1,3.015,1.41A6.128,6.128,0,0,1,76.807-8.35,14.271,14.271,0,0,1,76.733-6.567Zm-3.418-.251.073-1.174a3.265,3.265,0,0,0-.433-1.883,1.555,1.555,0,0,0-1.337-.721,2.841,2.841,0,0,0-2.478,1.271l-.989,5.453a1.926,1.926,0,0,0,1.941,1.284,2.484,2.484,0,0,0,2.075-.966A6.615,6.615,0,0,0,73.315-6.818ZM77.1,5.591l-.586-1.929Q80.7.427,81.8-6.689a30.118,30.118,0,0,0,.378-4.211q.061-5.017-2.271-6.982l.769-1.843a7.133,7.133,0,0,1,2.472,2.277,10.508,10.508,0,0,1,1.526,3.607,18.127,18.127,0,0,1,.47,4.346,21.664,21.664,0,0,1-1.172,6.6A17.248,17.248,0,0,1,81.1,2.478,10.437,10.437,0,0,1,77.1,5.591Zm34.253-14.7H100.439v-2.881h10.913Zm0,5.286H100.439V-6.7h10.913ZM129.541,0h-3.577l3.076-17.773h3.577Zm8.606-13.22-.293,1.563a4.753,4.753,0,0,1,3.845-1.794,3.168,3.168,0,0,1,2.759,1.367A5.509,5.509,0,0,1,145.1-8.4L143.713,0h-3.442l1.416-8.435a3.949,3.949,0,0,0,.024-.867,1.4,1.4,0,0,0-1.562-1.282,2.963,2.963,0,0,0-2.429,1.257L136.072,0h-3.442l2.295-13.208Z" transform="translate(709.9 4988)" fill="#fff"/>
    <path id="Trazado_833756" data-name="Trazado 833756" d="M12.573-9.106H1.66v-2.881H12.573Zm0,5.286H1.66V-6.7H12.573ZM20.728,0l3.088-17.773,5.542.012A7.352,7.352,0,0,1,34-16.5,3.888,3.888,0,0,1,35.4-13a4.477,4.477,0,0,1-3.113,3.943,2.986,2.986,0,0,1,1.648,1.373,4.11,4.11,0,0,1,.5,2.374A5.142,5.142,0,0,1,32.465-1.4,7.819,7.819,0,0,1,27.551,0Zm4.932-7.739-.842,4.8,2.82.012a3.637,3.637,0,0,0,2.209-.653,2.591,2.591,0,0,0,1.062-1.764,2.19,2.19,0,0,0-.3-1.715,1.982,1.982,0,0,0-1.581-.665Zm.439-2.588,2.429.024a3.868,3.868,0,0,0,2.216-.635,2.461,2.461,0,0,0,1.031-1.7q.305-2.148-2.258-2.161l-2.637-.012ZM43.755,3.714A5.252,5.252,0,0,1,42.865,7a3.557,3.557,0,0,1-5.2.021,5.1,5.1,0,0,1-.919-3.2V1.912a5.183,5.183,0,0,1,.9-3.3A3.564,3.564,0,0,1,42.836-1.4a5.082,5.082,0,0,1,.919,3.2ZM41.7,1.615a3.8,3.8,0,0,0-.352-1.878,1.191,1.191,0,0,0-1.1-.588,1.17,1.17,0,0,0-1.072.56,3.553,3.553,0,0,0-.367,1.75V3.982a3.985,3.985,0,0,0,.345,1.885,1.175,1.175,0,0,0,1.107.617,1.156,1.156,0,0,0,1.089-.592,3.89,3.89,0,0,0,.349-1.81ZM60.137-9.949h4.407v3.186H60.137v4.98H56.78v-4.98H52.361V-9.949H56.78v-4.773h3.357ZM71.795,0l3.088-17.773,5.542.012A7.352,7.352,0,0,1,85.064-16.5a3.888,3.888,0,0,1,1.4,3.5,4.476,4.476,0,0,1-3.113,3.943A2.986,2.986,0,0,1,85-7.684a4.11,4.11,0,0,1,.5,2.374A5.142,5.142,0,0,1,83.532-1.4,7.819,7.819,0,0,1,78.618,0Zm4.932-7.739-.842,4.8,2.82.012a3.637,3.637,0,0,0,2.209-.653,2.591,2.591,0,0,0,1.062-1.764,2.19,2.19,0,0,0-.3-1.715A1.982,1.982,0,0,0,80.1-7.727Zm.439-2.588L79.6-10.3a3.868,3.868,0,0,0,2.216-.635,2.461,2.461,0,0,0,1.031-1.7q.305-2.148-2.258-2.161l-2.637-.012ZM92.842,8H90.785V.057L88.328.816V-.843l4.294-1.538h.221ZM108.066-9.29l2.771-3.918h3.87l-4.785,6.641L112.6,0H109.1l-1.624-4.126L104.563,0h-3.894l4.98-6.909-2.551-6.3h3.491ZM119.837,8h-2.058V.057l-2.457.759V-.843l4.294-1.538h.221Zm14.73-17.949h4.407v3.186h-4.407v4.98H131.21v-4.98h-4.419V-9.949h4.419v-4.773h3.357ZM146.225,0l3.088-17.773,5.542.012a7.352,7.352,0,0,1,4.639,1.257,3.888,3.888,0,0,1,1.4,3.5,4.477,4.477,0,0,1-3.113,3.943,2.986,2.986,0,0,1,1.648,1.373,4.11,4.11,0,0,1,.5,2.374A5.142,5.142,0,0,1,157.962-1.4,7.819,7.819,0,0,1,153.049,0Zm4.932-7.739-.842,4.8,2.82.012a3.637,3.637,0,0,0,2.209-.653,2.591,2.591,0,0,0,1.062-1.764,2.19,2.19,0,0,0-.3-1.715,1.982,1.982,0,0,0-1.581-.665Zm.439-2.588,2.429.024a3.868,3.868,0,0,0,2.216-.635,2.461,2.461,0,0,0,1.031-1.7q.305-2.148-2.258-2.161l-2.637-.012ZM169.38,8h-7.106V6.59l3.354-3.574A8.274,8.274,0,0,0,166.65,1.7,2.116,2.116,0,0,0,166.981.63a1.584,1.584,0,0,0-.349-1.086,1.259,1.259,0,0,0-1-.4,1.358,1.358,0,0,0-1.1.481,1.9,1.9,0,0,0-.4,1.264h-2.065a3.4,3.4,0,0,1,.452-1.73A3.187,3.187,0,0,1,163.8-2.065a3.885,3.885,0,0,1,1.873-.445,3.678,3.678,0,0,1,2.489.769,2.721,2.721,0,0,1,.886,2.172,3.486,3.486,0,0,1-.4,1.566,8.7,8.7,0,0,1-1.367,1.858l-2.357,2.485h4.457ZM183.524-9.29l2.771-3.918h3.87l-4.785,6.641L188.052,0h-3.491l-1.624-4.126L180.02,0h-3.894l4.98-6.909-2.551-6.3h3.491ZM197.4,8H190.3V6.59l3.354-3.574A8.274,8.274,0,0,0,194.671,1.7,2.116,2.116,0,0,0,195,.63a1.584,1.584,0,0,0-.349-1.086,1.259,1.259,0,0,0-1-.4,1.358,1.358,0,0,0-1.1.481,1.9,1.9,0,0,0-.4,1.264h-2.065a3.4,3.4,0,0,1,.452-1.73,3.187,3.187,0,0,1,1.278-1.228,3.885,3.885,0,0,1,1.873-.445,3.678,3.678,0,0,1,2.489.769,2.721,2.721,0,0,1,.886,2.172,3.486,3.486,0,0,1-.4,1.566A8.7,8.7,0,0,1,195.3,3.856l-2.357,2.485H197.4ZM212.593-9.949H217v3.186h-4.407v4.98h-3.357v-4.98h-4.419V-9.949h4.419v-4.773h3.357Zm13.782,6.311a1.907,1.907,0,0,1,1.4.507,1.735,1.735,0,0,1,.58,1.337,1.8,1.8,0,0,1-.537,1.373,1.865,1.865,0,0,1-1.379.568,1.882,1.882,0,0,1-1.379-.488,1.8,1.8,0,0,1-.586-1.331A1.814,1.814,0,0,1,225-3.052,1.934,1.934,0,0,1,226.375-3.638Zm13.33,0a1.907,1.907,0,0,1,1.4.507,1.735,1.735,0,0,1,.58,1.337,1.8,1.8,0,0,1-.537,1.373,1.865,1.865,0,0,1-1.379.568,1.882,1.882,0,0,1-1.379-.488,1.8,1.8,0,0,1-.586-1.331,1.814,1.814,0,0,1,.525-1.379A1.934,1.934,0,0,1,239.705-3.638Zm13.33,0a1.907,1.907,0,0,1,1.4.507,1.735,1.735,0,0,1,.58,1.337,1.8,1.8,0,0,1-.537,1.373A1.865,1.865,0,0,1,253.1.146a1.882,1.882,0,0,1-1.379-.488,1.8,1.8,0,0,1-.586-1.331,1.814,1.814,0,0,1,.525-1.379A1.934,1.934,0,0,1,253.035-3.638ZM272.4-9.949H276.8v3.186H272.4v4.98h-3.357v-4.98H264.62V-9.949h4.419v-4.773H272.4ZM283.992,0l3.088-17.773,5.542.012a7.352,7.352,0,0,1,4.639,1.257,3.888,3.888,0,0,1,1.4,3.5,4.476,4.476,0,0,1-3.113,3.943A2.986,2.986,0,0,1,297.2-7.684a4.11,4.11,0,0,1,.5,2.374A5.142,5.142,0,0,1,295.729-1.4,7.819,7.819,0,0,1,290.816,0Zm4.932-7.739-.842,4.8,2.82.012a3.637,3.637,0,0,0,2.209-.653,2.591,2.591,0,0,0,1.062-1.764,2.19,2.19,0,0,0-.3-1.715,1.982,1.982,0,0,0-1.581-.665Zm.439-2.588,2.429.024a3.868,3.868,0,0,0,2.216-.635,2.461,2.461,0,0,0,1.031-1.7q.305-2.148-2.258-2.161l-2.637-.012ZM302.69,4.931l-.933.812L301.366,8h-2.008l1.894-10.937h2.015L302.227,3l.392-.42L304.9.3h2.578l-3.368,3.311L306.257,8h-2.2ZM319.523-9.29l2.771-3.918h3.87l-4.785,6.641L324.052,0h-3.491l-1.624-4.126L316.02,0h-3.894l4.98-6.909-2.551-6.3h3.491Zm9.421,14.221-.933.812L327.62,8h-2.008l1.894-10.937h2.015L328.481,3l.392-.42L331.158.3h2.578l-3.368,3.311L332.511,8h-2.2Z" transform="translate(984.9 4988)" fill="#fff"/>
    <path id="Trazado_833757" data-name="Trazado 833757" d="M12.72-6.567a10.908,10.908,0,0,1-1.086,3.687A5.978,5.978,0,0,1,9.57-.488,4.778,4.778,0,0,1,6.836.256,3.813,3.813,0,0,1,3.809-1.172L2.6,5.078H-.842L2.319-13.208l3.174-.012L5.261-11.89A4.217,4.217,0,0,1,8.63-13.452a3.751,3.751,0,0,1,3.015,1.41A6.128,6.128,0,0,1,12.793-8.35,14.27,14.27,0,0,1,12.72-6.567ZM9.3-6.818l.073-1.174a3.265,3.265,0,0,0-.433-1.883A1.555,1.555,0,0,0,7.6-10.6,2.841,2.841,0,0,0,5.127-9.324L4.138-3.872A1.926,1.926,0,0,0,6.079-2.588a2.484,2.484,0,0,0,2.075-.966A6.615,6.615,0,0,0,9.3-6.818Z" transform="translate(913.9 4965)" fill="#fff"/>
    <path id="Trazado_833758" data-name="Trazado 833758" d="M9.778,0H6.25V-13.617l-4.211,1.3v-2.844L9.4-17.8h.378ZM28.3-6.189H21.606l.488-2.844h6.7Zm20.618-.378a10.908,10.908,0,0,1-1.086,3.687A5.978,5.978,0,0,1,45.764-.488,4.778,4.778,0,0,1,43.03.256,3.813,3.813,0,0,1,40-1.172l-1.208,6.25H35.352l3.162-18.286,3.174-.012-.232,1.331a4.217,4.217,0,0,1,3.369-1.562,3.751,3.751,0,0,1,3.015,1.41A6.128,6.128,0,0,1,48.987-8.35,14.269,14.269,0,0,1,48.914-6.567ZM45.5-6.818l.073-1.174a3.265,3.265,0,0,0-.433-1.883A1.555,1.555,0,0,0,43.8-10.6a2.841,2.841,0,0,0-2.478,1.271l-.989,5.453a1.926,1.926,0,0,0,1.941,1.284,2.484,2.484,0,0,0,2.075-.966A6.615,6.615,0,0,0,45.5-6.818Z" transform="translate(894.9 5012)" fill="#fff"/>
    <path id="Trazado_830496" data-name="Trazado 830496" d="M-2139.266-6684h89.771" transform="translate(3014.667 11663)" fill="none" stroke="#fff" stroke-width="1.5"/>
  </g>
</svg>
