<svg xmlns="http://www.w3.org/2000/svg" xmlns:xlink="http://www.w3.org/1999/xlink" width="820.1" height="508.5" viewBox="0 0 820.1 508.5">
  <defs>
    <clipPath id="clip-path">
      <rect id="Rectángulo_383026" data-name="Rectángulo 383026" width="820.1" height="508.5" transform="translate(179.9 4120)" fill="#f6f6f6"/>
    </clipPath>
    <clipPath id="clip-path-2">
      <rect id="Rectángulo_382974" data-name="Rectángulo 382974" width="48.864" height="31.323" fill="#be9a0e"/>
    </clipPath>
    <clipPath id="clip-path-3">
      <rect id="Rectángulo_382974-2" data-name="Rectángulo 382974" width="48.864" height="31.323" fill="#8081f7"/>
    </clipPath>
    <clipPath id="clip-path-8">
      <rect id="Rectángulo_382974-7" data-name="Rectángulo 382974" width="48.864" height="31.323" fill="#b20000"/>
    </clipPath>
  </defs>
  <g id="Enmascarar_grupo_1075504" data-name="Enmascarar grupo 1075504" transform="translate(-179.9 -4120)" clip-path="url(#clip-path)">
    <g id="Grupo_1088422" data-name="Grupo 1088422">
      <rect id="Rectángulo_382973" data-name="Rectángulo 382973" width="820.1" height="508.5" transform="translate(179.9 4120)" fill="#f3f9ff"/>
    </g>
    <g id="Grupo_1088421" data-name="Grupo 1088421">
      <path id="Trazado_833750" data-name="Trazado 833750" d="M5,0H43.9a5,5,0,0,1,5,5V23.763a5,5,0,0,1-5,5H5a5,5,0,0,1-5-5V5A5,5,0,0,1,5,0Z" transform="translate(721.199 4472.749)" fill="#f2d873"/>
      <g id="Grupo_1084105" data-name="Grupo 1084105" transform="translate(721.204 4471.468)">
        <g id="Grupo_1084104" data-name="Grupo 1084104" clip-path="url(#clip-path-2)">
          <path id="Trazado_830127" data-name="Trazado 830127" d="M45.334,0H3.53A3.534,3.534,0,0,0,0,3.53V27.794a3.534,3.534,0,0,0,3.53,3.53h41.8a3.534,3.534,0,0,0,3.53-3.53V3.53A3.534,3.534,0,0,0,45.334,0m-20.9,18.834L4.5,2.353H44.368ZM2.353,3.634,14.759,13.89,2.353,27.248ZM16.576,15.393l3,2.484,4.1,3.391a1.176,1.176,0,0,0,1.5,0l7.106-5.875L44.9,28.97H3.966Zm17.529-1.5L46.51,3.635V27.249Z" transform="translate(0 0)" fill="#be9a0e"/>
        </g>
      </g>
      <path id="Trazado_833747" data-name="Trazado 833747" d="M-37.488,0H-39l-5.727-8.766V0H-46.23V-11.375h1.508l5.742,8.8v-8.8h1.492Zm7.656-.836a3.07,3.07,0,0,1-2.477.992,2.628,2.628,0,0,1-2.059-.785,3.4,3.4,0,0,1-.715-2.324v-5.5h1.445v5.461q0,1.922,1.563,1.922a2.163,2.163,0,0,0,2.2-1.234V-8.453h1.445V0H-29.8Zm7.109.992a3.693,3.693,0,0,1-2.8-1.129A4.19,4.19,0,0,1-26.6-3.992v-.266a5.073,5.073,0,0,1,.48-2.246,3.748,3.748,0,0,1,1.344-1.547A3.378,3.378,0,0,1-22.9-8.609,3.166,3.166,0,0,1-20.34-7.523a4.7,4.7,0,0,1,.914,3.109v.6h-5.727a3,3,0,0,0,.73,2.02,2.3,2.3,0,0,0,1.777.77,2.517,2.517,0,0,0,1.3-.312,3.259,3.259,0,0,0,.93-.828l.883.688A3.55,3.55,0,0,1-22.723.156Zm-.18-7.578a1.928,1.928,0,0,0-1.469.637A3.1,3.1,0,0,0-25.105-5h4.234v-.109a2.753,2.753,0,0,0-.594-1.707A1.815,1.815,0,0,0-22.9-7.422Zm7.836,5.461,2.094-6.492H-11.5L-14.527,0h-1.1l-3.062-8.453h1.477ZM-10.605-4.3a4.993,4.993,0,0,1,.488-2.234A3.643,3.643,0,0,1-8.758-8.07,3.7,3.7,0,0,1-6.77-8.609a3.565,3.565,0,0,1,2.793,1.2A4.6,4.6,0,0,1-2.91-4.234v.1a5.036,5.036,0,0,1-.473,2.215A3.589,3.589,0,0,1-4.734-.391a3.743,3.743,0,0,1-2.02.547,3.556,3.556,0,0,1-2.785-1.2A4.575,4.575,0,0,1-10.605-4.2Zm1.453.172A3.616,3.616,0,0,0-8.5-1.875a2.088,2.088,0,0,0,1.746.852A2.075,2.075,0,0,0-5-1.887,3.955,3.955,0,0,0-4.355-4.3a3.61,3.61,0,0,0-.66-2.254A2.1,2.1,0,0,0-6.77-7.422,2.075,2.075,0,0,0-8.5-6.57,3.925,3.925,0,0,0-9.152-4.133ZM6.254-1.023a2.082,2.082,0,0,0,1.352-.469,1.649,1.649,0,0,0,.641-1.172H9.613a2.621,2.621,0,0,1-.5,1.383A3.293,3.293,0,0,1,7.883-.234,3.55,3.55,0,0,1,6.254.156,3.482,3.482,0,0,1,3.508-1a4.59,4.59,0,0,1-1.02-3.152v-.242a5.089,5.089,0,0,1,.453-2.2,3.451,3.451,0,0,1,1.3-1.492,3.7,3.7,0,0,1,2-.531,3.39,3.39,0,0,1,2.363.852,3.043,3.043,0,0,1,1,2.211H8.246a1.992,1.992,0,0,0-.621-1.348,1.932,1.932,0,0,0-1.379-.527,2.023,2.023,0,0,0-1.707.793,3.724,3.724,0,0,0-.605,2.293v.273a3.65,3.65,0,0,0,.6,2.25A2.033,2.033,0,0,0,6.254-1.023Zm4.6-3.281a4.993,4.993,0,0,1,.488-2.234A3.643,3.643,0,0,1,12.7-8.07a3.7,3.7,0,0,1,1.988-.539,3.565,3.565,0,0,1,2.793,1.2,4.6,4.6,0,0,1,1.066,3.18v.1a5.036,5.036,0,0,1-.473,2.215A3.589,3.589,0,0,1,16.727-.391a3.743,3.743,0,0,1-2.02.547,3.556,3.556,0,0,1-2.785-1.2A4.575,4.575,0,0,1,10.855-4.2Zm1.453.172a3.616,3.616,0,0,0,.652,2.258,2.088,2.088,0,0,0,1.746.852,2.075,2.075,0,0,0,1.75-.863A3.955,3.955,0,0,0,17.105-4.3a3.61,3.61,0,0,0-.66-2.254,2.1,2.1,0,0,0-1.754-.863,2.075,2.075,0,0,0-1.727.852A3.925,3.925,0,0,0,12.309-4.133ZM24.449-7.156a4.331,4.331,0,0,0-.711-.055A1.9,1.9,0,0,0,21.809-6V0H20.363V-8.453H21.77l.023.977a2.251,2.251,0,0,1,2.016-1.133,1.477,1.477,0,0,1,.641.109Zm5.414,0a4.331,4.331,0,0,0-.711-.055A1.9,1.9,0,0,0,27.223-6V0H25.777V-8.453h1.406l.023.977a2.251,2.251,0,0,1,2.016-1.133,1.477,1.477,0,0,1,.641.109ZM34.551.156a3.693,3.693,0,0,1-2.8-1.129,4.19,4.19,0,0,1-1.078-3.02v-.266a5.073,5.073,0,0,1,.48-2.246A3.748,3.748,0,0,1,32.5-8.051a3.378,3.378,0,0,1,1.871-.559,3.166,3.166,0,0,1,2.563,1.086,4.7,4.7,0,0,1,.914,3.109v.6H32.121a3,3,0,0,0,.73,2.02,2.3,2.3,0,0,0,1.777.77,2.517,2.517,0,0,0,1.3-.312,3.259,3.259,0,0,0,.93-.828l.883.688A3.55,3.55,0,0,1,34.551.156Zm-.18-7.578a1.928,1.928,0,0,0-1.469.637A3.1,3.1,0,0,0,32.168-5H36.4v-.109a2.753,2.753,0,0,0-.594-1.707A1.815,1.815,0,0,0,34.371-7.422ZM39.137-4.3a4.993,4.993,0,0,1,.488-2.234A3.643,3.643,0,0,1,40.984-8.07a3.7,3.7,0,0,1,1.988-.539,3.565,3.565,0,0,1,2.793,1.2,4.6,4.6,0,0,1,1.066,3.18v.1a5.036,5.036,0,0,1-.473,2.215A3.589,3.589,0,0,1,45.008-.391a3.743,3.743,0,0,1-2.02.547,3.556,3.556,0,0,1-2.785-1.2A4.575,4.575,0,0,1,39.137-4.2Zm1.453.172a3.616,3.616,0,0,0,.652,2.258,2.088,2.088,0,0,0,1.746.852,2.075,2.075,0,0,0,1.75-.863A3.955,3.955,0,0,0,45.387-4.3a3.61,3.61,0,0,0-.66-2.254,2.1,2.1,0,0,0-1.754-.863,2.075,2.075,0,0,0-1.727.852A3.925,3.925,0,0,0,40.59-4.133Z" transform="translate(746.199 4525.985)" fill="#12263f"/>
      <path id="Trazado_833746" data-name="Trazado 833746" d="M-22.16,0h-1.508l-5.727-8.766V0H-30.9V-11.375h1.508l5.742,8.8v-8.8h1.492Zm2.055-4.3a4.993,4.993,0,0,1,.488-2.234A3.643,3.643,0,0,1-18.258-8.07a3.7,3.7,0,0,1,1.988-.539,3.565,3.565,0,0,1,2.793,1.2,4.6,4.6,0,0,1,1.066,3.18v.1a5.036,5.036,0,0,1-.473,2.215A3.589,3.589,0,0,1-14.234-.391a3.743,3.743,0,0,1-2.02.547,3.556,3.556,0,0,1-2.785-1.2A4.575,4.575,0,0,1-20.105-4.2Zm1.453.172A3.616,3.616,0,0,0-18-1.875a2.088,2.088,0,0,0,1.746.852,2.075,2.075,0,0,0,1.75-.863A3.955,3.955,0,0,0-13.855-4.3a3.61,3.61,0,0,0-.66-2.254,2.1,2.1,0,0,0-1.754-.863A2.075,2.075,0,0,0-18-6.57,3.925,3.925,0,0,0-18.652-4.133ZM-1.715-2.242a1.064,1.064,0,0,0-.441-.91A4.249,4.249,0,0,0-3.7-3.711a7.277,7.277,0,0,1-1.742-.562,2.479,2.479,0,0,1-.953-.781A1.869,1.869,0,0,1-6.7-6.133,2.193,2.193,0,0,1-5.82-7.891a3.432,3.432,0,0,1,2.246-.719,3.532,3.532,0,0,1,2.332.742,2.357,2.357,0,0,1,.895,1.9H-1.8a1.3,1.3,0,0,0-.5-1.023,1.888,1.888,0,0,0-1.27-.43,1.976,1.976,0,0,0-1.234.344,1.082,1.082,0,0,0-.445.9.877.877,0,0,0,.414.789,5.1,5.1,0,0,0,1.5.508A7.8,7.8,0,0,1-1.59-4.3a2.558,2.558,0,0,1,1,.809A1.988,1.988,0,0,1-.27-2.344,2.163,2.163,0,0,1-1.176-.527,3.8,3.8,0,0,1-3.527.156,4.257,4.257,0,0,1-5.324-.2a2.922,2.922,0,0,1-1.223-1A2.42,2.42,0,0,1-6.988-2.6h1.445a1.5,1.5,0,0,0,.582,1.152,2.258,2.258,0,0,0,1.434.426,2.331,2.331,0,0,0,1.316-.332A1.02,1.02,0,0,0-1.715-2.242ZM8.754-4.133a5.062,5.062,0,0,1-.883,3.109A2.829,2.829,0,0,1,5.48.156,3.1,3.1,0,0,1,3.059-.82V3.25H1.613v-11.7h1.32L3-7.516A2.977,2.977,0,0,1,5.457-8.609a2.882,2.882,0,0,1,2.41,1.148,5.117,5.117,0,0,1,.887,3.2ZM7.309-4.3A3.735,3.735,0,0,0,6.7-6.555a1.963,1.963,0,0,0-1.672-.828A2.125,2.125,0,0,0,3.059-6.219V-2.18A2.129,2.129,0,0,0,5.043-1.023,1.954,1.954,0,0,0,6.7-1.848,4.077,4.077,0,0,0,7.309-4.3Zm8.5,4.3a3.036,3.036,0,0,1-.2-.891A3.225,3.225,0,0,1,13.2.156a2.984,2.984,0,0,1-2.051-.707,2.287,2.287,0,0,1-.8-1.793,2.39,2.39,0,0,1,1-2.051,4.733,4.733,0,0,1,2.824-.73h1.406v-.664A1.623,1.623,0,0,0,15.129-7a1.821,1.821,0,0,0-1.336-.449,2.107,2.107,0,0,0-1.3.391,1.151,1.151,0,0,0-.523.945H10.52a2,2,0,0,1,.449-1.223,3.066,3.066,0,0,1,1.219-.934,4.1,4.1,0,0,1,1.691-.344,3.342,3.342,0,0,1,2.289.73,2.635,2.635,0,0,1,.859,2.012v3.891a4.757,4.757,0,0,0,.3,1.852V0Zm-2.4-1.1A2.54,2.54,0,0,0,14.7-1.453a2.127,2.127,0,0,0,.883-.914V-4.1H14.449q-2.656,0-2.656,1.555a1.316,1.316,0,0,0,.453,1.063A1.742,1.742,0,0,0,13.41-1.1Zm7.242-7.352.039.938A3.122,3.122,0,0,1,23.2-8.609,2.417,2.417,0,0,1,25.613-7.25a3.2,3.2,0,0,1,1.1-.984,3.242,3.242,0,0,1,1.6-.375q2.781,0,2.828,2.945V0H29.691V-5.578a1.941,1.941,0,0,0-.414-1.355,1.823,1.823,0,0,0-1.391-.449,1.916,1.916,0,0,0-1.336.48,1.949,1.949,0,0,0-.617,1.293V0H24.48V-5.539a1.613,1.613,0,0,0-1.8-1.844A1.934,1.934,0,0,0,20.73-6.172V0H19.285V-8.453Z" transform="translate(933.503 4498.792)" fill="#12263f"/>
      <path id="Trazado_833748" data-name="Trazado 833748" d="M-15.926-5.07a7.053,7.053,0,0,1-2.809-1.363,2.6,2.6,0,0,1-.879-2,2.751,2.751,0,0,1,1.074-2.223,4.269,4.269,0,0,1,2.793-.879,4.66,4.66,0,0,1,2.09.453,3.436,3.436,0,0,1,1.422,1.25,3.2,3.2,0,0,1,.5,1.742h-1.508a2.08,2.08,0,0,0-.656-1.627,2.669,2.669,0,0,0-1.852-.592,2.732,2.732,0,0,0-1.73.489A1.632,1.632,0,0,0-18.1-8.458a1.468,1.468,0,0,0,.59,1.178A5.785,5.785,0,0,0-15.5-6.4a9.316,9.316,0,0,1,2.219.88A3.367,3.367,0,0,1-12.094-4.4a2.861,2.861,0,0,1,.387,1.508A2.658,2.658,0,0,1-12.785-.676a4.6,4.6,0,0,1-2.883.832,5.347,5.347,0,0,1-2.187-.449,3.681,3.681,0,0,1-1.566-1.23A3,3,0,0,1-19.973-3.3h1.508A1.959,1.959,0,0,0-17.7-1.668a3.207,3.207,0,0,0,2.035.6,2.948,2.948,0,0,0,1.82-.484,1.573,1.573,0,0,0,.633-1.32A1.545,1.545,0,0,0-13.8-4.168,6.755,6.755,0,0,0-15.926-5.07Zm13.055.938a5.062,5.062,0,0,1-.883,3.109A2.829,2.829,0,0,1-6.145.156,3.1,3.1,0,0,1-8.566-.82V3.25h-1.445v-11.7h1.32l.07.938A2.977,2.977,0,0,1-6.168-8.609a2.882,2.882,0,0,1,2.41,1.148,5.117,5.117,0,0,1,.887,3.2ZM-4.316-4.3a3.735,3.735,0,0,0-.609-2.258A1.963,1.963,0,0,0-6.6-7.383,2.125,2.125,0,0,0-8.566-6.219V-2.18A2.129,2.129,0,0,0-6.582-1.023,1.954,1.954,0,0,0-4.93-1.848,4.077,4.077,0,0,0-4.316-4.3ZM4.184,0a3.036,3.036,0,0,1-.2-.891A3.225,3.225,0,0,1,1.574.156,2.984,2.984,0,0,1-.477-.551a2.287,2.287,0,0,1-.8-1.793,2.39,2.39,0,0,1,1-2.051,4.733,4.733,0,0,1,2.824-.73H3.957v-.664A1.623,1.623,0,0,0,3.5-7a1.821,1.821,0,0,0-1.336-.449,2.107,2.107,0,0,0-1.3.391,1.151,1.151,0,0,0-.523.945H-1.105A2,2,0,0,1-.656-7.332,3.066,3.066,0,0,1,.563-8.266a4.1,4.1,0,0,1,1.691-.344,3.342,3.342,0,0,1,2.289.73A2.635,2.635,0,0,1,5.4-5.867v3.891A4.757,4.757,0,0,0,5.7-.125V0Zm-2.4-1.1a2.54,2.54,0,0,0,1.289-.352,2.127,2.127,0,0,0,.883-.914V-4.1H2.824Q.168-4.1.168-2.547A1.316,1.316,0,0,0,.621-1.484,1.742,1.742,0,0,0,1.785-1.1ZM9.027-8.453l.039.938a3.122,3.122,0,0,1,2.508-1.094A2.417,2.417,0,0,1,13.988-7.25a3.2,3.2,0,0,1,1.1-.984,3.242,3.242,0,0,1,1.6-.375q2.781,0,2.828,2.945V0H18.066V-5.578a1.941,1.941,0,0,0-.414-1.355,1.823,1.823,0,0,0-1.391-.449,1.916,1.916,0,0,0-1.336.48,1.949,1.949,0,0,0-.617,1.293V0H12.855V-5.539a1.613,1.613,0,0,0-1.8-1.844A1.934,1.934,0,0,0,9.105-6.172V0H7.66V-8.453Z" transform="translate(933.503 4322)" fill="#12263f"/>
      <g id="Grupo_1084205" data-name="Grupo 1084205" transform="translate(1086.094 -72.108) rotate(14)">
        <g id="Grupo_1084192" data-name="Grupo 1084192" transform="translate(825.789 4370.503) rotate(-48)">
          <path id="Trazado_772741" data-name="Trazado 772741" d="M4.933,1.407,0,0,4.921,7.631l.012-.015.012.015L9.866,0Z" transform="matrix(-0.309, -0.951, 0.951, -0.309, 96.364, -15.021)" fill="#24135a" stroke="rgba(0,0,0,0)" stroke-width="1"/>
          <path id="Trazado_830229" data-name="Trazado 830229" d="M.493,5.075,96.481-20.187" fill="none" stroke="#24135a" stroke-width="1.8"/>
        </g>
      </g>
      <g id="Grupo_1084205-2" data-name="Grupo 1084205" transform="translate(810.323 4376.435) rotate(-14)">
        <g id="Grupo_1084192-2" data-name="Grupo 1084192" transform="translate(23.659 0) rotate(48)">
          <path id="Trazado_772741-2" data-name="Trazado 772741" d="M4.933,6.224,0,7.631,4.921,0l.012.015L4.945,0,9.866,7.631Z" transform="matrix(-0.309, 0.951, -0.951, -0.309, 103.129, 22.454)" fill="#24135a" stroke="rgba(0,0,0,0)" stroke-width="1"/>
          <path id="Trazado_830229-2" data-name="Trazado 830229" d="M0,0,95.988,25.262" transform="translate(0 0)" fill="none" stroke="#24135a" stroke-width="1.8"/>
        </g>
      </g>
      <path id="Trazado_830128" data-name="Trazado 830128" d="M0,0H48.326" transform="translate(746.132 4471.468) rotate(-90)" fill="none" stroke="#24135a" stroke-width="1.8"/>
      <path id="Trazado_772741-3" data-name="Trazado 772741" d="M4.933,1.407,0,0,4.921,7.631l.012-.015.012.015L9.866,0Z" transform="translate(751.064 4426.796) rotate(180)" fill="#24135a" stroke="rgba(0,0,0,0)" stroke-width="1"/>
      <g id="Grupo_1084106" data-name="Grupo 1084106" transform="translate(232.23 4199.626)">
        <rect id="Rectángulo_382975" data-name="Rectángulo 382975" width="49.244" height="28.826" rx="5" transform="translate(0.215 1.089)" fill="#fff"/>
        <g id="Grupo_1084105-2" data-name="Grupo 1084105" transform="translate(0)">
          <g id="Grupo_1084104-2" data-name="Grupo 1084104" clip-path="url(#clip-path-3)">
            <path id="Trazado_830127-2" data-name="Trazado 830127" d="M45.334,0H3.53A3.534,3.534,0,0,0,0,3.53V27.794a3.534,3.534,0,0,0,3.53,3.53h41.8a3.534,3.534,0,0,0,3.53-3.53V3.53A3.534,3.534,0,0,0,45.334,0m-20.9,18.834L4.5,2.353H44.368ZM2.353,3.634,14.759,13.89,2.353,27.248ZM16.576,15.393l3,2.484,4.1,3.391a1.176,1.176,0,0,0,1.5,0l7.106-5.875L44.9,28.97H3.966Zm17.529-1.5L46.51,3.635V27.249Z" transform="translate(0 0)" fill="#8081f7"/>
          </g>
        </g>
      </g>
      <g id="Grupo_1084107" data-name="Grupo 1084107" transform="translate(300.906 4156.481)">
        <rect id="Rectángulo_382975-2" data-name="Rectángulo 382975" width="49.244" height="28.826" rx="5" transform="translate(0 0.994)" fill="#fff"/>
        <g id="Grupo_1084105-3" data-name="Grupo 1084105" transform="translate(0.354)">
          <g id="Grupo_1084104-3" data-name="Grupo 1084104" clip-path="url(#clip-path-3)">
            <path id="Trazado_830127-3" data-name="Trazado 830127" d="M45.334,0H3.53A3.534,3.534,0,0,0,0,3.53V27.794a3.534,3.534,0,0,0,3.53,3.53h41.8a3.534,3.534,0,0,0,3.53-3.53V3.53A3.534,3.534,0,0,0,45.334,0m-20.9,18.834L4.5,2.353H44.368ZM2.353,3.634,14.759,13.89,2.353,27.248ZM16.576,15.393l3,2.484,4.1,3.391a1.176,1.176,0,0,0,1.5,0l7.106-5.875L44.9,28.97H3.966Zm17.529-1.5L46.51,3.635V27.249Z" transform="translate(0 0)" fill="#8081f7"/>
          </g>
        </g>
      </g>
      <g id="Grupo_1084108" data-name="Grupo 1084108" transform="translate(328.531 4228.389)">
        <rect id="Rectángulo_382975-3" data-name="Rectángulo 382975" width="49.244" height="28.826" rx="5" transform="translate(0 1.152)" fill="#fff"/>
        <g id="Grupo_1084105-4" data-name="Grupo 1084105" transform="translate(0.054 0)">
          <g id="Grupo_1084104-4" data-name="Grupo 1084104" clip-path="url(#clip-path-3)">
            <path id="Trazado_830127-4" data-name="Trazado 830127" d="M45.334,0H3.53A3.534,3.534,0,0,0,0,3.53V27.794a3.534,3.534,0,0,0,3.53,3.53h41.8a3.534,3.534,0,0,0,3.53-3.53V3.53A3.534,3.534,0,0,0,45.334,0m-20.9,18.834L4.5,2.353H44.368ZM2.353,3.634,14.759,13.89,2.353,27.248ZM16.576,15.393l3,2.484,4.1,3.391a1.176,1.176,0,0,0,1.5,0l7.106-5.875L44.9,28.97H3.966Zm17.529-1.5L46.51,3.635V27.249Z" transform="translate(0 0)" fill="#8081f7"/>
          </g>
        </g>
      </g>
      <g id="Grupo_1084109" data-name="Grupo 1084109" transform="translate(257.667 4284.476)">
        <rect id="Rectángulo_382975-4" data-name="Rectángulo 382975" width="49.244" height="28.826" rx="5" transform="translate(0 1.516)" fill="#fff"/>
        <g id="Grupo_1084105-5" data-name="Grupo 1084105" transform="translate(0.449)">
          <g id="Grupo_1084104-5" data-name="Grupo 1084104" clip-path="url(#clip-path-3)">
            <path id="Trazado_830127-5" data-name="Trazado 830127" d="M45.334,0H3.53A3.534,3.534,0,0,0,0,3.53V27.794a3.534,3.534,0,0,0,3.53,3.53h41.8a3.534,3.534,0,0,0,3.53-3.53V3.53A3.534,3.534,0,0,0,45.334,0m-20.9,18.834L4.5,2.353H44.368ZM2.353,3.634,14.759,13.89,2.353,27.248ZM16.576,15.393l3,2.484,4.1,3.391a1.176,1.176,0,0,0,1.5,0l7.106-5.875L44.9,28.97H3.966Zm17.529-1.5L46.51,3.635V27.249Z" transform="translate(0 0)" fill="#8081f7"/>
          </g>
        </g>
      </g>
      <g id="Grupo_1084110" data-name="Grupo 1084110" transform="translate(357.348 4284.476)">
        <rect id="Rectángulo_382975-5" data-name="Rectángulo 382975" width="49.244" height="28.826" rx="5" transform="translate(0.009 1.516)" fill="#fff"/>
        <g id="Grupo_1084105-6" data-name="Grupo 1084105" transform="translate(0)">
          <g id="Grupo_1084104-6" data-name="Grupo 1084104" clip-path="url(#clip-path-3)">
            <path id="Trazado_830127-6" data-name="Trazado 830127" d="M45.334,0H3.53A3.534,3.534,0,0,0,0,3.53V27.794a3.534,3.534,0,0,0,3.53,3.53h41.8a3.534,3.534,0,0,0,3.53-3.53V3.53A3.534,3.534,0,0,0,45.334,0m-20.9,18.834L4.5,2.353H44.368ZM2.353,3.634,14.759,13.89,2.353,27.248ZM16.576,15.393l3,2.484,4.1,3.391a1.176,1.176,0,0,0,1.5,0l7.106-5.875L44.9,28.97H3.966Zm17.529-1.5L46.51,3.635V27.249Z" transform="translate(0 0)" fill="#8081f7"/>
          </g>
        </g>
      </g>
      <g id="Grupo_1084121" data-name="Grupo 1084121" transform="translate(314.198 4338.484)">
        <rect id="Rectángulo_382975-6" data-name="Rectángulo 382975" width="48.896" height="28.763" rx="5" transform="translate(0 1.28)" fill="#f34534"/>
        <g id="Grupo_1084105-7" data-name="Grupo 1084105" transform="translate(0.006)">
          <g id="Grupo_1084104-7" data-name="Grupo 1084104" clip-path="url(#clip-path-8)">
            <path id="Trazado_830127-7" data-name="Trazado 830127" d="M45.334,0H3.53A3.534,3.534,0,0,0,0,3.53V27.794a3.534,3.534,0,0,0,3.53,3.53h41.8a3.534,3.534,0,0,0,3.53-3.53V3.53A3.534,3.534,0,0,0,45.334,0m-20.9,18.834L4.5,2.353H44.368ZM2.353,3.634,14.759,13.89,2.353,27.248ZM16.576,15.393l3,2.484,4.1,3.391a1.176,1.176,0,0,0,1.5,0l7.106-5.875L44.9,28.97H3.966Zm17.529-1.5L46.51,3.635V27.249Z" transform="translate(0 0)" fill="#b20000"/>
          </g>
        </g>
      </g>
      <g id="Grupo_1084131" data-name="Grupo 1084131" transform="translate(396.503 4338.484)">
        <rect id="Rectángulo_382975-7" data-name="Rectángulo 382975" width="48.896" height="28.763" rx="5" transform="translate(0 1.28)" fill="#f34534"/>
        <g id="Grupo_1084105-8" data-name="Grupo 1084105" transform="translate(0.006)">
          <g id="Grupo_1084104-8" data-name="Grupo 1084104" clip-path="url(#clip-path-8)">
            <path id="Trazado_830127-8" data-name="Trazado 830127" d="M45.334,0H3.53A3.534,3.534,0,0,0,0,3.53V27.794a3.534,3.534,0,0,0,3.53,3.53h41.8a3.534,3.534,0,0,0,3.53-3.53V3.53A3.534,3.534,0,0,0,45.334,0m-20.9,18.834L4.5,2.353H44.368ZM2.353,3.634,14.759,13.89,2.353,27.248ZM16.576,15.393l3,2.484,4.1,3.391a1.176,1.176,0,0,0,1.5,0l7.106-5.875L44.9,28.97H3.966Zm17.529-1.5L46.51,3.635V27.249Z" transform="translate(0 0)" fill="#b20000"/>
          </g>
        </g>
      </g>
      <g id="Grupo_1084132" data-name="Grupo 1084132" transform="translate(411.405 4228.389)">
        <rect id="Rectángulo_382975-8" data-name="Rectángulo 382975" width="49.244" height="28.826" rx="5" transform="translate(0 1.152)" fill="#f34534"/>
        <g id="Grupo_1084105-9" data-name="Grupo 1084105" transform="translate(0.591 0)">
          <g id="Grupo_1084104-9" data-name="Grupo 1084104" clip-path="url(#clip-path-8)">
            <path id="Trazado_830127-9" data-name="Trazado 830127" d="M45.334,0H3.53A3.534,3.534,0,0,0,0,3.53V27.794a3.534,3.534,0,0,0,3.53,3.53h41.8a3.534,3.534,0,0,0,3.53-3.53V3.53A3.534,3.534,0,0,0,45.334,0m-20.9,18.834L4.5,2.353H44.368ZM2.353,3.634,14.759,13.89,2.353,27.248ZM16.576,15.393l3,2.484,4.1,3.391a1.176,1.176,0,0,0,1.5,0l7.106-5.875L44.9,28.97H3.966Zm17.529-1.5L46.51,3.635V27.249Z" transform="translate(0 0)" fill="#b20000"/>
          </g>
        </g>
      </g>
      <g id="Grupo_1084122" data-name="Grupo 1084122" transform="translate(469.057 4377.279)">
        <rect id="Rectángulo_382975-9" data-name="Rectángulo 382975" width="48.896" height="28.763" rx="5" transform="translate(0 1.28)" fill="#f34534"/>
        <g id="Grupo_1084105-10" data-name="Grupo 1084105" transform="translate(0.006)">
          <g id="Grupo_1084104-10" data-name="Grupo 1084104" clip-path="url(#clip-path-8)">
            <path id="Trazado_830127-10" data-name="Trazado 830127" d="M45.334,0H3.53A3.534,3.534,0,0,0,0,3.53V27.794a3.534,3.534,0,0,0,3.53,3.53h41.8a3.534,3.534,0,0,0,3.53-3.53V3.53A3.534,3.534,0,0,0,45.334,0m-20.9,18.834L4.5,2.353H44.368ZM2.353,3.634,14.759,13.89,2.353,27.248ZM16.576,15.393l3,2.484,4.1,3.391a1.176,1.176,0,0,0,1.5,0l7.106-5.875L44.9,28.97H3.966Zm17.529-1.5L46.51,3.635V27.249Z" transform="translate(0 0)" fill="#b20000"/>
          </g>
        </g>
      </g>
      <g id="Grupo_1084123" data-name="Grupo 1084123" transform="translate(318.509 4528.375)">
        <rect id="Rectángulo_382975-10" data-name="Rectángulo 382975" width="48.896" height="28.763" rx="5" transform="translate(0 1.28)" fill="#f34534"/>
        <g id="Grupo_1084105-11" data-name="Grupo 1084105" transform="translate(0.006)">
          <g id="Grupo_1084104-11" data-name="Grupo 1084104" clip-path="url(#clip-path-8)">
            <path id="Trazado_830127-11" data-name="Trazado 830127" d="M45.334,0H3.53A3.534,3.534,0,0,0,0,3.53V27.794a3.534,3.534,0,0,0,3.53,3.53h41.8a3.534,3.534,0,0,0,3.53-3.53V3.53A3.534,3.534,0,0,0,45.334,0m-20.9,18.834L4.5,2.353H44.368ZM2.353,3.634,14.759,13.89,2.353,27.248ZM16.576,15.393l3,2.484,4.1,3.391a1.176,1.176,0,0,0,1.5,0l7.106-5.875L44.9,28.97H3.966Zm17.529-1.5L46.51,3.635V27.249Z" transform="translate(0 0)" fill="#b20000"/>
          </g>
        </g>
      </g>
      <g id="Grupo_1084111" data-name="Grupo 1084111" transform="translate(219.233 4337.687)">
        <rect id="Rectángulo_382975-11" data-name="Rectángulo 382975" width="49.244" height="28.826" rx="5" transform="translate(0 1.153)" fill="#fff"/>
        <g id="Grupo_1084105-12" data-name="Grupo 1084105" transform="translate(0.054)">
          <g id="Grupo_1084104-12" data-name="Grupo 1084104" clip-path="url(#clip-path-3)">
            <path id="Trazado_830127-12" data-name="Trazado 830127" d="M45.334,0H3.53A3.534,3.534,0,0,0,0,3.53V27.794a3.534,3.534,0,0,0,3.53,3.53h41.8a3.534,3.534,0,0,0,3.53-3.53V3.53A3.534,3.534,0,0,0,45.334,0m-20.9,18.834L4.5,2.353H44.368ZM2.353,3.634,14.759,13.89,2.353,27.248ZM16.576,15.393l3,2.484,4.1,3.391a1.176,1.176,0,0,0,1.5,0l7.106-5.875L44.9,28.97H3.966Zm17.529-1.5L46.51,3.635V27.249Z" transform="translate(0 0)" fill="#8081f7"/>
          </g>
        </g>
      </g>
      <g id="Grupo_1084112" data-name="Grupo 1084112" transform="translate(228.842 4409.592)">
        <rect id="Rectángulo_382975-12" data-name="Rectángulo 382975" width="49.244" height="28.826" rx="5" transform="translate(0 1.311)" fill="#fff"/>
        <g id="Grupo_1084105-13" data-name="Grupo 1084105" transform="translate(0.512 0)">
          <g id="Grupo_1084104-13" data-name="Grupo 1084104" clip-path="url(#clip-path-3)">
            <path id="Trazado_830127-13" data-name="Trazado 830127" d="M45.334,0H3.53A3.534,3.534,0,0,0,0,3.53V27.794a3.534,3.534,0,0,0,3.53,3.53h41.8a3.534,3.534,0,0,0,3.53-3.53V3.53A3.534,3.534,0,0,0,45.334,0m-20.9,18.834L4.5,2.353H44.368ZM2.353,3.634,14.759,13.89,2.353,27.248ZM16.576,15.393l3,2.484,4.1,3.391a1.176,1.176,0,0,0,1.5,0l7.106-5.875L44.9,28.97H3.966Zm17.529-1.5L46.51,3.635V27.249Z" transform="translate(0 0)" fill="#8081f7"/>
          </g>
        </g>
      </g>
      <g id="Grupo_1084113" data-name="Grupo 1084113" transform="translate(317.074 4440.916)">
        <rect id="Rectángulo_382975-13" data-name="Rectángulo 382975" width="48.896" height="28.763" rx="5" transform="translate(0 1.28)" fill="#fff"/>
        <g id="Grupo_1084105-14" data-name="Grupo 1084105" transform="translate(0.006 0)">
          <g id="Grupo_1084104-14" data-name="Grupo 1084104" clip-path="url(#clip-path-3)">
            <path id="Trazado_830127-14" data-name="Trazado 830127" d="M45.334,0H3.53A3.534,3.534,0,0,0,0,3.53V27.794a3.534,3.534,0,0,0,3.53,3.53h41.8a3.534,3.534,0,0,0,3.53-3.53V3.53A3.534,3.534,0,0,0,45.334,0m-20.9,18.834L4.5,2.353H44.368ZM2.353,3.634,14.759,13.89,2.353,27.248ZM16.576,15.393l3,2.484,4.1,3.391a1.176,1.176,0,0,0,1.5,0l7.106-5.875L44.9,28.97H3.966Zm17.529-1.5L46.51,3.635V27.249Z" transform="translate(0 0)" fill="#8081f7"/>
          </g>
        </g>
      </g>
      <g id="Grupo_1084117" data-name="Grupo 1084117" transform="translate(456.573 4440.916)">
        <rect id="Rectángulo_382975-14" data-name="Rectángulo 382975" width="48.896" height="28.763" rx="5" transform="translate(0 1.28)" fill="#fff"/>
        <g id="Grupo_1084105-15" data-name="Grupo 1084105" transform="translate(0.006 0)">
          <g id="Grupo_1084104-15" data-name="Grupo 1084104" clip-path="url(#clip-path-3)">
            <path id="Trazado_830127-15" data-name="Trazado 830127" d="M45.334,0H3.53A3.534,3.534,0,0,0,0,3.53V27.794a3.534,3.534,0,0,0,3.53,3.53h41.8a3.534,3.534,0,0,0,3.53-3.53V3.53A3.534,3.534,0,0,0,45.334,0m-20.9,18.834L4.5,2.353H44.368ZM2.353,3.634,14.759,13.89,2.353,27.248ZM16.576,15.393l3,2.484,4.1,3.391a1.176,1.176,0,0,0,1.5,0l7.106-5.875L44.9,28.97H3.966Zm17.529-1.5L46.51,3.635V27.249Z" transform="translate(0 0)" fill="#8081f7"/>
          </g>
        </g>
      </g>
      <g id="Grupo_1084118" data-name="Grupo 1084118" transform="translate(529.459 4377.279)">
        <rect id="Rectángulo_382975-15" data-name="Rectángulo 382975" width="48.896" height="28.763" rx="5" transform="translate(0 1.28)" fill="#fff"/>
        <g id="Grupo_1084105-16" data-name="Grupo 1084105" transform="translate(0.006)">
          <g id="Grupo_1084104-16" data-name="Grupo 1084104" clip-path="url(#clip-path-3)">
            <path id="Trazado_830127-16" data-name="Trazado 830127" d="M45.334,0H3.53A3.534,3.534,0,0,0,0,3.53V27.794a3.534,3.534,0,0,0,3.53,3.53h41.8a3.534,3.534,0,0,0,3.53-3.53V3.53A3.534,3.534,0,0,0,45.334,0m-20.9,18.834L4.5,2.353H44.368ZM2.353,3.634,14.759,13.89,2.353,27.248ZM16.576,15.393l3,2.484,4.1,3.391a1.176,1.176,0,0,0,1.5,0l7.106-5.875L44.9,28.97H3.966Zm17.529-1.5L46.51,3.635V27.249Z" transform="translate(0 0)" fill="#8081f7"/>
          </g>
        </g>
      </g>
      <g id="Grupo_1084120" data-name="Grupo 1084120" transform="translate(469.057 4228.389)">
        <rect id="Rectángulo_382975-16" data-name="Rectángulo 382975" width="49.244" height="28.826" rx="5" transform="translate(0 1.152)" fill="#fff"/>
        <g id="Grupo_1084105-17" data-name="Grupo 1084105" transform="translate(0.464 0)">
          <g id="Grupo_1084104-17" data-name="Grupo 1084104" clip-path="url(#clip-path-3)">
            <path id="Trazado_830127-17" data-name="Trazado 830127" d="M45.334,0H3.53A3.534,3.534,0,0,0,0,3.53V27.794a3.534,3.534,0,0,0,3.53,3.53h41.8a3.534,3.534,0,0,0,3.53-3.53V3.53A3.534,3.534,0,0,0,45.334,0m-20.9,18.834L4.5,2.353H44.368ZM2.353,3.634,14.759,13.89,2.353,27.248ZM16.576,15.393l3,2.484,4.1,3.391a1.176,1.176,0,0,0,1.5,0l7.106-5.875L44.9,28.97H3.966Zm17.529-1.5L46.51,3.635V27.249Z" transform="translate(0 0)" fill="#8081f7"/>
          </g>
        </g>
      </g>
      <g id="Grupo_1084125" data-name="Grupo 1084125" transform="translate(456.573 4156)">
        <rect id="Rectángulo_382975-17" data-name="Rectángulo 382975" width="48.896" height="28.763" rx="5" transform="translate(0 1.28)" fill="#fff"/>
        <g id="Grupo_1084105-18" data-name="Grupo 1084105" transform="translate(0.006 0)">
          <g id="Grupo_1084104-18" data-name="Grupo 1084104" clip-path="url(#clip-path-3)">
            <path id="Trazado_830127-18" data-name="Trazado 830127" d="M45.334,0H3.53A3.534,3.534,0,0,0,0,3.53V27.794a3.534,3.534,0,0,0,3.53,3.53h41.8a3.534,3.534,0,0,0,3.53-3.53V3.53A3.534,3.534,0,0,0,45.334,0m-20.9,18.834L4.5,2.353H44.368ZM2.353,3.634,14.759,13.89,2.353,27.248ZM16.576,15.393l3,2.484,4.1,3.391a1.176,1.176,0,0,0,1.5,0l7.106-5.875L44.9,28.97H3.966Zm17.529-1.5L46.51,3.635V27.249Z" transform="translate(0 0)" fill="#8081f7"/>
          </g>
        </g>
      </g>
      <g id="Grupo_1084119" data-name="Grupo 1084119" transform="translate(501.503 4302.374)">
        <rect id="Rectángulo_382975-18" data-name="Rectángulo 382975" width="48.896" height="28.763" rx="5" transform="translate(0 1.28)" fill="#fff"/>
        <g id="Grupo_1084105-19" data-name="Grupo 1084105" transform="translate(0.006)">
          <g id="Grupo_1084104-19" data-name="Grupo 1084104" clip-path="url(#clip-path-3)">
            <path id="Trazado_830127-19" data-name="Trazado 830127" d="M45.334,0H3.53A3.534,3.534,0,0,0,0,3.53V27.794a3.534,3.534,0,0,0,3.53,3.53h41.8a3.534,3.534,0,0,0,3.53-3.53V3.53A3.534,3.534,0,0,0,45.334,0m-20.9,18.834L4.5,2.353H44.368ZM2.353,3.634,14.759,13.89,2.353,27.248ZM16.576,15.393l3,2.484,4.1,3.391a1.176,1.176,0,0,0,1.5,0l7.106-5.875L44.9,28.97H3.966Zm17.529-1.5L46.51,3.635V27.249Z" transform="translate(0 0)" fill="#8081f7"/>
          </g>
        </g>
      </g>
      <g id="Grupo_1084114" data-name="Grupo 1084114" transform="translate(213.9 4498.008)">
        <rect id="Rectángulo_382975-19" data-name="Rectángulo 382975" width="48.896" height="28.763" rx="5" transform="translate(0 1.28)" fill="#fff"/>
        <g id="Grupo_1084105-20" data-name="Grupo 1084105" transform="translate(0.006)">
          <g id="Grupo_1084104-20" data-name="Grupo 1084104" clip-path="url(#clip-path-3)">
            <path id="Trazado_830127-20" data-name="Trazado 830127" d="M45.334,0H3.53A3.534,3.534,0,0,0,0,3.53V27.794a3.534,3.534,0,0,0,3.53,3.53h41.8a3.534,3.534,0,0,0,3.53-3.53V3.53A3.534,3.534,0,0,0,45.334,0m-20.9,18.834L4.5,2.353H44.368ZM2.353,3.634,14.759,13.89,2.353,27.248ZM16.576,15.393l3,2.484,4.1,3.391a1.176,1.176,0,0,0,1.5,0l7.106-5.875L44.9,28.97H3.966Zm17.529-1.5L46.51,3.635V27.249Z" transform="translate(0 0)" fill="#8081f7"/>
          </g>
        </g>
      </g>
      <g id="Grupo_1084115" data-name="Grupo 1084115" transform="translate(399.048 4498.008)">
        <rect id="Rectángulo_382975-20" data-name="Rectángulo 382975" width="48.896" height="28.763" rx="5" transform="translate(0 1.28)" fill="#fff"/>
        <g id="Grupo_1084105-21" data-name="Grupo 1084105" transform="translate(0.006)">
          <g id="Grupo_1084104-21" data-name="Grupo 1084104" clip-path="url(#clip-path-3)">
            <path id="Trazado_830127-21" data-name="Trazado 830127" d="M45.334,0H3.53A3.534,3.534,0,0,0,0,3.53V27.794a3.534,3.534,0,0,0,3.53,3.53h41.8a3.534,3.534,0,0,0,3.53-3.53V3.53A3.534,3.534,0,0,0,45.334,0m-20.9,18.834L4.5,2.353H44.368ZM2.353,3.634,14.759,13.89,2.353,27.248ZM16.576,15.393l3,2.484,4.1,3.391a1.176,1.176,0,0,0,1.5,0l7.106-5.875L44.9,28.97H3.966Zm17.529-1.5L46.51,3.635V27.249Z" transform="translate(0 0)" fill="#8081f7"/>
          </g>
        </g>
      </g>
      <g id="Grupo_1084116" data-name="Grupo 1084116" transform="translate(399.048 4410.715)">
        <rect id="Rectángulo_382975-21" data-name="Rectángulo 382975" width="48.896" height="28.763" rx="5" transform="translate(0 1.28)" fill="#fff"/>
        <g id="Grupo_1084105-22" data-name="Grupo 1084105" transform="translate(0.006 0)">
          <g id="Grupo_1084104-22" data-name="Grupo 1084104" clip-path="url(#clip-path-3)">
            <path id="Trazado_830127-22" data-name="Trazado 830127" d="M45.334,0H3.53A3.534,3.534,0,0,0,0,3.53V27.794a3.534,3.534,0,0,0,3.53,3.53h41.8a3.534,3.534,0,0,0,3.53-3.53V3.53A3.534,3.534,0,0,0,45.334,0m-20.9,18.834L4.5,2.353H44.368ZM2.353,3.634,14.759,13.89,2.353,27.248ZM16.576,15.393l3,2.484,4.1,3.391a1.176,1.176,0,0,0,1.5,0l7.106-5.875L44.9,28.97H3.966Zm17.529-1.5L46.51,3.635V27.249Z" transform="translate(0 0)" fill="#8081f7"/>
          </g>
        </g>
      </g>
      <path id="Trazado_833751" data-name="Trazado 833751" d="M-35.953-3.609A4.185,4.185,0,0,1-37.285-.824a4.365,4.365,0,0,1-2.98.98A4.008,4.008,0,0,1-43.5-1.289a5.815,5.815,0,0,1-1.215-3.867V-6.25a6.481,6.481,0,0,1,.566-2.789,4.231,4.231,0,0,1,1.605-1.848,4.47,4.47,0,0,1,2.406-.645,4.11,4.11,0,0,1,2.906,1.012,4.235,4.235,0,0,1,1.273,2.8h-1.508a3.268,3.268,0,0,0-.848-1.975,2.565,2.565,0,0,0-1.824-.611,2.684,2.684,0,0,0-2.254,1.063A4.882,4.882,0,0,0-43.2-6.215v1.1a5.018,5.018,0,0,0,.773,2.948A2.5,2.5,0,0,0-40.266-1.07a2.887,2.887,0,0,0,1.918-.566,3.143,3.143,0,0,0,.887-1.973ZM-32.562,0h-1.445V-12h1.445Zm7.531,0a3.036,3.036,0,0,1-.2-.891A3.225,3.225,0,0,1-27.641.156a2.984,2.984,0,0,1-2.051-.707,2.287,2.287,0,0,1-.8-1.793,2.39,2.39,0,0,1,1-2.051,4.733,4.733,0,0,1,2.824-.73h1.406v-.664A1.623,1.623,0,0,0-25.711-7a1.821,1.821,0,0,0-1.336-.449,2.108,2.108,0,0,0-1.3.391,1.151,1.151,0,0,0-.523.945H-30.32a2,2,0,0,1,.449-1.223,3.066,3.066,0,0,1,1.219-.934,4.1,4.1,0,0,1,1.691-.344,3.342,3.342,0,0,1,2.289.73,2.635,2.635,0,0,1,.859,2.012v3.891a4.757,4.757,0,0,0,.3,1.852V0Zm-2.4-1.1a2.54,2.54,0,0,0,1.289-.352,2.127,2.127,0,0,0,.883-.914V-4.1h-1.133q-2.656,0-2.656,1.555a1.316,1.316,0,0,0,.453,1.063A1.742,1.742,0,0,0-27.43-1.1Zm10.8-1.141a1.064,1.064,0,0,0-.441-.91,4.249,4.249,0,0,0-1.539-.559,7.277,7.277,0,0,1-1.742-.562,2.479,2.479,0,0,1-.953-.781,1.869,1.869,0,0,1-.309-1.078,2.193,2.193,0,0,1,.879-1.758,3.432,3.432,0,0,1,2.246-.719,3.532,3.532,0,0,1,2.332.742,2.357,2.357,0,0,1,.895,1.9h-1.453a1.3,1.3,0,0,0-.5-1.023,1.888,1.888,0,0,0-1.27-.43,1.976,1.976,0,0,0-1.234.344,1.082,1.082,0,0,0-.445.9.877.877,0,0,0,.414.789,5.1,5.1,0,0,0,1.5.508A7.8,7.8,0,0,1-16.5-4.3a2.558,2.558,0,0,1,1,.809,1.988,1.988,0,0,1,.324,1.152,2.163,2.163,0,0,1-.906,1.816,3.8,3.8,0,0,1-2.352.684,4.257,4.257,0,0,1-1.8-.359,2.922,2.922,0,0,1-1.223-1A2.42,2.42,0,0,1-21.9-2.6h1.445a1.5,1.5,0,0,0,.582,1.152,2.258,2.258,0,0,0,1.434.426,2.331,2.331,0,0,0,1.316-.332A1.02,1.02,0,0,0-16.625-2.242ZM-11.727,0h-1.445V-8.453h1.445Zm-1.562-10.7a.863.863,0,0,1,.215-.594.807.807,0,0,1,.637-.242.819.819,0,0,1,.641.242.854.854,0,0,1,.219.594.826.826,0,0,1-.219.586.834.834,0,0,1-.641.234.821.821,0,0,1-.637-.234A.834.834,0,0,1-13.289-10.7ZM-8.93,0V-7.336h-1.336V-8.453H-8.93v-.719a2.937,2.937,0,0,1,.809-2.2,3.136,3.136,0,0,1,2.285-.789,6.881,6.881,0,0,1,2.211.477l-.242,1.219a5.008,5.008,0,0,0-1.859-.391,1.819,1.819,0,0,0-1.34.418,1.723,1.723,0,0,0-.41,1.254v.734H-5.75v1.117H-7.477V0Zm6.023,0H-4.359V-8.453h1.453ZM2.836-1.023a2.082,2.082,0,0,0,1.352-.469,1.649,1.649,0,0,0,.641-1.172H6.2a2.621,2.621,0,0,1-.5,1.383A3.293,3.293,0,0,1,4.465-.234,3.55,3.55,0,0,1,2.836.156,3.482,3.482,0,0,1,.09-1,4.59,4.59,0,0,1-.93-4.148v-.242a5.089,5.089,0,0,1,.453-2.2,3.451,3.451,0,0,1,1.3-1.492,3.7,3.7,0,0,1,2-.531,3.39,3.39,0,0,1,2.363.852,3.043,3.043,0,0,1,1,2.211H4.828a1.992,1.992,0,0,0-.621-1.348,1.932,1.932,0,0,0-1.379-.527,2.023,2.023,0,0,0-1.707.793A3.724,3.724,0,0,0,.516-4.336v.273a3.65,3.65,0,0,0,.6,2.25A2.033,2.033,0,0,0,2.836-1.023ZM13.039,0a3.036,3.036,0,0,1-.2-.891A3.225,3.225,0,0,1,10.43.156,2.984,2.984,0,0,1,8.379-.551a2.287,2.287,0,0,1-.8-1.793,2.39,2.39,0,0,1,1-2.051,4.733,4.733,0,0,1,2.824-.73h1.406v-.664A1.623,1.623,0,0,0,12.359-7a1.821,1.821,0,0,0-1.336-.449,2.107,2.107,0,0,0-1.3.391,1.151,1.151,0,0,0-.523.945H7.75A2,2,0,0,1,8.2-7.332a3.066,3.066,0,0,1,1.219-.934,4.1,4.1,0,0,1,1.691-.344,3.342,3.342,0,0,1,2.289.73,2.635,2.635,0,0,1,.859,2.012v3.891a4.757,4.757,0,0,0,.3,1.852V0Zm-2.4-1.1a2.54,2.54,0,0,0,1.289-.352,2.127,2.127,0,0,0,.883-.914V-4.1H11.68q-2.656,0-2.656,1.555a1.316,1.316,0,0,0,.453,1.063A1.742,1.742,0,0,0,10.641-1.1Zm9.273.078a2.082,2.082,0,0,0,1.352-.469,1.649,1.649,0,0,0,.641-1.172h1.367a2.621,2.621,0,0,1-.5,1.383,3.293,3.293,0,0,1-1.23,1.047,3.55,3.55,0,0,1-1.629.391A3.482,3.482,0,0,1,17.168-1a4.59,4.59,0,0,1-1.02-3.152v-.242a5.089,5.089,0,0,1,.453-2.2,3.451,3.451,0,0,1,1.3-1.492,3.7,3.7,0,0,1,2-.531,3.39,3.39,0,0,1,2.363.852,3.043,3.043,0,0,1,1,2.211H21.906a1.992,1.992,0,0,0-.621-1.348,1.932,1.932,0,0,0-1.379-.527,2.023,2.023,0,0,0-1.707.793,3.724,3.724,0,0,0-.605,2.293v.273a3.65,3.65,0,0,0,.6,2.25A2.033,2.033,0,0,0,19.914-1.023ZM26.469,0H25.023V-8.453h1.445ZM24.906-10.7a.863.863,0,0,1,.215-.594.807.807,0,0,1,.637-.242.819.819,0,0,1,.641.242.854.854,0,0,1,.219.594.826.826,0,0,1-.219.586.834.834,0,0,1-.641.234.821.821,0,0,1-.637-.234A.834.834,0,0,1,24.906-10.7ZM28.4-4.3a4.993,4.993,0,0,1,.488-2.234A3.643,3.643,0,0,1,30.246-8.07a3.7,3.7,0,0,1,1.988-.539,3.565,3.565,0,0,1,2.793,1.2,4.6,4.6,0,0,1,1.066,3.18v.1a5.036,5.036,0,0,1-.473,2.215A3.589,3.589,0,0,1,34.27-.391a3.743,3.743,0,0,1-2.02.547,3.556,3.556,0,0,1-2.785-1.2A4.575,4.575,0,0,1,28.4-4.2Zm1.453.172A3.616,3.616,0,0,0,30.5-1.875a2.088,2.088,0,0,0,1.746.852A2.075,2.075,0,0,0,34-1.887,3.955,3.955,0,0,0,34.648-4.3a3.61,3.61,0,0,0-.66-2.254,2.1,2.1,0,0,0-1.754-.863,2.075,2.075,0,0,0-1.727.852A3.925,3.925,0,0,0,29.852-4.133Zm3.039-7.852h1.75l-2.094,2.3-1.164,0Zm6.383,3.531.047,1.063a3.08,3.08,0,0,1,2.531-1.219q2.68,0,2.7,3.023V0H43.109V-5.594a1.946,1.946,0,0,0-.418-1.352,1.675,1.675,0,0,0-1.277-.437,2.086,2.086,0,0,0-1.234.375,2.546,2.546,0,0,0-.828.984V0H37.906V-8.453Z" transform="translate(342.958 4588.28)" fill="#12263f"/>
      <g id="Grupo_1084199" data-name="Grupo 1084199" transform="translate(592.651 4352)">
        <g id="Grupo_1083608" data-name="Grupo 1083608" transform="translate(0 0)">
          <path id="Trazado_829826" data-name="Trazado 829826" d="M31.858.2a1.852,1.852,0,0,1,1.929.162L55.914,16.687a1.849,1.849,0,0,1,0,2.971L33.792,36.086a1.848,1.848,0,0,1-2.95-1.484V27.928H1.848A1.847,1.847,0,0,1,0,26.08V10.37A1.848,1.848,0,0,1,1.848,8.521H30.843V1.847A1.852,1.852,0,0,1,31.858.2" transform="translate(0 0.001)" fill="#24135a"/>
        </g>
      </g>
      <path id="Trazado_833752" data-name="Trazado 833752" d="M5,0H43.9a5,5,0,0,1,5,5V23.763a5,5,0,0,1-5,5H5a5,5,0,0,1-5-5V5A5,5,0,0,1,5,0Z" transform="translate(909.503 4272.002)" fill="#f34534"/>
      <g id="Grupo_1084105-23" data-name="Grupo 1084105" transform="translate(909.509 4270.722)">
        <g id="Grupo_1084104-23" data-name="Grupo 1084104" clip-path="url(#clip-path-8)">
          <path id="Trazado_830127-23" data-name="Trazado 830127" d="M45.334,0H3.53A3.534,3.534,0,0,0,0,3.53V27.794a3.534,3.534,0,0,0,3.53,3.53h41.8a3.534,3.534,0,0,0,3.53-3.53V3.53A3.534,3.534,0,0,0,45.334,0m-20.9,18.834L4.5,2.353H44.368ZM2.353,3.634,14.759,13.89,2.353,27.248ZM16.576,15.393l3,2.484,4.1,3.391a1.176,1.176,0,0,0,1.5,0l7.106-5.875L44.9,28.97H3.966Zm17.529-1.5L46.51,3.635V27.249Z" transform="translate(0 0)" fill="#b20000"/>
        </g>
      </g>
      <path id="Trazado_833753" data-name="Trazado 833753" d="M5,0H43.9a5,5,0,0,1,5,5V23.763a5,5,0,0,1-5,5H5a5,5,0,0,1-5-5V5A5,5,0,0,1,5,0Z" transform="translate(909.503 4440.167)" fill="#fff"/>
      <g id="Grupo_1084105-24" data-name="Grupo 1084105" transform="translate(909.509 4438.887)">
        <g id="Grupo_1084104-24" data-name="Grupo 1084104" clip-path="url(#clip-path-3)">
          <path id="Trazado_830127-24" data-name="Trazado 830127" d="M45.334,0H3.53A3.534,3.534,0,0,0,0,3.53V27.794a3.534,3.534,0,0,0,3.53,3.53h41.8a3.534,3.534,0,0,0,3.53-3.53V3.53A3.534,3.534,0,0,0,45.334,0m-20.9,18.834L4.5,2.353H44.368ZM2.353,3.634,14.759,13.89,2.353,27.248ZM16.576,15.393l3,2.484,4.1,3.391a1.176,1.176,0,0,0,1.5,0l7.106-5.875L44.9,28.97H3.966Zm17.529-1.5L46.51,3.635V27.249Z" transform="translate(0 0)" fill="#8081f7"/>
        </g>
      </g>
      <g id="Trazado_833749" data-name="Trazado 833749" transform="translate(658.404 4326)" fill="#fff">
        <path d="M 171.5898590087891 88.16562652587891 L 4.000012874603271 88.16562652587891 C 2.345808267593384 88.16562652587891 1.000012755393982 86.81983184814453 1.000012755393982 85.16562652587891 L 1.000012755393982 3.999991178512573 C 1.000012755393982 2.345786809921265 2.345808267593384 0.999991238117218 4.000012874603271 0.999991238117218 L 171.5898590087891 0.999991238117218 C 173.2440643310547 0.999991238117218 174.5898590087891 2.345786809921265 174.5898590087891 3.999991178512573 L 174.5898590087891 85.16562652587891 C 174.5898590087891 86.81983184814453 173.2440643310547 88.16562652587891 171.5898590087891 88.16562652587891 Z" stroke="none"/>
        <path d="M 4 2 C 2.897186279296875 2 2 2.897193908691406 2 4 L 2 85.16561889648438 C 2 86.26842498779297 2.897186279296875 87.16561889648438 4 87.16561889648438 L 171.58984375 87.16561889648438 C 172.6926574707031 87.16561889648438 173.58984375 86.26842498779297 173.58984375 85.16561889648438 L 173.58984375 4 C 173.58984375 2.897193908691406 172.6926574707031 2 171.58984375 2 L 4 2 M 4 0 L 171.58984375 0 C 173.7989654541016 0 175.58984375 1.790855407714844 175.58984375 4 L 175.58984375 85.16561889648438 C 175.58984375 87.37476348876953 173.7989654541016 89.16561889648438 171.58984375 89.16561889648438 L 4 89.16561889648438 C 1.790847778320312 89.16561889648438 0 87.37476348876953 0 85.16561889648438 L 0 4 C 0 1.790855407714844 1.790847778320312 0 4 0 Z" stroke="none" fill="#b20000"/>
      </g>
      <path id="Trazado_833745" data-name="Trazado 833745" d="M-38.4-11.375l3.719,9.281,3.719-9.281h1.945V0h-1.5V-4.43l.141-4.781L-34.109,0h-1.148l-3.727-9.187.148,4.758V0h-1.5V-11.375ZM-26.977-4.3a4.993,4.993,0,0,1,.488-2.234A3.643,3.643,0,0,1-25.129-8.07a3.7,3.7,0,0,1,1.988-.539,3.565,3.565,0,0,1,2.793,1.2,4.6,4.6,0,0,1,1.066,3.18v.1a5.036,5.036,0,0,1-.473,2.215A3.589,3.589,0,0,1-21.105-.391a3.743,3.743,0,0,1-2.02.547,3.556,3.556,0,0,1-2.785-1.2A4.575,4.575,0,0,1-26.977-4.2Zm1.453.172a3.616,3.616,0,0,0,.652,2.258,2.088,2.088,0,0,0,1.746.852,2.075,2.075,0,0,0,1.75-.863A3.955,3.955,0,0,0-20.727-4.3a3.61,3.61,0,0,0-.66-2.254,2.1,2.1,0,0,0-1.754-.863,2.075,2.075,0,0,0-1.727.852A3.925,3.925,0,0,0-25.523-4.133Zm7.7-.164A4.952,4.952,0,0,1-16.9-7.426a2.915,2.915,0,0,1,2.414-1.184,2.932,2.932,0,0,1,2.352,1.016V-12h1.445V0h-1.328l-.07-.906A2.943,2.943,0,0,1-14.5.156a2.887,2.887,0,0,1-2.395-1.2,5.008,5.008,0,0,1-.926-3.141Zm1.445.164a3.749,3.749,0,0,0,.594,2.25,1.92,1.92,0,0,0,1.641.813A2.108,2.108,0,0,0-12.133-2.3V-6.187a2.125,2.125,0,0,0-1.992-1.2,1.929,1.929,0,0,0-1.656.82A4.128,4.128,0,0,0-16.375-4.133ZM-4.937.156a3.693,3.693,0,0,1-2.8-1.129,4.19,4.19,0,0,1-1.078-3.02v-.266A5.073,5.073,0,0,1-8.332-6.5,3.748,3.748,0,0,1-6.988-8.051a3.378,3.378,0,0,1,1.871-.559A3.166,3.166,0,0,1-2.555-7.523a4.7,4.7,0,0,1,.914,3.109v.6H-7.367a3,3,0,0,0,.73,2.02,2.3,2.3,0,0,0,1.777.77,2.517,2.517,0,0,0,1.3-.312,3.259,3.259,0,0,0,.93-.828l.883.688A3.55,3.55,0,0,1-4.937.156Zm-.18-7.578a1.928,1.928,0,0,0-1.469.637A3.1,3.1,0,0,0-7.32-5h4.234v-.109A2.753,2.753,0,0,0-3.68-6.816,1.815,1.815,0,0,0-5.117-7.422ZM1.6,0H.156V-12H1.6Zm1.93-4.3A4.993,4.993,0,0,1,4.02-6.539,3.643,3.643,0,0,1,5.379-8.07a3.7,3.7,0,0,1,1.988-.539,3.565,3.565,0,0,1,2.793,1.2,4.6,4.6,0,0,1,1.066,3.18v.1a5.036,5.036,0,0,1-.473,2.215A3.589,3.589,0,0,1,9.4-.391a3.743,3.743,0,0,1-2.02.547A3.556,3.556,0,0,1,4.6-1.039,4.575,4.575,0,0,1,3.531-4.2Zm1.453.172a3.616,3.616,0,0,0,.652,2.258,2.088,2.088,0,0,0,1.746.852,2.075,2.075,0,0,0,1.75-.863A3.955,3.955,0,0,0,9.781-4.3a3.61,3.61,0,0,0-.66-2.254,2.1,2.1,0,0,0-1.754-.863,2.075,2.075,0,0,0-1.727.852A3.925,3.925,0,0,0,4.984-4.133ZM17.961-2.242a1.064,1.064,0,0,0-.441-.91,4.249,4.249,0,0,0-1.539-.559,7.277,7.277,0,0,1-1.742-.562,2.479,2.479,0,0,1-.953-.781,1.869,1.869,0,0,1-.309-1.078,2.193,2.193,0,0,1,.879-1.758A3.432,3.432,0,0,1,16.1-8.609a3.532,3.532,0,0,1,2.332.742,2.357,2.357,0,0,1,.895,1.9H17.875a1.3,1.3,0,0,0-.5-1.023,1.888,1.888,0,0,0-1.27-.43,1.976,1.976,0,0,0-1.234.344,1.082,1.082,0,0,0-.445.9.877.877,0,0,0,.414.789,5.1,5.1,0,0,0,1.5.508,7.8,7.8,0,0,1,1.754.578,2.558,2.558,0,0,1,1,.809,1.988,1.988,0,0,1,.324,1.152A2.163,2.163,0,0,1,18.5-.527a3.8,3.8,0,0,1-2.352.684,4.257,4.257,0,0,1-1.8-.359,2.922,2.922,0,0,1-1.223-1A2.42,2.42,0,0,1,12.688-2.6h1.445a1.5,1.5,0,0,0,.582,1.152,2.258,2.258,0,0,0,1.434.426,2.331,2.331,0,0,0,1.316-.332A1.02,1.02,0,0,0,17.961-2.242ZM24.9-4.3a4.952,4.952,0,0,1,.922-3.129,2.915,2.915,0,0,1,2.414-1.184,2.932,2.932,0,0,1,2.352,1.016V-12h1.445V0H30.7l-.07-.906A2.943,2.943,0,0,1,28.219.156a2.887,2.887,0,0,1-2.395-1.2A5.008,5.008,0,0,1,24.9-4.187Zm1.445.164a3.749,3.749,0,0,0,.594,2.25,1.92,1.92,0,0,0,1.641.813A2.108,2.108,0,0,0,30.586-2.3V-6.187a2.125,2.125,0,0,0-1.992-1.2,1.929,1.929,0,0,0-1.656.82A4.128,4.128,0,0,0,26.344-4.133ZM37.781.156a3.693,3.693,0,0,1-2.8-1.129,4.19,4.19,0,0,1-1.078-3.02v-.266a5.073,5.073,0,0,1,.48-2.246A3.748,3.748,0,0,1,35.73-8.051,3.378,3.378,0,0,1,37.6-8.609a3.166,3.166,0,0,1,2.563,1.086,4.7,4.7,0,0,1,.914,3.109v.6H35.352a3,3,0,0,0,.73,2.02,2.3,2.3,0,0,0,1.777.77,2.517,2.517,0,0,0,1.3-.312,3.259,3.259,0,0,0,.93-.828l.883.688A3.55,3.55,0,0,1,37.781.156ZM37.6-7.422a1.928,1.928,0,0,0-1.469.637A3.1,3.1,0,0,0,35.4-5h4.234v-.109a2.753,2.753,0,0,0-.594-1.707A1.815,1.815,0,0,0,37.6-7.422Zm-77.738,30.4a2.082,2.082,0,0,0,1.352-.469,1.649,1.649,0,0,0,.641-1.172h1.367a2.621,2.621,0,0,1-.5,1.383,3.293,3.293,0,0,1-1.23,1.047,3.55,3.55,0,0,1-1.629.391A3.482,3.482,0,0,1-42.883,23a4.59,4.59,0,0,1-1.02-3.152v-.242a5.089,5.089,0,0,1,.453-2.2,3.451,3.451,0,0,1,1.3-1.492,3.7,3.7,0,0,1,2-.531,3.39,3.39,0,0,1,2.363.852,3.043,3.043,0,0,1,1,2.211h-1.367a1.992,1.992,0,0,0-.621-1.348,1.932,1.932,0,0,0-1.379-.527,2.023,2.023,0,0,0-1.707.793,3.724,3.724,0,0,0-.605,2.293v.273a3.65,3.65,0,0,0,.6,2.25A2.033,2.033,0,0,0-40.137,22.977ZM-33.582,24h-1.445V12h1.445Zm7.531,0a3.036,3.036,0,0,1-.2-.891,3.225,3.225,0,0,1-2.406,1.047,2.984,2.984,0,0,1-2.051-.707,2.287,2.287,0,0,1-.8-1.793,2.39,2.39,0,0,1,1-2.051,4.733,4.733,0,0,1,2.824-.73h1.406v-.664A1.623,1.623,0,0,0-26.73,17a1.821,1.821,0,0,0-1.336-.449,2.108,2.108,0,0,0-1.3.391,1.151,1.151,0,0,0-.523.945H-31.34a2,2,0,0,1,.449-1.223,3.066,3.066,0,0,1,1.219-.934,4.1,4.1,0,0,1,1.691-.344,3.342,3.342,0,0,1,2.289.73,2.635,2.635,0,0,1,.859,2.012v3.891a4.757,4.757,0,0,0,.3,1.852V24Zm-2.4-1.1a2.54,2.54,0,0,0,1.289-.352,2.127,2.127,0,0,0,.883-.914V19.9H-27.41q-2.656,0-2.656,1.555a1.316,1.316,0,0,0,.453,1.063A1.742,1.742,0,0,0-28.449,22.9Zm10.8-1.141a1.064,1.064,0,0,0-.441-.91,4.249,4.249,0,0,0-1.539-.559,7.277,7.277,0,0,1-1.742-.562,2.479,2.479,0,0,1-.953-.781,1.869,1.869,0,0,1-.309-1.078,2.193,2.193,0,0,1,.879-1.758,3.432,3.432,0,0,1,2.246-.719,3.532,3.532,0,0,1,2.332.742,2.357,2.357,0,0,1,.895,1.9H-17.73a1.3,1.3,0,0,0-.5-1.023,1.888,1.888,0,0,0-1.27-.43,1.976,1.976,0,0,0-1.234.344,1.082,1.082,0,0,0-.445.9.877.877,0,0,0,.414.789,5.1,5.1,0,0,0,1.5.508,7.8,7.8,0,0,1,1.754.578,2.558,2.558,0,0,1,1,.809,1.988,1.988,0,0,1,.324,1.152,2.163,2.163,0,0,1-.906,1.816,3.8,3.8,0,0,1-2.352.684,4.257,4.257,0,0,1-1.8-.359,2.922,2.922,0,0,1-1.223-1,2.42,2.42,0,0,1-.441-1.395h1.445a1.5,1.5,0,0,0,.582,1.152,2.258,2.258,0,0,0,1.434.426,2.331,2.331,0,0,0,1.316-.332A1.02,1.02,0,0,0-17.645,21.758Zm4.9,2.242h-1.445V15.547h1.445Zm-1.562-10.7a.863.863,0,0,1,.215-.594.807.807,0,0,1,.637-.242.819.819,0,0,1,.641.242.854.854,0,0,1,.219.594.826.826,0,0,1-.219.586.834.834,0,0,1-.641.234.821.821,0,0,1-.637-.234A.834.834,0,0,1-14.309,13.3ZM-9.949,24V16.664h-1.336V15.547h1.336v-.719a2.937,2.937,0,0,1,.809-2.2,3.136,3.136,0,0,1,2.285-.789,6.881,6.881,0,0,1,2.211.477l-.242,1.219a5.008,5.008,0,0,0-1.859-.391,1.819,1.819,0,0,0-1.34.418,1.723,1.723,0,0,0-.41,1.254v.734H-6.77v1.117H-8.5V24Zm6.023,0H-5.379V15.547h1.453Zm5.742-1.023a2.082,2.082,0,0,0,1.352-.469,1.649,1.649,0,0,0,.641-1.172H5.176a2.621,2.621,0,0,1-.5,1.383,3.293,3.293,0,0,1-1.23,1.047,3.55,3.55,0,0,1-1.629.391A3.482,3.482,0,0,1-.93,23a4.59,4.59,0,0,1-1.02-3.152v-.242a5.089,5.089,0,0,1,.453-2.2A3.451,3.451,0,0,1-.2,15.922a3.7,3.7,0,0,1,2-.531,3.39,3.39,0,0,1,2.363.852,3.043,3.043,0,0,1,1,2.211H3.809a1.992,1.992,0,0,0-.621-1.348,1.932,1.932,0,0,0-1.379-.527A2.023,2.023,0,0,0,.1,17.371,3.724,3.724,0,0,0-.5,19.664v.273a3.65,3.65,0,0,0,.6,2.25A2.033,2.033,0,0,0,1.816,22.977ZM12.02,24a3.036,3.036,0,0,1-.2-.891A3.225,3.225,0,0,1,9.41,24.156a2.984,2.984,0,0,1-2.051-.707,2.287,2.287,0,0,1-.8-1.793,2.39,2.39,0,0,1,1-2.051,4.733,4.733,0,0,1,2.824-.73h1.406v-.664A1.623,1.623,0,0,0,11.34,17,1.821,1.821,0,0,0,10,16.555a2.108,2.108,0,0,0-1.3.391,1.151,1.151,0,0,0-.523.945H6.73a2,2,0,0,1,.449-1.223A3.066,3.066,0,0,1,8.4,15.734a4.1,4.1,0,0,1,1.691-.344,3.342,3.342,0,0,1,2.289.73,2.635,2.635,0,0,1,.859,2.012v3.891a4.757,4.757,0,0,0,.3,1.852V24Zm-2.4-1.1a2.54,2.54,0,0,0,1.289-.352,2.127,2.127,0,0,0,.883-.914V19.9H10.66Q8,19.9,8,21.453a1.316,1.316,0,0,0,.453,1.063A1.742,1.742,0,0,0,9.621,22.9Zm9.273.078a2.082,2.082,0,0,0,1.352-.469,1.649,1.649,0,0,0,.641-1.172h1.367a2.621,2.621,0,0,1-.5,1.383,3.293,3.293,0,0,1-1.23,1.047,3.55,3.55,0,0,1-1.629.391A3.482,3.482,0,0,1,16.148,23a4.59,4.59,0,0,1-1.02-3.152v-.242a5.089,5.089,0,0,1,.453-2.2,3.451,3.451,0,0,1,1.3-1.492,3.7,3.7,0,0,1,2-.531,3.39,3.39,0,0,1,2.363.852,3.043,3.043,0,0,1,1,2.211H20.887a1.992,1.992,0,0,0-.621-1.348,1.932,1.932,0,0,0-1.379-.527,2.023,2.023,0,0,0-1.707.793,3.724,3.724,0,0,0-.605,2.293v.273a3.65,3.65,0,0,0,.6,2.25A2.033,2.033,0,0,0,18.895,22.977ZM25.449,24H24V15.547h1.445ZM23.887,13.3a.863.863,0,0,1,.215-.594.807.807,0,0,1,.637-.242.819.819,0,0,1,.641.242.854.854,0,0,1,.219.594.826.826,0,0,1-.219.586.834.834,0,0,1-.641.234.821.821,0,0,1-.637-.234A.834.834,0,0,1,23.887,13.3ZM27.379,19.7a4.993,4.993,0,0,1,.488-2.234,3.643,3.643,0,0,1,1.359-1.531,3.7,3.7,0,0,1,1.988-.539,3.565,3.565,0,0,1,2.793,1.2,4.6,4.6,0,0,1,1.066,3.18v.1a5.036,5.036,0,0,1-.473,2.215,3.589,3.589,0,0,1-1.352,1.527,3.743,3.743,0,0,1-2.02.547,3.556,3.556,0,0,1-2.785-1.2A4.575,4.575,0,0,1,27.379,19.8Zm1.453.172a3.616,3.616,0,0,0,.652,2.258,2.211,2.211,0,0,0,3.5-.012,3.955,3.955,0,0,0,.648-2.418,3.61,3.61,0,0,0-.66-2.254,2.1,2.1,0,0,0-1.754-.863,2.075,2.075,0,0,0-1.727.852A3.925,3.925,0,0,0,28.832,19.867Zm3.039-7.852h1.75l-2.094,2.3-1.164,0Zm6.383,3.531.047,1.063a3.08,3.08,0,0,1,2.531-1.219q2.68,0,2.7,3.023V24H42.09V18.406a1.946,1.946,0,0,0-.418-1.352,1.675,1.675,0,0,0-1.277-.437,2.086,2.086,0,0,0-1.234.375,2.546,2.546,0,0,0-.828.984V24H36.887V15.547Z" transform="translate(746.404 4365)" fill="#12263f"/>
    </g>
  </g>
</svg>
