<svg xmlns="http://www.w3.org/2000/svg" xmlns:xlink="http://www.w3.org/1999/xlink" width="110.389" height="110.389" viewBox="0 0 110.389 110.389">
  <defs>
    <filter id="Elipse_10564" x="0" y="0" width="110.389" height="110.389" filterUnits="userSpaceOnUse">
      <feOffset dy="3" input="SourceAlpha"/>
      <feGaussianBlur stdDeviation="3" result="blur"/>
      <feFlood flood-opacity="0.161"/>
      <feComposite operator="in" in2="blur"/>
      <feComposite in="SourceGraphic"/>
    </filter>
  </defs>
  <g id="Grupo_1084918" data-name="Grupo 1084918" transform="translate(-497.617 -2703.968)">
    <g transform="matrix(1, 0, 0, 1, 497.62, 2703.97)" filter="url(#Elipse_10564)">
      <circle id="Elipse_10564-2" data-name="Elipse 10564" cx="46.195" cy="46.195" r="46.195" transform="translate(9 6)" fill="#fff"/>
    </g>
    <g id="Grupo_1084077" data-name="Grupo 1084077" transform="translate(304.828 726.464)">
      <g id="Grupo_1070195" data-name="Grupo 1070195" transform="translate(228.663 1996.922)">
        <rect id="Rectángulo_374304" data-name="Rectángulo 374304" width="38.641" height="65.553" rx="3" transform="translate(0 0)" fill="#9697f8"/>
      </g>
      <g id="pago-web" transform="translate(219.497 2002.361)">
        <rect id="Rectángulo_375182" data-name="Rectángulo 375182" width="42.727" height="2.269" transform="translate(7.123 48.064)" fill="#346e95"/>
        <rect id="Rectángulo_375183" data-name="Rectángulo 375183" width="55.303" height="38.723" transform="translate(0.835 4.877)" fill="#f2f2f2"/>
        <g id="Grupo_1071079" data-name="Grupo 1071079" transform="translate(0.835 4.877)">
          <path id="Trazado_817440" data-name="Trazado 817440" d="M169.6,167.943H146.666q-.235-2.128-.3-4.7c-.013-.484-.021-9.519-.024-14.863a4.422,4.422,0,1,1,8.844,0V155.4h8.293a6.725,6.725,0,0,1,3.582,1.084A4.479,4.479,0,0,1,169.128,160Z" transform="translate(-130.891 -129.22)" fill="#e2e2e2"/>
          <rect id="Rectángulo_375184" data-name="Rectángulo 375184" width="55.303" height="6.842" transform="translate(0 31.882)" fill="#e2e2e2"/>
          <rect id="Rectángulo_375185" data-name="Rectángulo 375185" width="55.303" height="6.922" fill="#e2e2e2"/>
        </g>
        <rect id="Rectángulo_375186" data-name="Rectángulo 375186" width="55.303" height="4.677" transform="translate(0.835 4.877)" fill="#34a1d7"/>
        <rect id="Rectángulo_375187" data-name="Rectángulo 375187" width="55.303" height="4.525" transform="translate(0.835 39.065)" fill="#346e95"/>
        <path id="Trazado_817441" data-name="Trazado 817441" d="M169.829,323.32v.009H146.9s0-.006,0-.009q-.227-2.055-.3-4.526h22.961Z" transform="translate(-130.287 -279.728)" fill="#2b6483"/>
        <path id="Trazado_817442" data-name="Trazado 817442" d="M156.13,93.345v10.6a5.548,5.548,0,0,1-5.549,5.548H128V93.345Z" transform="translate(-113.753 -79.366)" fill="#ffbb4a"/>
        <path id="Trazado_817443" data-name="Trazado 817443" d="M155.182,148.381v6.1h-8.84c0-2.14,0-4.321,0-6.094a4.422,4.422,0,1,1,8.844,0Z" transform="translate(-130.054 -124.347)" fill="#f9ae41"/>
        <circle id="Elipse_9628" data-name="Elipse 9628" cx="2.339" cy="2.339" r="2.339" transform="translate(27.695 17.943)" fill="#34a1d7"/>
        <circle id="Elipse_9629" data-name="Elipse 9629" cx="2.339" cy="2.339" r="2.339" transform="translate(24.248 17.943)" fill="#ef5a50"/>
        <path id="Trazado_817444" data-name="Trazado 817444" d="M181.415,183.314l-.582-9.837a2.8,2.8,0,0,0-1.292-2.2,5.036,5.036,0,0,0-2.687-.825h-9.967v-8.7a2.747,2.747,0,0,0-2.747-2.747h0a2.747,2.747,0,0,0-2.747,2.748c0,4.893.011,14.351.024,14.821.326,12.667,3.764,13.178,4.126,13.385l.031.016v2.483h12.879v-2.5l1.014-1.133A7.693,7.693,0,0,0,181.415,183.314Z" transform="translate(-143.432 -137.724)" fill="#ffcfab"/>
        <path id="Trazado_817445" data-name="Trazado 817445" d="M211.6,439.7H198.72v-2.483l-.031-.016H211.6v2.5Z" transform="translate(-176.58 -384.957)" fill="#e9be9d"/>
        <rect id="Rectángulo_375188" data-name="Rectángulo 375188" width="15.321" height="5" transform="translate(20.923 54.279)" fill="#2b6483"/>
        <path id="Trazado_817446" data-name="Trazado 817446" d="M369.4,179.193l1.788,4.283a.549.549,0,0,0,.895.177l2.495-2.495a.549.549,0,0,0-.177-.895l-4.283-1.788A.549.549,0,0,0,369.4,179.193Z" transform="translate(-328.261 -154.984)" fill="#3eaf91"/>
        <path id="Trazado_817447" data-name="Trazado 817447" d="M56.137,4.042H27.772a.835.835,0,1,0,0,1.669H55.3V8.719H1.669V5.711H24.378a.835.835,0,0,0,0-1.669H.835A.834.834,0,0,0,0,4.877V43.6a.834.834,0,0,0,.835.835H4.5a.835.835,0,1,0,0-1.669H1.669V39.9H17.183c.041,1.005.1,1.964.189,2.865H7.892a.835.835,0,0,0,0,1.669h2.165v2.8H7.123a.834.834,0,0,0-.835.835v2.269a.835.835,0,0,0,.835.835h12.5a4.576,4.576,0,0,0,1.678,1.626v.652h-.383a.834.834,0,0,0-.835.835v5a.834.834,0,0,0,.835.835H36.244a.834.834,0,0,0,.835-.835v-5a.834.834,0,0,0-.835-.835h-.392V52.56l.8-.9c.145-.162.281-.328.41-.5H49.849a.834.834,0,0,0,.835-.835V48.064a.834.834,0,0,0-.835-.835H46.915v-2.8h9.222a.834.834,0,0,0,.835-.835V32.7a.835.835,0,0,0-1.669,0V38.23H38.383l-.15-2.528a3.634,3.634,0,0,0-1.678-2.853A5.883,5.883,0,0,0,33.42,31.9H24.288v-.93H36.829a6.393,6.393,0,0,0,5.144-2.6l.189.453a1.383,1.383,0,0,0,2.255.445l2.495-2.495a1.383,1.383,0,0,0-.445-2.255L43.212,23.15V13.98a.835.835,0,0,0-.835-.835H14.243a.834.834,0,0,0-.835.835V30.131a.835.835,0,0,0,.835.835h2.886c0,3.739.009,6.171.014,7.265H1.669V10.388H55.3V29.306a.835.835,0,1,0,1.669,0V4.877A.834.834,0,0,0,56.137,4.042ZM11.726,44.434h5.837c.138,1.015.31,1.95.513,2.8H11.726S11.726,44.434,11.726,44.434ZM7.957,48.9h10.6q.107.311.223.6H7.957Zm27.452,9.547H21.757V55.115H35.409ZM49.015,49.5H38.065q.134-.295.245-.6h10.7v.6Zm-3.769-2.269H38.734a8.58,8.58,0,0,0,.082-1.688l-.065-1.107h6.5ZM55.3,39.9v2.865H38.651L38.481,39.9ZM33.42,33.565a4.221,4.221,0,0,1,2.243.7,1.961,1.961,0,0,1,.9,1.541l.582,9.83a6.852,6.852,0,0,1-1.2,4.23l0,0v0a6.828,6.828,0,0,1-.538.685L34.4,51.684a.835.835,0,0,0-.213.556v1.2H22.975V52.257a.752.752,0,0,0-.5-.768c-.054-.027-.107-.049-.158-.069a2.912,2.912,0,0,1-1.491-1.5,10.272,10.272,0,0,1-.859-2.1v-.008a25.286,25.286,0,0,1-.833-4.311c-.155-1.344-.31-4.672-.31-4.672,0-.143-.012-1.463-.02-8.7,0-1.554,0-3.11,0-4.473V24.034a1.913,1.913,0,1,1,3.825,0v8.7a.835.835,0,0,0,.835.835Zm10.118-5.788-1.356-3.248,3.248,1.356ZM15.078,14.814H41.543v7.8a1.384,1.384,0,0,0-1.169,1.912l.793,1.9A4.721,4.721,0,0,1,36.829,29.3H24.288V24.033a3.582,3.582,0,1,0-7.164,0v1.623c0,1.119,0,2.368,0,3.639h-2.05Z"/>
        <path id="Trazado_817448" data-name="Trazado 817448" d="M385.412,26.726a.835.835,0,0,0,0-1.669h-.118a.835.835,0,0,0,0,1.669Z" transform="translate(-341.68 -18.677)"/>
        <path id="Trazado_817449" data-name="Trazado 817449" d="M415.015,26.726a.835.835,0,1,0,0-1.669H414.9a.835.835,0,0,0,0,1.669Z" transform="translate(-367.989 -18.677)"/>
        <path id="Trazado_817450" data-name="Trazado 817450" d="M444.619,26.726a.835.835,0,0,0,0-1.669H444.5a.835.835,0,1,0,0,1.669Z" transform="translate(-394.299 -18.677)"/>
        <path id="Trazado_817451" data-name="Trazado 817451" d="M213.586,127.818a3.154,3.154,0,0,0,1.724-.511,3.174,3.174,0,1,0,0-5.326,3.173,3.173,0,1,0-1.723,5.837Zm4.951-3.174a1.5,1.5,0,0,1-2.095,1.382,3.169,3.169,0,0,0,0-2.764,1.5,1.5,0,0,1,2.1,1.382Zm-4.951-1.5a1.5,1.5,0,1,1-1.5,1.5A1.506,1.506,0,0,1,213.586,123.139Z" transform="translate(-186.999 -104.361)"/>
        <path id="Trazado_817452" data-name="Trazado 817452" d="M255.978,200.9a.834.834,0,0,0,.835.835h7.866a.835.835,0,1,0,0-1.669h-7.866A.834.834,0,0,0,255.978,200.9Z" transform="translate(-227.494 -174.208)"/>
        <path id="Trazado_817453" data-name="Trazado 817453" d="M222.268,200.062H221.3a.835.835,0,0,0,0,1.669h.971a.835.835,0,0,0,0-1.669Z" transform="translate(-195.93 -174.208)"/>
        <path id="Trazado_817454" data-name="Trazado 817454" d="M419.954,131.874H416.6a.835.835,0,0,0,0,1.669h3.353a.835.835,0,0,0,0-1.669Z" transform="translate(-369.503 -113.608)"/>
        <path id="Trazado_817455" data-name="Trazado 817455" d="M419.954,151.036H416.6a.835.835,0,0,0,0,1.669h3.353a.835.835,0,0,0,0-1.669Z" transform="translate(-369.503 -130.637)"/>
        <path id="Trazado_817456" data-name="Trazado 817456" d="M55.288,131.874H51.936a.835.835,0,0,0,0,1.669h3.353a.835.835,0,1,0,0-1.669Z" transform="translate(-45.415 -113.608)"/>
        <path id="Trazado_817457" data-name="Trazado 817457" d="M55.288,151.036H51.936a.835.835,0,0,0,0,1.669h3.353a.835.835,0,1,0,0-1.669Z" transform="translate(-45.415 -130.637)"/>
      </g>
    </g>
  </g>
</svg>
