<svg xmlns="http://www.w3.org/2000/svg" xmlns:xlink="http://www.w3.org/1999/xlink" width="110.389" height="110.389" viewBox="0 0 110.389 110.389">
  <defs>
    <filter id="Elipse_10682" x="0" y="0" width="110.389" height="110.389" filterUnits="userSpaceOnUse">
      <feOffset dy="3" input="SourceAlpha"/>
      <feGaussianBlur stdDeviation="3" result="blur"/>
      <feFlood flood-opacity="0.161"/>
      <feComposite operator="in" in2="blur"/>
      <feComposite in="SourceGraphic"/>
    </filter>
  </defs>
  <g id="Grupo_1088419" data-name="Grupo 1088419" transform="translate(-992.706 -2703.968)">
    <g transform="matrix(1, 0, 0, 1, 992.71, 2703.97)" filter="url(#Elipse_10682)">
      <circle id="Elipse_10682-2" data-name="Elipse 10682" cx="46.195" cy="46.195" r="46.195" transform="translate(9 6)" fill="#fff"/>
    </g>
    <g id="Grupo_1084078" data-name="Grupo 1084078" transform="translate(798.399 725.318)">
      <g id="Grupo_1070195" data-name="Grupo 1070195" transform="translate(228.663 1996.922)">
        <rect id="Rectángulo_374304" data-name="Rectángulo 374304" width="38.641" height="65.553" rx="3" transform="translate(0 0)" fill="#9697f8"/>
      </g>
      <g id="codigo-binario_1_" data-name="codigo-binario (1)" transform="translate(188.197 2007.682)">
        <path id="Trazado_817525" data-name="Trazado 817525" d="M80.448,62.24H44.762A1.762,1.762,0,0,1,43,60.478V9.262A1.762,1.762,0,0,1,44.762,7.5H80.448A1.762,1.762,0,0,1,82.21,9.262V60.478A1.762,1.762,0,0,1,80.448,62.24Z" transform="translate(-6.674 -6.674)" fill="#eaf6ff"/>
        <path id="Trazado_817526" data-name="Trazado 817526" d="M356.3,7.5H353a1.762,1.762,0,0,1,1.762,1.762V60.478A1.762,1.762,0,0,1,353,62.24h3.3a1.762,1.762,0,0,0,1.762-1.762V9.262A1.762,1.762,0,0,0,356.3,7.5Z" transform="translate(-282.53 -6.674)" fill="#d8ecfe"/>
        <path id="Trazado_817527" data-name="Trazado 817527" d="M82.21,14.109H43V9.262A1.762,1.762,0,0,1,44.762,7.5H80.448A1.762,1.762,0,0,1,82.21,9.262Z" transform="translate(-6.674 -6.674)" fill="#2abcc8"/>
        <path id="Trazado_817528" data-name="Trazado 817528" d="M356.3,7.5H353a1.762,1.762,0,0,1,1.762,1.762v4.846h3.3V9.262A1.762,1.762,0,0,0,356.3,7.5Z" transform="translate(-282.53 -6.674)" fill="#0cacba"/>
        <path id="Trazado_817529" data-name="Trazado 817529" d="M81.985,11.025h0a1.652,1.652,0,0,1-1.652-1.652V7.5h3.3V9.372A1.652,1.652,0,0,1,81.985,11.025Z" transform="translate(-39.895 -6.674)" fill="#fe7ab6"/>
        <path id="Trazado_817530" data-name="Trazado 817530" d="M137.319,11.025h0a1.652,1.652,0,0,1-1.652-1.652V7.5h3.3V9.372A1.652,1.652,0,0,1,137.319,11.025Z" transform="translate(-89.134 -6.674)" fill="#fdb441"/>
        <path id="Trazado_817531" data-name="Trazado 817531" d="M192.652,11.025h0A1.652,1.652,0,0,1,191,9.372V7.5h3.3V9.372A1.652,1.652,0,0,1,192.652,11.025Z" transform="translate(-138.373 -6.674)" fill="#edf9d9"/>
        <path id="Trazado_817532" data-name="Trazado 817532" d="M259.011,233.137H236.762A1.762,1.762,0,0,1,235,231.375V206.262a1.762,1.762,0,0,1,1.762-1.762h22.249a1.762,1.762,0,0,1,1.762,1.762v25.112A1.762,1.762,0,0,1,259.011,233.137Z" transform="translate(-177.527 -181.976)" fill="#d8ecfe"/>
        <path id="Trazado_817533" data-name="Trazado 817533" d="M426.3,204.5H423a1.762,1.762,0,0,1,1.762,1.762v25.112A1.762,1.762,0,0,1,423,233.137h3.3a1.762,1.762,0,0,0,1.762-1.762V206.262A1.762,1.762,0,0,0,426.3,204.5Z" transform="translate(-344.82 -181.976)" fill="#c4e2ff"/>
        <path id="Trazado_817534" data-name="Trazado 817534" d="M265.634,393.372h0a1.872,1.872,0,0,1,1.872-1.872h14.979a1.872,1.872,0,0,1,1.872,1.872h0a1.872,1.872,0,0,1-1.872,1.872H267.506A1.872,1.872,0,0,1,265.634,393.372Z" transform="translate(-204.787 -348.38)" fill="#fdb441"/>
        <path id="Trazado_817535" data-name="Trazado 817535" d="M391.938,391.5h-3.3a1.872,1.872,0,0,1,1.872,1.872h0a1.872,1.872,0,0,1-1.872,1.872h3.3a1.872,1.872,0,0,0,1.872-1.872h0A1.872,1.872,0,0,0,391.938,391.5Z" transform="translate(-314.239 -348.38)" fill="#fe9738"/>
        <path id="Trazado_817536" data-name="Trazado 817536" d="M260.773,210.888H235v-4.626a1.762,1.762,0,0,1,1.762-1.762h22.249a1.762,1.762,0,0,1,1.762,1.762Z" transform="translate(-177.527 -181.976)" fill="#2abcc8"/>
        <path id="Trazado_817537" data-name="Trazado 817537" d="M426.3,204.5H423a1.762,1.762,0,0,1,1.762,1.762v4.626h3.3v-4.626A1.762,1.762,0,0,0,426.3,204.5Z" transform="translate(-344.82 -181.976)" fill="#0cacba"/>
        <path id="Trazado_817538" data-name="Trazado 817538" d="M94.933,275.39H85.081a.581.581,0,0,1-.581-.581V257.247a.581.581,0,0,1,.581-.581h9.852a.581.581,0,0,1,.581.581v17.561A.581.581,0,0,1,94.933,275.39Z" transform="translate(-43.603 -228.396)" fill="#fe7ab6"/>
        <path id="Trazado_817539" data-name="Trazado 817539" d="M152.526,256.667h-3.3a.581.581,0,0,1,.581.581V274.81a.581.581,0,0,1-.581.581h3.3a.581.581,0,0,0,.581-.581V257.248A.581.581,0,0,0,152.526,256.667Z" transform="translate(-101.196 -228.397)" fill="#fe5ca7"/>
        <g id="Grupo_1071139" data-name="Grupo 1071139" transform="translate(35.5 0)">
          <path id="Trazado_817540" data-name="Trazado 817540" d="M75.537,23.111a.826.826,0,0,1-.826-.826V2.588a.937.937,0,0,0-.936-.936H38.088a.937.937,0,0,0-.936.936V13.135a.826.826,0,0,1-1.652,0V2.588A2.591,2.591,0,0,1,38.088,0H73.774a2.591,2.591,0,0,1,2.588,2.588v19.7A.826.826,0,0,1,75.537,23.111Z" transform="translate(-35.5 0)"/>
          <path id="Trazado_817541" data-name="Trazado 817541" d="M73.774,189.426H38.088a2.591,2.591,0,0,1-2.588-2.588V150.326a.826.826,0,1,1,1.652,0v36.512a.937.937,0,0,0,.936.936H73.774a.937.937,0,0,0,.936-.936v-2.393a.826.826,0,0,1,1.652,0v2.393A2.591,2.591,0,0,1,73.774,189.426Z" transform="translate(-35.5 -133.034)"/>
          <path id="Línea_3866" data-name="Línea 3866" d="M32-5.848H-6.674A.826.826,0,0,1-7.5-6.674.826.826,0,0,1-6.674-7.5H32a.826.826,0,0,1,.826.826A.826.826,0,0,1,32-5.848Z" transform="translate(7.83 14.109)"/>
          <path id="Trazado_817542" data-name="Trazado 817542" d="M75.311,5.177A2.481,2.481,0,0,1,72.833,2.7V.826A.826.826,0,0,1,73.659,0h3.3a.826.826,0,0,1,.826.826V2.7A2.481,2.481,0,0,1,75.311,5.177Zm-.826-3.525V2.7a.826.826,0,1,0,1.652,0V1.652Z" transform="translate(-68.721 0)"/>
          <path id="Trazado_817543" data-name="Trazado 817543" d="M130.645,5.177A2.481,2.481,0,0,1,128.167,2.7V.826A.826.826,0,0,1,128.993,0h3.3a.826.826,0,0,1,.826.826V2.7A2.481,2.481,0,0,1,130.645,5.177Zm-.826-3.525V2.7a.826.826,0,1,0,1.652,0V1.652Z" transform="translate(-117.961 0)"/>
          <path id="Trazado_817544" data-name="Trazado 817544" d="M185.978,5.177A2.481,2.481,0,0,1,183.5,2.7V.826A.826.826,0,0,1,184.326,0h3.3a.826.826,0,0,1,.826.826V2.7A2.481,2.481,0,0,1,185.978,5.177Zm-.826-3.525V2.7a.826.826,0,0,0,1.652,0V1.652Z" transform="translate(-167.199 0)"/>
          <g id="Grupo_1071136" data-name="Grupo 1071136" transform="translate(27.866 32.063)">
            <path id="Línea_3867" data-name="Línea 3867" d="M-1.332-5.848H-6.674A.826.826,0,0,1-7.5-6.674.826.826,0,0,1-6.674-7.5h5.342a.826.826,0,0,1,.826.826A.826.826,0,0,1-1.332-5.848Z" transform="translate(7.5 7.5)"/>
            <path id="Línea_3868" data-name="Línea 3868" d="M6.543-5.848H-6.674A.826.826,0,0,1-7.5-6.674.826.826,0,0,1-6.674-7.5H6.543a.826.826,0,0,1,.826.826A.826.826,0,0,1,6.543-5.848Z" transform="translate(7.5 10.388)"/>
            <path id="Línea_3869" data-name="Línea 3869" d="M4.726-5.848h-11.4A.826.826,0,0,1-7.5-6.674.826.826,0,0,1-6.674-7.5h11.4a.826.826,0,0,1,.826.826A.826.826,0,0,1,4.726-5.848Z" transform="translate(7.5 13.276)"/>
          </g>
          <path id="Trazado_817545" data-name="Trazado 817545" d="M252.337,227.289H241.47a.826.826,0,0,1,0-1.652h10.867a.937.937,0,0,0,.936-.936V199.588a.937.937,0,0,0-.936-.936H230.088a.937.937,0,0,0-.936.936V224.7a.937.937,0,0,0,.936.936h7.453a.826.826,0,1,1,0,1.652h-7.453A2.591,2.591,0,0,1,227.5,224.7V199.588A2.591,2.591,0,0,1,230.088,197h22.249a2.591,2.591,0,0,1,2.588,2.588V224.7A2.591,2.591,0,0,1,252.337,227.289Z" transform="translate(-206.353 -175.302)"/>
          <path id="Trazado_817546" data-name="Trazado 817546" d="M260.832,384h14.979a2.7,2.7,0,1,1,0,5.4H260.832a2.7,2.7,0,0,1,0-5.4Zm14.979,3.745a1.046,1.046,0,0,0,0-2.093H260.832a1.046,1.046,0,0,0,0,2.093Z" transform="translate(-233.613 -341.706)"/>
          <path id="Línea_3870" data-name="Línea 3870" d="M18.524-5.848h-25.2A.826.826,0,0,1-7.5-6.674.826.826,0,0,1-6.674-7.5h25.2a.826.826,0,0,1,.826.826A.826.826,0,0,1,18.524-5.848Z" transform="translate(29.027 35.586)"/>
          <path id="Trazado_817547" data-name="Trazado 817547" d="M88.259,269.542H78.407A1.409,1.409,0,0,1,77,268.135V250.573a1.409,1.409,0,0,1,1.407-1.407h9.852a1.409,1.409,0,0,1,1.407,1.407v17.561A1.409,1.409,0,0,1,88.259,269.542Zm-9.607-1.652h9.362V250.818H78.652Z" transform="translate(-72.429 -221.722)"/>
          <g id="Grupo_1071137" data-name="Grupo 1071137" transform="translate(7.693 31.078)">
            <path id="Línea_3871" data-name="Línea 3871" d="M-3.957-5.848H-6.674A.826.826,0,0,1-7.5-6.674.826.826,0,0,1-6.674-7.5h2.717a.826.826,0,0,1,.826.826A.826.826,0,0,1-3.957-5.848Z" transform="translate(7.5 7.5)"/>
            <path id="Línea_3872" data-name="Línea 3872" d="M-3.957-5.848H-6.674A.826.826,0,0,1-7.5-6.674.826.826,0,0,1-6.674-7.5h2.717a.826.826,0,0,1,.826.826A.826.826,0,0,1-3.957-5.848Z" transform="translate(7.5 18.22)"/>
            <path id="Línea_3873" data-name="Línea 3873" d="M-2.086-5.848H-6.674A.826.826,0,0,1-7.5-6.674.826.826,0,0,1-6.674-7.5h4.588a.826.826,0,0,1,.826.826A.826.826,0,0,1-2.086-5.848Z" transform="translate(7.5 10.18)"/>
            <path id="Línea_3874" data-name="Línea 3874" d="M-2.086-5.848H-6.674A.826.826,0,0,1-7.5-6.674.826.826,0,0,1-6.674-7.5h4.588a.826.826,0,0,1,.826.826A.826.826,0,0,1-2.086-5.848Z" transform="translate(7.5 12.86)"/>
          </g>
          <g id="Grupo_1071138" data-name="Grupo 1071138" transform="translate(5.067 12.611)">
            <path id="Trazado_817548" data-name="Trazado 817548" d="M84.2,121.5a2.7,2.7,0,0,1-2.7-2.7v-1.1a2.7,2.7,0,0,1,5.4,0v1.1A2.7,2.7,0,0,1,84.2,121.5Zm0-4.846a1.048,1.048,0,0,0-1.046,1.046v1.1a1.046,1.046,0,1,0,2.093,0v-1.1A1.048,1.048,0,0,0,84.2,116.652Z" transform="translate(-81.5 -114.945)"/>
            <path id="Línea_3875" data-name="Línea 3875" d="M-6.674-1A.826.826,0,0,1-7.5-1.828V-6.674A.826.826,0,0,1-6.674-7.5a.826.826,0,0,1,.826.826v4.846A.826.826,0,0,1-6.674-1Z" transform="translate(14.769 7.5)"/>
            <path id="Trazado_817549" data-name="Trazado 817549" d="M182.2,121.5a2.7,2.7,0,0,1-2.7-2.7v-1.1a2.7,2.7,0,1,1,5.4,0v1.1A2.7,2.7,0,0,1,182.2,121.5Zm0-4.846a1.048,1.048,0,0,0-1.046,1.046v1.1a1.046,1.046,0,1,0,2.093,0v-1.1A1.048,1.048,0,0,0,182.2,116.652Z" transform="translate(-168.706 -114.945)"/>
            <path id="Línea_3876" data-name="Línea 3876" d="M-6.674-1A.826.826,0,0,1-7.5-1.828V-6.674A.826.826,0,0,1-6.674-7.5a.826.826,0,0,1,.826.826v4.846A.826.826,0,0,1-6.674-1Z" transform="translate(25.563 7.5)"/>
            <path id="Trazado_817550" data-name="Trazado 817550" d="M280.2,121.5a2.7,2.7,0,0,1-2.7-2.7v-1.1a2.7,2.7,0,1,1,5.4,0v1.1A2.7,2.7,0,0,1,280.2,121.5Zm0-4.846a1.048,1.048,0,0,0-1.046,1.046v1.1a1.046,1.046,0,1,0,2.093,0v-1.1A1.048,1.048,0,0,0,280.2,116.652Z" transform="translate(-255.912 -114.945)"/>
            <path id="Línea_3877" data-name="Línea 3877" d="M-6.674-1A.826.826,0,0,1-7.5-1.828V-6.674A.826.826,0,0,1-6.674-7.5a.826.826,0,0,1,.826.826v4.846A.826.826,0,0,1-6.674-1Z" transform="translate(36.357 7.5)"/>
          </g>
        </g>
      </g>
    </g>
  </g>
</svg>
