<svg xmlns="http://www.w3.org/2000/svg" xmlns:xlink="http://www.w3.org/1999/xlink" width="110.389" height="110.389" viewBox="0 0 110.389 110.389">
  <defs>
    <filter id="Elipse_10564" x="0" y="0" width="110.389" height="110.389" filterUnits="userSpaceOnUse">
      <feOffset dy="3" input="SourceAlpha"/>
      <feGaussianBlur stdDeviation="3" result="blur"/>
      <feFlood flood-opacity="0.161"/>
      <feComposite operator="in" in2="blur"/>
      <feComposite in="SourceGraphic"/>
    </filter>
    <clipPath id="clip-path">
      <path id="path3529" d="M0-682.665H57.738v57.738H0Z" transform="translate(0 682.665)"/>
    </clipPath>
  </defs>
  <g id="Grupo_1088420" data-name="Grupo 1088420" transform="translate(-1241.617 -2703.968)">
    <g transform="matrix(1, 0, 0, 1, 1241.62, 2703.97)" filter="url(#Elipse_10564)">
      <circle id="Elipse_10564-2" data-name="Elipse 10564" cx="46.195" cy="46.195" r="46.195" transform="translate(9 6)" fill="#fff"/>
    </g>
    <g id="Grupo_1084079" data-name="Grupo 1084079" transform="translate(426.62 2204.904)">
      <g id="Grupo_1070923" data-name="Grupo 1070923" transform="translate(842.518 520.849)">
        <g id="Grupo_1070195" data-name="Grupo 1070195" transform="translate(9.174 0)">
          <rect id="Rect치ngulo_374304" data-name="Rect치ngulo 374304" width="34.863" height="59.145" rx="3" fill="#9697f8"/>
        </g>
        <g id="g3519" transform="translate(-2.264 687.911)">
          <g id="g3521" transform="translate(20.768 -639.882)">
            <path id="path3523" d="M-164.728,0h-14.238l-.982,6.59h16.2Z" transform="translate(179.948)" fill="#495560"/>
          </g>
          <g id="g3525" transform="translate(0 -682.665)">
            <g id="g3527" clip-path="url(#clip-path)">
              <g id="g3533" transform="translate(16.717 49.373)">
                <path id="path3535" d="M-247.862-48.172h-21.5a1.4,1.4,0,0,1-1.345-1.8l.2-.664a2.771,2.771,0,0,1,2.658-1.988h18.48a2.771,2.771,0,0,1,2.658,1.988l.2.664a1.4,1.4,0,0,1-1.345,1.8" transform="translate(270.763 52.623)" fill="#c7c7c7"/>
              </g>
              <g id="g3537" transform="translate(16.717 49.373)">
                <path id="path3539" d="M-111.034,0h-7.347a2.771,2.771,0,0,0-2.658,1.988l-.2.664a1.4,1.4,0,0,0,1.345,1.8h9.956A5.121,5.121,0,0,1-111.034,0" transform="translate(121.293)" fill="#98a5b3"/>
              </g>
              <g id="g3541" transform="translate(0.846 3.914)">
                <path id="path3543" d="M-534.266-420.7h-42.677a6.685,6.685,0,0,1-6.685-6.685v-25.5a6.685,6.685,0,0,1,6.685-6.685h42.677a6.685,6.685,0,0,1,6.685,6.685v25.5a6.685,6.685,0,0,1-6.685,6.685" transform="translate(583.628 459.567)" fill="#495560"/>
              </g>
              <g id="g3545" transform="translate(0.846 3.914)">
                <path id="path3547" d="M-195.919,0h-11.417a6.685,6.685,0,0,0-6.685,6.685v25.5a6.685,6.685,0,0,0,6.685,6.685h16.465c-6.354-6.65-9.151-25.316-5.048-38.869" transform="translate(214.021)" fill="#333941"/>
              </g>
              <g id="g3549" transform="translate(5.418 8.486)">
                <path id="path3551" d="M0-289.734v-23.814A2.955,2.955,0,0,1,2.956-316.5H43.947a2.956,2.956,0,0,1,2.956,2.956v23.814a2.955,2.955,0,0,1-2.956,2.956H2.956A2.955,2.955,0,0,1,0-289.734" transform="translate(0 316.503)" fill="#faef81"/>
              </g>
              <g id="g3553" transform="translate(5.418 8.486)">
                <path id="path3555" d="M-168.352-321.724c-3.563-7.407-5.01-19.4-3.121-29.725h-9.478a2.956,2.956,0,0,0-2.956,2.956v23.814a2.956,2.956,0,0,0,2.956,2.956Z" transform="translate(183.906 351.448)" fill="#fad271"/>
              </g>
              <g id="g3557" transform="translate(28.869 8.486)">
                <path id="path3559" d="M-221.833,0h-20.5V29.725h20.5a2.956,2.956,0,0,0,2.956-2.956V2.956A2.956,2.956,0,0,0-221.833,0" transform="translate(242.329 0)" fill="#333941"/>
              </g>
              <g id="g3561" transform="translate(0.846 34.228)">
                <path id="path3563" d="M0,0V1.871A6.685,6.685,0,0,0,6.685,8.555H49.362a6.685,6.685,0,0,0,6.685-6.685V0Z" fill="#c7c7c7"/>
              </g>
              <g id="g3565" transform="translate(0.846 34.228)">
                <path id="path3567" d="M0,0V1.871A6.685,6.685,0,0,0,6.685,8.555H23.15A22.616,22.616,0,0,1,18.55,0Z" fill="#98a5b3"/>
              </g>
              <g id="g3569" transform="translate(26.425 36.062)">
                <path id="path3571" d="M-52.906-26.453a2.444,2.444,0,0,1-2.444,2.444,2.444,2.444,0,0,1-2.444-2.444A2.444,2.444,0,0,1-55.35-28.9a2.444,2.444,0,0,1,2.444,2.444" transform="translate(57.795 28.897)" fill="#fff"/>
              </g>
              <g id="g3573" transform="translate(43.014 23.615)">
                <path id="path3575" d="M-5.792-8.308H-9.154A.846.846,0,0,1-10-9.154.846.846,0,0,1-9.154-10h3.362a.846.846,0,0,1,.846.846A.846.846,0,0,1-5.792-8.308Z" transform="translate(10 10)" fill="#fff"/>
              </g>
              <g id="g3577" transform="translate(33.123 23.615)">
                <path id="path3579" d="M-2.3-8.308H-9.154A.846.846,0,0,1-10-9.154.846.846,0,0,1-9.154-10H-2.3a.846.846,0,0,1,.846.846A.846.846,0,0,1-2.3-8.308Z" transform="translate(10 10)" fill="#84dfff"/>
              </g>
              <g id="g3581" transform="translate(39.216 26.691)">
                <path id="path3583" d="M-4.971-8.308H-9.154A.846.846,0,0,1-10-9.154.846.846,0,0,1-9.154-10h4.183a.846.846,0,0,1,.846.846A.846.846,0,0,1-4.971-8.308Z" transform="translate(10 10)" fill="#84dfff"/>
              </g>
              <g id="g3585" transform="translate(33.123 26.691)">
                <path id="path3587" d="M-6.095-8.308h-3.06A.846.846,0,0,1-10-9.154.846.846,0,0,1-9.154-10h3.06a.846.846,0,0,1,.846.846A.846.846,0,0,1-6.095-8.308Z" transform="translate(10 10)" fill="#fff"/>
              </g>
              <g id="g3589" transform="translate(39.003 20.54)">
                <path id="path3591" d="M-2.949-8.308H-9.154A.846.846,0,0,1-10-9.154.846.846,0,0,1-9.154-10h6.206a.846.846,0,0,1,.846.846A.846.846,0,0,1-2.949-8.308Z" transform="translate(10 10)" fill="#55d57b"/>
              </g>
              <g id="g3593" transform="translate(33.123 20.54)">
                <path id="path3595" d="M-6.308-8.308H-9.154A.846.846,0,0,1-10-9.154.846.846,0,0,1-9.154-10h2.847a.846.846,0,0,1,.846.846A.846.846,0,0,1-6.308-8.308Z" transform="translate(10 10)" fill="#ff8aa0"/>
              </g>
              <g id="g3597" transform="translate(42.825 17.464)">
                <path id="path3599" d="M-5.6-8.308h-3.55A.846.846,0,0,1-10-9.154.846.846,0,0,1-9.154-10H-5.6a.846.846,0,0,1,.846.846A.846.846,0,0,1-5.6-8.308Z" transform="translate(10 10)" fill="#ff8aa0"/>
              </g>
              <g id="g3601" transform="translate(33.123 17.464)">
                <path id="path3603" d="M-2.485-8.308H-9.154A.846.846,0,0,1-10-9.154.846.846,0,0,1-9.154-10h6.669a.846.846,0,0,1,.846.846A.846.846,0,0,1-2.485-8.308Z" transform="translate(10 10)" fill="#fff"/>
              </g>
              <g id="g3605" transform="translate(39.216 14.388)">
                <path id="path3607" d="M-5.374-8.308h-3.78A.846.846,0,0,1-10-9.154.846.846,0,0,1-9.154-10h3.78a.846.846,0,0,1,.846.846A.846.846,0,0,1-5.374-8.308Z" transform="translate(10 10)" fill="#55d57b"/>
              </g>
              <g id="g3609" transform="translate(33.123 14.388)">
                <path id="path3611" d="M-6.095-8.308h-3.06A.846.846,0,0,1-10-9.154.846.846,0,0,1-9.154-10h3.06a.846.846,0,0,1,.846.846A.846.846,0,0,1-6.095-8.308Z" transform="translate(10 10)" fill="#84dfff"/>
              </g>
              <g id="g3613" transform="translate(4.572 7.641)">
                <path id="path3615" d="M37.748-286.921a.846.846,0,0,1-.846-.846v-22.786a2.112,2.112,0,0,0-2.11-2.11H-6.2a2.112,2.112,0,0,0-2.11,2.11v22.786a.846.846,0,0,1-.846.846.846.846,0,0,1-.846-.846v-22.786a3.806,3.806,0,0,1,3.8-3.8H34.793a3.806,3.806,0,0,1,3.8,3.8v22.786A.846.846,0,0,1,37.748-286.921Z" transform="translate(10 314.354)"/>
              </g>
              <g id="g3617" transform="translate(0 3.068)">
                <path id="path3619" d="M-449.168,29.99a.843.843,0,0,1-.342-.073,7.54,7.54,0,0,1-4.481-6.887v-25.5A7.539,7.539,0,0,1-446.46-10h30.867a.846.846,0,0,1,.846.846.846.846,0,0,1-.846.846H-446.46A5.846,5.846,0,0,0-452.3-2.469v25.5a5.847,5.847,0,0,0,3.475,5.341.846.846,0,0,1,.43,1.116A.846.846,0,0,1-449.168,29.99Z" transform="translate(453.991 10)"/>
              </g>
              <g id="g3621" transform="translate(7.923 3.068)">
                <path id="path3623" d="M32.285-429.006H-9.154a.846.846,0,0,1-.846-.846.846.846,0,0,1,.846-.846H32.285a5.846,5.846,0,0,0,5.839-5.839v-25.5a5.846,5.846,0,0,0-5.839-5.839H24.73a.846.846,0,0,1-.846-.846.846.846,0,0,1,.846-.846h7.555a7.539,7.539,0,0,1,7.531,7.531v25.5A7.539,7.539,0,0,1,32.285-429.006Z" transform="translate(10 469.567)"/>
              </g>
              <g id="g3625" transform="translate(0 33.382)">
                <path id="path3627" d="M46.893-8.308H-9.154A.846.846,0,0,1-10-9.154.846.846,0,0,1-9.154-10H46.893a.846.846,0,0,1,.846.846A.846.846,0,0,1,46.893-8.308Z" transform="translate(10 10)"/>
              </g>
              <g id="g3629" transform="translate(19.923 41.937)">
                <path id="path3631" d="M-9.154-79.637a.852.852,0,0,1-.126-.009.846.846,0,0,1-.712-.961l.982-6.59a.846.846,0,0,1,.961-.712.846.846,0,0,1,.712.961l-.982,6.59A.846.846,0,0,1-9.154-79.637Z" transform="translate(10.001 87.918)"/>
              </g>
              <g id="g3633" transform="translate(35.142 41.938)">
                <path id="path3635" d="M-8.175-1.719a.846.846,0,0,1-.835-.721l-.982-6.59a.846.846,0,0,1,.712-.961.846.846,0,0,1,.961.712l.982,6.59a.846.846,0,0,1-.712.961A.853.853,0,0,1-8.175-1.719Z" transform="translate(10.001 10.001)"/>
              </g>
              <g id="g3637" transform="translate(15.871 48.528)">
                <path id="path3639" d="M-2.851-56.48h-21.5a2.229,2.229,0,0,1-1.8-.9,2.229,2.229,0,0,1-.356-1.981l.2-.664a3.637,3.637,0,0,1,3.469-2.6H-4.36a3.637,3.637,0,0,1,3.469,2.6l.2.664a2.229,2.229,0,0,1-.356,1.981A2.229,2.229,0,0,1-2.851-56.48ZM-22.84-60.931a1.936,1.936,0,0,0-1.847,1.381l-.2.664a.552.552,0,0,0,.088.49.546.546,0,0,0,.446.223h21.5a.546.546,0,0,0,.446-.223.552.552,0,0,0,.088-.49l-.2-.664A1.936,1.936,0,0,0-4.36-60.931Z" transform="translate(26.598 62.623)"/>
              </g>
              <g id="g3641" transform="translate(9.099 16.986)">
                <path id="path3643" d="M-46.872-1.339a.843.843,0,0,1-.6-.248l-3.485-3.485a.846.846,0,0,1,0-1.2l3.485-3.485a.846.846,0,0,1,1.2,0,.846.846,0,0,1,0,1.2l-2.887,2.887,2.887,2.887a.846.846,0,0,1,0,1.2A.843.843,0,0,1-46.872-1.339Z" transform="translate(51.203 10)"/>
              </g>
              <g id="g3645" transform="translate(20.012 16.986)">
                <path id="path3647" d="M-9.154-1.339a.843.843,0,0,1-.6-.248.846.846,0,0,1,0-1.2l2.887-2.887L-9.752-8.556a.846.846,0,0,1,0-1.2.846.846,0,0,1,1.2,0l3.485,3.485a.846.846,0,0,1,0,1.2L-8.556-1.586A.843.843,0,0,1-9.154-1.339Z" transform="translate(10 10)"/>
              </g>
              <g id="g3649" transform="translate(14.34 15.093)">
                <path id="path3651" d="M-9.157-124.715a.844.844,0,0,1-.289-.051.846.846,0,0,1-.505-1.084l3.914-10.755a.846.846,0,0,1,1.084-.505.846.846,0,0,1,.505,1.084l-3.914,10.755A.846.846,0,0,1-9.157-124.715Z" transform="translate(10.003 137.162)"/>
              </g>
            </g>
          </g>
        </g>
      </g>
      <rect id="Rect치ngulo_375016" data-name="Rect치ngulo 375016" width="58" height="61" transform="translate(840.306 520.096)" fill="none"/>
    </g>
  </g>
</svg>
