<svg xmlns="http://www.w3.org/2000/svg" width="132.789" height="111.057" viewBox="0 0 132.789 111.057">
  <g id="pruebas_1_" data-name="pruebas (1)" transform="translate(-7.82 -27.491)">
    <rect id="Rect치ngulo_382999" data-name="Rect치ngulo 382999" width="124.181" height="85.581" rx="14.009" transform="translate(12.124 28.317)" fill="#63bce7"/>
    <path id="Trazado_830497" data-name="Trazado 830497" d="M20.858,106.828v-70.1A7.748,7.748,0,0,1,28.6,28.986H23.349a7.748,7.748,0,0,0-7.739,7.742v70.1a7.748,7.748,0,0,0,7.739,7.742H28.6A7.748,7.748,0,0,1,20.858,106.828Z" transform="translate(-3.486 -0.669)" fill="#6377e7"/>
    <path id="Trazado_830498" data-name="Trazado 830498" d="M224.62,106.83V36.73a7.748,7.748,0,0,0-7.739-7.739h5.248a7.748,7.748,0,0,1,7.739,7.739v70.1a7.748,7.748,0,0,1-7.739,7.742h-5.248A7.748,7.748,0,0,0,224.62,106.83Z" transform="translate(-93.564 -0.671)" fill="#63e2e7"/>
    <rect id="Rect치ngulo_383000" data-name="Rect치ngulo 383000" width="114.656" height="69.259" rx="5.388" transform="translate(16.886 33.08)" fill="#f8af23"/>
    <path id="Trazado_830499" data-name="Trazado 830499" d="M29.479,103.89V40.584a2.983,2.983,0,0,1,2.977-2.977H27.208a2.983,2.983,0,0,0-2.977,2.977V103.89a2.983,2.983,0,0,0,2.977,2.977h5.248A2.983,2.983,0,0,1,29.479,103.89Z" transform="translate(-7.345 -4.527)" fill="#f87023"/>
    <path id="Trazado_830500" data-name="Trazado 830500" d="M219.858,103.89V40.584a2.983,2.983,0,0,0-2.977-2.977h5.248a2.983,2.983,0,0,1,2.977,2.977V103.89a2.983,2.983,0,0,1-2.977,2.977h-5.248A2.983,2.983,0,0,0,219.858,103.89Z" transform="translate(-93.564 -4.527)" fill="#f8d323"/>
    <path id="Trazado_830501" data-name="Trazado 830501" d="M88.847,206.612h43.26v5.209H88.847Z" transform="translate(-36.263 -80.164)" fill="#f46275"/>
    <path id="Trazado_830502" data-name="Trazado 830502" d="M88.847,206.612H94.1v5.209H88.847Z" transform="translate(-36.263 -80.164)" fill="#f43075"/>
    <path id="Trazado_830503" data-name="Trazado 830503" d="M99.983,183.9H130.94v12.55H99.983Z" transform="translate(-41.247 -69.998)" fill="#9e9e9e"/>
    <path id="Trazado_830504" data-name="Trazado 830504" d="M99.983,183.9h5.248v12.55H99.983Z" transform="translate(-41.247 -69.998)" fill="#707070"/>
    <circle id="Elipse_10725" data-name="Elipse 10725" cx="2.548" cy="2.548" r="2.548" transform="translate(71.666 105.57)" fill="#f46275"/>
    <path id="Trazado_830505" data-name="Trazado 830505" d="M173.3,88.939c-.16.445-.34.873-.537,1.3l3.988,3.988-7.841,7.841-3.988-3.988c-.424.2-.856.378-1.3.538v5.641H152.534V98.614c-.442-.16-.873-.34-1.3-.538l-3.988,3.988-7.841-7.841,3.988-3.988c-.2-.424-.378-.852-.537-1.3h-5.641V77.854h5.642c.16-.442.34-.873.537-1.3l-3.988-3.988,7.841-7.839,3.988,3.992c.424-.2.856-.382,1.3-.541V62.545H163.62V68.18c.442.16.873.344,1.3.541l3.988-3.992,7.841,7.841-3.988,3.988c.2.424.378.856.537,1.3h5.635V88.939Z" transform="translate(-57.911 -15.688)" fill="#f46275"/>
    <circle id="Elipse_10726" data-name="Elipse 10726" cx="7.059" cy="7.059" r="7.059" transform="translate(93.107 60.65)" fill="#63bce7"/>
    <path id="Trazado_830506" data-name="Trazado 830506" d="M66.105,60.692h34.19v7H66.105Z" transform="translate(-26.085 -14.859)" fill="#f46275"/>
    <path id="Trazado_830507" data-name="Trazado 830507" d="M66.105,82.869h34.19v7H66.105Z" transform="translate(-26.085 -24.784)" fill="#f46275"/>
    <path id="Trazado_830508" data-name="Trazado 830508" d="M66.105,105.047h34.19v7H66.105Z" transform="translate(-26.085 -34.71)" fill="#f46275"/>
    <path id="Trazado_830509" data-name="Trazado 830509" d="M66.105,127.224h34.19v7H66.105Z" transform="translate(-26.085 -44.635)" fill="#f46275"/>
    <path id="Trazado_830510" data-name="Trazado 830510" d="M43.272,60.692h7v7h-7Z" transform="translate(-15.866 -14.859)" fill="#63bce7"/>
    <path id="Trazado_830511" data-name="Trazado 830511" d="M43.272,82.869h7v7h-7Z" transform="translate(-15.866 -24.784)" fill="#63bce7"/>
    <path id="Trazado_830512" data-name="Trazado 830512" d="M43.272,105.047h7v7h-7Z" transform="translate(-15.866 -34.71)" fill="#63bce7"/>
    <path id="Trazado_830513" data-name="Trazado 830513" d="M43.272,127.224h7v7h-7Z" transform="translate(-15.866 -44.635)" fill="#63bce7"/>
    <g id="Grupo_1084234" data-name="Grupo 1084234" transform="translate(7.82 27.491)">
      <path id="Trazado_830514" data-name="Trazado 830514" d="M139.044,103.22v-63.3a3.812,3.812,0,0,0-3.805-3.806H26.536a3.812,3.812,0,0,0-3.805,3.806v63.306a3.812,3.812,0,0,0,3.805,3.805h108.7a3.812,3.812,0,0,0,3.805-3.808Zm-114.656,0v-63.3a2.151,2.151,0,0,1,2.148-2.149h108.7a2.151,2.151,0,0,1,2.148,2.149v63.306a2.15,2.15,0,0,1-2.148,2.148H26.536a2.15,2.15,0,0,1-2.148-2.151Z" transform="translate(-14.493 -31.349)" fill="#3f3679"/>
      <path id="Trazado_830515" data-name="Trazado 830515" d="M125.264,167.321a3.377,3.377,0,1,0,3.377,3.377A3.377,3.377,0,0,0,125.264,167.321Zm0,5.1a1.72,1.72,0,1,1,1.72-1.72A1.72,1.72,0,0,1,125.264,172.419Z" transform="translate(-58.87 -90.071)" fill="#3f3679"/>
      <path id="Trazado_830516" data-name="Trazado 830516" d="M18.6,225.514H8.652a.829.829,0,0,0,0,1.657H18.6a.829.829,0,0,0,0-1.657Z" transform="translate(-7.821 -116.115)" fill="#3f3679"/>
      <path id="Trazado_830517" data-name="Trazado 830517" d="M237.953,225.514h-9.944a.829.829,0,0,0,0,1.657h9.944a.829.829,0,1,0,0-1.657Z" transform="translate(-105.993 -116.115)" fill="#3f3679"/>
      <path id="Trazado_830518" data-name="Trazado 830518" d="M136.821,225.514H36.85a.829.829,0,0,0,0,1.657h99.972a.829.829,0,1,0,0-1.657Z" transform="translate(-20.441 -116.115)" fill="#3f3679"/>
      <path id="Trazado_830519" data-name="Trazado 830519" d="M8.649,132.486H139.78a.829.829,0,1,0,0-1.657H96.673v-4.381a.829.829,0,0,0-.829-.829H90.522V114.729h38.044a8.577,8.577,0,0,0,8.568-8.568v-70.1a8.577,8.577,0,0,0-8.568-8.568H19.863a8.577,8.577,0,0,0-8.568,8.568v70.1a8.577,8.577,0,0,0,8.568,8.57H57.907v10.892H52.584a.829.829,0,0,0-.829.829v4.381H8.649a.829.829,0,1,0,0,1.657Zm4.3-26.326v-70.1a6.918,6.918,0,0,1,6.91-6.913h108.7a6.918,6.918,0,0,1,6.911,6.913v70.1a6.918,6.918,0,0,1-6.911,6.912H19.863a6.918,6.918,0,0,1-6.911-6.912Zm46.611,8.57h29.3v10.892h-29.3Zm-6.152,12.547h41.6v3.552h-41.6Z" transform="translate(-7.82 -27.491)" fill="#3f3679"/>
      <path id="Trazado_830520" data-name="Trazado 830520" d="M178.265,76.349H173.2q-.055-.141-.119-.285l3.585-3.585a.829.829,0,0,0,0-1.172l-7.839-7.839a.829.829,0,0,0-1.172,0l-3.586,3.585q-.143-.061-.285-.119v-5.07a.829.829,0,0,0-.829-.829H151.864a.829.829,0,0,0-.829.829v5.07q-.141.055-.285.119l-3.586-3.585a.829.829,0,0,0-1.172,0l-7.839,7.839a.829.829,0,0,0,0,1.172l3.585,3.585q-.061.143-.119.285h-5.07a.829.829,0,0,0-.829.829V88.265a.829.829,0,0,0,.829.829h5.07c.039.094.078.189.119.285l-3.585,3.586a.829.829,0,0,0,0,1.172l7.839,7.839a.829.829,0,0,0,1.172,0l3.585-3.585q.143.061.285.119v5.07a.829.829,0,0,0,.829.829h11.087a.829.829,0,0,0,.829-.829v-5.07q.141-.055.285-.119l3.585,3.585a.829.829,0,0,0,1.172,0l7.839-7.839a.829.829,0,0,0,0-1.172l-3.585-3.586c.041-.1.081-.19.119-.285h5.07a.829.829,0,0,0,.829-.829V77.178a.829.829,0,0,0-.829-.829Zm-.829,11.087h-4.809a.829.829,0,0,0-.778.544c-.145.4-.313.8-.513,1.23a.829.829,0,0,0,.166.936l3.4,3.4-6.668,6.667-3.4-3.4a.829.829,0,0,0-.939-.166c-.428.2-.829.367-1.229.513a.829.829,0,0,0-.545.778v4.809h-9.428V97.939a.829.829,0,0,0-.545-.778c-.4-.145-.8-.313-1.229-.513a.829.829,0,0,0-.936.166l-3.4,3.4-6.667-6.667,3.4-3.4a.829.829,0,0,0,.166-.936c-.2-.43-.368-.832-.513-1.229a.829.829,0,0,0-.778-.545h-4.81v-9.43h4.81a.829.829,0,0,0,.779-.545c.144-.4.312-.8.513-1.229a.829.829,0,0,0-.166-.936l-3.4-3.4,6.668-6.668,3.4,3.4a.829.829,0,0,0,.936.166c.424-.2.829-.366,1.23-.513a.829.829,0,0,0,.544-.778v-4.81h9.429V67.5a.829.829,0,0,0,.544.778c.4.146.813.318,1.229.513a.829.829,0,0,0,.939-.166l3.4-3.4,6.668,6.668-3.4,3.4a.829.829,0,0,0-.166.936c.2.429.368.832.513,1.23a.829.829,0,0,0,.778.545h4.809Z" transform="translate(-65.062 -42.503)" fill="#3f3679"/>
      <path id="Trazado_830521" data-name="Trazado 830521" d="M168.585,86.011a7.888,7.888,0,1,0,7.888,7.888A7.888,7.888,0,0,0,168.585,86.011Zm0,14.119a6.231,6.231,0,1,1,6.231-6.23,6.231,6.231,0,0,1-6.231,6.23Z" transform="translate(-76.239 -53.681)" fill="#3f3679"/>
      <path id="Trazado_830522" data-name="Trazado 830522" d="M99.621,59.191H65.429a.829.829,0,0,0-.829.829v7a.829.829,0,0,0,.829.829h34.19a.829.829,0,0,0,.829-.829v-7a.829.829,0,0,0-.826-.829Zm-.829,7H66.257V60.848H98.79Z" transform="translate(-33.231 -41.678)" fill="#3f3679"/>
      <path id="Trazado_830523" data-name="Trazado 830523" d="M99.621,81.369H65.429a.829.829,0,0,0-.829.829v7a.829.829,0,0,0,.829.829h34.19a.829.829,0,0,0,.829-.829v-7A.829.829,0,0,0,99.621,81.369Zm-.829,7H66.257V83.026H98.79Z" transform="translate(-33.231 -51.604)" fill="#3f3679"/>
      <path id="Trazado_830524" data-name="Trazado 830524" d="M99.621,103.547H65.429a.829.829,0,0,0-.829.829v7a.829.829,0,0,0,.829.829h34.19a.829.829,0,0,0,.829-.829v-7a.829.829,0,0,0-.826-.829Zm-.829,7H66.257V105.2H98.79Z" transform="translate(-33.231 -61.529)" fill="#3f3679"/>
      <path id="Trazado_830525" data-name="Trazado 830525" d="M99.621,125.725H65.429a.829.829,0,0,0-.829.829v7a.829.829,0,0,0,.829.829h34.19a.829.829,0,0,0,.829-.829v-7a.829.829,0,0,0-.826-.829Zm-.829,7H66.257v-5.34H98.79Z" transform="translate(-33.231 -71.455)" fill="#3f3679"/>
      <path id="Trazado_830526" data-name="Trazado 830526" d="M49.6,59.191h-7a.829.829,0,0,0-.829.829v7a.829.829,0,0,0,.829.829h7a.829.829,0,0,0,.829-.829v-7A.829.829,0,0,0,49.6,59.191Zm-.829,7H43.428V60.848h5.341Z" transform="translate(-23.015 -41.678)" fill="#3f3679"/>
      <path id="Trazado_830527" data-name="Trazado 830527" d="M49.6,81.369h-7a.829.829,0,0,0-.829.829v7a.829.829,0,0,0,.829.829h7a.829.829,0,0,0,.829-.829v-7A.829.829,0,0,0,49.6,81.369Zm-.829,7H43.428V83.026h5.341Z" transform="translate(-23.015 -51.604)" fill="#3f3679"/>
      <path id="Trazado_830528" data-name="Trazado 830528" d="M49.6,103.547h-7a.829.829,0,0,0-.829.829v7a.829.829,0,0,0,.829.829h7a.829.829,0,0,0,.829-.829v-7A.829.829,0,0,0,49.6,103.547Zm-.829,7H43.428V105.2h5.341Z" transform="translate(-23.015 -61.529)" fill="#3f3679"/>
      <path id="Trazado_830529" data-name="Trazado 830529" d="M49.6,125.725h-7a.829.829,0,0,0-.829.829v7a.829.829,0,0,0,.829.829h7a.829.829,0,0,0,.829-.829v-7A.829.829,0,0,0,49.6,125.725Zm-.829,7H43.428v-5.34h5.341Z" transform="translate(-23.015 -71.455)" fill="#3f3679"/>
    </g>
  </g>
</svg>
