<svg xmlns="http://www.w3.org/2000/svg" xmlns:xlink="http://www.w3.org/1999/xlink" width="495" height="239.219" viewBox="0 0 495 239.219">
  <defs>
    <clipPath id="clip-path">
      <rect id="AdobeStock_635143489" width="495" height="239.219" rx="14" transform="translate(819.9 6702)" fill="#f6f6f6"/>
    </clipPath>
    <clipPath id="clip-path-2">
      <rect id="Rectángulo_383051" data-name="Rectángulo 383051" width="77" height="117" transform="translate(854.832 6787.938)" fill="#fff" stroke="#707070" stroke-width="1" opacity="0.71"/>
    </clipPath>
  </defs>
  <g id="Grupo_1088429" data-name="Grupo 1088429" transform="translate(-819.9 -6723)">
    <g id="Enmascarar_grupo_1075513" data-name="Enmascarar grupo 1075513" transform="translate(0 21)" clip-path="url(#clip-path)">
      <rect id="AdobeStock_635143489-2" data-name="AdobeStock_635143489" width="495" height="239.219" rx="14" transform="translate(819.9 6702)" fill="#f6f6f6"/>
      <g id="Rectángulo_383043" data-name="Rectángulo 383043" transform="translate(835.9 6726)" fill="#fff" stroke="#727997" stroke-width="1">
        <rect width="110" height="190" stroke="none"/>
        <rect x="0.5" y="0.5" width="109" height="189" fill="none"/>
      </g>
      <g id="Rectángulo_383048" data-name="Rectángulo 383048" transform="translate(953.9 6726)" fill="#fff" stroke="#727997" stroke-width="1">
        <rect width="110" height="190" stroke="none"/>
        <rect x="0.5" y="0.5" width="109" height="189" fill="none"/>
      </g>
      <g id="Rectángulo_383049" data-name="Rectángulo 383049" transform="translate(1071.9 6726)" fill="#fff" stroke="#727997" stroke-width="1">
        <rect width="110" height="190" stroke="none"/>
        <rect x="0.5" y="0.5" width="109" height="189" fill="none"/>
      </g>
      <g id="Rectángulo_383050" data-name="Rectángulo 383050" transform="translate(1189.9 6726)" fill="#fff" stroke="#727997" stroke-width="1">
        <rect width="110" height="190" stroke="none"/>
        <rect x="0.5" y="0.5" width="109" height="189" fill="none"/>
      </g>
      <path id="Trazado_833774" data-name="Trazado 833774" d="M7.266-4.929H2.644V-1.15H8.013V0H1.238V-10.664h6.7v1.15h-5.3v3.435H7.266ZM14.319-.784A2.878,2.878,0,0,1,12,.146a2.464,2.464,0,0,1-1.93-.736A3.186,3.186,0,0,1,9.4-2.769V-7.925h1.355v5.12q0,1.8,1.465,1.8a2.028,2.028,0,0,0,2.065-1.157V-7.925h1.355V0H14.348Zm6.555-.176A1.952,1.952,0,0,0,22.141-1.4a1.546,1.546,0,0,0,.6-1.1h1.282a2.457,2.457,0,0,1-.469,1.3A3.087,3.087,0,0,1,22.4-.22a3.329,3.329,0,0,1-1.527.366A3.265,3.265,0,0,1,18.3-.934a4.3,4.3,0,0,1-.956-2.955v-.227a4.771,4.771,0,0,1,.425-2.058,3.236,3.236,0,0,1,1.219-1.4,3.464,3.464,0,0,1,1.879-.5,3.178,3.178,0,0,1,2.216.8A2.853,2.853,0,0,1,24.023-5.2H22.742a1.867,1.867,0,0,0-.582-1.263,1.811,1.811,0,0,0-1.293-.494,1.9,1.9,0,0,0-1.6.743,3.491,3.491,0,0,0-.568,2.15v.256A3.422,3.422,0,0,0,19.263-1.7,1.906,1.906,0,0,0,20.874-.959ZM27.019,0H25.664V-11.25h1.355Zm3.64,0H29.3V-7.925h1.355ZM29.194-10.027a.809.809,0,0,1,.2-.557.756.756,0,0,1,.6-.227.768.768,0,0,1,.6.227.8.8,0,0,1,.205.557.774.774,0,0,1-.205.549.782.782,0,0,1-.6.22.77.77,0,0,1-.6-.22A.782.782,0,0,1,29.194-10.027Zm3.3,6a4.642,4.642,0,0,1,.864-2.933,2.733,2.733,0,0,1,2.263-1.11,2.748,2.748,0,0,1,2.2.952V-11.25h1.355V0H37.939l-.066-.85a2.759,2.759,0,0,1-2.263,1A2.707,2.707,0,0,1,33.365-.981,4.7,4.7,0,0,1,32.5-3.926Zm1.355.154a3.515,3.515,0,0,0,.557,2.109A1.8,1.8,0,0,0,35.947-1,1.977,1.977,0,0,0,37.83-2.161V-5.8a1.992,1.992,0,0,0-1.868-1.121,1.808,1.808,0,0,0-1.553.769A3.87,3.87,0,0,0,33.853-3.875ZM42.759,0H41.4V-7.925h1.355ZM41.294-10.027a.809.809,0,0,1,.2-.557.756.756,0,0,1,.6-.227.768.768,0,0,1,.6.227.8.8,0,0,1,.205.557.774.774,0,0,1-.205.549.782.782,0,0,1-.6.22.77.77,0,0,1-.6-.22A.782.782,0,0,1,41.294-10.027ZM49.819,0a2.846,2.846,0,0,1-.19-.835,3.023,3.023,0,0,1-2.256.981A2.8,2.8,0,0,1,45.45-.516,2.145,2.145,0,0,1,44.7-2.2a2.24,2.24,0,0,1,.941-1.923A4.437,4.437,0,0,1,48.289-4.8h1.318v-.623a1.522,1.522,0,0,0-.425-1.132A1.707,1.707,0,0,0,47.93-6.98a1.976,1.976,0,0,0-1.216.366,1.079,1.079,0,0,0-.491.886H44.861a1.87,1.87,0,0,1,.421-1.146,2.874,2.874,0,0,1,1.143-.875,3.844,3.844,0,0,1,1.586-.322,3.133,3.133,0,0,1,2.146.685A2.47,2.47,0,0,1,50.962-5.5v3.647A4.459,4.459,0,0,0,51.24-.117V0ZM47.571-1.033a2.381,2.381,0,0,0,1.208-.33,1.994,1.994,0,0,0,.828-.857V-3.845H48.545q-2.49,0-2.49,1.458a1.234,1.234,0,0,0,.425,1A1.633,1.633,0,0,0,47.571-1.033Zm6.8-6.892.044,1a2.888,2.888,0,0,1,2.373-1.143q2.512,0,2.534,2.834V0H57.964V-5.244a1.824,1.824,0,0,0-.392-1.267,1.57,1.57,0,0,0-1.2-.41,1.956,1.956,0,0,0-1.157.352,2.387,2.387,0,0,0-.776.923V0H53.086V-7.925ZM66.255,0a2.846,2.846,0,0,1-.19-.835,3.023,3.023,0,0,1-2.256.981,2.8,2.8,0,0,1-1.923-.663A2.145,2.145,0,0,1,61.135-2.2a2.24,2.24,0,0,1,.941-1.923A4.437,4.437,0,0,1,64.724-4.8h1.318v-.623a1.522,1.522,0,0,0-.425-1.132,1.707,1.707,0,0,0-1.252-.421,1.976,1.976,0,0,0-1.216.366,1.079,1.079,0,0,0-.491.886H61.3a1.87,1.87,0,0,1,.421-1.146,2.874,2.874,0,0,1,1.143-.875,3.844,3.844,0,0,1,1.586-.322,3.133,3.133,0,0,1,2.146.685A2.47,2.47,0,0,1,67.4-5.5v3.647a4.459,4.459,0,0,0,.278,1.736V0ZM64.006-1.033a2.381,2.381,0,0,0,1.208-.33,1.994,1.994,0,0,0,.828-.857V-3.845H64.98q-2.49,0-2.49,1.458a1.234,1.234,0,0,0,.425,1A1.633,1.633,0,0,0,64.006-1.033Z" transform="translate(856.9 6755)" fill="#12263f"/>
      <path id="Trazado_833773" data-name="Trazado 833773" d="M3.054-10.664l3.486,8.7,3.486-8.7h1.824V0H10.444V-4.153l.132-4.482L7.075,0H6L2.5-8.613l.139,4.46V0H1.238V-10.664ZM19.014,0a2.846,2.846,0,0,1-.19-.835,3.023,3.023,0,0,1-2.256.981,2.8,2.8,0,0,1-1.923-.663A2.145,2.145,0,0,1,13.894-2.2a2.24,2.24,0,0,1,.941-1.923A4.437,4.437,0,0,1,17.483-4.8H18.8v-.623a1.522,1.522,0,0,0-.425-1.132,1.707,1.707,0,0,0-1.252-.421,1.976,1.976,0,0,0-1.216.366,1.079,1.079,0,0,0-.491.886H14.055a1.87,1.87,0,0,1,.421-1.146,2.874,2.874,0,0,1,1.143-.875A3.844,3.844,0,0,1,17.2-8.071a3.133,3.133,0,0,1,2.146.685A2.47,2.47,0,0,1,20.156-5.5v3.647a4.459,4.459,0,0,0,.278,1.736V0ZM16.765-1.033a2.381,2.381,0,0,0,1.208-.33,1.994,1.994,0,0,0,.828-.857V-3.845H17.739q-2.49,0-2.49,1.458a1.234,1.234,0,0,0,.425,1A1.633,1.633,0,0,0,16.765-1.033Zm6.8-6.892.044,1a2.888,2.888,0,0,1,2.373-1.143q2.512,0,2.534,2.834V0H27.158V-5.244a1.824,1.824,0,0,0-.392-1.267,1.57,1.57,0,0,0-1.2-.41,1.956,1.956,0,0,0-1.157.352,2.387,2.387,0,0,0-.776.923V0H22.28V-7.925Zm8.35.959a2.881,2.881,0,0,1,2.344-1.106q2.512,0,2.534,2.834V0H35.435V-5.244a1.824,1.824,0,0,0-.392-1.267,1.57,1.57,0,0,0-1.2-.41,1.956,1.956,0,0,0-1.157.352,2.387,2.387,0,0,0-.776.923V0H30.557V-11.25h1.355ZM43.711,0a2.846,2.846,0,0,1-.19-.835,3.023,3.023,0,0,1-2.256.981,2.8,2.8,0,0,1-1.923-.663A2.145,2.145,0,0,1,38.591-2.2a2.24,2.24,0,0,1,.941-1.923A4.437,4.437,0,0,1,42.18-4.8H43.5v-.623a1.522,1.522,0,0,0-.425-1.132,1.707,1.707,0,0,0-1.252-.421,1.976,1.976,0,0,0-1.216.366,1.079,1.079,0,0,0-.491.886H38.752a1.87,1.87,0,0,1,.421-1.146,2.874,2.874,0,0,1,1.143-.875A3.844,3.844,0,0,1,41.9-8.071a3.133,3.133,0,0,1,2.146.685A2.47,2.47,0,0,1,44.854-5.5v3.647a4.459,4.459,0,0,0,.278,1.736V0ZM41.462-1.033a2.381,2.381,0,0,0,1.208-.33,1.994,1.994,0,0,0,.828-.857V-3.845H42.437q-2.49,0-2.49,1.458a1.234,1.234,0,0,0,.425,1A1.633,1.633,0,0,0,41.462-1.033Zm7.354-8.811v1.919H50.3v1.047H48.816v4.921a1.1,1.1,0,0,0,.2.715A.832.832,0,0,0,49.688-1a3.281,3.281,0,0,0,.645-.088V0a3.951,3.951,0,0,1-1.04.146A1.687,1.687,0,0,1,47.922-.4a2.36,2.36,0,0,1-.461-1.56V-6.877H46.018V-7.925h1.443V-9.844Zm4.9,0v1.919H55.2v1.047H53.716v4.921a1.1,1.1,0,0,0,.2.715A.832.832,0,0,0,54.587-1a3.281,3.281,0,0,0,.645-.088V0a3.951,3.951,0,0,1-1.04.146A1.687,1.687,0,0,1,52.822-.4a2.36,2.36,0,0,1-.461-1.56V-6.877H50.918V-7.925h1.443V-9.844ZM61.67,0a2.846,2.846,0,0,1-.19-.835,3.023,3.023,0,0,1-2.256.981A2.8,2.8,0,0,1,57.3-.516,2.145,2.145,0,0,1,56.55-2.2a2.24,2.24,0,0,1,.941-1.923A4.437,4.437,0,0,1,60.139-4.8h1.318v-.623a1.522,1.522,0,0,0-.425-1.132A1.707,1.707,0,0,0,59.78-6.98a1.976,1.976,0,0,0-1.216.366,1.079,1.079,0,0,0-.491.886H56.711a1.87,1.87,0,0,1,.421-1.146,2.874,2.874,0,0,1,1.143-.875,3.844,3.844,0,0,1,1.586-.322,3.133,3.133,0,0,1,2.146.685A2.47,2.47,0,0,1,62.813-5.5v3.647a4.459,4.459,0,0,0,.278,1.736V0ZM59.421-1.033a2.381,2.381,0,0,0,1.208-.33,1.994,1.994,0,0,0,.828-.857V-3.845H60.4q-2.49,0-2.49,1.458a1.234,1.234,0,0,0,.425,1A1.633,1.633,0,0,0,59.421-1.033Zm6.8-6.892.044,1a2.888,2.888,0,0,1,2.373-1.143q2.512,0,2.534,2.834V0H69.814V-5.244a1.824,1.824,0,0,0-.392-1.267,1.57,1.57,0,0,0-1.2-.41,1.956,1.956,0,0,0-1.157.352,2.387,2.387,0,0,0-.776.923V0H64.937V-7.925Z" transform="translate(962.9 6755)" fill="#12263f"/>
      <path id="Trazado_833772" data-name="Trazado 833772" d="M9.434,0H8.02V-4.929H2.644V0H1.238V-10.664H2.644v4.585H8.02v-4.585H9.434Zm7.178,0a2.846,2.846,0,0,1-.19-.835,3.023,3.023,0,0,1-2.256.981,2.8,2.8,0,0,1-1.923-.663A2.145,2.145,0,0,1,11.492-2.2a2.24,2.24,0,0,1,.941-1.923A4.437,4.437,0,0,1,15.081-4.8H16.4v-.623a1.522,1.522,0,0,0-.425-1.132,1.707,1.707,0,0,0-1.252-.421,1.976,1.976,0,0,0-1.216.366,1.079,1.079,0,0,0-.491.886H11.653a1.87,1.87,0,0,1,.421-1.146,2.874,2.874,0,0,1,1.143-.875A3.844,3.844,0,0,1,14.8-8.071a3.133,3.133,0,0,1,2.146.685A2.47,2.47,0,0,1,17.754-5.5v3.647a4.459,4.459,0,0,0,.278,1.736V0ZM14.363-1.033a2.381,2.381,0,0,0,1.208-.33,1.994,1.994,0,0,0,.828-.857V-3.845H15.337q-2.49,0-2.49,1.458a1.234,1.234,0,0,0,.425,1A1.633,1.633,0,0,0,14.363-1.033Zm6.79-6.892.037.879A2.927,2.927,0,0,1,23.54-8.071,2.266,2.266,0,0,1,25.8-6.8a3,3,0,0,1,1.029-.923,3.039,3.039,0,0,1,1.5-.352q2.607,0,2.651,2.761V0H29.626V-5.229A1.82,1.82,0,0,0,29.238-6.5a1.71,1.71,0,0,0-1.3-.421,1.8,1.8,0,0,0-1.252.45A1.827,1.827,0,0,0,26.1-5.259V0H24.741V-5.193a1.512,1.512,0,0,0-1.692-1.729,1.813,1.813,0,0,0-1.824,1.135V0H19.871V-7.925ZM34.5,0H33.142V-7.925H34.5ZM33.032-10.027a.809.809,0,0,1,.2-.557.756.756,0,0,1,.6-.227.768.768,0,0,1,.6.227.8.8,0,0,1,.205.557.774.774,0,0,1-.205.549.782.782,0,0,1-.6.22.77.77,0,0,1-.6-.22A.782.782,0,0,1,33.032-10.027Zm4.915,2.1.044,1a2.888,2.888,0,0,1,2.373-1.143q2.512,0,2.534,2.834V0H41.543V-5.244a1.824,1.824,0,0,0-.392-1.267,1.57,1.57,0,0,0-1.2-.41A1.956,1.956,0,0,0,38.8-6.57a2.387,2.387,0,0,0-.776.923V0H36.665V-7.925Zm6.672,3.9a4.658,4.658,0,0,1,.857-2.948,2.741,2.741,0,0,1,2.271-1.095A2.726,2.726,0,0,1,50.01-7.046l.066-.879h1.238V-.19A3.224,3.224,0,0,1,50.4,2.234a3.365,3.365,0,0,1-2.45.886,4.076,4.076,0,0,1-1.677-.366,2.887,2.887,0,0,1-1.252-1l.7-.813a2.65,2.65,0,0,0,2.131,1.077A2.076,2.076,0,0,0,49.4,1.458,2.128,2.128,0,0,0,49.951-.11V-.791a2.785,2.785,0,0,1-2.219.938A2.707,2.707,0,0,1,45.48-.974,4.9,4.9,0,0,1,44.619-4.028Zm1.362.154a3.553,3.553,0,0,0,.549,2.106A1.785,1.785,0,0,0,48.069-1a1.985,1.985,0,0,0,1.882-1.165V-5.786a2.008,2.008,0,0,0-1.868-1.135,1.8,1.8,0,0,0-1.545.769A3.87,3.87,0,0,0,45.981-3.875Z" transform="translate(1101.9 6755)" fill="#12263f"/>
      <path id="Trazado_833771" data-name="Trazado 833771" d="M3.054-10.664l3.486,8.7,3.486-8.7h1.824V0H10.444V-4.153l.132-4.482L7.075,0H6L2.5-8.613l.139,4.46V0H1.238V-10.664ZM15.593,0H14.238V-7.925h1.355ZM14.128-10.027a.809.809,0,0,1,.2-.557.756.756,0,0,1,.6-.227.768.768,0,0,1,.6.227.8.8,0,0,1,.205.557.774.774,0,0,1-.205.549.782.782,0,0,1-.6.22.77.77,0,0,1-.6-.22A.782.782,0,0,1,14.128-10.027Zm4.915,2.1.044,1A2.888,2.888,0,0,1,21.46-8.071q2.512,0,2.534,2.834V0H22.639V-5.244a1.824,1.824,0,0,0-.392-1.267,1.57,1.57,0,0,0-1.2-.41,1.956,1.956,0,0,0-1.157.352,2.387,2.387,0,0,0-.776.923V0H17.761V-7.925ZM28.25-3.669l-.85.886V0H26.045V-11.25H27.4v6.8l.725-.872,2.468-2.607h1.648L29.158-4.614,32.6,0H31.011Zm5.032-.366a4.681,4.681,0,0,1,.458-2.095,3.415,3.415,0,0,1,1.274-1.436,3.469,3.469,0,0,1,1.864-.505A3.342,3.342,0,0,1,39.5-6.951a4.311,4.311,0,0,1,1,2.981v.1A4.722,4.722,0,0,1,40.052-1.8,3.365,3.365,0,0,1,38.785-.366a3.509,3.509,0,0,1-1.893.513A3.334,3.334,0,0,1,34.281-.974a4.29,4.29,0,0,1-1-2.966Zm1.362.161a3.39,3.39,0,0,0,.612,2.117,1.957,1.957,0,0,0,1.637.8,1.945,1.945,0,0,0,1.641-.809,3.707,3.707,0,0,0,.608-2.267,3.384,3.384,0,0,0-.619-2.113,1.968,1.968,0,0,0-1.644-.809,1.946,1.946,0,0,0-1.619.8A3.68,3.68,0,0,0,34.644-3.875ZM49.211-1.868l1.523-6.057H52.09L49.783,0h-1.1L46.758-6.006,44.883,0h-1.1l-2.3-7.925h1.348l1.56,5.933,1.846-5.933h1.091Zm8.87-.234a1,1,0,0,0-.414-.853,3.983,3.983,0,0,0-1.443-.524,6.822,6.822,0,0,1-1.633-.527,2.324,2.324,0,0,1-.894-.732,1.752,1.752,0,0,1-.289-1.011A2.056,2.056,0,0,1,54.232-7.4a3.218,3.218,0,0,1,2.106-.674,3.311,3.311,0,0,1,2.186.7,2.21,2.21,0,0,1,.839,1.78H58a1.223,1.223,0,0,0-.472-.959,1.77,1.77,0,0,0-1.19-.4,1.852,1.852,0,0,0-1.157.322,1.014,1.014,0,0,0-.417.842.822.822,0,0,0,.388.74,4.776,4.776,0,0,0,1.4.476,7.308,7.308,0,0,1,1.644.542,2.4,2.4,0,0,1,.934.758,1.864,1.864,0,0,1,.3,1.08,2.028,2.028,0,0,1-.85,1.7,3.564,3.564,0,0,1-2.2.641A3.991,3.991,0,0,1,54.7-.19a2.74,2.74,0,0,1-1.146-.941,2.268,2.268,0,0,1-.414-1.307h1.355a1.4,1.4,0,0,0,.546,1.08,2.117,2.117,0,0,0,1.344.4,2.185,2.185,0,0,0,1.234-.311A.956.956,0,0,0,58.081-2.1Zm5.332-1.567-.85.886V0H61.208V-11.25h1.355v6.8l.725-.872,2.468-2.607H67.4L64.321-4.614,67.764,0H66.174ZM71.4-1.985l1.846-5.94h1.45L71.506,1.223Q70.767,3.2,69.155,3.2L68.9,3.179l-.505-.1v-1.1l.366.029a1.8,1.8,0,0,0,1.073-.278A2.014,2.014,0,0,0,70.466.718l.3-.806L67.939-7.925h1.479Z" transform="translate(1207.9 6755)" fill="#12263f"/>
      <path id="Trazado_830681" data-name="Trazado 830681" d="M1.586-2.5V0H.743V-6.4H3.1a2.371,2.371,0,0,1,1.646.536,1.818,1.818,0,0,1,.6,1.419,1.794,1.794,0,0,1-.582,1.435,2.477,2.477,0,0,1-1.668.5Zm0-.69H3.1A1.516,1.516,0,0,0,4.14-3.514a1.167,1.167,0,0,0,.36-.922,1.206,1.206,0,0,0-.36-.916,1.42,1.42,0,0,0-.989-.357H1.586Zm8.424-.382H6.346v-.708h3.665Zm0,1.824H6.346v-.7h3.665Zm3.384-3.089a1.714,1.714,0,0,1,1.024.325,1.848,1.848,0,0,1,.631.872,2.7,2.7,0,0,1,.138,1.215l-.009.1a3.2,3.2,0,0,1-.413,1.255,2.424,2.424,0,0,1-.853.872,2.079,2.079,0,0,1-1.147.294,1.717,1.717,0,0,1-1.022-.325,1.806,1.806,0,0,1-.626-.861,2.774,2.774,0,0,1-.141-1.2,3.24,3.24,0,0,1,.4-1.327,2.48,2.48,0,0,1,.859-.912A2.054,2.054,0,0,1,13.395-4.843ZM11.777-2.294a2.7,2.7,0,0,0,0,.576,1.41,1.41,0,0,0,.31.826.93.93,0,0,0,.71.321,1.267,1.267,0,0,0,.729-.2,1.642,1.642,0,0,0,.563-.631,2.655,2.655,0,0,0,.294-.936,4.216,4.216,0,0,0,.013-.681,1.464,1.464,0,0,0-.321-.839.951.951,0,0,0-.712-.325,1.3,1.3,0,0,0-1.046.483,2.388,2.388,0,0,0-.532,1.3Zm5.4-2.549a1.714,1.714,0,0,1,1.024.325,1.848,1.848,0,0,1,.631.872,2.7,2.7,0,0,1,.138,1.215l-.009.1a3.2,3.2,0,0,1-.413,1.255,2.424,2.424,0,0,1-.853.872,2.079,2.079,0,0,1-1.147.294,1.717,1.717,0,0,1-1.022-.325A1.806,1.806,0,0,1,14.9-1.1a2.774,2.774,0,0,1-.141-1.2,3.24,3.24,0,0,1,.4-1.327,2.48,2.48,0,0,1,.859-.912A2.054,2.054,0,0,1,17.175-4.843ZM15.558-2.294a2.7,2.7,0,0,0,0,.576,1.41,1.41,0,0,0,.31.826.93.93,0,0,0,.71.321,1.267,1.267,0,0,0,.729-.2A1.642,1.642,0,0,0,17.87-1.4a2.655,2.655,0,0,0,.294-.936,4.216,4.216,0,0,0,.013-.681,1.464,1.464,0,0,0-.321-.839.951.951,0,0,0-.712-.325A1.3,1.3,0,0,0,16.1-3.7a2.388,2.388,0,0,0-.532,1.3Z" transform="translate(1236.9 6806)" fill="#12263f"/>
      <path id="Trazado_830682" data-name="Trazado 830682" d="M1.586-2.5V0H.743V-6.4H3.1a2.371,2.371,0,0,1,1.646.536,1.818,1.818,0,0,1,.6,1.419,1.794,1.794,0,0,1-.582,1.435,2.477,2.477,0,0,1-1.668.5Zm0-.69H3.1A1.516,1.516,0,0,0,4.14-3.514a1.167,1.167,0,0,0,.36-.922,1.206,1.206,0,0,0-.36-.916,1.42,1.42,0,0,0-.989-.357H1.586Zm8.424-.382H6.346v-.708h3.665Zm0,1.824H6.346v-.7h3.665ZM15.341,0H11.149V-.584l2.215-2.461a5.262,5.262,0,0,0,.679-.907,1.515,1.515,0,0,0,.187-.723,1.148,1.148,0,0,0-.3-.822,1.06,1.06,0,0,0-.809-.321,1.256,1.256,0,0,0-.943.345,1.318,1.318,0,0,0-.336.96h-.813a1.887,1.887,0,0,1,.569-1.428,2.11,2.11,0,0,1,1.523-.545,2.027,2.027,0,0,1,1.411.468,1.6,1.6,0,0,1,.519,1.246,3.66,3.66,0,0,1-1.2,2.25L12.129-.664h3.212Z" transform="translate(1243.9 6834)" fill="#12263f"/>
      <path id="Trazado_830683" data-name="Trazado 830683" d="M1.586-2.5V0H.743V-6.4H3.1a2.371,2.371,0,0,1,1.646.536,1.818,1.818,0,0,1,.6,1.419,1.794,1.794,0,0,1-.582,1.435,2.477,2.477,0,0,1-1.668.5Zm0-.69H3.1A1.516,1.516,0,0,0,4.14-3.514a1.167,1.167,0,0,0,.36-.922,1.206,1.206,0,0,0-.36-.916,1.42,1.42,0,0,0-.989-.357H1.586Zm8.424-.382H6.346v-.708h3.665Zm0,1.824H6.346v-.7h3.665ZM13.821,0H13V-5.418l-1.639.6v-.738l2.329-.875h.127Z" transform="translate(1209.9 6886)" fill="#12263f"/>
      <path id="Trazado_830663" data-name="Trazado 830663" d="M-1921.416-4802.1" transform="translate(2929.816 11693)" fill="none" stroke="#12263f" stroke-width="1"/>
      <path id="Trazado_830667" data-name="Trazado 830667" d="M-1921.416-4802.1" transform="translate(3047.816 11693)" fill="none" stroke="#12263f" stroke-width="1"/>
      <path id="Trazado_830668" data-name="Trazado 830668" d="M-1921.416-4802.1" transform="translate(3168.816 11693)" fill="none" stroke="#12263f" stroke-width="1"/>
      <g id="Grupo_1084445" data-name="Grupo 1084445" transform="translate(121)">
        <circle id="Elipse_10787" data-name="Elipse 10787" cx="7.5" cy="7.5" r="7.5" transform="translate(1077.9 6787.883)" fill="#05a8f3"/>
        <circle id="Elipse_10788" data-name="Elipse 10788" cx="7.5" cy="7.5" r="7.5" transform="translate(1154.9 6882.883)" fill="#f34940"/>
        <g id="Grupo_1084442" data-name="Grupo 1084442" transform="translate(1080.254 6810.244)">
          <path id="Trazado_830665" data-name="Trazado 830665" d="M-1926.969-4917.45v81.51h67.957" transform="translate(1931.782 4916.95)" fill="none" stroke="#12263f" stroke-width="1.2"/>
          <path id="Trazado_830670" data-name="Trazado 830670" d="M3.459.986,0,0,3.45,5.348l.008-.011.008.011L6.918,0Z" transform="translate(18.855 -19.191) rotate(90)" fill="#12263f" stroke="rgba(0,0,0,0)" stroke-width="1"/>
          <path id="Trazado_830679" data-name="Trazado 830679" d="M3.459.986,0,0,3.45,5.348l.008-.011.008.011L6.918,0Z" transform="matrix(-0.788, 0.616, -0.616, -0.788, 17.879, -6.211)" fill="#12263f" stroke="rgba(0,0,0,0)" stroke-width="1"/>
          <path id="Trazado_830680" data-name="Trazado 830680" d="M3.459.986,0,0,3.45,5.348l.008-.011.008.011L6.917,0Z" transform="matrix(0.788, -0.616, 0.616, 0.788, 71.181, 70.833)" fill="#12263f" stroke="rgba(0,0,0,0)" stroke-width="1"/>
          <path id="Trazado_830675" data-name="Trazado 830675" d="M3.459,4.362,0,5.348,3.45,0l.008.011L3.467,0l3.45,5.348Z" transform="translate(83.341 -19.191) rotate(90)" fill="#12263f" stroke="rgba(0,0,0,0)" stroke-width="1"/>
          <path id="Trazado_830672" data-name="Trazado 830672" d="M82.48,70.39V-12.757" transform="translate(0 -1.147)" fill="none" stroke="#b9b9b9" stroke-width="1.2" stroke-dasharray="3"/>
          <path id="Trazado_830674" data-name="Trazado 830674" d="M26.43-15.733h62.4" transform="translate(-8.941)" fill="none" stroke="#12263f" stroke-width="1.2"/>
          <path id="Trazado_830676" data-name="Trazado 830676" d="M3.459.986,0,0,3.45,5.348l.008-.011.008.011L6.918,0Z" transform="translate(8.272 0.721) rotate(180)" fill="#12263f" stroke="rgba(0,0,0,0)" stroke-width="1"/>
          <path id="Trazado_830677" data-name="Trazado 830677" d="M3.459,4.362,0,5.348,3.45,0l.008.011L3.467,0l3.45,5.348Z" transform="translate(73.855 77.551) rotate(90)" fill="#12263f" stroke="rgba(0,0,0,0)" stroke-width="1"/>
        </g>
      </g>
      <g id="Enmascarar_grupo_1075512" data-name="Enmascarar grupo 1075512" transform="translate(-1.932 -2.938)" clip-path="url(#clip-path-2)">
        <circle id="Elipse_10785" data-name="Elipse 10785" cx="7.897" cy="7.897" r="7.897" transform="translate(865.668 6787.57) rotate(16)" fill="#f34940"/>
        <circle id="Elipse_10786" data-name="Elipse 10786" cx="7.897" cy="7.897" r="7.897" transform="translate(916.485 6885.389) rotate(16)" fill="#05a8f3"/>
        <g id="Grupo_1084441" data-name="Grupo 1084441" transform="translate(872.023 6801.418) rotate(16)">
          <path id="Trazado_830657" data-name="Trazado 830657" d="M0,0,51.37,52.4" transform="translate(10.034 10.359)" fill="none" stroke="#12263f" stroke-width="1.3"/>
          <path id="Trazado_830659" data-name="Trazado 830659" d="M7.285,2.078,0,0,7.268,11.27l.017-.023.018.023L14.57,0Z" transform="matrix(-0.766, 0.643, -0.643, -0.766, 18.405, 8.633)" fill="#12263f" stroke="rgba(0,0,0,0)" stroke-width="1"/>
          <path id="Trazado_830660" data-name="Trazado 830660" d="M7.285,2.078,0,0,7.268,11.27l.017-.023.018.023L14.57,0Z" transform="translate(52.484 63.13) rotate(-40)" fill="#12263f" stroke="rgba(0,0,0,0)" stroke-width="1"/>
        </g>
      </g>
      <g id="Grupo_1084444" data-name="Grupo 1084444">
        <circle id="Elipse_10789" data-name="Elipse 10789" cx="7.5" cy="7.5" r="7.5" transform="translate(1039.9 6882.883)" fill="#05a8f3"/>
        <circle id="Elipse_10790" data-name="Elipse 10790" cx="7.5" cy="7.5" r="7.5" transform="translate(962.9 6787.883)" fill="#f34940"/>
        <g id="Grupo_1084443" data-name="Grupo 1084443" transform="translate(-28.492 -7.117)">
          <path id="Trazado_830666" data-name="Trazado 830666" d="M4.813,1.372,0,0,4.8,7.442l.012-.015.012.015L9.626,0Z" transform="translate(1018.648 6796.815) rotate(90)" fill="#12263f" stroke="rgba(0,0,0,0)" stroke-width="1"/>
          <path id="Trazado_830669" data-name="Trazado 830669" d="M4.813,1.372,0,0,4.8,7.442l.012-.015.012.015L9.626,0Z" transform="translate(1071.413 6875.196)" fill="#12263f" stroke="rgba(0,0,0,0)" stroke-width="1"/>
          <path id="Trazado_830665-2" data-name="Trazado 830665" d="M-1867.351-4842.161v-75.289h-59.617" transform="translate(2943.577 11719.078)" fill="none" stroke="#12263f" stroke-width="1.3"/>
        </g>
      </g>
      <path id="Trazado_830678" data-name="Trazado 830678" d="M-1744.689-4896.2l61.8,76.012" transform="translate(2958.9 11700)" fill="none" stroke="#12263f" stroke-width="1.2"/>
      <g id="Grupo_1084449" data-name="Grupo 1084449" transform="translate(-0.335)">
        <g id="Rectángulo_383055" data-name="Rectángulo 383055" transform="translate(1091.9 6845)" fill="none" stroke="#12263f" stroke-width="1">
          <rect width="84" height="18" stroke="none"/>
          <rect x="0.5" y="0.5" width="83" height="17" fill="none"/>
        </g>
        <g id="Rectángulo_383053" data-name="Rectángulo 383053" transform="translate(1106.9 6798)" fill="none" stroke="#12263f" stroke-width="1">
          <rect width="13" height="74" stroke="none"/>
          <rect x="0.5" y="0.5" width="12" height="73" fill="none"/>
        </g>
        <g id="Rectángulo_383054" data-name="Rectángulo 383054" transform="translate(1133.9 6798)" fill="none" stroke="#12263f" stroke-width="1">
          <rect width="15" height="74" stroke="none"/>
          <rect x="0.5" y="0.5" width="14" height="73" fill="none"/>
        </g>
        <path id="Trazado_830685" data-name="Trazado 830685" d="M-1799.426-4884.336v16.752" transform="translate(2961.104 11730.389)" fill="none" stroke="#12263f" stroke-width="1"/>
        <path id="Trazado_830702" data-name="Trazado 830702" d="M6.485-1.363H2.9L2.219.682H.044L3.739-9.242H5.633L9.348.682H7.174ZM3.452-3.019H5.933L4.686-6.734Z" transform="translate(1078.191 6822.015)" fill="#f34940"/>
        <path id="Trazado_830703" data-name="Trazado 830703" d="M.825.682V-9.242H4.3a4.564,4.564,0,0,1,2.74.692,2.366,2.366,0,0,1,.934,2.028A2.242,2.242,0,0,1,7.6-5.238a2.165,2.165,0,0,1-1.043.814,2.1,2.1,0,0,1,1.2.77A2.277,2.277,0,0,1,8.2-2.235,2.619,2.619,0,0,1,7.287-.068a4.112,4.112,0,0,1-2.6.75ZM2.87-3.64V-.961H4.622A1.69,1.69,0,0,0,5.75-1.305a1.18,1.18,0,0,0,.406-.951A1.246,1.246,0,0,0,4.744-3.64Zm0-1.445H4.383Q5.93-5.112,5.93-6.318a1.14,1.14,0,0,0-.392-.971,2.061,2.061,0,0,0-1.237-.3H2.87Z" transform="translate(1078.249 6858.523)" fill="#05a8f3"/>
        <path id="Trazado_830695" data-name="Trazado 830695" d="M3.385.474H2.507V-5.344L.747-4.7V-5.49l2.5-.939h.137Z" transform="translate(1097.571 6857.657)" fill="#12263f"/>
        <path id="Trazado_830693" data-name="Trazado 830693" d="M3.385.474H2.507V-5.344L.747-4.7V-5.49l2.5-.939h.137Z" transform="translate(1124.415 6857.657)" fill="#12263f"/>
        <path id="Trazado_830694" data-name="Trazado 830694" d="M3.385.474H2.507V-5.344L.747-4.7V-5.49l2.5-.939h.137Z" transform="translate(1110.456 6857.657)" fill="#12263f"/>
        <path id="Trazado_830692" data-name="Trazado 830692" d="M4.842-2.452A3.993,3.993,0,0,1,4.318-.173,1.863,1.863,0,0,1,2.681.573,1.876,1.876,0,0,1,1.053-.156,3.789,3.789,0,0,1,.505-2.334V-3.5A3.9,3.9,0,0,1,1.029-5.75a1.877,1.877,0,0,1,1.642-.736,1.894,1.894,0,0,1,1.633.71,3.767,3.767,0,0,1,.538,2.192ZM3.969-3.646a3.2,3.2,0,0,0-.311-1.616,1.072,1.072,0,0,0-.986-.507,1.058,1.058,0,0,0-.977.5,3.123,3.123,0,0,0-.316,1.552v1.4A3.25,3.25,0,0,0,1.7-.671a1.07,1.07,0,0,0,.979.531,1.055,1.055,0,0,0,.96-.5,3.132,3.132,0,0,0,.328-1.576Z" transform="translate(1138.356 6857.652)" fill="#12263f"/>
        <path id="Trazado_830691" data-name="Trazado 830691" d="M4.842-2.452A3.993,3.993,0,0,1,4.318-.173,1.863,1.863,0,0,1,2.681.573,1.876,1.876,0,0,1,1.053-.156,3.789,3.789,0,0,1,.505-2.334V-3.5A3.9,3.9,0,0,1,1.029-5.75a1.877,1.877,0,0,1,1.642-.736,1.894,1.894,0,0,1,1.633.71,3.767,3.767,0,0,1,.538,2.192ZM3.969-3.646a3.2,3.2,0,0,0-.311-1.616,1.072,1.072,0,0,0-.986-.507,1.058,1.058,0,0,0-.977.5,3.123,3.123,0,0,0-.316,1.552v1.4A3.25,3.25,0,0,0,1.7-.671a1.07,1.07,0,0,0,.979.531,1.055,1.055,0,0,0,.96-.5,3.132,3.132,0,0,0,.328-1.576Z" transform="translate(1153.389 6857.652)" fill="#12263f"/>
        <g id="Rectángulo_383052" data-name="Rectángulo 383052" transform="translate(1091.9 6809)" fill="none" stroke="#12263f" stroke-width="1">
          <rect width="84" height="18" stroke="none"/>
          <rect x="0.5" y="0.5" width="83" height="17" fill="none"/>
        </g>
        <path id="Trazado_830684" data-name="Trazado 830684" d="M-1799.426-4884.336v16.752" transform="translate(2961.104 11693.889)" fill="none" stroke="#12263f" stroke-width="1"/>
        <path id="Trazado_830701" data-name="Trazado 830701" d="M3.385.474H2.507V-5.344L.747-4.7V-5.49l2.5-.939h.137Z" transform="translate(1097.571 6821.148)" fill="#12263f"/>
        <path id="Trazado_830699" data-name="Trazado 830699" d="M3.385.474H2.507V-5.344L.747-4.7V-5.49l2.5-.939h.137Z" transform="translate(1124.415 6821.148)" fill="#12263f"/>
        <path id="Trazado_830696" data-name="Trazado 830696" d="M3.385.474H2.507V-5.344L.747-4.7V-5.49l2.5-.939h.137Z" transform="translate(1139.447 6821.148)" fill="#12263f"/>
        <path id="Trazado_830700" data-name="Trazado 830700" d="M4.842-2.452A3.993,3.993,0,0,1,4.318-.173,1.863,1.863,0,0,1,2.681.573,1.876,1.876,0,0,1,1.053-.156,3.789,3.789,0,0,1,.505-2.334V-3.5A3.9,3.9,0,0,1,1.029-5.75a1.877,1.877,0,0,1,1.642-.736,1.894,1.894,0,0,1,1.633.71,3.767,3.767,0,0,1,.538,2.192ZM3.969-3.646a3.2,3.2,0,0,0-.311-1.616,1.072,1.072,0,0,0-.986-.507,1.058,1.058,0,0,0-.977.5,3.123,3.123,0,0,0-.316,1.552v1.4A3.25,3.25,0,0,0,1.7-.671a1.07,1.07,0,0,0,.979.531,1.055,1.055,0,0,0,.96-.5,3.132,3.132,0,0,0,.328-1.576Z" transform="translate(1110.438 6821.145)" fill="#12263f"/>
        <path id="Trazado_830697" data-name="Trazado 830697" d="M4.842-2.452A3.993,3.993,0,0,1,4.318-.173,1.863,1.863,0,0,1,2.681.573,1.876,1.876,0,0,1,1.053-.156,3.789,3.789,0,0,1,.505-2.334V-3.5A3.9,3.9,0,0,1,1.029-5.75a1.877,1.877,0,0,1,1.642-.736,1.894,1.894,0,0,1,1.633.71,3.767,3.767,0,0,1,.538,2.192ZM3.969-3.646a3.2,3.2,0,0,0-.311-1.616,1.072,1.072,0,0,0-.986-.507,1.058,1.058,0,0,0-.977.5,3.123,3.123,0,0,0-.316,1.552v1.4A3.25,3.25,0,0,0,1.7-.671a1.07,1.07,0,0,0,.979.531,1.055,1.055,0,0,0,.96-.5,3.132,3.132,0,0,0,.328-1.576Z" transform="translate(1153.389 6821.145)" fill="#12263f"/>
        <path id="Trazado_830698" data-name="Trazado 830698" d="M4.842-2.452A3.993,3.993,0,0,1,4.318-.173,1.863,1.863,0,0,1,2.681.573,1.876,1.876,0,0,1,1.053-.156,3.789,3.789,0,0,1,.505-2.334V-3.5A3.9,3.9,0,0,1,1.029-5.75a1.877,1.877,0,0,1,1.642-.736,1.894,1.894,0,0,1,1.633.71,3.767,3.767,0,0,1,.538,2.192ZM3.969-3.646a3.2,3.2,0,0,0-.311-1.616,1.072,1.072,0,0,0-.986-.507,1.058,1.058,0,0,0-.977.5,3.123,3.123,0,0,0-.316,1.552v1.4A3.25,3.25,0,0,0,1.7-.671a1.07,1.07,0,0,0,.979.531,1.055,1.055,0,0,0,.96-.5,3.132,3.132,0,0,0,.328-1.576Z" transform="translate(1166.274 6821.145)" fill="#12263f"/>
        <path id="Trazado_830690" data-name="Trazado 830690" d="M4.842-2.452A3.993,3.993,0,0,1,4.318-.173,1.863,1.863,0,0,1,2.681.573,1.876,1.876,0,0,1,1.053-.156,3.789,3.789,0,0,1,.505-2.334V-3.5A3.9,3.9,0,0,1,1.029-5.75a1.877,1.877,0,0,1,1.642-.736,1.894,1.894,0,0,1,1.633.71,3.767,3.767,0,0,1,.538,2.192ZM3.969-3.646a3.2,3.2,0,0,0-.311-1.616,1.072,1.072,0,0,0-.986-.507,1.058,1.058,0,0,0-.977.5,3.123,3.123,0,0,0-.316,1.552v1.4A3.25,3.25,0,0,0,1.7-.671a1.07,1.07,0,0,0,.979.531,1.055,1.055,0,0,0,.96-.5,3.132,3.132,0,0,0,.328-1.576Z" transform="translate(1166.274 6857.652)" fill="#12263f"/>
        <g id="Grupo_1084447" data-name="Grupo 1084447" transform="translate(1139.392 6830.044)">
          <path id="Trazado_830686" data-name="Trazado 830686" d="M-1799.426-4884.337v8.388" transform="translate(1801.749 4886.133)" fill="none" stroke="#12263f" stroke-width="1"/>
          <path id="Trazado_830688" data-name="Trazado 830688" d="M2.323.662,0,0,2.317,3.592l.006-.007.006.007L4.646,0Z" transform="translate(4.646 3.592) rotate(180)" fill="#12263f" stroke="rgba(0,0,0,0)" stroke-width="1"/>
          <path id="Trazado_830689" data-name="Trazado 830689" d="M2.323,2.929,0,3.592,2.317,0l.006.007L2.328,0,4.646,3.592Z" transform="translate(4.646 11.98) rotate(180)" fill="#12263f" stroke="rgba(0,0,0,0)" stroke-width="1"/>
        </g>
        <g id="Grupo_1084448" data-name="Grupo 1084448" transform="translate(1111.124 6830.044)">
          <path id="Trazado_830686-2" data-name="Trazado 830686" d="M-1799.426-4884.337v8.388" transform="translate(1801.749 4886.133)" fill="none" stroke="#12263f" stroke-width="1"/>
          <path id="Trazado_830688-2" data-name="Trazado 830688" d="M2.323.662,0,0,2.317,3.592l.006-.007.006.007L4.646,0Z" transform="translate(4.646 3.592) rotate(180)" fill="#12263f" stroke="rgba(0,0,0,0)" stroke-width="1"/>
          <path id="Trazado_830689-2" data-name="Trazado 830689" d="M2.323,2.929,0,3.592,2.317,0l.006.007L2.328,0,4.646,3.592Z" transform="translate(4.646 11.98) rotate(180)" fill="#12263f" stroke="rgba(0,0,0,0)" stroke-width="1"/>
        </g>
      </g>
    </g>
  </g>
</svg>
