<svg xmlns="http://www.w3.org/2000/svg" xmlns:xlink="http://www.w3.org/1999/xlink" width="102.4" height="102.4" viewBox="0 0 102.4 102.4">
  <defs>
    <filter id="Elipse_10794" x="0" y="0" width="102.4" height="102.4" filterUnits="userSpaceOnUse">
      <feOffset dy="3" input="SourceAlpha"/>
      <feGaussianBlur stdDeviation="3" result="blur"/>
      <feFlood flood-opacity="0.161"/>
      <feComposite operator="in" in2="blur"/>
      <feComposite in="SourceGraphic"/>
    </filter>
  </defs>
  <g id="Grupo_1088434" data-name="Grupo 1088434" transform="translate(-906.68 -3367.43)">
    <g id="Grupo_1084575" data-name="Grupo 1084575" transform="translate(582 1473.217)">
      <g transform="matrix(1, 0, 0, 1, 324.68, 1894.21)" filter="url(#Elipse_10794)">
        <circle id="Elipse_10794-2" data-name="Elipse 10794" cx="42.2" cy="42.2" r="42.2" transform="translate(9 6)" fill="#fff"/>
      </g>
      <g id="Grupo_1084512" data-name="Grupo 1084512" transform="translate(350.39 1910.112)">
        <g id="Grupo_1070195" data-name="Grupo 1070195" transform="translate(7.145 0)">
          <rect id="Rectángulo_374304" data-name="Rectángulo 374304" width="36.845" height="62.508" rx="3" transform="translate(0 0)" fill="#9697f8"/>
        </g>
      </g>
      <g id="equilibrio" transform="translate(318.799 1875.328)">
        <g id="Grupo_1084600" data-name="Grupo 1084600" transform="translate(25.686 44.286)">
          <path id="Trazado_831008" data-name="Trazado 831008" d="M164.021,49.6H123.1V96.8h40.921Z" transform="translate(-112.57 -49.6)" fill="#fcb13b" fill-rule="evenodd"/>
          <path id="Trazado_831009" data-name="Trazado 831009" d="M31,192.8H46.241v4.07H31Z" transform="translate(-31 -176.427)" fill="#6abdc8" fill-rule="evenodd"/>
          <path id="Trazado_831010" data-name="Trazado 831010" d="M43.9,238.485H52.31a2.2,2.2,0,0,0,2.2-2.2V228.4H41.7v7.889A2.2,2.2,0,0,0,43.9,238.485Z" transform="translate(-40.477 -207.957)" fill="#cc4342" fill-rule="evenodd"/>
          <path id="Trazado_831011" data-name="Trazado 831011" d="M371.5,99.6h7.146v5.374H371.5Zm0,32.529h7.146V137.5H371.5Z" transform="translate(-332.568 -93.883)" fill="#b5b682" fill-rule="evenodd"/>
          <path id="Trazado_831012" data-name="Trazado 831012" d="M371.5,241.8h7.146v5.374H371.5Z" transform="translate(-332.568 -219.824)" fill="#b5b682" fill-rule="evenodd"/>
        </g>
        <path id="Trazado_831013" data-name="Trazado 831013" d="M64.618,65.576h7.146a.688.688,0,0,1,.686.686v5.374a.688.688,0,0,1-.686.686H64.618a.688.688,0,0,1-.686-.686V66.262A.688.688,0,0,1,64.618,65.576Zm6.46,1.372H65.3v4h5.774Zm-6.46-17.631h7.146A.688.688,0,0,1,72.45,50v5.374a.688.688,0,0,1-.686.686H64.618a.688.688,0,0,1-.686-.686V50A.688.688,0,0,1,64.618,49.317Zm6.46,1.372H65.3v4h5.774Zm-6.46,31.157h7.146a.688.688,0,0,1,.686.686v5.374a.688.688,0,0,1-.686.686H64.618a.688.688,0,0,1-.686-.686V82.532A.688.688,0,0,1,64.618,81.846Zm6.46,1.372H65.3v4h5.774ZM58.672,71.075a.687.687,0,0,1-.743-1.155l.446-.3H48.222L59.827,83.744l-.069-.652a.683.683,0,0,1,1.361-.126l.24,2.493a.675.675,0,0,1-.812.732l-2.858-.446a.682.682,0,1,1,.206-1.349l.766.114L46.45,69.635h-3.59a.686.686,0,0,1,0-1.372h3.59L58.661,53.387l-.766.114a.682.682,0,1,1-.206-1.349l2.858-.446a.684.684,0,0,1,.812.732l-.24,2.493a.683.683,0,0,1-1.361-.126l.069-.675L48.222,68.263H58.375l-.446-.3a.682.682,0,1,1,.743-1.143l2.367,1.544a.689.689,0,0,1,.011,1.155ZM29.1,74.128H37.52a1.515,1.515,0,0,0,1.509-1.509v-7.2H27.6v7.2A1.515,1.515,0,0,0,29.1,74.128ZM37.52,75.5h-.606V90.8H76.452V44.972H36.9v15h4.025a.688.688,0,0,1,.686.686v4.07a.688.688,0,0,1-.686.686H40.39v7.2A2.881,2.881,0,0,1,37.52,75.5Zm-1.978,0H29.1a2.884,2.884,0,0,1-2.881-2.881v-7.2h-.537A.688.688,0,0,1,25,64.73v-4.07a.688.688,0,0,1,.686-.686H35.53V44.286a.688.688,0,0,1,.686-.686H77.138a.688.688,0,0,1,.686.686v47.2a.688.688,0,0,1-.686.686H36.216a.688.688,0,0,1-.686-.686V75.5Zm4.7-14.155H26.372v2.7H40.253v-2.7ZM50.429,48.379a.686.686,0,1,1,0,1.372H41.35a.686.686,0,1,1,0-1.372ZM45.889,77.444a.686.686,0,0,1,0,1.372H41.35a.686.686,0,1,1,0-1.372Zm4.539,3.945a.686.686,0,1,1,0,1.372H41.35a.686.686,0,1,1,0-1.372Zm0,3.945a.686.686,0,1,1,0,1.372H41.35a.686.686,0,1,1,0-1.372ZM45.889,56.269a.686.686,0,1,1,0,1.372H41.35a.686.686,0,1,1,0-1.372Zm4.539-3.945a.686.686,0,1,1,0,1.372H41.35a.686.686,0,1,1,0-1.372Z"/>
      </g>
    </g>
  </g>
</svg>
