<svg xmlns="http://www.w3.org/2000/svg" xmlns:xlink="http://www.w3.org/1999/xlink" width="136" height="125.262" viewBox="0 0 136 125.262">
  <defs>
    <linearGradient id="linear-gradient" x1="0.5" x2="0.5" y2="1" gradientUnits="objectBoundingBox">
      <stop offset="0" stop-color="#459fff"/>
      <stop offset="1" stop-color="#a96dff"/>
    </linearGradient>
  </defs>
  <g id="Grupo_1084701" data-name="Grupo 1084701" transform="translate(-1176.521 -3640)">
    <g id="Grupo_1084637" data-name="Grupo 1084637" transform="translate(1176.521 3640.478)">
      <rect id="Rect치ngulo_375574" data-name="Rect치ngulo 375574" width="136" height="125.262" rx="14" transform="translate(0 -0.478)" fill="url(#linear-gradient)"/>
    </g>
    <g id="Grupo_1084662" data-name="Grupo 1084662" transform="translate(986.42 1655.423)">
      <g id="Grupo_1070195" data-name="Grupo 1070195" transform="translate(221.015 2002.577)">
        <rect id="Rect치ngulo_374304" data-name="Rect치ngulo 374304" width="72.988" height="89.683" rx="6" transform="translate(0 0)" fill="#e6fcf4"/>
      </g>
      <g id="formula_1_" data-name="formula (1)" transform="translate(217.846 2012.465)">
        <path id="Trazado_831063" data-name="Trazado 831063" d="M78.608,34.977V13.824a5.288,5.288,0,0,0-5.288-5.288h-59.5a5.288,5.288,0,0,0-5.288,5.288V62.742a5.289,5.289,0,0,0,5.288,5.289H40.266Zm0,0" transform="translate(-7.213 -7.213)" fill="#607d8b"/>
        <path id="Trazado_831064" data-name="Trazado 831064" d="M68.393,29.689l6.236,5.288V13.823A5.144,5.144,0,0,0,69.64,8.535H13.513a5.144,5.144,0,0,0-4.989,5.288V62.742a5.145,5.145,0,0,0,4.989,5.289H38.459Zm0,0" transform="translate(-7.201 -7.213)" fill="#cfd8dc"/>
        <path id="Trazado_831065" data-name="Trazado 831065" d="M108.051,107.082v-11.9a1.322,1.322,0,0,0-1.322-1.322H52.522a1.271,1.271,0,0,0-1.322,1.2v37.257a1.271,1.271,0,0,0,1.322,1.2h23.8Zm0,0" transform="translate(-43.267 -79.317)" fill="#02a9f4"/>
        <path id="Trazado_831066" data-name="Trazado 831066" d="M215.976,179.2H255.64a2.644,2.644,0,0,1,2.644,2.644v39.664a2.644,2.644,0,0,1-2.644,2.644H215.976a2.644,2.644,0,0,1-2.644-2.644V181.843a2.644,2.644,0,0,1,2.644-2.644Zm0,0" transform="translate(-180.279 -151.435)" fill="#ff5722"/>
        <path id="Trazado_831067" data-name="Trazado 831067" d="M215.976,179.2h35.7a2.644,2.644,0,0,1,2.644,2.644v39.664a2.644,2.644,0,0,1-2.644,2.644h-35.7a2.644,2.644,0,0,1-2.644-2.644V181.843A2.644,2.644,0,0,1,215.976,179.2Zm0,0" transform="translate(-180.279 -151.435)" fill="#ff9801"/>
        <path id="Trazado_831068" data-name="Trazado 831068" d="M52.522,45.312h2.644a1.322,1.322,0,0,0,0-2.644H52.522a1.322,1.322,0,1,0,0,2.644Zm0,0" transform="translate(-43.267 -36.057)"/>
        <path id="Trazado_831069" data-name="Trazado 831069" d="M103.721,45.312h2.644a1.322,1.322,0,1,0,0-2.644h-2.644a1.322,1.322,0,1,0,0,2.644Zm0,0" transform="translate(-86.534 -36.057)"/>
        <path id="Trazado_831070" data-name="Trazado 831070" d="M154.924,45.312h5.288a1.322,1.322,0,1,0,0-2.644h-5.288a1.322,1.322,0,0,0,0,2.644Zm0,0" transform="translate(-129.804 -36.057)"/>
        <path id="Trazado_831071" data-name="Trazado 831071" d="M223.189,45.312h29.087a1.322,1.322,0,1,0,0-2.644H223.189a1.322,1.322,0,0,0,0,2.644Zm0,0" transform="translate(-187.492 -36.057)"/>
        <path id="Trazado_831072" data-name="Trazado 831072" d="M75.36,26.443H72.716V6.611A6.618,6.618,0,0,0,66.106,0H6.61A6.618,6.618,0,0,0,0,6.611V55.529A6.618,6.618,0,0,0,6.61,62.14h25.12v7.933A3.966,3.966,0,0,0,35.7,74.039H75.361a3.966,3.966,0,0,0,3.967-3.967V30.409a3.966,3.966,0,0,0-3.967-3.966ZM6.61,59.5a3.966,3.966,0,0,1-3.967-3.967V6.611A3.966,3.966,0,0,1,6.61,2.644h59.5a3.966,3.966,0,0,1,3.966,3.967V26.443H66.106V15.865a2.644,2.644,0,0,0-2.644-2.644H9.255A2.59,2.59,0,0,0,6.61,15.747V53a2.59,2.59,0,0,0,2.644,2.525H31.731V59.5ZM35.7,26.443a3.965,3.965,0,0,0-3.723,2.644H21.154V23.8H63.462v2.644ZM9.255,52.875V47.6h9.254v5.288ZM63.462,15.865v5.289H21.154V15.865ZM18.509,21.154H9.255V15.865h9.254ZM9.255,39.664h9.254v5.288H9.255Zm11.9,0H31.731v5.288H21.154ZM31.731,37.02H21.154V31.731H31.731Zm-13.222,0H9.255V31.731h9.254ZM9.255,29.087V23.8h9.254v5.288Zm11.9,18.51H31.731v5.288H21.154ZM76.683,70.073A1.322,1.322,0,0,1,75.36,71.4H35.7a1.322,1.322,0,0,1-1.322-1.322V30.409A1.322,1.322,0,0,1,35.7,29.087H75.36a1.322,1.322,0,0,1,1.322,1.322Zm0,0"/>
        <path id="Trazado_831073" data-name="Trazado 831073" d="M256.121,221.258H251.1l1.057-10.577a2.644,2.644,0,1,1,5.288,0,1.322,1.322,0,0,0,2.644,0,5.288,5.288,0,0,0-10.57-.133l-1.064,10.709h-4.231a1.322,1.322,0,0,0,0,2.644h3.967l-1.322,13.222a2.644,2.644,0,1,1-5.288,0,1.322,1.322,0,1,0-2.644,0,5.288,5.288,0,0,0,10.57.132l1.329-13.354h5.288a1.322,1.322,0,0,0,0-2.644Zm0,0" transform="translate(-201.914 -173.661)"/>
        <path id="Trazado_831074" data-name="Trazado 831074" d="M372.468,341.723a1.323,1.323,0,0,0-1.87,0l-5.015,5.015-5.015-5.015a1.322,1.322,0,0,0-1.87,1.87l5.015,5.015-5.015,5.015a1.322,1.322,0,1,0,1.87,1.87l5.015-5.015,5.015,5.015a1.322,1.322,0,0,0,1.87-1.87l-5.015-5.015,5.015-5.015A1.322,1.322,0,0,0,372.468,341.723Zm0,0" transform="translate(-302.783 -288.451)"/>
      </g>
    </g>
  </g>
</svg>
