<svg xmlns="http://www.w3.org/2000/svg" xmlns:xlink="http://www.w3.org/1999/xlink" width="136" height="125.262" viewBox="0 0 136 125.262">
  <defs>
    <linearGradient id="linear-gradient" x1="0.5" x2="0.5" y2="1" gradientUnits="objectBoundingBox">
      <stop offset="0" stop-color="#459fff"/>
      <stop offset="1" stop-color="#a96dff"/>
    </linearGradient>
    <clipPath id="clip-path">
      <path id="path7512" d="M0-682.665H78.261V-604.4H0Z" transform="translate(0 682.665)"/>
    </clipPath>
  </defs>
  <g id="Grupo_1084700" data-name="Grupo 1084700" transform="translate(-1176.521 -3201)">
    <g id="Grupo_1084633" data-name="Grupo 1084633" transform="translate(1176.521 3201.478)">
      <rect id="Rect치ngulo_375574" data-name="Rect치ngulo 375574" width="136" height="125.262" rx="14" transform="translate(0 -0.478)" fill="url(#linear-gradient)"/>
    </g>
    <g id="Grupo_1084636" data-name="Grupo 1084636" transform="translate(986.42 1216.424)">
      <g id="Grupo_1070195" data-name="Grupo 1070195" transform="translate(221.015 2002.577)">
        <rect id="Rect치ngulo_374304" data-name="Rect치ngulo 374304" width="72.988" height="89.683" rx="6" transform="translate(0 0)" fill="#e6fcf4"/>
      </g>
      <g id="g7506" transform="translate(219.101 2691.241)">
        <g id="g7508" transform="translate(0 -682.665)">
          <g id="g7510" clip-path="url(#clip-path)">
            <g id="g7516" transform="translate(1.147 6.211)">
              <path id="path7518" d="M-39.112,0a5.064,5.064,0,0,0-5.064,5.064V50.646a5.064,5.064,0,0,0,5.064,5.064H26.727a5.064,5.064,0,0,0,5.064-5.064V5.064A5.064,5.064,0,0,0,26.727,0Z" transform="translate(44.176)" fill="#5b7fa0"/>
            </g>
            <g id="g7520" transform="translate(68.534 6.211)">
              <path id="path7522" d="M-27.151,0h-3.516A5.064,5.064,0,0,1-25.6,5.064V50.646a5.064,5.064,0,0,1-5.064,5.064h3.516a5.064,5.064,0,0,0,5.064-5.064V5.064A5.064,5.064,0,0,0-27.151,0" transform="translate(30.667)" fill="#4a6f99"/>
            </g>
            <g id="g7524" transform="translate(28.368 60.683)">
              <path id="path7526" d="M-166.232-87.784-167.5-97.912V-99.15h-18.992v1.238l-1.266,10.129v1.422h21.524Z" transform="translate(187.757 99.15)" fill="#bec8f7"/>
            </g>
            <g id="g7528" transform="translate(6.211 11.276)">
              <path id="path7530" d="M0-312.9v-39.25a1.266,1.266,0,0,1,1.266-1.266H64.573a1.266,1.266,0,0,1,1.266,1.266v39.25Z" transform="translate(0 353.42)" fill="#77dfff"/>
            </g>
            <g id="g7532" transform="translate(67.268 11.276)">
              <path id="path7534" d="M-27.153,0h-3.516A1.266,1.266,0,0,1-29.4,1.266v39.25h3.516V1.266A1.266,1.266,0,0,0-27.153,0" transform="translate(30.669)" fill="#69cdff"/>
            </g>
            <g id="g7536" transform="translate(21.405 72.05)">
              <path id="path7538" d="M-264.348,0h-33.006a1.223,1.223,0,0,0-1.223,1.223V3.841a1.223,1.223,0,0,0,1.223,1.223h33.006a1.223,1.223,0,0,0,1.223-1.223V1.223A1.223,1.223,0,0,0-264.348,0" transform="translate(298.577)" fill="#e9efff"/>
            </g>
            <g id="g7540" transform="translate(52.118 72.05)">
              <path id="path7542" d="M-27.151,0h-3.516a1.223,1.223,0,0,1,1.223,1.223V3.841a1.223,1.223,0,0,1-1.223,1.223h3.516a1.223,1.223,0,0,0,1.223-1.223V1.223A1.223,1.223,0,0,0-27.151,0" transform="translate(30.667)" fill="#d3dcfb"/>
            </g>
            <g id="g7544" transform="translate(1.147 51.792)">
              <path id="path7546" d="M-586.694-39.114v-5.065h-75.967v5.065a5.064,5.064,0,0,0,5.064,5.064h65.839a5.064,5.064,0,0,0,5.064-5.064" transform="translate(662.661 44.179)" fill="#b0c0d2"/>
            </g>
            <g id="g7548" transform="translate(68.534 51.792)">
              <path id="path7550" d="M-39.112-39.114a5.064,5.064,0,0,1-5.064,5.064h3.516A5.064,5.064,0,0,0-35.6-39.114v-5.065h-3.516Z" transform="translate(44.176 44.179)" fill="#5b7fa0"/>
            </g>
            <g id="g7552" transform="translate(26.469 36.598)">
              <path id="path7554" d="M-186.121-39.113H-209a1.223,1.223,0,0,1-1.223-1.223v-2.619A1.223,1.223,0,0,1-209-44.177h22.877a1.223,1.223,0,0,1,1.223,1.223v2.619a1.223,1.223,0,0,1-1.223,1.223" transform="translate(210.221 44.177)" fill="#e9efff"/>
            </g>
            <g id="g7556" transform="translate(21.405 1.146)">
              <path id="path7558" d="M-254.235,0A2.532,2.532,0,0,1-251.7,2.532V22.79a2.532,2.532,0,0,1-2.532,2.532h-6.331a1.266,1.266,0,0,0-1.266,1.266V28.6a1.266,1.266,0,0,1-2.161.9l-3.8-3.8a1.266,1.266,0,0,0-.9-.371h-15.935a2.532,2.532,0,0,1-2.532-2.532V2.532A2.532,2.532,0,0,1-284.622,0Z" transform="translate(287.154)" fill="#89e56a"/>
            </g>
            <g id="g7560" transform="translate(43.211 26.469)">
              <path id="path7562" d="M0-9.778v1.549L1.354-6.875a1.266,1.266,0,0,0,2.161-.9V-9.778a1.266,1.266,0,0,1,1.266-1.266H1.266A1.266,1.266,0,0,0,0-9.778" transform="translate(0 11.044)" fill="#57cf97"/>
            </g>
            <g id="g7564" transform="translate(50.808 1.146)">
              <path id="path7566" d="M-27.151,0h-3.516a2.532,2.532,0,0,1,2.532,2.532V22.79a2.532,2.532,0,0,1-2.532,2.532h3.516a2.532,2.532,0,0,0,2.532-2.532V2.532A2.532,2.532,0,0,0-27.151,0" transform="translate(30.667)" fill="#57cf97"/>
            </g>
            <g id="g7568" transform="translate(47.053 36.598)">
              <path id="path7570" d="M-27.151,0h-3.516a1.223,1.223,0,0,1,1.223,1.223V3.842a1.223,1.223,0,0,1-1.223,1.223h3.516a1.223,1.223,0,0,0,1.223-1.223V1.223A1.223,1.223,0,0,0-27.151,0" transform="translate(30.667)" fill="#d3dcfb"/>
            </g>
            <g id="g7572" transform="translate(56.856 6.211)">
              <path id="path7574" d="M-156.451-138.744v-12.9a5.064,5.064,0,0,0-5.064-5.064h-15.194" transform="translate(176.709 156.709)" fill="none" stroke="#000" stroke-linecap="round" stroke-linejoin="round" stroke-miterlimit="10" stroke-width="1.6"/>
            </g>
            <g id="g7576" transform="translate(16.1 28.74)">
              <path id="path7578" d="M0-256.252H55.949a5.064,5.064,0,0,0,5.064-5.064v-28.116" transform="translate(0 289.433)" fill="none" stroke="#000" stroke-linecap="round" stroke-linejoin="round" stroke-miterlimit="10" stroke-width="1.6"/>
            </g>
            <g id="g7580" transform="translate(1.147 6.211)">
              <path id="path7582" d="M-156.451,0h-15.194a5.064,5.064,0,0,0-5.064,5.064V50.646a5.064,5.064,0,0,0,5.064,5.064h5.3" transform="translate(176.709)" fill="none" stroke="#000" stroke-linecap="round" stroke-linejoin="round" stroke-miterlimit="10" stroke-width="1.6"/>
            </g>
            <path id="path7584" d="M222.163-54.176H186.712v5.064h35.452Z" transform="translate(-165.307 126.226)" fill="none" stroke="#000" stroke-linecap="round" stroke-linejoin="round" stroke-miterlimit="10" stroke-width="1.6"/>
            <g id="g7586" transform="translate(28.368 61.921)">
              <path id="path7588" d="M-9.779,0l-1.266,10.129" transform="translate(11.045)" fill="none" stroke="#000" stroke-linecap="round" stroke-linejoin="round" stroke-miterlimit="10" stroke-width="1.6"/>
            </g>
            <g id="g7590" transform="translate(48.626 61.921)">
              <path id="path7592" d="M-9.779-78.223l-1.266-10.129" transform="translate(11.045 88.352)" fill="none" stroke="#000" stroke-linecap="round" stroke-linejoin="round" stroke-miterlimit="10" stroke-width="1.6"/>
            </g>
            <g id="g7594" transform="translate(36.598 61.921)">
              <path id="path7596" d="M0,0V5.064H5.064V0" fill="none" stroke="#000" stroke-linecap="round" stroke-linejoin="round" stroke-miterlimit="10" stroke-width="1.6"/>
            </g>
            <g id="g7598" transform="translate(1.146 51.792)">
              <path id="path7600" d="M0,0H75.968" fill="none" stroke="#000" stroke-linecap="round" stroke-linejoin="round" stroke-miterlimit="10" stroke-width="1.6"/>
            </g>
            <g id="g7602" transform="translate(56.856 11.276)">
              <path id="path7604" d="M0,0H13.928a1.266,1.266,0,0,1,1.266,1.266v39.25" fill="none" stroke="#000" stroke-linecap="round" stroke-linejoin="round" stroke-miterlimit="10" stroke-width="1.6"/>
            </g>
            <g id="g7606" transform="translate(6.211 11.276)">
              <path id="path7608" d="M0-312.9v-39.25a1.266,1.266,0,0,1,1.266-1.266H15.194" transform="translate(0 353.42)" fill="none" stroke="#000" stroke-linecap="round" stroke-linejoin="round" stroke-miterlimit="10" stroke-width="1.6"/>
            </g>
            <g id="g7610" transform="translate(21.405 1.146)">
              <path id="path7612" d="M-254.235,0A2.532,2.532,0,0,1-251.7,2.532V22.791a2.532,2.532,0,0,1-2.532,2.532h-6.331a1.266,1.266,0,0,0-1.266,1.266V28.6a1.266,1.266,0,0,1-2.161.9l-3.8-3.8a1.266,1.266,0,0,0-.9-.371h-15.935a2.532,2.532,0,0,1-2.532-2.532V2.532A2.532,2.532,0,0,1-284.622,0Z" transform="translate(287.154)" fill="none" stroke="#000" stroke-linecap="round" stroke-linejoin="round" stroke-miterlimit="10" stroke-width="1.6"/>
            </g>
            <g id="g7626" transform="translate(26.469 36.598)">
              <path id="path7628" d="M-186.121-39.113H-209a1.223,1.223,0,0,1-1.223-1.223v-2.619A1.223,1.223,0,0,1-209-44.177h22.877a1.223,1.223,0,0,1,1.223,1.223v2.619A1.223,1.223,0,0,1-186.121-39.113Z" transform="translate(210.221 44.177)" fill="none" stroke="#000" stroke-linecap="round" stroke-linejoin="round" stroke-miterlimit="10" stroke-width="1.6"/>
            </g>
            <path id="Trazado_831132" data-name="Trazado 831132" d="M2.578.58A1.945,1.945,0,0,1,1.639.361,1.711,1.711,0,0,1,.972-.314,3.67,3.67,0,0,1,.579-1.491,9.836,9.836,0,0,1,.45-3.206,9.82,9.82,0,0,1,.579-4.925,3.667,3.667,0,0,1,.972-6.1a1.682,1.682,0,0,1,.667-.671,1.975,1.975,0,0,1,.938-.214.187.187,0,0,1,.138.057.187.187,0,0,1,.057.138V-6.3a.2.2,0,0,1-.053.138.165.165,0,0,1-.125.057.97.97,0,0,0-.558.19,1.161,1.161,0,0,0-.36.526,3.623,3.623,0,0,0-.19.894,12.688,12.688,0,0,0-.057,1.294,12.688,12.688,0,0,0,.057,1.294,3.688,3.688,0,0,0,.19.9,1.161,1.161,0,0,0,.36.53.97.97,0,0,0,.558.19.165.165,0,0,1,.125.057A.2.2,0,0,1,2.772-.1V.386A.193.193,0,0,1,2.578.58ZM5.037-.706A.187.187,0,0,1,4.9-.763.187.187,0,0,1,4.843-.9V-5.374h-1.5a.187.187,0,0,1-.138-.057.187.187,0,0,1-.057-.138v-.6a.2.2,0,0,1,.057-.146.187.187,0,0,1,.138-.057H7.472a.2.2,0,0,1,.146.057.2.2,0,0,1,.057.146v.6a.187.187,0,0,1-.057.138.2.2,0,0,1-.146.057H5.983V-.9a.187.187,0,0,1-.057.138.2.2,0,0,1-.146.057Zm3.648,0a.187.187,0,0,1-.138-.057A.187.187,0,0,1,8.491-.9V-6.167a.2.2,0,0,1,.057-.146.187.187,0,0,1,.138-.057h2.168a2.812,2.812,0,0,1,1.1.2,1.569,1.569,0,0,1,.728.6,1.8,1.8,0,0,1,.259,1,1.78,1.78,0,0,1-.259,1,1.562,1.562,0,0,1-.728.586,2.864,2.864,0,0,1-1.1.194H9.648V-.9A.2.2,0,0,1,9.6-.763a.184.184,0,0,1-.142.057Zm.946-2.985h1.181a1.051,1.051,0,0,0,.72-.222.835.835,0,0,0,.251-.659.906.906,0,0,0-.235-.651.974.974,0,0,0-.736-.247H9.632ZM15.44-.973A.187.187,0,0,1,15.3-1.03a.187.187,0,0,1-.057-.138V-2.745H13.693a.187.187,0,0,1-.138-.057.2.2,0,0,1-.057-.146v-.421a.184.184,0,0,1,.057-.142.2.2,0,0,1,.138-.053h1.553V-5.1a.187.187,0,0,1,.057-.138.187.187,0,0,1,.138-.057h.469a.184.184,0,0,1,.142.057A.2.2,0,0,1,16.1-5.1v1.537h1.553a.2.2,0,0,1,.138.053.184.184,0,0,1,.057.142v.421a.2.2,0,0,1-.057.146.187.187,0,0,1-.138.057H16.1v1.577a.2.2,0,0,1-.053.138.184.184,0,0,1-.142.057Zm4.789.267a.187.187,0,0,1-.138-.057A.187.187,0,0,1,20.035-.9V-5.374h-1.5a.187.187,0,0,1-.138-.057.187.187,0,0,1-.057-.138v-.6a.2.2,0,0,1,.057-.146.187.187,0,0,1,.138-.057h4.126a.2.2,0,0,1,.146.057.2.2,0,0,1,.057.146v.6a.187.187,0,0,1-.057.138.2.2,0,0,1-.146.057H21.176V-.9a.187.187,0,0,1-.057.138.2.2,0,0,1-.146.057Zm3.648,0a.187.187,0,0,1-.138-.057A.187.187,0,0,1,23.683-.9V-6.167a.2.2,0,0,1,.057-.146.187.187,0,0,1,.138-.057H24.5a.227.227,0,0,1,.166.053.614.614,0,0,1,.069.077l2.33,3.624V-6.167a.205.205,0,0,1,.053-.146.184.184,0,0,1,.142-.057h.68a.2.2,0,0,1,.146.057.2.2,0,0,1,.057.146V-.909a.2.2,0,0,1-.057.146.187.187,0,0,1-.138.057h-.631a.2.2,0,0,1-.162-.057.442.442,0,0,0-.073-.073L24.759-4.379V-.9a.187.187,0,0,1-.057.138.2.2,0,0,1-.146.057ZM29.273.58a.193.193,0,0,1-.194-.194V-.1a.2.2,0,0,1,.053-.138.165.165,0,0,1,.125-.057.963.963,0,0,0,.562-.19,1.177,1.177,0,0,0,.356-.53,3.8,3.8,0,0,0,.194-.9,11.848,11.848,0,0,0,.061-1.294A11.848,11.848,0,0,0,30.37-4.5a3.734,3.734,0,0,0-.194-.894,1.177,1.177,0,0,0-.356-.526.963.963,0,0,0-.562-.19.165.165,0,0,1-.125-.057.2.2,0,0,1-.053-.138V-6.79a.187.187,0,0,1,.057-.138.187.187,0,0,1,.138-.057,1.975,1.975,0,0,1,.938.214,1.682,1.682,0,0,1,.667.671,3.667,3.667,0,0,1,.392,1.173A9.82,9.82,0,0,1,31.4-3.206a9.836,9.836,0,0,1-.129,1.715,3.67,3.67,0,0,1-.392,1.177,1.711,1.711,0,0,1-.667.675A1.945,1.945,0,0,1,29.273.58Z" transform="translate(23.463 17.715)"/>
          </g>
        </g>
      </g>
    </g>
  </g>
</svg>
