<svg xmlns="http://www.w3.org/2000/svg" xmlns:xlink="http://www.w3.org/1999/xlink" width="124.384" height="124.384" viewBox="0 0 124.384 124.384">
  <defs>
    <filter id="Elipse_10794" x="0" y="0" width="124.384" height="124.384" filterUnits="userSpaceOnUse">
      <feOffset dy="3" input="SourceAlpha"/>
      <feGaussianBlur stdDeviation="3" result="blur"/>
      <feFlood flood-opacity="0.161"/>
      <feComposite operator="in" in2="blur"/>
      <feComposite in="SourceGraphic"/>
    </filter>
  </defs>
  <g id="Grupo_1087185" data-name="Grupo 1087185" transform="translate(-324.68 -1894.213)">
    <g transform="matrix(1, 0, 0, 1, 324.68, 1894.21)" filter="url(#Elipse_10794)">
      <circle id="Elipse_10794-2" data-name="Elipse 10794" cx="53.192" cy="53.192" r="53.192" transform="translate(9 6)" fill="#fff"/>
    </g>
    <g id="Grupo_1084512" data-name="Grupo 1084512" transform="translate(364.73 1914.343)">
      <g id="Grupo_1070195" data-name="Grupo 1070195" transform="translate(0 0)">
        <rect id="Rectángulo_374304" data-name="Rectángulo 374304" width="44.494" height="79.842" rx="3" transform="translate(0 0)" fill="#9697f8"/>
      </g>
    </g>
    <g id="persona-de-libre-dedicacion_1_" data-name="persona-de-libre-dedicacion (1)" transform="translate(351.92 1918.892)">
      <path id="Trazado_831236" data-name="Trazado 831236" d="M103.821,439.209h-41.1v-1.348a2.388,2.388,0,0,1,2.388-2.388h36.323a2.388,2.388,0,0,1,2.388,2.388Z" transform="translate(-54.236 -376.547)" fill="#617881"/>
      <path id="Trazado_831237" data-name="Trazado 831237" d="M246.608,121.18a12.068,12.068,0,0,1-1.287-3.248h-.606a2.52,2.52,0,0,0-2.52,2.52,4.952,4.952,0,0,0,4.952,4.952h.1l-.271-4.255-.173.086A.145.145,0,0,1,246.608,121.18Z" transform="translate(-209.422 -101.974)" fill="#ffddce"/>
      <path id="Trazado_831238" data-name="Trazado 831238" d="M275.219,7.5a12.146,12.146,0,0,0-10.7,18.19.145.145,0,0,0,.19.057l11.773-5.887a4.169,4.169,0,0,0,2.3-3.729v.993a3.822,3.822,0,0,0,1.119,2.7l5.6,5.6a.15.15,0,0,0,.237-.034A12.147,12.147,0,0,0,275.219,7.5Z" transform="translate(-227.329 -6.486)" fill="#f6e266"/>
      <path id="Trazado_831239" data-name="Trazado 831239" d="M428.318,117.931h-.608a12.062,12.062,0,0,1-1.123,2.954.15.15,0,0,1-.237.034l-.257-.257-.3,4.742h.1a4.952,4.952,0,0,0,4.952-4.952A2.52,2.52,0,0,0,428.318,117.931Z" transform="translate(-368.175 -101.973)" fill="#ffcbbe"/>
      <path id="Trazado_831240" data-name="Trazado 831240" d="M394.063,184.071a2.864,2.864,0,0,0,2.077,2.754l3.16.9a10.826,10.826,0,0,1,1.968.777l-2.791-15.351h-.121l0,.058a9.9,9.9,0,0,1-4.29,7.547v3.312Z" transform="translate(-340.74 -149.724)" fill="#f1d333"/>
      <path id="Trazado_831241" data-name="Trazado 831241" d="M74.752,468.544a.143.143,0,0,1-.143.143H7.643a.143.143,0,0,1-.143-.143v-5.318a.143.143,0,0,1,.143-.143H74.609a.143.143,0,0,1,.143.143v5.318Z" transform="translate(-6.485 -400.421)" fill="#e28424"/>
      <path id="Trazado_831242" data-name="Trazado 831242" d="M45.852,173.167h-35.6A2.747,2.747,0,0,0,7.5,175.914v24.395a2.747,2.747,0,0,0,2.747,2.747H23.567l.747-3.736h7.472l.747,3.736H45.852a2.747,2.747,0,0,0,2.747-2.747V175.914a2.747,2.747,0,0,0-2.747-2.747Z" transform="translate(-6.486 -149.735)" fill="#d0e2e7"/>
      <path id="Trazado_831243" data-name="Trazado 831243" d="M109.015,439.209H90.334V437a1.527,1.527,0,0,1,1.527-1.527h15.628A1.527,1.527,0,0,1,109.015,437Z" transform="translate(-78.11 -376.547)" fill="#d0e2e7"/>
      <path id="Trazado_831244" data-name="Trazado 831244" d="M316.1,281.681v9.175a5.54,5.54,0,0,0,1.623,3.917l.206.206a.135.135,0,0,1,.04.1v5.349a.2.2,0,0,1-.2.2h-9.855a.2.2,0,0,1-.179-.111,3.179,3.179,0,0,0-2.843-1.757h-4.5a2.976,2.976,0,0,0-2.976,2.977v.76h6.953a2.388,2.388,0,0,1,2.388,2.388v1.348h16.814V291.963A10.81,10.81,0,0,0,316.1,281.681Z" transform="translate(-257.173 -243.565)" fill="#ffece4"/>
      <path id="Trazado_831245" data-name="Trazado 831245" d="M292.516,74.99a3.822,3.822,0,0,1-1.119-2.7v-.993a4.169,4.169,0,0,1-2.3,3.729l-11.6,5.8.271,4.255v0h1.545a2.747,2.747,0,0,1,2.747,2.747v4.856h0a9.915,9.915,0,0,0,15.5-7.547l.306-4.8Z" transform="translate(-239.943 -61.647)" fill="#ffece4"/>
      <path id="Trazado_831246" data-name="Trazado 831246" d="M324.509,235.426a2.864,2.864,0,0,1-2.077-2.754v-3.312a9.917,9.917,0,0,1-11.209,0v9.21a9.344,9.344,0,0,0,13.8-3Z" transform="translate(-269.11 -198.325)" fill="#ffcbbe"/>
      <path id="Trazado_831247" data-name="Trazado 831247" d="M214.584,394.056h5.6v5.6h-5.6Z" transform="translate(-185.548 -340.734)" fill="#ffece4"/>
      <path id="Trazado_831248" data-name="Trazado 831248" d="M129.154,375.785H117.945l1.868-9.34h7.473Z" transform="translate(-101.985 -316.86)" fill="#9bb9c1"/>
      <path id="Trazado_831249" data-name="Trazado 831249" d="M264.581,293.219h4.5a3.179,3.179,0,0,1,2.843,1.757.2.2,0,0,0,.179.111h9.855a.2.2,0,0,0,.2-.2v-5.349a.135.135,0,0,0-.04-.1l-.206-.206q-.171-.17-.324-.354a5.54,5.54,0,0,1-1.3-3.564v-9.175q-.181-.059-.366-.112l-2.643-.755a9.344,9.344,0,0,1-13.8,3V288.6a2.747,2.747,0,0,1-2.747,2.747H256v5.6h5.6v-.76a2.977,2.977,0,0,1,2.977-2.977Z" transform="translate(-221.359 -238.029)" fill="#dd636e"/>
      <path id="Trazado_831250" data-name="Trazado 831250" d="M95.938,202.646a1.868,1.868,0,0,1,1.868-1.868H90.334a1.868,1.868,0,1,1,0,3.736h7.472A1.868,1.868,0,0,1,95.938,202.646Z" transform="translate(-78.11 -173.61)" fill="#b4d0d5"/>
      <path id="Trazado_831251" data-name="Trazado 831251" d="M178.772,202.646a1.868,1.868,0,0,1,1.868-1.868h-7.472a1.868,1.868,0,1,1,0,3.736h7.472A1.868,1.868,0,0,1,178.772,202.646Z" transform="translate(-149.736 -173.61)" fill="#b4d0d5"/>
      <g id="Grupo_1084740" data-name="Grupo 1084740" transform="translate(6.619 27.168)">
        <path id="Trazado_831252" data-name="Trazado 831252" d="M137.354,204.514h-3.736a1.868,1.868,0,0,1,0-3.736h3.736a1.868,1.868,0,0,1,0,3.736Z" transform="translate(-120.541 -200.778)" fill="#617881"/>
        <path id="Trazado_831253" data-name="Trazado 831253" d="M54.521,204.514H50.785a1.868,1.868,0,1,1,0-3.736h3.736a1.868,1.868,0,1,1,0,3.736Z" transform="translate(-48.917 -200.778)" fill="#617881"/>
        <path id="Trazado_831254" data-name="Trazado 831254" d="M220.187,204.514h-3.736a1.868,1.868,0,1,1,0-3.736h3.736a1.868,1.868,0,0,1,0,3.736Z" transform="translate(-192.166 -200.778)" fill="#617881"/>
      </g>
      <path id="Trazado_831255" data-name="Trazado 831255" d="M202.355,173.167h-2.666c0,.014,0,.027,0,.041V193.56a6.79,6.79,0,0,1-6.79,6.79h-4.4l.541,2.706h13.318a2.747,2.747,0,0,0,2.747-2.747V175.914A2.747,2.747,0,0,0,202.355,173.167Z" transform="translate(-162.989 -149.735)" fill="#b4d0d5"/>
      <path id="Trazado_831256" data-name="Trazado 831256" d="M7.5,374.055a2.747,2.747,0,0,0,2.747,2.706H23.568l.541-2.706Z" transform="translate(-6.488 -323.44)" fill="#b4d0d5"/>
      <path id="Trazado_831257" data-name="Trazado 831257" d="M321.683,74.99a3.822,3.822,0,0,1-1.119-2.7v-.993a4.169,4.169,0,0,1-1.831,3.452l1.482,1.482a4.385,4.385,0,0,1,1.276,3.38l-.18,2.822a9.914,9.914,0,0,1-9.894,9.283l-.192,0v.972h0a9.915,9.915,0,0,0,15.5-7.547l.306-4.8Z" transform="translate(-269.11 -61.647)" fill="#ffddce"/>
      <path id="Trazado_831259" data-name="Trazado 831259" d="M68.124,61.648h-.709V48.4a11.789,11.789,0,0,0-5.976-10.281l-.408-2.245a1.015,1.015,0,1,0-2,.363l.164.9c-.266-.085-.128-.043-3.519-1.012a1.857,1.857,0,0,1-1.341-1.778v-2.8a11,11,0,0,0,3.152-3.8l.695,3.821a1.015,1.015,0,1,0,2-.363L58.93,24.32a5.978,5.978,0,0,0,4.748-5.842,3.541,3.541,0,0,0-2.932-3.484,13.157,13.157,0,1,0-26.057,0,3.541,3.541,0,0,0-2.931,3.483,5.943,5.943,0,0,0,1.489,3.939H10.355a1.015,1.015,0,1,0,0,2.03h29.01A1.734,1.734,0,0,1,41.1,26.18V50.575a1.734,1.734,0,0,1-1.732,1.732H26.879L26.538,50.6h2.5a1.015,1.015,0,1,0,0-2.03H14.092a1.015,1.015,0,1,0,0,2.03h2.5l-.341,1.706H3.762A1.734,1.734,0,0,1,2.03,50.575V26.18a1.734,1.734,0,0,1,1.732-1.732H5.619a1.015,1.015,0,0,0,0-2.03H3.762A3.767,3.767,0,0,0,0,26.18V50.575a3.766,3.766,0,0,0,3.762,3.762h12.08l-.715,3.575H10.875a3.406,3.406,0,0,0-3.4,3.4v.334H1.158A1.159,1.159,0,0,0,0,62.805v5.318a1.159,1.159,0,0,0,1.158,1.158H68.123a1.159,1.159,0,0,0,1.158-1.158V62.805a1.159,1.159,0,0,0-1.158-1.158ZM65.385,48.4v13.25H50.6v-.334a3.406,3.406,0,0,0-3.4-3.4H41.276A1.965,1.965,0,0,1,43.222,56.2h4.5a2.152,2.152,0,0,1,1.935,1.2,1.209,1.209,0,0,0,1.087.672H60.6c.035,0,.069,0,.1,0s.063,0,.1,0h1.868a1.015,1.015,0,1,0,0-2.03h-.853V51.51a1.143,1.143,0,0,0-.337-.813l-.206-.206a4.5,4.5,0,0,1-1.325-3.2V39.62A9.764,9.764,0,0,1,65.385,48.4Zm-3.736-29.92a3.944,3.944,0,0,1-2.943,3.81l.156-2.439a1.167,1.167,0,0,0,.445-.456,13.052,13.052,0,0,0,1-2.412A1.508,1.508,0,0,1,61.649,18.478ZM39.9,5.234a11.14,11.14,0,0,1,18.94,8.106,11.165,11.165,0,0,1-.279,2.319,1.022,1.022,0,0,0-.03.129,10.906,10.906,0,0,1-.509,1.571l-4.735-4.735a2.789,2.789,0,0,1-.822-1.985V6.62a1.015,1.015,0,0,0-2.03,0V9.647A3.137,3.137,0,0,1,48.7,12.468L37.683,17.974A11.12,11.12,0,0,1,39.9,5.234ZM35.127,16.982a13.079,13.079,0,0,0,1.18,2.73,1.151,1.151,0,0,0,.28.327l.144,2.249a3.944,3.944,0,0,1-2.943-3.81A1.507,1.507,0,0,1,35.127,16.982Zm4.239,5.435h-.593L38.6,19.783l11-5.5a5.206,5.206,0,0,0,1.525-1.151,4.871,4.871,0,0,0,.728.929l5.021,5.021L56.6,23.424a8.9,8.9,0,0,1-13.472,7.059v-4.3a3.767,3.767,0,0,0-3.762-3.762Zm3.762,10.361a10.92,10.92,0,0,0,9.18-.006v1.576a3.9,3.9,0,0,0,2.066,3.428,8.33,8.33,0,0,1-11.245,1.945V32.778Zm0,17.8V42.06a10.368,10.368,0,0,0,13.259-3.621l1.525.436v8.416a6.51,6.51,0,0,0,1.868,4.583v4.17H51.208a4.167,4.167,0,0,0-3.491-1.868h-4.5a4,4,0,0,0-3.983,3.736H35.655V54.336h3.71A3.766,3.766,0,0,0,43.128,50.575ZM30.051,57.911V54.337h3.574v3.575Zm-.162,2.541v1.195H13.238V60.453a.512.512,0,0,1,.512-.512H29.378A.512.512,0,0,1,29.89,60.453Zm-1.868-6.116v3.575H28l-.715-3.575ZM18.66,50.6h5.808l1.462,7.311H17.2L18.66,50.6ZM9.5,61.314a1.374,1.374,0,0,1,1.373-1.373h.385a2.542,2.542,0,0,0-.052.512v1.195H9.5Zm57.749,5.938H2.03V63.677H37.549a1.015,1.015,0,1,0,0-2.03H31.919V60.453a2.542,2.542,0,0,0-.052-.512H47.2a1.374,1.374,0,0,1,1.373,1.373v.334H42.42a1.015,1.015,0,1,0,0,2.03H67.252Z" transform="translate(0 0)"/>
      <path id="Trazado_831260" data-name="Trazado 831260" d="M41.417,196.161a2.886,2.886,0,0,0,2.883,2.883H70.453a2.883,2.883,0,1,0,0-5.766H44.3A2.886,2.886,0,0,0,41.417,196.161Zm17.828-.853a.853.853,0,0,1,0,1.707H55.509a.853.853,0,0,1,0-1.707Zm2.754,0h1.964a2.889,2.889,0,0,0,0,1.706H62a2.889,2.889,0,0,0,0-1.706Zm-9.244,1.707H50.79a2.889,2.889,0,0,0,0-1.706h1.964A2.886,2.886,0,0,0,52.755,197.014Zm18.552-.853a.854.854,0,0,1-.853.853H66.717a.853.853,0,0,1,0-1.707h3.736A.854.854,0,0,1,71.307,196.161ZM44.3,195.308h3.736a.853.853,0,0,1,0,1.707H44.3a.853.853,0,0,1,0-1.707Z" transform="translate(-35.813 -167.125)"/>
    </g>
  </g>
</svg>
