<svg xmlns="http://www.w3.org/2000/svg" xmlns:xlink="http://www.w3.org/1999/xlink" width="124.384" height="124.384" viewBox="0 0 124.384 124.384">
  <defs>
    <filter id="Elipse_10794" x="0" y="0" width="124.384" height="124.384" filterUnits="userSpaceOnUse">
      <feOffset dy="3" input="SourceAlpha"/>
      <feGaussianBlur stdDeviation="3" result="blur"/>
      <feFlood flood-opacity="0.161"/>
      <feComposite operator="in" in2="blur"/>
      <feComposite in="SourceGraphic"/>
    </filter>
  </defs>
  <g id="Grupo_1087184" data-name="Grupo 1087184" transform="translate(-324.68 -1894.213)">
    <g transform="matrix(1, 0, 0, 1, 324.68, 1894.21)" filter="url(#Elipse_10794)">
      <circle id="Elipse_10794-2" data-name="Elipse 10794" cx="53.192" cy="53.192" r="53.192" transform="translate(9 6)" fill="#fff"/>
    </g>
    <g id="Grupo_1084512" data-name="Grupo 1084512" transform="translate(349.819 1912.69)">
      <g id="Grupo_1070195" data-name="Grupo 1070195" transform="translate(13.93 0)">
        <rect id="Rectángulo_374304" data-name="Rectángulo 374304" width="46.442" height="78.789" rx="3" transform="translate(0 0)" fill="#9697f8"/>
      </g>
      <g id="persona-de-libre-dedicacion_2_" data-name="persona-de-libre-dedicacion (2)" transform="translate(0 6.124)">
        <path id="Trazado_831210" data-name="Trazado 831210" d="M246.751,117.934H244.7a2.517,2.517,0,0,0-2.517,2.517,4.945,4.945,0,0,0,4.945,4.945h.095Z" transform="translate(-209.461 -101.999)" fill="#ffe4c1"/>
        <path id="Trazado_831211" data-name="Trazado 831211" d="M428.3,117.934h-2.047l-.476,7.462h.1a4.945,4.945,0,0,0,4.945-4.945A2.517,2.517,0,0,0,428.3,117.934Z" transform="translate(-368.243 -101.999)" fill="#f1d0a5"/>
        <path id="Trazado_831212" data-name="Trazado 831212" d="M394.624,80.858l.932.932a2.031,2.031,0,0,1,.49.793l2.283,6.848.587-9.193a10.485,10.485,0,0,0-.375-3.54.23.23,0,0,0-.221-.166h-4.29v2.89A2.029,2.029,0,0,0,394.624,80.858Z" transform="translate(-340.786 -66.193)" fill="#86a0af"/>
        <path id="Trazado_831213" data-name="Trazado 831213" d="M278.289,81.79l.932-.932a2.029,2.029,0,0,0,.594-1.435v-2.89h-4.287a.23.23,0,0,0-.221.166,10.487,10.487,0,0,0-.375,3.54l.586,9.185,2.28-6.841A2.029,2.029,0,0,1,278.289,81.79Z" transform="translate(-237.764 -66.192)" fill="#86a0af"/>
        <path id="Trazado_831214" data-name="Trazado 831214" d="M291.666,14.436a11.024,11.024,0,0,0-12.518-6.689,1.836,1.836,0,0,0-1.446,1.8v1.691a1.845,1.845,0,0,0-2.973-1.458,11.007,11.007,0,0,0-3.529,4.655l-.88,2.2a.144.144,0,0,0,.134.2h21.959a.144.144,0,0,0,.134-.2Z" transform="translate(-233.784 -6.495)" fill="#617881"/>
        <path id="Trazado_831215" data-name="Trazado 831215" d="M317.936,394.048v3.532a.2.2,0,0,1-.2.2H307.9a.2.2,0,0,1-.179-.111,3.174,3.174,0,0,0-2.839-1.755h-4.489a2.972,2.972,0,0,0-2.972,2.972v.759h6.943a2.384,2.384,0,0,1,2.384,2.384v1.347l18.655,0v-9.329Z" transform="translate(-257.228 -340.803)" fill="#fff1dd"/>
        <path id="Trazado_831216" data-name="Trazado 831216" d="M200.778,394.048h7.461v5.6h-7.461Z" transform="translate(-173.648 -340.803)" fill="#fff1dd"/>
        <path id="Trazado_831217" data-name="Trazado 831217" d="M289.57,283.426a7.492,7.492,0,0,0-5.675-7.268l-6.139-1.535a4.111,4.111,0,0,1-.461-.144,9.33,9.33,0,0,1-13.841,3.1v10.313a2.743,2.743,0,0,1-2.743,2.743h-4.72v5.6h5.6v-.759a2.972,2.972,0,0,1,2.972-2.972h4.489a3.174,3.174,0,0,1,2.839,1.755.2.2,0,0,0,.179.111h9.841a.2.2,0,0,0,.2-.2v-3.532h7.463Z" transform="translate(-221.4 -237.391)" fill="#4073c8"/>
        <path id="Trazado_831218" data-name="Trazado 831218" d="M322.414,231.618v-2.258a9.9,9.9,0,0,1-11.192,0v9.2a9.33,9.33,0,0,0,13.841-3.1,4.106,4.106,0,0,1-2.649-3.838Z" transform="translate(-269.168 -198.368)" fill="#f1d0a5"/>
        <path id="Trazado_831219" data-name="Trazado 831219" d="M296.914,82.583a2.028,2.028,0,0,0-.49-.793l-.932-.932a2.029,2.029,0,0,1-.594-1.435v-2.89H283.706v2.89a2.03,2.03,0,0,1-.594,1.435l-.932.932a2.03,2.03,0,0,0-.49.793l-2.28,6.841.011.165h1.545a2.743,2.743,0,0,1,2.743,2.743v4.851a9.9,9.9,0,0,0,15.475-7.537l.014-.215Z" transform="translate(-241.654 -66.192)" fill="#fff1dd"/>
        <path id="Trazado_831220" data-name="Trazado 831220" d="M45.8,173.159H10.243A2.743,2.743,0,0,0,7.5,175.9v24.361a2.743,2.743,0,0,0,2.743,2.743h13.3l.746-3.731h7.462l.746,3.731H45.8a2.743,2.743,0,0,0,2.743-2.743V175.9A2.743,2.743,0,0,0,45.8,173.159Z" transform="translate(-6.487 -149.762)" fill="#d0e2e7"/>
        <path id="Trazado_831221" data-name="Trazado 831221" d="M324.429,82.583a2.028,2.028,0,0,0-.49-.793l-.932-.932a2.029,2.029,0,0,1-.594-1.435v-2.89H317.06a4.056,4.056,0,0,0,1.135,2.216,4.058,4.058,0,0,1,.98,1.586l2.063,6.19a1.1,1.1,0,0,1,.054.419,9.9,9.9,0,0,1-9.88,9.27l-.19,0v.972A9.9,9.9,0,0,0,326.7,89.646l.014-.215Z" transform="translate(-269.169 -66.192)" fill="#ffe4c1"/>
        <path id="Trazado_831222" data-name="Trazado 831222" d="M103.763,439.2H62.722v-1.346a2.384,2.384,0,0,1,2.384-2.384h36.272a2.384,2.384,0,0,1,2.384,2.384V439.2Z" transform="translate(-54.247 -376.624)" fill="#617881"/>
        <path id="Trazado_831223" data-name="Trazado 831223" d="M74.657,468.529a.143.143,0,0,1-.143.143H7.643a.143.143,0,0,1-.143-.143v-5.311a.143.143,0,0,1,.143-.143H74.657Z" transform="translate(-6.487 -400.503)" fill="#e28424"/>
        <path id="Trazado_831224" data-name="Trazado 831224" d="M108.988,439.2H90.333v-2.206a1.524,1.524,0,0,1,1.524-1.524h15.606a1.524,1.524,0,0,1,1.524,1.524V439.2Z" transform="translate(-78.127 -376.624)" fill="#d0e2e7"/>
        <path id="Trazado_831225" data-name="Trazado 831225" d="M129.138,375.764H117.945l1.865-9.327h7.462Z" transform="translate(-102.008 -316.923)" fill="#9bb9c1"/>
        <path id="Trazado_831226" data-name="Trazado 831226" d="M95.929,202.636A1.866,1.866,0,0,1,97.8,200.77H90.333a1.865,1.865,0,1,1,0,3.731h7.462A1.865,1.865,0,0,1,95.929,202.636Z" transform="translate(-78.127 -173.642)" fill="#b4d0d5"/>
        <path id="Trazado_831227" data-name="Trazado 831227" d="M178.763,202.636a1.866,1.866,0,0,1,1.866-1.866h-7.462a1.865,1.865,0,1,1,0,3.731h7.462A1.865,1.865,0,0,1,178.763,202.636Z" transform="translate(-149.768 -173.642)" fill="#b4d0d5"/>
        <g id="Grupo_1084739" data-name="Grupo 1084739" transform="translate(6.61 27.128)">
          <path id="Trazado_831228" data-name="Trazado 831228" d="M137.346,204.5h-3.731a1.866,1.866,0,1,1,0-3.731h3.731a1.866,1.866,0,1,1,0,3.731Z" transform="translate(-120.557 -200.769)" fill="#617881"/>
          <path id="Trazado_831229" data-name="Trazado 831229" d="M54.512,204.5H50.782a1.866,1.866,0,1,1,0-3.731h3.731a1.866,1.866,0,1,1,0,3.731Z" transform="translate(-48.916 -200.769)" fill="#617881"/>
          <path id="Trazado_831230" data-name="Trazado 831230" d="M220.18,204.5h-3.731a1.866,1.866,0,1,1,0-3.731h3.731a1.866,1.866,0,1,1,0,3.731Z" transform="translate(-192.197 -200.769)" fill="#617881"/>
        </g>
        <path id="Trazado_831231" data-name="Trazado 831231" d="M202.334,173.159h-2.662c0,.014,0,.027,0,.041v20.323a6.781,6.781,0,0,1-6.781,6.781h-4.4l.54,2.7h13.3a2.743,2.743,0,0,0,2.743-2.743V175.9A2.743,2.743,0,0,0,202.334,173.159Z" transform="translate(-163.024 -149.762)" fill="#b4d0d5"/>
        <path id="Trazado_831232" data-name="Trazado 831232" d="M7.5,374.047a2.744,2.744,0,0,0,2.743,2.7h13.3l.541-2.7Z" transform="translate(-6.489 -323.505)" fill="#b4d0d5"/>
        <path id="Trazado_831234" data-name="Trazado 831234" d="M69.183,46.044a8.493,8.493,0,0,0-6.442-8.251L56.6,36.258a3.1,3.1,0,0,1-2.343-3V31.508a10.917,10.917,0,0,0,4.2-7.146,5.968,5.968,0,0,0,5.131-5.9,3.534,3.534,0,0,0-3.53-3.53h-.967l.052-.81a11.54,11.54,0,0,0-.163-2.811A1.158,1.158,0,0,0,59.7,9.775l-.881-2.2A12.037,12.037,0,0,0,45.154.27,2.853,2.853,0,0,0,43.08,2.08a2.849,2.849,0,0,0-2.75.411,12.036,12.036,0,0,0-3.854,5.083l-.881,2.2a1.158,1.158,0,0,0,.725,1.534,11.539,11.539,0,0,0-.163,2.811l.052.81h-.967a3.534,3.534,0,0,0-3.53,3.53A5.934,5.934,0,0,0,33.2,22.393H10.341a1.013,1.013,0,1,0,0,2.027h28.97a1.732,1.732,0,0,1,1.73,1.73V50.51a1.732,1.732,0,0,1-1.73,1.73H26.842l-.341-1.7H29a1.013,1.013,0,1,0,0-2.027H14.072a1.013,1.013,0,1,0,0,2.027h2.495l-.341,1.7H3.757a1.732,1.732,0,0,1-1.73-1.73V26.149a1.732,1.732,0,0,1,1.73-1.73H5.611a1.013,1.013,0,1,0,0-2.027H3.757A3.761,3.761,0,0,0,0,26.149V50.51a3.761,3.761,0,0,0,3.757,3.757H15.82l-.714,3.57H10.86a3.4,3.4,0,0,0-3.4,3.4v.333H1.156A1.158,1.158,0,0,0,0,62.724v5.311a1.158,1.158,0,0,0,1.156,1.156H68.028a1.158,1.158,0,0,0,1.156-1.156c0-17.623,0-12.781,0-21.991ZM54.471,37.488a8.319,8.319,0,0,1-11.4,2.185V32.741a10.908,10.908,0,0,0,9.165-.007v.525a5.15,5.15,0,0,0,2.238,4.23Zm-.214-26.125h2.666a9.5,9.5,0,0,1,.2,2.628L56.862,18l-.641-1.922a3.059,3.059,0,0,0-.735-1.189l-.932-.933a1.023,1.023,0,0,1-.3-.718V11.363Zm5.8,5.594a1.5,1.5,0,0,1,1.5,1.5,3.939,3.939,0,0,1-2.938,3.8l.339-5.308Zm-21.7-8.63a10.008,10.008,0,0,1,3.2-4.226.831.831,0,0,1,.883-.088.8.8,0,0,1,.46.741,1.013,1.013,0,0,0,2.027,0V3.062a.824.824,0,0,1,.642-.809A10.011,10.011,0,0,1,56.941,8.327l.4,1.009H37.954Zm.079,9.667-.255-4a9.5,9.5,0,0,1,.2-2.628h2.663V13.24a1.022,1.022,0,0,1-.3.718l-.932.932a3.06,3.06,0,0,0-.735,1.189Zm-3.194-1.037h1.1l.339,5.308a3.939,3.939,0,0,1-2.939-3.8A1.505,1.505,0,0,1,35.242,16.957Zm4.068,5.435h-.2L41,16.721a1.021,1.021,0,0,1,.246-.4l.932-.932a3.022,3.022,0,0,0,.891-2.151V11.363H52.23V13.24a3.022,3.022,0,0,0,.891,2.151l.932.933a1.02,1.02,0,0,1,.245.4l2.22,6.661a8.888,8.888,0,0,1-13.452,7.067v-4.3a3.761,3.761,0,0,0-3.757-3.757ZM43.067,50.51V45.74a10.345,10.345,0,0,0,10.786-1,1.013,1.013,0,1,0-1.217-1.621,8.311,8.311,0,0,1-9.569.287v-1.4a10.352,10.352,0,0,0,13.3-3.719l5.878,1.469a6.469,6.469,0,0,1,4.907,6.285v6.2H61.722V47.658a1.013,1.013,0,0,0-2.027,0v8.314H56.57a1.013,1.013,0,0,0,0,2.027H60.51q.052,0,.1,0c.031,0,.063,0,.095,0h1.865a1.013,1.013,0,0,0,0-2.027h-.852v-1.7h5.436v7.3H50.529v-.333a3.4,3.4,0,0,0-3.4-3.4H41.219a1.962,1.962,0,0,1,1.942-1.7H47.65a2.149,2.149,0,0,1,1.933,1.195A1.207,1.207,0,0,0,50.669,58h1.172a1.013,1.013,0,1,0,0-2.027h-.7a4.161,4.161,0,0,0-3.486-1.866H43.161a3.991,3.991,0,0,0-3.978,3.731H35.6v-3.57h3.706a3.761,3.761,0,0,0,3.757-3.757Zm-13.22,9.864v1.193H13.22V60.375a.512.512,0,0,1,.511-.511H29.337A.512.512,0,0,1,29.848,60.375Zm-1.7-2.538v-3.57h5.434v3.57Zm-9.51-7.3h5.8l1.46,7.3h-8.72Zm-9.145,10.7a1.373,1.373,0,0,1,1.371-1.371h.385a2.538,2.538,0,0,0-.052.511v1.193h-1.7Zm57.669,5.93H2.027v-3.57H37.5a1.013,1.013,0,0,0,0-2.027H31.875V60.375a2.538,2.538,0,0,0-.052-.511H47.132A1.373,1.373,0,0,1,48.5,61.235v.333H42.361a1.013,1.013,0,0,0,0,2.027h24.8Z" transform="translate(0 -0.009)"/>
        <path id="Trazado_831235" data-name="Trazado 831235" d="M41.417,196.149a2.882,2.882,0,0,0,2.879,2.879H70.413a2.879,2.879,0,1,0,0-5.758H44.3A2.882,2.882,0,0,0,41.417,196.149Zm17.8-.852a.852.852,0,0,1,0,1.7H55.489a.852.852,0,1,1,0-1.7Zm2.75,0h1.961a2.884,2.884,0,0,0,0,1.7H61.97A2.884,2.884,0,0,0,61.97,195.3ZM52.738,197H50.777a2.883,2.883,0,0,0,0-1.7h1.961A2.885,2.885,0,0,0,52.738,197Zm18.526-.852a.853.853,0,0,1-.852.852H66.682a.852.852,0,1,1,0-1.7h3.731A.853.853,0,0,1,71.265,196.149ZM44.3,195.3h3.731a.852.852,0,1,1,0,1.7H44.3a.852.852,0,0,1,0-1.7Z" transform="translate(-35.821 -167.156)"/>
      </g>
    </g>
  </g>
</svg>
