<svg xmlns="http://www.w3.org/2000/svg" xmlns:xlink="http://www.w3.org/1999/xlink" width="106.255" height="106.255" viewBox="0 0 106.255 106.255">
  <defs>
    <filter id="Trazado_830968" x="0" y="0" width="106.255" height="106.255" filterUnits="userSpaceOnUse">
      <feOffset dy="3" input="SourceAlpha"/>
      <feGaussianBlur stdDeviation="3" result="blur"/>
      <feFlood flood-opacity="0.161"/>
      <feComposite operator="in" in2="blur"/>
      <feComposite in="SourceGraphic"/>
    </filter>
  </defs>
  <g id="Grupo_1088166" data-name="Grupo 1088166" transform="translate(7.361 6)">
    <g transform="matrix(1, 0, 0, 1, -7.36, -6)" filter="url(#Trazado_830968)">
      <path id="Trazado_830968-2" data-name="Trazado 830968" d="M44.128,0A44.128,44.128,0,1,1,0,44.128,44.128,44.128,0,0,1,44.128,0Z" transform="translate(9 6)" fill="#fff"/>
    </g>
    <g id="analisis-de-mercado_1_" data-name="analisis-de-mercado (1)" transform="translate(0 0)">
      <circle id="Elipse_10567" data-name="Elipse 10567" cx="4.517" cy="4.517" r="4.517" transform="translate(23.261 18.12)" fill="#f87023"/>
      <circle id="Elipse_10568" data-name="Elipse 10568" cx="4.517" cy="4.517" r="4.517" transform="translate(55.169 18.12)" fill="#f8af23"/>
      <path id="Trazado_827237" data-name="Trazado 827237" d="M109.537,159.208H61.406v-6.525A19.494,19.494,0,0,1,80.9,133.189h8.352a19.494,19.494,0,0,1,19.494,19.494Z" transform="translate(-41.344 -88.28)" fill="#63bce7"/>
      <path id="Trazado_827238" data-name="Trazado 827238" d="M87.586,133.189H80.9a19.494,19.494,0,0,0-19.494,19.494v6.525h6.685v-6.525a19.494,19.494,0,0,1,19.494-19.494Z" transform="translate(-41.345 -88.28)" fill="#6377e7"/>
      <rect id="Rectángulo_380968" data-name="Rectángulo 380968" width="9.757" height="19.304" rx="4.879" transform="translate(38.854 31.898)" fill="#f8af23"/>
      <path id="Trazado_827239" data-name="Trazado 827239" d="M113.406,102.143v9.547a4.9,4.9,0,0,0,4.223,4.834V97.309A4.9,4.9,0,0,0,113.406,102.143Z" transform="translate(-74.552 -65.367)" fill="#f87023"/>
      <rect id="Rectángulo_380969" data-name="Rectángulo 380969" width="31.907" height="39.778" rx="15.954" transform="translate(27.779 1.911)" fill="#f8af23"/>
      <path id="Trazado_827240" data-name="Trazado 827240" d="M89.444,38.031V30.16a16.014,16.014,0,0,1,12.612-15.6,15.939,15.939,0,0,0-19.3,15.6v7.871a15.938,15.938,0,0,0,19.3,15.6,16.014,16.014,0,0,1-12.611-15.6Z" transform="translate(-54.98 -12.295)" fill="#f87023"/>
      <path id="Trazado_827241" data-name="Trazado 827241" d="M108.909,128.571l4.879,6.357-5.285,2.846-2.138-8.946,2.545-2.889Z" transform="translate(-70.055 -83.65)" fill="#f46275"/>
      <path id="Trazado_827242" data-name="Trazado 827242" d="M131.785,128.571l-4.879,6.357,5.285,2.846,2.139-8.946-2.545-2.889Z" transform="translate(-83.174 -83.65)" fill="#f46275"/>
      <path id="Trazado_827243" data-name="Trazado 827243" d="M112.9,80.57a1,1,0,1,1-2.008,0V79.16a1,1,0,1,1,2.008,0Z" transform="translate(-72.946 -53.135)" fill="#3f3679"/>
      <path id="Trazado_827244" data-name="Trazado 827244" d="M112.013,10.421a8.069,8.069,0,0,0-6.288,3,15.8,15.8,0,0,0-7.011-1.636A16,16,0,0,0,82.759,27.742v3.534h2.628V29.145a7.429,7.429,0,0,0,5.37-7.215s6.769,6.009,18.968,4.332a8.086,8.086,0,1,0,2.288-15.841Z" transform="translate(-54.98 -9.878)" fill="#9e9e9e"/>
      <path id="Trazado_827245" data-name="Trazado 827245" d="M102.047,14.561a15.817,15.817,0,0,0-3.334-.361A16,16,0,0,0,82.759,30.156V33.69h2.628V31.558a7.818,7.818,0,0,0,4.138-2.994,16.031,16.031,0,0,1,12.522-14Z" transform="translate(-54.98 -12.291)" fill="#707070"/>
      <path id="Trazado_827246" data-name="Trazado 827246" d="M0,0H10.119V3.508H0Z" transform="matrix(0.941, -0.338, 0.338, 0.941, 54.312, 40.543)" fill="#f8af23"/>
      <path id="Trazado_827247" data-name="Trazado 827247" d="M0,0H10.119V25.176A5.059,5.059,0,1,1,0,25.176V0Z" transform="matrix(0.941, -0.338, 0.338, 0.941, 55.496, 43.843)" fill="#63bce7"/>
      <path id="Trazado_827248" data-name="Trazado 827248" d="M0,0H10.119V2.982H0Z" transform="matrix(0.941, -0.338, 0.338, 0.941, 55.497, 43.844)" fill="#f46275"/>
      <circle id="Elipse_10569" data-name="Elipse 10569" cx="6.077" cy="6.077" r="6.077" transform="translate(41.951 22.056) rotate(-31.671)" fill="#9e9e9e"/>
      <rect id="Rectángulo_380970" data-name="Rectángulo 380970" width="3.797" height="10.412" rx="1.898" transform="translate(53.074 32.13) rotate(-31.671)" fill="#f46275"/>
      <path id="Trazado_827249" data-name="Trazado 827249" d="M2.02,0H4.194a1,1,0,0,1,1,1V7.944a1,1,0,0,1-1,1H2.02A2.02,2.02,0,0,1,0,6.924V2.02A2.02,2.02,0,0,1,2.02,0Z" transform="translate(55.439 34.94) rotate(-53.909)" fill="#f8af23"/>
      <path id="Trazado_827250" data-name="Trazado 827250" d="M155.3,111.9l-2.067-3.212a1.807,1.807,0,0,1-.264-1.268l.447-2.743a1.807,1.807,0,0,1,.89-1.28l3.1-1.761a1.291,1.291,0,0,1,1.306,2.226l-3.12,1.889a8.978,8.978,0,0,1,3.708,4.717Z" transform="translate(-99.804 -68.022)" fill="#f8af23"/>
      <path id="Trazado_827251" data-name="Trazado 827251" d="M145.371,80.57a1,1,0,1,1-2.009,0V79.16a1,1,0,1,1,2.009,0Z" transform="translate(-93.683 -53.135)" fill="#3f3679"/>
      <path id="Trazado_827252" data-name="Trazado 827252" d="M104.892,224.277v1.029a2.428,2.428,0,0,1-2.421,2.421H47.076a2.428,2.428,0,0,1-2.421-2.421v-1.029Z" transform="translate(-30.646 -146.451)" fill="#6377e7"/>
      <path id="Trazado_827253" data-name="Trazado 827253" d="M55.816,145.033h52.171V177.12H55.816Z" transform="translate(-37.774 -95.844)" fill="#63bce7"/>
      <path id="Trazado_827254" data-name="Trazado 827254" d="M55.816,145.033H62.5V177.12H55.816Z" transform="translate(-37.774 -95.844)" fill="#6377e7"/>
      <path id="Trazado_827255" data-name="Trazado 827255" d="M181.684,145.033h6.685V177.12h-6.685Z" transform="translate(-118.156 -95.844)" fill="#63e2e7"/>
      <circle id="Elipse_10570" data-name="Elipse 10570" cx="4.176" cy="4.176" r="4.176" transform="translate(39.953 61.057)" fill="#9e9e9e"/>
      <path id="Trazado_827256" data-name="Trazado 827256" d="M20.508,92.068V104.9H37.072V92.068L28.79,87.927Z" transform="translate(-15.225 -59.375)" fill="#f46275"/>
      <path id="Trazado_827257" data-name="Trazado 827257" d="M34.162,85.2l-9.793-4.9a1.325,1.325,0,0,0-1.185,0l-9.8,4.9a1.325,1.325,0,1,0,1.185,2.37l.788-.394,8.414-4.207,8.414,4.207.789.394a1.325,1.325,0,1,0,1.185-2.37Z" transform="translate(-10.21 -54.415)" fill="#63bce7"/>
      <path id="Trazado_827258" data-name="Trazado 827258" d="M197.508,107.876h3.809v9.769h-3.809Z" transform="translate(-128.262 -72.115)" fill="#f8af23"/>
      <path id="Trazado_827259" data-name="Trazado 827259" d="M215.157,98.468h3.809v13.169h-3.809Z" transform="translate(-139.533 -66.107)" fill="#63bce7"/>
      <path id="Trazado_827260" data-name="Trazado 827260" d="M232.806,89.06h3.809v16.568h-3.809Z" transform="translate(-150.804 -60.099)" fill="#f8af23"/>
      <path id="Trazado_827261" data-name="Trazado 827261" d="M39.155,113.888H33.011l-1.084-5.248h8.312Z" transform="translate(-22.518 -72.603)" fill="#f8af23"/>
      <rect id="Rectángulo_380971" data-name="Rectángulo 380971" width="2.055" height="5.24" rx="1.028" transform="translate(12.537 32.529)" fill="#63bce7"/>
      <circle id="Elipse_10571" data-name="Elipse 10571" cx="5.524" cy="5.524" r="5.524" transform="translate(72.004 17.463)" fill="#f8af23"/>
      <g id="Grupo_1079681" data-name="Grupo 1079681">
        <path id="Trazado_827262" data-name="Trazado 827262" d="M45.059,36.593A16.535,16.535,0,0,0,56.016,50.23V51L53.732,53.6a20.031,20.031,0,0,0-8.848,3.969H35.747a.542.542,0,0,0-.542.542V86.2H31.713a.542.542,0,0,0-.542.542v1.029a2.949,2.949,0,0,0,.674,1.879H24.932a.542.542,0,1,0,0,1.084h73.8a.542.542,0,1,0,0-1.084H91.819a2.949,2.949,0,0,0,.674-1.879V86.743a.542.542,0,0,0-.542-.542H88.46V80.014a5.606,5.606,0,0,0,3.277-7.119l-3.257-9.081a.422.422,0,0,0-.02-.041V58.106a.542.542,0,0,0-.542-.542h-1.68L84.242,52,83.236,49.2l-.748-2.084.79-1.084a1.542,1.542,0,0,0-.339-2.155l-5.611-4.088a1.558,1.558,0,0,0-.185-.108,16.286,16.286,0,0,0,.673-3.084,5.055,5.055,0,0,0,.111-10.064q-.008-.476-.042-.952A8.627,8.627,0,1,0,68.308,11.8a16.234,16.234,0,0,0-6.87-1.509,16.512,16.512,0,0,0-16.49,16.242,5.055,5.055,0,0,0,.111,10.064ZM61.437,51.149a16.41,16.41,0,0,0,4.336-.581v3.087l-3,3.909H60.1l-3-3.909V50.566a16.45,16.45,0,0,0,4.334.583Zm9.241-1.272,2.033,3.158.647,1.8a19.9,19.9,0,0,0-4.216-1.244L66.857,51v-.773a16.392,16.392,0,0,0,3.457-1.692,2.34,2.34,0,0,0,.364,1.342Zm.25-12.2a5.521,5.521,0,1,1,1.9-7.576,5.521,5.521,0,0,1-1.9,7.576Zm1.757,2.85a1.361,1.361,0,0,1,1.868.441l0,0-.662.91a2.563,2.563,0,0,0-.451,1.086l-.624.355-.574-.931a1.358,1.358,0,0,1,.442-1.866Zm-.21,4.239L75.572,43a.749.749,0,1,1,.759,1.29l-3.12,1.889a.542.542,0,0,0,.022.94,8.442,8.442,0,0,1,3.258,3.918l-3.066,1.1-1.835-2.848A1.265,1.265,0,0,1,71.4,48.4l.447-2.744a1.26,1.26,0,0,1,.624-.9ZM81.7,48.124l.333.927-4.521,1.622a10.372,10.372,0,0,0-.447-.936,2.391,2.391,0,0,0,1.855-1.112,2.53,2.53,0,0,0,1,.214,2.6,2.6,0,0,0,.4-.032,2.544,2.544,0,0,0,1.375-.682ZM66.747,54.169a.542.542,0,0,0,.112-.33v-1.2l1.409,1.6-.8,3.321H64.139Zm2.523.554a18.81,18.81,0,0,1,4.6,1.534l.47,1.307H68.59Zm4.626-1.6,2.539-.911,5.965-2.14.641,1.786-8.5,3.05Zm3.686-4.659a1.35,1.35,0,0,1-1.277.074,9.518,9.518,0,0,0-1.811-1.867l.886-.537L78,48.046a1.337,1.337,0,0,1-.422.418ZM56.016,52.642v1.2a.542.542,0,0,0,.112.33l2.606,3.4H55.4l-.8-3.321Zm-2.409,2.086.678,2.836H46.74a18.932,18.932,0,0,1,6.867-2.837ZM32.255,87.772v-.487H35.2v2.366h-1.07a1.879,1.879,0,0,1-1.879-1.878Zm59.153-.487v.487a1.879,1.879,0,0,1-1.879,1.879h-1.07V87.286ZM90.715,73.26a4.522,4.522,0,0,1-2.256,5.575V66.97Zm-3.34,16.392H36.289v-31H87.376ZM75.486,57.564,74.9,55.929l8.5-3.05,1.68,4.685ZM82.3,44.75a.458.458,0,0,1,.1.64l-1.28,1.757a1.478,1.478,0,0,1-2.065.325l-2.671-1.945.506-.306a1.831,1.831,0,0,0-1.75-3.213l.907-1.246a.458.458,0,0,1,.64-.1Zm-.936-13.195a3.978,3.978,0,0,1-3.457,3.939c.014-.279.023-.558.023-.839V27.617a3.962,3.962,0,0,1,3.435,3.938Zm-4.517-4.772v7.871a15.261,15.261,0,0,1-.8,4.889,1.522,1.522,0,0,0-.82.522,2.439,2.439,0,0,0-2.614-.693l-.665-1.08a6.616,6.616,0,1,0-9.921-2.54v3.873a.542.542,0,0,0,.542.542l.023,0a1.134,1.134,0,1,1-.023,2.268.542.542,0,1,0,0,1.084,2.218,2.218,0,0,0,.542-4.369V37.392A6.567,6.567,0,0,0,66.5,39.4a6.652,6.652,0,0,0,1.539.181,6.554,6.554,0,0,0,2.988-.723l.665,1.078a2.443,2.443,0,0,0-.368,3.02l.556.9a2.335,2.335,0,0,0-1.094,1.624l-.26,1.6-.015.009a15.253,15.253,0,0,1-9.071,2.972A15.429,15.429,0,0,1,46.026,34.654V30.859h2.085a.542.542,0,0,0,.542-.542v-1.74a7.97,7.97,0,0,0,5.305-6.555c2.178,1.541,8.513,5.162,18.45,3.831a8.625,8.625,0,0,0,4.413.064c.016.29.027.579.027.866Zm-30.823,0A15.429,15.429,0,0,1,61.435,11.371a15.173,15.173,0,0,1,6.772,1.58.542.542,0,0,0,.661-.145A7.543,7.543,0,1,1,72.6,24.783a.548.548,0,0,0-.227-.017c-11.786,1.621-18.466-4.143-18.534-4.2a.542.542,0,0,0-.9.4,6.838,6.838,0,0,1-4.961,6.694.542.542,0,0,0-.409.525v1.59H46.026V26.783Zm-1.084.835v7.036q0,.422.021.838a3.973,3.973,0,0,1-.021-7.875Z" transform="translate(-17.705 -8.918)" fill="#3f3679"/>
        <path id="Trazado_827263" data-name="Trazado 827263" d="M119,106.971a2.31,2.31,0,0,1-.68-1.643.542.542,0,0,0-1.084,0,3.408,3.408,0,0,0,5.816,2.409.542.542,0,1,0-.767-.767,2.327,2.327,0,0,1-3.286,0Z" transform="translate(-77 -70.142)" fill="#3f3679"/>
        <path id="Trazado_827264" data-name="Trazado 827264" d="M111.737,71.395a.542.542,0,0,0-.117-.759,3.944,3.944,0,0,0-3.058-.735,3.549,3.549,0,0,0-2.344,1.511.542.542,0,1,0,.908.593,2.461,2.461,0,0,1,1.631-1.037,2.869,2.869,0,0,1,2.223.542A.542.542,0,0,0,111.737,71.395Z" transform="translate(-69.905 -47.825)" fill="#3f3679"/>
        <path id="Trazado_827265" data-name="Trazado 827265" d="M142.54,70.639a3.947,3.947,0,0,0-3.058-.735,3.549,3.549,0,0,0-2.345,1.511.542.542,0,0,0,.908.593,2.462,2.462,0,0,1,1.632-1.037,2.869,2.869,0,0,1,2.223.542.542.542,0,0,0,.64-.875Z" transform="translate(-89.652 -47.827)" fill="#3f3679"/>
        <path id="Trazado_827266" data-name="Trazado 827266" d="M13.118,244.079H6.432a.542.542,0,1,0,0,1.084h6.685a.542.542,0,1,0,0-1.084Z" transform="translate(-5.89 -159.097)" fill="#3f3679"/>
        <path id="Trazado_827267" data-name="Trazado 827267" d="M235.838,244.079h-6.685a.542.542,0,1,0,0,1.084h6.685a.542.542,0,1,0,0-1.084Z" transform="translate(-148.124 -159.097)" fill="#3f3679"/>
        <path id="Trazado_827268" data-name="Trazado 827268" d="M102.828,244.079H39.705a.542.542,0,1,0,0,1.084h63.123a.542.542,0,1,0,0-1.084Z" transform="translate(-27.139 -159.097)" fill="#3f3679"/>
        <path id="Trazado_827269" data-name="Trazado 827269" d="M6.432,233.408H9.3a.542.542,0,1,0,0-1.084H6.432a.542.542,0,1,0,0,1.084Z" transform="translate(-5.89 -151.59)" fill="#3f3679"/>
        <path id="Trazado_827270" data-name="Trazado 827270" d="M239.167,232.866a.542.542,0,0,0,.542.542h2.87a.542.542,0,1,0,0-1.084h-2.87A.542.542,0,0,0,239.167,232.866Z" transform="translate(-154.866 -151.59)" fill="#3f3679"/>
        <path id="Trazado_827271" data-name="Trazado 827271" d="M119.662,185.809a4.718,4.718,0,1,0-4.718-4.718A4.718,4.718,0,0,0,119.662,185.809Zm0-8.351a3.634,3.634,0,1,1-3.634,3.634A3.634,3.634,0,0,1,119.662,177.458Z" transform="translate(-75.535 -115.859)" fill="#3f3679"/>
        <path id="Trazado_827272" data-name="Trazado 827272" d="M12.435,87.2a1.856,1.856,0,0,0,1.425-.1L14,87.03V98.99a.542.542,0,0,0,.542.542H31.1a.542.542,0,0,0,.542-.542V87.03l.135.068a1.867,1.867,0,1,0,1.67-3.339l-9.8-4.9a1.879,1.879,0,0,0-1.67,0l-9.793,4.9a1.867,1.867,0,0,0,.245,3.441Zm18.126-.711V98.447H15.08V86.488l7.74-3.871Zm-17.885-1.76,9.793-4.9a.789.789,0,0,1,.7,0l9.8,4.9a.782.782,0,0,1,.35,1.051.793.793,0,0,1-1.05.35l-9.2-4.6a.542.542,0,0,0-.485,0l-9.2,4.6a.783.783,0,0,1-.7-1.4Z" transform="translate(-9.255 -53.46)" fill="#3f3679"/>
        <path id="Trazado_827273" data-name="Trazado 827273" d="M196.55,117.228h3.809a.542.542,0,0,0,.542-.542v-9.768a.542.542,0,0,0-.542-.542H196.55a.542.542,0,0,0-.542.542v9.768a.542.542,0,0,0,.542.542Zm.542-9.768h2.724v8.684h-2.724Z" transform="translate(-127.304 -71.157)" fill="#3f3679"/>
        <path id="Trazado_827274" data-name="Trazado 827274" d="M214.2,96.968a.542.542,0,0,0-.542.542v13.168a.542.542,0,0,0,.542.542h3.81a.542.542,0,0,0,.542-.542V97.51a.542.542,0,0,0-.542-.542Zm3.266,13.168h-2.724V98.052h2.726Z" transform="translate(-138.575 -65.149)" fill="#3f3679"/>
        <path id="Trazado_827275" data-name="Trazado 827275" d="M231.306,88.1v16.568a.542.542,0,0,0,.542.542h3.809a.542.542,0,0,0,.542-.542V88.1a.542.542,0,0,0-.542-.542h-3.809a.542.542,0,0,0-.542.542Zm1.084.542h2.725v15.484H232.39Z" transform="translate(-149.846 -59.141)" fill="#3f3679"/>
        <path id="Trazado_827276" data-name="Trazado 827276" d="M31.523,106.843a.542.542,0,0,0,.531.434H38.2a.542.542,0,0,0,.531-.434l1.084-5.248a.542.542,0,0,0-.531-.65H36.7V99.007a1.57,1.57,0,1,0-3.139,0v1.938H30.969a.542.542,0,0,0-.531.65Zm3.117-7.838a.486.486,0,1,1,.971,0v3.185a.486.486,0,1,1-.971,0Zm-1.084,3.022v.162a1.57,1.57,0,1,0,3.14,0v-.162h1.92l-.86,4.163H32.495l-.86-4.163Z" transform="translate(-21.56 -65.448)" fill="#3f3679"/>
        <path id="Trazado_827277" data-name="Trazado 827277" d="M209.707,67.872a6.066,6.066,0,1,0-6.066-6.066A6.066,6.066,0,0,0,209.707,67.872Zm0-11.048a4.982,4.982,0,1,1-4.982,4.982,4.982,4.982,0,0,1,4.982-4.982Z" transform="translate(-132.179 -38.82)" fill="#3f3679"/>
        <path id="Trazado_827278" data-name="Trazado 827278" d="M218.254,64.774V66.7a.528.528,0,0,1-.168.39.552.552,0,0,1-.4.165h-1.692v1.354a.53.53,0,0,1-.165.393.539.539,0,0,1-.39.162.554.554,0,0,1-.4-.162.53.53,0,0,1-.165-.393V67.238h-1.678a.538.538,0,0,1-.39-.162.53.53,0,0,1-.165-.393.553.553,0,0,1,.555-.555h3.925v-.8h-3.912a.542.542,0,0,1-.393-.159.532.532,0,0,1-.162-.4V62.857a.553.553,0,0,1,.555-.555h1.665V60.948a.548.548,0,0,1,.575-.555.528.528,0,0,1,.387.162.536.536,0,0,1,.162.393V62.3h1.7a.552.552,0,0,1,.4.165.528.528,0,0,1,.168.39.576.576,0,0,1-.568.568h-3.925v.793h3.912a.552.552,0,0,1,.4.165.528.528,0,0,1,.168.39Z" transform="translate(-137.924 -41.791)" fill="#3f3679"/>
      </g>
    </g>
  </g>
</svg>
