<svg xmlns="http://www.w3.org/2000/svg" width="83.515" height="74.196" viewBox="0 0 83.515 74.196">
  <g id="_x32_3_Graph" transform="translate(-13.935 -23.057)">
    <g id="Grupo_1082358" data-name="Grupo 1082358" transform="translate(13.935 23.057)">
      <path id="Trazado_827992" data-name="Trazado 827992" d="M117.256,358.138v18.5a2.069,2.069,0,0,1-2.069,2.069H106a2.069,2.069,0,0,1-2.069-2.069v-18.5A2.069,2.069,0,0,1,106,356.069h9.188A2.068,2.068,0,0,1,117.256,358.138Z" transform="translate(-97.719 -311.164)" fill="#4955a1"/>
      <path id="Trazado_827993" data-name="Trazado 827993" d="M117.25,358.138v18.5a2.07,2.07,0,0,1-2.069,2.069h-9.192a2.07,2.07,0,0,1-2.069-2.069v-.207a11.253,11.253,0,0,0,9.441-11.1v-9.255h1.821A2.07,2.07,0,0,1,117.25,358.138Z" transform="translate(-97.71 -311.164)" opacity="0.1"/>
      <path id="Trazado_827994" data-name="Trazado 827994" d="M218.375,257.953v37.573a2.069,2.069,0,0,1-2.069,2.069h-9.188a2.069,2.069,0,0,1-2.069-2.069V257.953a2.069,2.069,0,0,1,2.069-2.069h9.188A2.069,2.069,0,0,1,218.375,257.953Z" transform="translate(-179.582 -230.056)" fill="#f78721"/>
      <path id="Trazado_827995" data-name="Trazado 827995" d="M218.368,257.952v37.573a2.07,2.07,0,0,1-2.069,2.069h-9.192a2.07,2.07,0,0,1-2.069-2.069v-.207a11.253,11.253,0,0,0,9.441-11.1V255.883H216.3A2.07,2.07,0,0,1,218.368,257.952Z" transform="translate(-179.573 -230.055)" opacity="0.1"/>
      <path id="Trazado_827996" data-name="Trazado 827996" d="M420.608,230.732v42.756a2.069,2.069,0,0,1-2.069,2.069h-9.188a2.069,2.069,0,0,1-2.069-2.069V230.732a2.069,2.069,0,0,1,2.069-2.069h9.188A2.069,2.069,0,0,1,420.608,230.732Z" transform="translate(-343.306 -208.018)" fill="#e77c6a"/>
      <path id="Trazado_827997" data-name="Trazado 827997" d="M420.6,230.732v42.756a2.07,2.07,0,0,1-2.069,2.069h-9.192a2.07,2.07,0,0,1-2.069-2.069v-.207a11.253,11.253,0,0,0,9.441-11.1V228.663h1.821A2.07,2.07,0,0,1,420.6,230.732Z" transform="translate(-343.297 -208.018)" opacity="0.1"/>
      <path id="Trazado_827998" data-name="Trazado 827998" d="M319.493,324.743V349.6a2.069,2.069,0,0,1-2.069,2.069h-9.188a2.069,2.069,0,0,1-2.069-2.069V324.743a2.069,2.069,0,0,1,2.069-2.069h9.188A2.069,2.069,0,0,1,319.493,324.743Z" transform="translate(-261.445 -284.128)" fill="#0e9c4a"/>
      <path id="Trazado_827999" data-name="Trazado 827999" d="M319.486,324.743V349.6a2.07,2.07,0,0,1-2.069,2.069h-9.192a2.07,2.07,0,0,1-2.069-2.069v-.207a11.253,11.253,0,0,0,9.441-11.1V322.674h1.821A2.07,2.07,0,0,1,319.486,324.743Z" transform="translate(-261.436 -284.128)" opacity="0.1"/>
      <g id="Grupo_1082356" data-name="Grupo 1082356" transform="translate(6.98 1.007)">
        <path id="Trazado_828000" data-name="Trazado 828000" d="M119.751,251.084a5.9,5.9,0,1,1-5.9-5.888A5.9,5.9,0,0,1,119.751,251.084Z" transform="translate(-107.96 -222.41)" fill="#e8f1f8"/>
        <path id="Trazado_828001" data-name="Trazado 828001" d="M220.869,152.542a5.9,5.9,0,1,1-5.9-5.888A5.9,5.9,0,0,1,220.869,152.542Z" transform="translate(-189.823 -142.633)" fill="#e8f1f8"/>
        <path id="Trazado_828002" data-name="Trazado 828002" d="M321.987,231.582a5.9,5.9,0,1,1-5.9-5.888A5.9,5.9,0,0,1,321.987,231.582Z" transform="translate(-271.686 -206.622)" fill="#e8f1f8"/>
        <path id="Trazado_828003" data-name="Trazado 828003" d="M423.1,131.425a5.9,5.9,0,1,1-5.9-5.888A5.9,5.9,0,0,1,423.1,131.425Z" transform="translate(-353.548 -125.537)" fill="#e8f1f8"/>
      </g>
      <g id="Grupo_1082357" data-name="Grupo 1082357" transform="translate(0 0)">
        <path id="Trazado_828007" data-name="Trazado 828007" d="M153.815,499.311h-81.5a1.007,1.007,0,1,0,0,2.014h81.5a1.007,1.007,0,1,0,0-2.014Z" transform="translate(-71.307 -427.129)"/>
        <path id="Trazado_828012" data-name="Trazado 828012" d="M313.14,317.383h-9.188a3.08,3.08,0,0,0-3.076,3.076v24.855a3.079,3.079,0,0,0,3.076,3.076h9.188a3.08,3.08,0,0,0,3.077-3.076V320.459a3.08,3.08,0,0,0-3.077-3.076Zm1.062,27.931a1.063,1.063,0,0,1-1.062,1.061h-9.188a1.062,1.062,0,0,1-1.061-1.061V320.459a1.063,1.063,0,0,1,1.061-1.062h9.188a1.063,1.063,0,0,1,1.062,1.062Z" transform="translate(-257.162 -279.844)"/>
        <path id="Trazado_828013" data-name="Trazado 828013" d="M202.835,250.594a3.079,3.079,0,0,0-3.076,3.076v37.574a3.079,3.079,0,0,0,3.076,3.076h9.188a3.079,3.079,0,0,0,3.076-3.076V253.67a3.079,3.079,0,0,0-3.076-3.076h-9.188Zm10.249,3.076v37.574a1.062,1.062,0,0,1-1.061,1.061h-9.188a1.062,1.062,0,0,1-1.061-1.061V253.67a1.062,1.062,0,0,1,1.061-1.061h9.188A1.062,1.062,0,0,1,213.084,253.67Z" transform="translate(-175.299 -225.773)"/>
        <path id="Trazado_828016" data-name="Trazado 828016" d="M121.925,131.163a6.876,6.876,0,0,0,1.317,4.045l-9.489,9.247a6.913,6.913,0,1,0,1.407,1.441l9.487-9.246a6.857,6.857,0,0,0,8.931-.489l8.507,6.65a6.9,6.9,0,0,0,5.99,10.313,6.919,6.919,0,0,0,6.911-6.911,6.837,6.837,0,0,0-1.349-4.075l9.565-9.475a6.838,6.838,0,0,0,4.128,1.389,6.931,6.931,0,1,0-5.545-2.821l-9.567,9.476a6.866,6.866,0,0,0-8.89.518l-8.507-6.65a6.9,6.9,0,1,0-12.9-3.413Zm-12.36,23.661a4.889,4.889,0,1,1,4.9-4.9A4.894,4.894,0,0,1,109.565,154.824Zm57.765-32.563a4.888,4.888,0,1,1-4.881,4.881A4.894,4.894,0,0,1,167.33,122.262Zm-19.255,19.072a4.889,4.889,0,1,1-4.881,4.88A4.894,4.894,0,0,1,148.075,141.334ZM128.82,126.283a4.888,4.888,0,1,1-4.881,4.881A4.894,4.894,0,0,1,128.82,126.283Z" transform="translate(-96.698 -120.247)"/>
        <path id="Trazado_828017" data-name="Trazado 828017" d="M414.258,223.373h-9.188A3.08,3.08,0,0,0,402,226.449v42.757a3.079,3.079,0,0,0,3.076,3.076h9.188a3.079,3.079,0,0,0,3.076-3.076V226.449A3.08,3.08,0,0,0,414.258,223.373Zm1.061,45.833a1.062,1.062,0,0,1-1.061,1.061h-9.188a1.062,1.062,0,0,1-1.061-1.061V226.449a1.063,1.063,0,0,1,1.061-1.062h9.188a1.063,1.063,0,0,1,1.061,1.062Z" transform="translate(-339.025 -203.736)"/>
        <path id="Trazado_828018" data-name="Trazado 828018" d="M110.906,350.78h-9.188a3.079,3.079,0,0,0-3.076,3.076v18.5a3.079,3.079,0,0,0,3.076,3.076h9.188a3.079,3.079,0,0,0,3.076-3.076v-18.5A3.079,3.079,0,0,0,110.906,350.78Zm1.061,21.572a1.062,1.062,0,0,1-1.061,1.061h-9.188a1.062,1.062,0,0,1-1.061-1.061v-18.5a1.062,1.062,0,0,1,1.061-1.061h9.188a1.062,1.062,0,0,1,1.061,1.061Z" transform="translate(-93.437 -306.882)"/>
      </g>
    </g>
  </g>
</svg>
