<svg xmlns="http://www.w3.org/2000/svg" xmlns:xlink="http://www.w3.org/1999/xlink" width="400" height="310" viewBox="0 0 400 310">
  <defs>
    <clipPath id="clip-path">
      <rect id="Rectángulo_381952" data-name="Rectángulo 381952" width="400" height="310" transform="translate(180 2821)" fill="#fff" opacity="0.34"/>
    </clipPath>
    <clipPath id="clip-path-2">
      <rect id="Rectángulo_377856" data-name="Rectángulo 377856" width="268.567" height="281.418" fill="#12263f" opacity="0.44"/>
    </clipPath>
    <clipPath id="clip-path-3">
      <path id="Trazado_828556" data-name="Trazado 828556" d="M7.61,9.246,321.185,0l-7.61,292.274L0,301.52Z" fill="none"/>
    </clipPath>
    <linearGradient id="linear-gradient" x1="0.5" x2="0.5" y2="1" gradientUnits="objectBoundingBox">
      <stop offset="0" stop-color="#459fff"/>
      <stop offset="1" stop-color="#a96dff"/>
    </linearGradient>
    <clipPath id="clip-path-5">
      <path id="Trazado_113810" data-name="Trazado 113810" d="M5.5,0A5.616,5.616,0,0,0,.436,2.968C-.754,5.434.574,8.274,3.4,9.312a6.235,6.235,0,0,0,2.148.38h.005a5.625,5.625,0,0,0,5.117-2.967A4.319,4.319,0,0,0,11.106,4.9V4.8A4.889,4.889,0,0,0,7.705.38,6.252,6.252,0,0,0,5.615,0Z" transform="translate(0)" fill="#fff"/>
    </clipPath>
    <linearGradient id="linear-gradient-2" x1="0.5" x2="0.5" y2="1" gradientUnits="objectBoundingBox">
      <stop offset="0" stop-color="#e1eefd"/>
      <stop offset="1" stop-color="#a96dff"/>
    </linearGradient>
    <clipPath id="clip-path-6">
      <rect id="Rectángulo_375774" data-name="Rectángulo 375774" width="306.565" height="302.089" fill="none"/>
    </clipPath>
    <clipPath id="clip-path-8">
      <rect id="Rectángulo_375764" data-name="Rectángulo 375764" width="109.528" height="45.057" fill="none"/>
    </clipPath>
    <clipPath id="clip-path-9">
      <rect id="Rectángulo_375765" data-name="Rectángulo 375765" width="79.487" height="38.687" fill="none"/>
    </clipPath>
    <clipPath id="clip-path-10">
      <rect id="Rectángulo_375766" data-name="Rectángulo 375766" width="11.749" height="2.84" fill="none"/>
    </clipPath>
    <clipPath id="clip-path-11">
      <rect id="Rectángulo_375767" data-name="Rectángulo 375767" width="41.131" height="14.51" fill="none"/>
    </clipPath>
    <clipPath id="clip-path-12">
      <rect id="Rectángulo_375770" data-name="Rectángulo 375770" width="5.112" height="53.2" fill="none"/>
    </clipPath>
  </defs>
  <g id="Enmascarar_grupo_1075495" data-name="Enmascarar grupo 1075495" transform="translate(-180 -2821)" clip-path="url(#clip-path)">
    <g id="Grupo_1082512" data-name="Grupo 1082512">
      <g id="Grupo_1082511" data-name="Grupo 1082511">
        <g id="Grupo_1082510" data-name="Grupo 1082510" transform="translate(16.996 3.14)">
          <g id="Grupo_1082441" data-name="Grupo 1082441" transform="translate(218.612 2816.895)">
            <g id="Enmascarar_grupo_1059127" data-name="Enmascarar grupo 1059127" transform="translate(0)" clip-path="url(#clip-path-2)">
              <g id="Grupo_1075114" data-name="Grupo 1075114" transform="translate(-38.878 -49.568)">
                <g id="Grupo_81613" data-name="Grupo 81613" transform="matrix(0.208, 0.978, -0.978, 0.208, 294.931, 0)">
                  <g id="Grupo_81302" data-name="Grupo 81302" transform="translate(0 0)" clip-path="url(#clip-path-3)">
                    <g id="Grupo_81301" data-name="Grupo 81301">
                      <g id="Grupo_81300" data-name="Grupo 81300" clip-path="url(#clip-path-3)">
                        <path id="Trazado_113940" data-name="Trazado 113940" d="M297.087,0,32.362,7.807a4.729,4.729,0,0,0-4.253,3.947L.118,145.763c-.627,3,1.312,5.742,4,5.662l264.725-7.806a4.729,4.729,0,0,0,4.253-3.947L301.091,5.664c.626-3-1.312-5.742-4-5.662" transform="translate(17.99 71.676)" fill="#3ece9b"/>
                        <path id="Trazado_113941" data-name="Trazado 113941" d="M107.861,0,33.034,2.206a5.48,5.48,0,0,0-4.908,4.555L.136,140.769a5.89,5.89,0,0,0,.874,4.6A4.393,4.393,0,0,0,4.755,147.3l115.119-3.394.039-1.479L4.793,145.824a3.222,3.222,0,0,1-2.747-1.419,4.319,4.319,0,0,1-.641-3.372L29.4,7.025A4.019,4.019,0,0,1,33,3.685l74.827-2.206Z" transform="translate(1.684 94.847)"/>
                        <path id="Trazado_113942" data-name="Trazado 113942" d="M111.071,0,.039,3.276,0,4.754,111.032,1.48A3.222,3.222,0,0,1,113.779,2.9a4.32,4.32,0,0,1,.641,3.372L86.429,140.28a4.018,4.018,0,0,1-3.6,3.34l-54.386,1.6-.038,1.478,54.386-1.6a5.48,5.48,0,0,0,4.908-4.555L115.69,6.536a5.889,5.889,0,0,0-.874-4.6A4.391,4.391,0,0,0,111.071,0" transform="translate(188.372 89.246)"/>
                        <path id="Trazado_113946" data-name="Trazado 113946" d="M29.091,0,27.785.109l.238,15.26L14.2,16.241l0,15.636L.4,32.75,0,48.694l1.306-.041.362-14.506,13.848-.875,0-15.636,13.841-.874Z" transform="translate(253.211 102.157)" fill="#fff"/>
                        <g id="Grupo_81936" data-name="Grupo 81936" transform="translate(14.135 244.206)">
                          <path id="Trazado_113949" data-name="Trazado 113949" d="M17.009,0a.572.572,0,0,0-.127.018L.546,4.117A.788.788,0,0,0,.009,5a.619.619,0,0,0,.751.56L17.1,1.461a.787.787,0,0,0,.537-.883A.634.634,0,0,0,17.009,0" transform="translate(0 7.227)" fill="#24135a"/>
                          <path id="Trazado_113950" data-name="Trazado 113950" d="M3.984,0a.732.732,0,0,0-.658.632L.013,19.185a.692.692,0,0,0,.509.839.711.711,0,0,0,.771-.624L4.605.847A.692.692,0,0,0,4.1.008.594.594,0,0,0,3.984,0" transform="translate(6.512 0)" fill="#24135a"/>
                        </g>
                        <g id="Grupo_81616" data-name="Grupo 81616" transform="translate(239.482 41.876)">
                          <path id="Trazado_113954" data-name="Trazado 113954" d="M17.009,0a.572.572,0,0,0-.127.018L.546,4.117A.787.787,0,0,0,.009,5a.619.619,0,0,0,.751.56L17.1,1.461a.787.787,0,0,0,.537-.883A.634.634,0,0,0,17.009,0" transform="translate(0 7.227)" fill="#333"/>
                          <path id="Trazado_113955" data-name="Trazado 113955" d="M3.984,0a.732.732,0,0,0-.658.632L.013,19.185a.692.692,0,0,0,.509.839.712.712,0,0,0,.771-.624L4.605.847A.692.692,0,0,0,4.1.008.566.566,0,0,0,3.984,0" transform="translate(6.512 0)" fill="#333"/>
                        </g>
                      </g>
                    </g>
                  </g>
                </g>
                <path id="Trazado_114050" data-name="Trazado 114050" d="M.508,3.457C-.877,6.332.669,9.641,3.963,10.851s7.086-.14,8.473-3.015S12.273,1.652,8.981.442A7.283,7.283,0,0,0,6.475,0,6.556,6.556,0,0,0,.508,3.457" transform="translate(104.601 57.809)" fill="url(#linear-gradient)"/>
              </g>
              <g id="Grupo_1075118" data-name="Grupo 1075118" transform="translate(240.531 253.648)">
                <g id="Grupo_80972" data-name="Grupo 80972" transform="translate(1.754 2.49)">
                  <g id="Grupo_80971" data-name="Grupo 80971" transform="translate(0)" clip-path="url(#clip-path-5)">
                    <path id="Trazado_828557" data-name="Trazado 828557" d="M0,0,13.231.675l.693,14.947L.693,14.947Z" transform="translate(-4.723 8.235) rotate(-67.184)" fill="#fff"/>
                  </g>
                </g>
                <path id="Trazado_113822" data-name="Trazado 113822" d="M.574,3.9c-1.564,3.246.181,6.982,3.9,8.349s8-.158,9.567-3.4S13.858,1.866,10.141.5A8.223,8.223,0,0,0,7.311,0,7.4,7.4,0,0,0,.574,3.9" transform="translate(0 0)" fill="url(#linear-gradient-2)"/>
              </g>
            </g>
          </g>
          <g id="Grupo_1082505" data-name="Grupo 1082505" transform="matrix(-0.208, 0.978, -0.978, -0.208, 291.342, 3038.526)">
            <path id="Trazado_113965" data-name="Trazado 113965" d="M11.5,24.967a.7.7,0,0,1-.6-.426L.077,1.053A.794.794,0,0,1,.191.189.584.584,0,0,1,.961.108l25.2,16.8a.813.813,0,0,1,.345.693.694.694,0,0,1-.376.626l-14.383,6.69a.568.568,0,0,1-.256.053M2.248,2.64l9.51,20.641L24.4,17.4Z" transform="translate(25.524 0)" fill="#24135a"/>
            <g id="Grupo_1082505-2" data-name="Grupo 1082505" transform="matrix(-0.914, -0.407, 0.407, -0.914, 18.469, 40.983)">
              <path id="Trazado_113956" data-name="Trazado 113956" d="M8.475,0a.584.584,0,0,0-.492.2L.147,9.427A.749.749,0,0,0,.26,10.434a.655.655,0,0,0,.959.012L9.056,1.221A.749.749,0,0,0,8.943.214.757.757,0,0,0,8.475,0" transform="translate(11.014 12.038)" fill="#24135a"/>
              <path id="Trazado_113957" data-name="Trazado 113957" d="M5.158,0a.58.58,0,0,0-.576.334L.062,9.933a.8.8,0,0,0,.337.981.615.615,0,0,0,.905-.226l4.519-9.6A.794.794,0,0,0,5.487.109.723.723,0,0,0,5.158,0" transform="translate(8.897 1.321)" fill="#24135a"/>
              <path id="Trazado_113958" data-name="Trazado 113958" d="M.639,0a.647.647,0,0,0-.1,0,.611.611,0,0,0-.522.77L2.838,14.565a.8.8,0,0,0,.812.649.611.611,0,0,0,.522-.77L1.35.651A.813.813,0,0,0,.639,0" transform="translate(0 0)" fill="#24135a"/>
            </g>
          </g>
        </g>
        <g id="Grupo_1082506" data-name="Grupo 1082506" transform="translate(218.612 2827.282)">
          <g id="Grupo_1071867" data-name="Grupo 1071867" clip-path="url(#clip-path-6)">
            <g id="Grupo_1071866" data-name="Grupo 1071866">
              <g id="Grupo_1071865" data-name="Grupo 1071865" clip-path="url(#clip-path-6)">
                <path id="Trazado_818778" data-name="Trazado 818778" d="M134.35,124.818c-.316-12.015-2.044-68.326-2.068-68.326C65.152,58.971,14.2,71.071,14.2,85.623c0,11.391,31.763,52.212,76.978,43.619v-1.448c13.3-1.438,27.825-2.456,43.169-2.976" transform="translate(-5.256 -20.904)" fill="#b5a392"/>
                <g id="Grupo_1071852" data-name="Grupo 1071852" transform="translate(18.721 64.459)" opacity="0.15">
                  <g id="Grupo_1071851" data-name="Grupo 1071851">
                    <g id="Grupo_1071850" data-name="Grupo 1071850" clip-path="url(#clip-path-8)">
                      <path id="Trazado_818779" data-name="Trazado 818779" d="M96.922,146.2v-1.448c13.052-1.411,27.294-2.415,42.323-2.943-.571-18.925-1.208-39.487-1.222-39.487-49.634,1.833-90.416,8.925-108.306,18.38,12.724,14.877,36.952,31.248,67.2,25.5" transform="translate(-29.718 -102.322)" fill="#2d2d30"/>
                    </g>
                  </g>
                </g>
                <path id="Trazado_818780" data-name="Trazado 818780" d="M149.875,81.761H111.143a1.58,1.58,0,0,1-1.579-1.58V31.759a1.58,1.58,0,0,1,1.579-1.58h38.731a1.58,1.58,0,0,1,1.58,1.58V80.181a1.58,1.58,0,0,1-1.58,1.58" transform="translate(-40.543 -11.167)" fill="#111"/>
                <path id="Trazado_818781" data-name="Trazado 818781" d="M152.474,47.652V39.7a7.956,7.956,0,1,0,7.956,7.956Z" transform="translate(-53.477 -14.689)" fill="#f6eee3"/>
                <path id="Trazado_818782" data-name="Trazado 818782" d="M166.338,44.943a6.8,6.8,0,0,0-6.8-6.8v6.8Z" transform="translate(-59.036 -14.115)" fill="#949af8"/>
                <path id="Trazado_818783" data-name="Trazado 818783" d="M130.489,42.713H117.718a.315.315,0,0,1,0-.63h12.771a.315.315,0,1,1,0,.63" transform="translate(-43.444 -15.572)" fill="#f6eee3"/>
                <path id="Trazado_818784" data-name="Trazado 818784" d="M153.749,99.648H143.092a.315.315,0,0,1,0-.63h10.657a.315.315,0,1,1,0,.63" transform="translate(-52.833 -36.64)" fill="#f6eee3"/>
                <path id="Trazado_818785" data-name="Trazado 818785" d="M129.171,55.11H117.718a.315.315,0,0,1,0-.63h11.453a.315.315,0,0,1,0,.63" transform="translate(-43.444 -20.16)" fill="#f6eee3"/>
                <path id="Trazado_818786" data-name="Trazado 818786" d="M132.356,65.086H117.718a.315.315,0,0,1,0-.63h14.638a.315.315,0,0,1,0,.63" transform="translate(-43.444 -23.851)" fill="#f6eee3"/>
                <path id="Trazado_818787" data-name="Trazado 818787" d="M144.36,75.162H117.718a.315.315,0,0,1,0-.63H144.36a.315.315,0,1,1,0,.63" transform="translate(-43.444 -27.58)" fill="#f6eee3"/>
                <path id="Trazado_818788" data-name="Trazado 818788" d="M144.36,86.053H117.718a.315.315,0,0,1,0-.63H144.36a.315.315,0,1,1,0,.63" transform="translate(-43.444 -31.61)" fill="#f6eee3"/>
                <path id="Trazado_818789" data-name="Trazado 818789" d="M74.294,117.451a.944.944,0,0,1-.654-1.627l29.935-28.69a1.207,1.207,0,0,1,1.828.184l6.277,9.084,23.288-29.9a1.207,1.207,0,0,1,2.081.317l3.937,10.492,22.143-27.212a.945.945,0,1,1,1.466,1.194L141.7,79.422a1.206,1.206,0,0,1-2.066-.339L135.708,68.62,112.6,98.3a1.24,1.24,0,0,1-.987.465,1.213,1.213,0,0,1-.958-.521L104.3,89.053,74.948,117.188a.941.941,0,0,1-.654.263" transform="translate(-27.142 -18.408)" fill="#5c69ab"/>
                <path id="Trazado_818790" data-name="Trazado 818790" d="M213.092,57.005a.864.864,0,0,1-.113-.007.944.944,0,0,1-.826-1.05l.823-6.881-6.669,2.188a.945.945,0,1,1-.589-1.8l7.688-2.521a1.206,1.206,0,0,1,1.574,1.29l-.951,7.945a.944.944,0,0,1-.937.833" transform="translate(-75.883 -17.346)" fill="#5c69ab"/>
                <path id="Trazado_818791" data-name="Trazado 818791" d="M112.054,110.869H86.531a1.739,1.739,0,0,1-1.739-1.74V86.847a1.739,1.739,0,0,1,1.739-1.739h25.523a1.74,1.74,0,0,1,1.74,1.739v22.282a1.74,1.74,0,0,1-1.74,1.74" transform="translate(-31.376 -31.493)" fill="#5c69ab"/>
                <path id="Trazado_818792" data-name="Trazado 818792" d="M111.869,111H86.346a2.057,2.057,0,0,1-2.055-2.054V86.663a2.057,2.057,0,0,1,2.055-2.055h25.523a2.057,2.057,0,0,1,2.054,2.055v22.282A2.057,2.057,0,0,1,111.869,111M86.346,85.238a1.427,1.427,0,0,0-1.425,1.425v22.282a1.426,1.426,0,0,0,1.425,1.424h25.523a1.426,1.426,0,0,0,1.424-1.424V86.663a1.426,1.426,0,0,0-1.424-1.425Z" transform="translate(-31.191 -31.308)" fill="#5c69ab"/>
                <path id="Trazado_818793" data-name="Trazado 818793" d="M110.861,107.177H94.274a.954.954,0,0,1-.954-.954V95.033a.954.954,0,0,1,.954-.954h16.587a.954.954,0,0,1,.954.954v11.19a.954.954,0,0,1-.954.954" transform="translate(-34.532 -34.813)" fill="#f6eee3"/>
                <path id="Trazado_818794" data-name="Trazado 818794" d="M93.136,111.3a.315.315,0,0,1-.2-.556l9.008-7.54a.314.314,0,0,1,.4,0l9.248,7.452a.315.315,0,0,1-.4.491l-9.046-7.291-8.811,7.374a.31.31,0,0,1-.2.074" transform="translate(-34.347 -38.163)" fill="#5c69ab"/>
                <path id="Trazado_818795" data-name="Trazado 818795" d="M93.32,94.5l6.95,5.532a3.479,3.479,0,0,0,4.349-.011l6.959-5.595" transform="translate(-34.532 -34.942)" fill="#f6eee3"/>
                <path id="Trazado_818796" data-name="Trazado 818796" d="M102.252,100.926a3.788,3.788,0,0,1-2.364-.832l-6.95-5.532a.315.315,0,1,1,.392-.493l6.95,5.532a3.148,3.148,0,0,0,3.955-.009L111.194,94a.315.315,0,1,1,.395.491l-6.958,5.595a3.786,3.786,0,0,1-2.379.844" transform="translate(-34.347 -34.757)" fill="#5c69ab"/>
                <path id="Trazado_818797" data-name="Trazado 818797" d="M416.313,86.567c0-12.5-37.571-23.184-90.7-27.524-.215-.018-.336,49.955-.323,65.023,15.61,1.262,29.883,3.074,42.272,5.317,29.652-7.468,48.748-33.984,48.748-42.815" transform="translate(-120.371 -21.848)" fill="#b5a392"/>
                <g id="Grupo_1071855" data-name="Grupo 1071855" transform="translate(204.975 68.847)" opacity="0.15">
                  <g id="Grupo_1071854" data-name="Grupo 1071854">
                    <g id="Grupo_1071853" data-name="Grupo 1071853" clip-path="url(#clip-path-9)">
                      <path id="Trazado_818798" data-name="Trazado 818798" d="M404.865,125.2c-15.006-7.243-43.619-13-79.218-15.91-.124-.01-.217,16.482-.27,33.374,15.59,1.263,29.845,3.072,42.219,5.313,15.9-4,28.756-13.483,37.269-22.777" transform="translate(-325.377 -109.288)" fill="#2d2d30"/>
                    </g>
                  </g>
                </g>
                <path id="Trazado_818799" data-name="Trazado 818799" d="M378.16,116.562H355.586a1.579,1.579,0,0,1-1.579-1.579V92.41a1.58,1.58,0,0,1,1.579-1.581H378.16a1.581,1.581,0,0,1,1.58,1.581v22.573a1.58,1.58,0,0,1-1.58,1.579" transform="translate(-130.996 -33.61)" fill="#111"/>
                <path id="Trazado_818800" data-name="Trazado 818800" d="M371.045,113.33a.6.6,0,0,1-.418-.169.618.618,0,0,1-.189-.444V105.4H363.11a.6.6,0,0,1-.432-.184.59.59,0,0,1-.168-.433,8.247,8.247,0,1,1,8.557,8.542h-.023m-.292-8.556h.315v7.943a7.715,7.715,0,0,0,5.456-2.657,7.617,7.617,0,1,0-13.383-5.251Z" transform="translate(-134.143 -35.835)" fill="#f6eee3"/>
                <path id="Trazado_818801" data-name="Trazado 818801" d="M367.668,120.985h-.026a8.9,8.9,0,0,1-8.483-8.482.646.646,0,0,1,.182-.477.671.671,0,0,1,.479-.2h7.846a.657.657,0,0,1,.657.656v7.847a.667.667,0,0,1-.2.478.648.648,0,0,1-.452.183m-7.847-8.535-.031.026a8.267,8.267,0,0,0,7.878,7.878l.026-7.878Z" transform="translate(-132.902 -41.378)" fill="#949af8"/>
                <path id="Trazado_818802" data-name="Trazado 818802" d="M427.1,77.962H390.93a1.739,1.739,0,0,1-1.74-1.74V43.375a1.74,1.74,0,0,1,1.74-1.74H427.1a1.74,1.74,0,0,1,1.74,1.74V76.222a1.74,1.74,0,0,1-1.74,1.74" transform="translate(-144.015 -15.407)" fill="#5c69ab"/>
                <path id="Trazado_818803" data-name="Trazado 818803" d="M426.911,78.093H390.744a2.057,2.057,0,0,1-2.055-2.055V43.191a2.057,2.057,0,0,1,2.055-2.055h36.167a2.057,2.057,0,0,1,2.055,2.055V76.038a2.057,2.057,0,0,1-2.055,2.055M390.744,41.766a1.427,1.427,0,0,0-1.425,1.425V76.038a1.427,1.427,0,0,0,1.425,1.425h36.167a1.427,1.427,0,0,0,1.425-1.425V43.191a1.427,1.427,0,0,0-1.425-1.425Z" transform="translate(-143.83 -15.222)" fill="#5c69ab"/>
                <path id="Trazado_818804" data-name="Trazado 818804" d="M425.442,63.656a11.6,11.6,0,1,1-11.6-11.6,11.6,11.6,0,0,1,11.6,11.6" transform="translate(-148.847 -19.264)" fill="#f6eee3"/>
                <path id="Trazado_818805" data-name="Trazado 818805" d="M424.46,66.8h-4.3V60.022a.315.315,0,0,1,.63,0v6.149h3.673a.315.315,0,0,1,0,.63" transform="translate(-155.474 -22.094)" fill="#5c69ab"/>
                <path id="Trazado_818806" data-name="Trazado 818806" d="M336.078,103.426a8.105,8.105,0,1,1-8.105-8.105,8.105,8.105,0,0,1,8.105,8.105" transform="translate(-118.363 -35.272)" fill="#949af8"/>
                <path id="Trazado_818807" data-name="Trazado 818807" d="M330.4,106.928a.767.767,0,0,1-.543-.224l-2.893-2.893a.315.315,0,0,1,.445-.445l2.893,2.893a.138.138,0,0,0,.2,0l7.577-7.577a.315.315,0,1,1,.445.445l-7.577,7.577a.767.767,0,0,1-.543.224" transform="translate(-120.956 -36.482)" fill="#111"/>
                <path id="Trazado_818808" data-name="Trazado 818808" d="M334.954,38.375a2.223,2.223,0,0,0-2.22,2.221V55.8a2.223,2.223,0,0,0,2.22,2.22h4.058a3.176,3.176,0,0,1,3.172,3.172V64.8a1.082,1.082,0,0,0,1.846.764l6.615-6.615a3.194,3.194,0,0,1,2.243-.929h8.137a2.223,2.223,0,0,0,2.221-2.22V40.6a2.223,2.223,0,0,0-2.221-2.221Z" transform="translate(-123.124 -14.2)" fill="#949af8"/>
                <path id="Trazado_818809" data-name="Trazado 818809" d="M344.892,55.829a2.134,2.134,0,1,1,2.134-2.134,2.137,2.137,0,0,1-2.134,2.134m0-3.639a1.5,1.5,0,1,0,1.5,1.5,1.506,1.506,0,0,0-1.5-1.5" transform="translate(-126.833 -19.079)" fill="#111"/>
                <path id="Trazado_818810" data-name="Trazado 818810" d="M355.642,55.829a2.134,2.134,0,1,1,2.134-2.134,2.137,2.137,0,0,1-2.134,2.134m0-3.639a1.5,1.5,0,1,0,1.5,1.5,1.506,1.506,0,0,0-1.5-1.5" transform="translate(-130.811 -19.079)" fill="#111"/>
                <path id="Trazado_818811" data-name="Trazado 818811" d="M366.269,55.829a2.134,2.134,0,1,1,2.135-2.134,2.137,2.137,0,0,1-2.135,2.134m0-3.639a1.5,1.5,0,1,0,1.505,1.5,1.506,1.506,0,0,0-1.505-1.5" transform="translate(-134.744 -19.079)" fill="#111"/>
                <path id="Trazado_818812" data-name="Trazado 818812" d="M57.8,61.383a1.289,1.289,0,0,0-1.288,1.288v8.816A1.289,1.289,0,0,0,57.8,72.774h4.718a1.854,1.854,0,0,1,1.3.539l3.836,3.836a.627.627,0,0,0,1.07-.443V74.613a1.842,1.842,0,0,1,1.839-1.84h2.353A1.289,1.289,0,0,0,74.2,71.486V62.671a1.289,1.289,0,0,0-1.288-1.288Z" transform="translate(-20.911 -22.714)" fill="#949af8"/>
                <path id="Trazado_818813" data-name="Trazado 818813" d="M76.014,71.559a1.37,1.37,0,1,1,1.37-1.37,1.372,1.372,0,0,1-1.37,1.37m0-2.11a.74.74,0,1,0,.74.74.741.741,0,0,0-.74-.74" transform="translate(-27.621 -25.466)" fill="#111"/>
                <path id="Trazado_818814" data-name="Trazado 818814" d="M69.781,71.559a1.37,1.37,0,1,1,1.37-1.37,1.372,1.372,0,0,1-1.37,1.37m0-2.11a.74.74,0,1,0,.74.74.741.741,0,0,0-.74-.74" transform="translate(-25.314 -25.466)" fill="#111"/>
                <path id="Trazado_818815" data-name="Trazado 818815" d="M63.617,71.559a1.37,1.37,0,1,1,1.37-1.37,1.372,1.372,0,0,1-1.37,1.37m0-2.11a.74.74,0,1,0,.74.74.741.741,0,0,0-.74-.74" transform="translate(-23.034 -25.466)" fill="#111"/>
                <path id="Trazado_818816" data-name="Trazado 818816" d="M207.106,8.578a1.761,1.761,0,1,1-1.761-1.761,1.762,1.762,0,0,1,1.761,1.761" transform="translate(-75.333 -2.523)" fill="#949af8"/>
                <path id="Trazado_818817" data-name="Trazado 818817" d="M14.361,276.62a1.761,1.761,0,1,1-1.761-1.761,1.761,1.761,0,0,1,1.761,1.761" transform="translate(-4.01 -101.708)" fill="#949af8"/>
                <path id="Trazado_818818" data-name="Trazado 818818" d="M405.095,285.675a1.761,1.761,0,1,1-1.761-1.761,1.762,1.762,0,0,1,1.761,1.761" transform="translate(-148.597 -105.059)" fill="#949af8"/>
                <path id="Trazado_818819" data-name="Trazado 818819" d="M470.5,14.17a1.761,1.761,0,1,1-1.761-1.761A1.762,1.762,0,0,1,470.5,14.17" transform="translate(-172.801 -4.592)" fill="#949af8"/>
                <path id="Trazado_818820" data-name="Trazado 818820" d="M484.208,82.92a.881.881,0,1,1-.881-.881.881.881,0,0,1,.881.881" transform="translate(-178.524 -30.358)" fill="#5c69ab"/>
                <path id="Trazado_818821" data-name="Trazado 818821" d="M483.143,83.93a1.2,1.2,0,1,1,1.2-1.2,1.2,1.2,0,0,1-1.2,1.2m0-1.761a.566.566,0,1,0,.566.566.566.566,0,0,0-.566-.566" transform="translate(-178.339 -30.173)" fill="#5c69ab"/>
                <path id="Trazado_818822" data-name="Trazado 818822" d="M95.609,287.591a.881.881,0,1,1-.881-.881.881.881,0,0,1,.881.881" transform="translate(-34.727 -106.094)" fill="#5c69ab"/>
                <path id="Trazado_818823" data-name="Trazado 818823" d="M94.544,288.6a1.2,1.2,0,1,1,1.2-1.2,1.2,1.2,0,0,1-1.2,1.2m0-1.761a.566.566,0,1,0,.566.565.566.566,0,0,0-.566-.565" transform="translate(-34.542 -105.909)" fill="#5c69ab"/>
                <path id="Trazado_818824" data-name="Trazado 818824" d="M2.955,41.676A1.557,1.557,0,1,1,1.4,43.233a1.557,1.557,0,0,1,1.557-1.557" transform="translate(-0.517 -15.422)" fill="#5c69ab"/>
                <path id="Trazado_818825" data-name="Trazado 818825" d="M2.77,44.92a1.872,1.872,0,1,1,1.872-1.872A1.875,1.875,0,0,1,2.77,44.92m0-3.115a1.242,1.242,0,1,0,1.242,1.242A1.244,1.244,0,0,0,2.77,41.806" transform="translate(-0.332 -15.237)" fill="#5c69ab"/>
                <path id="Trazado_818826" data-name="Trazado 818826" d="M123.785.5a.6.6,0,1,1-.6.6.6.6,0,0,1,.6-.6" transform="translate(-45.581 -0.185)" fill="#5c69ab"/>
                <path id="Trazado_818827" data-name="Trazado 818827" d="M123.6,1.838a.919.919,0,1,1,.919-.919.92.92,0,0,1-.919.919m0-1.208a.289.289,0,1,0,.289.289A.289.289,0,0,0,123.6.63" transform="translate(-45.397 0)" fill="#5c69ab"/>
                <path id="Trazado_818828" data-name="Trazado 818828" d="M84.959,36.46a.881.881,0,1,1-.881-.881.881.881,0,0,1,.881.881" transform="translate(-30.786 -13.166)" fill="#111"/>
                <path id="Trazado_818829" data-name="Trazado 818829" d="M1.761,162.6a.881.881,0,1,1-.881-.881.881.881,0,0,1,.881.881" transform="translate(0 -59.842)" fill="#111"/>
                <path id="Trazado_818830" data-name="Trazado 818830" d="M365,2.455a.881.881,0,1,1-.881-.881.881.881,0,0,1,.881.881" transform="translate(-134.412 -0.582)" fill="#111"/>
                <path id="Trazado_818831" data-name="Trazado 818831" d="M485.606,254.22a.881.881,0,1,1-.881-.881.881.881,0,0,1,.881.881" transform="translate(-179.041 -93.745)" fill="#111"/>
                <path id="Trazado_818832" data-name="Trazado 818832" d="M282.833,431.388c.942-14.241-3.712-28.35-13.264-40.2l-5.147-6.386-4.916-6.1-3.528-4.377-34.936,2.083-34.935-2.083-3.528,4.377-4.916,6.1-5.147,6.386A59.357,59.357,0,0,0,159.7,419.9c-.067.464-.861,9.293-1.96,20.074H282.588Z" transform="translate(-58.371 -138.516)" fill="#111"/>
                <path id="Trazado_818833" data-name="Trazado 818833" d="M184.4,450.138c-.021,0-.043,0-.064,0a.63.63,0,0,1-.563-.691c.711-6.967,1.289-13.074,1.634-16.724.215-2.275.3-3.2.329-3.377a60.269,60.269,0,0,1,12.946-29.016.63.63,0,0,1,.981.791,59.012,59.012,0,0,0-12.68,28.406c-.022.149-.147,1.477-.322,3.314-.346,3.651-.924,9.761-1.635,16.734a.631.631,0,0,1-.626.566" transform="translate(-68.003 -148.05)" fill="#f6eee3"/>
                <path id="Trazado_818834" data-name="Trazado 818834" d="M264.918,133.416a26,26,0,0,0-8.607-15.656c-1.055-1.1-2.058-2.1-2.982-2.976-3.208-3.051-7.592-6.1-7.815-10.279-.769-14.394-23.218-25.387-30.467-19.112A27.366,27.366,0,0,0,200.1,84.156a13.985,13.985,0,1,0-20,16.222c-.2.612-.406,1.232-.636,1.86-2.747,7.519-7.258,12.965-13.908,18.721l-.9.782c-12.274,10.624-11.285,28.444-1.875,36.214l2.713,2.263q.629.525,1.295,1a5.022,5.022,0,0,1,2.224,4.724,24.267,24.267,0,0,0,.973,10.462c4.207,13.13,19.177,21.716,35.355,20.169,11.221-1.073,20.695-6.512,26.394-14.008,6.812-8.96,15.1-17.059,23.676-24.88,7.008-6.393,10.815-15.2,9.506-24.272" transform="translate(-57.573 -27.399)" fill="#111"/>
                <path id="Trazado_818835" data-name="Trazado 818835" d="M265.519,157.891l-2.27-25.016-11.1-.2-.45-8.194-3.372,7.778-9.776-1.13-2.252-3.874a2.534,2.534,0,0,0-2.434-1.272c-.766,8.989-5.03,16.857-9.369,17.558l-5.858-1.274.008-.111-1.849.042a8.841,8.841,0,0,0-8.616,9.01l.005.2a8.841,8.841,0,0,0,9.01,8.616l3.6-.081L219.5,192.262c-.049,8.717,7.764,13.728,15.866,13.773l.336,0c8.1.045,14.771-7.05,14.82-15.767l.063-11.37a19.809,19.809,0,0,0,14.933-21.009" transform="translate(-77.033 -46.063)" fill="#ffa485"/>
                <path id="Trazado_818836" data-name="Trazado 818836" d="M220.223,167.736a.63.63,0,0,1-.338-1.162l2.279-1.446-2.548-2.906a.63.63,0,1,1,.947-.83l3.033,3.459a.629.629,0,0,1-.136.947l-2.9,1.84a.624.624,0,0,1-.337.1" transform="translate(-81.209 -59.641)" fill="#ff8563"/>
                <path id="Trazado_818837" data-name="Trazado 818837" d="M262.889,206.428s-17.293.713-20.154-5.456h0s-.84,9.385,19.977,14.4Z" transform="translate(-89.35 -73.353)" fill="#ff8563"/>
                <path id="Trazado_818838" data-name="Trazado 818838" d="M217.35,182.393c-.113,0-.227,0-.34-.013a4.557,4.557,0,1,1,.34.013m-.006-6.614a2.052,2.052,0,1,0,.152.006c-.051,0-.1-.006-.152-.006" transform="translate(-78.736 -64.113)" fill="#f6eee3"/>
                <path id="Trazado_818839" data-name="Trazado 818839" d="M292.334,156.069a1.707,1.707,0,1,1-1.665-1.749,1.709,1.709,0,0,1,1.665,1.749" transform="translate(-106.911 -57.104)" fill="#111"/>
                <path id="Trazado_818840" data-name="Trazado 818840" d="M263.663,156.069A1.707,1.707,0,1,1,262,154.321a1.708,1.708,0,0,1,1.665,1.749" transform="translate(-96.302 -57.104)" fill="#111"/>
                <path id="Trazado_818841" data-name="Trazado 818841" d="M255.142,163.245c-4.482,0-8.147-4.211-8.179-9.41-.019-3.089,4.072-4.5,8.135-4.524s8.174,1.332,8.193,4.421c.033,5.217-3.6,9.485-8.1,9.514Zm.072-12.045h-.1c-3.518.023-6.266,1.174-6.257,2.623.026,4.161,2.845,7.532,6.289,7.532h.033c3.46-.022,6.253-3.437,6.227-7.612h0c-.009-1.434-2.719-2.544-6.187-2.544" transform="translate(-91.386 -55.25)" fill="#fff"/>
                <path id="Trazado_818842" data-name="Trazado 818842" d="M286.7,162.631a7.6,7.6,0,0,1-5.8-2.791,10.239,10.239,0,0,1-2.381-6.618c-.019-3.09,4.073-4.5,8.137-4.524a13.86,13.86,0,0,1,5.346.926c1.826.78,2.837,2.021,2.846,3.5a10.232,10.232,0,0,1-2.3,6.647,7.6,7.6,0,0,1-5.808,2.865Zm.072-12.044h-.1c-3.518.022-6.268,1.174-6.259,2.622a8.345,8.345,0,0,0,1.924,5.4,5.529,5.529,0,0,0,8.768-.055,8.343,8.343,0,0,0,1.856-5.423c-.009-1.434-2.718-2.543-6.187-2.543" transform="translate(-103.062 -55.024)" fill="#fff"/>
                <path id="Trazado_818843" data-name="Trazado 818843" d="M274.148,152.333l.112,5.661a1.264,1.264,0,0,0,1.289,1.239l1.257-.025a1.723,1.723,0,0,1,1.757,1.689,4.268,4.268,0,0,1-4.182,4.351l-1.967.038" transform="translate(-100.803 -56.369)" fill="#ffa485"/>
                <path id="Trazado_818844" data-name="Trazado 818844" d="M272.042,165.546a.63.63,0,0,1-.013-1.26l1.968-.039a3.639,3.639,0,0,0,3.565-3.709,1.094,1.094,0,0,0-1.114-1.072l-1.257.025a1.894,1.894,0,0,1-1.931-1.857l-.112-5.66a.63.63,0,0,1,.617-.642h.013a.63.63,0,0,1,.63.617l.112,5.661a.628.628,0,0,0,.194.445.607.607,0,0,0,.452.177l1.257-.025a2.353,2.353,0,0,1,2.4,2.306,4.9,4.9,0,0,1-4.8,4.994l-1.967.039Z" transform="translate(-100.433 -55.999)" fill="#ff8563"/>
                <path id="Trazado_818845" data-name="Trazado 818845" d="M240.008,155.66a.95.95,0,0,1-.275-.041l-13.244-4.027a.945.945,0,1,1,.55-1.808l13.244,4.026a.945.945,0,0,1-.275,1.85" transform="translate(-83.562 -55.411)" fill="#fff"/>
                <path id="Trazado_818846" data-name="Trazado 818846" d="M270.686,158.379a.944.944,0,0,1-.551-1.712,5.705,5.705,0,0,1,6.747,0,.945.945,0,0,1-1.179,1.477c-2.022-1.614-4.375,0-4.475.068a.939.939,0,0,1-.542.171" transform="translate(-99.814 -57.556)" fill="#fff"/>
                <path id="Trazado_818847" data-name="Trazado 818847" d="M275.1,196.691a.354.354,0,0,1-.238-.014,3.026,3.026,0,0,0-3.343.677.355.355,0,1,1-.527-.478,3.8,3.8,0,0,1,4.153-.852.355.355,0,0,1-.045.667" transform="translate(-100.245 -72.431)" fill="#ff8563"/>
                <path id="Trazado_818848" data-name="Trazado 818848" d="M252.78,143.763a5.446,5.446,0,0,0,2.238-.3c.775-.212,1.559-.405,2.246-.549s1.485-.284,2.28-.4a5.4,5.4,0,0,0,2.166-.622c.538-.374.629-1.14-.256-1.873a6.227,6.227,0,0,0-5.03-.816,6.04,6.04,0,0,0-4.219,2.758c-.487,1.021-.076,1.682.575,1.806" transform="translate(-93.246 -51.445)" fill="#111"/>
                <path id="Trazado_818849" data-name="Trazado 818849" d="M293.762,143.992a4.277,4.277,0,0,1-1.769-.168c-.616-.142-1.239-.27-1.783-.362s-1.177-.177-1.805-.245a4.25,4.25,0,0,1-1.722-.423c-.435-.277-.529-.877.143-1.48a4.9,4.9,0,0,1,3.93-.8,4.757,4.757,0,0,1,3.4,2.039c.414.788.111,1.32-.4,1.438" transform="translate(-105.956 -51.963)" fill="#111"/>
                <path id="Trazado_818850" data-name="Trazado 818850" d="M267.252,181.171h-.039l-4.915-.3a3.564,3.564,0,0,1-3.344-3.575l0-.671a.631.631,0,0,1,.63-.627h0a.63.63,0,0,1,.627.633l0,.672a2.3,2.3,0,0,0,2.161,2.311l4.915.3a.63.63,0,0,1-.038,1.259" transform="translate(-95.823 -65.124)" fill="#ff8563"/>
                <path id="Trazado_818851" data-name="Trazado 818851" d="M220.423,258.87l35.421-.2.219-.549L266.854,231a.335.335,0,0,1,.3-.2l-57.906-.009,10.876,27.335Z" transform="translate(-77.429 -85.398)" fill="#ffa485"/>
                <path id="Trazado_818852" data-name="Trazado 818852" d="M282.651,235.669l-11.867,5.8a21.6,21.6,0,0,0-8.887,8.052l-4.254,6.887,1.407,1.312,4.218-6.828a21.6,21.6,0,0,1,8.886-8.052l10.614-5.191.966-2.429a9.719,9.719,0,0,0-1.084.445" transform="translate(-95.338 -87.042)" fill="#ff8563"/>
                <path id="Trazado_818853" data-name="Trazado 818853" d="M242.721,314.789a2.044,2.044,0,0,0,3.875,0l15.813-39.744-35.421.2Z" transform="translate(-83.994 -101.777)" fill="#ff8563"/>
                <path id="Trazado_818854" data-name="Trazado 818854" d="M292.794,278.761l-28.742-33.554c-8.282-9.434-12.239-14.123-24.586-14.414h-.029l-.185-.006c-.007,0-.013.006-.02.006a.336.336,0,0,0-.3.2l-10.791,27.121-.219.549L212.11,298.41a2.044,2.044,0,0,1-3.874,0L192.5,258.87l-.3-.753-10.876-27.335h0l-.306.005h-.074c-11.191.195-24.079,4.812-33.892,12.27a34.012,34.012,0,0,0-12.991,31.322,34.5,34.5,0,0,0,1.757,7.175l.629,1.79q3.166,9,7.108,17.7c.953,2.1,1.7,3.755,1.717,3.768l6.983,1.271a.33.33,0,0,0,.492-.01l18.52,23.452a.33.33,0,0,0,.216.308l14.5,5.341a75.978,75.978,0,0,0,48.368,0l18-7.016a.329.329,0,0,0,.2-.386s15.392-21.547,15.527-21.692l24.7-26.882a.33.33,0,0,0,.008-.438" transform="translate(-49.51 -85.398)" fill="#5c69ab"/>
                <path id="Trazado_818855" data-name="Trazado 818855" d="M209.372,339.259a72.241,72.241,0,0,1-23.67-3.972l-14.511-5.343a.652.652,0,0,1-.409-.478l-18.3-23.171a.666.666,0,0,1-.157.023.65.65,0,0,1-.4-.125l-6.9-1.256a.321.321,0,0,1-.171-.093c-.054-.056-.054-.057-1.777-3.856-2.621-5.782-5.016-11.745-7.119-17.725l-.629-1.79a34.193,34.193,0,0,1,11.341-38.852c9.754-7.412,22.812-12.139,34.078-12.335l.079.314-.006-.315.306-.005a.313.313,0,0,1,.3.2l26.908,67.627a1.73,1.73,0,0,0,3.289,0L238.457,230.7a.648.648,0,0,1,.539-.4.369.369,0,0,1,.1-.008l.163,0c12.355.291,16.422,4.925,24.524,14.156l.321.365,28.745,33.557a.646.646,0,0,1-.015.856l-24.7,26.881c-.231.295-10.158,14.18-15.434,21.567a.649.649,0,0,1-.411.592l-18,7.015a72.175,72.175,0,0,1-24.3,3.974q-.307,0-.614,0m.614-.632a71.423,71.423,0,0,0,24.083-3.935l17.994-7.012a.364.364,0,0,1,.059-.276c3.613-5.059,15.415-21.573,15.55-21.722l24.7-26.882.24-.225-.239.2-29.061-33.917c-7.981-9.093-11.986-13.658-24.036-13.941l-.174-.005-.025,0L228.033,258.6l-15.814,39.744a2.359,2.359,0,0,1-4.46,0L180.93,230.917h-.164c-11.139.193-24.054,4.871-33.707,12.206a33.567,33.567,0,0,0-11.128,38.141l.63,1.79c2.1,5.963,4.484,11.908,7.1,17.674,1.108,2.444,1.509,3.322,1.645,3.617l6.824,1.242a.312.312,0,0,1,.174.1.346.346,0,0,1,.257-.111.34.34,0,0,1,.253.12l18.52,23.452a.32.32,0,0,1,.067.193l14.514,5.355a71.386,71.386,0,0,0,24.073,3.932" transform="translate(-49.325 -85.213)" fill="#5c69ab"/>
                <path id="Trazado_818856" data-name="Trazado 818856" d="M287.3,357.263H248.208a4.4,4.4,0,0,1-4.4-4.4V300.434a4.4,4.4,0,0,1,4.4-4.4H287.3a4.4,4.4,0,0,1,4.4,4.4v52.425a4.4,4.4,0,0,1-4.4,4.4" transform="translate(-90.217 -109.543)" fill="#231f20"/>
                <path id="Trazado_818857" data-name="Trazado 818857" d="M283.676,293.884H269.253a1.905,1.905,0,0,1-1.905-1.9v-1.594a1.905,1.905,0,0,1,1.905-1.906h14.423a1.905,1.905,0,0,1,1.9,1.906v1.594a1.905,1.905,0,0,1-1.9,1.9" transform="translate(-98.929 -106.749)" fill="#f6eee3"/>
                <path id="Trazado_818858" data-name="Trazado 818858" d="M283.491,294.014H269.068a2.223,2.223,0,0,1-2.22-2.219V290.2a2.223,2.223,0,0,1,2.22-2.22h14.423a2.223,2.223,0,0,1,2.22,2.22v1.594a2.222,2.222,0,0,1-2.22,2.219m-14.423-5.4a1.592,1.592,0,0,0-1.59,1.59v1.594a1.592,1.592,0,0,0,1.59,1.589h14.423a1.592,1.592,0,0,0,1.59-1.589V290.2a1.592,1.592,0,0,0-1.59-1.59Z" transform="translate(-98.744 -106.564)" fill="#231f20"/>
                <path id="Trazado_818859" data-name="Trazado 818859" d="M286.288,298.7H262.9a.605.605,0,0,1-.605-.605v-1.325a.606.606,0,0,1,.605-.605h23.383a.605.605,0,0,1,.605.605v1.325a.605.605,0,0,1-.605.605" transform="translate(-97.061 -109.592)" fill="#f6eee3"/>
                <path id="Trazado_818860" data-name="Trazado 818860" d="M286.1,298.83H262.719a.921.921,0,0,1-.92-.92v-1.325a.921.921,0,0,1,.92-.92H286.1a.921.921,0,0,1,.92.92v1.325a.921.921,0,0,1-.92.92m-23.384-2.535a.291.291,0,0,0-.29.29v1.325a.291.291,0,0,0,.29.29H286.1a.291.291,0,0,0,.29-.29v-1.325a.291.291,0,0,0-.29-.29Z" transform="translate(-96.876 -109.407)" fill="#231f20"/>
                <path id="Trazado_818861" data-name="Trazado 818861" d="M260.452,344.892c.6,2.409,2.81,2.292,4.963,1.747-1.284.542-2.235,1.4-1.768,2.993.5,2.942,3.3,3.062,5.642,2.408-2.018,1.278.549,4.37,3.676,4.325,4.388.159,8.738.3,13.127.547,3.1.174,6.031.028,8.767-1.48l3.341.141-.7-23.111-5.484,1.017c-.646-.441-1.3-.863-1.974-1.244,0,0-11.606-5.2-15.833-6.2a4.119,4.119,0,0,0-1.382-.156,1.507,1.507,0,0,0-1.162.68,2,2,0,0,0,.108,1.748c.745,1.729,1.4,3.227,2.074,4.543-1.639.084-2.088.1-4.008.161-4.036.422-10.779.3-9.919,5.548.454,1.8,1.922,2.079,3.439,1.875-2.072.7-3.936,1.941-2.9,4.461m3.258,2.407c.348-.1.67-.191.954-.249-.277.084-.6.164-.954.249" transform="translate(-96.152 -120.581)" fill="#ffa485"/>
                <g id="Grupo_1071858" data-name="Grupo 1071858" transform="translate(176.47 209.67)" opacity="0.36">
                  <g id="Grupo_1071857" data-name="Grupo 1071857">
                    <g id="Grupo_1071856" data-name="Grupo 1071856" clip-path="url(#clip-path-10)">
                      <path id="Trazado_818862" data-name="Trazado 818862" d="M281.352,335.424l10.526.244s-10.079-2.933-11.749-2.838Z" transform="translate(-280.128 -332.829)" fill="#949af8"/>
                    </g>
                  </g>
                </g>
                <path id="Trazado_818863" data-name="Trazado 818863" d="M319.12,361.5l5.343.011a1.554,1.554,0,0,0,1.558-1.551l.059-27.681a1.555,1.555,0,0,0-1.551-1.557l-5.344-.011a1.554,1.554,0,0,0-1.557,1.551l-.059,27.68a1.554,1.554,0,0,0,1.551,1.558" transform="translate(-117.513 -122.376)" fill="#f2f1ec"/>
                <path id="Trazado_818864" data-name="Trazado 818864" d="M325.515,322.183v31.15a2.56,2.56,0,0,0,3.006,2.521l24.919-4.4A24.719,24.719,0,0,0,366.5,310.1l-2.4-2.508-35.949,11.038a3.722,3.722,0,0,0-2.63,3.559" transform="translate(-120.453 -113.819)" fill="#5c69ab"/>
                <path id="Trazado_818865" data-name="Trazado 818865" d="M333.985,372.307a1.691,1.691,0,1,1-2.265-.767,1.691,1.691,0,0,1,2.265.767" transform="translate(-122.401 -137.419)" fill="#f2f1ec"/>
                <path id="Trazado_818866" data-name="Trazado 818866" d="M327.887,356.023a2.876,2.876,0,0,1-2.873-2.875V322a4.016,4.016,0,0,1,2.853-3.86L363.817,307.1a.312.312,0,0,1,.32.083l2.4,2.508a25.035,25.035,0,0,1-13.224,41.881l-24.925,4.406a2.9,2.9,0,0,1-.5.044m35.929-48.263-35.764,10.98A3.391,3.391,0,0,0,325.644,322v31.15a2.247,2.247,0,0,0,2.637,2.211l24.919-4.405a24.4,24.4,0,0,0,12.885-40.826Z" transform="translate(-120.268 -113.633)" fill="#5c69ab"/>
                <line id="Línea_3801" data-name="Línea 3801" x1="6.453" y2="0.946" transform="translate(166.814 218.942)" fill="#949af8"/>
                <path id="Trazado_818867" data-name="Trazado 818867" d="M264.614,348.625a.315.315,0,0,1-.045-.627l6.453-.946a.32.32,0,0,1,.357.266.315.315,0,0,1-.266.357l-6.453.946a.363.363,0,0,1-.046,0" transform="translate(-97.801 -128.422)" fill="#949af8"/>
                <line id="Línea_3802" data-name="Línea 3802" x1="5.29" y2="1.235" transform="translate(169.264 224.824)" fill="#949af8"/>
                <path id="Trazado_818868" data-name="Trazado 818868" d="M268.5,358.249a.315.315,0,0,1-.071-.622l5.29-1.235a.315.315,0,1,1,.142.614l-5.29,1.235a.308.308,0,0,1-.071.008" transform="translate(-99.24 -131.876)" fill="#949af8"/>
                <line id="Línea_3803" data-name="Línea 3803" x1="5.079" y2="1.388" transform="translate(172.855 230.292)" fill="#949af8"/>
                <path id="Trazado_818869" data-name="Trazado 818869" d="M274.2,367.082a.315.315,0,0,1-.083-.619l5.08-1.389a.315.315,0,1,1,.166.608l-5.079,1.388a.32.32,0,0,1-.083.011" transform="translate(-101.349 -135.088)" fill="#949af8"/>
                <path id="Trazado_818870" data-name="Trazado 818870" d="M325.33,330.307a.315.315,0,0,1-.315-.315v-4.713a4.762,4.762,0,0,1,3.513-4.589l20.658-5.577a.315.315,0,0,1,.164.608L328.693,321.3a4.131,4.131,0,0,0-3.048,3.981v4.713a.315.315,0,0,1-.315.315" transform="translate(-120.268 -116.6)" fill="#111"/>
                <path id="Trazado_818871" data-name="Trazado 818871" d="M331.406,315.411a.315.315,0,0,1-.272-.155l-7.756-13.125a.315.315,0,1,1,.542-.32l7.757,13.125a.316.316,0,0,1-.112.432.312.312,0,0,1-.16.043" transform="translate(-119.646 -111.624)" fill="#111"/>
                <path id="Trazado_818872" data-name="Trazado 818872" d="M255.9,261.542l6.725-10.887a21.594,21.594,0,0,1,8.886-8.052l11.867-5.8a9.783,9.783,0,0,1,5.493-.921l22.871-1.3a.744.744,0,0,1,.723,1.046c-.006.013-.011.026-.018.04a4.158,4.158,0,0,1-3.312,2.452l-10.747,1.319.529.049a3.759,3.759,0,0,1,3.188,2.455l.885,2.425.752.8a3.883,3.883,0,0,1,.787,4.084l-5.333,13.546a1.528,1.528,0,0,1-2.089.814,4.363,4.363,0,0,1-2.23-5.32l1.526-4.526-7.364,9.042a12.1,12.1,0,0,1-4.515,3.437l-5.675,2.495-4,11.208Z" transform="translate(-94.692 -86.801)" fill="#ffa485"/>
                <line id="Línea_3804" data-name="Línea 3804" y1="0.344" x2="7.818" transform="translate(195.801 152.902)" fill="#949af8"/>
                <path id="Trazado_818873" data-name="Trazado 818873" d="M318.578,242.833a.375.375,0,0,1-.153.04l-7.819.344a.383.383,0,1,1-.033-.766l7.819-.345a.383.383,0,0,1,.186.726" transform="translate(-114.788 -89.589)" fill="#ff8563"/>
                <line id="Línea_3805" data-name="Línea 3805" y1="0.99" x2="9.511" transform="translate(198.484 157.594)" fill="#949af8"/>
                <path id="Trazado_818874" data-name="Trazado 818874" d="M324.529,250.282a.373.373,0,0,1-.13.037l-9.51.99a.383.383,0,1,1-.079-.762l9.51-.99a.383.383,0,0,1,.21.724" transform="translate(-116.364 -92.345)" fill="#ff8563"/>
                <line id="Línea_3806" data-name="Línea 3806" x1="1.031" y2="2.604" transform="translate(201.709 164.351)" fill="#949af8"/>
                <path id="Trazado_818875" data-name="Trazado 818875" d="M320.136,263.613a.383.383,0,0,1-.525-.484l1.031-2.6a.383.383,0,0,1,.712.282l-1.031,2.6a.384.384,0,0,1-.187.2" transform="translate(-118.258 -96.314)" fill="#949af8"/>
                <path id="Trazado_818876" data-name="Trazado 818876" d="M276.381,291.944l-3.942,4.229a1.554,1.554,0,0,1-2.2.077l-21.415-19.964a1.555,1.555,0,0,1-.077-2.2l3.943-4.229a1.554,1.554,0,0,1,2.2-.077L276.3,289.748a1.554,1.554,0,0,1,.077,2.2" transform="translate(-91.892 -99.676)" fill="#f2f1ec"/>
                <path id="Trazado_818877" data-name="Trazado 818877" d="M151.335,325.685c1.113,2.106,2.717,4.888,4.539,7.941a24.373,24.373,0,0,0,36.737,6.122c5.218-4.427,10.816-9.342,16.278-14.214,11.36-10.134,22.132-20.084,27.675-25.077a2.756,2.756,0,0,0,.031-4.069L212.216,273.77a2.052,2.052,0,0,0-2.744-.042l-29.605,25.823-36.112,7.055s4.433,13.122,7.58,19.078" transform="translate(-53.195 -101.103)" fill="#5c69ab"/>
                <path id="Trazado_818878" data-name="Trazado 818878" d="M176.622,345.677a24.657,24.657,0,0,1-21.2-12.076c-1.99-3.334-3.52-6.01-4.546-7.955-3.123-5.91-7.556-18.993-7.6-19.125a.314.314,0,0,1,.238-.41l36.029-7.039,29.541-25.768a2.361,2.361,0,0,1,3.166.049l24.378,22.617a3.069,3.069,0,0,1-.034,4.533c-1.9,1.715-4.425,4.016-7.376,6.708-5.722,5.221-12.842,11.718-20.3,18.37-6.228,5.556-11.555,10.207-16.285,14.219a24.4,24.4,0,0,1-10.322,5.218,24.994,24.994,0,0,1-5.685.658m-32.638-39.016c.721,2.1,4.626,13.359,7.444,18.692,1.022,1.934,2.546,4.6,4.531,7.926a24.036,24.036,0,0,0,26.2,11.126,23.786,23.786,0,0,0,10.059-5.083c4.725-4.01,10.049-8.657,16.273-14.209,7.456-6.651,14.575-13.146,20.3-18.366,2.951-2.693,5.473-4.994,7.378-6.71a2.449,2.449,0,0,0,.808-1.8,2.416,2.416,0,0,0-.781-1.806l-24.378-22.618a1.732,1.732,0,0,0-2.323-.035L179.889,299.6a.3.3,0,0,1-.147.071Z" transform="translate(-53.01 -100.917)" fill="#5c69ab"/>
                <path id="Trazado_818879" data-name="Trazado 818879" d="M193.132,377.744q-.863,0-1.728-.047a.315.315,0,0,1-.3-.332.308.308,0,0,1,.331-.3,31.873,31.873,0,0,0,23.327-8.459l9.323-8.686a.315.315,0,1,1,.43.461L215.2,369.07a32.505,32.505,0,0,1-22.063,8.673" transform="translate(-70.717 -133.154)" fill="#111"/>
                <path id="Trazado_818880" data-name="Trazado 818880" d="M181.679,313.856a.315.315,0,0,1-.2-.555l31.746-27.015a.315.315,0,0,1,.409.48l-31.746,27.015a.314.314,0,0,1-.2.075" transform="translate(-67.112 -105.909)" fill="#111"/>
                <path id="Trazado_818881" data-name="Trazado 818881" d="M187.719,305.644a.314.314,0,0,1-.273-.157l-12.507-21.6a.315.315,0,1,1,.545-.316l12.507,21.6a.315.315,0,0,1-.272.473" transform="translate(-64.719 -104.874)" fill="#111"/>
                <path id="Trazado_818882" data-name="Trazado 818882" d="M278.362,311.174a1.691,1.691,0,1,1-2.265-.767,1.692,1.692,0,0,1,2.265.767" transform="translate(-101.818 -114.797)" fill="#f2f1ec"/>
                <path id="Trazado_818883" data-name="Trazado 818883" d="M14.2,102.735v74.279c0,11.391,31.221,21.277,76.978,26.225V128.96C45.424,124.012,14.2,114.126,14.2,102.735" transform="translate(-5.256 -38.016)" fill="#949af8"/>
                <path id="Trazado_818884" data-name="Trazado 818884" d="M87.683,156.9l-.034,0c-37.75-4.082-61.2-12.154-61.2-21.067a.315.315,0,0,1,.63,0c0,8.434,23.8,16.457,60.638,20.44a.315.315,0,0,1-.033.628" transform="translate(-9.787 -50.147)" fill="#f6eee3"/>
                <path id="Trazado_818885" data-name="Trazado 818885" d="M63.156,177.6a.311.311,0,0,1-.072-.008,116.466,116.466,0,0,1-15.171-4.49.315.315,0,1,1,.226-.588,115.915,115.915,0,0,0,15.088,4.465.315.315,0,0,1-.071.622" transform="translate(-17.655 -63.831)" fill="#f6eee3"/>
                <path id="Trazado_818886" data-name="Trazado 818886" d="M110.291,186.672l-.034,0c-8.056-.871-15.61-1.943-22.454-3.188a.315.315,0,0,1,.113-.62c6.828,1.242,14.368,2.312,22.408,3.181a.315.315,0,0,1-.033.628" transform="translate(-32.395 -67.664)" fill="#111"/>
                <path id="Trazado_818887" data-name="Trazado 818887" d="M29.718,212.171l8.695,2.785v-12.4l-8.695-3.341Z" transform="translate(-10.997 -73.718)" fill="#111"/>
                <path id="Trazado_818888" data-name="Trazado 818888" d="M38.543,210.661l-9.325-2.987V186.447l9.325,3.584Zm-8.695-3.446,8.065,2.583V190.464l-8.065-3.1Z" transform="translate(-10.812 -68.992)" fill="#f6eee3"/>
                <path id="Trazado_818889" data-name="Trazado 818889" d="M58.434,222.358l-9.325-2.986V207.594l9.325,3.584Zm-8.695-3.446,8.065,2.582v-9.884l-8.065-3.1Z" transform="translate(-18.172 -76.818)" fill="#f6eee3"/>
                <path id="Trazado_818890" data-name="Trazado 818890" d="M437.267,102.735v74.279c0,9.411-21.31,17.795-54.521,23.215-.941.154-1.121-74.1-.321-74.227,33.4-5.418,54.843-13.826,54.843-23.267" transform="translate(-141.324 -38.016)" fill="#949af8"/>
                <path id="Trazado_818891" data-name="Trazado 818891" d="M432.888,147.822a.315.315,0,0,1-.072-.621c7.89-1.875,13.8-4.009,17.578-6.344a.315.315,0,1,1,.331.536c-3.83,2.37-9.807,4.53-17.764,6.42a.286.286,0,0,1-.072.009" transform="translate(-160.068 -52.105)" fill="#111"/>
                <path id="Trazado_818892" data-name="Trazado 818892" d="M433.6,164.027a.315.315,0,0,1-.072-.621c7.687-1.826,13.45-3.906,17.127-6.181a.315.315,0,1,1,.331.535c-3.734,2.311-9.559,4.416-17.313,6.257a.287.287,0,0,1-.072.009" transform="translate(-160.334 -58.162)" fill="#f6eee3"/>
                <g id="Grupo_1071861" data-name="Grupo 1071861" transform="translate(55.641 132.276)" opacity="0.69">
                  <g id="Grupo_1071860" data-name="Grupo 1071860">
                    <g id="Grupo_1071859" data-name="Grupo 1071859" clip-path="url(#clip-path-11)">
                      <path id="Trazado_818893" data-name="Trazado 818893" d="M100.816,224.485,88.59,211.874a.945.945,0,1,1,1.357-1.315l10.932,11.276,12.641-11.859,15.569,12.073a.945.945,0,0,1-1.159,1.494l-14.294-11.085Z" transform="translate(-88.324 -209.975)" fill="#1b1f38"/>
                    </g>
                  </g>
                </g>
                <path id="Trazado_818894" data-name="Trazado 818894" d="M91.133,210.083a3.17,3.17,0,1,1-3.171-3.171,3.17,3.17,0,0,1,3.171,3.171" transform="translate(-31.376 -76.565)" fill="#bcc5f6"/>
                <path id="Trazado_818895" data-name="Trazado 818895" d="M129.722,210.083a3.17,3.17,0,1,1-3.171-3.171,3.17,3.17,0,0,1,3.171,3.171" transform="translate(-45.656 -76.565)" fill="#bcc5f6"/>
                <path id="Trazado_818896" data-name="Trazado 818896" d="M109.513,228.463a3.17,3.17,0,1,1-3.171-3.171,3.17,3.17,0,0,1,3.171,3.171" transform="translate(-38.178 -83.367)" fill="#5f73d3"/>
                <path id="Trazado_818897" data-name="Trazado 818897" d="M153.423,228.463a3.171,3.171,0,1,1-3.171-3.171,3.17,3.17,0,0,1,3.171,3.171" transform="translate(-54.426 -83.367)" fill="#5f73d3"/>
                <rect id="Rectángulo_375768" data-name="Rectángulo 375768" width="5.112" height="36.349" transform="translate(219.618 108.112)" fill="#5c69ab"/>
                <path id="Trazado_818898" data-name="Trazado 818898" d="M353.861,208.1H348.12v-36.98h5.741Zm-5.111-.63h4.482V171.746H348.75Z" transform="translate(-128.818 -63.319)" fill="#5c69ab"/>
                <path id="Trazado_818899" data-name="Trazado 818899" d="M369.335,202.312h-5.741V155.488h5.741Zm-5.112-.63h4.482V156.118h-4.482Z" transform="translate(-134.544 -57.536)" fill="#111"/>
                <path id="Trazado_818900" data-name="Trazado 818900" d="M401.5,202.312h-5.741V155.488H401.5Zm-5.112-.63h4.482V156.118h-4.482Z" transform="translate(-146.444 -57.536)" fill="#111"/>
                <g id="Grupo_1071864" data-name="Grupo 1071864" transform="translate(259.091 91.261)" opacity="0.46">
                  <g id="Grupo_1071863" data-name="Grupo 1071863">
                    <g id="Grupo_1071862" data-name="Grupo 1071862" clip-path="url(#clip-path-12)">
                      <rect id="Rectángulo_375769" data-name="Rectángulo 375769" width="5.112" height="53.199" transform="translate(0.001 0.001)" fill="#fff"/>
                    </g>
                  </g>
                </g>
                <rect id="Rectángulo_375771" data-name="Rectángulo 375771" width="5.112" height="34.741" transform="translate(259.091 109.72)" fill="#5c69ab"/>
                <path id="Trazado_818901" data-name="Trazado 818901" d="M416.522,209.04h-5.741V173.67h5.741Zm-5.112-.629h4.482V174.3H411.41Z" transform="translate(-152.005 -64.265)" fill="#5c69ab"/>
                <rect id="Rectángulo_375772" data-name="Rectángulo 375772" width="5.112" height="32.563" transform="translate(239.781 111.898)" fill="#5c69ab"/>
                <path id="Trazado_818902" data-name="Trazado 818902" d="M385.868,210.319h-5.741V177.126h5.741Zm-5.111-.629h4.482V177.757h-4.482Z" transform="translate(-140.662 -65.543)" fill="#5c69ab"/>
              </g>
            </g>
          </g>
        </g>
        <rect id="Rectángulo_381950" data-name="Rectángulo 381950" width="313.624" height="7.687" rx="3.844" transform="translate(235.612 3123.173)" fill="#12263f"/>
      </g>
    </g>
  </g>
</svg>
