<svg xmlns="http://www.w3.org/2000/svg" xmlns:xlink="http://www.w3.org/1999/xlink" width="196" height="151" viewBox="0 0 196 151">
  <defs>
    <clipPath id="clip-path">
      <rect id="Rectángulo_384203" data-name="Rectángulo 384203" width="196" height="151" transform="translate(209 415)" fill="#fff" opacity="0.77"/>
    </clipPath>
    <clipPath id="clip-path-2">
      <rect id="Rectángulo_375155" data-name="Rectángulo 375155" width="180.986" height="170" fill="none"/>
    </clipPath>
    <clipPath id="clip-path-4">
      <rect id="Rectángulo_375179" data-name="Rectángulo 375179" width="107.132" height="100.629" fill="none"/>
    </clipPath>
  </defs>
  <g id="Enmascarar_grupo_1088145" data-name="Enmascarar grupo 1088145" transform="translate(-209 -415)" clip-path="url(#clip-path)">
    <rect id="Rectángulo_375161" data-name="Rectángulo 375161" width="2.016" height="1.992" transform="translate(259.308 454.535)" fill="#263238"/>
    <rect id="Rectángulo_375162" data-name="Rectángulo 375162" width="2.016" height="1.992" transform="translate(259.308 457.807)" fill="#263238"/>
    <rect id="Rectángulo_375163" data-name="Rectángulo 375163" width="2.016" height="1.992" transform="translate(259.308 461.078)" fill="#263238"/>
    <rect id="Rectángulo_375164" data-name="Rectángulo 375164" width="2.016" height="1.992" transform="translate(259.308 464.351)" fill="#263238"/>
    <rect id="Rectángulo_375165" data-name="Rectángulo 375165" width="2.016" height="1.992" transform="translate(259.308 467.622)" fill="#263238"/>
    <rect id="Rectángulo_375166" data-name="Rectángulo 375166" width="2.016" height="1.992" transform="translate(259.308 470.895)" fill="#263238"/>
    <rect id="Rectángulo_375167" data-name="Rectángulo 375167" width="2.016" height="1.992" transform="translate(259.308 474.166)" fill="#263238"/>
    <rect id="Rectángulo_375168" data-name="Rectángulo 375168" width="2.016" height="1.992" transform="translate(259.308 477.438)" fill="#263238"/>
    <rect id="Rectángulo_375169" data-name="Rectángulo 375169" width="2.016" height="1.992" transform="translate(259.308 480.71)" fill="#263238"/>
    <rect id="Rectángulo_375170" data-name="Rectángulo 375170" width="2.016" height="1.992" transform="translate(259.308 483.981)" fill="#263238"/>
    <rect id="Rectángulo_375171" data-name="Rectángulo 375171" width="2.016" height="1.992" transform="translate(259.308 487.254)" fill="#263238"/>
    <rect id="Rectángulo_375172" data-name="Rectángulo 375172" width="2.016" height="1.992" transform="translate(259.308 490.525)" fill="#263238"/>
    <rect id="Rectángulo_375173" data-name="Rectángulo 375173" width="2.016" height="1.992" transform="translate(259.308 493.798)" fill="#263238"/>
    <rect id="Rectángulo_375174" data-name="Rectángulo 375174" width="2.016" height="1.992" transform="translate(259.308 497.069)" fill="#263238"/>
    <rect id="Rectángulo_375175" data-name="Rectángulo 375175" width="2.016" height="1.992" transform="translate(259.308 500.342)" fill="#263238"/>
    <rect id="Rectángulo_375176" data-name="Rectángulo 375176" width="2.016" height="1.992" transform="translate(259.308 503.613)" fill="#263238"/>
    <rect id="Rectángulo_375177" data-name="Rectángulo 375177" width="2.016" height="1.992" transform="translate(259.308 506.886)" fill="#263238"/>
    <rect id="Rectángulo_375178" data-name="Rectángulo 375178" width="2.016" height="1.992" transform="translate(259.308 510.157)" fill="#263238"/>
    <g id="Grupo_1084880" data-name="Grupo 1084880" transform="translate(260.728 431.57)" opacity="0.82">
      <rect id="Rectángulo_374304" data-name="Rectángulo 374304" width="90.553" height="160.429" rx="3" transform="translate(0 0)" fill="#eaeafe"/>
    </g>
    <path id="Línea_3866" data-name="Línea 3866" d="M5.506-.117H-.309A.191.191,0,0,1-.5-.309.191.191,0,0,1-.309-.5H5.506A.191.191,0,0,1,5.7-.309.191.191,0,0,1,5.506-.117Z" transform="translate(387.576 518.743)" fill="#263238"/>
    <path id="Línea_3867" data-name="Línea 3867" d="M166.053-.117H-.309A.191.191,0,0,1-.5-.309.191.191,0,0,1-.309-.5H166.053a.192.192,0,0,1,.191.191A.192.192,0,0,1,166.053-.117Z" transform="translate(218.607 518.743)" fill="#263238"/>
    <g id="Grupo_1071067" data-name="Grupo 1071067" transform="translate(215 417)" clip-path="url(#clip-path-2)">
      <path id="Trazado_817231" data-name="Trazado 817231" d="M372.235,135.607H368.9l-.416-2.912a10.524,10.524,0,0,1-3.831-1.6l-2.344,1.757-2.355-2.355,1.764-2.353a10.525,10.525,0,0,1-1.577-3.841l-2.9-.415v-3.33l2.911-.417a10.534,10.534,0,0,1,1.6-3.831L360,113.967l2.355-2.355,2.353,1.764a10.524,10.524,0,0,1,3.841-1.577l.415-2.9h3.33l.416,2.912a10.524,10.524,0,0,1,3.831,1.6l2.344-1.757,2.355,2.355-1.764,2.353a10.528,10.528,0,0,1,1.577,3.841l2.9.415v3.33l-2.911.416a10.536,10.536,0,0,1-1.6,3.831l1.757,2.344-2.355,2.355-2.352-1.764a10.534,10.534,0,0,1-3.842,1.577Zm-3-.383H371.9l.407-2.843.136-.025a10.162,10.162,0,0,0,3.944-1.619l.113-.077,2.305,1.729,1.885-1.885-1.723-2.3.079-.113a10.162,10.162,0,0,0,1.643-3.933l.025-.135,2.853-.408V120.95l-2.844-.407-.025-.136a10.155,10.155,0,0,0-1.619-3.943l-.077-.113,1.729-2.306-1.885-1.885-2.3,1.723-.113-.079a10.152,10.152,0,0,0-3.933-1.643l-.135-.025-.408-2.854H369.3l-.407,2.844-.136.025a10.151,10.151,0,0,0-3.943,1.618l-.113.077-2.306-1.729L360.506,114l1.723,2.3-.079.113a10.162,10.162,0,0,0-1.643,3.933l-.025.135-2.853.408v2.666l2.844.407.025.136a10.151,10.151,0,0,0,1.619,3.943l.077.113-1.729,2.306,1.885,1.885,2.3-1.723.113.079a10.152,10.152,0,0,0,3.933,1.643l.135.025Zm1.362-5.511a7.437,7.437,0,1,1,2.9-.586A7.414,7.414,0,0,1,370.6,129.713Zm0-14.537a7.054,7.054,0,1,0,2.755.556A7.032,7.032,0,0,0,370.6,115.176Z" transform="translate(-220.425 -67.192)" fill="#263238"/>
      <path id="Trazado_817232" data-name="Trazado 817232" d="M409.345,185.743h-2.476l-.3-2.091a7.581,7.581,0,0,1-2.689-1.123l-1.683,1.262-1.751-1.751,1.267-1.689a7.58,7.58,0,0,1-1.107-2.7l-2.083-.3V174.88l2.091-.3a7.584,7.584,0,0,1,1.123-2.689l-1.262-1.683,1.751-1.751,1.689,1.267a7.581,7.581,0,0,1,2.7-1.107l.3-2.083h2.476l.3,2.091a7.583,7.583,0,0,1,2.689,1.123l1.683-1.262,1.751,1.751-1.267,1.689a7.578,7.578,0,0,1,1.107,2.7l2.083.3V177.4l-2.091.3a7.582,7.582,0,0,1-1.123,2.689l1.262,1.683-1.751,1.751-1.689-1.267a7.581,7.581,0,0,1-2.7,1.107Zm-2.144-.383h1.812l.29-2.026.136-.025a7.207,7.207,0,0,0,2.8-1.149l.113-.077,1.642,1.232,1.281-1.281-1.228-1.637.079-.113a7.211,7.211,0,0,0,1.166-2.792l.025-.135,2.033-.291v-1.812l-2.026-.29-.025-.136a7.207,7.207,0,0,0-1.149-2.8l-.077-.113,1.232-1.642-1.281-1.281-1.637,1.227-.114-.079a7.21,7.21,0,0,0-2.791-1.166l-.135-.025-.291-2.033h-1.812l-.29,2.026-.136.025a7.206,7.206,0,0,0-2.8,1.149l-.113.077-1.642-1.231-1.281,1.281,1.227,1.637-.079.113a7.208,7.208,0,0,0-1.166,2.791l-.025.135-2.033.291v1.812l2.026.29.025.136a7.206,7.206,0,0,0,1.149,2.8l.077.113L400.953,182l1.281,1.281,1.637-1.228.114.079a7.21,7.21,0,0,0,2.791,1.166l.135.025Zm.927-3.832a5.389,5.389,0,1,1,3.811-1.578A5.354,5.354,0,0,1,408.128,181.529Zm0-10.4a5.006,5.006,0,1,0,3.54,1.466A4.974,4.974,0,0,0,408.128,171.133Z" transform="translate(-245.894 -102.754)" fill="#263238"/>
      <path id="Trazado_817233" data-name="Trazado 817233" d="M62.729,162.4H65.8l.38,2.66a9.623,9.623,0,0,1,3.48,1.454l2.141-1.6,2.169,2.169-1.611,2.149a9.624,9.624,0,0,1,1.433,3.489l2.649.379v3.068l-2.66.381a9.624,9.624,0,0,1-1.454,3.48l1.605,2.141-2.169,2.169-2.149-1.611a9.621,9.621,0,0,1-3.489,1.432l-.379,2.649H62.675l-.38-2.66a9.623,9.623,0,0,1-3.48-1.454l-2.141,1.6L54.5,182.123l1.611-2.149a9.632,9.632,0,0,1-1.433-3.489l-2.649-.379v-3.068l2.66-.38a9.623,9.623,0,0,1,1.454-3.48l-1.605-2.141,2.169-2.169,2.149,1.611a9.618,9.618,0,0,1,3.49-1.433Zm2.736.383h-2.4l-.371,2.592-.136.025a9.245,9.245,0,0,0-3.592,1.474l-.113.077-2.1-1.576-1.7,1.7,1.571,2.1-.079.113a9.252,9.252,0,0,0-1.5,3.582l-.025.135-2.6.372v2.4l2.592.371.025.136a9.261,9.261,0,0,0,1.474,3.592l.077.113-1.576,2.1,1.7,1.7,2.1-1.571.113.079a9.252,9.252,0,0,0,3.582,1.5l.135.025.372,2.6h2.4l.371-2.593.136-.025a9.249,9.249,0,0,0,3.592-1.474l.113-.077,2.1,1.576,1.7-1.7-1.571-2.1.079-.113a9.251,9.251,0,0,0,1.5-3.582l.025-.135,2.6-.372v-2.4l-2.592-.371-.025-.136a9.251,9.251,0,0,0-1.474-3.592l-.077-.113,1.576-2.1-1.7-1.7-2.1,1.571-.113-.078a9.25,9.25,0,0,0-3.582-1.5l-.135-.025Zm-1.229,4.995a6.8,6.8,0,1,1-2.656.536A6.782,6.782,0,0,1,64.236,167.775Zm0,13.265a6.441,6.441,0,1,0-4.554-1.886A6.4,6.4,0,0,0,64.236,181.04Z" transform="translate(-32.106 -100.201)" fill="#263238"/>
      <path id="Trazado_817234" data-name="Trazado 817234" d="M40.9,134.323h2l.234,1.634a5.936,5.936,0,0,1,2.054.858l1.316-.986,1.415,1.415-.99,1.321a5.947,5.947,0,0,1,.845,2.059l1.628.233v2l-1.635.234a5.944,5.944,0,0,1-.858,2.054l.986,1.316-1.415,1.415-1.321-.99a5.944,5.944,0,0,1-2.059.846l-.233,1.628h-2l-.234-1.635a5.945,5.945,0,0,1-2.054-.858l-1.315.986-1.415-1.415.99-1.321a5.946,5.946,0,0,1-.845-2.06l-1.628-.233v-2L36,140.59a5.944,5.944,0,0,1,.858-2.054l-.986-1.316,1.415-1.415,1.321.99a5.944,5.944,0,0,1,2.059-.846Zm1.669.383H41.229L41,136.276l-.136.025a5.571,5.571,0,0,0-2.162.888l-.113.077-1.273-.955-.945.945.952,1.269-.079.113a5.572,5.572,0,0,0-.9,2.156l-.025.135-1.576.225v1.337l1.571.225.025.136a5.573,5.573,0,0,0,.887,2.162l.077.113-.954,1.273.945.945,1.269-.951.113.079a5.572,5.572,0,0,0,2.157.9l.135.025.225,1.576h1.337l.225-1.57.136-.025a5.571,5.571,0,0,0,2.162-.888l.113-.077,1.273.955.945-.945-.952-1.269.079-.113a5.572,5.572,0,0,0,.9-2.156l.025-.135,1.576-.225v-1.337l-1.57-.225-.025-.136a5.575,5.575,0,0,0-.887-2.162l-.077-.113.954-1.273-.945-.945-1.269.952-.113-.079a5.562,5.562,0,0,0-2.156-.9l-.135-.025Zm-.685,2.9a4.237,4.237,0,1,1-3,1.241A4.21,4.21,0,0,1,41.881,137.6Zm0,8.091a3.854,3.854,0,1,0-3.854-3.854A3.859,3.859,0,0,0,41.881,145.7Z" transform="translate(-21.202 -82.879)" fill="#263238"/>
      <path id="Trazado_817235" data-name="Trazado 817235" d="M211.176,48.5H213.8l.319,2.233a8.092,8.092,0,0,1,2.887,1.206l1.8-1.348,1.856,1.855-1.353,1.8a8.092,8.092,0,0,1,1.188,2.895l2.224.318v2.623l-2.233.319a8.088,8.088,0,0,1-1.206,2.887l1.347,1.8-1.855,1.855-1.8-1.353a8.086,8.086,0,0,1-2.894,1.188l-.318,2.224h-2.624l-.319-2.233a8.092,8.092,0,0,1-2.887-1.206l-1.8,1.347-1.855-1.855,1.352-1.8a8.1,8.1,0,0,1-1.188-2.894l-2.224-.318V57.42l2.233-.319a8.092,8.092,0,0,1,1.206-2.887l-1.347-1.8,1.855-1.855,1.8,1.353a8.087,8.087,0,0,1,2.894-1.188Zm2.292.383h-1.96l-.31,2.167-.136.025a7.714,7.714,0,0,0-3,1.23l-.113.077L206.2,51.067l-1.386,1.386,1.313,1.752-.079.113a7.719,7.719,0,0,0-1.248,2.989l-.025.135-2.174.311v1.96l2.167.31.025.136a7.725,7.725,0,0,0,1.23,3l.077.113-1.317,1.757,1.386,1.386,1.751-1.313.113.079a7.718,7.718,0,0,0,2.989,1.248l.135.025.311,2.174h1.96l.31-2.167.136-.025a7.714,7.714,0,0,0,3-1.23l.113-.077,1.757,1.317,1.386-1.386L218.808,63.3l.079-.113a7.715,7.715,0,0,0,1.248-2.989l.025-.135,2.175-.311V57.8l-2.167-.31-.025-.136a7.718,7.718,0,0,0-1.23-3l-.077-.113,1.317-1.757L218.767,51.1l-1.751,1.313-.113-.079a7.72,7.72,0,0,0-2.989-1.248l-.135-.025Zm-1,4.122A5.748,5.748,0,1,1,208.4,54.69,5.71,5.71,0,0,1,212.465,53.007Zm0,11.112a5.364,5.364,0,1,0-3.793-1.571A5.329,5.329,0,0,0,212.465,64.119Z" transform="translate(-121.973 -29.926)" fill="#263238"/>
    </g>
    <g id="Grupo_1071069" data-name="Grupo 1071069" transform="translate(215 417)" clip-path="url(#clip-path-2)">
      <path id="Trazado_817236" data-name="Trazado 817236" d="M204.417,148.293H92.952V74.972A3.053,3.053,0,0,1,96,71.919H201.364a3.053,3.053,0,0,1,3.053,3.053Z" transform="translate(-57.353 -44.375)" fill="#263238"/>
      <path id="Trazado_817237" data-name="Trazado 817237" d="M204.108,148.176H92.643a.191.191,0,0,1-.192-.191V74.663A3.248,3.248,0,0,1,95.7,71.419H201.055a3.248,3.248,0,0,1,3.244,3.244v73.321A.191.191,0,0,1,204.108,148.176Zm-111.273-.383H203.917V74.663a2.865,2.865,0,0,0-2.861-2.861H95.7a2.864,2.864,0,0,0-2.861,2.861Z" transform="translate(-57.044 -44.066)" fill="#263238"/>
      <path id="Trazado_817238" data-name="Trazado 817238" d="M194.2,305.1H49.3l16.72-33.762H177.48Z" transform="translate(-30.416 -167.418)" fill="#fff"/>
      <path id="Trazado_817239" data-name="Trazado 817239" d="M193.891,304.982H48.987a.191.191,0,0,1-.172-.276l16.72-33.762a.191.191,0,0,1,.172-.107H177.172a.191.191,0,0,1,.172.107l16.72,33.762a.191.191,0,0,1-.172.276ZM49.3,304.6H193.583l-16.53-33.379H65.826Z" transform="translate(-30.108 -167.11)" fill="#263238"/>
      <path id="Trazado_833110" data-name="Trazado 833110" d="M0,0H97.962V64.279H0Z" transform="translate(42.351 33.591)" fill="#9697f8"/>
      <path id="Rectángulo_375157" data-name="Rectángulo 375157" d="M-.308-.5H97.653a.191.191,0,0,1,.191.191V63.971a.191.191,0,0,1-.191.192H-.308A.191.191,0,0,1-.5,63.971V-.309A.191.191,0,0,1-.308-.5Zm97.77.383H-.117v63.9H97.462Z" transform="translate(42.659 33.9)" fill="#263238"/>
      <path id="Trazado_817240" data-name="Trazado 817240" d="M216.526,292.613l.193-4.114h-5.89l-.39,4.114Z" transform="translate(-129.844 -178.008)" fill="#263238"/>
      <path id="Trazado_817241" data-name="Trazado 817241" d="M216.217,292.5h-6.086a.192.192,0,0,1-.191-.21l.39-4.114a.191.191,0,0,1,.191-.173h5.89a.192.192,0,0,1,.191.2l-.193,4.114A.191.191,0,0,1,216.217,292.5Zm-5.876-.383h5.693l.175-3.731H210.7Z" transform="translate(-129.535 -177.699)" fill="#fff"/>
      <path id="Trazado_817242" data-name="Trazado 817242" d="M248.3,292.613l-.2-4.114h-5.89l0,4.114Z" transform="translate(-149.449 -178.008)" fill="#263238"/>
      <path id="Trazado_817243" data-name="Trazado 817243" d="M248,292.5h-6.086a.192.192,0,0,1-.191-.191l0-4.114a.192.192,0,0,1,.192-.192h5.89a.192.192,0,0,1,.191.182l.2,4.114a.191.191,0,0,1-.191.2Zm-5.9-.383h5.694l-.182-3.731H242.1Z" transform="translate(-149.141 -177.699)" fill="#fff"/>
      <path id="Trazado_817244" data-name="Trazado 817244" d="M338.845,303.64h6.3l-1.478-4.4h-6.086Z" transform="translate(-208.289 -184.636)" fill="#263238"/>
      <path id="Trazado_817245" data-name="Trazado 817245" d="M344.833,303.523h-6.3a.192.192,0,0,1-.184-.138l-1.268-4.4a.192.192,0,0,1,.184-.245h6.086a.192.192,0,0,1,.182.131l1.478,4.4a.192.192,0,0,1-.181.253Zm-6.153-.383h5.887l-1.35-4.016h-5.694Z" transform="translate(-207.981 -184.327)" fill="#fff"/>
      <path id="Trazado_817246" data-name="Trazado 817246" d="M200.634,292.613l.39-4.114h-5.89l-.587,4.114Z" transform="translate(-120.038 -178.008)" fill="#263238"/>
      <path id="Trazado_817247" data-name="Trazado 817247" d="M200.325,292.5h-6.086a.191.191,0,0,1-.19-.219l.587-4.114a.192.192,0,0,1,.19-.164h5.89a.191.191,0,0,1,.191.21l-.39,4.114A.191.191,0,0,1,200.325,292.5Zm-5.866-.383h5.691l.354-3.731h-5.513Z" transform="translate(-119.73 -177.699)" fill="#fff"/>
      <path id="Trazado_817248" data-name="Trazado 817248" d="M168.849,292.613l.784-4.114h-5.89l-.981,4.114Z" transform="translate(-100.426 -178.008)" fill="#263238"/>
      <path id="Trazado_817249" data-name="Trazado 817249" d="M168.54,292.5h-6.087a.191.191,0,0,1-.186-.236l.981-4.114a.192.192,0,0,1,.186-.147h5.89a.191.191,0,0,1,.188.227l-.784,4.114A.191.191,0,0,1,168.54,292.5Zm-5.844-.383h5.686l.711-3.731h-5.507Z" transform="translate(-100.118 -177.699)" fill="#fff"/>
      <path id="Trazado_817250" data-name="Trazado 817250" d="M310.6,292.613l-.988-4.114h-5.89l.792,4.114Z" transform="translate(-187.403 -178.008)" fill="#263238"/>
      <path id="Trazado_817251" data-name="Trazado 817251" d="M310.3,292.5h-6.086a.192.192,0,0,1-.188-.155l-.792-4.114a.191.191,0,0,1,.188-.228h5.89a.192.192,0,0,1,.186.147l.988,4.114a.191.191,0,0,1-.186.236Zm-5.928-.383h5.685l-.9-3.731h-5.507Z" transform="translate(-187.094 -177.699)" fill="#fff"/>
      <path id="Trazado_817252" data-name="Trazado 817252" d="M326.179,292.613l-1.186-4.114H319.1l.989,4.114Z" transform="translate(-196.891 -178.008)" fill="#263238"/>
      <path id="Trazado_817253" data-name="Trazado 817253" d="M325.87,292.5h-6.086a.191.191,0,0,1-.186-.147l-.989-4.114a.192.192,0,0,1,.186-.236h5.89a.191.191,0,0,1,.184.138l1.186,4.114a.191.191,0,0,1-.184.245Zm-5.935-.383h5.681l-1.075-3.731h-5.5Z" transform="translate(-196.582 -177.699)" fill="#fff"/>
      <path id="Trazado_817254" data-name="Trazado 817254" d="M152.957,292.613l.981-4.114h-5.889l-1.178,4.114Z" transform="translate(-90.621 -178.008)" fill="#263238"/>
      <path id="Trazado_817255" data-name="Trazado 817255" d="M152.648,292.5h-6.086a.192.192,0,0,1-.184-.244l1.178-4.114a.191.191,0,0,1,.184-.139h5.889a.192.192,0,0,1,.186.236l-.981,4.114A.192.192,0,0,1,152.648,292.5Zm-5.832-.383H152.5l.889-3.731h-5.5Z" transform="translate(-90.312 -177.699)" fill="#fff"/>
      <path id="Trazado_817256" data-name="Trazado 817256" d="M263.879,292.613l-.4-4.114h-5.89l.2,4.114Z" transform="translate(-158.938 -178.008)" fill="#263238"/>
      <path id="Trazado_817257" data-name="Trazado 817257" d="M263.571,292.5h-6.086a.192.192,0,0,1-.191-.182l-.2-4.114a.192.192,0,0,1,.191-.2h5.89a.191.191,0,0,1,.191.173l.4,4.114a.192.192,0,0,1-.191.21Zm-5.9-.383h5.693L263,288.382h-5.515Z" transform="translate(-158.629 -177.699)" fill="#fff"/>
      <path id="Trazado_817258" data-name="Trazado 817258" d="M341.754,292.613l-1.383-4.114h-5.889l1.185,4.114Z" transform="translate(-206.38 -178.008)" fill="#263238"/>
      <path id="Trazado_817259" data-name="Trazado 817259" d="M341.445,292.5h-6.086a.191.191,0,0,1-.184-.139l-1.185-4.114a.192.192,0,0,1,.184-.245h5.889a.192.192,0,0,1,.182.131l1.383,4.114a.191.191,0,0,1-.181.253Zm-5.942-.383h5.676l-1.254-3.731h-5.5Z" transform="translate(-206.071 -177.699)" fill="#fff"/>
      <path id="Trazado_817260" data-name="Trazado 817260" d="M295.029,292.613l-.792-4.114h-5.89l.595,4.114Z" transform="translate(-177.914 -178.008)" fill="#263238"/>
      <path id="Trazado_817261" data-name="Trazado 817261" d="M294.72,292.5h-6.086a.192.192,0,0,1-.19-.164l-.595-4.114a.191.191,0,0,1,.19-.219h5.89a.192.192,0,0,1,.188.155l.792,4.114a.192.192,0,0,1-.188.228Zm-5.921-.383h5.689l-.718-3.731h-5.51Z" transform="translate(-177.606 -177.699)" fill="#fff"/>
      <path id="Trazado_817262" data-name="Trazado 817262" d="M279.454,292.613l-.594-4.114h-5.89l.4,4.114Z" transform="translate(-168.426 -178.008)" fill="#263238"/>
      <path id="Trazado_817263" data-name="Trazado 817263" d="M279.145,292.5h-6.086a.192.192,0,0,1-.191-.173l-.4-4.114a.192.192,0,0,1,.191-.21h5.89a.191.191,0,0,1,.19.164l.594,4.114a.192.192,0,0,1-.19.219Zm-5.913-.383h5.691l-.539-3.731h-5.513Z" transform="translate(-168.117 -177.699)" fill="#fff"/>
      <path id="Trazado_817264" data-name="Trazado 817264" d="M232.418,292.613l0-4.114h-5.89l-.193,4.114Z" transform="translate(-139.65 -178.008)" fill="#263238"/>
      <path id="Trazado_817265" data-name="Trazado 817265" d="M232.11,292.5h-6.086a.192.192,0,0,1-.191-.2l.193-4.114a.192.192,0,0,1,.191-.183h5.89a.191.191,0,0,1,.191.191l0,4.114a.192.192,0,0,1-.191.192Zm-5.886-.383h5.694l0-3.731H226.4Z" transform="translate(-139.341 -177.699)" fill="#fff"/>
      <path id="Trazado_817266" data-name="Trazado 817266" d="M118.465,299.241h-6.086l-1.681,4.4h6.3Z" transform="translate(-68.302 -184.636)" fill="#263238"/>
      <path id="Trazado_817267" data-name="Trazado 817267" d="M112.07,298.741h6.086a.191.191,0,0,1,.182.252l-1.47,4.4a.191.191,0,0,1-.182.131h-6.3a.191.191,0,0,1-.179-.26l1.681-4.4A.192.192,0,0,1,112.07,298.741Zm5.821.383H112.2l-1.534,4.016h5.881Z" transform="translate(-67.994 -184.327)" fill="#fff"/>
      <path id="Trazado_817268" data-name="Trazado 817268" d="M122.547,288.5h-5.89l-1.572,4.114h6.086Z" transform="translate(-71.01 -178.008)" fill="#263238"/>
      <path id="Trazado_817269" data-name="Trazado 817269" d="M116.349,288h5.89a.192.192,0,0,1,.182.252l-1.375,4.114a.191.191,0,0,1-.182.131h-6.086a.191.191,0,0,1-.179-.26l1.572-4.114A.192.192,0,0,1,116.349,288Zm5.624.383h-5.492l-1.425,3.731h5.67Z" transform="translate(-70.701 -177.699)" fill="#fff"/>
      <path id="Trazado_817270" data-name="Trazado 817270" d="M137.065,292.613l1.178-4.114h-5.889l-1.375,4.114Z" transform="translate(-80.815 -178.008)" fill="#263238"/>
      <path id="Trazado_817271" data-name="Trazado 817271" d="M136.756,292.5H130.67a.191.191,0,0,1-.182-.252l1.375-4.114a.191.191,0,0,1,.182-.131h5.889a.192.192,0,0,1,.184.244l-1.178,4.114A.191.191,0,0,1,136.756,292.5Zm-5.821-.383h5.676l1.068-3.731h-5.5Z" transform="translate(-80.507 -177.699)" fill="#fff"/>
      <path id="Trazado_817272" data-name="Trazado 817272" d="M102.878,323.036l-1.935,5.064h6.765l1.692-5.064Z" transform="translate(-62.283 -199.317)" fill="#263238"/>
      <path id="Trazado_817273" data-name="Trazado 817273" d="M102.569,322.536h6.523a.192.192,0,0,1,.182.252l-1.692,5.064a.192.192,0,0,1-.182.131h-6.765a.191.191,0,0,1-.179-.26l1.935-5.064A.192.192,0,0,1,102.569,322.536Zm6.257.383H102.7l-1.789,4.681h6.349Z" transform="translate(-61.975 -199.009)" fill="#fff"/>
      <path id="Trazado_817274" data-name="Trazado 817274" d="M114.093,310.727h-6.3l-1.8,4.714h6.523Z" transform="translate(-65.4 -191.723)" fill="#263238"/>
      <path id="Trazado_817275" data-name="Trazado 817275" d="M107.487,310.227h6.3a.192.192,0,0,1,.182.252l-1.575,4.714a.191.191,0,0,1-.182.131h-6.523a.191.191,0,0,1-.179-.26l1.8-4.714A.192.192,0,0,1,107.487,310.227Zm6.031.383h-5.9l-1.655,4.331h6.107Z" transform="translate(-65.092 -191.414)" fill="#fff"/>
      <path id="Trazado_817276" data-name="Trazado 817276" d="M120.3,323.036l-1.692,5.064h6.765l1.45-5.064Z" transform="translate(-73.182 -199.317)" fill="#263238"/>
      <path id="Trazado_817277" data-name="Trazado 817277" d="M119.991,322.536h6.523a.191.191,0,0,1,.184.244l-1.45,5.064a.192.192,0,0,1-.184.139H118.3a.192.192,0,0,1-.182-.252l1.692-5.064A.192.192,0,0,1,119.991,322.536Zm6.269.383h-6.131l-1.564,4.681h6.355Z" transform="translate(-72.874 -199.009)" fill="#fff"/>
      <path id="Trazado_817278" data-name="Trazado 817278" d="M184.741,292.613l.587-4.114h-5.89l-.784,4.114Z" transform="translate(-110.232 -178.008)" fill="#263238"/>
      <path id="Trazado_817279" data-name="Trazado 817279" d="M184.433,292.5h-6.086a.192.192,0,0,1-.188-.227l.784-4.114a.192.192,0,0,1,.188-.156h5.89a.191.191,0,0,1,.19.219l-.587,4.114A.192.192,0,0,1,184.433,292.5Zm-5.855-.383h5.689l.532-3.731h-5.51Z" transform="translate(-109.924 -177.699)" fill="#fff"/>
      <path id="Trazado_817280" data-name="Trazado 817280" d="M182.763,303.64l.628-4.4H177.3l-.838,4.4Z" transform="translate(-108.882 -184.636)" fill="#263238"/>
      <path id="Trazado_817281" data-name="Trazado 817281" d="M182.454,303.523h-6.3a.192.192,0,0,1-.188-.227l.838-4.4a.192.192,0,0,1,.188-.156h6.086a.192.192,0,0,1,.19.219l-.628,4.4A.191.191,0,0,1,182.454,303.523Zm-6.066-.383h5.9l.573-4.016h-5.707Z" transform="translate(-108.573 -184.327)" fill="#fff"/>
      <path id="Trazado_817282" data-name="Trazado 817282" d="M166.321,303.64l.838-4.4h-6.087l-1.049,4.4Z" transform="translate(-98.737 -184.636)" fill="#263238"/>
      <path id="Trazado_817283" data-name="Trazado 817283" d="M166.012,303.523h-6.3a.192.192,0,0,1-.186-.236l1.049-4.4a.192.192,0,0,1,.186-.147h6.087a.192.192,0,0,1,.188.227l-.838,4.4A.192.192,0,0,1,166.012,303.523Zm-6.055-.383h5.9l.765-4.016h-5.7Z" transform="translate(-98.428 -184.327)" fill="#fff"/>
      <path id="Trazado_817284" data-name="Trazado 817284" d="M199.205,303.64l.417-4.4h-6.086l-.628,4.4Z" transform="translate(-119.027 -184.636)" fill="#263238"/>
      <path id="Trazado_817285" data-name="Trazado 817285" d="M198.9,303.523h-6.3a.192.192,0,0,1-.19-.219l.628-4.4a.192.192,0,0,1,.19-.164h6.086a.192.192,0,0,1,.191.21l-.417,4.4A.191.191,0,0,1,198.9,303.523Zm-6.076-.383h5.9l.381-4.016h-5.71Z" transform="translate(-118.718 -184.327)" fill="#fff"/>
      <path id="Trazado_817286" data-name="Trazado 817286" d="M134.7,299.241H128.61l-1.47,4.4h6.3Z" transform="translate(-78.447 -184.636)" fill="#263238"/>
      <path id="Trazado_817287" data-name="Trazado 817287" d="M128.3,298.741h6.086a.191.191,0,0,1,.184.244l-1.259,4.4a.191.191,0,0,1-.184.139h-6.3a.191.191,0,0,1-.182-.252l1.47-4.4A.191.191,0,0,1,128.3,298.741Zm5.832.383h-5.694L127.1,303.14h5.887Z" transform="translate(-78.138 -184.327)" fill="#fff"/>
      <path id="Trazado_817288" data-name="Trazado 817288" d="M342.245,315.441h6.523l-1.584-4.714h-6.3Z" transform="translate(-210.331 -191.722)" fill="#263238"/>
      <path id="Trazado_817289" data-name="Trazado 817289" d="M348.459,315.324h-6.523a.191.191,0,0,1-.184-.138l-1.358-4.714a.192.192,0,0,1,.184-.245h6.3a.192.192,0,0,1,.182.13l1.584,4.714a.192.192,0,0,1-.182.252Zm-6.379-.383h6.112l-1.455-4.331h-5.9Z" transform="translate(-210.023 -191.414)" fill="#fff"/>
      <path id="Trazado_817290" data-name="Trazado 817290" d="M149.879,303.64l1.049-4.4h-6.086l-1.259,4.4Z" transform="translate(-88.592 -184.636)" fill="#263238"/>
      <path id="Trazado_817291" data-name="Trazado 817291" d="M149.57,303.523h-6.3a.192.192,0,0,1-.184-.244l1.259-4.4a.191.191,0,0,1,.184-.139h6.086a.192.192,0,0,1,.186.236l-1.049,4.4A.191.191,0,0,1,149.57,303.523Zm-6.043-.383h5.892l.957-4.016h-5.7Z" transform="translate(-88.283 -184.327)" fill="#fff"/>
      <path id="Trazado_817292" data-name="Trazado 817292" d="M124.6,310.727l-1.575,4.714h6.523l1.35-4.714Z" transform="translate(-75.909 -191.723)" fill="#263238"/>
      <path id="Trazado_817293" data-name="Trazado 817293" d="M124.293,310.227h6.3a.192.192,0,0,1,.184.244l-1.35,4.714a.191.191,0,0,1-.184.139h-6.523a.191.191,0,0,1-.182-.252l1.575-4.714A.192.192,0,0,1,124.293,310.227Zm6.043.383h-5.905l-1.447,4.331H129.1Z" transform="translate(-75.6 -191.414)" fill="#fff"/>
      <path id="Trazado_817294" data-name="Trazado 817294" d="M296.833,303.64l-.846-4.4H289.9l.636,4.4Z" transform="translate(-178.872 -184.636)" fill="#263238"/>
      <path id="Trazado_817295" data-name="Trazado 817295" d="M296.525,303.523h-6.3a.192.192,0,0,1-.19-.164l-.636-4.4a.192.192,0,0,1,.19-.219h6.086a.192.192,0,0,1,.188.155l.846,4.4a.192.192,0,0,1-.188.228Zm-6.131-.383h5.9l-.773-4.016h-5.707Z" transform="translate(-178.564 -184.327)" fill="#fff"/>
      <path id="Trazado_817296" data-name="Trazado 817296" d="M280.73,303.64l-.636-4.4h-6.087l.425,4.4Z" transform="translate(-169.066 -184.636)" fill="#263238"/>
      <path id="Trazado_817297" data-name="Trazado 817297" d="M280.422,303.523h-6.3a.191.191,0,0,1-.191-.173l-.426-4.4a.192.192,0,0,1,.191-.21h6.087a.192.192,0,0,1,.19.164l.636,4.4a.191.191,0,0,1-.19.219Zm-6.123-.383h5.9l-.58-4.016h-5.71Z" transform="translate(-168.758 -184.327)" fill="#fff"/>
      <path id="Trazado_817298" data-name="Trazado 817298" d="M329.039,303.64l-1.268-4.4h-6.086l1.057,4.4Z" transform="translate(-198.484 -184.636)" fill="#263238"/>
      <path id="Trazado_817299" data-name="Trazado 817299" d="M328.73,303.523h-6.3a.192.192,0,0,1-.186-.147l-1.057-4.4a.192.192,0,0,1,.186-.236h6.086a.191.191,0,0,1,.184.138l1.268,4.4a.191.191,0,0,1-.184.245Zm-6.146-.383h5.892l-1.157-4.016h-5.7Z" transform="translate(-198.175 -184.327)" fill="#fff"/>
      <path id="Trazado_817300" data-name="Trazado 817300" d="M232.089,303.64l0-4.4H226l-.206,4.4Z" transform="translate(-139.317 -184.636)" fill="#263238"/>
      <path id="Trazado_817301" data-name="Trazado 817301" d="M231.781,303.523h-6.3a.192.192,0,0,1-.191-.2l.206-4.4a.192.192,0,0,1,.191-.183h6.087a.192.192,0,0,1,.191.191l0,4.4a.192.192,0,0,1-.191.192Zm-6.1-.383h5.9l0-4.016h-5.713Z" transform="translate(-139.008 -184.327)" fill="#fff"/>
      <path id="Trazado_817302" data-name="Trazado 817302" d="M264.628,303.64l-.425-4.4h-6.086l.215,4.4Z" transform="translate(-159.261 -184.636)" fill="#263238"/>
      <path id="Trazado_817303" data-name="Trazado 817303" d="M264.319,303.523h-6.3a.191.191,0,0,1-.191-.182l-.214-4.4a.191.191,0,0,1,.191-.2h6.086a.191.191,0,0,1,.191.173l.425,4.4a.192.192,0,0,1-.191.21Zm-6.115-.383h5.9l-.388-4.016h-5.712Z" transform="translate(-158.953 -184.327)" fill="#fff"/>
      <path id="Trazado_817304" data-name="Trazado 817304" d="M248.525,303.64l-.215-4.4h-6.086l0,4.4Z" transform="translate(-149.455 -184.636)" fill="#263238"/>
      <path id="Trazado_817305" data-name="Trazado 817305" d="M248.216,303.523h-6.3a.192.192,0,0,1-.191-.191l0-4.4a.192.192,0,0,1,.191-.192H248a.192.192,0,0,1,.191.182l.215,4.4a.192.192,0,0,1-.191.2Zm-6.106-.383h5.9l-.2-4.016h-5.712Z" transform="translate(-149.147 -184.327)" fill="#fff"/>
      <path id="Trazado_817306" data-name="Trazado 817306" d="M215.647,303.64l.206-4.4h-6.086l-.417,4.4Z" transform="translate(-129.172 -184.636)" fill="#263238"/>
      <path id="Trazado_817307" data-name="Trazado 817307" d="M215.339,303.523h-6.3a.191.191,0,0,1-.191-.21l.417-4.4a.192.192,0,0,1,.191-.173h6.086a.192.192,0,0,1,.191.2l-.206,4.4A.192.192,0,0,1,215.339,303.523Zm-6.087-.383h5.9l.188-4.016h-5.712Z" transform="translate(-128.863 -184.327)" fill="#fff"/>
      <path id="Trazado_817308" data-name="Trazado 817308" d="M275.118,310.727l.456,4.714H282.1l-.681-4.714Z" transform="translate(-169.751 -191.723)" fill="#263238"/>
      <path id="Trazado_817309" data-name="Trazado 817309" d="M274.81,310.227h6.3a.191.191,0,0,1,.19.164l.681,4.714a.192.192,0,0,1-.19.219h-6.523a.192.192,0,0,1-.191-.173l-.456-4.714a.192.192,0,0,1,.191-.21Zm6.131.383h-5.92l.419,4.331h6.128Z" transform="translate(-169.443 -191.414)" fill="#fff"/>
      <path id="Trazado_817310" data-name="Trazado 817310" d="M291.561,310.727l.681,4.714h6.523l-.907-4.714Z" transform="translate(-179.897 -191.723)" fill="#263238"/>
      <path id="Trazado_817311" data-name="Trazado 817311" d="M291.252,310.227h6.3a.192.192,0,0,1,.188.155l.907,4.714a.191.191,0,0,1-.188.228h-6.523a.191.191,0,0,1-.19-.164l-.681-4.714a.191.191,0,0,1,.19-.219Zm6.139.383h-5.918l.626,4.331h6.125Z" transform="translate(-179.588 -191.414)" fill="#fff"/>
      <path id="Trazado_817312" data-name="Trazado 817312" d="M141.408,310.727l-1.35,4.714h6.523l1.124-4.714Z" transform="translate(-86.418 -191.723)" fill="#263238"/>
      <path id="Trazado_817313" data-name="Trazado 817313" d="M141.1,310.227h6.3a.192.192,0,0,1,.186.236l-1.124,4.714a.191.191,0,0,1-.186.147h-6.523a.191.191,0,0,1-.184-.244l1.35-4.714A.191.191,0,0,1,141.1,310.227Zm6.055.383h-5.91L140,314.941h6.117Z" transform="translate(-86.109 -191.414)" fill="#fff"/>
      <path id="Trazado_817314" data-name="Trazado 817314" d="M308,310.727l.907,4.714h6.523l-1.133-4.714Z" transform="translate(-190.041 -191.723)" fill="#263238"/>
      <path id="Trazado_817315" data-name="Trazado 817315" d="M307.694,310.227h6.3a.191.191,0,0,1,.186.147l1.133,4.714a.191.191,0,0,1-.186.236H308.6a.191.191,0,0,1-.188-.155l-.907-4.714a.191.191,0,0,1,.188-.228Zm6.146.383h-5.914l.833,4.331h6.122Z" transform="translate(-189.733 -191.414)" fill="#fff"/>
      <path id="Trazado_817316" data-name="Trazado 817316" d="M242.234,310.727l0,4.714h6.523l-.23-4.714Z" transform="translate(-149.462 -191.723)" fill="#263238"/>
      <path id="Trazado_817317" data-name="Trazado 817317" d="M241.926,310.227h6.3a.191.191,0,0,1,.191.182l.23,4.714a.191.191,0,0,1-.191.2H241.93a.191.191,0,0,1-.191-.191l0-4.714a.192.192,0,0,1,.191-.192Zm6.115.383h-5.923l0,4.331h6.13Z" transform="translate(-149.153 -191.414)" fill="#fff"/>
      <path id="Trazado_817318" data-name="Trazado 817318" d="M324.445,310.727l1.133,4.714H332.1l-1.358-4.714Z" transform="translate(-200.186 -191.723)" fill="#263238"/>
      <path id="Trazado_817319" data-name="Trazado 817319" d="M324.136,310.227h6.3a.191.191,0,0,1,.184.138l1.358,4.714a.191.191,0,0,1-.184.245h-6.523a.191.191,0,0,1-.186-.147l-1.133-4.714a.192.192,0,0,1,.186-.236Zm6.153.383h-5.91l1.041,4.331h6.117Z" transform="translate(-199.878 -191.414)" fill="#fff"/>
      <path id="Trazado_817320" data-name="Trazado 817320" d="M258.677,310.727l.23,4.714h6.523l-.456-4.714Z" transform="translate(-159.607 -191.723)" fill="#263238"/>
      <path id="Trazado_817321" data-name="Trazado 817321" d="M258.368,310.227h6.3a.191.191,0,0,1,.191.173l.456,4.714a.192.192,0,0,1-.191.21H258.6a.192.192,0,0,1-.191-.182l-.23-4.714a.191.191,0,0,1,.191-.2Zm6.123.383h-5.922l.211,4.331h6.13Z" transform="translate(-159.298 -191.414)" fill="#fff"/>
      <path id="Trazado_817322" data-name="Trazado 817322" d="M175.018,310.727l-.9,4.714h6.523l.673-4.714Z" transform="translate(-107.434 -191.723)" fill="#263238"/>
      <path id="Trazado_817323" data-name="Trazado 817323" d="M174.71,310.227h6.3a.191.191,0,0,1,.19.219l-.673,4.714a.191.191,0,0,1-.19.164h-6.523a.191.191,0,0,1-.188-.227l.9-4.714A.192.192,0,0,1,174.71,310.227Zm6.076.383h-5.918l-.826,4.331h6.125Z" transform="translate(-107.126 -191.414)" fill="#fff"/>
      <path id="Trazado_817324" data-name="Trazado 817324" d="M158.213,310.727l-1.124,4.714h6.523l.9-4.714Z" transform="translate(-96.926 -191.723)" fill="#263238"/>
      <path id="Trazado_817325" data-name="Trazado 817325" d="M157.9,310.227h6.3a.192.192,0,0,1,.188.227l-.9,4.714a.191.191,0,0,1-.188.156H156.78a.191.191,0,0,1-.186-.236l1.124-4.714A.191.191,0,0,1,157.9,310.227Zm6.066.383h-5.914l-1.033,4.331h6.122Z" transform="translate(-96.617 -191.414)" fill="#fff"/>
      <path id="Trazado_817326" data-name="Trazado 817326" d="M225.436,310.727l-.221,4.714h6.523l0-4.714Z" transform="translate(-138.96 -191.723)" fill="#263238"/>
      <path id="Trazado_817327" data-name="Trazado 817327" d="M225.127,310.227h6.3a.192.192,0,0,1,.191.191l0,4.714a.191.191,0,0,1-.191.192h-6.523a.191.191,0,0,1-.191-.2l.221-4.714A.192.192,0,0,1,225.127,310.227Zm6.106.383H225.31l-.2,4.331h6.131Z" transform="translate(-138.652 -191.414)" fill="#fff"/>
      <path id="Trazado_817328" data-name="Trazado 817328" d="M208.63,310.727l-.447,4.714h6.523l.221-4.714Z" transform="translate(-128.452 -191.723)" fill="#263238"/>
      <path id="Trazado_817329" data-name="Trazado 817329" d="M208.322,310.227h6.3a.192.192,0,0,1,.191.2l-.221,4.714a.191.191,0,0,1-.191.182h-6.523a.191.191,0,0,1-.191-.21l.447-4.714A.192.192,0,0,1,208.322,310.227Zm6.1.383H208.5l-.411,4.331h6.129Z" transform="translate(-128.143 -191.414)" fill="#fff"/>
      <path id="Trazado_817330" data-name="Trazado 817330" d="M191.824,310.727l-.673,4.714h6.523l.447-4.714Z" transform="translate(-117.943 -191.723)" fill="#263238"/>
      <path id="Trazado_817331" data-name="Trazado 817331" d="M191.516,310.227h6.3a.192.192,0,0,1,.191.21l-.447,4.714a.191.191,0,0,1-.191.173h-6.523a.191.191,0,0,1-.19-.219l.673-4.714A.191.191,0,0,1,191.516,310.227Zm6.087.383h-5.92l-.618,4.331h6.128Z" transform="translate(-117.635 -191.414)" fill="#fff"/>
      <path id="Trazado_817332" data-name="Trazado 817332" d="M312.936,303.64l-1.057-4.4h-6.086l.846,4.4Z" transform="translate(-188.678 -184.636)" fill="#263238"/>
      <path id="Trazado_817333" data-name="Trazado 817333" d="M312.628,303.523h-6.3a.192.192,0,0,1-.188-.155l-.846-4.4a.191.191,0,0,1,.188-.228h6.086a.192.192,0,0,1,.186.147l1.057,4.4a.192.192,0,0,1-.186.236Zm-6.139-.383h5.9l-.965-4.016h-5.7Z" transform="translate(-188.369 -184.327)" fill="#fff"/>
      <path id="Trazado_817334" data-name="Trazado 817334" d="M125.08,281.715l1.407-4.211H120.8l-1.609,4.211Z" transform="translate(-73.542 -171.224)" fill="#263238"/>
      <path id="Trazado_817335" data-name="Trazado 817335" d="M124.771,281.6h-5.89a.191.191,0,0,1-.179-.26l1.609-4.211a.192.192,0,0,1,.179-.123h5.688a.192.192,0,0,1,.182.252l-1.407,4.211A.192.192,0,0,1,124.771,281.6Zm-5.611-.383h5.474l1.279-3.828h-5.29Z" transform="translate(-73.233 -170.915)" fill="#fff"/>
      <path id="Trazado_817336" data-name="Trazado 817336" d="M107.606,288.5H102.17l-1.754,4.114h5.618Z" transform="translate(-61.958 -178.008)" fill="#263238"/>
      <path id="Trazado_817337" data-name="Trazado 817337" d="M101.861,288H107.3a.192.192,0,0,1,.179.26l-1.572,4.114a.192.192,0,0,1-.179.123h-5.618a.191.191,0,0,1-.176-.267l1.754-4.114A.191.191,0,0,1,101.861,288Zm5.158.383h-5.032l-1.59,3.731h5.2Z" transform="translate(-61.649 -177.699)" fill="#fff"/>
      <path id="Trazado_817338" data-name="Trazado 817338" d="M112.04,277.5h-5.25l-1.8,4.211h5.437Z" transform="translate(-64.783 -171.224)" fill="#263238"/>
      <path id="Trazado_817339" data-name="Trazado 817339" d="M106.481,277h5.25a.192.192,0,0,1,.179.26l-1.609,4.211a.192.192,0,0,1-.179.123h-5.436a.192.192,0,0,1-.176-.267l1.8-4.211A.191.191,0,0,1,106.481,277Zm4.972.383h-4.846l-1.632,3.828h5.015Z" transform="translate(-64.475 -170.915)" fill="#fff"/>
      <path id="Trazado_817340" data-name="Trazado 817340" d="M103.014,299.241H97.4l-1.875,4.4h5.813Z" transform="translate(-58.937 -184.636)" fill="#263238"/>
      <path id="Trazado_817341" data-name="Trazado 817341" d="M97.087,298.741h5.618a.191.191,0,0,1,.179.26l-1.681,4.4a.191.191,0,0,1-.179.123H95.212a.192.192,0,0,1-.176-.267l1.875-4.4A.192.192,0,0,1,97.087,298.741Zm5.34.383H97.213L95.5,303.14h5.391Z" transform="translate(-58.629 -184.327)" fill="#fff"/>
      <path id="Trazado_817342" data-name="Trazado 817342" d="M98.1,310.727H92.283l-2.009,4.714h6.021Z" transform="translate(-55.7 -191.723)" fill="#263238"/>
      <path id="Trazado_817343" data-name="Trazado 817343" d="M91.975,310.227h5.813a.192.192,0,0,1,.179.26l-1.8,4.714a.191.191,0,0,1-.179.123H89.965a.191.191,0,0,1-.176-.267l2.009-4.714A.191.191,0,0,1,91.975,310.227Zm5.535.383H92.1l-1.846,4.331h5.6Z" transform="translate(-55.392 -191.414)" fill="#fff"/>
      <path id="Trazado_817344" data-name="Trazado 817344" d="M92.817,323.036H86.8L84.637,328.1h6.245Z" transform="translate(-52.222 -199.317)" fill="#263238"/>
      <path id="Trazado_817345" data-name="Trazado 817345" d="M86.487,322.536h6.021a.192.192,0,0,1,.179.26l-1.935,5.064a.191.191,0,0,1-.179.123H84.329a.191.191,0,0,1-.176-.267l2.159-5.064A.192.192,0,0,1,86.487,322.536Zm5.743.383H86.614l-2,4.681h5.823Z" transform="translate(-51.914 -199.009)" fill="#fff"/>
      <path id="Trazado_817346" data-name="Trazado 817346" d="M369.362,299.241l1.689,4.4h5.571l-1.875-4.4Z" transform="translate(-227.901 -184.636)" fill="#263238"/>
      <path id="Trazado_817347" data-name="Trazado 817347" d="M369.053,298.741h5.384a.191.191,0,0,1,.176.116l1.875,4.4a.191.191,0,0,1-.176.267h-5.571a.191.191,0,0,1-.179-.123l-1.689-4.4a.191.191,0,0,1,.179-.26Zm5.258.383h-4.979l1.542,4.016h5.149Z" transform="translate(-227.592 -184.327)" fill="#fff"/>
      <path id="Trazado_817348" data-name="Trazado 817348" d="M375.581,315.441h5.77l-2.009-4.714h-5.571Z" transform="translate(-230.622 -191.722)" fill="#263238"/>
      <path id="Trazado_817349" data-name="Trazado 817349" d="M381.042,315.324h-5.77a.191.191,0,0,1-.179-.123l-1.81-4.714a.192.192,0,0,1,.179-.26h5.571a.192.192,0,0,1,.176.116l2.009,4.714a.192.192,0,0,1-.176.267Zm-5.638-.383h5.349l-1.846-4.331h-5.165Z" transform="translate(-230.313 -191.414)" fill="#fff"/>
      <path id="Trazado_817350" data-name="Trazado 817350" d="M380.44,328.1h5.985l-2.159-5.064H378.5Z" transform="translate(-233.537 -199.317)" fill="#263238"/>
      <path id="Trazado_817351" data-name="Trazado 817351" d="M386.116,327.984h-5.985a.192.192,0,0,1-.179-.123l-1.944-5.064a.192.192,0,0,1,.179-.26h5.77a.191.191,0,0,1,.176.116l2.158,5.064a.191.191,0,0,1-.176.267Zm-5.853-.383h5.563l-2-4.681h-5.365Z" transform="translate(-233.228 -199.009)" fill="#fff"/>
      <path id="Trazado_817352" data-name="Trazado 817352" d="M248.1,281.715l-.205-4.211H242.2l0,4.211Z" transform="translate(-149.443 -171.224)" fill="#263238"/>
      <path id="Trazado_817353" data-name="Trazado 817353" d="M247.789,281.6H241.9a.192.192,0,0,1-.191-.191l0-4.211A.192.192,0,0,1,241.9,277h5.688a.192.192,0,0,1,.191.182l.205,4.211a.191.191,0,0,1-.191.2Zm-5.7-.383h5.5l-.187-3.828h-5.314Z" transform="translate(-149.134 -170.915)" fill="#fff"/>
      <path id="Trazado_817354" data-name="Trazado 817354" d="M366.817,292.613H372.2l-1.754-4.114h-5.21Z" transform="translate(-225.356 -178.008)" fill="#263238"/>
      <path id="Trazado_817355" data-name="Trazado 817355" d="M371.893,292.5h-5.384a.191.191,0,0,1-.179-.123l-1.579-4.114a.192.192,0,0,1,.179-.26h5.21a.192.192,0,0,1,.176.116l1.754,4.114a.191.191,0,0,1-.176.267Zm-5.253-.383H371.6l-1.59-3.731h-4.8Z" transform="translate(-225.048 -177.699)" fill="#fff"/>
      <path id="Trazado_817356" data-name="Trazado 817356" d="M358.913,315.441h6.523l-1.81-4.714h-6.3Z" transform="translate(-220.477 -191.722)" fill="#263238"/>
      <path id="Trazado_817357" data-name="Trazado 817357" d="M365.127,315.324H358.6a.191.191,0,0,1-.181-.13l-1.584-4.714a.192.192,0,0,1,.181-.253h6.3a.192.192,0,0,1,.179.123l1.81,4.714a.191.191,0,0,1-.179.26Zm-6.385-.383h6.106l-1.663-4.331h-5.9Z" transform="translate(-220.168 -191.414)" fill="#fff"/>
      <path id="Trazado_817358" data-name="Trazado 817358" d="M140.457,281.715l1.206-4.211h-5.688l-1.407,4.211Z" transform="translate(-83.03 -171.224)" fill="#263238"/>
      <path id="Trazado_817359" data-name="Trazado 817359" d="M140.149,281.6h-5.89a.192.192,0,0,1-.182-.252l1.407-4.211a.192.192,0,0,1,.182-.131h5.688a.192.192,0,0,1,.184.244l-1.206,4.211A.192.192,0,0,1,140.149,281.6Zm-5.624-.383H140l1.1-3.828h-5.3Z" transform="translate(-82.722 -170.915)" fill="#fff"/>
      <path id="Trazado_817360" data-name="Trazado 817360" d="M349.86,288.5l1.383,4.114h6.086l-1.579-4.114Z" transform="translate(-215.868 -178.008)" fill="#263238"/>
      <path id="Trazado_817361" data-name="Trazado 817361" d="M349.551,288h5.89a.191.191,0,0,1,.179.123l1.579,4.114a.191.191,0,0,1-.179.26h-6.086a.191.191,0,0,1-.182-.13l-1.383-4.114a.192.192,0,0,1,.182-.253Zm5.758.383h-5.492l1.254,3.731h5.67Z" transform="translate(-215.559 -177.699)" fill="#fff"/>
      <path id="Trazado_817362" data-name="Trazado 817362" d="M367.843,281.715l-1.8-4.211h-5.032l1.617,4.211Z" transform="translate(-222.752 -171.224)" fill="#263238"/>
      <path id="Trazado_817363" data-name="Trazado 817363" d="M367.535,281.6h-5.21a.192.192,0,0,1-.179-.123l-1.617-4.211a.192.192,0,0,1,.179-.26h5.032a.192.192,0,0,1,.176.116l1.8,4.211a.192.192,0,0,1-.176.267Zm-5.079-.383h4.789l-1.632-3.828h-4.627Z" transform="translate(-222.443 -170.915)" fill="#fff"/>
      <path id="Trazado_817364" data-name="Trazado 817364" d="M353.469,281.715l-1.617-4.211h-5.688l1.415,4.211Z" transform="translate(-213.588 -171.224)" fill="#263238"/>
      <path id="Trazado_817365" data-name="Trazado 817365" d="M353.161,281.6h-5.89a.192.192,0,0,1-.182-.131l-1.415-4.211a.192.192,0,0,1,.182-.253h5.688a.191.191,0,0,1,.179.123l1.617,4.211a.192.192,0,0,1-.179.26Zm-5.752-.383h5.473l-1.47-3.828h-5.29Z" transform="translate(-213.28 -170.915)" fill="#fff"/>
      <path id="Trazado_817366" data-name="Trazado 817366" d="M310.371,323.036l.974,5.064h6.766l-1.217-5.064Z" transform="translate(-191.503 -199.317)" fill="#263238"/>
      <path id="Trazado_817367" data-name="Trazado 817367" d="M310.063,322.536h6.523a.191.191,0,0,1,.186.147l1.217,5.064a.192.192,0,0,1-.186.236h-6.765a.191.191,0,0,1-.188-.155l-.974-5.064a.192.192,0,0,1,.188-.228Zm6.372.383h-6.14l.9,4.681h6.364Z" transform="translate(-191.194 -199.009)" fill="#fff"/>
      <path id="Trazado_817368" data-name="Trazado 817368" d="M363.167,328.1h6.765l-1.944-5.064h-6.523Z" transform="translate(-223.029 -199.317)" fill="#263238"/>
      <path id="Trazado_817369" data-name="Trazado 817369" d="M369.624,327.984h-6.765a.191.191,0,0,1-.181-.131l-1.7-5.064a.192.192,0,0,1,.182-.253h6.523a.192.192,0,0,1,.179.123l1.944,5.064a.192.192,0,0,1-.179.26ZM363,327.6h6.349l-1.8-4.681h-6.125Z" transform="translate(-222.72 -199.009)" fill="#fff"/>
      <path id="Trazado_817370" data-name="Trazado 817370" d="M338.416,281.715,337,277.5h-5.688l1.213,4.211Z" transform="translate(-204.425 -171.224)" fill="#263238"/>
      <path id="Trazado_817371" data-name="Trazado 817371" d="M338.108,281.6h-5.89a.191.191,0,0,1-.184-.138l-1.213-4.211a.192.192,0,0,1,.184-.245h5.688a.192.192,0,0,1,.182.131l1.415,4.211a.191.191,0,0,1-.182.253Zm-5.745-.383h5.479l-1.286-3.828h-5.3Z" transform="translate(-204.116 -170.915)" fill="#fff"/>
      <path id="Trazado_817372" data-name="Trazado 817372" d="M344.434,323.036l1.459,5.064h6.765l-1.7-5.064Z" transform="translate(-212.52 -199.317)" fill="#263238"/>
      <path id="Trazado_817373" data-name="Trazado 817373" d="M344.125,322.536h6.523a.192.192,0,0,1,.182.13l1.7,5.064a.192.192,0,0,1-.181.253h-6.766a.191.191,0,0,1-.184-.138l-1.459-5.064a.191.191,0,0,1,.184-.245Zm6.385.383H344.38l1.349,4.681h6.355Z" transform="translate(-212.212 -199.009)" fill="#fff"/>
      <path id="Trazado_817374" data-name="Trazado 817374" d="M327.4,323.036l1.217,5.064h6.765l-1.459-5.064Z" transform="translate(-202.011 -199.317)" fill="#263238"/>
      <path id="Trazado_817375" data-name="Trazado 817375" d="M327.094,322.536h6.523a.191.191,0,0,1,.184.138l1.459,5.064a.192.192,0,0,1-.184.245h-6.765a.191.191,0,0,1-.186-.147l-1.217-5.064a.192.192,0,0,1,.186-.236Zm6.379.383h-6.136l1.125,4.681h6.36Z" transform="translate(-201.703 -199.009)" fill="#fff"/>
      <path id="Trazado_817376" data-name="Trazado 817376" d="M354.947,303.64h6.3l-1.689-4.4h-6.087Z" transform="translate(-218.095 -184.636)" fill="#263238"/>
      <path id="Trazado_817377" data-name="Trazado 817377" d="M360.936,303.523h-6.3a.191.191,0,0,1-.181-.13l-1.478-4.4a.191.191,0,0,1,.181-.253h6.087a.191.191,0,0,1,.179.123l1.689,4.4a.192.192,0,0,1-.179.26Zm-6.159-.383h5.881l-1.542-4.016h-5.689Z" transform="translate(-217.786 -184.327)" fill="#fff"/>
      <path id="Trazado_817378" data-name="Trazado 817378" d="M201.969,281.715l.4-4.211h-5.688l-.6,4.211Z" transform="translate(-120.984 -171.224)" fill="#263238"/>
      <path id="Trazado_817379" data-name="Trazado 817379" d="M201.661,281.6h-5.89a.191.191,0,0,1-.19-.219l.6-4.211a.192.192,0,0,1,.19-.164h5.688a.192.192,0,0,1,.191.21l-.4,4.211A.192.192,0,0,1,201.661,281.6Zm-5.669-.383h5.495l.363-3.828h-5.311Z" transform="translate(-120.675 -170.915)" fill="#fff"/>
      <path id="Trazado_817380" data-name="Trazado 817380" d="M323.363,281.715,322.15,277.5h-5.688l1.012,4.211Z" transform="translate(-195.261 -171.224)" fill="#263238"/>
      <path id="Trazado_817381" data-name="Trazado 817381" d="M323.055,281.6h-5.89a.192.192,0,0,1-.186-.147l-1.012-4.211a.192.192,0,0,1,.186-.236h5.688a.192.192,0,0,1,.184.139l1.213,4.211a.192.192,0,0,1-.184.245Zm-5.739-.383H322.8l-1.1-3.828h-5.3Z" transform="translate(-194.952 -170.915)" fill="#fff"/>
      <path id="Trazado_817382" data-name="Trazado 817382" d="M186.591,281.715l.6-4.211H181.5l-.8,4.211Z" transform="translate(-111.495 -171.224)" fill="#263238"/>
      <path id="Trazado_817383" data-name="Trazado 817383" d="M186.283,281.6h-5.89a.191.191,0,0,1-.188-.227l.8-4.211A.192.192,0,0,1,181.2,277h5.688a.192.192,0,0,1,.19.219l-.6,4.211A.192.192,0,0,1,186.283,281.6Zm-5.658-.383h5.492l.546-3.828h-5.309Z" transform="translate(-111.187 -170.915)" fill="#fff"/>
      <path id="Trazado_817384" data-name="Trazado 817384" d="M232.725,281.715l0-4.211h-5.688l-.2,4.211Z" transform="translate(-139.961 -171.224)" fill="#263238"/>
      <path id="Trazado_817385" data-name="Trazado 817385" d="M232.417,281.6h-5.89a.192.192,0,0,1-.191-.2l.2-4.211a.192.192,0,0,1,.191-.183h5.688a.192.192,0,0,1,.192.191l0,4.211a.192.192,0,0,1-.191.192Zm-5.689-.383h5.5l0-3.828h-5.314Z" transform="translate(-139.652 -170.915)" fill="#fff"/>
      <path id="Trazado_817386" data-name="Trazado 817386" d="M171.213,281.715l.8-4.211h-5.688l-1,4.211Z" transform="translate(-102.007 -171.224)" fill="#263238"/>
      <path id="Trazado_817387" data-name="Trazado 817387" d="M170.9,281.6h-5.89a.192.192,0,0,1-.186-.236l1-4.211a.192.192,0,0,1,.186-.147h5.688a.191.191,0,0,1,.188.227l-.8,4.211A.192.192,0,0,1,170.9,281.6Zm-5.647-.383h5.489l.729-3.828h-5.305Z" transform="translate(-101.698 -170.915)" fill="#fff"/>
      <path id="Trazado_817388" data-name="Trazado 817388" d="M155.835,281.715l1-4.211h-5.688l-1.206,4.211Z" transform="translate(-92.518 -171.224)" fill="#263238"/>
      <path id="Trazado_817389" data-name="Trazado 817389" d="M155.527,281.6h-5.89a.192.192,0,0,1-.184-.244l1.206-4.211a.192.192,0,0,1,.184-.139h5.688a.192.192,0,0,1,.186.236l-1,4.211A.191.191,0,0,1,155.527,281.6Zm-5.636-.383h5.484l.913-3.828h-5.3Z" transform="translate(-92.21 -170.915)" fill="#fff"/>
      <path id="Trazado_817390" data-name="Trazado 817390" d="M217.347,281.715l.2-4.211h-5.688l-.4,4.211Z" transform="translate(-130.472 -171.224)" fill="#263238"/>
      <path id="Trazado_817391" data-name="Trazado 817391" d="M217.039,281.6h-5.89a.191.191,0,0,1-.191-.21l.4-4.211a.192.192,0,0,1,.191-.173h5.688a.192.192,0,0,1,.191.2l-.2,4.211A.191.191,0,0,1,217.039,281.6Zm-5.679-.383h5.5l.18-3.828h-5.313Z" transform="translate(-130.164 -170.915)" fill="#fff"/>
      <path id="Trazado_817392" data-name="Trazado 817392" d="M308.31,281.715,307.3,277.5h-5.688l.81,4.211Z" transform="translate(-186.098 -171.224)" fill="#263238"/>
      <path id="Trazado_817393" data-name="Trazado 817393" d="M308,281.6h-5.89a.192.192,0,0,1-.188-.155l-.81-4.211A.192.192,0,0,1,301.3,277h5.688a.192.192,0,0,1,.186.147l1.012,4.211a.191.191,0,0,1-.186.236Zm-5.731-.383h5.488l-.92-3.828h-5.3Z" transform="translate(-185.789 -170.915)" fill="#fff"/>
      <path id="Trazado_817394" data-name="Trazado 817394" d="M293.257,281.715l-.81-4.211h-5.688l.609,4.211Z" transform="translate(-176.934 -171.224)" fill="#263238"/>
      <path id="Trazado_817395" data-name="Trazado 817395" d="M292.948,281.6h-5.89a.191.191,0,0,1-.19-.164l-.609-4.211a.192.192,0,0,1,.19-.219h5.688a.192.192,0,0,1,.188.155l.81,4.211a.191.191,0,0,1-.188.228Zm-5.724-.383h5.492l-.737-3.828h-5.308Z" transform="translate(-176.625 -170.915)" fill="#fff"/>
      <path id="Trazado_817396" data-name="Trazado 817396" d="M263.151,281.715l-.407-4.211h-5.688l.205,4.211Z" transform="translate(-158.607 -171.224)" fill="#263238"/>
      <path id="Trazado_817397" data-name="Trazado 817397" d="M262.842,281.6h-5.89a.192.192,0,0,1-.191-.182l-.205-4.211a.192.192,0,0,1,.191-.2h5.688a.192.192,0,0,1,.191.173l.407,4.211a.191.191,0,0,1-.191.21Zm-5.707-.383h5.5l-.37-3.828h-5.313Z" transform="translate(-158.298 -170.915)" fill="#fff"/>
      <path id="Trazado_817398" data-name="Trazado 817398" d="M202.95,323.036H137.722l-1.45,5.065h67.652Z" transform="translate(-84.082 -199.317)" fill="#263238"/>
      <path id="Trazado_817399" data-name="Trazado 817399" d="M137.413,322.536h65.228a.191.191,0,0,1,.188.155l.974,5.065a.192.192,0,0,1-.188.228H135.963a.192.192,0,0,1-.184-.244l1.45-5.065A.191.191,0,0,1,137.413,322.536Zm65.07.383H137.558l-1.34,4.682h67.166Z" transform="translate(-83.773 -199.009)" fill="#fff"/>
      <path id="Trazado_817400" data-name="Trazado 817400" d="M278.2,281.715,277.6,277.5h-5.688l.407,4.211Z" transform="translate(-167.77 -171.224)" fill="#263238"/>
      <path id="Trazado_817401" data-name="Trazado 817401" d="M277.9,281.6h-5.89a.192.192,0,0,1-.191-.173l-.407-4.211a.191.191,0,0,1,.191-.21h5.688a.192.192,0,0,1,.189.164l.609,4.211a.192.192,0,0,1-.19.219Zm-5.716-.383h5.495l-.553-3.828h-5.311Z" transform="translate(-167.462 -170.915)" fill="#fff"/>
      <rect id="Rectángulo_375158" data-name="Rectángulo 375158" width="144.97" height="2.057" transform="translate(18.879 137.681)" fill="#263238"/>
      <path id="Rectángulo_375159" data-name="Rectángulo 375159" d="M-.309-.5h144.97a.191.191,0,0,1,.191.191V1.749a.191.191,0,0,1-.191.191H-.309A.191.191,0,0,1-.5,1.749V-.309A.191.191,0,0,1-.309-.5ZM144.47-.117H-.117V1.557H144.47Z" transform="translate(19.188 137.989)" fill="#263238"/>
    </g>
    <path id="Línea_3868" data-name="Línea 3868" d="M5.39-.351H-.926A.574.574,0,0,1-1.5-.926.574.574,0,0,1-.926-1.5H5.39a.574.574,0,0,1,.574.574A.574.574,0,0,1,5.39-.351Z" transform="translate(264.592 456.586)" fill="#263238"/>
    <path id="Línea_3869" data-name="Línea 3869" d="M22.8-.351H-.926A.574.574,0,0,1-1.5-.926.574.574,0,0,1-.926-1.5H22.8a.574.574,0,0,1,.574.574A.574.574,0,0,1,22.8-.351Z" transform="translate(264.592 459.829)" fill="#fff"/>
    <path id="Línea_3870" data-name="Línea 3870" d="M22.8-.351H-.926A.574.574,0,0,1-1.5-.926.574.574,0,0,1-.926-1.5H22.8a.574.574,0,0,1,.574.574A.574.574,0,0,1,22.8-.351Z" transform="translate(301.291 459.829)" fill="#fff"/>
    <path id="Línea_3871" data-name="Línea 3871" d="M8.463-.351H-.926A.574.574,0,0,1-1.5-.926.574.574,0,0,1-.926-1.5H8.463a.574.574,0,0,1,.574.574A.574.574,0,0,1,8.463-.351Z" transform="translate(289.854 459.829)" fill="#263238"/>
    <path id="Línea_3872" data-name="Línea 3872" d="M12.73-.351H-.926A.574.574,0,0,1-1.5-.926.574.574,0,0,1-.926-1.5H12.73a.574.574,0,0,1,.574.574A.574.574,0,0,1,12.73-.351Z" transform="translate(264.592 463.072)" fill="#263238"/>
    <path id="Línea_3873" data-name="Línea 3873" d="M12.73-.351H-.926A.574.574,0,0,1-1.5-.926.574.574,0,0,1-.926-1.5H12.73a.574.574,0,0,1,.574.574A.574.574,0,0,1,12.73-.351Z" transform="translate(279.954 463.072)" fill="#263238"/>
    <path id="Línea_3874" data-name="Línea 3874" d="M12.73-.351H-.926A.574.574,0,0,1-1.5-.926.574.574,0,0,1-.926-1.5H12.73a.574.574,0,0,1,.574.574A.574.574,0,0,1,12.73-.351Z" transform="translate(295.316 463.072)" fill="#263238"/>
    <path id="Línea_3875" data-name="Línea 3875" d="M4.878-.351h-5.8A.574.574,0,0,1-1.5-.926.574.574,0,0,1-.926-1.5h5.8a.574.574,0,0,1,.574.574A.574.574,0,0,1,4.878-.351Z" transform="translate(310.679 463.072)" fill="#263238"/>
    <path id="Línea_3876" data-name="Línea 3876" d="M5.39-.351H-.926A.574.574,0,0,1-1.5-.926.574.574,0,0,1-.926-1.5H5.39a.574.574,0,0,1,.574.574A.574.574,0,0,1,5.39-.351Z" transform="translate(272.614 456.586)" fill="#263238"/>
    <path id="Línea_3877" data-name="Línea 3877" d="M5.39-.351H-.926A.574.574,0,0,1-1.5-.926.574.574,0,0,1-.926-1.5H5.39a.574.574,0,0,1,.574.574A.574.574,0,0,1,5.39-.351Z" transform="translate(310.167 456.586)" fill="#263238"/>
    <path id="Línea_3878" data-name="Línea 3878" d="M5.39-.351H-.926A.574.574,0,0,1-1.5-.926.574.574,0,0,1-.926-1.5H5.39a.574.574,0,0,1,.574.574A.574.574,0,0,1,5.39-.351Z" transform="translate(301.803 456.586)" fill="#fff"/>
    <path id="Línea_3879" data-name="Línea 3879" d="M17.509-.351H-.926A.574.574,0,0,1-1.5-.926.574.574,0,0,1-.926-1.5H17.509a.574.574,0,0,1,.574.574A.574.574,0,0,1,17.509-.351Z" transform="translate(280.637 456.586)" fill="#263238"/>
    <path id="Línea_3880" data-name="Línea 3880" d="M5.39-.351H-.926A.574.574,0,0,1-1.5-.926.574.574,0,0,1-.926-1.5H5.39a.574.574,0,0,1,.574.574A.574.574,0,0,1,5.39-.351Z" transform="translate(264.592 476.387)" fill="#263238"/>
    <path id="Línea_3881" data-name="Línea 3881" d="M22.8-.351H-.926A.574.574,0,0,1-1.5-.926.574.574,0,0,1-.926-1.5H22.8a.574.574,0,0,1,.574.574A.574.574,0,0,1,22.8-.351Z" transform="translate(264.592 479.63)" fill="#fff"/>
    <path id="Línea_3882" data-name="Línea 3882" d="M22.8-.351H-.926A.574.574,0,0,1-1.5-.926.574.574,0,0,1-.926-1.5H22.8a.574.574,0,0,1,.574.574A.574.574,0,0,1,22.8-.351Z" transform="translate(301.291 479.63)" fill="#263238"/>
    <path id="Línea_3883" data-name="Línea 3883" d="M8.463-.351H-.926A.574.574,0,0,1-1.5-.926.574.574,0,0,1-.926-1.5H8.463a.574.574,0,0,1,.574.574A.574.574,0,0,1,8.463-.351Z" transform="translate(289.854 479.63)" fill="#263238"/>
    <path id="Línea_3884" data-name="Línea 3884" d="M12.73-.351H-.926A.574.574,0,0,1-1.5-.926.574.574,0,0,1-.926-1.5H12.73a.574.574,0,0,1,.574.574A.574.574,0,0,1,12.73-.351Z" transform="translate(264.592 482.873)" fill="#263238"/>
    <path id="Línea_3885" data-name="Línea 3885" d="M12.73-.351H-.926A.574.574,0,0,1-1.5-.926.574.574,0,0,1-.926-1.5H12.73a.574.574,0,0,1,.574.574A.574.574,0,0,1,12.73-.351Z" transform="translate(279.954 482.873)" fill="#263238"/>
    <path id="Línea_3886" data-name="Línea 3886" d="M12.73-.351H-.926A.574.574,0,0,1-1.5-.926.574.574,0,0,1-.926-1.5H12.73a.574.574,0,0,1,.574.574A.574.574,0,0,1,12.73-.351Z" transform="translate(295.316 482.873)" fill="#fff"/>
    <path id="Línea_3887" data-name="Línea 3887" d="M4.878-.351h-5.8A.574.574,0,0,1-1.5-.926.574.574,0,0,1-.926-1.5h5.8a.574.574,0,0,1,.574.574A.574.574,0,0,1,4.878-.351Z" transform="translate(310.679 482.873)" fill="#263238"/>
    <path id="Línea_3888" data-name="Línea 3888" d="M5.39-.351H-.926A.574.574,0,0,1-1.5-.926.574.574,0,0,1-.926-1.5H5.39a.574.574,0,0,1,.574.574A.574.574,0,0,1,5.39-.351Z" transform="translate(272.614 476.387)" fill="#263238"/>
    <path id="Línea_3889" data-name="Línea 3889" d="M5.39-.351H-.926A.574.574,0,0,1-1.5-.926.574.574,0,0,1-.926-1.5H5.39a.574.574,0,0,1,.574.574A.574.574,0,0,1,5.39-.351Z" transform="translate(310.167 476.387)" fill="#263238"/>
    <path id="Línea_3890" data-name="Línea 3890" d="M5.39-.351H-.926A.574.574,0,0,1-1.5-.926.574.574,0,0,1-.926-1.5H5.39a.574.574,0,0,1,.574.574A.574.574,0,0,1,5.39-.351Z" transform="translate(301.803 476.387)" fill="#fff"/>
    <path id="Línea_3891" data-name="Línea 3891" d="M17.509-.351H-.926A.574.574,0,0,1-1.5-.926.574.574,0,0,1-.926-1.5H17.509a.574.574,0,0,1,.574.574A.574.574,0,0,1,17.509-.351Z" transform="translate(280.637 476.387)" fill="#263238"/>
    <path id="Línea_3892" data-name="Línea 3892" d="M5.39-.351H-.926A.574.574,0,0,1-1.5-.926.574.574,0,0,1-.926-1.5H5.39a.574.574,0,0,1,.574.574A.574.574,0,0,1,5.39-.351Z" transform="translate(264.592 505.575)" fill="#263238"/>
    <path id="Línea_3893" data-name="Línea 3893" d="M22.8-.351H-.926A.574.574,0,0,1-1.5-.926.574.574,0,0,1-.926-1.5H22.8a.574.574,0,0,1,.574.574A.574.574,0,0,1,22.8-.351Z" transform="translate(264.592 508.818)" fill="#fff"/>
    <path id="Línea_3894" data-name="Línea 3894" d="M22.8-.351H-.926A.574.574,0,0,1-1.5-.926.574.574,0,0,1-.926-1.5H22.8a.574.574,0,0,1,.574.574A.574.574,0,0,1,22.8-.351Z" transform="translate(301.291 508.818)" fill="#263238"/>
    <path id="Línea_3895" data-name="Línea 3895" d="M8.463-.351H-.926A.574.574,0,0,1-1.5-.926.574.574,0,0,1-.926-1.5H8.463a.574.574,0,0,1,.574.574A.574.574,0,0,1,8.463-.351Z" transform="translate(289.854 508.818)" fill="#263238"/>
    <path id="Línea_3896" data-name="Línea 3896" d="M12.73-.351H-.926A.574.574,0,0,1-1.5-.926.574.574,0,0,1-.926-1.5H12.73a.574.574,0,0,1,.574.574A.574.574,0,0,1,12.73-.351Z" transform="translate(264.592 512.062)" fill="#263238"/>
    <path id="Línea_3897" data-name="Línea 3897" d="M12.73-.351H-.926A.574.574,0,0,1-1.5-.926.574.574,0,0,1-.926-1.5H12.73a.574.574,0,0,1,.574.574A.574.574,0,0,1,12.73-.351Z" transform="translate(279.954 512.062)" fill="#263238"/>
    <path id="Línea_3898" data-name="Línea 3898" d="M12.73-.351H-.926A.574.574,0,0,1-1.5-.926.574.574,0,0,1-.926-1.5H12.73a.574.574,0,0,1,.574.574A.574.574,0,0,1,12.73-.351Z" transform="translate(295.316 512.062)" fill="#fff"/>
    <path id="Línea_3899" data-name="Línea 3899" d="M4.878-.351h-5.8A.574.574,0,0,1-1.5-.926.574.574,0,0,1-.926-1.5h5.8a.574.574,0,0,1,.574.574A.574.574,0,0,1,4.878-.351Z" transform="translate(310.679 512.062)" fill="#263238"/>
    <path id="Línea_3900" data-name="Línea 3900" d="M5.39-.351H-.926A.574.574,0,0,1-1.5-.926.574.574,0,0,1-.926-1.5H5.39a.574.574,0,0,1,.574.574A.574.574,0,0,1,5.39-.351Z" transform="translate(272.614 505.575)" fill="#263238"/>
    <path id="Línea_3901" data-name="Línea 3901" d="M5.39-.351H-.926A.574.574,0,0,1-1.5-.926.574.574,0,0,1-.926-1.5H5.39a.574.574,0,0,1,.574.574A.574.574,0,0,1,5.39-.351Z" transform="translate(310.167 505.575)" fill="#263238"/>
    <path id="Línea_3902" data-name="Línea 3902" d="M5.39-.351H-.926A.574.574,0,0,1-1.5-.926.574.574,0,0,1-.926-1.5H5.39a.574.574,0,0,1,.574.574A.574.574,0,0,1,5.39-.351Z" transform="translate(301.803 505.575)" fill="#fff"/>
    <path id="Línea_3903" data-name="Línea 3903" d="M17.509-.351H-.926A.574.574,0,0,1-1.5-.926.574.574,0,0,1-.926-1.5H17.509a.574.574,0,0,1,.574.574A.574.574,0,0,1,17.509-.351Z" transform="translate(280.637 505.575)" fill="#263238"/>
    <path id="Línea_3904" data-name="Línea 3904" d="M5.39-.351H-.926A.574.574,0,0,1-1.5-.926.574.574,0,0,1-.926-1.5H5.39a.574.574,0,0,1,.574.574A.574.574,0,0,1,5.39-.351Z" transform="translate(300.096 466.486)" fill="#263238"/>
    <path id="Línea_3905" data-name="Línea 3905" d="M5.39-.351H-.926A.574.574,0,0,1-1.5-.926.574.574,0,0,1-.926-1.5H5.39a.574.574,0,0,1,.574.574A.574.574,0,0,1,5.39-.351Z" transform="translate(291.732 466.486)" fill="#263238"/>
    <path id="Línea_3906" data-name="Línea 3906" d="M17.509-.351H-.926A.574.574,0,0,1-1.5-.926.574.574,0,0,1-.926-1.5H17.509a.574.574,0,0,1,.574.574A.574.574,0,0,1,17.509-.351Z" transform="translate(270.566 466.486)" fill="#263238"/>
    <path id="Línea_3907" data-name="Línea 3907" d="M5.39-.351H-.926A.574.574,0,0,1-1.5-.926.574.574,0,0,1-.926-1.5H5.39a.574.574,0,0,1,.574.574A.574.574,0,0,1,5.39-.351Z" transform="translate(300.096 472.29)" fill="#263238"/>
    <path id="Línea_3908" data-name="Línea 3908" d="M5.39-.351H-.926A.574.574,0,0,1-1.5-.926.574.574,0,0,1-.926-1.5H5.39a.574.574,0,0,1,.574.574A.574.574,0,0,1,5.39-.351Z" transform="translate(291.732 472.29)" fill="#263238"/>
    <path id="Línea_3909" data-name="Línea 3909" d="M17.509-.351H-.926A.574.574,0,0,1-1.5-.926.574.574,0,0,1-.926-1.5H17.509a.574.574,0,0,1,.574.574A.574.574,0,0,1,17.509-.351Z" transform="translate(270.566 472.29)" fill="#fff"/>
    <path id="Línea_3910" data-name="Línea 3910" d="M5.39-.351H-.926A.574.574,0,0,1-1.5-.926.574.574,0,0,1-.926-1.5H5.39a.574.574,0,0,1,.574.574A.574.574,0,0,1,5.39-.351Z" transform="translate(270.566 469.388)" fill="#263238"/>
    <path id="Línea_3911" data-name="Línea 3911" d="M5.39-.351H-.926A.574.574,0,0,1-1.5-.926.574.574,0,0,1-.926-1.5H5.39a.574.574,0,0,1,.574.574A.574.574,0,0,1,5.39-.351Z" transform="translate(278.931 469.388)" fill="#263238"/>
    <path id="Línea_3912" data-name="Línea 3912" d="M17.509-.351H-.926A.574.574,0,0,1-1.5-.926.574.574,0,0,1-.926-1.5H17.509a.574.574,0,0,1,.574.574A.574.574,0,0,1,17.509-.351Z" transform="translate(287.977 469.388)" fill="#fff"/>
    <path id="Línea_3913" data-name="Línea 3913" d="M5.39-.351H-.926A.574.574,0,0,1-1.5-.926.574.574,0,0,1-.926-1.5H5.39a.574.574,0,0,1,.574.574A.574.574,0,0,1,5.39-.351Z" transform="translate(300.096 486.799)" fill="#263238"/>
    <path id="Línea_3914" data-name="Línea 3914" d="M5.39-.351H-.926A.574.574,0,0,1-1.5-.926.574.574,0,0,1-.926-1.5H5.39a.574.574,0,0,1,.574.574A.574.574,0,0,1,5.39-.351Z" transform="translate(291.732 486.799)" fill="#263238"/>
    <path id="Línea_3915" data-name="Línea 3915" d="M17.509-.351H-.926A.574.574,0,0,1-1.5-.926.574.574,0,0,1-.926-1.5H17.509a.574.574,0,0,1,.574.574A.574.574,0,0,1,17.509-.351Z" transform="translate(270.566 486.799)" fill="#263238"/>
    <path id="Línea_3916" data-name="Línea 3916" d="M5.39-.351H-.926A.574.574,0,0,1-1.5-.926.574.574,0,0,1-.926-1.5H5.39a.574.574,0,0,1,.574.574A.574.574,0,0,1,5.39-.351Z" transform="translate(300.096 492.603)" fill="#263238"/>
    <path id="Línea_3917" data-name="Línea 3917" d="M5.39-.351H-.926A.574.574,0,0,1-1.5-.926.574.574,0,0,1-.926-1.5H5.39a.574.574,0,0,1,.574.574A.574.574,0,0,1,5.39-.351Z" transform="translate(291.732 492.603)" fill="#263238"/>
    <path id="Línea_3918" data-name="Línea 3918" d="M17.509-.351H-.926A.574.574,0,0,1-1.5-.926.574.574,0,0,1-.926-1.5H17.509a.574.574,0,0,1,.574.574A.574.574,0,0,1,17.509-.351Z" transform="translate(270.566 492.603)" fill="#fff"/>
    <path id="Línea_3919" data-name="Línea 3919" d="M5.39-.351H-.926A.574.574,0,0,1-1.5-.926.574.574,0,0,1-.926-1.5H5.39a.574.574,0,0,1,.574.574A.574.574,0,0,1,5.39-.351Z" transform="translate(270.566 489.7)" fill="#263238"/>
    <path id="Línea_3920" data-name="Línea 3920" d="M5.39-.351H-.926A.574.574,0,0,1-1.5-.926.574.574,0,0,1-.926-1.5H5.39a.574.574,0,0,1,.574.574A.574.574,0,0,1,5.39-.351Z" transform="translate(278.931 489.7)" fill="#263238"/>
    <path id="Línea_3921" data-name="Línea 3921" d="M17.509-.351H-.926A.574.574,0,0,1-1.5-.926.574.574,0,0,1-.926-1.5H17.509a.574.574,0,0,1,.574.574A.574.574,0,0,1,17.509-.351Z" transform="translate(287.977 489.7)" fill="#fff"/>
    <path id="Línea_3922" data-name="Línea 3922" d="M5.39-.351H-.926A.574.574,0,0,1-1.5-.926.574.574,0,0,1-.926-1.5H5.39a.574.574,0,0,1,.574.574A.574.574,0,0,1,5.39-.351Z" transform="translate(270.566 496.016)" fill="#263238"/>
    <path id="Línea_3923" data-name="Línea 3923" d="M5.39-.351H-.926A.574.574,0,0,1-1.5-.926.574.574,0,0,1-.926-1.5H5.39a.574.574,0,0,1,.574.574A.574.574,0,0,1,5.39-.351Z" transform="translate(278.931 496.016)" fill="#263238"/>
    <path id="Línea_3924" data-name="Línea 3924" d="M17.509-.351H-.926A.574.574,0,0,1-1.5-.926.574.574,0,0,1-.926-1.5H17.509a.574.574,0,0,1,.574.574A.574.574,0,0,1,17.509-.351Z" transform="translate(287.977 496.016)" fill="#fff"/>
    <path id="Línea_3925" data-name="Línea 3925" d="M5.39-.351H-.926A.574.574,0,0,1-1.5-.926.574.574,0,0,1-.926-1.5H5.39a.574.574,0,0,1,.574.574A.574.574,0,0,1,5.39-.351Z" transform="translate(270.566 501.819)" fill="#263238"/>
    <path id="Línea_3926" data-name="Línea 3926" d="M5.39-.351H-.926A.574.574,0,0,1-1.5-.926.574.574,0,0,1-.926-1.5H5.39a.574.574,0,0,1,.574.574A.574.574,0,0,1,5.39-.351Z" transform="translate(278.931 501.819)" fill="#263238"/>
    <path id="Línea_3927" data-name="Línea 3927" d="M17.509-.351H-.926A.574.574,0,0,1-1.5-.926.574.574,0,0,1-.926-1.5H17.509a.574.574,0,0,1,.574.574A.574.574,0,0,1,17.509-.351Z" transform="translate(287.977 501.819)" fill="#fff"/>
    <path id="Línea_3928" data-name="Línea 3928" d="M5.39-.351H-.926A.574.574,0,0,1-1.5-.926.574.574,0,0,1-.926-1.5H5.39a.574.574,0,0,1,.574.574A.574.574,0,0,1,5.39-.351Z" transform="translate(300.096 498.918)" fill="#263238"/>
    <path id="Línea_3929" data-name="Línea 3929" d="M5.39-.351H-.926A.574.574,0,0,1-1.5-.926.574.574,0,0,1-.926-1.5H5.39a.574.574,0,0,1,.574.574A.574.574,0,0,1,5.39-.351Z" transform="translate(291.732 498.918)" fill="#263238"/>
    <path id="Línea_3930" data-name="Línea 3930" d="M17.509-.351H-.926A.574.574,0,0,1-1.5-.926.574.574,0,0,1-.926-1.5H17.509a.574.574,0,0,1,.574.574A.574.574,0,0,1,17.509-.351Z" transform="translate(270.566 498.918)" fill="#fff"/>
    <g id="Grupo_1071072" data-name="Grupo 1071072" transform="translate(272.799 437.886)">
      <g id="Grupo_1071071" data-name="Grupo 1071071" clip-path="url(#clip-path-4)">
        <path id="Trazado_817402" data-name="Trazado 817402" d="M321.828,4.585a12.962,12.962,0,0,0-8.96,22.333l-1.845,3.445,4.525-1.468a12.966,12.966,0,1,0,6.28-24.31" transform="translate(-238.842 -3.546)" fill="#263238"/>
        <path id="Trazado_817403" data-name="Trazado 817403" d="M321.441,4.085a13.019,13.019,0,0,1,7.313,2.234,13.117,13.117,0,0,1,4.738,5.754,13.062,13.062,0,0,1-1.206,12.4,13.117,13.117,0,0,1-5.754,4.739,13.069,13.069,0,0,1-11.382-.585l-4.478,1.453a.113.113,0,0,1-.135-.161l1.8-3.369a13.121,13.121,0,0,1-2.892-4.164A13.058,13.058,0,0,1,310.6,9.851a13.117,13.117,0,0,1,5.754-4.739A13,13,0,0,1,321.441,4.085Zm0,25.932a12.792,12.792,0,0,0,7.186-2.195,12.891,12.891,0,0,0,4.657-5.655A12.835,12.835,0,0,0,332.1,9.978a12.89,12.89,0,0,0-5.655-4.657,12.835,12.835,0,0,0-12.189,1.185,12.89,12.89,0,0,0-4.657,5.655,12.825,12.825,0,0,0,1.309,12.363,12.976,12.976,0,0,0,1.652,1.924.113.113,0,0,1,.022.135l-1.712,3.2,4.257-1.381a.113.113,0,0,1,.09.009,12.793,12.793,0,0,0,6.225,1.608Z" transform="translate(-238.455 -3.159)" fill="#263238"/>
        <path id="Trazado_817404" data-name="Trazado 817404" d="M319.1.5a12.962,12.962,0,0,0-8.96,22.333L308.3,26.277l4.525-1.468A12.966,12.966,0,1,0,319.1.5" transform="translate(-236.735 -0.387)" fill="#fff"/>
        <path id="Trazado_817405" data-name="Trazado 817405" d="M318.717,0a13.019,13.019,0,0,1,7.313,2.234,13.117,13.117,0,0,1,4.739,5.754,13.062,13.062,0,0,1-1.206,12.4,13.117,13.117,0,0,1-5.754,4.739,13.069,13.069,0,0,1-11.382-.585L307.947,26a.113.113,0,0,1-.135-.161l1.8-3.369a13.121,13.121,0,0,1-2.892-4.164,13.057,13.057,0,0,1,1.146-12.538,13.117,13.117,0,0,1,5.754-4.739A13,13,0,0,1,318.717,0Zm0,25.932a12.792,12.792,0,0,0,7.186-2.195,12.89,12.89,0,0,0,4.657-5.655,12.836,12.836,0,0,0-1.185-12.189,12.89,12.89,0,0,0-5.655-4.657,12.836,12.836,0,0,0-12.189,1.185,12.89,12.89,0,0,0-4.657,5.655,12.824,12.824,0,0,0,1.309,12.363,12.975,12.975,0,0,0,1.652,1.924.113.113,0,0,1,.022.135l-1.712,3.2,4.257-1.381a.113.113,0,0,1,.09.009,12.792,12.792,0,0,0,6.225,1.608Z" transform="translate(-236.349 0)" fill="#263238"/>
      </g>
    </g>
    <path id="Trazado_817406" data-name="Trazado 817406" d="M327.185,50.778,322.2,47.259V45.4l4.982-3.554v1.881l-3.571,2.6,3.571,2.6Z" transform="translate(23.641 405.53)" fill="#c0c0fb"/>
    <path id="Trazado_817407" data-name="Trazado 817407" d="M350.865,35.9l3.8-14.111h1.62L352.467,35.9Z" transform="translate(1.477 421.039)" fill="#c0c0fb"/>
    <path id="Trazado_817408" data-name="Trazado 817408" d="M381.447,50.778V48.914l3.589-2.613-3.589-2.578V41.841l5,3.537v1.864Z" transform="translate(-22.173 405.53)" fill="#c0c0fb"/>
    <path id="Trazado_817409" data-name="Trazado 817409" d="M329.909,47.374l-4.982-3.519V41.991l4.982-3.554v1.881l-3.571,2.6,3.571,2.6Z" transform="translate(21.534 408.163)" fill="#263238"/>
    <path id="Trazado_817410" data-name="Trazado 817410" d="M353.588,32.492l3.8-14.111h1.62l-3.815,14.111Z" transform="translate(-0.629 423.671)" fill="#263238"/>
    <path id="Trazado_817411" data-name="Trazado 817411" d="M384.171,47.374V45.51L387.76,42.9l-3.589-2.578V38.437l5,3.537v1.864Z" transform="translate(-24.279 408.163)" fill="#263238"/>
    <path id="Trazado_817412" data-name="Trazado 817412" d="M319.85,361.666l13.263,10.949a18.834,18.834,0,0,0,2.608,4.433c1.825,2.347,23.208,11.213,23.208,11.213l3.651,1.043-39.9-29.988Z" transform="translate(17.648 195.298)" fill="#263238"/>
    <path id="Trazado_817413" data-name="Trazado 817413" d="M322.374,358.816a.191.191,0,0,1,.115.038l39.9,29.988a.192.192,0,0,1-.168.337l-3.651-1.043-.021-.007c-.053-.022-5.412-2.246-10.925-4.729-3.239-1.459-5.9-2.72-7.9-3.749-2.561-1.315-4.02-2.23-4.46-2.795a19.129,19.129,0,0,1-2.617-4.435L319.42,361.506a.192.192,0,0,1,0-.3l2.832-2.35A.191.191,0,0,1,322.374,358.816Zm38.955,29.711-38.95-29.276-2.538,2.106,13.084,10.8a.192.192,0,0,1,.057.08,18.837,18.837,0,0,0,2.58,4.382c.507.652,3.038,2.3,12.216,6.43,5.393,2.429,10.639,4.61,10.9,4.72Z" transform="translate(17.957 195.606)" fill="#263238"/>
    <path id="Trazado_817414" data-name="Trazado 817414" d="M308.3,298.98a70.437,70.437,0,0,1-5.139-7.116c-1.582-2.768-3.822-9.225-5.535-13.046s-4.217-5.008-7.248-6.194-4.217-.923-4.217-.132,1.186,2.24,1.186,2.24l-5.139.923s-2.108-1.186-3.426-.791-3.822,2.9-3.822,2.9-2.636-.922-4.217-.527a63.963,63.963,0,0,0-7.775,3.426c-1.845.923-3.822,1.054-3.69,1.845s1.977,2.108,3.69,1.845,4.612-1.318,6.457-1.318a5.6,5.6,0,0,1,3.69,1.054c.922.659,4.744,6.062,5.271,6.721a12.908,12.908,0,0,1,1.054,3.295,15.986,15.986,0,0,1-3.773-2.311c-1.45-1.318-3.523-4.409-5.9-4.672s-4.959,1.843-3.641,2.9,2.636,1.713,3.558,2.9,2.372,4.744,4.876,8.566,7.907,6.194,7.907,6.194l11.2,4.612s2.9-6.852,8.3-8.7a68.748,68.748,0,0,0,6.984-2.636Z" transform="translate(55.024 249.287)" fill="#fff"/>
    <path id="Trazado_817415" data-name="Trazado 817415" d="M293.367,312.173a.191.191,0,0,1-.073-.014l-11.2-4.612,0,0a24.622,24.622,0,0,1-3.041-1.678,21.653,21.653,0,0,1-2.624-1.968,13.282,13.282,0,0,1-2.325-2.618,64.819,64.819,0,0,1-3.341-5.865,21.592,21.592,0,0,0-1.526-2.688A9.8,9.8,0,0,0,267,290.813c-.423-.3-.859-.6-1.3-.954a1.039,1.039,0,0,1-.358-1.223,2.922,2.922,0,0,1,1.368-1.4,4.834,4.834,0,0,1,2.336-.633,3.958,3.958,0,0,1,.435.024c1.837.2,3.472,2,4.786,3.45.439.483.853.939,1.217,1.27a14.973,14.973,0,0,0,3.378,2.121,10.409,10.409,0,0,0-.938-2.844c-.129-.162-.44-.586-.871-1.173a51.911,51.911,0,0,0-4.362-5.511,5.394,5.394,0,0,0-3.579-1.019,18.6,18.6,0,0,0-4.052.767c-.88.23-1.712.447-2.376.549a3.211,3.211,0,0,1-.486.036,4.353,4.353,0,0,1-2.263-.7,2.409,2.409,0,0,1-1.159-1.34c-.077-.465.367-.707.513-.787a8.188,8.188,0,0,1,1.259-.48,14.54,14.54,0,0,0,2.021-.781,66.756,66.756,0,0,1,7.814-3.441,4.006,4.006,0,0,1,.962-.1,11.745,11.745,0,0,1,3.251.6c.458-.449,2.592-2.5,3.817-2.864a2.305,2.305,0,0,1,.66-.089,7.031,7.031,0,0,1,2.854.863l4.762-.855c-.112-.15-.26-.356-.409-.587a3.187,3.187,0,0,1-.623-1.52.757.757,0,0,1,.331-.649,1.574,1.574,0,0,1,.9-.219,9.8,9.8,0,0,1,3.247.821,17.1,17.1,0,0,1,4.164,2.134,10.209,10.209,0,0,1,3.189,4.16c.672,1.5,1.408,3.36,2.186,5.329a73.565,73.565,0,0,0,3.34,7.7,70.655,70.655,0,0,0,5.121,7.09.19.19,0,0,1,.033.061l.659,1.977a.191.191,0,0,1-.1.232,68.446,68.446,0,0,1-7.008,2.646,10.577,10.577,0,0,0-3.513,2.1,17.012,17.012,0,0,0-2.571,2.871,20.97,20.97,0,0,0-2.1,3.62A.192.192,0,0,1,293.367,312.173Zm-11.126-4.98,11.027,4.541a22.07,22.07,0,0,1,2.069-3.521,17.4,17.4,0,0,1,2.63-2.936,10.955,10.955,0,0,1,3.641-2.175c4.444-1.518,6.306-2.325,6.811-2.555l-.594-1.782a70.12,70.12,0,0,1-5.135-7.115,73.664,73.664,0,0,1-3.364-7.75c-.777-1.965-1.511-3.821-2.18-5.313a9.841,9.841,0,0,0-3.071-4.011A16.776,16.776,0,0,0,290,272.493a9.61,9.61,0,0,0-3.107-.795,1.235,1.235,0,0,0-.682.151.375.375,0,0,0-.167.334,5.2,5.2,0,0,0,1.142,2.119.191.191,0,0,1-.114.31l-5.139.923a.191.191,0,0,1-.128-.022,6.936,6.936,0,0,0-2.728-.847,1.922,1.922,0,0,0-.549.073c-1.257.377-3.717,2.827-3.742,2.851a.192.192,0,0,1-.2.045,11.834,11.834,0,0,0-3.238-.615,3.627,3.627,0,0,0-.869.093,61.047,61.047,0,0,0-7.736,3.412,14.846,14.846,0,0,1-2.073.8,8,8,0,0,0-1.2.452c-.351.191-.328.329-.319.388a2.081,2.081,0,0,0,.987,1.08,3.97,3.97,0,0,0,2.057.64,2.824,2.824,0,0,0,.428-.032c.644-.1,1.467-.314,2.337-.541a18.823,18.823,0,0,1,4.149-.779,5.8,5.8,0,0,1,3.8,1.09,46.668,46.668,0,0,1,4.448,5.6c.412.562.737,1.005.861,1.161a12.705,12.705,0,0,1,1.093,3.377.191.191,0,0,1-.263.214,15.973,15.973,0,0,1-3.827-2.345c-.378-.344-.8-.806-1.243-1.3-1.27-1.4-2.852-3.139-4.545-3.327a3.579,3.579,0,0,0-.393-.021,4.444,4.444,0,0,0-2.148.583,2.589,2.589,0,0,0-1.2,1.2.656.656,0,0,0,.236.8c.43.344.861.646,1.279.939a10.086,10.086,0,0,1,2.31,1.992,21.621,21.621,0,0,1,1.564,2.747,64.471,64.471,0,0,0,3.322,5.832,12.9,12.9,0,0,0,2.255,2.539,21.255,21.255,0,0,0,2.575,1.931A24.3,24.3,0,0,0,282.24,307.193Z" transform="translate(55.334 249.595)" fill="#263238"/>
    <path id="Trazado_817416" data-name="Trazado 817416" d="M258.981,298.093a.192.192,0,0,1-.047-.377c.013,0,1.282-.326,1.641-.446a2.849,2.849,0,0,0,.738-.457.191.191,0,0,1,.249.291,3.182,3.182,0,0,1-.866.53c-.372.124-1.615.441-1.668.454A.19.19,0,0,1,258.981,298.093Z" transform="translate(55.323 233.892)" fill="#263238"/>
    <path id="Trazado_817417" data-name="Trazado 817417" d="M312.437,297.582a.191.191,0,0,1-.128-.049,7.474,7.474,0,0,1-1.893-3.238,4.818,4.818,0,0,0-2.645-2.694l-.15-.08c-1.695-.913-7.725-4.285-7.786-4.319a.191.191,0,0,1,.187-.334c.061.034,6.089,3.405,7.781,4.316l.147.078a8.091,8.091,0,0,1,1.511.974,4.088,4.088,0,0,1,1.322,1.949,7.229,7.229,0,0,0,1.782,3.063.192.192,0,0,1-.129.334Z" transform="translate(30.059 240.014)" fill="#263238"/>
    <path id="Trazado_817418" data-name="Trazado 817418" d="M329,290.42a.192.192,0,0,1-.171-.106c-.007-.013-.665-1.328-1.314-2.5a3.009,3.009,0,0,0-2.107-1.286c-.121-.028-.217-.05-.29-.075a26.758,26.758,0,0,1-3.367-2.451c-1.515-1.157-3-2.312-3.016-2.324a.192.192,0,0,1,.235-.3c2.251,1.751,5.94,4.576,6.27,4.714.057.019.148.04.254.064a5.3,5.3,0,0,1,1.167.383,2.652,2.652,0,0,1,1.188,1.09c.654,1.176,1.315,2.5,1.322,2.511a.192.192,0,0,1-.171.277Z" transform="translate(18.382 243.41)" fill="#263238"/>
    <path id="Trazado_817419" data-name="Trazado 817419" d="M339.39,285.831a.191.191,0,0,1-.143-.064A42.513,42.513,0,0,1,335,280.322a2.019,2.019,0,0,0-1.594-1.081,3.613,3.613,0,0,0-1.1,0,.191.191,0,0,1-.07-.376,3.94,3.94,0,0,1,1.218,0,2.415,2.415,0,0,1,1.887,1.29,43.352,43.352,0,0,0,4.189,5.361.192.192,0,0,1-.142.319Z" transform="translate(10.101 244.968)" fill="#263238"/>
    <path id="Trazado_817420" data-name="Trazado 817420" d="M280.52,318.606a.192.192,0,0,1-.086-.363h0a1.858,1.858,0,0,0,.88-.941.9.9,0,0,0-.163-.758,2.9,2.9,0,0,0-2.213-1.1.191.191,0,0,1,0-.383,3.61,3.61,0,0,1,.944.156,2.84,2.84,0,0,1,1.587,1.115,1.282,1.282,0,0,1,.214,1.07,2.214,2.214,0,0,1-1.078,1.184A.191.191,0,0,1,280.52,318.606Z" transform="translate(43.01 222.604)" fill="#263238"/>
    <path id="Trazado_817421" data-name="Trazado 817421" d="M361.081,338.153s-7.116,1.845-11.6,6.853S345,354.23,345.4,354.889s8.961,5.271,8.961,5.271,5.271-10.147,8.961-12.651a22.251,22.251,0,0,1,6.325-3.163s-6.589-4.217-6.853-4.744-.79-1.845-1.713-1.45" transform="translate(1.983 208.4)" fill="#9697f8"/>
    <path id="Trazado_817422" data-name="Trazado 817422" d="M361.105,337.58h0c.768,0,1.212.924,1.477,1.477.026.054.051.106.073.15a22.17,22.17,0,0,0,3.492,2.518c1.649,1.1,3.277,2.141,3.293,2.152a.192.192,0,0,1-.057.347,13.394,13.394,0,0,0-1.761.638,27.1,27.1,0,0,0-4.5,2.5c-1.037.7-2.886,2.524-5.808,7.205-1.755,2.811-3.078,5.35-3.091,5.376a.191.191,0,0,1-.261.08c-.021-.012-2.168-1.168-4.336-2.39-4.426-2.5-4.624-2.826-4.7-2.951a2.556,2.556,0,0,1-.186-1.222,8.971,8.971,0,0,1,.38-2.241,17.379,17.379,0,0,1,3.912-6.647,20.136,20.136,0,0,1,3.738-3.214,28.933,28.933,0,0,1,7.94-3.692A1.03,1.03,0,0,1,361.105,337.58Zm7.778,6.393c-.575-.371-1.774-1.147-2.979-1.951-3.4-2.268-3.534-2.531-3.59-2.643-.024-.047-.049-.1-.076-.157-.226-.471-.605-1.259-1.132-1.259h0a.656.656,0,0,0-.258.057l-.027.009a28.54,28.54,0,0,0-7.84,3.645,19.752,19.752,0,0,0-3.663,3.15,17,17,0,0,0-3.83,6.5,5.384,5.384,0,0,0-.234,3.159,6.956,6.956,0,0,0,1.512,1.042c.758.464,1.786,1.061,3.054,1.776,1.809,1.02,3.6,1.994,4.152,2.291.328-.62,1.514-2.825,3.014-5.228a51.23,51.23,0,0,1,2.919-4.248,14.611,14.611,0,0,1,3-3.074,27.471,27.471,0,0,1,4.579-2.538C368.1,344.242,368.575,344.073,368.884,343.973Z" transform="translate(2.292 208.709)" fill="#263238"/>
    <path id="Trazado_817423" data-name="Trazado 817423" d="M395,385.685s-7.248-3.69-8.961-4.612-13.442-7.248-13.442-7.248a15.884,15.884,0,0,1-2.24-.791c-.791-.4-1.977-.263-2.5-3.031s.791-8.3,6.721-13.837,9.62-5.272,9.62-5.272,2.5-.263,3.163.264.791,2.109,1.45,2.372,25.031,11.848,25.031,11.848" transform="translate(-11.904 200.534)" fill="#9697f8"/>
    <path id="Trazado_817424" data-name="Trazado 817424" d="M394.692,385.568a.191.191,0,0,1-.087-.021c-.073-.037-7.27-3.7-8.965-4.614-1.661-.895-12.884-6.947-13.423-7.238a15.578,15.578,0,0,1-2.254-.8,3.747,3.747,0,0,0-.425-.168,2.739,2.739,0,0,1-1.22-.719,4.551,4.551,0,0,1-.962-2.279,8.14,8.14,0,0,1-.008-2.614,14.052,14.052,0,0,1,.958-3.376,20.1,20.1,0,0,1,2.176-3.886,27.242,27.242,0,0,1,3.652-4.137,28.419,28.419,0,0,1,4.032-3.18,16.679,16.679,0,0,1,3.065-1.57,7.177,7.177,0,0,1,2.649-.573c.1-.01.682-.065,1.339-.065a3.389,3.389,0,0,1,1.948.371,3.105,3.105,0,0,1,.752,1.285c.186.467.379.951.649,1.059.643.257,20.442,9.608,20.624,9.663.1.03-.069.136-.1.237s-20.007-9.281-20.667-9.544c-.423-.169-.637-.705-.863-1.273a2.885,2.885,0,0,0-.635-1.128c-.134-.107-.534-.287-1.706-.287h0c-.689,0-1.308.064-1.314.065a.188.188,0,0,1-.034,0,6.846,6.846,0,0,0-2.539.561,16.394,16.394,0,0,0-2.983,1.537A28.086,28.086,0,0,0,374.4,356a26.861,26.861,0,0,0-3.6,4.078,19.715,19.715,0,0,0-2.135,3.811,10.765,10.765,0,0,0-.928,5.772c.414,2.174,1.221,2.458,1.932,2.708a4.042,4.042,0,0,1,.469.187,15.782,15.782,0,0,0,2.2.777.192.192,0,0,1,.04.016c.117.063,11.749,6.336,13.442,7.248s8.885,4.573,8.957,4.61a.191.191,0,0,1-.087.362Z" transform="translate(-11.597 200.843)" fill="#263238"/>
    <path id="Trazado_817425" data-name="Trazado 817425" d="M385.358,395.982a.191.191,0,0,1-.167-.1,9.46,9.46,0,0,1-.963-2.574,12.3,12.3,0,0,1-.28-2.374,12.093,12.093,0,0,1,.168-2.431.192.192,0,0,1,.376.075h0a11.949,11.949,0,0,0-.161,2.357,10.421,10.421,0,0,0,1.195,4.76.191.191,0,0,1-.167.285Z" transform="translate(-21.897 177.383)" fill="#263238"/>
    <path id="Trazado_817426" data-name="Trazado 817426" d="M390.476,405.844a.191.191,0,0,1-.163-.091c-1.166-1.9-1.653-3.145-1.446-3.715a.394.394,0,0,1,.23-.257.191.191,0,0,1,.148.352c-.015.021-.093.154.015.595a11.348,11.348,0,0,0,1.378,2.824.192.192,0,0,1-.163.292Z" transform="translate(-24.907 169.103)" fill="#263238"/>
    <path id="Trazado_833111" data-name="Trazado 833111" d="M180.986,0V170H0Z" transform="translate(215 417)" fill="none"/>
    <g id="Grupo_1088171" data-name="Grupo 1088171" transform="translate(215 417)">
      <path id="Trazado_817427" data-name="Trazado 817427" d="M92.674,335.086S83.989,345.409,81.381,347.5a39.9,39.9,0,0,1-4.954,3.39l-9.387,9.387s.261,1.3-2.347,2.869a72.874,72.874,0,0,1-9.127,3.911c-1.3.522-15.646,7.04-15.646,7.04Z" transform="translate(-24.631 -206.752)" fill="#263238"/>
      <path id="Trazado_817428" data-name="Trazado 817428" d="M92.366,334.586a.192.192,0,0,1,.147.315c-.355.422-8.727,10.361-11.32,12.435a40.781,40.781,0,0,1-4.957,3.394l-9.306,9.306c.01.366-.152,1.584-2.446,2.96a59.215,59.215,0,0,1-8.048,3.5c-.482.181-.862.324-1.106.422-1.285.514-15.494,6.972-15.638,7.037a.191.191,0,0,1-.193-.328l52.754-39.007A.191.191,0,0,1,92.366,334.586ZM66.543,360a.182.182,0,0,1,.053-.172l9.387-9.387a.191.191,0,0,1,.042-.032,40.1,40.1,0,0,0,4.928-3.372c2.019-1.615,7.792-8.3,10.2-11.122L41.184,372.86c3.823-1.735,12.961-5.877,14-6.294.247-.1.629-.243,1.113-.424a58.955,58.955,0,0,0,7.986-3.473,5.25,5.25,0,0,0,2.058-1.9A1.371,1.371,0,0,0,66.543,360Z" transform="translate(-24.323 -206.444)" fill="#263238"/>
      <path id="Trazado_817429" data-name="Trazado 817429" d="M136.419,279.39a22.57,22.57,0,0,1-4.2.092s-2.009-1.553-3.014-2.466-3.561-6.3-4.84-6.575-6.667,2.831-6.667,2.831-4.383-1.918-5.479-1.735-4.658,3.379-4.658,3.379-4.931-.731-5.844.73-2.375,6.119-3.836,9.041-6.758,10.685-6.758,10.685l-.73,1a40.441,40.441,0,0,1,4.475,2.1c3.379,1.735,8.767,9.954,8.767,9.954s7.488-3.47,11.689-5.388a21.1,21.1,0,0,0,8.493-7.854,16.75,16.75,0,0,1,4.383-4.931c1.918-1.552,5.479-2.191,6.3-3.288s-.548-2.74-.548-2.74a13.723,13.723,0,0,0,1.461-.913c.457-.365,2.283-1.37,2.466-2.466s-.548-1.735-1.461-1.461m-14.063,8.767,1.735-5.3a29.153,29.153,0,0,0,3.927,1.735c-2.1.548-5.662,3.561-5.662,3.561" transform="translate(-55.774 -166.855)" fill="#fff"/>
      <path id="Trazado_817430" data-name="Trazado 817430" d="M123.874,269.923a1.073,1.073,0,0,1,.223.021c.8.171,1.853,1.82,3.253,4.13a15.984,15.984,0,0,0,1.676,2.491c.9.82,2.646,2.18,2.955,2.419.239.012,1.165.056,2.093.056a8.106,8.106,0,0,0,1.983-.143,1.627,1.627,0,0,1,.466-.071h0a1.216,1.216,0,0,1,.947.424,1.6,1.6,0,0,1,.291,1.324c-.161.965-1.406,1.809-2.151,2.314-.162.11-.3.2-.384.27a11.765,11.765,0,0,1-1.294.823c.346.481,1.156,1.806.415,2.795a7.135,7.135,0,0,1-2.8,1.526,14.144,14.144,0,0,0-3.535,1.8,22.612,22.612,0,0,0-2.547,2.377,12.424,12.424,0,0,0-1.788,2.495,21.27,21.27,0,0,1-8.583,7.939c-4.152,1.9-11.613,5.353-11.688,5.387a.192.192,0,0,1-.241-.069c-.013-.021-1.364-2.076-3.109-4.316-1.6-2.056-3.871-4.693-5.585-5.573a41.184,41.184,0,0,0-4.448-2.089.192.192,0,0,1-.094-.294l.729-1c.116-.17,5.313-7.8,6.743-10.66.717-1.434,1.447-3.321,2.091-4.986a30.72,30.72,0,0,1,1.754-4.07c.416-.665,1.569-1,3.426-1a20.42,20.42,0,0,1,2.519.172c.226-.2,1-.881,1.859-1.569a8.952,8.952,0,0,1,2.828-1.8,1.235,1.235,0,0,1,.2-.015c1.246,0,4.685,1.461,5.3,1.725C118.059,272.361,122.394,269.923,123.874,269.923Zm10.2,9.5c-1.083,0-2.163-.059-2.174-.06a.191.191,0,0,1-.106-.04c-.02-.016-2.027-1.568-3.025-2.475a15.446,15.446,0,0,1-1.745-2.576c-.973-1.605-2.305-3.8-3.006-3.954a.693.693,0,0,0-.143-.013c-.419,0-1.406.244-3.734,1.4-1.407.7-2.642,1.412-2.654,1.419a.191.191,0,0,1-.172.009c-.04-.017-3.972-1.732-5.233-1.732a.853.853,0,0,0-.138.01c-.854.142-3.582,2.454-4.561,3.333a.192.192,0,0,1-.156.047,19.888,19.888,0,0,0-2.552-.181,8.746,8.746,0,0,0-1.923.178,1.823,1.823,0,0,0-1.179.645,31.327,31.327,0,0,0-1.721,4.005c-.647,1.673-1.38,3.569-2.105,5.02-1.45,2.9-6.718,10.629-6.771,10.707l0,0-.582.8c.48.19,1.729.722,4.259,2.021a11.954,11.954,0,0,1,2.845,2.325,42.315,42.315,0,0,1,2.868,3.356c1.494,1.918,2.7,3.7,3.034,4.2,1.078-.5,7.714-3.572,11.541-5.319a19.144,19.144,0,0,0,5.422-3.955,18.426,18.426,0,0,0,2.981-3.813,16.707,16.707,0,0,1,4.432-4.991,14.406,14.406,0,0,1,3.635-1.853,7.225,7.225,0,0,0,2.634-1.4c.723-.963-.529-2.487-.542-2.5a.191.191,0,0,1,.055-.291,13.634,13.634,0,0,0,1.433-.895c.094-.075.233-.169.409-.288.648-.439,1.854-1.256,1.988-2.059a1.233,1.233,0,0,0-.206-1.013.829.829,0,0,0-.655-.288,1.246,1.246,0,0,0-.356.055A8.82,8.82,0,0,1,134.073,279.424Zm-10.291,2.936a.191.191,0,0,1,.115.038,29.309,29.309,0,0,0,3.879,1.709.191.191,0,0,1-.018.365c-2.035.531-5.551,3.492-5.587,3.522a.191.191,0,0,1-.306-.206l1.735-5.3a.191.191,0,0,1,.182-.132Zm3.354,1.914a28.692,28.692,0,0,1-3.249-1.426l-1.454,4.438c.374-.3.924-.726,1.547-1.169A15.561,15.561,0,0,1,127.136,284.274Z" transform="translate(-55.466 -166.546)" fill="#263238"/>
      <path id="Trazado_817431" data-name="Trazado 817431" d="M125.6,288.062a.191.191,0,0,1-.188-.158,6.7,6.7,0,0,1-.084-2.194c.035-.1.127-.383,1.892-2.24.859-.9,1.707-1.753,1.716-1.761a.191.191,0,1,1,.271.271c-.008.008-.853.854-1.709,1.755a11.6,11.6,0,0,0-1.806,2.1,6.428,6.428,0,0,0,.1,2.007.192.192,0,0,1-.155.222Z" transform="translate(-77.286 -173.783)" fill="#263238"/>
      <path id="Trazado_817432" data-name="Trazado 817432" d="M133.482,287.24a.192.192,0,0,1-.183-.248l.731-2.375a.191.191,0,0,1,.072-.1l9.954-7.123a.191.191,0,0,1,.223.311l-9.9,7.085-.712,2.313A.192.192,0,0,1,133.482,287.24Z" transform="translate(-82.242 -171.134)" fill="#263238"/>
      <path id="Trazado_817433" data-name="Trazado 817433" d="M146.358,293.536l-.031,0a.192.192,0,0,1-.159-.219c0-.024.094-.585.243-1.2.28-1.162.5-1.45.649-1.566a6.991,6.991,0,0,1,2.2-.766c.8-.217,1.562-.4,1.753-.447.221-.189,1.438-1.23,2.733-2.258,2.625-2.084,3.293-2.324,3.566-2.324a14.953,14.953,0,0,1,3.19,1.231c2.154.951,5.105,2.254,6.1,2.148a.192.192,0,0,1,.04.381c-1.1.116-3.863-1.1-6.3-2.179a18.84,18.84,0,0,0-3.035-1.2c-.06,0-.326.049-1.247.68-.549.376-1.249.9-2.08,1.561-1.419,1.126-2.744,2.267-2.757,2.279a.192.192,0,0,1-.081.041,23,23,0,0,0-3.851,1.15c-.055.044-.254.271-.515,1.354-.145.6-.236,1.169-.237,1.175A.192.192,0,0,1,146.358,293.536Z" transform="translate(-90.186 -175.695)" fill="#263238"/>
      <path id="Trazado_817434" data-name="Trazado 817434" d="M206.37,296.08a1.7,1.7,0,0,1-1.333-.5c-.22-.252-.287-.479-.2-.674.161-.357.772-.377.892-.377h0a.191.191,0,0,1,0,.383h0c-.221,0-.507.068-.545.152-.011.024,0,.111.138.265.577.66,1.939.271,2.452.125a.191.191,0,1,1,.105.368A5.665,5.665,0,0,1,206.37,296.08Z" transform="translate(-126.365 -181.727)" fill="#263238"/>
      <path id="Trazado_817435" data-name="Trazado 817435" d="M188.324,305.743a.192.192,0,0,1-.1-.357,8.381,8.381,0,0,1,2.025-.785,6.669,6.669,0,0,1,1.973-.2,4.693,4.693,0,0,1,2.131.624.191.191,0,1,1-.194.33,4.314,4.314,0,0,0-1.959-.572,6.287,6.287,0,0,0-1.859.193,8.115,8.115,0,0,0-1.924.744A.191.191,0,0,1,188.324,305.743Z" transform="translate(-116.08 -187.812)" fill="#263238"/>
      <path id="Trazado_817436" data-name="Trazado 817436" d="M197.821,310.982a.191.191,0,0,1-.189-.16l-.092-.548a11.539,11.539,0,0,0-.8-1.955.192.192,0,0,1,.108-.266l1.826-.639a.192.192,0,1,1,.127.362l-1.623.568a10.326,10.326,0,0,1,.744,1.868l.091.548a.191.191,0,0,1-.157.22Z" transform="translate(-121.376 -189.671)" fill="#263238"/>
      <path id="Línea_3931" data-name="Línea 3931" d="M-.309,3.536a.191.191,0,0,1-.078-.017.191.191,0,0,1-.1-.253L1.161-.387a.191.191,0,0,1,.253-.1.191.191,0,0,1,.1.253L-.134,3.423A.192.192,0,0,1-.309,3.536Z" transform="translate(65.247 121.61)" fill="#263238"/>
      <path id="Trazado_817437" data-name="Trazado 817437" d="M60.588,342.424s5.753-3.744,7.854-5.3,3.2-1.278,4.292-1.643,6.575,1.278,10.228,5.844,3.288,7.945,2.831,8.858-11.963,7.853-11.963,7.853-1.644-6.575-6.484-10.5a79.373,79.373,0,0,0-6.758-5.114" transform="translate(-37.384 -206.967)" fill="#9697f8"/>
      <path id="Trazado_817438" data-name="Trazado 817438" d="M72.819,334.934a10.961,10.961,0,0,1,4.382,1.409,17.662,17.662,0,0,1,5.6,4.557,17.3,17.3,0,0,1,2.07,3.218,11.216,11.216,0,0,1,.924,2.663,5.084,5.084,0,0,1-.142,3.183c-.083.167-.4.509-2.125,1.685-1.013.691-2.391,1.586-4.1,2.661-2.9,1.829-5.785,3.569-5.814,3.586a.192.192,0,0,1-.285-.117,23.706,23.706,0,0,0-3.4-7.144,16.609,16.609,0,0,0-3.016-3.256,80.574,80.574,0,0,0-6.738-5.1.191.191,0,0,1,0-.323c.057-.037,5.772-3.758,7.844-5.29a7.051,7.051,0,0,1,3.436-1.469,6.093,6.093,0,0,0,.909-.2A1.468,1.468,0,0,1,72.819,334.934Zm.82,22.5c.724-.438,3.151-1.914,5.591-3.452,1.7-1.072,3.076-1.965,4.085-2.653a8.979,8.979,0,0,0,2-1.54,4.76,4.76,0,0,0,.109-2.936,10.836,10.836,0,0,0-.893-2.571,16.922,16.922,0,0,0-2.025-3.146,17.275,17.275,0,0,0-5.479-4.456,11.3,11.3,0,0,0-4.206-1.366,1.08,1.08,0,0,0-.333.039,6.375,6.375,0,0,1-.966.217,6.636,6.636,0,0,0-3.273,1.4c-1.833,1.355-6.494,4.409-7.617,5.143.663.443,2.688,1.85,6.528,4.965a17,17,0,0,1,3.09,3.335,22.849,22.849,0,0,1,2.019,3.455A24.123,24.123,0,0,1,73.638,357.436Z" transform="translate(-37.075 -206.659)" fill="#263238"/>
      <path id="Trazado_817439" data-name="Trazado 817439" d="M-5.951,364.888S11.158,354.7,12.934,353.635s3.833-2.527,3.833-2.527.561-2.819,3.272-2.916,5.329.972,8.881,2.916,7.946,9.04,8.414,11.859,1.4,3.694.654,5.541-3.552,1.944-4.113,1.944-1.87,1.166-1.87,1.166L12,384.643" transform="translate(-0.309 -214.835)" fill="#9697f8"/>
      <path id="Trazado_817440" data-name="Trazado 817440" d="M11.691,384.526a.192.192,0,0,1-.1-.352l19.995-13.018c.062-.054.363-.318.728-.585a2.568,2.568,0,0,1,1.259-.62,7.308,7.308,0,0,0,1.932-.272,2.848,2.848,0,0,0,2-1.553,4.019,4.019,0,0,0-.1-3.071,18.776,18.776,0,0,1-.568-2.366,10.855,10.855,0,0,0-1-2.716,29.285,29.285,0,0,0-2.024-3.465,17.981,17.981,0,0,0-5.3-5.541c-3.4-1.858-6.05-2.991-8.783-2.893a3,3,0,0,0-2.5,1.41,4.221,4.221,0,0,0-.591,1.352.191.191,0,0,1-.077.119c-.021.015-2.083,1.474-3.845,2.535S.4,361.006.291,361.072a.192.192,0,1,1-.2-.327c.107-.065,10.679-6.525,12.435-7.583,1.583-.953,3.411-2.231,3.761-2.478a4.67,4.67,0,0,1,.631-1.414,3.408,3.408,0,0,1,2.805-1.579c2.82-.1,5.527,1.05,8.98,2.939a11.783,11.783,0,0,1,2.8,2.314,27.673,27.673,0,0,1,2.635,3.348,19.726,19.726,0,0,1,3.08,6.333,18.459,18.459,0,0,0,.557,2.321,4.418,4.418,0,0,1,.085,3.322c-.8,1.965-3.714,2.064-4.291,2.064a4.847,4.847,0,0,0-1.742,1.118l-.023.018L11.8,384.495A.191.191,0,0,1,11.691,384.526Z" transform="translate(0 -214.526)" fill="#263238"/>
      <path id="Trazado_817441" data-name="Trazado 817441" d="M84.354,396.574a.192.192,0,0,1-.161-.295c1.521-2.371.884-2.972.878-2.978l.006,0,.228-.307a.953.953,0,0,1,.286.79,5.539,5.539,0,0,1-1.076,2.7A.191.191,0,0,1,84.354,396.574Z" transform="translate(-51.93 -242.485)" fill="#263238"/>
      <path id="Trazado_817442" data-name="Trazado 817442" d="M76.555,401.745a.192.192,0,0,1-.135-.328,9.093,9.093,0,0,0,2.209-3.467,6.423,6.423,0,0,0,.363-1.623.191.191,0,0,1,.383.017,6.709,6.709,0,0,1-.384,1.731,9.479,9.479,0,0,1-2.3,3.614A.191.191,0,0,1,76.555,401.745Z" transform="translate(-47.118 -244.426)" fill="#263238"/>
    </g>
  </g>
</svg>
