<svg xmlns="http://www.w3.org/2000/svg" width="609.489" height="324.419" viewBox="0 0 609.489 324.419">
  <g id="Grupo_1088417" data-name="Grupo 1088417" transform="translate(-528.9 -2050)">
    <path id="Trazado_833699" data-name="Trazado 833699" d="M0,0H609.489V324.42H0Z" transform="translate(528.9 2050)" fill="#fff"/>
    <g id="Grupo_1072214" data-name="Grupo 1072214" transform="translate(603.9 2242.961)">
      <path id="Trazado_820564" data-name="Trazado 820564" d="M-7911.007-925.674v106.83" transform="translate(7921.984 925.674)" fill="none" stroke="#12263f" stroke-width="2"/>
      <path id="Trazado_820565" data-name="Trazado 820565" d="M-7929.559-720.473h165.979" transform="translate(7929.559 816.998)" fill="none" stroke="#12263f" stroke-width="2"/>
    </g>
    <path id="Trazado_833700" data-name="Trazado 833700" d="M2.959,0C4.593,0,5.917,1.987,5.917,4.438S4.593,8.876,2.959,8.876,0,6.889,0,4.438,1.325,0,2.959,0Z" transform="translate(655.99 2304.448) rotate(-91)" fill="blue"/>
    <path id="Trazado_833701" data-name="Trazado 833701" d="M2.959,0C4.593,0,5.917,1.987,5.917,4.438S4.593,8.876,2.959,8.876,0,6.889,0,4.438,1.325,0,2.959,0Z" transform="translate(663.683 2293.797) rotate(-91)" fill="blue"/>
    <path id="Trazado_833702" data-name="Trazado 833702" d="M2.959,0C4.593,0,5.917,1.987,5.917,4.438S4.593,8.876,2.959,8.876,0,6.889,0,4.438,1.325,0,2.959,0Z" transform="translate(647.706 2293.797) rotate(-91)" fill="blue"/>
    <path id="Trazado_833703" data-name="Trazado 833703" d="M2.959,0C4.593,0,5.917,1.987,5.917,4.438S4.593,8.876,2.959,8.876,0,6.889,0,4.438,1.325,0,2.959,0Z" transform="translate(647.012 2283.146) rotate(-91)" fill="blue"/>
    <path id="Trazado_833704" data-name="Trazado 833704" d="M2.959,0C4.593,0,5.917,1.987,5.917,4.438S4.593,8.876,2.959,8.876,0,6.889,0,4.438,1.325,0,2.959,0Z" transform="translate(664.173 2282.555) rotate(-91)" fill="blue"/>
    <path id="Trazado_833705" data-name="Trazado 833705" d="M2.959,0C4.593,0,5.917,1.987,5.917,4.438S4.593,8.876,2.959,8.876,0,6.889,0,4.438,1.325,0,2.959,0Z" transform="translate(680.742 2288.626) rotate(-91)" fill="blue"/>
    <path id="Trazado_833706" data-name="Trazado 833706" d="M2.959,0C4.593,0,5.917,1.987,5.917,4.438S4.593,8.876,2.959,8.876,0,6.889,0,4.438,1.325,0,2.959,0Z" transform="translate(680.742 2277.074) rotate(-91)" fill="blue"/>
    <path id="Trazado_833707" data-name="Trazado 833707" d="M2.959,0C4.593,0,5.917,1.987,5.917,4.438S4.593,8.876,2.959,8.876,0,6.889,0,4.438,1.325,0,2.959,0Z" transform="translate(689.026 2282.555) rotate(-91)" fill="blue"/>
    <path id="Trazado_833708" data-name="Trazado 833708" d="M2.959,0C4.593,0,5.917,1.987,5.917,4.438S4.593,8.876,2.959,8.876,0,6.889,0,4.438,1.325,0,2.959,0Z" transform="translate(704.411 2271.311) rotate(-91)" fill="blue"/>
    <path id="Trazado_833709" data-name="Trazado 833709" d="M2.959,0C4.593,0,5.917,1.987,5.917,4.438S4.593,8.876,2.959,8.876,0,6.889,0,4.438,1.325,0,2.959,0Z" transform="translate(697.31 2265.985) rotate(-91)" fill="blue"/>
    <path id="Trazado_833710" data-name="Trazado 833710" d="M2.959,0C4.593,0,5.917,1.987,5.917,4.438S4.593,8.876,2.959,8.876,0,6.889,0,4.438,1.325,0,2.959,0Z" transform="translate(713.389 2262.949) rotate(-91)" fill="blue"/>
    <path id="Trazado_833711" data-name="Trazado 833711" d="M2.959,0C4.593,0,5.917,1.987,5.917,4.438S4.593,8.876,2.959,8.876,0,6.889,0,4.438,1.325,0,2.959,0Z" transform="translate(713.389 2288.625) rotate(-91)" fill="#fac600"/>
    <path id="Trazado_833712" data-name="Trazado 833712" d="M2.959,0C4.593,0,5.917,1.987,5.917,4.438S4.593,8.876,2.959,8.876,0,6.889,0,4.438,1.325,0,2.959,0Z" transform="translate(729.958 2288.033) rotate(-91)" fill="#fac600"/>
    <path id="Trazado_833713" data-name="Trazado 833713" d="M2.959,0C4.593,0,5.917,1.987,5.917,4.438S4.593,8.876,2.959,8.876,0,6.889,0,4.438,1.325,0,2.959,0Z" transform="translate(738.242 2298.685) rotate(-91)" fill="#fac600"/>
    <path id="Trazado_833714" data-name="Trazado 833714" d="M2.959,0C4.593,0,5.917,1.987,5.917,4.438S4.593,8.876,2.959,8.876,0,6.889,0,4.438,1.325,0,2.959,0Z" transform="translate(713.389 2299.276) rotate(-91)" fill="#fac600"/>
    <path id="Trazado_833715" data-name="Trazado 833715" d="M2.959,0C4.593,0,5.917,1.987,5.917,4.438S4.593,8.876,2.959,8.876,0,6.889,0,4.438,1.325,0,2.959,0Z" transform="translate(713.389 2309.928) rotate(-91)" fill="#fac600"/>
    <path id="Trazado_833716" data-name="Trazado 833716" d="M2.959,0C4.593,0,5.917,1.987,5.917,4.438S4.593,8.876,2.959,8.876,0,6.889,0,4.438,1.325,0,2.959,0Z" transform="translate(705.104 2294.105) rotate(-91)" fill="#fac600"/>
    <path id="Trazado_833717" data-name="Trazado 833717" d="M2.959,0C4.593,0,5.917,1.987,5.917,4.438S4.593,8.876,2.959,8.876,0,6.889,0,4.438,1.325,0,2.959,0Z" transform="translate(696.82 2303.855) rotate(-91)" fill="#fac600"/>
    <path id="Trazado_833718" data-name="Trazado 833718" d="M2.959,0C4.593,0,5.917,1.987,5.917,4.438S4.593,8.876,2.959,8.876,0,6.889,0,4.438,1.325,0,2.959,0Z" transform="translate(697.412 2315.69) rotate(-91)" fill="#fac600"/>
    <path id="Trazado_833719" data-name="Trazado 833719" d="M2.959,0C4.593,0,5.917,1.987,5.917,4.438S4.593,8.876,2.959,8.876,0,6.889,0,4.438,1.325,0,2.959,0Z" transform="translate(680.843 2309.928) rotate(-91)" fill="#fac600"/>
    <path id="Trazado_833720" data-name="Trazado 833720" d="M2.959,0C4.593,0,5.917,1.987,5.917,4.438S4.593,8.876,2.959,8.876,0,6.889,0,4.438,1.325,0,2.959,0Z" transform="translate(688.434 2327.088) rotate(-91)" fill="#fac600"/>
    <path id="Trazado_833721" data-name="Trazado 833721" d="M2.959,0C4.593,0,5.917,1.987,5.917,4.438S4.593,8.876,2.959,8.876,0,6.889,0,4.438,1.325,0,2.959,0Z" transform="translate(672.457 2322.354) rotate(-91)" fill="#fac600"/>
    <path id="Trazado_833722" data-name="Trazado 833722" d="M2.959,0C4.593,0,5.917,1.987,5.917,4.438S4.593,8.876,2.959,8.876,0,6.889,0,4.438,1.325,0,2.959,0Z" transform="translate(664.765 2316.283) rotate(-91)" fill="#fac600"/>
    <path id="Trazado_821220" data-name="Trazado 821220" d="M-4992.281-8816.768l131.317-84.271" transform="translate(5606.869 11155.815)" fill="none" stroke="#12263f" stroke-width="1"/>
    <g id="Grupo_1072214-2" data-name="Grupo 1072214" transform="translate(895.776 2242.961)">
      <path id="Trazado_820564-2" data-name="Trazado 820564" d="M-7911.007-925.674v106.83" transform="translate(7921.984 925.674)" fill="none" stroke="#12263f" stroke-width="2"/>
      <path id="Trazado_820565-2" data-name="Trazado 820565" d="M-7929.559-720.473h165.979" transform="translate(7929.559 816.998)" fill="none" stroke="#12263f" stroke-width="2"/>
    </g>
    <path id="Trazado_833723" data-name="Trazado 833723" d="M2.959,0C4.593,0,5.917,1.987,5.917,4.438S4.593,8.876,2.959,8.876,0,6.889,0,4.438,1.325,0,2.959,0Z" transform="translate(996.287 2296.375) rotate(-91)" fill="#6a00ff"/>
    <path id="Trazado_833724" data-name="Trazado 833724" d="M2.959,0C4.593,0,5.917,1.987,5.917,4.438S4.593,8.876,2.959,8.876,0,6.889,0,4.438,1.325,0,2.959,0Z" transform="translate(1005.265 2284.541) rotate(-91)" fill="#6a00ff"/>
    <path id="Trazado_833725" data-name="Trazado 833725" d="M2.959,0C4.593,0,5.917,1.987,5.917,4.438S4.593,8.876,2.959,8.876,0,6.889,0,4.438,1.325,0,2.959,0Z" transform="translate(1004.673 2271.233) rotate(-91)" fill="#6a00ff"/>
    <path id="Trazado_833726" data-name="Trazado 833726" d="M2.959,0C4.593,0,5.917,1.987,5.917,4.438S4.593,8.876,2.959,8.876,0,6.889,0,4.438,1.325,0,2.959,0Z" transform="translate(1005.265 2306.738) rotate(-91)" fill="#6a00ff"/>
    <path id="Trazado_833727" data-name="Trazado 833727" d="M2.959,0C4.593,0,5.917,1.987,5.917,4.438S4.593,8.876,2.959,8.876,0,6.889,0,4.438,1.325,0,2.959,0Z" transform="translate(980.412 2310.288) rotate(-91)" fill="#6a00ff"/>
    <path id="Trazado_833728" data-name="Trazado 833728" d="M2.959,0C4.593,0,5.917,1.987,5.917,4.438S4.593,8.876,2.959,8.876,0,6.889,0,4.438,1.325,0,2.959,0Z" transform="translate(996.287 2320.348) rotate(-91)" fill="#6a00ff"/>
    <path id="Trazado_833729" data-name="Trazado 833729" d="M2.959,0C4.593,0,5.917,1.987,5.917,4.438S4.593,8.876,2.959,8.876,0,6.889,0,4.438,1.325,0,2.959,0Z" transform="translate(988.003 2329.224) rotate(-91)" fill="#6a00ff"/>
    <path id="Trazado_833730" data-name="Trazado 833730" d="M2.959,0C4.593,0,5.917,1.987,5.917,4.438S4.593,8.876,2.959,8.876,0,6.889,0,4.438,1.325,0,2.959,0Z" transform="translate(972.226 2320.348) rotate(-91)" fill="#6a00ff"/>
    <path id="Trazado_833731" data-name="Trazado 833731" d="M2.959,0C4.593,0,5.917,1.987,5.917,4.438S4.593,8.876,2.959,8.876,0,6.889,0,4.438,1.325,0,2.959,0Z" transform="translate(964.533 2332.774) rotate(-91)" fill="#6a00ff"/>
    <path id="Trazado_833732" data-name="Trazado 833732" d="M2.959,0C4.593,0,5.917,1.987,5.917,4.438S4.593,8.876,2.959,8.876,0,6.889,0,4.438,1.325,0,2.959,0Z" transform="translate(954.474 2329.224) rotate(-91)" fill="#6a00ff"/>
    <path id="Trazado_833733" data-name="Trazado 833733" d="M2.959,0C4.593,0,5.917,1.987,5.917,4.438S4.593,8.876,2.959,8.876,0,6.889,0,4.438,1.325,0,2.959,0Z" transform="translate(947.373 2335.296) rotate(-91)" fill="#6a00ff"/>
    <path id="Trazado_821221" data-name="Trazado 821221" d="M-4494.55-8823.391s57.24-1.569,83.788-20.611,22.4-55.56,22.4-55.56" transform="translate(5400.945 11160.539)" fill="none" stroke="#12263f" stroke-width="2"/>
    <path id="Trazado_821424" data-name="Trazado 821424" d="M4.245,1.211,0,0,4.235,6.567l.01-.013.01.013L8.49,0Z" transform="translate(689.347 2167.787)" fill="#12263f" stroke="rgba(0,0,0,0)" stroke-width="1"/>
    <path id="Trazado_821425" data-name="Trazado 821425" d="M4.245,1.211,8.49,0,4.255,6.567l-.01-.013-.01.013L0,0Z" transform="translate(974.521 2167.787)" fill="#12263f"/>
    <path id="Trazado_833734" data-name="Trazado 833734" d="M6,0H164.893a6,6,0,0,1,6,6V38.522a6,6,0,0,1-6,6H6a6,6,0,0,1-6-6V6A6,6,0,0,1,6,0Z" transform="translate(608.146 2183)" fill="#eaeafe"/>
    <path id="Trazado_833735" data-name="Trazado 833735" d="M0,0H2.55V32.688H0Z" transform="translate(624.714 2188)" fill="#3a3e44"/>
    <path id="Trazado_833736" data-name="Trazado 833736" d="M9.082-3.384A3.923,3.923,0,0,1,7.833-.773,4.093,4.093,0,0,1,5.039.146,3.758,3.758,0,0,1,2.01-1.208,5.451,5.451,0,0,1,.872-4.834V-5.859A6.076,6.076,0,0,1,1.4-8.474a3.966,3.966,0,0,1,1.505-1.732,4.191,4.191,0,0,1,2.256-.6,3.853,3.853,0,0,1,2.725.948A3.971,3.971,0,0,1,9.082-7.236H7.668a3.064,3.064,0,0,0-.795-1.851,2.4,2.4,0,0,0-1.71-.573,2.516,2.516,0,0,0-2.113,1,4.577,4.577,0,0,0-.765,2.837v1.034A4.7,4.7,0,0,0,3.01-2.03,2.343,2.343,0,0,0,5.039-1a2.706,2.706,0,0,0,1.8-.531,2.947,2.947,0,0,0,.831-1.849ZM12.261,0H10.906V-11.25h1.355Zm7.061,0a2.846,2.846,0,0,1-.19-.835,3.023,3.023,0,0,1-2.256.981,2.8,2.8,0,0,1-1.923-.663A2.145,2.145,0,0,1,14.2-2.2a2.24,2.24,0,0,1,.941-1.923A4.437,4.437,0,0,1,17.791-4.8h1.318v-.623a1.522,1.522,0,0,0-.425-1.132,1.707,1.707,0,0,0-1.252-.421,1.976,1.976,0,0,0-1.216.366,1.079,1.079,0,0,0-.491.886H14.363a1.87,1.87,0,0,1,.421-1.146,2.874,2.874,0,0,1,1.143-.875,3.844,3.844,0,0,1,1.586-.322,3.133,3.133,0,0,1,2.146.685A2.47,2.47,0,0,1,20.464-5.5v3.647a4.459,4.459,0,0,0,.278,1.736V0ZM17.073-1.033a2.381,2.381,0,0,0,1.208-.33,1.994,1.994,0,0,0,.828-.857V-3.845H18.047q-2.49,0-2.49,1.458a1.234,1.234,0,0,0,.425,1A1.633,1.633,0,0,0,17.073-1.033ZM27.2-2.1a1,1,0,0,0-.414-.853,3.983,3.983,0,0,0-1.443-.524,6.822,6.822,0,0,1-1.633-.527,2.324,2.324,0,0,1-.894-.732,1.752,1.752,0,0,1-.289-1.011A2.056,2.056,0,0,1,23.353-7.4a3.218,3.218,0,0,1,2.106-.674,3.311,3.311,0,0,1,2.186.7,2.21,2.21,0,0,1,.839,1.78H27.122a1.223,1.223,0,0,0-.472-.959,1.77,1.77,0,0,0-1.19-.4,1.852,1.852,0,0,0-1.157.322,1.014,1.014,0,0,0-.417.842.822.822,0,0,0,.388.74,4.776,4.776,0,0,0,1.4.476,7.308,7.308,0,0,1,1.644.542,2.4,2.4,0,0,1,.934.758,1.864,1.864,0,0,1,.3,1.08,2.028,2.028,0,0,1-.85,1.7,3.564,3.564,0,0,1-2.2.641A3.991,3.991,0,0,1,23.818-.19a2.74,2.74,0,0,1-1.146-.941,2.268,2.268,0,0,1-.414-1.307h1.355a1.4,1.4,0,0,0,.546,1.08,2.117,2.117,0,0,0,1.344.4,2.185,2.185,0,0,0,1.234-.311A.956.956,0,0,0,27.2-2.1ZM31.794,0H30.439V-7.925h1.355ZM30.33-10.027a.809.809,0,0,1,.2-.557.756.756,0,0,1,.6-.227.768.768,0,0,1,.6.227.8.8,0,0,1,.205.557.774.774,0,0,1-.205.549.782.782,0,0,1-.6.22.77.77,0,0,1-.6-.22A.782.782,0,0,1,30.33-10.027ZM34.417,0V-6.877H33.164V-7.925h1.252V-8.6a2.753,2.753,0,0,1,.758-2.065,2.94,2.94,0,0,1,2.142-.74,6.451,6.451,0,0,1,2.073.447l-.227,1.143a4.7,4.7,0,0,0-1.743-.366,1.705,1.705,0,0,0-1.256.392,1.615,1.615,0,0,0-.385,1.176v.688H37.4v1.047H35.779V0Zm5.647,0H38.7V-7.925h1.362Zm5.383-.959A1.952,1.952,0,0,0,46.714-1.4a1.546,1.546,0,0,0,.6-1.1H48.6a2.457,2.457,0,0,1-.469,1.3,3.087,3.087,0,0,1-1.154.981,3.329,3.329,0,0,1-1.527.366,3.265,3.265,0,0,1-2.574-1.08,4.3,4.3,0,0,1-.956-2.955v-.227a4.771,4.771,0,0,1,.425-2.058,3.236,3.236,0,0,1,1.219-1.4,3.464,3.464,0,0,1,1.879-.5,3.178,3.178,0,0,1,2.216.8A2.853,2.853,0,0,1,48.6-5.2H47.314a1.867,1.867,0,0,0-.582-1.263,1.811,1.811,0,0,0-1.293-.494,1.9,1.9,0,0,0-1.6.743,3.491,3.491,0,0,0-.568,2.15v.256A3.422,3.422,0,0,0,43.835-1.7,1.906,1.906,0,0,0,45.447-.959ZM55.012,0a2.846,2.846,0,0,1-.19-.835,3.023,3.023,0,0,1-2.256.981,2.8,2.8,0,0,1-1.923-.663A2.145,2.145,0,0,1,49.893-2.2a2.24,2.24,0,0,1,.941-1.923A4.437,4.437,0,0,1,53.481-4.8H54.8v-.623a1.522,1.522,0,0,0-.425-1.132,1.707,1.707,0,0,0-1.252-.421,1.976,1.976,0,0,0-1.216.366,1.079,1.079,0,0,0-.491.886H50.054a1.87,1.87,0,0,1,.421-1.146,2.874,2.874,0,0,1,1.143-.875A3.844,3.844,0,0,1,53.2-8.071a3.133,3.133,0,0,1,2.146.685A2.47,2.47,0,0,1,56.155-5.5v3.647a4.459,4.459,0,0,0,.278,1.736V0ZM52.764-1.033a2.381,2.381,0,0,0,1.208-.33,1.994,1.994,0,0,0,.828-.857V-3.845H53.738q-2.49,0-2.49,1.458a1.234,1.234,0,0,0,.425,1A1.633,1.633,0,0,0,52.764-1.033Zm8.694.073A1.952,1.952,0,0,0,62.725-1.4a1.546,1.546,0,0,0,.6-1.1h1.282a2.457,2.457,0,0,1-.469,1.3,3.087,3.087,0,0,1-1.154.981,3.329,3.329,0,0,1-1.527.366,3.265,3.265,0,0,1-2.574-1.08,4.3,4.3,0,0,1-.956-2.955v-.227a4.771,4.771,0,0,1,.425-2.058,3.236,3.236,0,0,1,1.219-1.4,3.464,3.464,0,0,1,1.879-.5,3.178,3.178,0,0,1,2.216.8A2.853,2.853,0,0,1,64.607-5.2H63.325a1.867,1.867,0,0,0-.582-1.263,1.811,1.811,0,0,0-1.293-.494,1.9,1.9,0,0,0-1.6.743,3.491,3.491,0,0,0-.568,2.15v.256A3.422,3.422,0,0,0,59.846-1.7,1.906,1.906,0,0,0,61.458-.959ZM67.6,0H66.248V-7.925H67.6ZM66.138-10.027a.809.809,0,0,1,.2-.557.756.756,0,0,1,.6-.227.768.768,0,0,1,.6.227.8.8,0,0,1,.205.557.774.774,0,0,1-.205.549.782.782,0,0,1-.6.22.77.77,0,0,1-.6-.22A.782.782,0,0,1,66.138-10.027Zm3.274,5.991a4.681,4.681,0,0,1,.458-2.095,3.415,3.415,0,0,1,1.274-1.436,3.469,3.469,0,0,1,1.864-.505,3.342,3.342,0,0,1,2.618,1.121,4.311,4.311,0,0,1,1,2.981v.1A4.722,4.722,0,0,1,76.183-1.8,3.365,3.365,0,0,1,74.916-.366a3.509,3.509,0,0,1-1.893.513A3.334,3.334,0,0,1,70.411-.974a4.29,4.29,0,0,1-1-2.966Zm1.362.161a3.39,3.39,0,0,0,.612,2.117,1.957,1.957,0,0,0,1.637.8,1.945,1.945,0,0,0,1.641-.809,3.707,3.707,0,0,0,.608-2.267,3.384,3.384,0,0,0-.619-2.113,1.968,1.968,0,0,0-1.644-.809,1.946,1.946,0,0,0-1.619.8A3.68,3.68,0,0,0,70.774-3.875Zm2.849-7.361h1.641L73.3-9.082l-1.091,0Zm5.984,3.311.044,1a2.888,2.888,0,0,1,2.373-1.143q2.512,0,2.534,2.834V0H83.2V-5.244a1.824,1.824,0,0,0-.392-1.267,1.57,1.57,0,0,0-1.2-.41,1.956,1.956,0,0,0-1.157.352,2.387,2.387,0,0,0-.776.923V0H78.325V-7.925Z" transform="translate(638.833 2210.9)" fill="#12263f"/>
    <g id="Color" transform="translate(735.886 2191.091)">
      <path id="Trazado_822983" data-name="Trazado 822983" d="M93.683,27.234H88V24.686A.7.7,0,0,1,88.711,24h2.131Z" transform="translate(-84.131 -23.998)" fill="#f0a128"/>
      <path id="Trazado_822984" data-name="Trazado 822984" d="M130.84,48h14.445v1.935H130.84Z" transform="translate(-124.381 -46.549)" fill="#d7e6ef"/>
      <path id="Trazado_822985" data-name="Trazado 822985" d="M24,424h3.869v3.869H24Z" transform="translate(-24 -399.817)" fill="#44394a"/>
      <rect id="Rectángulo_377279" data-name="Rectángulo 377279" width="4" height="4" rx="2" transform="translate(24.368 24.244)" fill="#23e7ff"/>
      <path id="Trazado_822986" data-name="Trazado 822986" d="M225.935,424,224,427.869h3.869Z" transform="translate(-211.908 -399.817)" fill="#fac536"/>
      <path id="Trazado_822987" data-name="Trazado 822987" d="M104.422,24l-3.113,3.235H88v11.21a1.041,1.041,0,0,0,1.051,1.032h18.212a1.041,1.041,0,0,0,1.051-1.032V25.031A1.041,1.041,0,0,0,107.263,24Z" transform="translate(-84.131 -23.999)" fill="#fac536"/>
      <path id="Trazado_822988" data-name="Trazado 822988" d="M276.44,209.42h6.535v2.063H276.44Z" transform="translate(-261.178 -198.21)" fill="#f7fcff"/>
    </g>
    <g id="Outline" transform="translate(735.402 2190.607)">
      <ellipse id="Elipse_10494" data-name="Elipse 10494" cx="0.5" cy="1" rx="0.5" ry="1" transform="translate(11.851 4.729)" fill="#1e120b"/>
      <path id="Trazado_822989" data-name="Trazado 822989" d="M117.634,104.607h3.558a.484.484,0,0,0,0-.967h-3.558a.484.484,0,1,0,0,.967Z" transform="translate(-111.035 -98.341)" fill="#1e120b"/>
      <path id="Trazado_822990" data-name="Trazado 822990" d="M123.126,134.4h-5.493a.484.484,0,1,0,0,.967h5.493a.484.484,0,0,0,0-.967Z" transform="translate(-111.035 -127.242)" fill="#1e120b"/>
      <path id="Trazado_822991" data-name="Trazado 822991" d="M275.469,201.42h-6.535a.484.484,0,0,0-.484.484v2.063a.484.484,0,0,0,.484.484h6.535a.484.484,0,0,0,.484-.484V201.9A.484.484,0,0,0,275.469,201.42Zm-.484,2.063h-5.568v-1.1h5.568Z" transform="translate(-253.187 -190.21)" fill="#1e120b"/>
      <path id="Trazado_822992" data-name="Trazado 822992" d="M20.353,416H16.484a.484.484,0,0,0-.484.484v3.869a.484.484,0,0,0,.484.484h3.869a.484.484,0,0,0,.484-.484v-3.869A.484.484,0,0,0,20.353,416Zm-.484,3.869h-2.9v-2.9h2.9Z" transform="translate(-16 -391.817)" fill="#1e120b"/>
      <path id="Trazado_822993" data-name="Trazado 822993" d="M418.418,416a2.418,2.418,0,1,0,2.418,2.418A2.418,2.418,0,0,0,418.418,416Zm0,3.869a1.451,1.451,0,1,1,1.451-1.451A1.451,1.451,0,0,1,418.418,419.869Z" transform="translate(-391.817 -391.817)" fill="#1e120b"/>
      <path id="Trazado_822994" data-name="Trazado 822994" d="M218.831,416.6a.5.5,0,0,0-.866,0l-1.935,3.869a.488.488,0,0,0,.433.7h3.869a.488.488,0,0,0,.433-.7Zm-1.582,3.6,1.149-2.3,1.152,2.3Z" transform="translate(-203.888 -392.15)" fill="#1e120b"/>
      <path id="Trazado_822995" data-name="Trazado 822995" d="M48.484,34.862a.484.484,0,0,0-.484.484v2.418a.484.484,0,1,0,.967,0V35.83H60.092v1.935a.484.484,0,1,0,.967,0V35.83H72.183v1.935a.484.484,0,1,0,.967,0V35.346a.484.484,0,0,0-.484-.484H61.059V32.444h8.623a1.527,1.527,0,0,0,1.534-1.516V17.515A1.527,1.527,0,0,0,69.682,16H66.84a.484.484,0,0,0-.348.148l-1.253,1.3H54.755l-1.132-1.287A.484.484,0,0,0,53.26,16H51.129a1.185,1.185,0,0,0-1.195,1.172V30.928a1.527,1.527,0,0,0,1.534,1.516h8.623v2.418Zm5.008-16.445H64.307l-.786.817H53.492ZM50.9,17.171a.217.217,0,0,1,.227-.2h1.913l.423.484h-.459a.484.484,0,0,0-.484.484v1.3H50.9Zm.567,14.306a.559.559,0,0,1-.567-.548V20.2H63.728a.484.484,0,0,0,.348-.149l1.717-1.784,1.251-1.3h2.635a.559.559,0,0,1,.57.548V30.928a.559.559,0,0,1-.567.548Z" transform="translate(-46.065 -15.999)" fill="#1e120b"/>
    </g>
    <path id="Trazado_833737" data-name="Trazado 833737" d="M6,0H164.893a6,6,0,0,1,6,6V38.522a6,6,0,0,1-6,6H6a6,6,0,0,1-6-6V6A6,6,0,0,1,6,0Z" transform="translate(893.319 2182.548)" fill="#d8f5eb"/>
    <path id="Trazado_833738" data-name="Trazado 833738" d="M0,0H2.55V32.688H0Z" transform="translate(909.888 2188.057)" fill="#3a3e44"/>
    <path id="Trazado_833739" data-name="Trazado 833739" d="M5.149-4.314h-2.5V0H1.23V-10.664h3.53a4.178,4.178,0,0,1,2.772.82A2.951,2.951,0,0,1,8.5-7.456,2.871,2.871,0,0,1,7.965-5.72a3.214,3.214,0,0,1-1.5,1.106l2.5,4.526V0H7.463Zm-2.5-1.15H4.8a2.437,2.437,0,0,0,1.666-.543A1.836,1.836,0,0,0,7.09-7.46,1.933,1.933,0,0,0,6.5-8.979a2.5,2.5,0,0,0-1.7-.536H2.644ZM13.55.146A3.463,3.463,0,0,1,10.928-.912,3.928,3.928,0,0,1,9.917-3.743v-.249a4.756,4.756,0,0,1,.45-2.106,3.514,3.514,0,0,1,1.26-1.45,3.167,3.167,0,0,1,1.754-.524,2.968,2.968,0,0,1,2.4,1.018,4.408,4.408,0,0,1,.857,2.915v.564H11.272a2.817,2.817,0,0,0,.685,1.893,2.153,2.153,0,0,0,1.666.721,2.36,2.36,0,0,0,1.216-.293,3.055,3.055,0,0,0,.872-.776l.828.645A3.328,3.328,0,0,1,13.55.146Zm-.168-7.1a1.807,1.807,0,0,0-1.377.6,2.9,2.9,0,0,0-.688,1.674h3.97v-.1a2.581,2.581,0,0,0-.557-1.6A1.7,1.7,0,0,0,13.381-6.958Zm4.5,2.93a4.658,4.658,0,0,1,.857-2.948,2.741,2.741,0,0,1,2.271-1.095,2.726,2.726,0,0,1,2.263,1.025l.066-.879H24.58V-.19a3.224,3.224,0,0,1-.912,2.424,3.365,3.365,0,0,1-2.45.886,4.076,4.076,0,0,1-1.677-.366,2.887,2.887,0,0,1-1.252-1l.7-.813a2.65,2.65,0,0,0,2.131,1.077,2.076,2.076,0,0,0,1.542-.557A2.128,2.128,0,0,0,23.218-.11V-.791A2.785,2.785,0,0,1,21,.146,2.707,2.707,0,0,1,18.746-.974,4.9,4.9,0,0,1,17.886-4.028Zm1.362.154A3.553,3.553,0,0,0,19.8-1.769,1.785,1.785,0,0,0,21.335-1a1.985,1.985,0,0,0,1.882-1.165V-5.786A2.008,2.008,0,0,0,21.35-6.921a1.8,1.8,0,0,0-1.545.769A3.87,3.87,0,0,0,19.248-3.875ZM30.454-6.709a4.061,4.061,0,0,0-.667-.051,1.786,1.786,0,0,0-1.809,1.135V0H26.624V-7.925h1.318l.022.916a2.11,2.11,0,0,1,1.89-1.062,1.384,1.384,0,0,1,.6.1ZM34.849.146A3.463,3.463,0,0,1,32.227-.912a3.928,3.928,0,0,1-1.011-2.831v-.249a4.756,4.756,0,0,1,.45-2.106,3.514,3.514,0,0,1,1.26-1.45,3.167,3.167,0,0,1,1.754-.524,2.968,2.968,0,0,1,2.4,1.018,4.408,4.408,0,0,1,.857,2.915v.564H32.571a2.817,2.817,0,0,0,.685,1.893,2.153,2.153,0,0,0,1.666.721,2.36,2.36,0,0,0,1.216-.293,3.055,3.055,0,0,0,.872-.776l.828.645A3.328,3.328,0,0,1,34.849.146Zm-.168-7.1a1.807,1.807,0,0,0-1.377.6,2.9,2.9,0,0,0-.688,1.674h3.97v-.1a2.581,2.581,0,0,0-.557-1.6A1.7,1.7,0,0,0,34.68-6.958ZM44.121-2.1a1,1,0,0,0-.414-.853,3.983,3.983,0,0,0-1.443-.524,6.822,6.822,0,0,1-1.633-.527,2.324,2.324,0,0,1-.894-.732,1.752,1.752,0,0,1-.289-1.011A2.056,2.056,0,0,1,40.272-7.4a3.218,3.218,0,0,1,2.106-.674,3.311,3.311,0,0,1,2.186.7A2.21,2.21,0,0,1,45.4-5.6H44.041a1.223,1.223,0,0,0-.472-.959,1.77,1.77,0,0,0-1.19-.4,1.852,1.852,0,0,0-1.157.322,1.014,1.014,0,0,0-.417.842.822.822,0,0,0,.388.74,4.776,4.776,0,0,0,1.4.476,7.308,7.308,0,0,1,1.644.542,2.4,2.4,0,0,1,.934.758,1.864,1.864,0,0,1,.3,1.08,2.028,2.028,0,0,1-.85,1.7,3.564,3.564,0,0,1-2.2.641A3.991,3.991,0,0,1,40.737-.19a2.74,2.74,0,0,1-1.146-.941,2.268,2.268,0,0,1-.414-1.307h1.355a1.4,1.4,0,0,0,.546,1.08,2.117,2.117,0,0,0,1.344.4,2.185,2.185,0,0,0,1.234-.311A.956.956,0,0,0,44.121-2.1ZM48.713,0H47.358V-7.925h1.355ZM47.249-10.027a.809.809,0,0,1,.2-.557.756.756,0,0,1,.6-.227.768.768,0,0,1,.6.227.8.8,0,0,1,.205.557.774.774,0,0,1-.205.549.782.782,0,0,1-.6.22.77.77,0,0,1-.6-.22A.782.782,0,0,1,47.249-10.027Zm3.274,5.991A4.681,4.681,0,0,1,50.98-6.13a3.415,3.415,0,0,1,1.274-1.436,3.469,3.469,0,0,1,1.864-.505,3.342,3.342,0,0,1,2.618,1.121,4.311,4.311,0,0,1,1,2.981v.1A4.722,4.722,0,0,1,57.294-1.8,3.365,3.365,0,0,1,56.027-.366a3.509,3.509,0,0,1-1.893.513A3.334,3.334,0,0,1,51.522-.974a4.29,4.29,0,0,1-1-2.966Zm1.362.161A3.39,3.39,0,0,0,52.5-1.758a1.957,1.957,0,0,0,1.637.8,1.945,1.945,0,0,0,1.641-.809,3.707,3.707,0,0,0,.608-2.267,3.384,3.384,0,0,0-.619-2.113,1.968,1.968,0,0,0-1.644-.809,1.946,1.946,0,0,0-1.619.8A3.68,3.68,0,0,0,51.885-3.875Zm2.849-7.361h1.641L54.412-9.082l-1.091,0Zm5.984,3.311.044,1a2.888,2.888,0,0,1,2.373-1.143q2.512,0,2.534,2.834V0H64.314V-5.244a1.824,1.824,0,0,0-.392-1.267,1.57,1.57,0,0,0-1.2-.41,1.956,1.956,0,0,0-1.157.352,2.387,2.387,0,0,0-.776.923V0H59.436V-7.925Z" transform="translate(924.007 2210.9)" fill="#12263f"/>
    <path id="Trazado_821215" data-name="Trazado 821215" d="M35.367,32.946l-2.9-1.673a.544.544,0,0,0-.816.471v.8H10.594V11.483h.8a.544.544,0,0,0,.471-.816l-1.673-2.9a.544.544,0,0,0-.943,0l-1.673,2.9a.544.544,0,0,0,.471.816h.8V33.417a.874.874,0,0,0,.874.874H31.653v.8a.544.544,0,0,0,.816.471l2.9-1.673A.544.544,0,0,0,35.367,32.946Z" transform="translate(1015.506 2183.834)" fill="#8d9ca8"/>
    <path id="Trazado_821216" data-name="Trazado 821216" d="M7.882,54.028l-.309.535a.544.544,0,0,0,.472.816h.8V77.313a.875.875,0,0,0,.874.874H23.255" transform="translate(1015.508 2139.938)" fill="none" stroke="#000" stroke-linecap="round" stroke-linejoin="round" stroke-miterlimit="10" stroke-width="1.2"/>
    <path id="Trazado_821217" data-name="Trazado 821217" d="M30.771,8.516l.429-.743a.544.544,0,0,1,.943,0l1.673,2.9a.544.544,0,0,1-.471.816h-.8V32.545H53.605v-.8a.544.544,0,0,1,.816-.471l2.9,1.673a.544.544,0,0,1,0,.943l-2.9,1.673a.544.544,0,0,1-.816-.472v-.8H47.164" transform="translate(993.554 2183.832)" fill="none" stroke="#000" stroke-linecap="round" stroke-linejoin="round" stroke-miterlimit="10" stroke-width="1.2"/>
    <path id="Trazado_821218" data-name="Trazado 821218" d="M111.741,54.347l-3.754,1.006a.345.345,0,0,0-.155.577l.774.774L91.691,73.619a.849.849,0,1,0,1.2,1.2L109.808,57.9l.774.774a.345.345,0,0,0,.577-.155l1.006-3.754A.345.345,0,0,0,111.741,54.347Z" transform="translate(936.317 2139.648)" fill="#ffe323"/>
    <path id="Trazado_821219" data-name="Trazado 821219" d="M107.047,60.666l2.762-2.762.774.774a.345.345,0,0,0,.577-.155l1.005-3.754a.345.345,0,0,0-.422-.422l-3.754,1.005a.345.345,0,0,0-.155.577l.774.774L91.692,73.618a.849.849,0,0,0,1.2,1.2l12.756-12.756" transform="translate(936.316 2139.648)" fill="none" stroke="#000" stroke-linecap="round" stroke-linejoin="round" stroke-miterlimit="10" stroke-width="1.2"/>
    <g id="Grupo_1072511" data-name="Grupo 1072511" transform="translate(1039.674 2205.596)">
      <circle id="Elipse_10364" data-name="Elipse 10364" cx="1.055" cy="1.055" r="1.055" transform="translate(0)" fill="#fe646f"/>
      <circle id="Elipse_10365" data-name="Elipse 10365" cx="1.055" cy="1.055" r="1.055" transform="translate(0)" fill="none" stroke="#000" stroke-linecap="round" stroke-linejoin="round" stroke-miterlimit="10" stroke-width="1.2"/>
    </g>
    <g id="Grupo_1072512" data-name="Grupo 1072512" transform="translate(1032.825 2203.068)">
      <circle id="Elipse_10366" data-name="Elipse 10366" cx="1.055" cy="1.055" r="1.055" transform="translate(0 0)" fill="#fe646f"/>
      <circle id="Elipse_10367" data-name="Elipse 10367" cx="1.055" cy="1.055" r="1.055" transform="translate(0 0)" fill="none" stroke="#000" stroke-linecap="round" stroke-linejoin="round" stroke-miterlimit="10" stroke-width="1.2"/>
    </g>
    <g id="Grupo_1072513" data-name="Grupo 1072513" transform="translate(1036.021 2200.002)">
      <circle id="Elipse_10368" data-name="Elipse 10368" cx="1.055" cy="1.055" r="1.055" fill="#fe646f"/>
      <circle id="Elipse_10369" data-name="Elipse 10369" cx="1.055" cy="1.055" r="1.055" fill="none" stroke="#000" stroke-linecap="round" stroke-linejoin="round" stroke-miterlimit="10" stroke-width="1.2"/>
    </g>
    <g id="Grupo_1072514" data-name="Grupo 1072514" transform="translate(1035.438 2195.781)">
      <circle id="Elipse_10370" data-name="Elipse 10370" cx="1.055" cy="1.055" r="1.055" fill="#fe646f"/>
      <circle id="Elipse_10371" data-name="Elipse 10371" cx="1.055" cy="1.055" r="1.055" fill="none" stroke="#000" stroke-linecap="round" stroke-linejoin="round" stroke-miterlimit="10" stroke-width="1.2"/>
    </g>
    <g id="Grupo_1072515" data-name="Grupo 1072515" transform="translate(1029.547 2204.029)">
      <circle id="Elipse_10372" data-name="Elipse 10372" cx="1.055" cy="1.055" r="1.055" transform="translate(0)" fill="#fe646f"/>
      <circle id="Elipse_10373" data-name="Elipse 10373" cx="1.055" cy="1.055" r="1.055" transform="translate(0)" fill="none" stroke="#000" stroke-linecap="round" stroke-linejoin="round" stroke-miterlimit="10" stroke-width="1.2"/>
    </g>
    <g id="Grupo_1072516" data-name="Grupo 1072516" transform="translate(1031.395 2200.002)">
      <circle id="Elipse_10374" data-name="Elipse 10374" cx="1.055" cy="1.055" r="1.055" transform="translate(0)" fill="#fe646f"/>
      <circle id="Elipse_10375" data-name="Elipse 10375" cx="1.055" cy="1.055" r="1.055" transform="translate(0)" fill="none" stroke="#000" stroke-linecap="round" stroke-linejoin="round" stroke-miterlimit="10" stroke-width="1.2"/>
    </g>
    <g id="Grupo_1072517" data-name="Grupo 1072517" transform="translate(1039.674 2195.334)">
      <circle id="Elipse_10376" data-name="Elipse 10376" cx="1.055" cy="1.055" r="1.055" transform="translate(0 0)" fill="#fe646f"/>
      <circle id="Elipse_10377" data-name="Elipse 10377" cx="1.055" cy="1.055" r="1.055" transform="translate(0 0)" fill="none" stroke="#000" stroke-linecap="round" stroke-linejoin="round" stroke-miterlimit="10" stroke-width="1.2"/>
    </g>
    <g id="Grupo_1072518" data-name="Grupo 1072518" transform="translate(1042.935 2203.295)">
      <circle id="Elipse_10378" data-name="Elipse 10378" cx="1.055" cy="1.055" r="1.055" transform="translate(0)" fill="#fe646f"/>
      <circle id="Elipse_10379" data-name="Elipse 10379" cx="1.055" cy="1.055" r="1.055" transform="translate(0)" fill="none" stroke="#000" stroke-linecap="round" stroke-linejoin="round" stroke-miterlimit="10" stroke-width="1.2"/>
    </g>
    <g id="Grupo_1072519" data-name="Grupo 1072519" transform="translate(1045.332 2200.002)">
      <circle id="Elipse_10380" data-name="Elipse 10380" cx="1.055" cy="1.055" r="1.055" fill="#fe646f"/>
      <circle id="Elipse_10381" data-name="Elipse 10381" cx="1.055" cy="1.055" r="1.055" fill="none" stroke="#000" stroke-linecap="round" stroke-linejoin="round" stroke-miterlimit="10" stroke-width="1.2"/>
    </g>
    <g id="Grupo_1072520" data-name="Grupo 1072520" transform="translate(1042.935 2207.227)">
      <circle id="Elipse_10382" data-name="Elipse 10382" cx="1.055" cy="1.055" r="1.055" transform="translate(0)" fill="#fe646f"/>
      <circle id="Elipse_10383" data-name="Elipse 10383" cx="1.055" cy="1.055" r="1.055" transform="translate(0)" fill="none" stroke="#000" stroke-linecap="round" stroke-linejoin="round" stroke-miterlimit="10" stroke-width="1.2"/>
    </g>
    <g id="Grupo_1072521" data-name="Grupo 1072521" transform="translate(1038.131 2209.145)">
      <circle id="Elipse_10384" data-name="Elipse 10384" cx="1.055" cy="1.055" r="1.055" transform="translate(0 0)" fill="#fe646f"/>
      <circle id="Elipse_10385" data-name="Elipse 10385" cx="1.055" cy="1.055" r="1.055" transform="translate(0 0)" fill="none" stroke="#000" stroke-linecap="round" stroke-linejoin="round" stroke-miterlimit="10" stroke-width="1.2"/>
    </g>
    <g id="Grupo_1072522" data-name="Grupo 1072522" transform="translate(1034.686 2210.2)">
      <circle id="Elipse_10386" data-name="Elipse 10386" cx="1.055" cy="1.055" r="1.055" transform="translate(0 0)" fill="#fe646f"/>
      <circle id="Elipse_10387" data-name="Elipse 10387" cx="1.055" cy="1.055" r="1.055" transform="translate(0 0)" fill="none" stroke="#000" stroke-linecap="round" stroke-linejoin="round" stroke-miterlimit="10" stroke-width="1.2"/>
    </g>
    <g id="Grupo_1072523" data-name="Grupo 1072523" transform="translate(1027.437 2208.281)">
      <circle id="Elipse_10388" data-name="Elipse 10388" cx="1.055" cy="1.055" r="1.055" transform="translate(0 0)" fill="#fe646f"/>
      <circle id="Elipse_10389" data-name="Elipse 10389" cx="1.055" cy="1.055" r="1.055" transform="translate(0 0)" fill="none" stroke="#000" stroke-linecap="round" stroke-linejoin="round" stroke-miterlimit="10" stroke-width="1.2"/>
    </g>
    <path id="Trazado_821426" data-name="Trazado 821426" d="M-4776.649-9607.612V-9583h-135.529v26.5" transform="translate(5605.665 11727.135)" fill="none" stroke="#12263f" stroke-width="1.5"/>
    <path id="Trazado_821427" data-name="Trazado 821427" d="M-4912.178-9607.612V-9583h150.07v26.5" transform="translate(5740.873 11727.135)" fill="none" stroke="#12263f" stroke-width="1.5"/>
    <path id="Trazado_833740" data-name="Trazado 833740" d="M6,0H234.893a6,6,0,0,1,6,6V38.522a6,6,0,0,1-6,6H6a6,6,0,0,1-6-6V6A6,6,0,0,1,6,0Z" transform="translate(708.61 2075)" fill="#f9ed99"/>
    <path id="Trazado_833741" data-name="Trazado 833741" d="M0,0H2.55V32.688H0Z" transform="translate(717.179 2080.509)" fill="#3a3e44"/>
    <path id="Trazado_833742" data-name="Trazado 833742" d="M-74.714-2.791h-4.468l-1,2.791h-1.45l4.072-10.664h1.23L-72.253,0H-73.7Zm-4.043-1.15h3.625l-1.816-4.988Zm14.421.066a4.745,4.745,0,0,1-.828,2.915A2.653,2.653,0,0,1-67.4.146a2.906,2.906,0,0,1-2.271-.916V3.047H-71.03V-7.925h1.238l.066.879a2.791,2.791,0,0,1,2.3-1.025,2.7,2.7,0,0,1,2.26,1.077,4.8,4.8,0,0,1,.831,3Zm-1.355-.154a3.5,3.5,0,0,0-.571-2.117,1.84,1.84,0,0,0-1.567-.776A1.992,1.992,0,0,0-69.675-5.83v3.787a2,2,0,0,0,1.86,1.084,1.832,1.832,0,0,0,1.549-.773A3.822,3.822,0,0,0-65.691-4.028Zm6.907-2.681a4.061,4.061,0,0,0-.667-.051A1.786,1.786,0,0,0-61.26-5.625V0h-1.355V-7.925H-61.3l.022.916a2.11,2.11,0,0,1,1.89-1.062,1.384,1.384,0,0,1,.6.1ZM-54.39.146A3.463,3.463,0,0,1-57.012-.912a3.928,3.928,0,0,1-1.011-2.831v-.249a4.756,4.756,0,0,1,.45-2.106,3.514,3.514,0,0,1,1.26-1.45,3.167,3.167,0,0,1,1.754-.524,2.968,2.968,0,0,1,2.4,1.018A4.408,4.408,0,0,1-51.3-4.138v.564h-5.369a2.817,2.817,0,0,0,.685,1.893,2.153,2.153,0,0,0,1.666.721A2.36,2.36,0,0,0-53.1-1.252a3.055,3.055,0,0,0,.872-.776l.828.645A3.328,3.328,0,0,1-54.39.146Zm-.168-7.1a1.807,1.807,0,0,0-1.377.6,2.9,2.9,0,0,0-.688,1.674h3.97v-.1a2.581,2.581,0,0,0-.557-1.6A1.7,1.7,0,0,0-54.558-6.958Zm6.108-.967.044,1a2.888,2.888,0,0,1,2.373-1.143q2.512,0,2.534,2.834V0h-1.355V-5.244a1.824,1.824,0,0,0-.392-1.267,1.57,1.57,0,0,0-1.2-.41A1.956,1.956,0,0,0-47.6-6.57a2.387,2.387,0,0,0-.776.923V0h-1.355V-7.925Zm6.665,3.9a4.642,4.642,0,0,1,.864-2.933,2.733,2.733,0,0,1,2.263-1.11,2.748,2.748,0,0,1,2.2.952V-11.25H-35.1V0h-1.245l-.066-.85a2.759,2.759,0,0,1-2.263,1A2.707,2.707,0,0,1-40.917-.981a4.7,4.7,0,0,1-.868-2.944Zm1.355.154a3.515,3.515,0,0,0,.557,2.109A1.8,1.8,0,0,0-38.335-1a1.977,1.977,0,0,0,1.882-1.157V-5.8A1.992,1.992,0,0,0-38.32-6.921a1.808,1.808,0,0,0-1.553.769A3.87,3.87,0,0,0-40.43-3.875ZM-31.523,0h-1.355V-7.925h1.355Zm-1.465-10.027a.809.809,0,0,1,.2-.557.756.756,0,0,1,.6-.227.768.768,0,0,1,.6.227.8.8,0,0,1,.205.557.774.774,0,0,1-.205.549.782.782,0,0,1-.6.22.77.77,0,0,1-.6-.22A.782.782,0,0,1-32.988-10.027Zm4.907,8.921h4.636V0h-6.292V-1L-25.364-6.8H-29.67V-7.925h6.006v.959ZM-17.029,0a2.846,2.846,0,0,1-.19-.835,3.023,3.023,0,0,1-2.256.981A2.8,2.8,0,0,1-21.4-.516,2.145,2.145,0,0,1-22.148-2.2a2.24,2.24,0,0,1,.941-1.923A4.437,4.437,0,0,1-18.56-4.8h1.318v-.623a1.522,1.522,0,0,0-.425-1.132,1.707,1.707,0,0,0-1.252-.421,1.976,1.976,0,0,0-1.216.366,1.079,1.079,0,0,0-.491.886h-1.362a1.87,1.87,0,0,1,.421-1.146,2.874,2.874,0,0,1,1.143-.875,3.844,3.844,0,0,1,1.586-.322,3.133,3.133,0,0,1,2.146.685A2.47,2.47,0,0,1-15.886-5.5v3.647a4.459,4.459,0,0,0,.278,1.736V0Zm-2.249-1.033a2.381,2.381,0,0,0,1.208-.33,1.994,1.994,0,0,0,.828-.857V-3.845H-18.3q-2.49,0-2.49,1.458a1.234,1.234,0,0,0,.425,1A1.633,1.633,0,0,0-19.277-1.033Zm6.914-6.892V.916q0,2.285-2.073,2.285a2.528,2.528,0,0,1-.828-.131V1.992a2.62,2.62,0,0,0,.615.059.921.921,0,0,0,.692-.246,1.214,1.214,0,0,0,.238-.854V-7.925Zm-1.494-2.1a.812.812,0,0,1,.2-.553.741.741,0,0,1,.59-.231.768.768,0,0,1,.6.227.8.8,0,0,1,.205.557.774.774,0,0,1-.205.549.782.782,0,0,1-.6.22.758.758,0,0,1-.593-.22A.791.791,0,0,1-13.857-10.027ZM-6.892.146A3.463,3.463,0,0,1-9.514-.912a3.928,3.928,0,0,1-1.011-2.831v-.249a4.756,4.756,0,0,1,.45-2.106,3.514,3.514,0,0,1,1.26-1.45,3.167,3.167,0,0,1,1.754-.524,2.968,2.968,0,0,1,2.4,1.018A4.408,4.408,0,0,1-3.8-4.138v.564H-9.17a2.817,2.817,0,0,0,.685,1.893,2.153,2.153,0,0,0,1.666.721A2.36,2.36,0,0,0-5.6-1.252a3.055,3.055,0,0,0,.872-.776l.828.645A3.328,3.328,0,0,1-6.892.146Zm-.168-7.1a1.807,1.807,0,0,0-1.377.6,2.9,2.9,0,0,0-.688,1.674h3.97v-.1a2.581,2.581,0,0,0-.557-1.6A1.7,1.7,0,0,0-7.061-6.958ZM6.094-2.1a1,1,0,0,0-.414-.853,3.983,3.983,0,0,0-1.443-.524A6.822,6.822,0,0,1,2.6-4.006a2.324,2.324,0,0,1-.894-.732A1.752,1.752,0,0,1,1.421-5.75,2.056,2.056,0,0,1,2.245-7.4a3.218,3.218,0,0,1,2.106-.674,3.311,3.311,0,0,1,2.186.7A2.21,2.21,0,0,1,7.375-5.6H6.013a1.223,1.223,0,0,0-.472-.959,1.77,1.77,0,0,0-1.19-.4,1.852,1.852,0,0,0-1.157.322,1.014,1.014,0,0,0-.417.842.822.822,0,0,0,.388.74,4.776,4.776,0,0,0,1.4.476,7.308,7.308,0,0,1,1.644.542,2.4,2.4,0,0,1,.934.758,1.864,1.864,0,0,1,.3,1.08,2.028,2.028,0,0,1-.85,1.7,3.564,3.564,0,0,1-2.2.641A3.991,3.991,0,0,1,2.71-.19a2.74,2.74,0,0,1-1.146-.941A2.268,2.268,0,0,1,1.15-2.439H2.5a1.4,1.4,0,0,0,.546,1.08,2.117,2.117,0,0,0,1.344.4,2.185,2.185,0,0,0,1.234-.311A.956.956,0,0,0,6.094-2.1ZM14.106-.784a2.878,2.878,0,0,1-2.322.93A2.464,2.464,0,0,1,9.855-.59a3.186,3.186,0,0,1-.67-2.179V-7.925H10.54v5.12Q10.54-1,12-1A2.028,2.028,0,0,0,14.07-2.161V-7.925h1.355V0H14.136ZM24.177-3.875A4.745,4.745,0,0,1,23.35-.959,2.653,2.653,0,0,1,21.108.146a2.906,2.906,0,0,1-2.271-.916V3.047H17.483V-7.925h1.238l.066.879a2.791,2.791,0,0,1,2.3-1.025,2.7,2.7,0,0,1,2.26,1.077,4.8,4.8,0,0,1,.831,3Zm-1.355-.154a3.5,3.5,0,0,0-.571-2.117,1.84,1.84,0,0,0-1.567-.776A1.992,1.992,0,0,0,18.838-5.83v3.787A2,2,0,0,0,20.7-.959a1.832,1.832,0,0,0,1.549-.773A3.822,3.822,0,0,0,22.822-4.028ZM29.187.146A3.463,3.463,0,0,1,26.565-.912a3.928,3.928,0,0,1-1.011-2.831v-.249A4.756,4.756,0,0,1,26-6.1a3.514,3.514,0,0,1,1.26-1.45,3.167,3.167,0,0,1,1.754-.524,2.968,2.968,0,0,1,2.4,1.018,4.408,4.408,0,0,1,.857,2.915v.564H26.909a2.817,2.817,0,0,0,.685,1.893,2.153,2.153,0,0,0,1.666.721,2.36,2.36,0,0,0,1.216-.293,3.055,3.055,0,0,0,.872-.776l.828.645A3.328,3.328,0,0,1,29.187.146Zm-.168-7.1a1.807,1.807,0,0,0-1.377.6,2.9,2.9,0,0,0-.688,1.674h3.97v-.1a2.581,2.581,0,0,0-.557-1.6A1.7,1.7,0,0,0,29.019-6.958Zm8.657.249a4.061,4.061,0,0,0-.667-.051A1.786,1.786,0,0,0,35.2-5.625V0H33.845V-7.925h1.318l.022.916a2.11,2.11,0,0,1,1.89-1.062,1.384,1.384,0,0,1,.6.1Zm3.992,4.871L43.63-7.925h1.384L42.173,0H41.14L38.269-7.925h1.384ZM47.791,0H46.436V-7.925h1.355ZM46.326-10.027a.809.809,0,0,1,.2-.557.756.756,0,0,1,.6-.227.768.768,0,0,1,.6.227.8.8,0,0,1,.205.557.774.774,0,0,1-.205.549.782.782,0,0,1-.6.22.77.77,0,0,1-.6-.22A.782.782,0,0,1,46.326-10.027ZM54.573-2.1a1,1,0,0,0-.414-.853,3.983,3.983,0,0,0-1.443-.524,6.822,6.822,0,0,1-1.633-.527,2.324,2.324,0,0,1-.894-.732A1.752,1.752,0,0,1,49.9-5.75,2.056,2.056,0,0,1,50.724-7.4a3.218,3.218,0,0,1,2.106-.674,3.311,3.311,0,0,1,2.186.7,2.21,2.21,0,0,1,.839,1.78H54.492a1.223,1.223,0,0,0-.472-.959,1.77,1.77,0,0,0-1.19-.4,1.852,1.852,0,0,0-1.157.322,1.014,1.014,0,0,0-.417.842.822.822,0,0,0,.388.74,4.776,4.776,0,0,0,1.4.476,7.308,7.308,0,0,1,1.644.542,2.4,2.4,0,0,1,.934.758,1.864,1.864,0,0,1,.3,1.08,2.028,2.028,0,0,1-.85,1.7,3.564,3.564,0,0,1-2.2.641A3.991,3.991,0,0,1,51.189-.19a2.74,2.74,0,0,1-1.146-.941,2.268,2.268,0,0,1-.414-1.307h1.355a1.4,1.4,0,0,0,.546,1.08,2.117,2.117,0,0,0,1.344.4,2.185,2.185,0,0,0,1.234-.311A.956.956,0,0,0,54.573-2.1ZM62.585,0a2.846,2.846,0,0,1-.19-.835,3.023,3.023,0,0,1-2.256.981,2.8,2.8,0,0,1-1.923-.663A2.145,2.145,0,0,1,57.466-2.2a2.24,2.24,0,0,1,.941-1.923A4.437,4.437,0,0,1,61.055-4.8h1.318v-.623a1.522,1.522,0,0,0-.425-1.132A1.707,1.707,0,0,0,60.7-6.98a1.976,1.976,0,0,0-1.216.366,1.079,1.079,0,0,0-.491.886H57.627a1.87,1.87,0,0,1,.421-1.146,2.874,2.874,0,0,1,1.143-.875,3.844,3.844,0,0,1,1.586-.322,3.133,3.133,0,0,1,2.146.685A2.47,2.47,0,0,1,63.728-5.5v3.647a4.459,4.459,0,0,0,.278,1.736V0ZM60.337-1.033a2.381,2.381,0,0,0,1.208-.33,1.994,1.994,0,0,0,.828-.857V-3.845H61.311q-2.49,0-2.49,1.458a1.234,1.234,0,0,0,.425,1A1.633,1.633,0,0,0,60.337-1.033Zm5.186-3a4.642,4.642,0,0,1,.864-2.933,2.733,2.733,0,0,1,2.263-1.11,2.748,2.748,0,0,1,2.2.952V-11.25h1.355V0H70.964L70.9-.85a2.759,2.759,0,0,1-2.263,1A2.707,2.707,0,0,1,66.39-.981a4.7,4.7,0,0,1-.868-2.944Zm1.355.154a3.515,3.515,0,0,0,.557,2.109A1.8,1.8,0,0,0,68.972-1a1.977,1.977,0,0,0,1.882-1.157V-5.8a1.992,1.992,0,0,0-1.868-1.121,1.808,1.808,0,0,0-1.553.769A3.87,3.87,0,0,0,66.877-3.875Zm7.075-.161A4.681,4.681,0,0,1,74.41-6.13a3.415,3.415,0,0,1,1.274-1.436,3.469,3.469,0,0,1,1.864-.505,3.342,3.342,0,0,1,2.618,1.121,4.311,4.311,0,0,1,1,2.981v.1A4.722,4.722,0,0,1,80.724-1.8,3.365,3.365,0,0,1,79.457-.366a3.509,3.509,0,0,1-1.893.513A3.334,3.334,0,0,1,74.952-.974a4.29,4.29,0,0,1-1-2.966Zm1.362.161a3.39,3.39,0,0,0,.612,2.117,1.957,1.957,0,0,0,1.637.8A1.945,1.945,0,0,0,79.2-1.769a3.707,3.707,0,0,0,.608-2.267,3.384,3.384,0,0,0-.619-2.113,1.968,1.968,0,0,0-1.644-.809,1.946,1.946,0,0,0-1.619.8A3.68,3.68,0,0,0,75.315-3.875Z" transform="translate(811.298 2103.262)" fill="#12263f"/>
    <path id="Trazado_816734" data-name="Trazado 816734" d="M54.168,36.1a2.351,2.351,0,0,0-1.02-3.45V27.524A3.524,3.524,0,0,0,49.623,24H46.334a3.524,3.524,0,0,0-3.524,3.524v5.129a2.351,2.351,0,0,0-1.02,3.45,3.289,3.289,0,1,0,3.839,5.235,3.289,3.289,0,0,0,4.7,0A3.289,3.289,0,1,0,54.168,36.1Z" transform="translate(869.828 2059.635)" fill="#fb8656"/>
    <path id="Trazado_816735" data-name="Trazado 816735" d="M40.339,286.015a3.29,3.29,0,0,0,3.106,2.921l-.932-1.79-.01-.018A2.233,2.233,0,0,0,40.339,286.015Z" transform="translate(869.5 1813.02)" fill="#f15a57"/>
    <path id="Trazado_816736" data-name="Trazado 816736" d="M47.988,256C43.576,256,40,261.259,40,267.747H56.974a17.187,17.187,0,0,0-.161-2.36c-.021-.154-1.043-.308-1.069-.46C54.886,259.8,51.739,256,47.988,256Z" transform="translate(869.819 1841.262)" fill="#fdbf67"/>
    <path id="Trazado_816737" data-name="Trazado 816737" d="M40,313.834a14.546,14.546,0,0,1,2.752-8.871,13.408,13.408,0,0,0,3.881,2.99,19,19,0,0,1,3.485,2.041A6.712,6.712,0,0,1,52.4,314.3H40Z" transform="translate(869.819 1795.174)" fill="#fdb651"/>
    <path id="Trazado_816738" data-name="Trazado 816738" d="M140.7,226.349l-2.349,3.289L136,226.349l.47-2.349h3.759Z" transform="translate(779.458 1871.382)" fill="#ffd4cf"/>
    <path id="Trazado_816739" data-name="Trazado 816739" d="M143.773,225.317,143.509,224H139.75l-.265,1.326.346.214a3.407,3.407,0,0,0,3.6-.008Z" transform="translate(776.177 1871.382)" fill="#fbb8b0"/>
    <path id="Trazado_816740" data-name="Trazado 816740" d="M83.042,82.819H81.867v-.47h-.009a1.645,1.645,0,0,1-1.41-.8L79.518,80l-.041.068a4.7,4.7,0,0,1-4.029,2.281h-1.1v.47H73.175A1.175,1.175,0,0,0,72,83.994v.94a1.175,1.175,0,0,0,1.175,1.175h1.175v-.2a2.937,2.937,0,0,0,1.392,2.5l1.125.7a2.349,2.349,0,0,0,2.481-.006l1.14-.712a2.937,2.937,0,0,0,1.38-2.49v.218h1.175a1.175,1.175,0,0,0,1.175-1.175v-.94A1.175,1.175,0,0,0,83.042,82.819Z" transform="translate(839.699 2006.924)" fill="#ffd4cf"/>
    <path id="Trazado_816741" data-name="Trazado 816741" d="M24,456H51.253v1.879H24Z" transform="translate(884.879 1653.008)" fill="#25b1fa"/>
    <path id="Trazado_816742" data-name="Trazado 816742" d="M27.766,311.221l-3.54-5.361a1.175,1.175,0,0,1,.52-1.773l.011,0a1.175,1.175,0,0,1,1.456.508l2.963,5.691Z" transform="translate(884.872 1796.082)" fill="#fb8656"/>
    <path id="Trazado_816743" data-name="Trazado 816743" d="M74.349,408a2.349,2.349,0,0,1,2.349,2.349v.47H72v-.47A2.349,2.349,0,0,1,74.349,408Z" transform="translate(839.699 1698.189)" fill="#ffd4cf"/>
    <path id="Trazado_816744" data-name="Trazado 816744" d="M317.632,138.829a2.819,2.819,0,1,0-3.817,2.638l-.412,2.061h2.819l-.412-2.061A2.82,2.82,0,0,0,317.632,138.829Z" transform="translate(613.802 1954.203)" fill="#fdbf67"/>
    <path id="Trazado_833743" data-name="Trazado 833743" d="M0,0H14.794V9.648H0Z" transform="translate(936.013 2107.553) rotate(180)" fill="#4dccff"/>
    <path id="Trazado_816745" data-name="Trazado 816745" d="M242.233,339.759l-.733-3.3a.587.587,0,0,0-.573-.46H238.11a.587.587,0,0,0-.573.46l-.733,3.3H232v.822a.587.587,0,0,0,.587.587h13.861a.587.587,0,0,0,.587-.587v-.822Z" transform="translate(689.096 1765.96)" fill="#25b1fa"/>
    <path id="Trazado_833744" data-name="Trazado 833744" d="M2.251,0A2.109,2.109,0,0,1,4.5,1.93a2.109,2.109,0,0,1-2.251,1.93A2.109,2.109,0,0,1,0,1.93,2.109,2.109,0,0,1,2.251,0Z" transform="translate(926.365 2092.115)" fill="#fb8656"/>
    <path id="Trazado_816746" data-name="Trazado 816746" d="M324.7,350.578H320v-1.41l.94-5.169h2.819l.94,5.169Z" transform="translate(606.265 1758.43)" fill="#4dccff"/>
    <path id="Trazado_816748" data-name="Trazado 816748" d="M43.135,30.1H38l-.264-1.318a3.289,3.289,0,1,0-3.062,0L34.41,30.1h-.828a3.783,3.783,0,0,0-1.369-1.7,2.826,2.826,0,0,0-.428-2.938,1.634,1.634,0,0,0,.191-.769v-.94a1.647,1.647,0,0,0-.94-1.486V19.994A4,4,0,0,0,27.042,16H25.4v.94h1.645A3.058,3.058,0,0,1,30.1,19.994v2.114h-.47a.47.47,0,0,0-.47-.47h-.009a1.181,1.181,0,0,1-1.007-.57l-.931-1.551a.47.47,0,0,0-.806,0l-.041.068a4.25,4.25,0,0,1-3.626,2.053h-1.1a.47.47,0,0,0-.47.47H20.7V19.994a3.058,3.058,0,0,1,3.054-3.054h.7V16h-.7a4,4,0,0,0-3.994,3.994v2.273a1.647,1.647,0,0,0-.94,1.486v.94a1.635,1.635,0,0,0,.191.769,2.826,2.826,0,0,0-.429,2.938,3.768,3.768,0,0,0-1.5,4.149l-.041.016-.01,0a1.645,1.645,0,0,0-.733,2.475L19.374,39.7a2.8,2.8,0,0,0-.554,1.677h-.933a16.4,16.4,0,0,1,.3-2.728l-.922-.183a17.337,17.337,0,0,0-.32,2.911H16.47a.47.47,0,0,0-.47.47v1.88a.47.47,0,0,0,.47.47H25.4v-.94H16.94v-.94H43.253v.94H26.337v.94H43.723a.47.47,0,0,0,.47-.47v-1.88a.47.47,0,0,0-.47-.47h-4.7v-.94h4.111a1.058,1.058,0,0,0,1.057-1.057V34.325h-.94v5.051a.117.117,0,0,1-.117.117H38.861l-.784-4.313a.47.47,0,0,0-.462-.386H34.8a.47.47,0,0,0-.462.386l-.784,4.313H29.274a.117.117,0,0,1-.117-.117V31.154a.117.117,0,0,1,.117-.117H43.135a.117.117,0,0,1,.117.117v2.232h.94V31.154A1.058,1.058,0,0,0,43.135,30.1Zm-6.949-1.88a1.41,1.41,0,1,1,.037,0h-.037Zm.018-4.7a2.35,2.35,0,0,1,2.3,2.819,2.35,2.35,0,0,0-4.6,0,2.351,2.351,0,0,1,2.3-2.819Zm-5.873-.47a.706.706,0,0,1,.7.7v.94a.706.706,0,0,1-.7.7h-.7V23.048Zm-7.594-.47a5.2,5.2,0,0,0,4.043-1.95l.554.924a2.127,2.127,0,0,0,1.352.975v3.123a2.453,2.453,0,0,1-1.159,2.092l-1.14.713a1.868,1.868,0,0,1-1.985,0l-1.125-.7a2.451,2.451,0,0,1-1.169-2.1V22.578Zm4.509,7.88L25.4,33.047l-1.849-2.588.253-1.267.106.065a2.8,2.8,0,0,0,2.977-.007l.106-.066Zm-7.487-6.706a.706.706,0,0,1,.7-.7h.7V25.4h-.7a.706.706,0,0,1-.7-.7Zm-.337,5.239a.47.47,0,0,0,.179-.678,1.883,1.883,0,0,1,.074-2.178,1.634,1.634,0,0,0,.789.2h.771a3.382,3.382,0,0,0,1.549,2.224l.166.1-.326,1.63a8.844,8.844,0,0,0-3.418,3.213l-.113-.216-.009-.016a1.645,1.645,0,0,0-1.025-.776,2.824,2.824,0,0,1,1.363-3.506ZM17.071,34.5a.7.7,0,0,1,.312-1.064l.01,0a.708.708,0,0,1,.87.3l2.57,4.937a2.809,2.809,0,0,0-.77.365l-2.983-4.517Zm2.688,6.869a1.88,1.88,0,1,1,3.759,0Zm14.566-.9.862-4.741h2.035l.862,4.741v.9H34.325Zm-5.051-.042h4.111v.94H24.458a2.823,2.823,0,0,0-2.621-2.812L19.712,34.48A8.283,8.283,0,0,1,22.921,31.2l2.094,2.931a.47.47,0,0,0,.765,0L27.873,31.2q.173.091.343.2v7.984A1.058,1.058,0,0,0,29.274,40.434Zm-.795-9.976q-.153-.086-.307-.163l-.329-1.642.182-.114a3.385,3.385,0,0,0,1.532-2.2h.774a1.634,1.634,0,0,0,.789-.2,1.883,1.883,0,0,1,.074,2.178.47.47,0,0,0,.179.678,2.837,2.837,0,0,1,1.165,1.1H29.274a1.055,1.055,0,0,0-.795.361Zm6.889-.361.2-1a3.309,3.309,0,0,0,1.272,0l.2,1Z" transform="translate(892.41 2067.165)"/>
    <path id="Trazado_816749" data-name="Trazado 816749" d="M352,192h.94v.94H352Z" transform="translate(576.145 1901.502)"/>
    <path id="Trazado_816750" data-name="Trazado 816750" d="M352,296h3.289v.94H352Z" transform="translate(576.145 1803.61)"/>
    <path id="Trazado_816751" data-name="Trazado 816751" d="M312,296h1.41v.94H312Z" transform="translate(613.795 1803.61)"/>
  </g>
</svg>
