<svg xmlns="http://www.w3.org/2000/svg" xmlns:xlink="http://www.w3.org/1999/xlink" width="820.1" height="508.5" viewBox="0 0 820.1 508.5">
  <defs>
    <clipPath id="clip-path">
      <rect id="Rectángulo_383026" data-name="Rectángulo 383026" width="820.1" height="508.5" transform="translate(179.9 4120)" fill="#f6f6f6"/>
    </clipPath>
    <clipPath id="clip-path-2">
      <rect id="Rectángulo_382974" data-name="Rectángulo 382974" width="48.864" height="31.323" fill="#be9a0e"/>
    </clipPath>
    <clipPath id="clip-path-3">
      <rect id="Rectángulo_382974-2" data-name="Rectángulo 382974" width="48.864" height="31.323" fill="#8081f7"/>
    </clipPath>
    <clipPath id="clip-path-8">
      <rect id="Rectángulo_382974-7" data-name="Rectángulo 382974" width="48.864" height="31.323" fill="#b20000"/>
    </clipPath>
  </defs>
  <g id="Enmascarar_grupo_1075504" data-name="Enmascarar grupo 1075504" transform="translate(-179.9 -4120)" clip-path="url(#clip-path)">
    <rect id="Rectángulo_382973" data-name="Rectángulo 382973" width="820.1" height="508.5" transform="translate(179.9 4120)" fill="#f3f9ff"/>
    <g id="Grupo_1088413" data-name="Grupo 1088413">
      <path id="Trazado_833637" data-name="Trazado 833637" d="M5,0H43.9a5,5,0,0,1,5,5V23.763a5,5,0,0,1-5,5H5a5,5,0,0,1-5-5V5A5,5,0,0,1,5,0Z" transform="translate(721.199 4472.749)" fill="#f2d873"/>
      <g id="Grupo_1084104" data-name="Grupo 1084104" transform="translate(721.204 4471.468)" clip-path="url(#clip-path-2)">
        <path id="Trazado_830127" data-name="Trazado 830127" d="M45.334,0H3.53A3.534,3.534,0,0,0,0,3.53V27.794a3.534,3.534,0,0,0,3.53,3.53h41.8a3.534,3.534,0,0,0,3.53-3.53V3.53A3.534,3.534,0,0,0,45.334,0m-20.9,18.834L4.5,2.353H44.368ZM2.353,3.634,14.759,13.89,2.353,27.248ZM16.576,15.393l3,2.484,4.1,3.391a1.176,1.176,0,0,0,1.5,0l7.106-5.875L44.9,28.97H3.966Zm17.529-1.5L46.51,3.635V27.249Z" transform="translate(0 0)" fill="#be9a0e"/>
      </g>
      <path id="Trazado_833632" data-name="Trazado 833632" d="M-37.488,0H-39l-5.727-8.766V0H-46.23V-11.375h1.508l5.742,8.8v-8.8h1.492Zm7.656-.836a3.07,3.07,0,0,1-2.477.992,2.628,2.628,0,0,1-2.059-.785,3.4,3.4,0,0,1-.715-2.324v-5.5h1.445v5.461q0,1.922,1.563,1.922a2.163,2.163,0,0,0,2.2-1.234V-8.453h1.445V0H-29.8Zm7.109.992a3.693,3.693,0,0,1-2.8-1.129A4.19,4.19,0,0,1-26.6-3.992v-.266a5.073,5.073,0,0,1,.48-2.246,3.748,3.748,0,0,1,1.344-1.547A3.378,3.378,0,0,1-22.9-8.609,3.166,3.166,0,0,1-20.34-7.523a4.7,4.7,0,0,1,.914,3.109v.6h-5.727a3,3,0,0,0,.73,2.02,2.3,2.3,0,0,0,1.777.77,2.517,2.517,0,0,0,1.3-.312,3.259,3.259,0,0,0,.93-.828l.883.688A3.55,3.55,0,0,1-22.723.156Zm-.18-7.578a1.928,1.928,0,0,0-1.469.637A3.1,3.1,0,0,0-25.105-5h4.234v-.109a2.753,2.753,0,0,0-.594-1.707A1.815,1.815,0,0,0-22.9-7.422Zm7.836,5.461,2.094-6.492H-11.5L-14.527,0h-1.1l-3.062-8.453h1.477ZM-10.605-4.3a4.993,4.993,0,0,1,.488-2.234A3.643,3.643,0,0,1-8.758-8.07,3.7,3.7,0,0,1-6.77-8.609a3.565,3.565,0,0,1,2.793,1.2A4.6,4.6,0,0,1-2.91-4.234v.1a5.036,5.036,0,0,1-.473,2.215A3.589,3.589,0,0,1-4.734-.391a3.743,3.743,0,0,1-2.02.547,3.556,3.556,0,0,1-2.785-1.2A4.575,4.575,0,0,1-10.605-4.2Zm1.453.172A3.616,3.616,0,0,0-8.5-1.875a2.088,2.088,0,0,0,1.746.852A2.075,2.075,0,0,0-5-1.887,3.955,3.955,0,0,0-4.355-4.3a3.61,3.61,0,0,0-.66-2.254A2.1,2.1,0,0,0-6.77-7.422,2.075,2.075,0,0,0-8.5-6.57,3.925,3.925,0,0,0-9.152-4.133ZM6.254-1.023a2.082,2.082,0,0,0,1.352-.469,1.649,1.649,0,0,0,.641-1.172H9.613a2.621,2.621,0,0,1-.5,1.383A3.293,3.293,0,0,1,7.883-.234,3.55,3.55,0,0,1,6.254.156,3.482,3.482,0,0,1,3.508-1a4.59,4.59,0,0,1-1.02-3.152v-.242a5.089,5.089,0,0,1,.453-2.2,3.451,3.451,0,0,1,1.3-1.492,3.7,3.7,0,0,1,2-.531,3.39,3.39,0,0,1,2.363.852,3.043,3.043,0,0,1,1,2.211H8.246a1.992,1.992,0,0,0-.621-1.348,1.932,1.932,0,0,0-1.379-.527,2.023,2.023,0,0,0-1.707.793,3.724,3.724,0,0,0-.605,2.293v.273a3.65,3.65,0,0,0,.6,2.25A2.033,2.033,0,0,0,6.254-1.023Zm4.6-3.281a4.993,4.993,0,0,1,.488-2.234A3.643,3.643,0,0,1,12.7-8.07a3.7,3.7,0,0,1,1.988-.539,3.565,3.565,0,0,1,2.793,1.2,4.6,4.6,0,0,1,1.066,3.18v.1a5.036,5.036,0,0,1-.473,2.215A3.589,3.589,0,0,1,16.727-.391a3.743,3.743,0,0,1-2.02.547,3.556,3.556,0,0,1-2.785-1.2A4.575,4.575,0,0,1,10.855-4.2Zm1.453.172a3.616,3.616,0,0,0,.652,2.258,2.088,2.088,0,0,0,1.746.852,2.075,2.075,0,0,0,1.75-.863A3.955,3.955,0,0,0,17.105-4.3a3.61,3.61,0,0,0-.66-2.254,2.1,2.1,0,0,0-1.754-.863,2.075,2.075,0,0,0-1.727.852A3.925,3.925,0,0,0,12.309-4.133ZM24.449-7.156a4.331,4.331,0,0,0-.711-.055A1.9,1.9,0,0,0,21.809-6V0H20.363V-8.453H21.77l.023.977a2.251,2.251,0,0,1,2.016-1.133,1.477,1.477,0,0,1,.641.109Zm5.414,0a4.331,4.331,0,0,0-.711-.055A1.9,1.9,0,0,0,27.223-6V0H25.777V-8.453h1.406l.023.977a2.251,2.251,0,0,1,2.016-1.133,1.477,1.477,0,0,1,.641.109ZM34.551.156a3.693,3.693,0,0,1-2.8-1.129,4.19,4.19,0,0,1-1.078-3.02v-.266a5.073,5.073,0,0,1,.48-2.246A3.748,3.748,0,0,1,32.5-8.051a3.378,3.378,0,0,1,1.871-.559,3.166,3.166,0,0,1,2.563,1.086,4.7,4.7,0,0,1,.914,3.109v.6H32.121a3,3,0,0,0,.73,2.02,2.3,2.3,0,0,0,1.777.77,2.517,2.517,0,0,0,1.3-.312,3.259,3.259,0,0,0,.93-.828l.883.688A3.55,3.55,0,0,1,34.551.156Zm-.18-7.578a1.928,1.928,0,0,0-1.469.637A3.1,3.1,0,0,0,32.168-5H36.4v-.109a2.753,2.753,0,0,0-.594-1.707A1.815,1.815,0,0,0,34.371-7.422ZM39.137-4.3a4.993,4.993,0,0,1,.488-2.234A3.643,3.643,0,0,1,40.984-8.07a3.7,3.7,0,0,1,1.988-.539,3.565,3.565,0,0,1,2.793,1.2,4.6,4.6,0,0,1,1.066,3.18v.1a5.036,5.036,0,0,1-.473,2.215A3.589,3.589,0,0,1,45.008-.391a3.743,3.743,0,0,1-2.02.547,3.556,3.556,0,0,1-2.785-1.2A4.575,4.575,0,0,1,39.137-4.2Zm1.453.172a3.616,3.616,0,0,0,.652,2.258,2.088,2.088,0,0,0,1.746.852,2.075,2.075,0,0,0,1.75-.863A3.955,3.955,0,0,0,45.387-4.3a3.61,3.61,0,0,0-.66-2.254,2.1,2.1,0,0,0-1.754-.863,2.075,2.075,0,0,0-1.727.852A3.925,3.925,0,0,0,40.59-4.133Z" transform="translate(746.199 4525.985)" fill="#12263f"/>
      <path id="Trazado_833633" data-name="Trazado 833633" d="M-21.719,0h-1.508l-5.727-8.766V0h-1.508V-11.375h1.508l5.742,8.8v-8.8h1.492Zm2.055-4.3a4.993,4.993,0,0,1,.488-2.234A3.643,3.643,0,0,1-17.816-8.07a3.7,3.7,0,0,1,1.988-.539,3.565,3.565,0,0,1,2.793,1.2,4.6,4.6,0,0,1,1.066,3.18v.1a5.036,5.036,0,0,1-.473,2.215A3.589,3.589,0,0,1-13.793-.391a3.743,3.743,0,0,1-2.02.547,3.556,3.556,0,0,1-2.785-1.2A4.575,4.575,0,0,1-19.664-4.2Zm1.453.172a3.616,3.616,0,0,0,.652,2.258,2.088,2.088,0,0,0,1.746.852,2.075,2.075,0,0,0,1.75-.863A3.955,3.955,0,0,0-13.414-4.3a3.61,3.61,0,0,0-.66-2.254,2.1,2.1,0,0,0-1.754-.863,2.075,2.075,0,0,0-1.727.852A3.925,3.925,0,0,0-18.211-4.133Zm16.4,1.844q.117-.875-.961-1.234l-1.469-.43q-1.859-.641-1.8-2.125A2.341,2.341,0,0,1-5.02-7.91a3.631,3.631,0,0,1,2.27-.7,3.027,3.027,0,0,1,2.082.746,2.363,2.363,0,0,1,.77,1.9L-1.3-5.969A1.319,1.319,0,0,0-1.7-7a1.576,1.576,0,0,0-1.1-.414,2.059,2.059,0,0,0-1.266.359,1.316,1.316,0,0,0-.57.922q-.1.734.9,1.07l.711.2a4.577,4.577,0,0,1,2.063.977A1.865,1.865,0,0,1-.406-2.4,2.37,2.37,0,0,1-.922-1.023a2.948,2.948,0,0,1-1.25.895A4.18,4.18,0,0,1-3.836.156,3.3,3.3,0,0,1-6.055-.629,2.427,2.427,0,0,1-6.9-2.609l1.414.008a1.5,1.5,0,0,0,.453,1.141,1.732,1.732,0,0,0,1.242.43,2.436,2.436,0,0,0,1.336-.324A1.247,1.247,0,0,0-1.812-2.289Zm10.5-1.9a6.707,6.707,0,0,1-.7,2.32A3.949,3.949,0,0,1,6.656-.324,3.058,3.058,0,0,1,4.891.164a2.815,2.815,0,0,1-2.25-.992L1.883,3.25H.469L2.5-8.453l1.281-.008-.156.945A3.207,3.207,0,0,1,6.133-8.609a2.358,2.358,0,0,1,1.9.9A3.954,3.954,0,0,1,8.75-5.32a8.413,8.413,0,0,1-.039.969ZM7.3-4.348,7.336-5A2.969,2.969,0,0,0,6.9-6.747a1.525,1.525,0,0,0-1.254-.636A2.508,2.508,0,0,0,3.531-6.22L2.82-2.17A1.769,1.769,0,0,0,4.531-1.016a2.224,2.224,0,0,0,1.793-.823A4.777,4.777,0,0,0,7.3-4.348ZM14.992,0a1.894,1.894,0,0,1-.055-.445l.023-.445A3.465,3.465,0,0,1,12.492.156a2.526,2.526,0,0,1-1.816-.707,2.14,2.14,0,0,1-.637-1.73,2.6,2.6,0,0,1,1.176-2.1A5.005,5.005,0,0,1,14.1-5.133l1.477.008.094-.672A1.545,1.545,0,0,0,15.379-7a1.414,1.414,0,0,0-1.113-.457A2.181,2.181,0,0,0,12.98-7.1a1.513,1.513,0,0,0-.684.98l-1.422.008a2.266,2.266,0,0,1,.578-1.316,3.363,3.363,0,0,1,1.3-.891,4.215,4.215,0,0,1,1.648-.3,2.8,2.8,0,0,1,2.055.8,2.484,2.484,0,0,1,.617,2.043l-.687,4.188-.039.6a2.949,2.949,0,0,0,.094.852L16.43,0ZM12.773-1.094a2.466,2.466,0,0,0,1.285-.324A3.254,3.254,0,0,0,15.1-2.359l.3-1.742-1.07-.008a4.054,4.054,0,0,0-2.047.422,1.554,1.554,0,0,0-.8,1.2,1.21,1.21,0,0,0,.277.988A1.321,1.321,0,0,0,12.773-1.094Zm8.359-7.367-.18.945a3.305,3.305,0,0,1,2.57-1.094,2.608,2.608,0,0,1,1.363.367,1.8,1.8,0,0,1,.77.992,3.49,3.49,0,0,1,2.8-1.359,2.235,2.235,0,0,1,1.867.852,3.042,3.042,0,0,1,.445,2.2L29.844,0H28.438l.922-5.57a2.943,2.943,0,0,0,0-.742Q29.211-7.375,27.969-7.4a2.136,2.136,0,0,0-1.4.48,2.222,2.222,0,0,0-.809,1.3L24.8,0H23.375l.938-5.562A1.786,1.786,0,0,0,24.051-6.9a1.377,1.377,0,0,0-1.129-.484,2.315,2.315,0,0,0-2.1,1.2L19.75,0H18.336L19.8-8.453Z" transform="translate(933.952 4498.792)" fill="#12263f"/>
      <path id="Trazado_833634" data-name="Trazado 833634" d="M-13.289-2.93q.172-1.25-1.3-1.828l-1.352-.492-.453-.2q-2.281-1.039-2.133-2.922a3.056,3.056,0,0,1,.648-1.672,3.69,3.69,0,0,1,1.512-1.121,4.849,4.849,0,0,1,2-.371,4,4,0,0,1,1.84.461,2.962,2.962,0,0,1,1.23,1.223,3.333,3.333,0,0,1,.375,1.77l-1.477-.008a2.037,2.037,0,0,0-.469-1.627,2.1,2.1,0,0,0-1.562-.592,2.91,2.91,0,0,0-1.789.5,1.955,1.955,0,0,0-.828,1.409q-.156,1.166,1.43,1.769l1.164.415.586.25A2.941,2.941,0,0,1-11.82-2.945a3.012,3.012,0,0,1-.648,1.66A3.626,3.626,0,0,1-14-.2,5.266,5.266,0,0,1-16.07.156,4.34,4.34,0,0,1-18.027-.3a3.193,3.193,0,0,1-1.348-1.23A3.078,3.078,0,0,1-19.781-3.3l1.469.008a1.935,1.935,0,0,0,.551,1.613,2.479,2.479,0,0,0,1.754.613,3.131,3.131,0,0,0,1.867-.492A1.916,1.916,0,0,0-13.289-2.93ZM-2.953-4.187a6.707,6.707,0,0,1-.7,2.32A3.949,3.949,0,0,1-4.984-.324,3.058,3.058,0,0,1-6.75.164,2.815,2.815,0,0,1-9-.828L-9.758,3.25h-1.414l2.031-11.7,1.281-.008-.156.945A3.207,3.207,0,0,1-5.508-8.609a2.358,2.358,0,0,1,1.9.9A3.954,3.954,0,0,1-2.891-5.32a8.413,8.413,0,0,1-.039.969Zm-1.391-.16L-4.3-5a2.969,2.969,0,0,0-.434-1.744,1.525,1.525,0,0,0-1.254-.636A2.508,2.508,0,0,0-8.109-6.22L-8.82-2.17A1.769,1.769,0,0,0-7.109-1.016a2.224,2.224,0,0,0,1.793-.823A4.777,4.777,0,0,0-4.344-4.348ZM3.352,0A1.894,1.894,0,0,1,3.3-.445L3.32-.891A3.465,3.465,0,0,1,.852.156,2.526,2.526,0,0,1-.965-.551,2.14,2.14,0,0,1-1.6-2.281a2.6,2.6,0,0,1,1.176-2.1,5.005,5.005,0,0,1,2.887-.754l1.477.008L4.031-5.8A1.545,1.545,0,0,0,3.738-7a1.414,1.414,0,0,0-1.113-.457A2.181,2.181,0,0,0,1.34-7.1a1.513,1.513,0,0,0-.684.98l-1.422.008A2.266,2.266,0,0,1-.187-7.426a3.363,3.363,0,0,1,1.3-.891,4.215,4.215,0,0,1,1.648-.3,2.8,2.8,0,0,1,2.055.8,2.484,2.484,0,0,1,.617,2.043L4.75-1.586l-.039.6A2.949,2.949,0,0,0,4.8-.133L4.789,0ZM1.133-1.094a2.466,2.466,0,0,0,1.285-.324,3.254,3.254,0,0,0,1.043-.941l.3-1.742L2.7-4.109a4.054,4.054,0,0,0-2.047.422,1.554,1.554,0,0,0-.8,1.2A1.21,1.21,0,0,0,.121-1.5,1.321,1.321,0,0,0,1.133-1.094ZM9.492-8.461l-.18.945a3.305,3.305,0,0,1,2.57-1.094,2.608,2.608,0,0,1,1.363.367,1.8,1.8,0,0,1,.77.992,3.49,3.49,0,0,1,2.8-1.359,2.235,2.235,0,0,1,1.867.852,3.042,3.042,0,0,1,.445,2.2L18.2,0H16.8l.922-5.57a2.943,2.943,0,0,0,0-.742Q17.57-7.375,16.328-7.4a2.136,2.136,0,0,0-1.4.48,2.222,2.222,0,0,0-.809,1.3L13.156,0H11.734l.938-5.562A1.786,1.786,0,0,0,12.41-6.9a1.377,1.377,0,0,0-1.129-.484,2.315,2.315,0,0,0-2.1,1.2L8.109,0H6.7L8.164-8.453Z" transform="translate(933.952 4322)" fill="#12263f"/>
      <g id="Grupo_1084192" data-name="Grupo 1084192" transform="translate(830.033 4368.349) rotate(-34)">
        <path id="Trazado_772741" data-name="Trazado 772741" d="M4.933,1.407,0,0,4.921,7.631l.012-.015.012.015L9.866,0Z" transform="matrix(-0.309, -0.951, 0.951, -0.309, 96.364, -15.021)" fill="#24135a" stroke="rgba(0,0,0,0)" stroke-width="1"/>
        <path id="Trazado_830229" data-name="Trazado 830229" d="M.493,5.075,96.481-20.187" fill="none" stroke="#24135a" stroke-width="1.8"/>
      </g>
      <g id="Grupo_1084192-2" data-name="Grupo 1084192" transform="translate(833.279 4370.711) rotate(34)">
        <path id="Trazado_772741-2" data-name="Trazado 772741" d="M4.933,6.224,0,7.631,4.921,0l.012.015L4.945,0,9.866,7.631Z" transform="matrix(-0.309, 0.951, -0.951, -0.309, 103.129, 22.454)" fill="#24135a" stroke="rgba(0,0,0,0)" stroke-width="1"/>
        <path id="Trazado_830229-2" data-name="Trazado 830229" d="M0,0,95.988,25.262" transform="translate(0 0)" fill="none" stroke="#24135a" stroke-width="1.8"/>
      </g>
      <path id="Trazado_830128" data-name="Trazado 830128" d="M0,0H48.326" transform="translate(746.132 4471.468) rotate(-90)" fill="none" stroke="#24135a" stroke-width="1.8"/>
      <path id="Trazado_772741-3" data-name="Trazado 772741" d="M4.933,1.407,0,0,4.921,7.631l.012-.015.012.015L9.866,0Z" transform="translate(751.064 4426.796) rotate(180)" fill="#24135a" stroke="rgba(0,0,0,0)" stroke-width="1"/>
      <path id="Trazado_833641" data-name="Trazado 833641" d="M5,0H44.244a5,5,0,0,1,5,5V23.826a5,5,0,0,1-5,5H5a5,5,0,0,1-5-5V5A5,5,0,0,1,5,0Z" transform="translate(232.445 4200.715)" fill="#fff"/>
      <g id="Grupo_1084105" data-name="Grupo 1084105" transform="translate(232.23 4199.626)">
        <g id="Grupo_1084104-2" data-name="Grupo 1084104" clip-path="url(#clip-path-3)">
          <path id="Trazado_830127-2" data-name="Trazado 830127" d="M45.334,0H3.53A3.534,3.534,0,0,0,0,3.53V27.794a3.534,3.534,0,0,0,3.53,3.53h41.8a3.534,3.534,0,0,0,3.53-3.53V3.53A3.534,3.534,0,0,0,45.334,0m-20.9,18.834L4.5,2.353H44.368ZM2.353,3.634,14.759,13.89,2.353,27.248ZM16.576,15.393l3,2.484,4.1,3.391a1.176,1.176,0,0,0,1.5,0l7.106-5.875L44.9,28.97H3.966Zm17.529-1.5L46.51,3.635V27.249Z" transform="translate(0 0)" fill="#8081f7"/>
        </g>
      </g>
      <path id="Trazado_833642" data-name="Trazado 833642" d="M5,0H44.244a5,5,0,0,1,5,5V23.826a5,5,0,0,1-5,5H5a5,5,0,0,1-5-5V5A5,5,0,0,1,5,0Z" transform="translate(300.906 4157.476)" fill="#fff"/>
      <g id="Grupo_1084105-2" data-name="Grupo 1084105" transform="translate(301.26 4156.481)">
        <g id="Grupo_1084104-3" data-name="Grupo 1084104" clip-path="url(#clip-path-3)">
          <path id="Trazado_830127-3" data-name="Trazado 830127" d="M45.334,0H3.53A3.534,3.534,0,0,0,0,3.53V27.794a3.534,3.534,0,0,0,3.53,3.53h41.8a3.534,3.534,0,0,0,3.53-3.53V3.53A3.534,3.534,0,0,0,45.334,0m-20.9,18.834L4.5,2.353H44.368ZM2.353,3.634,14.759,13.89,2.353,27.248ZM16.576,15.393l3,2.484,4.1,3.391a1.176,1.176,0,0,0,1.5,0l7.106-5.875L44.9,28.97H3.966Zm17.529-1.5L46.51,3.635V27.249Z" transform="translate(0 0)" fill="#8081f7"/>
        </g>
      </g>
      <path id="Trazado_833643" data-name="Trazado 833643" d="M5,0H44.244a5,5,0,0,1,5,5V23.826a5,5,0,0,1-5,5H5a5,5,0,0,1-5-5V5A5,5,0,0,1,5,0Z" transform="translate(328.531 4229.541)" fill="#fff"/>
      <g id="Grupo_1084105-3" data-name="Grupo 1084105" transform="translate(328.585 4228.389)">
        <g id="Grupo_1084104-4" data-name="Grupo 1084104" clip-path="url(#clip-path-3)">
          <path id="Trazado_830127-4" data-name="Trazado 830127" d="M45.334,0H3.53A3.534,3.534,0,0,0,0,3.53V27.794a3.534,3.534,0,0,0,3.53,3.53h41.8a3.534,3.534,0,0,0,3.53-3.53V3.53A3.534,3.534,0,0,0,45.334,0m-20.9,18.834L4.5,2.353H44.368ZM2.353,3.634,14.759,13.89,2.353,27.248ZM16.576,15.393l3,2.484,4.1,3.391a1.176,1.176,0,0,0,1.5,0l7.106-5.875L44.9,28.97H3.966Zm17.529-1.5L46.51,3.635V27.249Z" transform="translate(0 0)" fill="#8081f7"/>
        </g>
      </g>
      <path id="Trazado_833644" data-name="Trazado 833644" d="M5,0H44.244a5,5,0,0,1,5,5V23.826a5,5,0,0,1-5,5H5a5,5,0,0,1-5-5V5A5,5,0,0,1,5,0Z" transform="translate(257.667 4285.992)" fill="#fff"/>
      <g id="Grupo_1084105-4" data-name="Grupo 1084105" transform="translate(258.117 4284.476)">
        <g id="Grupo_1084104-5" data-name="Grupo 1084104" clip-path="url(#clip-path-3)">
          <path id="Trazado_830127-5" data-name="Trazado 830127" d="M45.334,0H3.53A3.534,3.534,0,0,0,0,3.53V27.794a3.534,3.534,0,0,0,3.53,3.53h41.8a3.534,3.534,0,0,0,3.53-3.53V3.53A3.534,3.534,0,0,0,45.334,0m-20.9,18.834L4.5,2.353H44.368ZM2.353,3.634,14.759,13.89,2.353,27.248ZM16.576,15.393l3,2.484,4.1,3.391a1.176,1.176,0,0,0,1.5,0l7.106-5.875L44.9,28.97H3.966Zm17.529-1.5L46.51,3.635V27.249Z" transform="translate(0 0)" fill="#8081f7"/>
        </g>
      </g>
      <path id="Trazado_833645" data-name="Trazado 833645" d="M5,0H44.244a5,5,0,0,1,5,5V23.826a5,5,0,0,1-5,5H5a5,5,0,0,1-5-5V5A5,5,0,0,1,5,0Z" transform="translate(357.357 4285.992)" fill="#fff"/>
      <g id="Grupo_1084105-5" data-name="Grupo 1084105" transform="translate(357.348 4284.476)">
        <g id="Grupo_1084104-6" data-name="Grupo 1084104" clip-path="url(#clip-path-3)">
          <path id="Trazado_830127-6" data-name="Trazado 830127" d="M45.334,0H3.53A3.534,3.534,0,0,0,0,3.53V27.794a3.534,3.534,0,0,0,3.53,3.53h41.8a3.534,3.534,0,0,0,3.53-3.53V3.53A3.534,3.534,0,0,0,45.334,0m-20.9,18.834L4.5,2.353H44.368ZM2.353,3.634,14.759,13.89,2.353,27.248ZM16.576,15.393l3,2.484,4.1,3.391a1.176,1.176,0,0,0,1.5,0l7.106-5.875L44.9,28.97H3.966Zm17.529-1.5L46.51,3.635V27.249Z" transform="translate(0 0)" fill="#8081f7"/>
        </g>
      </g>
      <path id="Trazado_833646" data-name="Trazado 833646" d="M5,0H43.9a5,5,0,0,1,5,5V23.763a5,5,0,0,1-5,5H5a5,5,0,0,1-5-5V5A5,5,0,0,1,5,0Z" transform="translate(314.198 4339.764)" fill="#f34534"/>
      <g id="Grupo_1084105-6" data-name="Grupo 1084105" transform="translate(314.204 4338.484)">
        <g id="Grupo_1084104-7" data-name="Grupo 1084104" clip-path="url(#clip-path-8)">
          <path id="Trazado_830127-7" data-name="Trazado 830127" d="M45.334,0H3.53A3.534,3.534,0,0,0,0,3.53V27.794a3.534,3.534,0,0,0,3.53,3.53h41.8a3.534,3.534,0,0,0,3.53-3.53V3.53A3.534,3.534,0,0,0,45.334,0m-20.9,18.834L4.5,2.353H44.368ZM2.353,3.634,14.759,13.89,2.353,27.248ZM16.576,15.393l3,2.484,4.1,3.391a1.176,1.176,0,0,0,1.5,0l7.106-5.875L44.9,28.97H3.966Zm17.529-1.5L46.51,3.635V27.249Z" transform="translate(0 0)" fill="#b20000"/>
        </g>
      </g>
      <path id="Trazado_833647" data-name="Trazado 833647" d="M5,0H43.9a5,5,0,0,1,5,5V23.763a5,5,0,0,1-5,5H5a5,5,0,0,1-5-5V5A5,5,0,0,1,5,0Z" transform="translate(396.503 4339.764)" fill="#f34534"/>
      <g id="Grupo_1084105-7" data-name="Grupo 1084105" transform="translate(396.509 4338.484)">
        <g id="Grupo_1084104-8" data-name="Grupo 1084104" clip-path="url(#clip-path-8)">
          <path id="Trazado_830127-8" data-name="Trazado 830127" d="M45.334,0H3.53A3.534,3.534,0,0,0,0,3.53V27.794a3.534,3.534,0,0,0,3.53,3.53h41.8a3.534,3.534,0,0,0,3.53-3.53V3.53A3.534,3.534,0,0,0,45.334,0m-20.9,18.834L4.5,2.353H44.368ZM2.353,3.634,14.759,13.89,2.353,27.248ZM16.576,15.393l3,2.484,4.1,3.391a1.176,1.176,0,0,0,1.5,0l7.106-5.875L44.9,28.97H3.966Zm17.529-1.5L46.51,3.635V27.249Z" transform="translate(0 0)" fill="#b20000"/>
        </g>
      </g>
      <path id="Trazado_833648" data-name="Trazado 833648" d="M5,0H44.244a5,5,0,0,1,5,5V23.826a5,5,0,0,1-5,5H5a5,5,0,0,1-5-5V5A5,5,0,0,1,5,0Z" transform="translate(411.405 4229.541)" fill="#f34534"/>
      <g id="Grupo_1084105-8" data-name="Grupo 1084105" transform="translate(411.996 4228.389)">
        <g id="Grupo_1084104-9" data-name="Grupo 1084104" clip-path="url(#clip-path-8)">
          <path id="Trazado_830127-9" data-name="Trazado 830127" d="M45.334,0H3.53A3.534,3.534,0,0,0,0,3.53V27.794a3.534,3.534,0,0,0,3.53,3.53h41.8a3.534,3.534,0,0,0,3.53-3.53V3.53A3.534,3.534,0,0,0,45.334,0m-20.9,18.834L4.5,2.353H44.368ZM2.353,3.634,14.759,13.89,2.353,27.248ZM16.576,15.393l3,2.484,4.1,3.391a1.176,1.176,0,0,0,1.5,0l7.106-5.875L44.9,28.97H3.966Zm17.529-1.5L46.51,3.635V27.249Z" transform="translate(0 0)" fill="#b20000"/>
        </g>
      </g>
      <path id="Trazado_833649" data-name="Trazado 833649" d="M5,0H43.9a5,5,0,0,1,5,5V23.763a5,5,0,0,1-5,5H5a5,5,0,0,1-5-5V5A5,5,0,0,1,5,0Z" transform="translate(469.057 4378.56)" fill="#f34534"/>
      <g id="Grupo_1084105-9" data-name="Grupo 1084105" transform="translate(469.063 4377.279)">
        <g id="Grupo_1084104-10" data-name="Grupo 1084104" clip-path="url(#clip-path-8)">
          <path id="Trazado_830127-10" data-name="Trazado 830127" d="M45.334,0H3.53A3.534,3.534,0,0,0,0,3.53V27.794a3.534,3.534,0,0,0,3.53,3.53h41.8a3.534,3.534,0,0,0,3.53-3.53V3.53A3.534,3.534,0,0,0,45.334,0m-20.9,18.834L4.5,2.353H44.368ZM2.353,3.634,14.759,13.89,2.353,27.248ZM16.576,15.393l3,2.484,4.1,3.391a1.176,1.176,0,0,0,1.5,0l7.106-5.875L44.9,28.97H3.966Zm17.529-1.5L46.51,3.635V27.249Z" transform="translate(0 0)" fill="#b20000"/>
        </g>
      </g>
      <path id="Trazado_833650" data-name="Trazado 833650" d="M5,0H43.9a5,5,0,0,1,5,5V23.763a5,5,0,0,1-5,5H5a5,5,0,0,1-5-5V5A5,5,0,0,1,5,0Z" transform="translate(318.509 4529.656)" fill="#f34534"/>
      <g id="Grupo_1084105-10" data-name="Grupo 1084105" transform="translate(318.515 4528.375)">
        <g id="Grupo_1084104-11" data-name="Grupo 1084104" clip-path="url(#clip-path-8)">
          <path id="Trazado_830127-11" data-name="Trazado 830127" d="M45.334,0H3.53A3.534,3.534,0,0,0,0,3.53V27.794a3.534,3.534,0,0,0,3.53,3.53h41.8a3.534,3.534,0,0,0,3.53-3.53V3.53A3.534,3.534,0,0,0,45.334,0m-20.9,18.834L4.5,2.353H44.368ZM2.353,3.634,14.759,13.89,2.353,27.248ZM16.576,15.393l3,2.484,4.1,3.391a1.176,1.176,0,0,0,1.5,0l7.106-5.875L44.9,28.97H3.966Zm17.529-1.5L46.51,3.635V27.249Z" transform="translate(0 0)" fill="#b20000"/>
        </g>
      </g>
      <path id="Trazado_833651" data-name="Trazado 833651" d="M5,0H44.244a5,5,0,0,1,5,5V23.826a5,5,0,0,1-5,5H5a5,5,0,0,1-5-5V5A5,5,0,0,1,5,0Z" transform="translate(219.233 4338.839)" fill="#fff"/>
      <g id="Grupo_1084105-11" data-name="Grupo 1084105" transform="translate(219.287 4337.687)">
        <g id="Grupo_1084104-12" data-name="Grupo 1084104" clip-path="url(#clip-path-3)">
          <path id="Trazado_830127-12" data-name="Trazado 830127" d="M45.334,0H3.53A3.534,3.534,0,0,0,0,3.53V27.794a3.534,3.534,0,0,0,3.53,3.53h41.8a3.534,3.534,0,0,0,3.53-3.53V3.53A3.534,3.534,0,0,0,45.334,0m-20.9,18.834L4.5,2.353H44.368ZM2.353,3.634,14.759,13.89,2.353,27.248ZM16.576,15.393l3,2.484,4.1,3.391a1.176,1.176,0,0,0,1.5,0l7.106-5.875L44.9,28.97H3.966Zm17.529-1.5L46.51,3.635V27.249Z" transform="translate(0 0)" fill="#8081f7"/>
        </g>
      </g>
      <path id="Trazado_833652" data-name="Trazado 833652" d="M5,0H44.244a5,5,0,0,1,5,5V23.826a5,5,0,0,1-5,5H5a5,5,0,0,1-5-5V5A5,5,0,0,1,5,0Z" transform="translate(228.842 4410.903)" fill="#fff"/>
      <g id="Grupo_1084105-12" data-name="Grupo 1084105" transform="translate(229.354 4409.592)">
        <g id="Grupo_1084104-13" data-name="Grupo 1084104" clip-path="url(#clip-path-3)">
          <path id="Trazado_830127-13" data-name="Trazado 830127" d="M45.334,0H3.53A3.534,3.534,0,0,0,0,3.53V27.794a3.534,3.534,0,0,0,3.53,3.53h41.8a3.534,3.534,0,0,0,3.53-3.53V3.53A3.534,3.534,0,0,0,45.334,0m-20.9,18.834L4.5,2.353H44.368ZM2.353,3.634,14.759,13.89,2.353,27.248ZM16.576,15.393l3,2.484,4.1,3.391a1.176,1.176,0,0,0,1.5,0l7.106-5.875L44.9,28.97H3.966Zm17.529-1.5L46.51,3.635V27.249Z" transform="translate(0 0)" fill="#8081f7"/>
        </g>
      </g>
      <path id="Trazado_833653" data-name="Trazado 833653" d="M5,0H43.9a5,5,0,0,1,5,5V23.763a5,5,0,0,1-5,5H5a5,5,0,0,1-5-5V5A5,5,0,0,1,5,0Z" transform="translate(317.074 4442.196)" fill="#fff"/>
      <g id="Grupo_1084105-13" data-name="Grupo 1084105" transform="translate(317.08 4440.916)">
        <g id="Grupo_1084104-14" data-name="Grupo 1084104" clip-path="url(#clip-path-3)">
          <path id="Trazado_830127-14" data-name="Trazado 830127" d="M45.334,0H3.53A3.534,3.534,0,0,0,0,3.53V27.794a3.534,3.534,0,0,0,3.53,3.53h41.8a3.534,3.534,0,0,0,3.53-3.53V3.53A3.534,3.534,0,0,0,45.334,0m-20.9,18.834L4.5,2.353H44.368ZM2.353,3.634,14.759,13.89,2.353,27.248ZM16.576,15.393l3,2.484,4.1,3.391a1.176,1.176,0,0,0,1.5,0l7.106-5.875L44.9,28.97H3.966Zm17.529-1.5L46.51,3.635V27.249Z" transform="translate(0 0)" fill="#8081f7"/>
        </g>
      </g>
      <path id="Trazado_833654" data-name="Trazado 833654" d="M5,0H43.9a5,5,0,0,1,5,5V23.763a5,5,0,0,1-5,5H5a5,5,0,0,1-5-5V5A5,5,0,0,1,5,0Z" transform="translate(456.573 4442.196)" fill="#fff"/>
      <g id="Grupo_1084105-14" data-name="Grupo 1084105" transform="translate(456.578 4440.916)">
        <g id="Grupo_1084104-15" data-name="Grupo 1084104" clip-path="url(#clip-path-3)">
          <path id="Trazado_830127-15" data-name="Trazado 830127" d="M45.334,0H3.53A3.534,3.534,0,0,0,0,3.53V27.794a3.534,3.534,0,0,0,3.53,3.53h41.8a3.534,3.534,0,0,0,3.53-3.53V3.53A3.534,3.534,0,0,0,45.334,0m-20.9,18.834L4.5,2.353H44.368ZM2.353,3.634,14.759,13.89,2.353,27.248ZM16.576,15.393l3,2.484,4.1,3.391a1.176,1.176,0,0,0,1.5,0l7.106-5.875L44.9,28.97H3.966Zm17.529-1.5L46.51,3.635V27.249Z" transform="translate(0 0)" fill="#8081f7"/>
        </g>
      </g>
      <path id="Trazado_833655" data-name="Trazado 833655" d="M5,0H43.9a5,5,0,0,1,5,5V23.763a5,5,0,0,1-5,5H5a5,5,0,0,1-5-5V5A5,5,0,0,1,5,0Z" transform="translate(529.459 4378.56)" fill="#fff"/>
      <g id="Grupo_1084105-15" data-name="Grupo 1084105" transform="translate(529.465 4377.279)">
        <g id="Grupo_1084104-16" data-name="Grupo 1084104" clip-path="url(#clip-path-3)">
          <path id="Trazado_830127-16" data-name="Trazado 830127" d="M45.334,0H3.53A3.534,3.534,0,0,0,0,3.53V27.794a3.534,3.534,0,0,0,3.53,3.53h41.8a3.534,3.534,0,0,0,3.53-3.53V3.53A3.534,3.534,0,0,0,45.334,0m-20.9,18.834L4.5,2.353H44.368ZM2.353,3.634,14.759,13.89,2.353,27.248ZM16.576,15.393l3,2.484,4.1,3.391a1.176,1.176,0,0,0,1.5,0l7.106-5.875L44.9,28.97H3.966Zm17.529-1.5L46.51,3.635V27.249Z" transform="translate(0 0)" fill="#8081f7"/>
        </g>
      </g>
      <path id="Trazado_833656" data-name="Trazado 833656" d="M5,0H44.244a5,5,0,0,1,5,5V23.826a5,5,0,0,1-5,5H5a5,5,0,0,1-5-5V5A5,5,0,0,1,5,0Z" transform="translate(469.057 4229.541)" fill="#fff"/>
      <g id="Grupo_1084105-16" data-name="Grupo 1084105" transform="translate(469.522 4228.389)">
        <g id="Grupo_1084104-17" data-name="Grupo 1084104" clip-path="url(#clip-path-3)">
          <path id="Trazado_830127-17" data-name="Trazado 830127" d="M45.334,0H3.53A3.534,3.534,0,0,0,0,3.53V27.794a3.534,3.534,0,0,0,3.53,3.53h41.8a3.534,3.534,0,0,0,3.53-3.53V3.53A3.534,3.534,0,0,0,45.334,0m-20.9,18.834L4.5,2.353H44.368ZM2.353,3.634,14.759,13.89,2.353,27.248ZM16.576,15.393l3,2.484,4.1,3.391a1.176,1.176,0,0,0,1.5,0l7.106-5.875L44.9,28.97H3.966Zm17.529-1.5L46.51,3.635V27.249Z" transform="translate(0 0)" fill="#8081f7"/>
        </g>
      </g>
      <path id="Trazado_833657" data-name="Trazado 833657" d="M5,0H43.9a5,5,0,0,1,5,5V23.763a5,5,0,0,1-5,5H5a5,5,0,0,1-5-5V5A5,5,0,0,1,5,0Z" transform="translate(456.573 4157.281)" fill="#fff"/>
      <g id="Grupo_1084105-17" data-name="Grupo 1084105" transform="translate(456.578 4156)">
        <g id="Grupo_1084104-18" data-name="Grupo 1084104" clip-path="url(#clip-path-3)">
          <path id="Trazado_830127-18" data-name="Trazado 830127" d="M45.334,0H3.53A3.534,3.534,0,0,0,0,3.53V27.794a3.534,3.534,0,0,0,3.53,3.53h41.8a3.534,3.534,0,0,0,3.53-3.53V3.53A3.534,3.534,0,0,0,45.334,0m-20.9,18.834L4.5,2.353H44.368ZM2.353,3.634,14.759,13.89,2.353,27.248ZM16.576,15.393l3,2.484,4.1,3.391a1.176,1.176,0,0,0,1.5,0l7.106-5.875L44.9,28.97H3.966Zm17.529-1.5L46.51,3.635V27.249Z" transform="translate(0 0)" fill="#8081f7"/>
        </g>
      </g>
      <path id="Trazado_833658" data-name="Trazado 833658" d="M5,0H43.9a5,5,0,0,1,5,5V23.763a5,5,0,0,1-5,5H5a5,5,0,0,1-5-5V5A5,5,0,0,1,5,0Z" transform="translate(501.503 4303.654)" fill="#fff"/>
      <g id="Grupo_1084105-18" data-name="Grupo 1084105" transform="translate(501.509 4302.374)">
        <g id="Grupo_1084104-19" data-name="Grupo 1084104" clip-path="url(#clip-path-3)">
          <path id="Trazado_830127-19" data-name="Trazado 830127" d="M45.334,0H3.53A3.534,3.534,0,0,0,0,3.53V27.794a3.534,3.534,0,0,0,3.53,3.53h41.8a3.534,3.534,0,0,0,3.53-3.53V3.53A3.534,3.534,0,0,0,45.334,0m-20.9,18.834L4.5,2.353H44.368ZM2.353,3.634,14.759,13.89,2.353,27.248ZM16.576,15.393l3,2.484,4.1,3.391a1.176,1.176,0,0,0,1.5,0l7.106-5.875L44.9,28.97H3.966Zm17.529-1.5L46.51,3.635V27.249Z" transform="translate(0 0)" fill="#8081f7"/>
        </g>
      </g>
      <path id="Trazado_833659" data-name="Trazado 833659" d="M5,0H43.9a5,5,0,0,1,5,5V23.763a5,5,0,0,1-5,5H5a5,5,0,0,1-5-5V5A5,5,0,0,1,5,0Z" transform="translate(213.9 4499.289)" fill="#fff"/>
      <g id="Grupo_1084105-19" data-name="Grupo 1084105" transform="translate(213.906 4498.008)">
        <g id="Grupo_1084104-20" data-name="Grupo 1084104" clip-path="url(#clip-path-3)">
          <path id="Trazado_830127-20" data-name="Trazado 830127" d="M45.334,0H3.53A3.534,3.534,0,0,0,0,3.53V27.794a3.534,3.534,0,0,0,3.53,3.53h41.8a3.534,3.534,0,0,0,3.53-3.53V3.53A3.534,3.534,0,0,0,45.334,0m-20.9,18.834L4.5,2.353H44.368ZM2.353,3.634,14.759,13.89,2.353,27.248ZM16.576,15.393l3,2.484,4.1,3.391a1.176,1.176,0,0,0,1.5,0l7.106-5.875L44.9,28.97H3.966Zm17.529-1.5L46.51,3.635V27.249Z" transform="translate(0 0)" fill="#8081f7"/>
        </g>
      </g>
      <path id="Trazado_833660" data-name="Trazado 833660" d="M5,0H43.9a5,5,0,0,1,5,5V23.763a5,5,0,0,1-5,5H5a5,5,0,0,1-5-5V5A5,5,0,0,1,5,0Z" transform="translate(399.048 4499.289)" fill="#fff"/>
      <g id="Grupo_1084105-20" data-name="Grupo 1084105" transform="translate(399.053 4498.008)">
        <g id="Grupo_1084104-21" data-name="Grupo 1084104" clip-path="url(#clip-path-3)">
          <path id="Trazado_830127-21" data-name="Trazado 830127" d="M45.334,0H3.53A3.534,3.534,0,0,0,0,3.53V27.794a3.534,3.534,0,0,0,3.53,3.53h41.8a3.534,3.534,0,0,0,3.53-3.53V3.53A3.534,3.534,0,0,0,45.334,0m-20.9,18.834L4.5,2.353H44.368ZM2.353,3.634,14.759,13.89,2.353,27.248ZM16.576,15.393l3,2.484,4.1,3.391a1.176,1.176,0,0,0,1.5,0l7.106-5.875L44.9,28.97H3.966Zm17.529-1.5L46.51,3.635V27.249Z" transform="translate(0 0)" fill="#8081f7"/>
        </g>
      </g>
      <path id="Trazado_833661" data-name="Trazado 833661" d="M5,0H43.9a5,5,0,0,1,5,5V23.763a5,5,0,0,1-5,5H5a5,5,0,0,1-5-5V5A5,5,0,0,1,5,0Z" transform="translate(399.048 4411.995)" fill="#fff"/>
      <g id="Grupo_1084105-21" data-name="Grupo 1084105" transform="translate(399.053 4410.715)">
        <g id="Grupo_1084104-22" data-name="Grupo 1084104" clip-path="url(#clip-path-3)">
          <path id="Trazado_830127-22" data-name="Trazado 830127" d="M45.334,0H3.53A3.534,3.534,0,0,0,0,3.53V27.794a3.534,3.534,0,0,0,3.53,3.53h41.8a3.534,3.534,0,0,0,3.53-3.53V3.53A3.534,3.534,0,0,0,45.334,0m-20.9,18.834L4.5,2.353H44.368ZM2.353,3.634,14.759,13.89,2.353,27.248ZM16.576,15.393l3,2.484,4.1,3.391a1.176,1.176,0,0,0,1.5,0l7.106-5.875L44.9,28.97H3.966Zm17.529-1.5L46.51,3.635V27.249Z" transform="translate(0 0)" fill="#8081f7"/>
        </g>
      </g>
      <path id="Trazado_833638" data-name="Trazado 833638" d="M-35.953-3.609A4.185,4.185,0,0,1-37.285-.824a4.365,4.365,0,0,1-2.98.98A4.008,4.008,0,0,1-43.5-1.289a5.815,5.815,0,0,1-1.215-3.867V-6.25a6.481,6.481,0,0,1,.566-2.789,4.231,4.231,0,0,1,1.605-1.848,4.47,4.47,0,0,1,2.406-.645,4.11,4.11,0,0,1,2.906,1.012,4.235,4.235,0,0,1,1.273,2.8h-1.508a3.268,3.268,0,0,0-.848-1.975,2.565,2.565,0,0,0-1.824-.611,2.684,2.684,0,0,0-2.254,1.063A4.882,4.882,0,0,0-43.2-6.215v1.1a5.018,5.018,0,0,0,.773,2.948A2.5,2.5,0,0,0-40.266-1.07a2.887,2.887,0,0,0,1.918-.566,3.143,3.143,0,0,0,.887-1.973ZM-32.562,0h-1.445V-12h1.445Zm7.531,0a3.036,3.036,0,0,1-.2-.891A3.225,3.225,0,0,1-27.641.156a2.984,2.984,0,0,1-2.051-.707,2.287,2.287,0,0,1-.8-1.793,2.39,2.39,0,0,1,1-2.051,4.733,4.733,0,0,1,2.824-.73h1.406v-.664A1.623,1.623,0,0,0-25.711-7a1.821,1.821,0,0,0-1.336-.449,2.108,2.108,0,0,0-1.3.391,1.151,1.151,0,0,0-.523.945H-30.32a2,2,0,0,1,.449-1.223,3.066,3.066,0,0,1,1.219-.934,4.1,4.1,0,0,1,1.691-.344,3.342,3.342,0,0,1,2.289.73,2.635,2.635,0,0,1,.859,2.012v3.891a4.757,4.757,0,0,0,.3,1.852V0Zm-2.4-1.1a2.54,2.54,0,0,0,1.289-.352,2.127,2.127,0,0,0,.883-.914V-4.1h-1.133q-2.656,0-2.656,1.555a1.316,1.316,0,0,0,.453,1.063A1.742,1.742,0,0,0-27.43-1.1Zm10.8-1.141a1.064,1.064,0,0,0-.441-.91,4.249,4.249,0,0,0-1.539-.559,7.277,7.277,0,0,1-1.742-.562,2.479,2.479,0,0,1-.953-.781,1.869,1.869,0,0,1-.309-1.078,2.193,2.193,0,0,1,.879-1.758,3.432,3.432,0,0,1,2.246-.719,3.532,3.532,0,0,1,2.332.742,2.357,2.357,0,0,1,.895,1.9h-1.453a1.3,1.3,0,0,0-.5-1.023,1.888,1.888,0,0,0-1.27-.43,1.976,1.976,0,0,0-1.234.344,1.082,1.082,0,0,0-.445.9.877.877,0,0,0,.414.789,5.1,5.1,0,0,0,1.5.508A7.8,7.8,0,0,1-16.5-4.3a2.558,2.558,0,0,1,1,.809,1.988,1.988,0,0,1,.324,1.152,2.163,2.163,0,0,1-.906,1.816,3.8,3.8,0,0,1-2.352.684,4.257,4.257,0,0,1-1.8-.359,2.922,2.922,0,0,1-1.223-1A2.42,2.42,0,0,1-21.9-2.6h1.445a1.5,1.5,0,0,0,.582,1.152,2.258,2.258,0,0,0,1.434.426,2.331,2.331,0,0,0,1.316-.332A1.02,1.02,0,0,0-16.625-2.242ZM-11.727,0h-1.445V-8.453h1.445Zm-1.562-10.7a.863.863,0,0,1,.215-.594.807.807,0,0,1,.637-.242.819.819,0,0,1,.641.242.854.854,0,0,1,.219.594.826.826,0,0,1-.219.586.834.834,0,0,1-.641.234.821.821,0,0,1-.637-.234A.834.834,0,0,1-13.289-10.7ZM-8.93,0V-7.336h-1.336V-8.453H-8.93v-.719a2.937,2.937,0,0,1,.809-2.2,3.136,3.136,0,0,1,2.285-.789,6.881,6.881,0,0,1,2.211.477l-.242,1.219a5.008,5.008,0,0,0-1.859-.391,1.819,1.819,0,0,0-1.34.418,1.723,1.723,0,0,0-.41,1.254v.734H-5.75v1.117H-7.477V0Zm6.023,0H-4.359V-8.453h1.453ZM2.836-1.023a2.082,2.082,0,0,0,1.352-.469,1.649,1.649,0,0,0,.641-1.172H6.2a2.621,2.621,0,0,1-.5,1.383A3.293,3.293,0,0,1,4.465-.234,3.55,3.55,0,0,1,2.836.156,3.482,3.482,0,0,1,.09-1,4.59,4.59,0,0,1-.93-4.148v-.242a5.089,5.089,0,0,1,.453-2.2,3.451,3.451,0,0,1,1.3-1.492,3.7,3.7,0,0,1,2-.531,3.39,3.39,0,0,1,2.363.852,3.043,3.043,0,0,1,1,2.211H4.828a1.992,1.992,0,0,0-.621-1.348,1.932,1.932,0,0,0-1.379-.527,2.023,2.023,0,0,0-1.707.793A3.724,3.724,0,0,0,.516-4.336v.273a3.65,3.65,0,0,0,.6,2.25A2.033,2.033,0,0,0,2.836-1.023ZM13.039,0a3.036,3.036,0,0,1-.2-.891A3.225,3.225,0,0,1,10.43.156,2.984,2.984,0,0,1,8.379-.551a2.287,2.287,0,0,1-.8-1.793,2.39,2.39,0,0,1,1-2.051,4.733,4.733,0,0,1,2.824-.73h1.406v-.664A1.623,1.623,0,0,0,12.359-7a1.821,1.821,0,0,0-1.336-.449,2.107,2.107,0,0,0-1.3.391,1.151,1.151,0,0,0-.523.945H7.75A2,2,0,0,1,8.2-7.332a3.066,3.066,0,0,1,1.219-.934,4.1,4.1,0,0,1,1.691-.344,3.342,3.342,0,0,1,2.289.73,2.635,2.635,0,0,1,.859,2.012v3.891a4.757,4.757,0,0,0,.3,1.852V0Zm-2.4-1.1a2.54,2.54,0,0,0,1.289-.352,2.127,2.127,0,0,0,.883-.914V-4.1H11.68q-2.656,0-2.656,1.555a1.316,1.316,0,0,0,.453,1.063A1.742,1.742,0,0,0,10.641-1.1Zm9.273.078a2.082,2.082,0,0,0,1.352-.469,1.649,1.649,0,0,0,.641-1.172h1.367a2.621,2.621,0,0,1-.5,1.383,3.293,3.293,0,0,1-1.23,1.047,3.55,3.55,0,0,1-1.629.391A3.482,3.482,0,0,1,17.168-1a4.59,4.59,0,0,1-1.02-3.152v-.242a5.089,5.089,0,0,1,.453-2.2,3.451,3.451,0,0,1,1.3-1.492,3.7,3.7,0,0,1,2-.531,3.39,3.39,0,0,1,2.363.852,3.043,3.043,0,0,1,1,2.211H21.906a1.992,1.992,0,0,0-.621-1.348,1.932,1.932,0,0,0-1.379-.527,2.023,2.023,0,0,0-1.707.793,3.724,3.724,0,0,0-.605,2.293v.273a3.65,3.65,0,0,0,.6,2.25A2.033,2.033,0,0,0,19.914-1.023ZM26.469,0H25.023V-8.453h1.445ZM24.906-10.7a.863.863,0,0,1,.215-.594.807.807,0,0,1,.637-.242.819.819,0,0,1,.641.242.854.854,0,0,1,.219.594.826.826,0,0,1-.219.586.834.834,0,0,1-.641.234.821.821,0,0,1-.637-.234A.834.834,0,0,1,24.906-10.7ZM28.4-4.3a4.993,4.993,0,0,1,.488-2.234A3.643,3.643,0,0,1,30.246-8.07a3.7,3.7,0,0,1,1.988-.539,3.565,3.565,0,0,1,2.793,1.2,4.6,4.6,0,0,1,1.066,3.18v.1a5.036,5.036,0,0,1-.473,2.215A3.589,3.589,0,0,1,34.27-.391a3.743,3.743,0,0,1-2.02.547,3.556,3.556,0,0,1-2.785-1.2A4.575,4.575,0,0,1,28.4-4.2Zm1.453.172A3.616,3.616,0,0,0,30.5-1.875a2.088,2.088,0,0,0,1.746.852A2.075,2.075,0,0,0,34-1.887,3.955,3.955,0,0,0,34.648-4.3a3.61,3.61,0,0,0-.66-2.254,2.1,2.1,0,0,0-1.754-.863,2.075,2.075,0,0,0-1.727.852A3.925,3.925,0,0,0,29.852-4.133Zm3.039-7.852h1.75l-2.094,2.3-1.164,0Zm6.383,3.531.047,1.063a3.08,3.08,0,0,1,2.531-1.219q2.68,0,2.7,3.023V0H43.109V-5.594a1.946,1.946,0,0,0-.418-1.352,1.675,1.675,0,0,0-1.277-.437,2.086,2.086,0,0,0-1.234.375,2.546,2.546,0,0,0-.828.984V0H37.906V-8.453Z" transform="translate(342.958 4588.28)" fill="#12263f"/>
      <g id="Grupo_1083608" data-name="Grupo 1083608" transform="translate(592.651 4352)">
        <path id="Trazado_829826" data-name="Trazado 829826" d="M31.858.2a1.852,1.852,0,0,1,1.929.162L55.914,16.687a1.849,1.849,0,0,1,0,2.971L33.792,36.086a1.848,1.848,0,0,1-2.95-1.484V27.928H1.848A1.847,1.847,0,0,1,0,26.08V10.37A1.848,1.848,0,0,1,1.848,8.521H30.843V1.847A1.852,1.852,0,0,1,31.858.2" transform="translate(0 0.001)" fill="#24135a"/>
      </g>
      <path id="Trazado_833639" data-name="Trazado 833639" d="M5,0H43.9a5,5,0,0,1,5,5V23.763a5,5,0,0,1-5,5H5a5,5,0,0,1-5-5V5A5,5,0,0,1,5,0Z" transform="translate(909.503 4272.002)" fill="#f34534"/>
      <g id="Grupo_1084104-23" data-name="Grupo 1084104" transform="translate(909.509 4270.722)" clip-path="url(#clip-path-8)">
        <path id="Trazado_830127-23" data-name="Trazado 830127" d="M45.334,0H3.53A3.534,3.534,0,0,0,0,3.53V27.794a3.534,3.534,0,0,0,3.53,3.53h41.8a3.534,3.534,0,0,0,3.53-3.53V3.53A3.534,3.534,0,0,0,45.334,0m-20.9,18.834L4.5,2.353H44.368ZM2.353,3.634,14.759,13.89,2.353,27.248ZM16.576,15.393l3,2.484,4.1,3.391a1.176,1.176,0,0,0,1.5,0l7.106-5.875L44.9,28.97H3.966Zm17.529-1.5L46.51,3.635V27.249Z" transform="translate(0 0)" fill="#b20000"/>
      </g>
      <path id="Trazado_833640" data-name="Trazado 833640" d="M5,0H43.9a5,5,0,0,1,5,5V23.763a5,5,0,0,1-5,5H5a5,5,0,0,1-5-5V5A5,5,0,0,1,5,0Z" transform="translate(909.503 4440.167)" fill="#fff"/>
      <g id="Grupo_1084104-24" data-name="Grupo 1084104" transform="translate(909.509 4438.887)" clip-path="url(#clip-path-3)">
        <path id="Trazado_830127-24" data-name="Trazado 830127" d="M45.334,0H3.53A3.534,3.534,0,0,0,0,3.53V27.794a3.534,3.534,0,0,0,3.53,3.53h41.8a3.534,3.534,0,0,0,3.53-3.53V3.53A3.534,3.534,0,0,0,45.334,0m-20.9,18.834L4.5,2.353H44.368ZM2.353,3.634,14.759,13.89,2.353,27.248ZM16.576,15.393l3,2.484,4.1,3.391a1.176,1.176,0,0,0,1.5,0l7.106-5.875L44.9,28.97H3.966Zm17.529-1.5L46.51,3.635V27.249Z" transform="translate(0 0)" fill="#8081f7"/>
      </g>
      <g id="Trazado_833635" data-name="Trazado 833635" transform="translate(658.404 4326)" fill="#fff">
        <path d="M 171.5898590087891 88.16562652587891 L 4.000012874603271 88.16562652587891 C 2.345808267593384 88.16562652587891 1.000012755393982 86.81983184814453 1.000012755393982 85.16562652587891 L 1.000012755393982 3.999991178512573 C 1.000012755393982 2.345786809921265 2.345808267593384 0.999991238117218 4.000012874603271 0.999991238117218 L 171.5898590087891 0.999991238117218 C 173.2440643310547 0.999991238117218 174.5898590087891 2.345786809921265 174.5898590087891 3.999991178512573 L 174.5898590087891 85.16562652587891 C 174.5898590087891 86.81983184814453 173.2440643310547 88.16562652587891 171.5898590087891 88.16562652587891 Z" stroke="none"/>
        <path d="M 4 2 C 2.897186279296875 2 2 2.897193908691406 2 4 L 2 85.16561889648438 C 2 86.26842498779297 2.897186279296875 87.16561889648438 4 87.16561889648438 L 171.58984375 87.16561889648438 C 172.6926574707031 87.16561889648438 173.58984375 86.26842498779297 173.58984375 85.16561889648438 L 173.58984375 4 C 173.58984375 2.897193908691406 172.6926574707031 2 171.58984375 2 L 4 2 M 4 0 L 171.58984375 0 C 173.7989654541016 0 175.58984375 1.790855407714844 175.58984375 4 L 175.58984375 85.16561889648438 C 175.58984375 87.37476348876953 173.7989654541016 89.16561889648438 171.58984375 89.16561889648438 L 4 89.16561889648438 C 1.790847778320312 89.16561889648438 0 87.37476348876953 0 85.16561889648438 L 0 4 C 0 1.790855407714844 1.790847778320312 0 4 0 Z" stroke="none" fill="#b20000"/>
      </g>
      <path id="Trazado_833636" data-name="Trazado 833636" d="M-38.4-11.375l3.719,9.281,3.719-9.281h1.945V0h-1.5V-4.43l.141-4.781L-34.109,0h-1.148l-3.727-9.187.148,4.758V0h-1.5V-11.375ZM-26.977-4.3a4.993,4.993,0,0,1,.488-2.234A3.643,3.643,0,0,1-25.129-8.07a3.7,3.7,0,0,1,1.988-.539,3.565,3.565,0,0,1,2.793,1.2,4.6,4.6,0,0,1,1.066,3.18v.1a5.036,5.036,0,0,1-.473,2.215A3.589,3.589,0,0,1-21.105-.391a3.743,3.743,0,0,1-2.02.547,3.556,3.556,0,0,1-2.785-1.2A4.575,4.575,0,0,1-26.977-4.2Zm1.453.172a3.616,3.616,0,0,0,.652,2.258,2.088,2.088,0,0,0,1.746.852,2.075,2.075,0,0,0,1.75-.863A3.955,3.955,0,0,0-20.727-4.3a3.61,3.61,0,0,0-.66-2.254,2.1,2.1,0,0,0-1.754-.863,2.075,2.075,0,0,0-1.727.852A3.925,3.925,0,0,0-25.523-4.133Zm7.7-.164A4.952,4.952,0,0,1-16.9-7.426a2.915,2.915,0,0,1,2.414-1.184,2.932,2.932,0,0,1,2.352,1.016V-12h1.445V0h-1.328l-.07-.906A2.943,2.943,0,0,1-14.5.156a2.887,2.887,0,0,1-2.395-1.2,5.008,5.008,0,0,1-.926-3.141Zm1.445.164a3.749,3.749,0,0,0,.594,2.25,1.92,1.92,0,0,0,1.641.813A2.108,2.108,0,0,0-12.133-2.3V-6.187a2.125,2.125,0,0,0-1.992-1.2,1.929,1.929,0,0,0-1.656.82A4.128,4.128,0,0,0-16.375-4.133ZM-4.937.156a3.693,3.693,0,0,1-2.8-1.129,4.19,4.19,0,0,1-1.078-3.02v-.266A5.073,5.073,0,0,1-8.332-6.5,3.748,3.748,0,0,1-6.988-8.051a3.378,3.378,0,0,1,1.871-.559A3.166,3.166,0,0,1-2.555-7.523a4.7,4.7,0,0,1,.914,3.109v.6H-7.367a3,3,0,0,0,.73,2.02,2.3,2.3,0,0,0,1.777.77,2.517,2.517,0,0,0,1.3-.312,3.259,3.259,0,0,0,.93-.828l.883.688A3.55,3.55,0,0,1-4.937.156Zm-.18-7.578a1.928,1.928,0,0,0-1.469.637A3.1,3.1,0,0,0-7.32-5h4.234v-.109A2.753,2.753,0,0,0-3.68-6.816,1.815,1.815,0,0,0-5.117-7.422ZM1.6,0H.156V-12H1.6Zm1.93-4.3A4.993,4.993,0,0,1,4.02-6.539,3.643,3.643,0,0,1,5.379-8.07a3.7,3.7,0,0,1,1.988-.539,3.565,3.565,0,0,1,2.793,1.2,4.6,4.6,0,0,1,1.066,3.18v.1a5.036,5.036,0,0,1-.473,2.215A3.589,3.589,0,0,1,9.4-.391a3.743,3.743,0,0,1-2.02.547A3.556,3.556,0,0,1,4.6-1.039,4.575,4.575,0,0,1,3.531-4.2Zm1.453.172a3.616,3.616,0,0,0,.652,2.258,2.088,2.088,0,0,0,1.746.852,2.075,2.075,0,0,0,1.75-.863A3.955,3.955,0,0,0,9.781-4.3a3.61,3.61,0,0,0-.66-2.254,2.1,2.1,0,0,0-1.754-.863,2.075,2.075,0,0,0-1.727.852A3.925,3.925,0,0,0,4.984-4.133ZM17.961-2.242a1.064,1.064,0,0,0-.441-.91,4.249,4.249,0,0,0-1.539-.559,7.277,7.277,0,0,1-1.742-.562,2.479,2.479,0,0,1-.953-.781,1.869,1.869,0,0,1-.309-1.078,2.193,2.193,0,0,1,.879-1.758A3.432,3.432,0,0,1,16.1-8.609a3.532,3.532,0,0,1,2.332.742,2.357,2.357,0,0,1,.895,1.9H17.875a1.3,1.3,0,0,0-.5-1.023,1.888,1.888,0,0,0-1.27-.43,1.976,1.976,0,0,0-1.234.344,1.082,1.082,0,0,0-.445.9.877.877,0,0,0,.414.789,5.1,5.1,0,0,0,1.5.508,7.8,7.8,0,0,1,1.754.578,2.558,2.558,0,0,1,1,.809,1.988,1.988,0,0,1,.324,1.152A2.163,2.163,0,0,1,18.5-.527a3.8,3.8,0,0,1-2.352.684,4.257,4.257,0,0,1-1.8-.359,2.922,2.922,0,0,1-1.223-1A2.42,2.42,0,0,1,12.688-2.6h1.445a1.5,1.5,0,0,0,.582,1.152,2.258,2.258,0,0,0,1.434.426,2.331,2.331,0,0,0,1.316-.332A1.02,1.02,0,0,0,17.961-2.242ZM24.9-4.3a4.952,4.952,0,0,1,.922-3.129,2.915,2.915,0,0,1,2.414-1.184,2.932,2.932,0,0,1,2.352,1.016V-12h1.445V0H30.7l-.07-.906A2.943,2.943,0,0,1,28.219.156a2.887,2.887,0,0,1-2.395-1.2A5.008,5.008,0,0,1,24.9-4.187Zm1.445.164a3.749,3.749,0,0,0,.594,2.25,1.92,1.92,0,0,0,1.641.813A2.108,2.108,0,0,0,30.586-2.3V-6.187a2.125,2.125,0,0,0-1.992-1.2,1.929,1.929,0,0,0-1.656.82A4.128,4.128,0,0,0,26.344-4.133ZM37.781.156a3.693,3.693,0,0,1-2.8-1.129,4.19,4.19,0,0,1-1.078-3.02v-.266a5.073,5.073,0,0,1,.48-2.246A3.748,3.748,0,0,1,35.73-8.051,3.378,3.378,0,0,1,37.6-8.609a3.166,3.166,0,0,1,2.563,1.086,4.7,4.7,0,0,1,.914,3.109v.6H35.352a3,3,0,0,0,.73,2.02,2.3,2.3,0,0,0,1.777.77,2.517,2.517,0,0,0,1.3-.312,3.259,3.259,0,0,0,.93-.828l.883.688A3.55,3.55,0,0,1,37.781.156ZM37.6-7.422a1.928,1.928,0,0,0-1.469.637A3.1,3.1,0,0,0,35.4-5h4.234v-.109a2.753,2.753,0,0,0-.594-1.707A1.815,1.815,0,0,0,37.6-7.422Zm-77.738,30.4a2.082,2.082,0,0,0,1.352-.469,1.649,1.649,0,0,0,.641-1.172h1.367a2.621,2.621,0,0,1-.5,1.383,3.293,3.293,0,0,1-1.23,1.047,3.55,3.55,0,0,1-1.629.391A3.482,3.482,0,0,1-42.883,23a4.59,4.59,0,0,1-1.02-3.152v-.242a5.089,5.089,0,0,1,.453-2.2,3.451,3.451,0,0,1,1.3-1.492,3.7,3.7,0,0,1,2-.531,3.39,3.39,0,0,1,2.363.852,3.043,3.043,0,0,1,1,2.211h-1.367a1.992,1.992,0,0,0-.621-1.348,1.932,1.932,0,0,0-1.379-.527,2.023,2.023,0,0,0-1.707.793,3.724,3.724,0,0,0-.605,2.293v.273a3.65,3.65,0,0,0,.6,2.25A2.033,2.033,0,0,0-40.137,22.977ZM-33.582,24h-1.445V12h1.445Zm7.531,0a3.036,3.036,0,0,1-.2-.891,3.225,3.225,0,0,1-2.406,1.047,2.984,2.984,0,0,1-2.051-.707,2.287,2.287,0,0,1-.8-1.793,2.39,2.39,0,0,1,1-2.051,4.733,4.733,0,0,1,2.824-.73h1.406v-.664A1.623,1.623,0,0,0-26.73,17a1.821,1.821,0,0,0-1.336-.449,2.108,2.108,0,0,0-1.3.391,1.151,1.151,0,0,0-.523.945H-31.34a2,2,0,0,1,.449-1.223,3.066,3.066,0,0,1,1.219-.934,4.1,4.1,0,0,1,1.691-.344,3.342,3.342,0,0,1,2.289.73,2.635,2.635,0,0,1,.859,2.012v3.891a4.757,4.757,0,0,0,.3,1.852V24Zm-2.4-1.1a2.54,2.54,0,0,0,1.289-.352,2.127,2.127,0,0,0,.883-.914V19.9H-27.41q-2.656,0-2.656,1.555a1.316,1.316,0,0,0,.453,1.063A1.742,1.742,0,0,0-28.449,22.9Zm10.8-1.141a1.064,1.064,0,0,0-.441-.91,4.249,4.249,0,0,0-1.539-.559,7.277,7.277,0,0,1-1.742-.562,2.479,2.479,0,0,1-.953-.781,1.869,1.869,0,0,1-.309-1.078,2.193,2.193,0,0,1,.879-1.758,3.432,3.432,0,0,1,2.246-.719,3.532,3.532,0,0,1,2.332.742,2.357,2.357,0,0,1,.895,1.9H-17.73a1.3,1.3,0,0,0-.5-1.023,1.888,1.888,0,0,0-1.27-.43,1.976,1.976,0,0,0-1.234.344,1.082,1.082,0,0,0-.445.9.877.877,0,0,0,.414.789,5.1,5.1,0,0,0,1.5.508,7.8,7.8,0,0,1,1.754.578,2.558,2.558,0,0,1,1,.809,1.988,1.988,0,0,1,.324,1.152,2.163,2.163,0,0,1-.906,1.816,3.8,3.8,0,0,1-2.352.684,4.257,4.257,0,0,1-1.8-.359,2.922,2.922,0,0,1-1.223-1,2.42,2.42,0,0,1-.441-1.395h1.445a1.5,1.5,0,0,0,.582,1.152,2.258,2.258,0,0,0,1.434.426,2.331,2.331,0,0,0,1.316-.332A1.02,1.02,0,0,0-17.645,21.758Zm4.9,2.242h-1.445V15.547h1.445Zm-1.562-10.7a.863.863,0,0,1,.215-.594.807.807,0,0,1,.637-.242.819.819,0,0,1,.641.242.854.854,0,0,1,.219.594.826.826,0,0,1-.219.586.834.834,0,0,1-.641.234.821.821,0,0,1-.637-.234A.834.834,0,0,1-14.309,13.3ZM-9.949,24V16.664h-1.336V15.547h1.336v-.719a2.937,2.937,0,0,1,.809-2.2,3.136,3.136,0,0,1,2.285-.789,6.881,6.881,0,0,1,2.211.477l-.242,1.219a5.008,5.008,0,0,0-1.859-.391,1.819,1.819,0,0,0-1.34.418,1.723,1.723,0,0,0-.41,1.254v.734H-6.77v1.117H-8.5V24Zm6.023,0H-5.379V15.547h1.453Zm5.742-1.023a2.082,2.082,0,0,0,1.352-.469,1.649,1.649,0,0,0,.641-1.172H5.176a2.621,2.621,0,0,1-.5,1.383,3.293,3.293,0,0,1-1.23,1.047,3.55,3.55,0,0,1-1.629.391A3.482,3.482,0,0,1-.93,23a4.59,4.59,0,0,1-1.02-3.152v-.242a5.089,5.089,0,0,1,.453-2.2A3.451,3.451,0,0,1-.2,15.922a3.7,3.7,0,0,1,2-.531,3.39,3.39,0,0,1,2.363.852,3.043,3.043,0,0,1,1,2.211H3.809a1.992,1.992,0,0,0-.621-1.348,1.932,1.932,0,0,0-1.379-.527A2.023,2.023,0,0,0,.1,17.371,3.724,3.724,0,0,0-.5,19.664v.273a3.65,3.65,0,0,0,.6,2.25A2.033,2.033,0,0,0,1.816,22.977ZM12.02,24a3.036,3.036,0,0,1-.2-.891A3.225,3.225,0,0,1,9.41,24.156a2.984,2.984,0,0,1-2.051-.707,2.287,2.287,0,0,1-.8-1.793,2.39,2.39,0,0,1,1-2.051,4.733,4.733,0,0,1,2.824-.73h1.406v-.664A1.623,1.623,0,0,0,11.34,17,1.821,1.821,0,0,0,10,16.555a2.108,2.108,0,0,0-1.3.391,1.151,1.151,0,0,0-.523.945H6.73a2,2,0,0,1,.449-1.223A3.066,3.066,0,0,1,8.4,15.734a4.1,4.1,0,0,1,1.691-.344,3.342,3.342,0,0,1,2.289.73,2.635,2.635,0,0,1,.859,2.012v3.891a4.757,4.757,0,0,0,.3,1.852V24Zm-2.4-1.1a2.54,2.54,0,0,0,1.289-.352,2.127,2.127,0,0,0,.883-.914V19.9H10.66Q8,19.9,8,21.453a1.316,1.316,0,0,0,.453,1.063A1.742,1.742,0,0,0,9.621,22.9Zm9.273.078a2.082,2.082,0,0,0,1.352-.469,1.649,1.649,0,0,0,.641-1.172h1.367a2.621,2.621,0,0,1-.5,1.383,3.293,3.293,0,0,1-1.23,1.047,3.55,3.55,0,0,1-1.629.391A3.482,3.482,0,0,1,16.148,23a4.59,4.59,0,0,1-1.02-3.152v-.242a5.089,5.089,0,0,1,.453-2.2,3.451,3.451,0,0,1,1.3-1.492,3.7,3.7,0,0,1,2-.531,3.39,3.39,0,0,1,2.363.852,3.043,3.043,0,0,1,1,2.211H20.887a1.992,1.992,0,0,0-.621-1.348,1.932,1.932,0,0,0-1.379-.527,2.023,2.023,0,0,0-1.707.793,3.724,3.724,0,0,0-.605,2.293v.273a3.65,3.65,0,0,0,.6,2.25A2.033,2.033,0,0,0,18.895,22.977ZM25.449,24H24V15.547h1.445ZM23.887,13.3a.863.863,0,0,1,.215-.594.807.807,0,0,1,.637-.242.819.819,0,0,1,.641.242.854.854,0,0,1,.219.594.826.826,0,0,1-.219.586.834.834,0,0,1-.641.234.821.821,0,0,1-.637-.234A.834.834,0,0,1,23.887,13.3ZM27.379,19.7a4.993,4.993,0,0,1,.488-2.234,3.643,3.643,0,0,1,1.359-1.531,3.7,3.7,0,0,1,1.988-.539,3.565,3.565,0,0,1,2.793,1.2,4.6,4.6,0,0,1,1.066,3.18v.1a5.036,5.036,0,0,1-.473,2.215,3.589,3.589,0,0,1-1.352,1.527,3.743,3.743,0,0,1-2.02.547,3.556,3.556,0,0,1-2.785-1.2A4.575,4.575,0,0,1,27.379,19.8Zm1.453.172a3.616,3.616,0,0,0,.652,2.258,2.211,2.211,0,0,0,3.5-.012,3.955,3.955,0,0,0,.648-2.418,3.61,3.61,0,0,0-.66-2.254,2.1,2.1,0,0,0-1.754-.863,2.075,2.075,0,0,0-1.727.852A3.925,3.925,0,0,0,28.832,19.867Zm3.039-7.852h1.75l-2.094,2.3-1.164,0Zm6.383,3.531.047,1.063a3.08,3.08,0,0,1,2.531-1.219q2.68,0,2.7,3.023V24H42.09V18.406a1.946,1.946,0,0,0-.418-1.352,1.675,1.675,0,0,0-1.277-.437,2.086,2.086,0,0,0-1.234.375,2.546,2.546,0,0,0-.828.984V24H36.887V15.547Z" transform="translate(746.404 4365)" fill="#12263f"/>
    </g>
  </g>
</svg>
