<svg xmlns="http://www.w3.org/2000/svg" width="505" height="198" viewBox="0 0 505 198">
  <g id="Grupo_1088432" data-name="Grupo 1088432" transform="translate(-179.68 -2903.7)">
    <g id="Grupo_1070776" data-name="Grupo 1070776" transform="translate(-525 1351.7)">
      <rect id="Rectángulo_374712" data-name="Rectángulo 374712" width="505" height="198" transform="translate(704.68 1552)" fill="#f3f9ff"/>
      <g id="Grupo_1070425" data-name="Grupo 1070425" transform="translate(719.68 1562)">
        <g id="Grupo_1070423" data-name="Grupo 1070423" transform="translate(0 4.841)">
          <g id="Grupo_1070420" data-name="Grupo 1070420" transform="translate(2.421)">
            <line id="Línea_3726" data-name="Línea 3726" y2="159.756" transform="translate(9.198 6.293)" fill="none" stroke="#12263f" stroke-width="3"/>
            <path id="Polígono_1" data-name="Polígono 1" d="M8.714,0l8.714,14.523H0Z" fill="#12263f"/>
          </g>
          <g id="Grupo_1070421" data-name="Grupo 1070421" transform="translate(200.18 148.622) rotate(90)">
            <line id="Línea_3726-2" data-name="Línea 3726" y2="193.886" transform="translate(9.198 6.293)" fill="none" stroke="#12263f" stroke-width="3"/>
            <path id="Polígono_1-2" data-name="Polígono 1" d="M8.714,0l8.714,14.523H0Z" fill="#12263f"/>
          </g>
        </g>
        <g id="Grupo_1070424" data-name="Grupo 1070424" transform="translate(263.23 4.841)">
          <g id="Grupo_1070420-2" data-name="Grupo 1070420" transform="translate(2.421)">
            <line id="Línea_3726-3" data-name="Línea 3726" y2="159.756" transform="translate(9.198 6.293)" fill="none" stroke="#12263f" stroke-width="3"/>
            <path id="Polígono_1-3" data-name="Polígono 1" d="M8.714,0l8.714,14.523H0Z" fill="#12263f"/>
          </g>
          <g id="Grupo_1070421-2" data-name="Grupo 1070421" transform="translate(200.18 148.622) rotate(90)">
            <line id="Línea_3726-4" data-name="Línea 3726" y2="193.886" transform="translate(9.198 6.293)" fill="none" stroke="#12263f" stroke-width="3"/>
            <path id="Polígono_1-4" data-name="Polígono 1" d="M8.714,0l8.714,14.523H0Z" fill="#12263f"/>
          </g>
        </g>
        <circle id="Elipse_9233" data-name="Elipse 9233" cx="5.809" cy="5.809" r="5.809" transform="translate(443.319 118.123)" fill="#3a3e44"/>
        <circle id="Elipse_9231" data-name="Elipse 9231" cx="5.809" cy="5.809" r="5.809" transform="translate(443.319 103.599)" fill="#3a3e44"/>
        <ellipse id="Elipse_9236" data-name="Elipse 9236" cx="5.325" cy="5.809" rx="5.325" ry="5.809" transform="translate(457.842 97.79)" fill="#3a3e44"/>
        <ellipse id="Elipse_9235" data-name="Elipse 9235" cx="5.809" cy="5.325" rx="5.809" ry="5.325" transform="translate(452.033 81.33)" fill="#3a3e44"/>
        <ellipse id="Elipse_9229" data-name="Elipse 9229" cx="5.809" cy="5.325" rx="5.809" ry="5.325" transform="translate(437.509 59.061)" fill="#3a3e44"/>
        <circle id="Elipse_9230" data-name="Elipse 9230" cx="5.809" cy="5.809" r="5.809" transform="translate(437.509 27.11)" fill="#3a3e44"/>
        <circle id="Elipse_9225" data-name="Elipse 9225" cx="5.325" cy="5.325" r="5.325" transform="translate(427.827 44.538)" fill="#3a3e44"/>
        <circle id="Elipse_9220" data-name="Elipse 9220" cx="5.809" cy="5.809" r="5.809" transform="translate(402.653 27.11)" fill="#3a3e44"/>
        <ellipse id="Elipse_9221" data-name="Elipse 9221" cx="5.809" cy="5.325" rx="5.809" ry="5.325" transform="translate(409.431 50.347)" fill="#3a3e44"/>
        <circle id="Elipse_9223" data-name="Elipse 9223" cx="5.809" cy="5.809" r="5.809" transform="translate(422.018 60.998)" fill="#3a3e44"/>
        <circle id="Elipse_9224" data-name="Elipse 9224" cx="5.809" cy="5.809" r="5.809" transform="translate(402.653 69.712)" fill="#3a3e44"/>
        <g id="Grupo_1084571" data-name="Grupo 1084571" transform="translate(313.454 24.206)">
          <circle id="Elipse_9205" data-name="Elipse 9205" cx="6.778" cy="6.778" r="6.778" transform="translate(0 38.729)" fill="#d522ab"/>
          <circle id="Elipse_9207" data-name="Elipse 9207" cx="6.778" cy="6.778" r="6.778" fill="#d522ab"/>
          <circle id="Elipse_9206" data-name="Elipse 9206" cx="6.778" cy="6.778" r="6.778" transform="translate(11.897 21.301)" fill="#d522ab"/>
          <circle id="Elipse_9209" data-name="Elipse 9209" cx="6.778" cy="6.778" r="6.778" transform="translate(41.184)" fill="#d522ab"/>
          <circle id="Elipse_9208" data-name="Elipse 9208" cx="6.778" cy="6.778" r="6.778" transform="translate(32.947 28.078)" fill="#d522ab"/>
          <circle id="Elipse_9204" data-name="Elipse 9204" cx="6.778" cy="6.778" r="6.778" transform="translate(18.304 41.633)" fill="#d522ab"/>
          <circle id="Elipse_9203" data-name="Elipse 9203" cx="6.778" cy="6.778" r="6.778" transform="translate(41.184 52.284)" fill="#d522ab"/>
          <circle id="Elipse_9210" data-name="Elipse 9210" cx="6.778" cy="6.778" r="6.778" transform="translate(50.336 28.078)" fill="#d522ab"/>
        </g>
        <circle id="Elipse_9222" data-name="Elipse 9222" cx="5.325" cy="5.325" r="5.325" transform="translate(394.908 50.347)" fill="#3a3e44"/>
        <circle id="Elipse_9226" data-name="Elipse 9226" cx="5.325" cy="5.325" r="5.325" transform="translate(432.668 86.172)" fill="#3a3e44"/>
        <circle id="Elipse_9227" data-name="Elipse 9227" cx="5.325" cy="5.325" r="5.325" transform="translate(432.668 100.695)" fill="#3a3e44"/>
        <ellipse id="Elipse_9228" data-name="Elipse 9228" cx="5.809" cy="5.325" rx="5.809" ry="5.325" transform="translate(407.494 100.695)" fill="#3a3e44"/>
        <ellipse id="Elipse_9234" data-name="Elipse 9234" cx="5.325" cy="5.809" rx="5.325" ry="5.809" transform="translate(404.59 118.123)" fill="#3a3e44"/>
        <g id="Grupo_1084572" data-name="Grupo 1084572" transform="translate(294.302 95.854)">
          <circle id="Elipse_9213" data-name="Elipse 9213" cx="5.809" cy="5.809" r="5.809" transform="translate(14.646 39.697)" fill="#17a171"/>
          <circle id="Elipse_9214" data-name="Elipse 9214" cx="5.809" cy="5.809" r="5.809" transform="translate(14.646 23.237)" fill="#17a171"/>
          <circle id="Elipse_9215" data-name="Elipse 9215" cx="5.809" cy="5.809" r="5.809" transform="translate(0 17.428)" fill="#17a171"/>
          <circle id="Elipse_9219" data-name="Elipse 9219" cx="5.809" cy="5.809" r="5.809" transform="translate(5.492)" fill="#17a171"/>
          <circle id="Elipse_9218" data-name="Elipse 9218" cx="5.809" cy="5.809" r="5.809" transform="translate(25.631 4.841)" fill="#17a171"/>
          <circle id="Elipse_9216" data-name="Elipse 9216" cx="5.809" cy="5.809" r="5.809" transform="translate(25.631 20.333)" fill="#17a171"/>
          <circle id="Elipse_9217" data-name="Elipse 9217" cx="5.809" cy="5.809" r="5.809" transform="translate(49.432 20.333)" fill="#17a171"/>
          <circle id="Elipse_9211" data-name="Elipse 9211" cx="5.809" cy="5.809" r="5.809" transform="translate(54.009 39.697)" fill="#17a171"/>
          <circle id="Elipse_9212" data-name="Elipse 9212" cx="5.809" cy="5.809" r="5.809" transform="translate(30.208 38.729)" fill="#17a171"/>
        </g>
        <g id="Grupo_1084570" data-name="Grupo 1084570" transform="translate(15.976 21.301)">
          <circle id="Elipse_9159" data-name="Elipse 9159" cx="6.778" cy="6.778" r="6.778" transform="translate(17.428 113.282)" fill="#17a171"/>
          <circle id="Elipse_9176" data-name="Elipse 9176" cx="6.778" cy="6.778" r="6.778" transform="translate(151.962 112.314)" fill="#17a171"/>
          <circle id="Elipse_9160" data-name="Elipse 9160" cx="6.778" cy="6.778" r="6.778" transform="translate(17.428 94.886)" fill="#17a171"/>
          <circle id="Elipse_9177" data-name="Elipse 9177" cx="6.778" cy="6.778" r="6.778" transform="translate(151.962 93.917)" fill="#17a171"/>
          <circle id="Elipse_9161" data-name="Elipse 9161" cx="6.778" cy="6.778" r="6.778" transform="translate(0 88.108)" fill="#17a171"/>
          <circle id="Elipse_9178" data-name="Elipse 9178" cx="6.778" cy="6.778" r="6.778" transform="translate(168.436 87.14)" fill="#17a171"/>
          <circle id="Elipse_9162" data-name="Elipse 9162" cx="6.778" cy="6.778" r="6.778" transform="translate(6.778 66.807)" fill="#17a171"/>
          <circle id="Elipse_9179" data-name="Elipse 9179" cx="6.778" cy="6.778" r="6.778" transform="translate(162.029 65.839)" fill="#17a171"/>
          <circle id="Elipse_9163" data-name="Elipse 9163" cx="6.778" cy="6.778" r="6.778" transform="translate(24.206 39.697)" fill="#17a171"/>
          <circle id="Elipse_9180" data-name="Elipse 9180" cx="6.778" cy="6.778" r="6.778" transform="translate(145.556 38.729)" fill="#17a171"/>
          <circle id="Elipse_9164" data-name="Elipse 9164" cx="6.778" cy="6.778" r="6.778" transform="translate(24.206 0.968)" fill="#17a171"/>
          <circle id="Elipse_9181" data-name="Elipse 9181" cx="6.778" cy="6.778" r="6.778" transform="translate(145.556)" fill="#17a171"/>
          <circle id="Elipse_9165" data-name="Elipse 9165" cx="6.778" cy="6.778" r="6.778" transform="translate(36.792 22.269)" fill="#17a171"/>
          <circle id="Elipse_9182" data-name="Elipse 9182" cx="6.778" cy="6.778" r="6.778" transform="translate(133.658 21.301)" fill="#17a171"/>
          <circle id="Elipse_9166" data-name="Elipse 9166" cx="6.778" cy="6.778" r="6.778" transform="translate(67.775 0.968)" fill="#17a171"/>
          <circle id="Elipse_9187" data-name="Elipse 9187" cx="6.778" cy="6.778" r="6.778" transform="translate(104.372)" fill="#17a171"/>
          <circle id="Elipse_9167" data-name="Elipse 9167" cx="6.778" cy="6.778" r="6.778" transform="translate(59.061 29.047)" fill="#17a171"/>
          <circle id="Elipse_9188" data-name="Elipse 9188" cx="6.778" cy="6.778" r="6.778" transform="translate(112.609 28.078)" fill="#17a171"/>
          <circle id="Elipse_9168" data-name="Elipse 9168" cx="6.778" cy="6.778" r="6.778" transform="translate(43.57 42.602)" fill="#17a171"/>
          <circle id="Elipse_9183" data-name="Elipse 9183" cx="6.778" cy="6.778" r="6.778" transform="translate(127.252 41.633)" fill="#17a171"/>
          <circle id="Elipse_9169" data-name="Elipse 9169" cx="6.778" cy="6.778" r="6.778" transform="translate(67.775 53.252)" fill="#17a171"/>
          <circle id="Elipse_9189" data-name="Elipse 9189" cx="6.778" cy="6.778" r="6.778" transform="translate(104.372 52.284)" fill="#17a171"/>
          <circle id="Elipse_9170" data-name="Elipse 9170" cx="6.778" cy="6.778" r="6.778" transform="translate(72.34 29.047)" fill="#17a171"/>
          <circle id="Elipse_9190" data-name="Elipse 9190" cx="6.778" cy="6.778" r="6.778" transform="translate(95.22 28.078)" fill="#17a171"/>
          <circle id="Elipse_9171" data-name="Elipse 9171" cx="6.778" cy="6.778" r="6.778" transform="translate(30.983 73.585)" fill="#17a171"/>
          <circle id="Elipse_9184" data-name="Elipse 9184" cx="6.778" cy="6.778" r="6.778" transform="translate(139.15 72.617)" fill="#17a171"/>
          <circle id="Elipse_9172" data-name="Elipse 9172" cx="6.778" cy="6.778" r="6.778" transform="translate(30.983 91.013)" fill="#17a171"/>
          <circle id="Elipse_9185" data-name="Elipse 9185" cx="6.778" cy="6.778" r="6.778" transform="translate(139.15 90.044)" fill="#17a171"/>
          <circle id="Elipse_9173" data-name="Elipse 9173" cx="6.778" cy="6.778" r="6.778" transform="translate(60.998 91.013)" fill="#17a171"/>
          <circle id="Elipse_9191" data-name="Elipse 9191" cx="6.778" cy="6.778" r="6.778" transform="translate(110.779 90.044)" fill="#17a171"/>
          <circle id="Elipse_9174" data-name="Elipse 9174" cx="6.778" cy="6.778" r="6.778" transform="translate(65.839 113.282)" fill="#17a171"/>
          <circle id="Elipse_9192" data-name="Elipse 9192" cx="6.778" cy="6.778" r="6.778" transform="translate(106.203 112.314)" fill="#17a171"/>
          <circle id="Elipse_9175" data-name="Elipse 9175" cx="6.778" cy="6.778" r="6.778" transform="translate(36.792 112.314)" fill="#17a171"/>
          <circle id="Elipse_9186" data-name="Elipse 9186" cx="6.778" cy="6.778" r="6.778" transform="translate(133.658 111.345)" fill="#17a171"/>
        </g>
        <ellipse id="Elipse_9232" data-name="Elipse 9232" cx="5.325" cy="5.809" rx="5.325" ry="5.809" transform="translate(427.827 117.155)" fill="#3a3e44"/>
        <g id="Grupo_1070422" data-name="Grupo 1070422" transform="translate(204.823 85.204)">
          <path id="Unión_23" data-name="Unión 23" d="M7.475,69.712V34.482H0L21.3,0,42.6,34.482H32.886V69.712Z" transform="translate(69.712) rotate(90)" fill="#17a171"/>
          <path id="Trazado_833827" data-name="Trazado 833827" d="M2.531-2.553l-.844.782L1.38,0H.092L1.2-6.4H2.492L2-3.577l.655-.738L4.579-6.4H6.258L3.494-3.489,5.142,0H3.674Zm5.137.325H5.26l.176-1.024H7.849Zm3.48-4.17.787,4.627L14.322-6.4h1.714L14.924,0H13.632l.316-1.824.624-2.848L12.12,0h-.883L10.38-4.834,9.967-1.683,9.672,0H8.385L9.5-6.4ZM20.3-2.773H17.846l-.3,1.714H20.43L20.246,0h-4.17l1.112-6.4h4.162L21.16-5.331H18.29l-.268,1.525h2.461ZM24.79-1.318H22.557L21.9,0H20.479L23.9-6.4h1.191L26.306,0H24.992ZM23.084-2.386h1.542l-.36-2.382ZM32.005,0H30.757l-1.78-4.267L28.235,0H26.947l1.112-6.4H29.3l1.784,4.276L31.83-6.4h1.283Zm4.671-1.709q.092-.523-.514-.8l-.848-.338q-1.477-.659-1.4-1.815a1.667,1.667,0,0,1,.352-.949,2.114,2.114,0,0,1,.9-.648,3.19,3.19,0,0,1,1.252-.226,2.17,2.17,0,0,1,1.5.552,1.838,1.838,0,0,1,.563,1.43H37.2A.916.916,0,0,0,37-5.181a.861.861,0,0,0-.661-.25,1.333,1.333,0,0,0-.765.2.82.82,0,0,0-.387.573q-.083.479.642.76l.58.22.334.154a1.816,1.816,0,0,1,1.213,1.8,1.738,1.738,0,0,1-.363.978,2.044,2.044,0,0,1-.879.631,3.131,3.131,0,0,1-1.224.207,2.741,2.741,0,0,1-1.213-.286,1.884,1.884,0,0,1-.809-.769,1.991,1.991,0,0,1-.242-1.055l1.288,0Q34.458-.971,35.543-.954a1.345,1.345,0,0,0,.773-.207A.8.8,0,0,0,36.677-1.709Z" transform="translate(7.746 24.007)" fill="#fff"/>
        </g>
        <g id="Elipse_9193" data-name="Elipse 9193" transform="matrix(0.53, -0.848, 0.848, 0.53, 267.474, 126.976)" fill="none" stroke="#d522ab" stroke-width="2">
          <ellipse cx="30.983" cy="47.927" rx="30.983" ry="47.927" stroke="none"/>
          <ellipse cx="30.983" cy="47.927" rx="29.983" ry="46.927" fill="none"/>
        </g>
        <g id="Trazado_830977" data-name="Trazado 830977" transform="translate(299.217)" fill="none">
          <path d="M45.022,0C69.887,0,90.044,21.241,90.044,47.443S69.887,94.886,45.022,94.886,0,73.645,0,47.443,20.157,0,45.022,0Z" stroke="none"/>
          <path d="M 45.02223587036133 2 C 39.22663497924805 2 33.60440826416016 3.196098327636719 28.31174850463867 5.555061340332031 C 23.19137573242188 7.837226867675781 18.59067535400391 11.10659790039062 14.63743591308594 15.27238464355469 C 10.67719268798828 19.445556640625 7.567291259765625 24.30674743652344 5.394134521484375 29.72091674804688 C 3.141952514648438 35.33194351196289 1.999992370605469 41.2944450378418 1.999992370605469 47.44278717041016 C 1.999992370605469 53.59112930297852 3.141952514648438 59.55363082885742 5.394134521484375 65.16465759277344 C 7.567291259765625 70.57882690429688 10.67719268798828 75.44001770019531 14.63743591308594 79.61318969726562 C 18.59067535400391 83.77897644042969 23.19137573242188 87.04834747314453 28.31174850463867 89.33051300048828 C 33.60440826416016 91.68947601318359 39.22663497924805 92.88557434082031 45.02223587036133 92.88557434082031 C 50.81783676147461 92.88557434082031 56.4400520324707 91.68947601318359 61.73271942138672 89.33051300048828 C 66.85308074951172 87.04834747314453 71.45378112792969 83.77897644042969 75.40702056884766 79.61318969726562 C 79.36726379394531 75.44001770019531 82.47716522216797 70.57882690429688 84.65032196044922 65.16465759277344 C 86.90250396728516 59.55363082885742 88.04446411132812 53.59112930297852 88.04446411132812 47.44278717041016 C 88.04446411132812 41.2944450378418 86.90250396728516 35.33194351196289 84.65032196044922 29.72091674804688 C 82.47716522216797 24.30674743652344 79.36726379394531 19.445556640625 75.40702056884766 15.27238464355469 C 71.45378112792969 11.10659790039062 66.85308074951172 7.837226867675781 61.73271942138672 5.555061340332031 C 56.4400520324707 3.196098327636719 50.81783676147461 2 45.02223587036133 2 M 45.02223587036133 0 C 69.88732147216797 0 90.04446411132812 21.24085998535156 90.04446411132812 47.44278717041016 C 90.04446411132812 73.64471435546875 69.88732147216797 94.88557434082031 45.02223587036133 94.88557434082031 C 20.15713500976562 94.88557434082031 -7.62939453125e-06 73.64471435546875 -7.62939453125e-06 47.44278717041016 C -7.62939453125e-06 21.24085998535156 20.15713500976562 0 45.02223587036133 0 Z" stroke="none" fill="#d522ab"/>
        </g>
        <g id="Elipse_9237" data-name="Elipse 9237" transform="translate(381.353 6.778)" fill="none" stroke="#3a3e44" stroke-width="2">
          <ellipse cx="46.959" cy="74.069" rx="46.959" ry="74.069" stroke="none"/>
          <ellipse cx="46.959" cy="74.069" rx="45.959" ry="73.069" fill="none"/>
        </g>
      </g>
    </g>
  </g>
</svg>
