<svg xmlns="http://www.w3.org/2000/svg" width="65.253" height="63.858" viewBox="0 0 65.253 63.858">
  <g id="estadisticas_1_" data-name="estadisticas (1)" transform="translate(0.5 0.5)">
    <g id="Grupo_1084676" data-name="Grupo 1084676" transform="translate(0 0)">
      <path id="Trazado_831107" data-name="Trazado 831107" d="M71.753,119.571H7.5V84.983a2.331,2.331,0,0,1,2.331-2.331H69.422a2.331,2.331,0,0,1,2.331,2.331Z" transform="translate(-7.5 -73.634)" fill="#d2cbff"/>
      <path id="Trazado_831108" data-name="Trazado 831108" d="M466.955,84.987v34.587h-3.244V84.987a2.331,2.331,0,0,0-2.331-2.331h3.244A2.331,2.331,0,0,1,466.955,84.987Z" transform="translate(-402.701 -73.638)" fill="#beb2fc"/>
      <path id="Trazado_831109" data-name="Trazado 831109" d="M71.753,368.219H7.5v2.666a2.331,2.331,0,0,0,2.331,2.331H69.422a2.331,2.331,0,0,0,2.331-2.331Z" transform="translate(-7.5 -322.282)" fill="#eaf6ff"/>
      <path id="Trazado_831110" data-name="Trazado 831110" d="M466.955,368.216v2.666a2.331,2.331,0,0,1-2.331,2.331H461.38a2.331,2.331,0,0,0,2.331-2.331v-2.666Z" transform="translate(-402.701 -322.28)" fill="#d8ecfe"/>
      <rect id="Rectángulo_383185" data-name="Rectángulo 383185" width="17.553" height="8.679" transform="translate(23.35 50.934)" fill="#d8ecfe"/>
      <rect id="Rectángulo_383186" data-name="Rectángulo 383186" width="3.245" height="8.679" transform="translate(37.659 50.933)" fill="#c4e2ff"/>
      <g id="Grupo_1084675" data-name="Grupo 1084675" transform="translate(9.314 24.136)">
        <g id="Grupo_1084671" data-name="Grupo 1084671" transform="translate(0 7.964)">
          <path id="Trazado_831111" data-name="Trazado 831111" d="M81.287,266.353a1.745,1.745,0,0,1-1.745-1.745v-1.667a1.745,1.745,0,1,1,3.491,0v1.667A1.745,1.745,0,0,1,81.287,266.353Z" transform="translate(-79.542 -261.196)" fill="#fa2171"/>
        </g>
        <g id="Grupo_1084672" data-name="Grupo 1084672" transform="translate(6.787)">
          <path id="Trazado_831112" data-name="Trazado 831112" d="M133.788,212.715a1.745,1.745,0,0,1-1.745-1.745v-9.631a1.745,1.745,0,1,1,3.491,0v9.631A1.745,1.745,0,0,1,133.788,212.715Z" transform="translate(-132.043 -199.593)" fill="#f9da35"/>
        </g>
        <g id="Grupo_1084673" data-name="Grupo 1084673" transform="translate(13.704 3.204)">
          <path id="Trazado_831113" data-name="Trazado 831113" d="M187.289,234.291a1.745,1.745,0,0,1-1.745-1.745v-6.427a1.745,1.745,0,1,1,3.491,0v6.427A1.745,1.745,0,0,1,187.289,234.291Z" transform="translate(-185.544 -224.373)" fill="#b43cf5"/>
        </g>
        <g id="Grupo_1084674" data-name="Grupo 1084674" transform="translate(20.487 6.561)">
          <path id="Trazado_831114" data-name="Trazado 831114" d="M239.752,256.9a1.745,1.745,0,0,1-1.745-1.745v-3.07a1.745,1.745,0,0,1,3.491,0v3.07A1.745,1.745,0,0,1,239.752,256.9Z" transform="translate(-238.007 -250.341)" fill="#3ea7fe"/>
        </g>
      </g>
      <path id="Trazado_831115" data-name="Trazado 831115" d="M346.937,175.829h5.047v17.432a2.524,2.524,0,0,1-2.524,2.524h0a2.524,2.524,0,0,1-2.524-2.524V175.829Z" transform="translate(-303.054 -154.765)" fill="#a7523b"/>
      <path id="Trazado_831116" data-name="Trazado 831116" d="M356.529,175.829v17.432a2.52,2.52,0,0,1-1.1,2.082,2.523,2.523,0,0,0,3.949-2.082V175.829Z" transform="translate(-310.45 -154.765)" fill="#883b27"/>
      <path id="Trazado_831261" data-name="Trazado 831261" d="M12.986,0A12.986,12.986,0,1,1,0,12.986,12.986,12.986,0,0,1,12.986,0Z" transform="translate(33.42 0)" fill="#fcea96"/>
      <path id="Trazado_831117" data-name="Trazado 831117" d="M349.666,12.9a13.046,13.046,0,0,0-2.493.24,12.988,12.988,0,0,1,0,25.493A12.987,12.987,0,1,0,349.666,12.9Z" transform="translate(-303.259 -12.898)" fill="#f6dd61"/>
      <path id="Trazado_831118" data-name="Trazado 831118" d="M315.227,55.633H301.218a1.639,1.639,0,0,1-1.365-2.547l7-10.537a1.639,1.639,0,0,1,2.73,0l7,10.537A1.639,1.639,0,0,1,315.227,55.633Z" transform="translate(-261.815 -38.078)" fill="#fee45a"/>
      <path id="Trazado_831119" data-name="Trazado 831119" d="M423.161,124.523l-.44-.662a12.909,12.909,0,0,1-.753,3.2A1.639,1.639,0,0,0,423.161,124.523Z" transform="translate(-368.385 -109.515)" fill="#ffd655"/>
    </g>
    <g id="Grupo_1084683" data-name="Grupo 1084683" transform="translate(0 0)">
      <path id="Trazado_831120" data-name="Trazado 831120" d="M66.274,82.656h3.148a2.331,2.331,0,0,1,2.331,2.331v34.587H7.5V84.987a2.331,2.331,0,0,1,2.331-2.331H36.909" transform="translate(-7.5 -73.638)" fill="none" stroke="#000" stroke-linecap="round" stroke-linejoin="round" stroke-miterlimit="10" stroke-width="1"/>
      <path id="Trazado_831121" data-name="Trazado 831121" d="M75.643,145.521H42.5V117.652" transform="translate(-37.975 -104.109)" fill="none" stroke="#000" stroke-linecap="round" stroke-linejoin="round" stroke-miterlimit="10" stroke-width="1"/>
      <path id="Trazado_831122" data-name="Trazado 831122" d="M71.753,368.219H7.5v2.666a2.331,2.331,0,0,0,2.331,2.331H69.422a2.331,2.331,0,0,0,2.331-2.331Z" transform="translate(-7.5 -322.282)" fill="none" stroke="#000" stroke-linecap="round" stroke-linejoin="round" stroke-miterlimit="10" stroke-width="1"/>
      <path id="Trazado_831123" data-name="Trazado 831123" d="M205.667,411.424v4.124H188.114V406.87h17.553" transform="translate(-164.764 -355.936)" fill="none" stroke="#000" stroke-linecap="round" stroke-linejoin="round" stroke-miterlimit="10" stroke-width="1"/>
      <path id="Trazado_831124" data-name="Trazado 831124" d="M129.41,477.246h0A3.245,3.245,0,0,1,132.655,474H158.9a3.245,3.245,0,0,1,3.245,3.245h0" transform="translate(-113.649 -414.389)" fill="none" stroke="#000" stroke-linecap="round" stroke-linejoin="round" stroke-miterlimit="10" stroke-width="1"/>
      <g id="Grupo_1084681" data-name="Grupo 1084681" transform="translate(9.314 24.136)">
        <g id="Grupo_1084677" data-name="Grupo 1084677" transform="translate(0 7.964)">
          <path id="Trazado_831125" data-name="Trazado 831125" d="M81.287,266.353a1.745,1.745,0,0,1-1.745-1.745v-1.667a1.745,1.745,0,1,1,3.491,0v1.667A1.745,1.745,0,0,1,81.287,266.353Z" transform="translate(-79.542 -261.196)" fill="none" stroke="#000" stroke-linecap="round" stroke-linejoin="round" stroke-miterlimit="10" stroke-width="1"/>
        </g>
        <g id="Grupo_1084678" data-name="Grupo 1084678" transform="translate(6.787)">
          <path id="Trazado_831126" data-name="Trazado 831126" d="M133.788,212.715a1.745,1.745,0,0,1-1.745-1.745v-9.631a1.745,1.745,0,1,1,3.491,0v9.631A1.745,1.745,0,0,1,133.788,212.715Z" transform="translate(-132.043 -199.593)" fill="none" stroke="#000" stroke-linecap="round" stroke-linejoin="round" stroke-miterlimit="10" stroke-width="1"/>
        </g>
        <g id="Grupo_1084679" data-name="Grupo 1084679" transform="translate(13.704 3.204)">
          <path id="Trazado_831127" data-name="Trazado 831127" d="M187.289,234.291a1.745,1.745,0,0,1-1.745-1.745v-6.427a1.745,1.745,0,1,1,3.491,0v6.427A1.745,1.745,0,0,1,187.289,234.291Z" transform="translate(-185.544 -224.373)" fill="none" stroke="#000" stroke-linecap="round" stroke-linejoin="round" stroke-miterlimit="10" stroke-width="1"/>
        </g>
        <g id="Grupo_1084680" data-name="Grupo 1084680" transform="translate(20.487 6.561)">
          <path id="Trazado_831128" data-name="Trazado 831128" d="M239.752,256.9a1.745,1.745,0,0,1-1.745-1.745v-3.07a1.745,1.745,0,0,1,3.491,0v3.07A1.745,1.745,0,0,1,239.752,256.9Z" transform="translate(-238.007 -250.341)" fill="none" stroke="#000" stroke-linecap="round" stroke-linejoin="round" stroke-miterlimit="10" stroke-width="1"/>
        </g>
      </g>
      <path id="Trazado_831129" data-name="Trazado 831129" d="M93.042,143.149l6.787-5.768,13.7,8.043" transform="translate(-81.983 -121.288)" fill="none" stroke="#000" stroke-linecap="round" stroke-linejoin="round" stroke-miterlimit="10" stroke-width="1"/>
      <ellipse id="Elipse_10845" data-name="Elipse 10845" cx="12.986" cy="12.986" rx="12.986" ry="12.986" transform="translate(33.42)" fill="none" stroke="#000" stroke-linecap="round" stroke-linejoin="round" stroke-miterlimit="10" stroke-width="1"/>
      <path id="Trazado_831130" data-name="Trazado 831130" d="M351.987,211.9v12.769a2.524,2.524,0,0,1-5.047,0V211.9" transform="translate(-303.057 -186.169)" fill="none" stroke="#000" stroke-linecap="round" stroke-linejoin="round" stroke-miterlimit="10" stroke-width="1"/>
      <path id="Trazado_831131" data-name="Trazado 831131" d="M315.227,55.633H301.218a1.639,1.639,0,0,1-1.365-2.547l7-10.537a1.639,1.639,0,0,1,2.73,0l7,10.537A1.639,1.639,0,0,1,315.227,55.633Z" transform="translate(-261.815 -38.078)" fill="none" stroke="#000" stroke-linecap="round" stroke-linejoin="round" stroke-miterlimit="10" stroke-width="1"/>
      <g id="Grupo_1084682" data-name="Grupo 1084682" transform="translate(46.407 8.442)">
        <line id="Línea_4062" data-name="Línea 4062" y2="2.267" fill="none" stroke="#000" stroke-linecap="round" stroke-linejoin="round" stroke-miterlimit="10" stroke-width="1"/>
        <line id="Línea_4063" data-name="Línea 4063" transform="translate(0 5.687)" fill="none" stroke="#000" stroke-linecap="round" stroke-linejoin="round" stroke-miterlimit="10" stroke-width="1"/>
      </g>
    </g>
  </g>
</svg>
