<svg xmlns="http://www.w3.org/2000/svg" width="85.461" height="98.067" viewBox="0 0 85.461 98.067">
  <g id="Grupo_1083625" data-name="Grupo 1083625" transform="translate(-196.414 -409)">
    <rect id="Rectángulo_382274" data-name="Rectángulo 382274" width="68.856" height="98.067" transform="translate(213.019 409)" fill="#c0c0fb"/>
    <g id="educacion-en-linea" transform="translate(196.414 430.195)">
      <g id="Grupo_1082561" data-name="Grupo 1082561" transform="translate(19.547 11.642)">
        <g id="Grupo_1082550" data-name="Grupo 1082550" transform="translate(0 17.348)">
          <path id="Trazado_828841" data-name="Trazado 828841" d="M127.915,176.493h8.991s5.459,0,8.584,3.767l.469.69a9.37,9.37,0,0,1,1.623,5.283c-.008,4.941-.008,14.513-.008,14.513H119l0-15.45a8.213,8.213,0,0,1,5.806-7.851Z" transform="translate(-119.002 -176.493)" fill="#6ad8db"/>
        </g>
        <path id="Trazado_828842" data-name="Trazado 828842" d="M161.886,133.177a1.21,1.21,0,0,0,1.21-1.21v-7.3h6.57v7.3a1.21,1.21,0,0,0,1.21,1.21,8.793,8.793,0,0,1,2.3.277,6.837,6.837,0,0,1-13.524.409Z" transform="translate(-152.972 -115.83)" fill="#ffcdbd"/>
        <g id="Grupo_1082551" data-name="Grupo 1082551" transform="translate(8.144)">
          <path id="Trazado_828843" data-name="Trazado 828843" d="M174.251,85.979s-4.977.562-5.619-6.987,5.619-8.112,5.619-8.112,5.15,1.181,4.817,8.513C178.747,86.461,174.251,85.979,174.251,85.979Z" transform="translate(-168.586 -70.88)" fill="#ffcdbd"/>
        </g>
        <g id="Grupo_1082554" data-name="Grupo 1082554" transform="translate(0 22.709)">
          <g id="Grupo_1082552" data-name="Grupo 1082552" transform="translate(22.846 0.069)">
            <path id="Trazado_828844" data-name="Trazado 828844" d="M262.778,209.555a9.36,9.36,0,0,1,1.045,4.309c-.008,4.941-.008,14.513-.008,14.513h-5.7C257.986,223.548,258.121,210.922,262.778,209.555Z" transform="translate(-258.088 -209.555)" fill="#6ad8db"/>
          </g>
          <g id="Grupo_1082553" data-name="Grupo 1082553">
            <path id="Trazado_828845" data-name="Trazado 828845" d="M119,212.575a8.193,8.193,0,0,1,.757-3.441c4.938.925,5.08,13.966,4.947,18.892H119Z" transform="translate(-119.002 -209.134)" fill="#6ad8db"/>
          </g>
        </g>
        <g id="Grupo_1082560" data-name="Grupo 1082560" transform="translate(7.525 23.818)">
          <g id="Grupo_1082555" data-name="Grupo 1082555" transform="translate(4.928 3.449)">
            <circle id="Elipse_10619" data-name="Elipse 10619" cx="0.986" cy="0.986" r="0.986" fill="#fff"/>
          </g>
          <g id="Grupo_1082556" data-name="Grupo 1082556" transform="translate(9.855 8.377)">
            <circle id="Elipse_10620" data-name="Elipse 10620" cx="0.986" cy="0.986" r="0.986" fill="#fff"/>
          </g>
          <g id="Grupo_1082557" data-name="Grupo 1082557" transform="translate(11.498 1.807)">
            <circle id="Elipse_10621" data-name="Elipse 10621" cx="0.986" cy="0.986" r="0.986" fill="#fff"/>
          </g>
          <g id="Grupo_1082558" data-name="Grupo 1082558" transform="translate(0 8.213)">
            <circle id="Elipse_10622" data-name="Elipse 10622" cx="0.986" cy="0.986" r="0.986" fill="#fff"/>
          </g>
          <g id="Grupo_1082559" data-name="Grupo 1082559">
            <circle id="Elipse_10623" data-name="Elipse 10623" cx="0.986" cy="0.986" r="0.986" fill="#fff"/>
          </g>
        </g>
      </g>
      <g id="Grupo_1082567" data-name="Grupo 1082567" transform="translate(0.329 47.634)">
        <g id="Grupo_1082564" data-name="Grupo 1082564">
          <g id="Grupo_1082562" data-name="Grupo 1082562">
            <path id="Trazado_828846" data-name="Trazado 828846" d="M2,290H78.215v4.12H2Z" transform="translate(-2 -290)" fill="#ffdc83"/>
          </g>
          <g id="Grupo_1082563" data-name="Grupo 1082563">
            <path id="Trazado_828847" data-name="Trazado 828847" d="M3.15,292.97V290H2v4.12H78.215v-1.15Z" transform="translate(-2 -290)" fill="#fff"/>
          </g>
        </g>
        <path id="Trazado_828848" data-name="Trazado 828848" d="M36.759,315.081H40.78V339.87H36.759Z" transform="translate(-31.05 -310.961)" fill="#fff"/>
        <path id="Trazado_828849" data-name="Trazado 828849" d="M406.759,315.081h4.021V339.87h-4.021Z" transform="translate(-340.275 -310.961)" fill="#fff"/>
        <g id="Grupo_1082565" data-name="Grupo 1082565" transform="translate(9.731 4.12)">
          <path id="Trazado_828850" data-name="Trazado 828850" d="M61.241,315.081h56.753v11.051H61.241Z" transform="translate(-61.241 -315.081)" fill="#eaeaea"/>
        </g>
        <g id="Grupo_1082566" data-name="Grupo 1082566" transform="translate(9.731 4.12)">
          <path id="Trazado_828851" data-name="Trazado 828851" d="M62.391,324.982v-9.9h-1.15v11.051h56.754v-1.15Z" transform="translate(-61.241 -315.081)" fill="#fff"/>
        </g>
      </g>
      <g id="Grupo_1082571" data-name="Grupo 1082571" transform="translate(0.329 23.053)">
        <path id="Trazado_828852" data-name="Trazado 828852" d="M27.624,160.413H3.643A1.643,1.643,0,0,1,2,158.77V141.988a1.643,1.643,0,0,1,1.643-1.643H27.624a1.643,1.643,0,0,1,1.643,1.643V158.77A1.643,1.643,0,0,1,27.624,160.413Z" transform="translate(-2 -140.345)" fill="#fff"/>
        <g id="Grupo_1082570" data-name="Grupo 1082570" transform="translate(6.599 20.067)">
          <g id="Grupo_1082568" data-name="Grupo 1082568" transform="translate(0)">
            <path id="Trazado_828853" data-name="Trazado 828853" d="M55.588,267.029H42.836a.657.657,0,0,1-.572-.981l2-3.533h9.891l2,3.534A.657.657,0,0,1,55.588,267.029Z" transform="translate(-42.178 -262.514)" fill="#eaeaea"/>
          </g>
          <g id="Grupo_1082569" data-name="Grupo 1082569" transform="translate(0 0.001)">
            <path id="Trazado_828854" data-name="Trazado 828854" d="M43.413,266.051l2-3.533h-1.15l-2,3.533a.657.657,0,0,0,.572.981h1.15A.657.657,0,0,1,43.413,266.051Z" transform="translate(-42.177 -262.518)" fill="#fff"/>
          </g>
        </g>
      </g>
      <g id="Grupo_1082575" data-name="Grupo 1082575" transform="translate(50.473 41.393)">
        <g id="Grupo_1082572" data-name="Grupo 1082572">
          <path id="Trazado_828855" data-name="Trazado 828855" d="M330.067,258.242H308.925a1.643,1.643,0,0,1-1.643-1.643v-2.957A1.643,1.643,0,0,1,308.925,252h21.143Z" transform="translate(-307.282 -252)" fill="#cc91f2"/>
        </g>
        <g id="Grupo_1082573" data-name="Grupo 1082573" transform="translate(9.422 1.643)">
          <path id="Trazado_828856" data-name="Trazado 828856" d="M375.482,264.957H364.97a.328.328,0,0,1-.329-.329v-2.3a.328.328,0,0,1,.329-.328h10.512Z" transform="translate(-364.641 -262)" fill="#fff"/>
        </g>
        <g id="Grupo_1082574" data-name="Grupo 1082574" transform="translate(2.359 2.037)">
          <circle id="Elipse_10624" data-name="Elipse 10624" cx="1.15" cy="1.15" r="1.15" fill="#fff"/>
        </g>
      </g>
      <g id="Grupo_1082579" data-name="Grupo 1082579" transform="translate(53.758 35.151)">
        <g id="Grupo_1082576" data-name="Grupo 1082576">
          <path id="Trazado_828857" data-name="Trazado 828857" d="M350.067,220.242H328.925a1.643,1.643,0,0,1-1.643-1.643v-2.957A1.643,1.643,0,0,1,328.925,214h21.143Z" transform="translate(-327.282 -214)" fill="#ff80a4"/>
        </g>
        <g id="Grupo_1082577" data-name="Grupo 1082577" transform="translate(9.422 1.643)">
          <path id="Trazado_828858" data-name="Trazado 828858" d="M395.482,226.957H384.969a.328.328,0,0,1-.328-.329v-2.3a.328.328,0,0,1,.328-.329h10.512Z" transform="translate(-384.641 -224)" fill="#fff"/>
        </g>
        <g id="Grupo_1082578" data-name="Grupo 1082578" transform="translate(2.359 2.037)">
          <circle id="Elipse_10625" data-name="Elipse 10625" cx="1.15" cy="1.15" r="1.15" fill="#fff"/>
        </g>
      </g>
      <g id="Grupo_1082589" data-name="Grupo 1082589" transform="translate(61.223 18.889)">
        <g id="Grupo_1082582" data-name="Grupo 1082582" transform="translate(0 2.25)">
          <g id="Grupo_1082580" data-name="Grupo 1082580">
            <path id="Trazado_828859" data-name="Trazado 828859" d="M379.57,140.47a1.05,1.05,0,0,0,.384-1.434l-4.742-8.213a4.992,4.992,0,0,0-2.441-2.127,4.992,4.992,0,0,0,.622,3.178l4.742,8.213A1.05,1.05,0,0,0,379.57,140.47Z" transform="translate(-372.725 -128.695)" fill="#ffdc83"/>
          </g>
          <g id="Grupo_1082581" data-name="Grupo 1082581" transform="translate(0.669 2.127)">
            <path id="Trazado_828860" data-name="Trazado 828860" d="M383.357,149.86a1.05,1.05,0,0,1-1.819,1.05L376.8,142.7l1.819-1.05Z" transform="translate(-376.797 -141.647)" fill="#cc91f2"/>
          </g>
        </g>
        <g id="Grupo_1082585" data-name="Grupo 1082585" transform="translate(4.994 2.25)">
          <g id="Grupo_1082583" data-name="Grupo 1082583">
            <path id="Trazado_828861" data-name="Trazado 828861" d="M403.657,140.47a1.05,1.05,0,0,1-.384-1.434l4.742-8.213a4.992,4.992,0,0,1,2.441-2.127,4.991,4.991,0,0,1-.622,3.178l-4.742,8.213A1.05,1.05,0,0,1,403.657,140.47Z" transform="translate(-403.132 -128.695)" fill="#ffdc83"/>
          </g>
          <g id="Grupo_1082584" data-name="Grupo 1082584" transform="translate(0 2.127)">
            <path id="Trazado_828862" data-name="Trazado 828862" d="M403.272,149.86a1.05,1.05,0,0,0,1.819,1.05l4.742-8.213-1.819-1.05Z" transform="translate(-403.132 -141.647)" fill="#6ad8db"/>
          </g>
        </g>
        <g id="Grupo_1082588" data-name="Grupo 1082588" transform="translate(5.132)">
          <g id="Grupo_1082586" data-name="Grupo 1082586">
            <path id="Trazado_828863" data-name="Trazado 828863" d="M405.02,128.6a1.05,1.05,0,0,1-1.05-1.05v-9.483A4.992,4.992,0,0,1,405.02,115a4.993,4.993,0,0,1,1.05,3.063v9.483A1.05,1.05,0,0,1,405.02,128.6Z" transform="translate(-403.97 -114.999)" fill="#ffdc83"/>
          </g>
          <g id="Grupo_1082587" data-name="Grupo 1082587" transform="translate(0 3.063)">
            <path id="Trazado_828864" data-name="Trazado 828864" d="M403.97,143.13a1.05,1.05,0,0,0,2.1,0v-9.483h-2.1Z" transform="translate(-403.97 -133.647)" fill="#ff80a4"/>
          </g>
        </g>
        <path id="Trazado_828865" data-name="Trazado 828865" d="M386.5,174.037h3.906a1.314,1.314,0,0,0,1.3-1.111l1.055-6.743h-8.613l1.055,6.743A1.314,1.314,0,0,0,386.5,174.037Z" transform="translate(-382.271 -157.776)" fill="#fff"/>
      </g>
      <g id="Grupo_1082597" data-name="Grupo 1082597" transform="translate(44.021 0)">
        <g id="Grupo_1082590" data-name="Grupo 1082590">
          <circle id="Elipse_10626" data-name="Elipse 10626" cx="9.625" cy="9.625" r="9.625" transform="translate(0.249 0.228)" fill="#fff"/>
          <path id="Trazado_828866" data-name="Trazado 828866" d="M277.855,19.711a9.855,9.855,0,1,1,9.855-9.855A9.867,9.867,0,0,1,277.855,19.711Zm0-19.054a9.2,9.2,0,1,0,9.2,9.2A9.209,9.209,0,0,0,277.855.657Z" transform="translate(-268)" fill="#333"/>
        </g>
        <g id="Grupo_1082591" data-name="Grupo 1082591" transform="translate(2.436 2.436)">
          <circle id="Elipse_10627" data-name="Elipse 10627" cx="7.419" cy="7.419" r="7.419" fill="#cc91f2"/>
        </g>
        <g id="Grupo_1082592" data-name="Grupo 1082592" transform="translate(9.499 2.436)">
          <path id="Trazado_828867" data-name="Trazado 828867" d="M326.185,16.669a.357.357,0,0,0,.357-.357V14.84c-.118-.006-.237-.009-.357-.009s-.239,0-.357.009v1.472A.357.357,0,0,0,326.185,16.669Z" transform="translate(-325.828 -14.831)" fill="#333"/>
        </g>
        <g id="Grupo_1082593" data-name="Grupo 1082593" transform="translate(2.436 9.499)">
          <path id="Trazado_828868" data-name="Trazado 828868" d="M284.669,58.185a.357.357,0,0,0-.357-.357H282.84c-.006.118-.009.237-.009.357s0,.238.009.357h1.472A.357.357,0,0,0,284.669,58.185Z" transform="translate(-282.831 -57.828)" fill="#333"/>
        </g>
        <g id="Grupo_1082594" data-name="Grupo 1082594" transform="translate(9.499 15.437)">
          <path id="Trazado_828869" data-name="Trazado 828869" d="M326.185,93.98a.357.357,0,0,0-.357.357v1.472c.118.006.237.009.357.009s.238,0,.357-.009V94.337A.357.357,0,0,0,326.185,93.98Z" transform="translate(-325.828 -93.98)" fill="#333"/>
        </g>
        <g id="Grupo_1082595" data-name="Grupo 1082595" transform="translate(15.437 9.499)">
          <path id="Trazado_828870" data-name="Trazado 828870" d="M363.81,57.828h-1.472a.357.357,0,1,0,0,.714h1.472c.006-.118.009-.237.009-.357S363.815,57.946,363.81,57.828Z" transform="translate(-361.981 -57.828)" fill="#333"/>
        </g>
        <g id="Grupo_1082596" data-name="Grupo 1082596" transform="translate(7.12 6.526)">
          <path id="Trazado_828871" data-name="Trazado 828871" d="M314.082,43.772h-2.407a.329.329,0,1,1,0-.657h2.078V40.061a.328.328,0,1,1,.657,0v3.383A.329.329,0,0,1,314.082,43.772Z" transform="translate(-311.347 -39.732)" fill="#333"/>
        </g>
      </g>
      <g id="Grupo_1082601" data-name="Grupo 1082601" transform="translate(0 0)">
        <g id="Grupo_1082598" data-name="Grupo 1082598" transform="translate(0)">
          <path id="Trazado_828872" data-name="Trazado 828872" d="M19.711,0H.986A.985.985,0,0,0,0,.986V9.928a.985.985,0,0,0,.986.986h12.67l3.488,2.806.013-2.806h2.555a.985.985,0,0,0,.986-.986V.986A.985.985,0,0,0,19.711,0Z" transform="translate(0 0)" fill="#6ad8db"/>
        </g>
        <g id="Grupo_1082599" data-name="Grupo 1082599" transform="translate(2.958 2.972)">
          <path id="Trazado_828873" data-name="Trazado 828873" d="M30.723,18.75H18.339a.329.329,0,1,1,0-.657H30.723a.329.329,0,0,1,0,.657Z" transform="translate(-18.01 -18.093)" fill="#fff"/>
        </g>
        <g id="Grupo_1082600" data-name="Grupo 1082600" transform="translate(2.958 6.95)">
          <path id="Trazado_828874" data-name="Trazado 828874" d="M25.51,42.967H18.339a.329.329,0,1,1,0-.657H25.51a.329.329,0,1,1,0,.657Z" transform="translate(-18.01 -42.31)" fill="#fff"/>
        </g>
      </g>
      <path id="Trazado_828875" data-name="Trazado 828875" d="M76.543,78.057a.329.329,0,0,0,.329-.329V71.487a.329.329,0,0,0-.329-.329H70.674a1.646,1.646,0,0,0,.306-.732l1.055-6.743a.329.329,0,0,0-.325-.379H63.1a.329.329,0,0,0-.325.379l1.055,6.743a1.645,1.645,0,0,0,.306.732H55.4a1.973,1.973,0,0,0-1.971,1.971v2.957a1.957,1.957,0,0,0,.507,1.314H52.116a1.973,1.973,0,0,0-1.971,1.971v2.957a1.954,1.954,0,0,0,.51,1.314H48.449c0-2.9,0-6.261.006-8.576a9.7,9.7,0,0,0-5.5-8.743A32.974,32.974,0,0,1,41.69,57.1c.018-3.555.86-9.332-2.259-11.953-1.952-1.64-5.3-2.358-7.062-.821a6.419,6.419,0,0,0-5.963,1.15c-3.378,2.838-2.377,9.761-2.223,13.584H1.971A1.973,1.973,0,0,0,0,61.031V77.813a1.973,1.973,0,0,0,1.971,1.971H8.452L6.728,82.827a.973.973,0,0,0-.07.814H.328A.329.329,0,0,0,0,83.97v4.12a.329.329,0,0,0,.329.329H5.709v24.461a.329.329,0,0,0,.329.329h4.021a.329.329,0,0,0,.329-.329V99.469h56.1v13.41a.329.329,0,0,0,.328.329h4.021a.329.329,0,0,0,.329-.329V88.418h5.381a.329.329,0,0,0,.329-.329V83.97a.329.329,0,0,0-.329-.329H73.587V78.057Zm-13.061-14.1h7.845l-1,6.364a.981.981,0,0,1-.974.833H65.451a.981.981,0,0,1-.974-.833ZM50.8,79.371a1.316,1.316,0,0,1,1.314-1.314H72.93v5.585H52.116A1.316,1.316,0,0,1,50.8,82.328Zm-3.885-8.209c0,.008.008.014.012.021a9,9,0,0,1,.87,3.882c0,2.316-.005,5.673-.006,8.576h-4.97C43.093,78.536,44.028,72.342,46.917,71.162Zm-15.194-22.4A3.793,3.793,0,0,1,34.4,50.153c2.6,3.218.961,8.244,1.137,11.951a4.406,4.406,0,0,1-5.11-.345c-1.343-1.109-2.14-3.026-2.367-5.7C27.664,51.352,30.014,49.49,31.723,48.762Zm-3.8,17.072C28.852,65.526,30,65.4,30,64.116V62.252a5.1,5.1,0,0,0,5.592.6c.182,2.192.566,4.805,1.919,6.615a6.576,6.576,0,0,1-9.586-.519V65.834Zm0,11.98v-7.9a7.238,7.238,0,0,0,10.009.055,6.3,6.3,0,0,0,6.383,1.706.328.328,0,0,0,.215-.415c-.436-1.349-.879-2.7-1.306-4.049a8.724,8.724,0,0,1,3.389,3.366c-3.149,1.365-4.174,7.654-4.456,13.06H25.514c-.066-1.264-.173-2.572-.338-3.857h.776a1.974,1.974,0,0,0,1.971-1.971ZM1.971,79.127A1.316,1.316,0,0,1,.657,77.813V61.031a1.316,1.316,0,0,1,1.314-1.314H25.952a1.316,1.316,0,0,1,1.314,1.314V77.813a1.316,1.316,0,0,1-1.314,1.314Zm19.224,3.7-1.724-3.043h5.044c.165,1.292.269,2.605.335,3.857H21.265a.974.974,0,0,0-.07-.814ZM7.3,83.151l1.907-3.367h9.508l1.908,3.367a.33.33,0,0,1-.286.49H7.586a.33.33,0,0,1-.286-.49Zm2.431,29.4H6.366V88.418H9.731Zm.657-13.738V88.418h56.1V98.812Zm60.118,13.738H67.141V88.418h3.364ZM76.215,84.3v3.463H.657V84.3ZM55.4,77.4a1.316,1.316,0,0,1-1.314-1.314V73.129A1.316,1.316,0,0,1,55.4,71.815H76.215V77.4Z" transform="translate(0 -36.336)" fill="#333"/>
      <g id="Grupo_1082614" data-name="Grupo 1082614" transform="translate(44.94 52.947)">
        <g id="Grupo_1082604" data-name="Grupo 1082604" transform="translate(0 3.003)">
          <g id="Grupo_1082602" data-name="Grupo 1082602">
            <path id="Trazado_828876" data-name="Trazado 828876" d="M280.595,355.209l3.861,3.777-1.341-5.233a24.5,24.5,0,0,0-6.5-11.383c-1.187-1.171-2.245-1.965-2.725-1.688s-.32,1.59.1,3.2a24.5,24.5,0,0,0,6.607,11.323Z" transform="translate(-273.594 -340.627)" fill="#bcbcbc"/>
          </g>
          <g id="Grupo_1082603" data-name="Grupo 1082603" transform="translate(2.086 3.4)">
            <path id="Trazado_828877" data-name="Trazado 828877" d="M293.871,374.533a.329.329,0,0,1-.285-.164l-7.247-12.552a.329.329,0,1,1,.569-.329l7.247,12.552a.329.329,0,0,1-.284.493Z" transform="translate(-286.296 -361.324)" fill="#aaa"/>
          </g>
        </g>
        <g id="Grupo_1082607" data-name="Grupo 1082607" transform="translate(6.865 3.003)">
          <g id="Grupo_1082605" data-name="Grupo 1082605">
            <path id="Trazado_828878" data-name="Trazado 828878" d="M319.249,355.209l-3.862,3.777,1.341-5.233a24.5,24.5,0,0,1,6.5-11.383c1.188-1.171,2.245-1.965,2.725-1.688s.32,1.59-.1,3.2a24.5,24.5,0,0,1-6.607,11.323Z" transform="translate(-315.387 -340.627)" fill="#bcbcbc"/>
          </g>
          <g id="Grupo_1082606" data-name="Grupo 1082606" transform="translate(0.872 3.399)">
            <path id="Trazado_828879" data-name="Trazado 828879" d="M321.024,374.532a.329.329,0,0,1-.284-.493l7.247-12.552a.328.328,0,1,1,.569.328l-7.247,12.552A.328.328,0,0,1,321.024,374.532Z" transform="translate(-320.696 -361.323)" fill="#aaa"/>
          </g>
        </g>
        <g id="Grupo_1082610" data-name="Grupo 1082610" transform="translate(6.484)">
          <g id="Grupo_1082608" data-name="Grupo 1082608">
            <path id="Trazado_828880" data-name="Trazado 828880" d="M314,338.277l1.456,5.2,1.455-5.2a24.5,24.5,0,0,0,.06-13.109c-.443-1.608-.962-2.824-1.516-2.824s-1.072,1.216-1.516,2.824A24.5,24.5,0,0,0,314,338.277Z" transform="translate(-313.072 -322.344)" fill="#d6d6d6"/>
          </g>
          <g id="Grupo_1082609" data-name="Grupo 1082609" transform="translate(2.05 3.912)">
            <path id="Trazado_828881" data-name="Trazado 828881" d="M325.883,361.313a.329.329,0,0,1-.328-.328V346.491a.328.328,0,1,1,.657,0v14.493A.328.328,0,0,1,325.883,361.313Z" transform="translate(-325.555 -346.163)" fill="#bcbcbc"/>
          </g>
        </g>
        <g id="Grupo_1082613" data-name="Grupo 1082613" transform="translate(2.622 15.39)">
          <g id="Grupo_1082611" data-name="Grupo 1082611" transform="translate(1.15 0.329)">
            <path id="Trazado_828882" data-name="Trazado 828882" d="M299.544,426.244h4.206a1.643,1.643,0,0,0,1.611-1.32l1.378-6.887H296.555l1.378,6.887A1.643,1.643,0,0,0,299.544,426.244Z" transform="translate(-296.555 -418.037)" fill="#ff80a4"/>
          </g>
          <g id="Grupo_1082612" data-name="Grupo 1082612">
            <path id="Trazado_828883" data-name="Trazado 828883" d="M301.71,416.693H289.884a.328.328,0,1,1,0-.657H301.71a.328.328,0,1,1,0,.657Z" transform="translate(-289.555 -416.036)" fill="#333"/>
          </g>
        </g>
      </g>
    </g>
  </g>
</svg>
