<svg xmlns="http://www.w3.org/2000/svg" width="50.057" height="58.116" viewBox="0 0 50.057 58.116">
  <g id="codigo-binario_1_" data-name="codigo-binario (1)" transform="translate(-35.5)">
    <path id="Trazado_817163" data-name="Trazado 817163" d="M81.593,63.913H44.816A1.816,1.816,0,0,1,43,62.1V9.316A1.816,1.816,0,0,1,44.816,7.5H81.593a1.816,1.816,0,0,1,1.816,1.816V62.1A1.816,1.816,0,0,1,81.593,63.913Z" transform="translate(-6.649 -6.649)" fill="#eaf6ff"/>
    <path id="Trazado_817164" data-name="Trazado 817164" d="M356.405,7.5H353a1.816,1.816,0,0,1,1.816,1.816V62.1A1.816,1.816,0,0,1,353,63.913h3.405a1.816,1.816,0,0,0,1.816-1.816V9.316A1.816,1.816,0,0,0,356.405,7.5Z" transform="translate(-281.461 -6.649)" fill="#d8ecfe"/>
    <path id="Trazado_817165" data-name="Trazado 817165" d="M83.409,14.31H43V9.316A1.816,1.816,0,0,1,44.816,7.5H81.593a1.816,1.816,0,0,1,1.816,1.816Z" transform="translate(-6.649 -6.649)" fill="#2abcc8"/>
    <path id="Trazado_817166" data-name="Trazado 817166" d="M356.405,7.5H353a1.816,1.816,0,0,1,1.816,1.816V14.31h3.405V9.316A1.816,1.816,0,0,0,356.405,7.5Z" transform="translate(-281.461 -6.649)" fill="#0cacba"/>
    <path id="Trazado_817167" data-name="Trazado 817167" d="M82.036,11.132h0a1.7,1.7,0,0,1-1.7-1.7V7.5h3.405V9.43A1.7,1.7,0,0,1,82.036,11.132Z" transform="translate(-39.744 -6.649)" fill="#fe7ab6"/>
    <path id="Trazado_817168" data-name="Trazado 817168" d="M137.37,11.132h0a1.7,1.7,0,0,1-1.7-1.7V7.5h3.405V9.43A1.7,1.7,0,0,1,137.37,11.132Z" transform="translate(-88.797 -6.649)" fill="#fdb441"/>
    <path id="Trazado_817169" data-name="Trazado 817169" d="M192.7,11.132h0a1.7,1.7,0,0,1-1.7-1.7V7.5h3.405V9.43A1.7,1.7,0,0,1,192.7,11.132Z" transform="translate(-137.85 -6.649)" fill="#edf9d9"/>
    <path id="Trazado_817170" data-name="Trazado 817170" d="M259.745,234.012H236.816A1.816,1.816,0,0,1,235,232.2v-25.88a1.816,1.816,0,0,1,1.816-1.816h22.929a1.816,1.816,0,0,1,1.816,1.816V232.2A1.816,1.816,0,0,1,259.745,234.012Z" transform="translate(-176.855 -181.288)" fill="#d8ecfe"/>
    <path id="Trazado_817171" data-name="Trazado 817171" d="M426.405,204.5H423a1.816,1.816,0,0,1,1.816,1.816V232.2A1.816,1.816,0,0,1,423,234.012h3.405a1.816,1.816,0,0,0,1.816-1.816v-25.88A1.816,1.816,0,0,0,426.405,204.5Z" transform="translate(-343.516 -181.288)" fill="#c4e2ff"/>
    <path id="Trazado_817172" data-name="Trazado 817172" d="M265.634,393.43h0a1.93,1.93,0,0,1,1.93-1.93H283a1.93,1.93,0,0,1,1.93,1.93h0a1.93,1.93,0,0,1-1.93,1.93H267.564A1.93,1.93,0,0,1,265.634,393.43Z" transform="translate(-204.012 -347.062)" fill="#fdb441"/>
    <path id="Trazado_817173" data-name="Trazado 817173" d="M392.039,391.5h-3.405a1.93,1.93,0,0,1,1.93,1.93h0a1.93,1.93,0,0,1-1.93,1.93h3.405a1.93,1.93,0,0,0,1.93-1.93h0A1.93,1.93,0,0,0,392.039,391.5Z" transform="translate(-313.051 -347.062)" fill="#fe9738"/>
    <path id="Trazado_817174" data-name="Trazado 817174" d="M261.561,211.083H235v-4.767a1.816,1.816,0,0,1,1.816-1.816h22.929a1.816,1.816,0,0,1,1.816,1.816Z" transform="translate(-176.855 -181.288)" fill="#2abcc8"/>
    <path id="Trazado_817175" data-name="Trazado 817175" d="M426.405,204.5H423a1.816,1.816,0,0,1,1.816,1.816v4.767h3.405v-4.767A1.816,1.816,0,0,0,426.405,204.5Z" transform="translate(-343.516 -181.288)" fill="#0cacba"/>
    <path id="Trazado_817176" data-name="Trazado 817176" d="M95.252,275.962H85.1a.6.6,0,0,1-.6-.6v-18.1a.6.6,0,0,1,.6-.6H95.252a.6.6,0,0,1,.6.6v18.1A.6.6,0,0,1,95.252,275.962Z" transform="translate(-43.438 -227.532)" fill="#fe7ab6"/>
    <path id="Trazado_817177" data-name="Trazado 817177" d="M152.627,256.667h-3.405a.6.6,0,0,1,.6.6v18.1a.6.6,0,0,1-.6.6h3.405a.6.6,0,0,0,.6-.6v-18.1A.6.6,0,0,0,152.627,256.667Z" transform="translate(-100.814 -227.533)" fill="#fe5ca7"/>
    <g id="Grupo_1071009" data-name="Grupo 1071009" transform="translate(35.5 0)">
      <path id="Trazado_817178" data-name="Trazado 817178" d="M76.76,23.818a.851.851,0,0,1-.851-.851V2.667a.966.966,0,0,0-.965-.965H38.167a.966.966,0,0,0-.965.965V13.536a.851.851,0,1,1-1.7,0V2.667A2.67,2.67,0,0,1,38.167,0H74.944a2.67,2.67,0,0,1,2.667,2.667v20.3A.851.851,0,0,1,76.76,23.818Z" transform="translate(-35.5 0)"/>
      <path id="Trazado_817179" data-name="Trazado 817179" d="M74.944,190.647H38.167a2.67,2.67,0,0,1-2.667-2.667V150.351a.851.851,0,0,1,1.7,0v37.628a.966.966,0,0,0,.965.965H74.944a.966.966,0,0,0,.965-.965v-2.466a.851.851,0,1,1,1.7,0v2.466A2.67,2.67,0,0,1,74.944,190.647Z" transform="translate(-35.5 -132.531)"/>
      <path id="Línea_3865" data-name="Línea 3865" d="M33.211-5.8H-6.649A.851.851,0,0,1-7.5-6.649.851.851,0,0,1-6.649-7.5h39.86a.851.851,0,0,1,.851.851A.851.851,0,0,1,33.211-5.8Z" transform="translate(7.841 14.31)"/>
      <path id="Trazado_817180" data-name="Trazado 817180" d="M75.387,5.335a2.557,2.557,0,0,1-2.554-2.554V.851A.851.851,0,0,1,73.684,0H77.09a.851.851,0,0,1,.851.851v1.93A2.557,2.557,0,0,1,75.387,5.335ZM74.536,1.7V2.781a.851.851,0,0,0,1.7,0V1.7Z" transform="translate(-68.595 0)"/>
      <path id="Trazado_817181" data-name="Trazado 817181" d="M130.721,5.335a2.557,2.557,0,0,1-2.554-2.554V.851A.851.851,0,0,1,129.018,0h3.405a.851.851,0,0,1,.851.851v1.93A2.557,2.557,0,0,1,130.721,5.335ZM129.87,1.7V2.781a.851.851,0,0,0,1.7,0V1.7Z" transform="translate(-117.649 0)"/>
      <path id="Trazado_817182" data-name="Trazado 817182" d="M186.054,5.335A2.557,2.557,0,0,1,183.5,2.781V.851A.851.851,0,0,1,184.351,0h3.405a.851.851,0,0,1,.851.851v1.93A2.557,2.557,0,0,1,186.054,5.335ZM185.2,1.7V2.781a.851.851,0,0,0,1.7,0V1.7Z" transform="translate(-166.701 0)"/>
      <g id="Grupo_1071006" data-name="Grupo 1071006" transform="translate(28.717 33.043)">
        <path id="Línea_3866" data-name="Línea 3866" d="M-1.144-5.8H-6.649A.851.851,0,0,1-7.5-6.649.851.851,0,0,1-6.649-7.5h5.505a.851.851,0,0,1,.851.851A.851.851,0,0,1-1.144-5.8Z" transform="translate(7.5 7.5)"/>
        <path id="Línea_3867" data-name="Línea 3867" d="M6.972-5.8H-6.649A.851.851,0,0,1-7.5-6.649.851.851,0,0,1-6.649-7.5H6.972a.851.851,0,0,1,.851.851A.851.851,0,0,1,6.972-5.8Z" transform="translate(7.5 10.476)"/>
        <path id="Línea_3868" data-name="Línea 3868" d="M5.1-5.8H-6.649A.851.851,0,0,1-7.5-6.649.851.851,0,0,1-6.649-7.5H5.1a.851.851,0,0,1,.851.851A.851.851,0,0,1,5.1-5.8Z" transform="translate(7.5 13.453)"/>
      </g>
      <path id="Trazado_817183" data-name="Trazado 817183" d="M253.1,228.215H241.9a.851.851,0,0,1,0-1.7h11.2a.966.966,0,0,0,.965-.965v-25.88a.966.966,0,0,0-.965-.965H230.167a.966.966,0,0,0-.965.965v25.88a.966.966,0,0,0,.965.965h7.681a.851.851,0,1,1,0,1.7h-7.681a2.67,2.67,0,0,1-2.667-2.667v-25.88A2.67,2.67,0,0,1,230.167,197H253.1a2.67,2.67,0,0,1,2.667,2.667v25.88A2.67,2.67,0,0,1,253.1,228.215Z" transform="translate(-205.707 -174.639)"/>
      <path id="Trazado_817184" data-name="Trazado 817184" d="M260.915,384h15.437a2.781,2.781,0,1,1,0,5.562H260.915a2.781,2.781,0,1,1,0-5.562Zm15.437,3.859a1.078,1.078,0,1,0,0-2.157H260.915a1.078,1.078,0,1,0,0,2.157Z" transform="translate(-232.863 -340.413)"/>
      <path id="Línea_3869" data-name="Línea 3869" d="M19.319-5.8H-6.649A.851.851,0,0,1-7.5-6.649.851.851,0,0,1-6.649-7.5H19.319a.851.851,0,0,1,.851.851A.851.851,0,0,1,19.319-5.8Z" transform="translate(29.684 36.444)"/>
      <path id="Trazado_817185" data-name="Trazado 817185" d="M88.6,270.165H78.45a1.452,1.452,0,0,1-1.45-1.45v-18.1a1.452,1.452,0,0,1,1.45-1.45H88.6a1.452,1.452,0,0,1,1.45,1.45v18.1A1.452,1.452,0,0,1,88.6,270.165Zm-9.9-1.7h9.648V250.869H78.7Z" transform="translate(-72.289 -220.884)"/>
      <g id="Grupo_1071007" data-name="Grupo 1071007" transform="translate(7.928 32.028)">
        <path id="Línea_3870" data-name="Línea 3870" d="M-3.849-5.8h-2.8A.851.851,0,0,1-7.5-6.649.851.851,0,0,1-6.649-7.5h2.8A.851.851,0,0,1-3-6.649.851.851,0,0,1-3.849-5.8Z" transform="translate(7.5 7.5)"/>
        <path id="Línea_3871" data-name="Línea 3871" d="M-3.849-5.8h-2.8A.851.851,0,0,1-7.5-6.649.851.851,0,0,1-6.649-7.5h2.8A.851.851,0,0,1-3-6.649.851.851,0,0,1-3.849-5.8Z" transform="translate(7.5 18.548)"/>
        <path id="Línea_3872" data-name="Línea 3872" d="M-1.921-5.8H-6.649A.851.851,0,0,1-7.5-6.649.851.851,0,0,1-6.649-7.5h4.728a.851.851,0,0,1,.851.851A.851.851,0,0,1-1.921-5.8Z" transform="translate(7.5 10.262)"/>
        <path id="Línea_3873" data-name="Línea 3873" d="M-1.921-5.8H-6.649A.851.851,0,0,1-7.5-6.649.851.851,0,0,1-6.649-7.5h4.728a.851.851,0,0,1,.851.851A.851.851,0,0,1-1.921-5.8Z" transform="translate(7.5 13.024)"/>
      </g>
      <g id="Grupo_1071008" data-name="Grupo 1071008" transform="translate(5.221 12.997)">
        <path id="Trazado_817186" data-name="Trazado 817186" d="M84.281,121.7a2.784,2.784,0,0,1-2.781-2.781v-1.135a2.781,2.781,0,0,1,5.562,0v1.135A2.784,2.784,0,0,1,84.281,121.7Zm0-4.994a1.08,1.08,0,0,0-1.078,1.078v1.135a1.078,1.078,0,1,0,2.157,0v-1.135A1.08,1.08,0,0,0,84.281,116.7Z" transform="translate(-81.5 -114.943)"/>
        <path id="Línea_3874" data-name="Línea 3874" d="M-6.649-.8A.851.851,0,0,1-7.5-1.654V-6.649A.851.851,0,0,1-6.649-7.5a.851.851,0,0,1,.851.851v4.994A.851.851,0,0,1-6.649-.8Z" transform="translate(14.992 7.5)"/>
        <path id="Trazado_817187" data-name="Trazado 817187" d="M182.281,121.7a2.784,2.784,0,0,1-2.781-2.781v-1.135a2.781,2.781,0,0,1,5.562,0v1.135A2.784,2.784,0,0,1,182.281,121.7Zm0-4.994a1.08,1.08,0,0,0-1.078,1.078v1.135a1.078,1.078,0,0,0,2.157,0v-1.135A1.08,1.08,0,0,0,182.281,116.7Z" transform="translate(-168.376 -114.943)"/>
        <path id="Línea_3875" data-name="Línea 3875" d="M-6.649-.8A.851.851,0,0,1-7.5-1.654V-6.649A.851.851,0,0,1-6.649-7.5a.851.851,0,0,1,.851.851v4.994A.851.851,0,0,1-6.649-.8Z" transform="translate(26.115 7.5)"/>
        <path id="Trazado_817188" data-name="Trazado 817188" d="M280.281,121.7a2.784,2.784,0,0,1-2.781-2.781v-1.135a2.781,2.781,0,1,1,5.562,0v1.135A2.784,2.784,0,0,1,280.281,121.7Zm0-4.994a1.08,1.08,0,0,0-1.078,1.078v1.135a1.078,1.078,0,0,0,2.157,0v-1.135A1.08,1.08,0,0,0,280.281,116.7Z" transform="translate(-255.252 -114.943)"/>
        <path id="Línea_3876" data-name="Línea 3876" d="M-6.649-.8A.851.851,0,0,1-7.5-1.654V-6.649A.851.851,0,0,1-6.649-7.5a.851.851,0,0,1,.851.851v4.994A.851.851,0,0,1-6.649-.8Z" transform="translate(37.239 7.5)"/>
      </g>
    </g>
  </g>
</svg>
