<svg xmlns="http://www.w3.org/2000/svg" xmlns:xlink="http://www.w3.org/1999/xlink" width="110.389" height="110.389" viewBox="0 0 110.389 110.389">
  <defs>
    <filter id="Elipse_10850" x="0" y="0" width="110.389" height="110.389" filterUnits="userSpaceOnUse">
      <feOffset dy="3" input="SourceAlpha"/>
      <feGaussianBlur stdDeviation="3" result="blur"/>
      <feFlood flood-opacity="0.161"/>
      <feComposite operator="in" in2="blur"/>
      <feComposite in="SourceGraphic"/>
    </filter>
  </defs>
  <g id="Grupo_1084949" data-name="Grupo 1084949" transform="translate(-246.97 -2703.968)">
    <g transform="matrix(1, 0, 0, 1, 246.97, 2703.97)" filter="url(#Elipse_10850)">
      <circle id="Elipse_10850-2" data-name="Elipse 10850" cx="46.195" cy="46.195" r="46.195" transform="translate(9 6)" fill="#fff"/>
    </g>
    <g id="Grupo_1084920" data-name="Grupo 1084920" transform="translate(-568.026 2204.904)">
      <g id="Grupo_1070923" data-name="Grupo 1070923" transform="translate(842.518 520.849)">
        <g id="Grupo_1070195" data-name="Grupo 1070195" transform="translate(9.174 0)">
          <rect id="Rectángulo_374304" data-name="Rectángulo 374304" width="34.863" height="59.145" rx="3" fill="#9697f8"/>
        </g>
        <g id="piton_1_" data-name="piton (1)" transform="translate(-5.451 2.78)">
          <g id="Grupo_1084929" data-name="Grupo 1084929" transform="translate(7.785 7.534)">
            <g id="Grupo_1084928" data-name="Grupo 1084928" transform="translate(0 0)">
              <g id="Grupo_1084923" data-name="Grupo 1084923" transform="translate(0 10.46)">
                <g id="Grupo_1084922" data-name="Grupo 1084922">
                  <path id="Trazado_831877" data-name="Trazado 831877" d="M58.7,116.46H10.4v25.765l1.652,1.067H56.9l1.8-1.067Z" transform="translate(-10.399 -116.241)" fill="#acacac"/>
                  <path id="Trazado_831878" data-name="Trazado 831878" d="M452.124,140.676a6.145,6.145,0,0,1-1.041,2.978h4.572V114.448l-3.524-.219-2.075,11.236,2.082,10.19S452.124,140.469,452.124,140.676Z" transform="translate(-406.828 -114.229)" fill="#5a5a5a"/>
                  <path id="Trazado_831879" data-name="Trazado 831879" d="M10.4,378.5v3.441H58.7V379.21l-3-.709Z" transform="translate(-10.399 -352.517)" fill="#5a5a5a"/>
                </g>
                <path id="Trazado_831880" data-name="Trazado 831880" d="M461.54,378.5c0,.709.006,1.018.006,1.172a1.7,1.7,0,0,1-1.048,1.859h3.589V378.5Z" transform="translate(-416.243 -352.517)" fill="#5a5a5a"/>
                <path id="Trazado_831881" data-name="Trazado 831881" d="M175.936,418.931l-2.884.366h0a9.441,9.441,0,0,0-13.765,0h0l-2.913-.312,2.939-5.486h13.714Z" transform="translate(-142.021 -384.075)" fill="#5a5a5a"/>
                <path id="Trazado_831882" data-name="Trazado 831882" d="M142.841,470.941l-2.052.2h-24.3A.514.514,0,0,1,116,470.6v-2.569a.514.514,0,0,1,.492-.534h24.818l1.533.2a.514.514,0,0,1,.492.534v2.176A.514.514,0,0,1,142.841,470.941Z" transform="translate(-105.615 -432.765)" fill="#838383"/>
                <path id="Trazado_831883" data-name="Trazado 831883" d="M369.969,468.034V470.6a.515.515,0,0,1-.492.534H367.13c.571,0,.617-.552.617-.806V467.5h1.73A.515.515,0,0,1,369.969,468.034Z" transform="translate(-332.055 -432.765)" fill="#7a6d79"/>
              </g>
              <g id="Grupo_1084926" data-name="Grupo 1084926" transform="translate(2.993)">
                <g id="Grupo_1084924" data-name="Grupo 1084924" transform="translate(0 0.315)">
                  <path id="Trazado_831884" data-name="Trazado 831884" d="M42.316,44.094a1.475,1.475,0,0,1-1.475-1.475V17.06l.983-4.537A1.475,1.475,0,0,1,43.3,11.048l36.711.3c.814,0,2.158.66,2.158,1.086V40.572c0,1.2-1.46,3.231-2.275,3.231L79,44.094H71.6l-9.664-1.728-9.539,1.728H42.316Z" transform="translate(-40.841 -11.048)" fill="#ffd86e"/>
                </g>
                <path id="Trazado_831885" data-name="Trazado 831885" d="M82.764,9.676v4.173l-2.619.314-39.3.01V9.32a1.475,1.475,0,0,1,1.475-1.475H78.739l2.3.1A1.945,1.945,0,0,1,82.764,9.676Z" transform="translate(-40.841 -7.845)" fill="#acacac"/>
                <g id="Grupo_1084925" data-name="Grupo 1084925" transform="translate(37.898 0)">
                  <path id="Trazado_831886" data-name="Trazado 831886" d="M431.9,63.43l1.2.851V89.851a1.475,1.475,0,0,1-1.475,1.475h-2.675l.311-.184a1.7,1.7,0,0,0,.833-1.461v-25.4Z" transform="translate(-428.69 -57.965)" fill="#ffb509"/>
                  <path id="Trazado_831887" data-name="Trazado 831887" d="M430.694,9.32v4.842h-3.006V9.757a1.932,1.932,0,0,0-1.014-1.7l-.393-.212h2.938A1.475,1.475,0,0,1,430.694,9.32Z" transform="translate(-426.281 -7.845)" fill="#938d8d"/>
                </g>
              </g>
              <g id="Grupo_1084927" data-name="Grupo 1084927" transform="translate(14.546 22.378)">
                <path id="Trazado_831888" data-name="Trazado 831888" d="M177.144,243.472v2.66l-4.061.292-1.015-.15-4.188-.619-5.078.77H158.34v-3.042a.372.372,0,0,1,.323-.368l1.082-.139a.366.366,0,0,0,.306-.254,8.12,8.12,0,0,1,.6-1.445.369.369,0,0,0-.036-.4l-.668-.863a.372.372,0,0,1,.031-.489l2.349-2.349a.371.371,0,0,1,.489-.031l.863.667a.366.366,0,0,0,.4.036,8.255,8.255,0,0,1,1.445-.6.368.368,0,0,0,.255-.306l.139-1.082a.371.371,0,0,1,.368-.324H169.6a.37.37,0,0,1,.368.324l.139,1.082a.368.368,0,0,0,.255.306,10.2,10.2,0,0,1,1.542.812.366.366,0,0,0,.4-.036l.832-.442a.371.371,0,0,1,.489.031l1.819,1.961a.372.372,0,0,1,.031.489l-.573.749c-.088.113-.132.2-.065.329.007.012.042.092.048.1a12.978,12.978,0,0,1,.728,1.775.366.366,0,0,0,.306.254l.9-.073A.372.372,0,0,1,177.144,243.472Z" transform="translate(-158.34 -235.44)" fill="#c0c0fb"/>
                <path id="Trazado_831889" data-name="Trazado 831889" d="M287.811,257.406v3.042h-4.462l-1.015-.15,1.119-2.133a11.55,11.55,0,0,0-2.823-6.989,8.254,8.254,0,0,1,1.445.6.366.366,0,0,0,.4-.036l.863-.667a.371.371,0,0,1,.489.031l2.349,2.349a.372.372,0,0,1,.031.489l-.668.863a.369.369,0,0,0-.036.4c.007.012.014.025.02.037a8.182,8.182,0,0,1,.58,1.408.366.366,0,0,0,.306.254l1.082.139A.372.372,0,0,1,287.811,257.406Z" transform="translate(-268.606 -249.465)" fill="#9697f8"/>
                <path id="Trazado_831890" data-name="Trazado 831890" d="M202.065,285.681a5.321,5.321,0,1,1,10.28,0Z" transform="translate(-197.603 -274.698)" fill="#838383"/>
              </g>
            </g>
          </g>
          <g id="Grupo_1084937" data-name="Grupo 1084937" transform="translate(7.5 7.5)">
            <path id="Trazado_831891" data-name="Trazado 831891" d="M126.659,473.807h16.16a.492.492,0,0,0,.492-.492v-2.364a.492.492,0,0,0-.492-.492H116.5a.491.491,0,0,0-.492.492v2.364a.491.491,0,0,0,.492.492h6.716" transform="translate(-105.341 -424.94)" fill="none" stroke="#000" stroke-linecap="round" stroke-linejoin="round" stroke-miterlimit="10" stroke-width="1.2"/>
            <path id="Trazado_831892" data-name="Trazado 831892" d="M10.5,114.46H8.483a.984.984,0,0,0-.983.983v27.531a.984.984,0,0,0,.983.983h46.9a.984.984,0,0,0,.983-.983V115.443a.984.984,0,0,0-.983-.983h-2" transform="translate(-7.5 -103.943)" fill="none" stroke="#000" stroke-linecap="round" stroke-linejoin="round" stroke-miterlimit="10" stroke-width="1.2"/>
            <path id="Trazado_831893" data-name="Trazado 831893" d="M40.84,21.853V9.1a1.6,1.6,0,0,1,1.6-1.6h39.1a1.6,1.6,0,0,1,1.6,1.6V39.291a1.6,1.6,0,0,1-1.6,1.6h-39.1a1.6,1.6,0,0,1-1.6-1.6v-14" transform="translate(-37.562 -7.5)" fill="none" stroke="#000" stroke-linecap="round" stroke-linejoin="round" stroke-miterlimit="10" stroke-width="1.2"/>
            <line id="Línea_4144" data-name="Línea 4144" x1="32.705" transform="translate(3.545 6.258)" fill="none" stroke="#000" stroke-linecap="round" stroke-linejoin="round" stroke-miterlimit="10" stroke-width="1.2"/>
            <line id="Línea_4145" data-name="Línea 4145" x1="5.631" transform="translate(39.691 6.258)" fill="none" stroke="#000" stroke-linecap="round" stroke-linejoin="round" stroke-miterlimit="10" stroke-width="1.2"/>
            <line id="Línea_4146" data-name="Línea 4146" transform="translate(13.387 3.129)" fill="none" stroke="#000" stroke-linecap="round" stroke-linejoin="round" stroke-miterlimit="10" stroke-width="1.2"/>
            <line id="Línea_4147" data-name="Línea 4147" transform="translate(10.032 3.129)" fill="none" stroke="#000" stroke-linecap="round" stroke-linejoin="round" stroke-miterlimit="10" stroke-width="1.2"/>
            <line id="Línea_4148" data-name="Línea 4148" transform="translate(6.677 3.129)" fill="none" stroke="#000" stroke-linecap="round" stroke-linejoin="round" stroke-miterlimit="10" stroke-width="1.2"/>
            <line id="Línea_4149" data-name="Línea 4149" x1="2.804" y1="5.234" transform="translate(31.396 40.163)" fill="none" stroke="#000" stroke-linecap="round" stroke-linejoin="round" stroke-miterlimit="10" stroke-width="1.2"/>
            <path id="Trazado_831896" data-name="Trazado 831896" d="M186.378,443.109a9.442,9.442,0,0,1,13.673-.019" transform="translate(-168.79 -397.628)" fill="none" stroke="#000" stroke-linecap="round" stroke-linejoin="round" stroke-miterlimit="10" stroke-width="1.2"/>
            <line id="Línea_4150" data-name="Línea 4150" x1="2.833" y2="5.288" transform="translate(14.638 40.163)" fill="none" stroke="#000" stroke-linecap="round" stroke-linejoin="round" stroke-miterlimit="10" stroke-width="1.2"/>
            <line id="Línea_4151" data-name="Línea 4151" x1="13.931" transform="translate(34.837 36.478)" fill="none" stroke="#000" stroke-linecap="round" stroke-linejoin="round" stroke-miterlimit="10" stroke-width="1.2"/>
            <line id="Línea_4152" data-name="Línea 4152" x1="31.297" transform="translate(0.098 36.478)" fill="none" stroke="#000" stroke-linecap="round" stroke-linejoin="round" stroke-miterlimit="10" stroke-width="1.2"/>
            <g id="Grupo_1084933" data-name="Grupo 1084933" transform="translate(14.832 22.364)">
              <g id="Grupo_1084932" data-name="Grupo 1084932">
                <g id="Grupo_1084931" data-name="Grupo 1084931">
                  <path id="Trazado_831897" data-name="Trazado 831897" d="M177.549,245.628v-2.786a.311.311,0,0,0-.272-.309l-1.172-.15a.313.313,0,0,1-.259-.222,8.2,8.2,0,0,0-.621-1.5.313.313,0,0,1,.026-.34l.722-.935a.311.311,0,0,0-.026-.41l-2.423-2.423a.311.311,0,0,0-.41-.026l-.935.722a.313.313,0,0,1-.34.026,8.206,8.206,0,0,0-1.5-.621.313.313,0,0,1-.222-.259l-.15-1.172a.311.311,0,0,0-.309-.272h-3.426a.311.311,0,0,0-.309.272l-.15,1.172a.313.313,0,0,1-.222.259,8.2,8.2,0,0,0-1.5.621.313.313,0,0,1-.34-.026l-.935-.722a.311.311,0,0,0-.41.026l-2.423,2.423a.311.311,0,0,0-.026.41l.722.935a.313.313,0,0,1,.026.34,8.206,8.206,0,0,0-.621,1.5.313.313,0,0,1-.259.222l-1.172.15a.311.311,0,0,0-.272.309v2.85" transform="translate(-158.346 -234.954)" fill="none" stroke="#000" stroke-linecap="round" stroke-linejoin="round" stroke-miterlimit="10" stroke-width="1.2"/>
                  <path id="Trazado_831898" data-name="Trazado 831898" d="M202.006,284.951a5.321,5.321,0,1,1,10.412-.065" transform="translate(-197.603 -274.212)" fill="none" stroke="#000" stroke-linecap="round" stroke-linejoin="round" stroke-miterlimit="10" stroke-width="1.2"/>
                </g>
              </g>
            </g>
            <g id="Grupo_1084939" data-name="Grupo 1084939" transform="translate(7.542 10.285)">
              <path id="Trazado_831847" data-name="Trazado 831847" d="M35.815,133.185a.741.741,0,0,0,1.049-1.049l-1.8-1.8,1.8-1.8a.741.741,0,1,0-1.049-1.049l-2.324,2.324a.741.741,0,0,0,0,1.049Zm0,0" transform="translate(-33.273 -127.27)"/>
              <path id="Trazado_831848" data-name="Trazado 831848" d="M114.948,130.333l-1.8,1.8a.741.741,0,1,0,1.049,1.049l2.325-2.325a.741.741,0,0,0,0-1.048l-2.325-2.325a.741.741,0,0,0-1.048,1.049Zm0,0" transform="translate(-105.049 -127.266)"/>
              <path id="Trazado_831849" data-name="Trazado 831849" d="M76.888,133.346a.741.741,0,0,0,.961-.419l1.826-4.649a.741.741,0,1,0-1.38-.542l-1.827,4.649A.742.742,0,0,0,76.888,133.346Zm0,0" transform="translate(-72.149 -127.265)"/>
            </g>
            <g id="Grupo_1084941" data-name="Grupo 1084941" transform="translate(24.556 9.504)">
              <g id="Grupo_1084943" data-name="Grupo 1084943" transform="translate(0 7.233)">
                <path id="Trazado_831852" data-name="Trazado 831852" d="M38.071,250.933h1.6a.556.556,0,0,0,0-1.112h-1.6a.556.556,0,0,0,0,1.112Zm0,0" transform="translate(-37.516 -249.821)"/>
                <path id="Trazado_831853" data-name="Trazado 831853" d="M177.4,249.82a.556.556,0,0,0,0,1.112h.971a.556.556,0,1,0,0-1.112Zm0,0" transform="translate(-166.51 -249.82)"/>
                <path id="Trazado_831854" data-name="Trazado 831854" d="M91.2,250.377a.556.556,0,0,0-.556-.556H85.868a.556.556,0,0,0,0,1.112H90.64A.556.556,0,0,0,91.2,250.377Zm0,0" transform="translate(-81.766 -249.821)"/>
                <path id="Trazado_831855" data-name="Trazado 831855" d="M213.7,250.377a.556.556,0,0,0,.556.556h1.82a.556.556,0,1,0,0-1.112h-1.82A.556.556,0,0,0,213.7,250.377Zm0,0" transform="translate(-200.631 -249.821)"/>
              </g>
              <g id="Grupo_1084942" data-name="Grupo 1084942" transform="translate(3.127)">
                <path id="Trazado_831899" data-name="Trazado 831899" d="M220.8,150.39h11.712a.556.556,0,0,0,0-1.112H220.8a.556.556,0,1,0,0,1.112Zm0,0" transform="translate(-220.246 -144.588)"/>
                <path id="Trazado_831900" data-name="Trazado 831900" d="M220.8,150.39h11.712a.556.556,0,0,0,0-1.112H220.8a.556.556,0,1,0,0,1.112Zm0,0" transform="translate(-220.246 -149.278)"/>
                <path id="Trazado_831901" data-name="Trazado 831901" d="M220.8,150.39h11.712a.556.556,0,0,0,0-1.112H220.8a.556.556,0,1,0,0,1.112Zm0,0" transform="translate(-220.246 -146.933)"/>
              </g>
            </g>
          </g>
        </g>
      </g>
      <rect id="Rectángulo_375016" data-name="Rectángulo 375016" width="58" height="61" transform="translate(840.306 520.096)" fill="none"/>
    </g>
  </g>
</svg>
