<svg xmlns="http://www.w3.org/2000/svg" xmlns:xlink="http://www.w3.org/1999/xlink" width="110.389" height="110.389" viewBox="0 0 110.389 110.389">
  <defs>
    <filter id="Elipse_10564" x="0" y="0" width="110.389" height="110.389" filterUnits="userSpaceOnUse">
      <feOffset dy="3" input="SourceAlpha"/>
      <feGaussianBlur stdDeviation="3" result="blur"/>
      <feFlood flood-opacity="0.161"/>
      <feComposite operator="in" in2="blur"/>
      <feComposite in="SourceGraphic"/>
    </filter>
  </defs>
  <g id="Grupo_1088418" data-name="Grupo 1088418" transform="translate(-745.617 -2703.968)">
    <g transform="matrix(1, 0, 0, 1, 745.62, 2703.97)" filter="url(#Elipse_10564)">
      <circle id="Elipse_10564-2" data-name="Elipse 10564" cx="46.195" cy="46.195" r="46.195" transform="translate(9 6)" fill="#fff"/>
    </g>
    <g id="Grupo_1070750" data-name="Grupo 1070750" transform="translate(551.31 725.318)">
      <g id="Grupo_1070195" data-name="Grupo 1070195" transform="translate(228.663 1996.922)">
        <rect id="Rectángulo_374304" data-name="Rectángulo 374304" width="38.641" height="65.553" rx="3" transform="translate(0 0)" fill="#9697f8"/>
      </g>
      <g id="analitica-" transform="translate(220.387 2006.067)">
        <path id="Trazado_816863" data-name="Trazado 816863" d="M17.932,56.462H14.407A4.407,4.407,0,0,1,10,52.055V14.407A4.407,4.407,0,0,1,14.407,10H59.8A4.407,4.407,0,0,1,64.2,14.407V52.055A4.407,4.407,0,0,1,59.8,56.462H17.932Z" transform="translate(-8.898 -8.898)" fill="#fff"/>
        <path id="Trazado_816864" data-name="Trazado 816864" d="M59.8,10H14.407A4.407,4.407,0,0,0,10,14.407v3.526H64.2V14.407A4.407,4.407,0,0,0,59.8,10Z" transform="translate(-8.898 -8.898)" fill="#ff5a5a"/>
        <path id="Trazado_816865" data-name="Trazado 816865" d="M21,82H73.336" transform="translate(-18.69 -72.966)" fill="#231f20"/>
        <rect id="Rectángulo_375011" data-name="Rectángulo 375011" width="7.395" height="12.017" transform="translate(5.546 43.467)" fill="#a5dc69"/>
        <rect id="Rectángulo_375012" data-name="Rectángulo 375012" width="6.471" height="15.714" transform="translate(31.429 39.77)" fill="#78d2fa"/>
        <rect id="Rectángulo_375013" data-name="Rectángulo 375013" width="7.051" height="24.301" transform="translate(18.509 31.006)" fill="#f5c86e"/>
        <rect id="Rectángulo_375014" data-name="Rectángulo 375014" width="7.051" height="25.946" transform="translate(43.188 29.361)" fill="#ff5a5a"/>
        <circle id="Elipse_9603" data-name="Elipse 9603" cx="2.864" cy="2.864" r="2.864" transform="translate(18.55 16.079)" fill="#f5c86e"/>
        <circle id="Elipse_9604" data-name="Elipse 9604" cx="2.864" cy="2.864" r="2.864" transform="translate(31.407 29.196)" fill="#78d2fa"/>
        <circle id="Elipse_9605" data-name="Elipse 9605" cx="2.864" cy="2.864" r="2.864" transform="translate(43.849 16.079)" fill="#ff5a5a"/>
        <circle id="Elipse_9606" data-name="Elipse 9606" cx="2.864" cy="2.864" r="2.864" transform="translate(6.758 28.141)" fill="#a5dc69"/>
        <path id="Trazado_816866" data-name="Trazado 816866" d="M52.561,48.531a3.851,3.851,0,0,0,3.847-3.847V5.509A5.515,5.515,0,0,0,50.9,0H5.509A5.515,5.515,0,0,0,0,5.509V44.684a3.851,3.851,0,0,0,3.847,3.847H5.068V54.2H1.1a1.1,1.1,0,0,0,0,2.2h54.2a1.1,1.1,0,0,0,0-2.2H51.34V48.531ZM5.509,2.2H50.9A3.309,3.309,0,0,1,54.2,5.509V7.932H2.314c-.037,0-.074,0-.111.006V5.509A3.309,3.309,0,0,1,5.509,2.2Zm1.763,52V44.289h4.848V54.2Zm12.339,0v-22.1h4.848V54.2Zm12.339,0V41.425H36.8V54.2Zm12.339,0V42.334a1.1,1.1,0,1,0-2.2,0V54.2H39V40.323a1.1,1.1,0,0,0-1.1-1.1H30.848a1.1,1.1,0,0,0-1.1,1.1V54.2H26.662v-23.2a1.1,1.1,0,0,0-1.1-1.1H18.509a1.1,1.1,0,0,0-1.1,1.1V54.2H14.322V43.188a1.1,1.1,0,0,0-1.1-1.1H6.17a1.1,1.1,0,0,0-1.1,1.1v3.14H3.847A1.645,1.645,0,0,1,2.2,44.684V10.13c.036,0,.073.006.111.006H54.2V44.684a1.645,1.645,0,0,1-1.643,1.644H51.34V29.361a1.1,1.1,0,0,0-1.1-1.1H43.188a1.1,1.1,0,0,0-1.1,1.1v5.564a1.1,1.1,0,1,0,2.2,0V30.463h4.848V54.2Z"/>
        <path id="Trazado_816867" data-name="Trazado 816867" d="M213.167,38.2h24.892a1.1,1.1,0,1,0,0-2.2H213.167a1.1,1.1,0,1,0,0,2.2Z" transform="translate(-188.701 -32.034)"/>
        <path id="Trazado_816868" data-name="Trazado 816868" d="M95.1,38.2a1.1,1.1,0,1,0-.779-.323A1.11,1.11,0,0,0,95.1,38.2Z" transform="translate(-83.644 -32.034)"/>
        <path id="Trazado_816869" data-name="Trazado 816869" d="M55.1,38.2a1.1,1.1,0,1,0-.779-.323A1.11,1.11,0,0,0,55.1,38.2Z" transform="translate(-48.051 -32.034)"/>
        <path id="Trazado_816870" data-name="Trazado 816870" d="M135.1,38.2a1.1,1.1,0,1,0-.779-.323A1.11,1.11,0,0,0,135.1,38.2Z" transform="translate(-119.237 -32.034)"/>
        <path id="Trazado_816871" data-name="Trazado 816871" d="M383.1,342.64a1.1,1.1,0,1,0,.779.323A1.106,1.106,0,0,0,383.1,342.64Z" transform="translate(-339.914 -304.89)"/>
        <path id="Trazado_816872" data-name="Trazado 816872" d="M92.393,143.871a3.972,3.972,0,1,0-3.209-1.64l-7.318,7.318a3.957,3.957,0,0,0-3.658-.089l-7.641-7.641a3.966,3.966,0,1,0-6.844.17L57.216,148.5a3.969,3.969,0,1,0,1.558,1.558l6.584-6.584a3.957,3.957,0,0,0,3.65-.093l7.567,7.567a3.966,3.966,0,1,0,6.849.164l7.514-7.514A3.94,3.94,0,0,0,92.393,143.871Zm0-5.729a1.763,1.763,0,1,1-1.763,1.763A1.765,1.765,0,0,1,92.393,138.142ZM55.3,153.731a1.763,1.763,0,1,1,1.763-1.763A1.765,1.765,0,0,1,55.3,153.731Zm11.792-12.063a1.763,1.763,0,1,1,1.763-1.763A1.765,1.765,0,0,1,67.095,141.668Zm12.857,13.117a1.763,1.763,0,1,1,1.763-1.763A1.765,1.765,0,0,1,79.952,154.785Z" transform="translate(-45.68 -120.962)"/>
        <path id="Trazado_816873" data-name="Trazado 816873" d="M132.362,128.223a1.1,1.1,0,1,0-.78-.323A1.112,1.112,0,0,0,132.362,128.223Z" transform="translate(-116.799 -112.136)"/>
        <path id="Trazado_816874" data-name="Trazado 816874" d="M47.1,128.224H52.39a1.1,1.1,0,0,0,0-2.2H47.1a1.1,1.1,0,0,0,0,2.2Z" transform="translate(-40.932 -112.137)"/>
        <path id="Trazado_816875" data-name="Trazado 816875" d="M52.39,176.224a1.1,1.1,0,1,0,0-2.2H47.1a1.1,1.1,0,1,0,0,2.2Z" transform="translate(-40.932 -154.849)"/>
      </g>
    </g>
  </g>
</svg>
