<svg xmlns="http://www.w3.org/2000/svg" xmlns:xlink="http://www.w3.org/1999/xlink" width="400" height="214.3" viewBox="0 0 400 214.3">
  <defs>
    <linearGradient id="linear-gradient" x1="0.5" x2="0.5" y2="1" gradientUnits="objectBoundingBox">
      <stop offset="0" stop-color="#e1eefd"/>
      <stop offset="1" stop-color="#a96dff"/>
    </linearGradient>
  </defs>
  <g id="Grupo_1087181" data-name="Grupo 1087181" transform="translate(473 11311.518)">
    <path id="Trazado_831903" data-name="Trazado 831903" d="M0,0H400V134.556H0Z" transform="translate(-473 -11263.404)" fill="#eaeafe"/>
    <rect id="Rectángulo_383340" data-name="Rectángulo 383340" width="275.398" height="169" rx="8" transform="translate(-410.699 -11297.849)" fill="#ffea9c"/>
    <g id="Grupo_1087181-2" data-name="Grupo 1087181" transform="translate(-403.892 -11311.518)">
      <g id="Grupo_1087176" data-name="Grupo 1087176" transform="translate(0 11.349)">
        <path id="Trazado_832620" data-name="Trazado 832620" d="M19.836,296.763c.409,9.406,1.023,54.389,1.226,56.025s9.2.408,9.2.408l-1.431-46.823Z" transform="translate(-8.579 -161.983)" fill="#ba9066"/>
        <path id="Trazado_832621" data-name="Trazado 832621" d="M41.736,163.048c-15.052,5.453-33.328,13.9-37.623,17.584S-.795,198.009,3.09,204.963s29.853,41.507,35.579,48.46,16.153,21.468,18.4,23.922,13.291,10.633,32.716,0,155.395-76.472,167.05-85.469c6.134-5.316,7.565-10.836-1.84-22.7s-38.647-50.5-45.6-56.638-14.72-7.361-27.807-1.635S69.952,152.824,41.736,163.048" transform="translate(-0.218 -79.998)" fill="#fff"/>
        <path id="Trazado_832622" data-name="Trazado 832622" d="M71.326,282.732h0c-9.45,0-14.175-4.858-14.683-5.412-1.071-1.168-3.963-5.024-7.311-9.489-3.788-5.052-8.082-10.777-11.1-14.444-5.5-6.686-31.69-41.494-35.607-48.5-3.942-7.055-3.333-20.9,1.086-24.686,4.2-3.6,22.177-12.007,37.711-17.635,30.923-11.2,127.035-46.532,139.839-52.133,5.718-2.5,10.524-3.718,14.691-3.718,4.978,0,9.242,1.716,13.417,5.4,5.3,4.68,23.785,28.54,36.015,44.328,3.949,5.1,7.36,9.5,9.616,12.346,9.648,12.165,7.842,17.853,1.8,23.086-7.545,5.825-66.02,34.9-113.006,58.261-25.322,12.59-47.19,23.464-54.093,27.242-6.49,3.553-12.673,5.355-18.378,5.355M195.951,107.281c-4.088,0-8.819,1.2-14.464,3.67-12.815,5.605-108.945,40.94-139.873,52.146-15.483,5.61-33.373,13.967-37.535,17.533s-4.721,17.247-.96,23.977c3.906,6.989,30.052,41.741,35.55,48.418C41.7,256.7,46,262.434,49.787,267.491c3.339,4.453,6.223,8.3,7.274,9.446.49.535,5.057,5.228,14.265,5.228,5.608,0,11.7-1.778,18.105-5.285,6.912-3.784,28.786-14.66,54.112-27.252,46.964-23.351,105.412-52.412,112.9-58.192,5.923-5.133,7.518-10.432-1.889-22.295-2.259-2.848-5.67-7.252-9.62-12.351-12.217-15.771-30.68-39.606-35.943-44.25-4.065-3.588-8.208-5.259-13.041-5.259" transform="translate(0 -79.781)"/>
        <path id="Trazado_832623" data-name="Trazado 832623" d="M82.558,276.778c-5.423-1.97-8.5-3.792-10.026-2.4s-10.874,12.806-14.278,17.525-5.111,7.31-3.447,9,17.214,9.963,23.543,13.34a127.931,127.931,0,0,0,18.423,7.718c2.337.612,2.955,1.278,6.17-5.245s6.679-14.951,6.679-14.951Z" transform="translate(-23.427 -152.089)" fill="#ffa66b"/>
        <path id="Trazado_832624" data-name="Trazado 832624" d="M97.316,276.669c-4.439,1.265-13.957,4.519-14.7,4.808s-3.968,5.772-3.771,7.113,5.582,27.451,6.288,29.48a4.8,4.8,0,0,0,6.335,2.912c3.319-1.118,31.322-8.792,33.409-9.74s.205-7.554-1.585-13.257-18.324-22.174-25.977-21.315" transform="translate(-34.099 -153.278)" fill="#ffe7b8"/>
        <path id="Trazado_832625" data-name="Trazado 832625" d="M78.715,292.34c1.214-.221,6.486-.453,6.464-2.5-.022-1.98-2.108-3.16-2.495-4.961-.077-.358-.624-.207-.547.15.276,1.286,1.506,2.453,2.116,3.6a2.147,2.147,0,0,1,.338,1.309c-.1.566-1.4.9-1.813,1.029a35.882,35.882,0,0,1-4.215.823c-.359.066-.207.612.151.548" transform="translate(-33.892 -156.754)"/>
        <path id="Trazado_832626" data-name="Trazado 832626" d="M93.456,298.673a18.837,18.837,0,0,0,2.694-.839c1.085-.368,2.219-.609,3.31-.97a57.786,57.786,0,0,1,6.825-2.1c.359-.072.207-.618-.15-.547-2.184.433-4.235,1.3-6.36,1.943a60.266,60.266,0,0,1-6.47,1.967c-.36.065-.207.612.151.548" transform="translate(-40.268 -160.878)"/>
        <path id="Trazado_832627" data-name="Trazado 832627" d="M89.478,304.331c1.287-.919,2.811-.689,4.279-.957a31.679,31.679,0,0,0,5.335-1.819c1.771-.667,3.542-1.32,5.365-1.833,1.787-.5,3.639-.666,5.449-1.059.358-.078.207-.625-.15-.548-1.813.393-3.653.587-5.45,1.059a60.282,60.282,0,0,0-5.843,2.013c-1.761.664-3.705,1.671-5.62,1.732a6.466,6.466,0,0,0-3.651.92c-.295.211-.012.7.287.49" transform="translate(-38.524 -162.564)"/>
        <path id="Trazado_832628" data-name="Trazado 832628" d="M95.662,318.54c1.819-1.184,4.028-1.3,6.073-1.862,1.1-.3,2.141-.716,3.21-1.093a12.94,12.94,0,0,0,2.123-.624c.321-.176.035-.667-.286-.49a21.065,21.065,0,0,1-2.9.9,27.181,27.181,0,0,1-3.1.969c-1.86.451-3.765.646-5.4,1.713-.306.2-.022.689.286.49" transform="translate(-41.196 -169.626)"/>
        <path id="Trazado_832629" data-name="Trazado 832629" d="M95.529,321.758c3.878-.216,7.537-1.691,11.227-2.779,2.091-.616,4.181-1.23,6.25-1.919a30.82,30.82,0,0,0,4.973-1.689c.323-.173.036-.662-.286-.49a31.322,31.322,0,0,1-4.838,1.632c-1.891.644-3.811,1.2-5.727,1.765-3.8,1.118-7.609,2.691-11.6,2.913-.364.02-.366.588,0,.567" transform="translate(-41.2 -169.804)"/>
        <path id="Trazado_832630" data-name="Trazado 832630" d="M98.975,333.145c1.637-.381,3.25-.8,4.854-1.3a9.169,9.169,0,0,0,2.862-1.086c.288-.218.005-.711-.286-.49a9.92,9.92,0,0,1-3.05,1.13c-1.5.466-3.005.844-4.531,1.2-.356.083-.2.63.151.548" transform="translate(-42.656 -176.451)"/>
        <path id="Trazado_832631" data-name="Trazado 832631" d="M40.995,81.306c-3.168,1.128-7.974,4.294-7.054,9.968s9.354,38.492,13.188,50.606,3.681,13.648,9.2,20.09,19.016,27.45,25.457,32.357,6.595,5.214,16.255,1.994,50.3-23.769,58.274-27.45,14.262-6.594,11.961-11.654-6.287-9.355-13.035-16.256-19.936-19.629-21.009-21.008c-1.227-9.355-5.214-25.3-6.134-31.437s-3.679-19.936-4.754-24.077-3.527-6.747-12.421-4.14S50.042,78.086,40.995,81.306" transform="translate(-14.63 -59.253)" fill="#d5f0fd"/>
        <path id="Trazado_832632" data-name="Trazado 832632" d="M42.722,99.057c-2.71,2.373-2,5.762-1.425,8.982.818,4.608,1.988,9.153,3.158,13.682C47.138,132.107,50,142.448,52.824,152.8c.928,3.4,1.871,6.792,2.752,10.2a23.209,23.209,0,0,0,3.615,8.109c5.524,7.415,11.055,14.828,16.7,22.15a111.472,111.472,0,0,0,11.683,13.157,15.392,15.392,0,0,0,3.338,2.8,6.273,6.273,0,0,0,4.13.115c4.616-1.014,9.025-3.363,13.308-5.327q7.188-3.3,14.329-6.688,13.056-6.159,26.049-12.451c3.972-1.929,7.931-3.88,11.907-5.8a35.536,35.536,0,0,0,7.705-4.47c1.125-.954,1.942-2.285,1.186-3.712-.171-.323-.661-.037-.49.286,1.406,2.652-3.933,4.982-5.615,5.87-3.337,1.76-6.79,3.3-10.17,4.981-3.757,1.865-7.537,3.681-11.316,5.5q-15.377,7.394-30.845,14.6c-4.295,1.991-8.59,4.072-13.038,5.7-1.892.693-4.24,1.6-6.287,1.111-1.345-.322-2.411-1.632-3.376-2.529-8.3-7.713-14.857-17.1-21.637-26.125q-3.546-4.721-7.075-9.456a22.824,22.824,0,0,1-3.619-8.211c-2.27-8.753-4.746-17.455-7.109-26.184-1.824-6.743-3.657-13.488-5.319-20.273a92.411,92.411,0,0,1-2.188-10.864c-.282-2.331-.15-4.232,1.677-5.831.276-.242-.127-.641-.4-.4" transform="translate(-17.631 -76.437)"/>
        <path id="Trazado_832633" data-name="Trazado 832633" d="M131.893,295.178v4.293a.284.284,0,0,0,.567,0v-4.293a.284.284,0,0,0-.567,0" transform="translate(-57.047 -161.178)"/>
        <path id="Trazado_832634" data-name="Trazado 832634" d="M68.923,202.165a17.068,17.068,0,0,1,1.423-2.156c.542-.779,1.028-.7,1.91-.94a48.539,48.539,0,0,0,5.375-2.322c3.829-1.569,7.79-2.748,11.6-4.391,8.456-3.647,16.795-7.561,25.321-11.047,9.25-3.782,18.474-7.543,27.561-11.717,1.6-.733,3.187-1.474,4.755-2.265.581-.293,1.628-.641,2-1.226.2-.31-.295-.594-.49-.287-.39.612-1.981,1.117-2.632,1.437-1.9.931-3.818,1.808-5.74,2.68q-7.031,3.191-14.14,6.206c-5.14,2.193-10.376,4.132-15.52,6.315-8.439,3.582-16.687,7.67-25.22,11.024-3.233,1.271-6.6,2.166-9.742,3.665-.805.385-1.608.764-2.439,1.092a22.527,22.527,0,0,1-2.5.6c-.3.083-.445.656-.587.887-.454.743-1.033,1.368-1.422,2.156-.162.327.328.615.49.286" transform="translate(-29.585 -105.287)"/>
        <path id="Trazado_832635" data-name="Trazado 832635" d="M90.044,205.167c5.476-2.738,55.819-23.155,61.034-25.3s7.053-3.067,10.273.153,15.182,15.8,17.329,18.4,7.668,5.521.153,10.275-49.686,23.617-55.053,26.07-9.2,5.827-13.8.767-16.255-21.469-19.475-25.3-2.3-4.141-.461-5.061" transform="translate(-38.224 -110.579)" fill="#afd1df"/>
        <path id="Trazado_832636" data-name="Trazado 832636" d="M147.343,250.934a2.611,2.611,0,0,1-1.873-.681c-.279-.266-.552-.521-.812-.766-1.535-1.437-2.55-2.386-2.43-3.208a1.057,1.057,0,0,1,.653-.779c2.15-1.075,7.187-3.307,12.059-5.465,4.468-1.98,8.687-3.85,10.536-4.759,6.722-3.308,9.14-4.456,10.505-3.56l.055.036c2.2,1.445,3.532,2.317,3.5,3.327-.017.591-.488,1.121-1.528,1.721-2.293,1.323-10.945,5.318-16.671,7.962l-2.264,1.047c-1.4.647-2.8,1.393-4.148,2.114-2.9,1.549-5.643,3.012-7.585,3.012M174.915,232c-1.424,0-4.129,1.3-9.187,3.788-1.859.915-6.084,2.787-10.557,4.769-4.866,2.156-9.9,4.385-12.036,5.455-.317.158-.338.3-.344.352-.078.529,1.055,1.59,2.255,2.714.262.245.536.5.816.769a2.04,2.04,0,0,0,1.481.524c1.8,0,4.481-1.431,7.318-2.945,1.359-.726,2.764-1.475,4.177-2.129l2.264-1.046c5.716-2.639,14.354-6.629,16.625-7.938.827-.477,1.234-.885,1.244-1.247.02-.692-1.351-1.591-3.247-2.835l-.055-.036a1.338,1.338,0,0,0-.755-.193" transform="translate(-61.514 -133.721)"/>
        <path id="Trazado_832637" data-name="Trazado 832637" d="M130.962,266.393c-1.3,0-1.975-.869-2.686-1.789a3.47,3.47,0,0,1-1-2.685,1.545,1.545,0,0,1,.872-1.038,31.462,31.462,0,0,1,4.264-1.782,2.161,2.161,0,0,1,.613-.095c.906,0,1.45.654,2.139,1.483.142.171.292.351.454.537l.042.048c.6.68,1.213,1.384,1.036,2.212-.163.762-.974,1.452-2.552,2.172a8.128,8.128,0,0,1-3.177.938m2.058-6.822a1.6,1.6,0,0,0-.452.072,30.01,30.01,0,0,0-4.171,1.745.974.974,0,0,0-.573.657,3.046,3.046,0,0,0,.9,2.213c.774,1,1.259,1.569,2.238,1.569a7.777,7.777,0,0,0,2.941-.886c1.363-.622,2.113-1.219,2.233-1.775s-.38-1.118-.907-1.719l-.043-.048c-.166-.19-.318-.373-.464-.548-.617-.743-1.063-1.279-1.7-1.279" transform="translate(-55.031 -145.65)"/>
        <path id="Trazado_832638" data-name="Trazado 832638" d="M122.855,255.764c-1.3,0-1.976-.869-2.687-1.789a3.469,3.469,0,0,1-1-2.685,1.546,1.546,0,0,1,.872-1.039,30.127,30.127,0,0,1,4.264-1.781,2.162,2.162,0,0,1,.613-.095c.906,0,1.45.654,2.139,1.482.142.171.293.352.455.539l.043.048c.6.68,1.212,1.384,1.034,2.211-.163.762-.975,1.452-2.552,2.172a8.123,8.123,0,0,1-3.177.937m2.058-6.822a1.6,1.6,0,0,0-.452.072,30.1,30.1,0,0,0-4.17,1.744.974.974,0,0,0-.573.658,3.042,3.042,0,0,0,.9,2.213c.774,1,1.26,1.568,2.238,1.568a7.772,7.772,0,0,0,2.941-.886c1.363-.622,2.113-1.219,2.233-1.774s-.379-1.117-.905-1.718l-.043-.049c-.166-.19-.32-.373-.465-.549-.617-.742-1.063-1.278-1.7-1.278" transform="translate(-51.524 -141.054)"/>
        <path id="Trazado_832639" data-name="Trazado 832639" d="M114.748,245.135c-1.3,0-1.975-.869-2.686-1.789a3.47,3.47,0,0,1-1-2.686,1.543,1.543,0,0,1,.872-1.037,29.963,29.963,0,0,1,4.264-1.783,2.161,2.161,0,0,1,.613-.095c.905,0,1.449.654,2.139,1.482.142.171.293.352.456.539l.044.049c.595.68,1.21,1.384,1.032,2.211-.163.761-.974,1.451-2.551,2.171a8.125,8.125,0,0,1-3.177.937m2.058-6.822a1.592,1.592,0,0,0-.452.072,29.915,29.915,0,0,0-4.17,1.746.972.972,0,0,0-.573.656,3.047,3.047,0,0,0,.9,2.213c.774,1,1.259,1.568,2.237,1.568a7.774,7.774,0,0,0,2.941-.886c1.362-.622,2.113-1.219,2.232-1.774s-.379-1.117-.9-1.718l-.045-.05c-.166-.19-.319-.374-.465-.549-.617-.742-1.063-1.277-1.7-1.277" transform="translate(-48.018 -136.456)"/>
        <path id="Trazado_832640" data-name="Trazado 832640" d="M106.641,234.506c-1.3,0-1.975-.869-2.686-1.789a3.469,3.469,0,0,1-1-2.686,1.547,1.547,0,0,1,.872-1.037,31.349,31.349,0,0,1,4.265-1.783,2.156,2.156,0,0,1,.612-.095c.905,0,1.45.654,2.139,1.483.142.171.292.351.455.538l.044.048c.595.681,1.211,1.384,1.033,2.212-.164.762-.975,1.452-2.552,2.172a8.129,8.129,0,0,1-3.177.937m2.058-6.823a1.589,1.589,0,0,0-.452.072,29.867,29.867,0,0,0-4.17,1.746.972.972,0,0,0-.573.657,3.045,3.045,0,0,0,.9,2.213c.774,1,1.259,1.568,2.237,1.568a7.778,7.778,0,0,0,2.941-.886c1.362-.622,2.113-1.22,2.232-1.775s-.379-1.117-.905-1.718l-.043-.049c-.166-.19-.319-.373-.464-.548-.618-.743-1.064-1.279-1.7-1.279" transform="translate(-44.511 -131.858)"/>
        <path id="Trazado_832641" data-name="Trazado 832641" d="M138.889,248.648c-1.3,0-1.975-.869-2.686-1.789a3.47,3.47,0,0,1-1-2.686,1.546,1.546,0,0,1,.872-1.038,30.125,30.125,0,0,1,4.264-1.781,2.148,2.148,0,0,1,.613-.1c.906,0,1.45.654,2.139,1.483.142.171.292.351.455.537l.042.049c.6.68,1.213,1.384,1.035,2.213-.164.762-.975,1.452-2.553,2.172a8.119,8.119,0,0,1-3.176.937m2.058-6.822a1.6,1.6,0,0,0-.453.072,30.132,30.132,0,0,0-4.171,1.744.973.973,0,0,0-.572.657,3.047,3.047,0,0,0,.9,2.214c.774,1,1.259,1.568,2.237,1.568a7.767,7.767,0,0,0,2.94-.886c1.363-.622,2.114-1.219,2.234-1.774s-.379-1.118-.906-1.72l-.042-.048c-.166-.189-.318-.373-.464-.548-.618-.742-1.064-1.279-1.7-1.279" transform="translate(-58.46 -137.975)"/>
        <path id="Trazado_832642" data-name="Trazado 832642" d="M130.781,238.019c-1.3,0-1.975-.869-2.686-1.789a3.47,3.47,0,0,1-1.005-2.686,1.547,1.547,0,0,1,.872-1.038,30.078,30.078,0,0,1,4.264-1.782,2.166,2.166,0,0,1,.613-.095c.906,0,1.45.654,2.139,1.482.142.171.292.352.455.538l.043.048c.6.68,1.212,1.384,1.034,2.212-.163.762-.975,1.452-2.552,2.172a8.123,8.123,0,0,1-3.177.937m2.058-6.822a1.6,1.6,0,0,0-.453.072,30.166,30.166,0,0,0-4.17,1.745.973.973,0,0,0-.573.657,3.047,3.047,0,0,0,.9,2.213c.774,1,1.259,1.568,2.238,1.568a7.772,7.772,0,0,0,2.941-.886c1.363-.622,2.113-1.22,2.233-1.775s-.38-1.118-.906-1.719l-.043-.049c-.166-.19-.319-.373-.464-.548-.617-.742-1.063-1.278-1.7-1.278" transform="translate(-54.953 -133.378)"/>
        <path id="Trazado_832643" data-name="Trazado 832643" d="M122.674,227.391c-1.3,0-1.975-.869-2.686-1.789a3.471,3.471,0,0,1-1-2.686,1.545,1.545,0,0,1,.872-1.038,30.137,30.137,0,0,1,4.264-1.782,2.167,2.167,0,0,1,.613-.095c.906,0,1.45.654,2.14,1.483.142.171.292.351.455.537l.043.048c.6.681,1.212,1.385,1.034,2.212-.163.762-.974,1.452-2.552,2.172a8.123,8.123,0,0,1-3.177.937m2.058-6.822a1.6,1.6,0,0,0-.453.072,30.133,30.133,0,0,0-4.17,1.745.973.973,0,0,0-.573.657,3.047,3.047,0,0,0,.9,2.213c.774,1,1.259,1.568,2.238,1.568a7.772,7.772,0,0,0,2.941-.886c1.362-.622,2.114-1.22,2.233-1.775s-.379-1.117-.906-1.718l-.043-.049c-.166-.19-.318-.373-.464-.548-.618-.743-1.065-1.279-1.7-1.279" transform="translate(-51.446 -128.781)"/>
        <path id="Trazado_832644" data-name="Trazado 832644" d="M154.922,241.532c-1.3,0-1.975-.868-2.686-1.788a3.47,3.47,0,0,1-1-2.686,1.546,1.546,0,0,1,.872-1.038,30.014,30.014,0,0,1,4.264-1.782,2.16,2.16,0,0,1,.613-.095c.906,0,1.45.654,2.14,1.484.142.171.292.351.454.536l.044.049c.6.68,1.211,1.383,1.033,2.211-.163.761-.974,1.452-2.552,2.172a8.132,8.132,0,0,1-3.177.936m2.058-6.822a1.6,1.6,0,0,0-.453.072,29.409,29.409,0,0,0-4.17,1.745.973.973,0,0,0-.572.657,3.046,3.046,0,0,0,.9,2.214c.773,1,1.259,1.567,2.237,1.567a7.77,7.77,0,0,0,2.941-.885c1.363-.623,2.114-1.22,2.233-1.775s-.379-1.117-.906-1.718l-.043-.05c-.166-.189-.318-.372-.463-.546-.618-.743-1.065-1.28-1.7-1.28" transform="translate(-65.395 -134.898)"/>
        <path id="Trazado_832645" data-name="Trazado 832645" d="M146.815,230.9c-1.3,0-1.975-.868-2.686-1.788a3.472,3.472,0,0,1-1-2.686,1.546,1.546,0,0,1,.872-1.038,30.065,30.065,0,0,1,4.265-1.782,2.159,2.159,0,0,1,.612-.095c.906,0,1.45.654,2.139,1.482.142.171.292.351.455.538l.044.048c.6.681,1.211,1.385,1.033,2.213-.163.762-.974,1.452-2.552,2.172a8.132,8.132,0,0,1-3.177.936m2.058-6.822a1.6,1.6,0,0,0-.452.072,29.587,29.587,0,0,0-4.17,1.745.972.972,0,0,0-.573.657,3.046,3.046,0,0,0,.9,2.214c.774,1,1.259,1.567,2.238,1.567a7.77,7.77,0,0,0,2.941-.885c1.363-.622,2.114-1.219,2.233-1.774s-.379-1.118-.906-1.719l-.043-.049c-.166-.19-.319-.373-.464-.548-.617-.742-1.063-1.278-1.7-1.278" transform="translate(-61.888 -130.3)"/>
        <path id="Trazado_832646" data-name="Trazado 832646" d="M138.708,220.274c-1.3,0-1.975-.869-2.686-1.789a3.471,3.471,0,0,1-1-2.686,1.549,1.549,0,0,1,.872-1.038,29.979,29.979,0,0,1,4.265-1.782,2.159,2.159,0,0,1,.613-.095c.906,0,1.451.655,2.14,1.484.142.17.292.35.453.536l.043.048c.6.68,1.212,1.384,1.035,2.212-.163.762-.975,1.452-2.552,2.172a8.136,8.136,0,0,1-3.177.937m2.058-6.822a1.6,1.6,0,0,0-.453.072,30,30,0,0,0-4.17,1.745.972.972,0,0,0-.572.657,3.043,3.043,0,0,0,.9,2.213c.774,1,1.259,1.568,2.238,1.568a7.771,7.771,0,0,0,2.941-.886c1.363-.622,2.114-1.219,2.234-1.774s-.38-1.117-.906-1.719l-.043-.049c-.165-.189-.318-.372-.463-.546-.618-.743-1.065-1.28-1.7-1.28" transform="translate(-58.381 -125.703)"/>
        <path id="Trazado_832647" data-name="Trazado 832647" d="M170.955,234.417c-1.3,0-1.976-.869-2.686-1.789a3.472,3.472,0,0,1-1-2.685,1.548,1.548,0,0,1,.872-1.039,29.962,29.962,0,0,1,4.265-1.781,2.158,2.158,0,0,1,.613-.095c.906,0,1.451.655,2.141,1.485.141.17.291.35.452.536l.043.048c.6.68,1.212,1.384,1.034,2.213-.163.762-.974,1.452-2.552,2.171a8.124,8.124,0,0,1-3.177.937m2.058-6.822a1.6,1.6,0,0,0-.453.072,30.078,30.078,0,0,0-4.17,1.744.975.975,0,0,0-.573.657,3.044,3.044,0,0,0,.9,2.213c.774,1,1.259,1.568,2.238,1.568a7.764,7.764,0,0,0,2.941-.886c1.363-.622,2.114-1.219,2.233-1.774s-.38-1.118-.907-1.719l-.042-.048c-.165-.189-.318-.373-.462-.547-.618-.743-1.065-1.28-1.7-1.28" transform="translate(-72.329 -131.82)"/>
        <path id="Trazado_832648" data-name="Trazado 832648" d="M162.849,223.787c-1.3,0-1.976-.869-2.687-1.789a3.469,3.469,0,0,1-1-2.685,1.549,1.549,0,0,1,.872-1.039,30.078,30.078,0,0,1,4.265-1.781,2.159,2.159,0,0,1,.612-.095c.906,0,1.451.655,2.141,1.485.142.171.291.351.453.536l.042.047c.6.68,1.213,1.384,1.036,2.213-.163.762-.975,1.452-2.552,2.172a8.123,8.123,0,0,1-3.177.937m2.057-6.822a1.6,1.6,0,0,0-.452.072,29.537,29.537,0,0,0-4.17,1.744.974.974,0,0,0-.573.658,3.046,3.046,0,0,0,.9,2.213c.774,1,1.26,1.568,2.238,1.568a7.772,7.772,0,0,0,2.941-.886c1.363-.622,2.113-1.219,2.232-1.774s-.38-1.118-.907-1.719l-.042-.048c-.166-.189-.318-.373-.463-.547-.618-.743-1.064-1.28-1.7-1.28" transform="translate(-68.823 -127.223)"/>
        <path id="Trazado_832649" data-name="Trazado 832649" d="M154.741,213.159c-1.3,0-1.975-.869-2.686-1.789a3.471,3.471,0,0,1-1-2.686,1.546,1.546,0,0,1,.872-1.037,29.976,29.976,0,0,1,4.263-1.782,2.165,2.165,0,0,1,.613-.095c.906,0,1.452.655,2.142,1.484.142.171.292.351.453.536l.043.048c.6.681,1.211,1.384,1.033,2.212-.163.762-.975,1.452-2.552,2.172a8.134,8.134,0,0,1-3.177.937m2.057-6.823a1.6,1.6,0,0,0-.452.072,30,30,0,0,0-4.17,1.746.973.973,0,0,0-.573.656,3.044,3.044,0,0,0,.9,2.214c.774,1,1.259,1.568,2.238,1.568a7.77,7.77,0,0,0,2.941-.886c1.363-.622,2.113-1.219,2.233-1.775s-.379-1.117-.906-1.718l-.043-.049c-.166-.189-.318-.372-.463-.546-.619-.743-1.065-1.28-1.705-1.28" transform="translate(-65.316 -122.625)"/>
        <path id="Trazado_832650" data-name="Trazado 832650" d="M186.99,227.3c-1.3,0-1.975-.868-2.686-1.788a3.469,3.469,0,0,1-1-2.686,1.547,1.547,0,0,1,.872-1.038,29.986,29.986,0,0,1,4.264-1.782,2.166,2.166,0,0,1,.613-.095c.906,0,1.45.654,2.139,1.482.142.171.293.352.455.539l.041.047c.6.68,1.213,1.384,1.036,2.213-.163.762-.974,1.452-2.552,2.172a8.131,8.131,0,0,1-3.177.936m2.058-6.822a1.6,1.6,0,0,0-.453.071,30.028,30.028,0,0,0-4.17,1.746.972.972,0,0,0-.573.657,3.045,3.045,0,0,0,.9,2.213c.773,1,1.259,1.567,2.237,1.567a7.769,7.769,0,0,0,2.941-.885c1.363-.623,2.114-1.219,2.234-1.775s-.38-1.118-.907-1.719l-.041-.048c-.166-.19-.319-.374-.465-.549-.617-.742-1.063-1.278-1.7-1.278" transform="translate(-79.265 -128.742)"/>
        <path id="Trazado_832651" data-name="Trazado 832651" d="M178.882,216.672c-1.3,0-1.975-.869-2.686-1.789a3.47,3.47,0,0,1-1-2.686,1.547,1.547,0,0,1,.872-1.038,30.059,30.059,0,0,1,4.264-1.781,2.165,2.165,0,0,1,.613-.095c.905,0,1.449.654,2.138,1.482.142.171.292.352.455.539l.043.048c.6.68,1.213,1.384,1.035,2.212-.164.762-.975,1.452-2.552,2.171a8.128,8.128,0,0,1-3.177.938m2.059-6.822a1.6,1.6,0,0,0-.453.072,30.051,30.051,0,0,0-4.17,1.744.972.972,0,0,0-.572.657,3.044,3.044,0,0,0,.9,2.213c.774,1,1.259,1.568,2.237,1.568a7.767,7.767,0,0,0,2.941-.886c1.363-.622,2.114-1.219,2.234-1.774s-.38-1.118-.907-1.719l-.043-.048c-.166-.19-.319-.374-.465-.549-.617-.742-1.063-1.277-1.7-1.277" transform="translate(-75.758 -124.145)"/>
        <path id="Trazado_832652" data-name="Trazado 832652" d="M170.775,206.043c-1.3,0-1.975-.869-2.686-1.789a3.472,3.472,0,0,1-1-2.685,1.551,1.551,0,0,1,.872-1.039,30.133,30.133,0,0,1,4.264-1.782,2.165,2.165,0,0,1,.613-.095c.905,0,1.449.653,2.138,1.481.142.171.293.352.456.539l.043.048c.6.68,1.212,1.384,1.035,2.213-.163.762-.975,1.452-2.552,2.172a8.123,8.123,0,0,1-3.177.937m2.058-6.822a1.6,1.6,0,0,0-.453.072,30.154,30.154,0,0,0-4.17,1.745.974.974,0,0,0-.573.658,3.046,3.046,0,0,0,.9,2.213c.774,1,1.259,1.568,2.238,1.568a7.772,7.772,0,0,0,2.941-.886c1.363-.623,2.114-1.219,2.234-1.775s-.38-1.118-.907-1.719l-.042-.048c-.166-.19-.32-.374-.465-.549-.617-.742-1.063-1.277-1.7-1.277" transform="translate(-72.251 -119.547)"/>
        <path id="Trazado_832653" data-name="Trazado 832653" d="M203.023,220.184c-1.3,0-1.975-.868-2.686-1.788a3.471,3.471,0,0,1-1-2.686,1.548,1.548,0,0,1,.872-1.038,30.03,30.03,0,0,1,4.263-1.782,2.162,2.162,0,0,1,.612-.095c.906,0,1.451.655,2.141,1.484.142.171.292.351.455.536l.043.049c.6.68,1.212,1.383,1.034,2.211-.164.762-.975,1.451-2.552,2.171a8.133,8.133,0,0,1-3.178.937m2.058-6.822a1.6,1.6,0,0,0-.452.072,30.085,30.085,0,0,0-4.17,1.746.974.974,0,0,0-.573.657,3.045,3.045,0,0,0,.9,2.213c.774,1,1.259,1.567,2.237,1.567a7.771,7.771,0,0,0,2.942-.886c1.362-.622,2.113-1.219,2.232-1.774s-.379-1.117-.905-1.718l-.043-.049c-.166-.189-.318-.373-.464-.547-.618-.743-1.065-1.28-1.7-1.28" transform="translate(-86.2 -125.664)"/>
        <path id="Trazado_832654" data-name="Trazado 832654" d="M209.868,230.994c-1.3,0-1.975-.869-2.686-1.789a3.472,3.472,0,0,1-1-2.686,1.546,1.546,0,0,1,.871-1.038,30.051,30.051,0,0,1,4.265-1.781,2.141,2.141,0,0,1,.613-.1c.906,0,1.45.655,2.139,1.483.142.171.292.352.455.537l.043.048c.6.681,1.212,1.384,1.035,2.212-.163.762-.975,1.452-2.553,2.172a8.121,8.121,0,0,1-3.177.937m2.058-6.822a1.6,1.6,0,0,0-.453.072,29.55,29.55,0,0,0-4.17,1.744.973.973,0,0,0-.572.657,3.046,3.046,0,0,0,.9,2.213c.774,1,1.26,1.568,2.238,1.568a7.772,7.772,0,0,0,2.941-.886c1.363-.623,2.114-1.219,2.234-1.775s-.38-1.117-.907-1.718l-.043-.048c-.166-.19-.319-.374-.464-.548-.617-.743-1.063-1.279-1.7-1.279" transform="translate(-89.16 -130.339)"/>
        <path id="Trazado_832655" data-name="Trazado 832655" d="M226.986,223.967c-1.3,0-1.975-.868-2.686-1.788a3.472,3.472,0,0,1-1-2.686,1.547,1.547,0,0,1,.872-1.039,30.16,30.16,0,0,1,4.264-1.781,2.167,2.167,0,0,1,.613-.095c.906,0,1.45.654,2.14,1.484.142.171.292.351.453.537l.043.048c.6.68,1.213,1.383,1.035,2.211-.163.762-.974,1.452-2.553,2.172a8.121,8.121,0,0,1-3.177.937m2.058-6.822a1.6,1.6,0,0,0-.453.072,29.677,29.677,0,0,0-4.17,1.744.974.974,0,0,0-.573.657,3.046,3.046,0,0,0,.9,2.214c.774,1,1.259,1.567,2.238,1.567a7.772,7.772,0,0,0,2.941-.886c1.363-.622,2.114-1.219,2.234-1.775s-.38-1.117-.907-1.718l-.043-.048c-.166-.189-.318-.373-.463-.548-.618-.743-1.064-1.279-1.7-1.279" transform="translate(-96.564 -127.3)"/>
        <path id="Trazado_832656" data-name="Trazado 832656" d="M194.916,209.556c-1.3,0-1.976-.868-2.687-1.788a3.469,3.469,0,0,1-1-2.686,1.546,1.546,0,0,1,.872-1.038,29.989,29.989,0,0,1,4.265-1.782,2.155,2.155,0,0,1,.612-.095c.905,0,1.45.654,2.139,1.482.142.171.292.352.455.537l.044.049c.6.681,1.211,1.384,1.033,2.211-.164.762-.975,1.452-2.552,2.172a8.13,8.13,0,0,1-3.177.936m2.058-6.822a1.6,1.6,0,0,0-.452.072,29.455,29.455,0,0,0-4.17,1.745.972.972,0,0,0-.573.657,3.046,3.046,0,0,0,.9,2.213c.775,1,1.26,1.567,2.238,1.567a7.779,7.779,0,0,0,2.941-.885c1.362-.623,2.113-1.219,2.232-1.775s-.379-1.117-.905-1.718l-.043-.05c-.166-.19-.319-.374-.464-.548-.618-.742-1.064-1.278-1.7-1.278" transform="translate(-82.693 -121.067)"/>
        <path id="Trazado_832657" data-name="Trazado 832657" d="M186.809,198.927c-1.3,0-1.974-.868-2.685-1.788a3.472,3.472,0,0,1-1-2.686,1.546,1.546,0,0,1,.872-1.038,30.058,30.058,0,0,1,4.265-1.782,2.155,2.155,0,0,1,.612-.095c.905,0,1.45.654,2.14,1.483.142.171.292.351.454.537l.043.049c.6.681,1.212,1.385,1.034,2.213-.163.761-.975,1.451-2.552,2.171a8.133,8.133,0,0,1-3.178.937m2.059-6.822a1.6,1.6,0,0,0-.452.072,29.559,29.559,0,0,0-4.17,1.745.974.974,0,0,0-.573.657,3.046,3.046,0,0,0,.9,2.213c.774,1,1.259,1.567,2.236,1.567a7.771,7.771,0,0,0,2.942-.886c1.362-.621,2.114-1.218,2.233-1.774s-.379-1.117-.906-1.718l-.043-.049c-.166-.189-.319-.373-.464-.548-.618-.743-1.065-1.279-1.7-1.279" transform="translate(-79.187 -116.47)"/>
        <path id="Trazado_832658" data-name="Trazado 832658" d="M219.056,213.068c-1.3,0-1.975-.868-2.686-1.788a3.472,3.472,0,0,1-1.006-2.685,1.549,1.549,0,0,1,.872-1.038,30,30,0,0,1,4.265-1.782,2.14,2.14,0,0,1,.613-.1c.906,0,1.45.655,2.14,1.484.142.171.292.351.454.537l.043.048c.6.681,1.212,1.384,1.035,2.212-.163.761-.975,1.451-2.552,2.171a8.121,8.121,0,0,1-3.177.937m2.058-6.822a1.6,1.6,0,0,0-.453.072,30.026,30.026,0,0,0-4.17,1.745.974.974,0,0,0-.573.657,3.045,3.045,0,0,0,.9,2.213c.773,1,1.259,1.567,2.237,1.567a7.772,7.772,0,0,0,2.941-.886c1.363-.622,2.114-1.219,2.234-1.774s-.38-1.117-.906-1.718l-.043-.049c-.166-.189-.318-.373-.463-.547-.618-.743-1.065-1.28-1.7-1.28" transform="translate(-93.134 -122.586)"/>
        <path id="Trazado_832659" data-name="Trazado 832659" d="M210.948,202.439c-1.3,0-1.975-.869-2.685-1.789a3.474,3.474,0,0,1-1.006-2.686,1.547,1.547,0,0,1,.872-1.038,30.164,30.164,0,0,1,4.264-1.782,2.162,2.162,0,0,1,.612-.095c.907,0,1.452.655,2.142,1.486.142.17.291.35.453.535l.043.048c.6.681,1.212,1.385,1.035,2.213-.164.762-.975,1.451-2.553,2.171a8.128,8.128,0,0,1-3.177.937m2.058-6.823a1.616,1.616,0,0,0-.452.072,29.625,29.625,0,0,0-4.17,1.746.972.972,0,0,0-.572.657,3.047,3.047,0,0,0,.9,2.213c.773,1,1.258,1.568,2.236,1.568a7.775,7.775,0,0,0,2.941-.886c1.362-.622,2.114-1.219,2.234-1.774s-.38-1.118-.906-1.719l-.043-.049c-.165-.189-.318-.373-.462-.546-.619-.743-1.065-1.281-1.706-1.281" transform="translate(-89.628 -117.989)"/>
        <path id="Trazado_832660" data-name="Trazado 832660" d="M202.842,191.811c-1.3,0-1.976-.869-2.686-1.789a3.474,3.474,0,0,1-1-2.686,1.551,1.551,0,0,1,.872-1.038,30.086,30.086,0,0,1,4.264-1.782,2.158,2.158,0,0,1,.612-.095c.906,0,1.452.655,2.141,1.485.142.171.292.351.455.536l.044.049c.595.68,1.21,1.383,1.032,2.21-.163.762-.974,1.452-2.552,2.172a8.136,8.136,0,0,1-3.177.937m2.057-6.823a1.616,1.616,0,0,0-.452.071,29.9,29.9,0,0,0-4.17,1.746.973.973,0,0,0-.573.657,3.043,3.043,0,0,0,.9,2.212c.774,1,1.259,1.569,2.238,1.569a7.768,7.768,0,0,0,2.941-.887c1.363-.621,2.114-1.219,2.233-1.775s-.378-1.116-.9-1.717l-.043-.05c-.166-.189-.318-.372-.464-.547-.619-.743-1.065-1.28-1.705-1.28" transform="translate(-86.121 -113.392)"/>
        <path id="Trazado_832661" data-name="Trazado 832661" d="M57.7,88.891c-3.3,1.268-7.156,2.76-6.441,6.543.955,5.045,4.7,19.322,6.849,28.217s5.52,20.344,6.236,23.1,1.124,6.031,5.009,4.4,57.149-24.435,61.75-26.785,6.032-2.657,5.112-6.339-6.134-33.533-7.667-40.791-2.353-9.2-8.588-7.361S64.342,86.334,57.7,88.891" transform="translate(-22.132 -63.566)" fill="#afd1df"/>
        <path id="Trazado_832662" data-name="Trazado 832662" d="M118.446,135.239c-.786.459-4.158,2.023-8.545,4-.607.275-1.233.552-1.871.839-2.38,1.068-4.974,2.209-7.564,3.343-4.078,1.785-8.158,3.546-11.415,4.908-2.65,1.111-4.754,1.958-5.876,2.344-5.313,1.84-7.153.306-8.687-4.7s-8.281-28.627-9.305-32.718,1.135-5.5,5.521-7.154c3.784-1.435,26.579-8.588,33.737-10.943s7.158.92,8.079,3.988c.1.318.246.84.435,1.527,1.191,4.293,4.031,14.967,5.938,22.009q.2.735.387,1.417c.061.239.122.465.184.687.011.043.024.086.036.129.112.4.209.766.3,1.122.295,1.037.527,1.878.693,2.454,1.325,4.6.4,5.313-2.049,6.748" transform="translate(-28.085 -74.437)" fill="#fff"/>
        <path id="Trazado_832663" data-name="Trazado 832663" d="M139.725,165.821c-.607.275-1.233.552-1.871.839-.9-1.692-2.877-7.041-3.766-9.2-.074-.19-.141-.362-.2-.5l1.608-1.149.448,1.086c.907,2.19,2.932,7.066,3.784,8.92" transform="translate(-57.909 -101.019)" fill="#ffe7b8"/>
        <path id="Trazado_832664" data-name="Trazado 832664" d="M142.547,129.6c-1.638,1.393-20.779,8.333-21.079,7.358-.308-1-2.6-18.939-2.991-21.779s-.306-3.14,1.92-3.908c2.2-.761,11.219-4.514,15.642-5.784" transform="translate(-51.167 -79.251)" fill="#fff"/>
        <path id="Trazado_832665" data-name="Trazado 832665" d="M121.515,137.114a.928.928,0,0,1-.246-.026.4.4,0,0,1-.287-.262c-.227-.738-1.41-9.692-2.5-18.028-.233-1.779-.414-3.163-.5-3.8-.4-2.913-.3-3.386,2.108-4.214.691-.239,2.052-.773,3.774-1.448,3.735-1.464,8.849-3.47,11.882-4.34a.284.284,0,0,1,.157.545c-3.007.863-8.108,2.863-11.832,4.323-1.729.678-3.094,1.213-3.8,1.456-2.043.7-2.108.839-1.732,3.6.086.634.267,2.018.5,3.8.762,5.815,2.157,16.479,2.455,17.833,1.693.171,18.991-5.977,20.65-7.388a.284.284,0,0,1,.368.432c-1.519,1.292-18.269,7.513-21,7.513" transform="translate(-50.953 -79.035)"/>
        <path id="Trazado_832666" data-name="Trazado 832666" d="M116.632,174.211c-4.078,1.785-8.158,3.546-11.415,4.907-1.061-2.723-2.756-8.184-2.909-10.689,3.681-2.681,9.405-2.885,9.405-2.885s3.895,5.073,4.919,8.666" transform="translate(-44.251 -105.227)"/>
        <path id="Trazado_832667" data-name="Trazado 832667" d="M88.29,170.542c-.306,1.764-2.684,4.14-1.534,5.522s2.837-.614,3.144-2.454c-.154,3.3,1.763,1.38.92-2.377a2.1,2.1,0,0,0-2.53-.69" transform="translate(-37.389 -107.314)" fill="#ffa66b"/>
        <path id="Trazado_832668" data-name="Trazado 832668" d="M123.34,132.546c.153-2.3.844-3.6,1.764-3.374s-.23,1.457-.23,1.457c1.84-.921,3.374-1.917,3.68-.691s-2.3,3.067-2.989,3.527-2.224-.919-2.224-.919" transform="translate(-53.348 -89.484)" fill="#ffa66b"/>
        <path id="Trazado_832669" data-name="Trazado 832669" d="M86.9,155.861c-.1.511,3.732.92,4.5,1.074s1.584-6.313,1.737-7.309c.563,4.753,1.049,6.951,1.585,6.951s11.4-3.885,11.322-4.728-3.067-6.748-3.067-6.748c3.143,1.227,7.055.537,7.514-8.817-1.534-1-3.067-1.457-3.3-1.3s-.843,5.751-2.377,5.828-5.061-2.837-8.971-1.533-8.025,4.371-8.945,16.587" transform="translate(-37.587 -91.994)" fill="#6d6ee2"/>
        <path id="Trazado_832670" data-name="Trazado 832670" d="M95.181,135.433c-.306-1.3-.306-2.53-.919-2.607a5.065,5.065,0,0,1-4.275-4.792c-.383-3.987,5.272-5.943,6.651-4.1s2.454,4.984,1.074,7.208c-1.074,1.38-.23,1.916,0,3.219s-2.147,1.917-2.531,1.074" transform="translate(-38.914 -86.927)" fill="#ffa66b"/>
        <path id="Trazado_832671" data-name="Trazado 832671" d="M152.5,91.391c1.38-.46,8.536-2.811,9.1-3.016s.766,1.636.919,2.812.1,1.329-1.38,1.84-6.491,2.148-7.258,2.3-.92-.308-1.125-1.176-.766-2.5-.255-2.76" transform="translate(-65.872 -71.842)" fill="#ffe7b8"/>
        <path id="Trazado_832672" data-name="Trazado 832672" d="M179.315,86.621c.363-2.067-3.834-3.118-4.447,0s3.936,2.914,4.447,0" transform="translate(-75.611 -70.241)" fill="#d5f0fd"/>
        <path id="Trazado_832673" data-name="Trazado 832673" d="M176.918,85.576c.17-.967-1.793-1.458-2.08,0s1.841,1.363,2.08,0" transform="translate(-94.054 -46.216)" fill="#99bb4e"/>
        <path id="Trazado_832674" data-name="Trazado 832674" d="M176.918,85.576c.17-.967-1.793-1.458-2.08,0s1.841,1.363,2.08,0" transform="translate(-90.565 -44.239)" fill="#4c849f"/>
        <path id="Trazado_832675" data-name="Trazado 832675" d="M176.918,85.576c.17-.967-1.793-1.458-2.08,0s1.841,1.363,2.08,0" transform="translate(-96.171 -44.618)" fill="#4c849f"/>
        <path id="Trazado_832676" data-name="Trazado 832676" d="M176.918,85.576c.17-.967-1.793-1.458-2.08,0s1.841,1.363,2.08,0" transform="translate(-96.613 -41.271)" fill="#99bb4e"/>
        <path id="Trazado_832677" data-name="Trazado 832677" d="M176.918,85.576c.17-.967-1.793-1.458-2.08,0s1.841,1.363,2.08,0" transform="translate(-93.554 -40.581)" fill="#4c849f"/>
        <path id="Trazado_832678" data-name="Trazado 832678" d="M176.918,85.576c.17-.967-1.793-1.458-2.08,0s1.841,1.363,2.08,0" transform="translate(-95.555 -38.18)" fill="#4c849f"/>
        <path id="Trazado_832679" data-name="Trazado 832679" d="M176.918,85.576c.17-.967-1.793-1.458-2.08,0s1.841,1.363,2.08,0" transform="translate(-92.996 -43.407)" fill="#4c849f"/>
        <path id="Trazado_832680" data-name="Trazado 832680" d="M176.918,85.576c.17-.967-1.793-1.458-2.08,0s1.841,1.363,2.08,0" transform="translate(-91.437 -39.729)" fill="#99bb4e"/>
        <path id="Trazado_832681" data-name="Trazado 832681" d="M157.046,104.128a6.9,6.9,0,0,0,3.042-.766c1.409-.635,2.794-1.289,4.221-1.888a43.407,43.407,0,0,1,4.374-1.706,21,21,0,0,0,4.072-1.353c.323-.173.036-.662-.286-.49a18.173,18.173,0,0,1-3.937,1.3,27.393,27.393,0,0,0-3.463,1.321c-1.225.518-2.481.981-3.685,1.546-1.406.661-2.73,1.508-4.338,1.472a.284.284,0,0,0,0,.567" transform="translate(-67.808 -75.964)"/>
        <path id="Trazado_832682" data-name="Trazado 832682" d="M159.609,112.184c2.942-1.323,6.067-2.146,9.057-3.345.335-.134.189-.684-.151-.547-3.035,1.218-6.206,2.058-9.192,3.4-.334.15-.045.639.286.49" transform="translate(-68.847 -80.454)"/>
        <path id="Trazado_832683" data-name="Trazado 832683" d="M178.872,107.094a31.018,31.018,0,0,0,4.217-1.227c.338-.129.191-.677-.151-.547a31,31,0,0,1-4.217,1.227c-.357.081-.205.628.151.547" transform="translate(-77.213 -79.17)"/>
        <path id="Trazado_832684" data-name="Trazado 832684" d="M161.514,119.837c1.451-.943,3.267-1,4.83-1.687.334-.148.045-.636-.286-.49-1.57.692-3.369.736-4.83,1.687-.306.2-.022.69.286.49" transform="translate(-69.679 -84.504)"/>
        <path id="Trazado_832685" data-name="Trazado 832685" d="M163.872,124.794a37.106,37.106,0,0,0,6.9-2.2c2.487-.949,5.06-1.595,7.594-2.4.347-.11.2-.658-.151-.547-2.375.751-4.8,1.345-7.131,2.223a40.68,40.68,0,0,1-7.361,2.377c-.36.062-.207.608.151.547" transform="translate(-70.725 -85.369)"/>
        <path id="Trazado_832686" data-name="Trazado 832686" d="M164.473,131.646c1.443-.641,2.991-.954,4.473-1.481,1.6-.568,3.108-1.353,4.737-1.865.348-.109.2-.657-.15-.547-1.631.512-3.155,1.23-4.737,1.864-1.508.6-3.117.876-4.608,1.538-.334.148-.045.637.286.49" transform="translate(-70.951 -88.875)"/>
        <path id="Trazado_832687" data-name="Trazado 832687" d="M166.825,138.76c.983-.823,2.395-.928,3.581-1.31,1.317-.423,2.608-.924,3.884-1.454.333-.138.187-.688-.15-.547a42.021,42.021,0,0,1-4.719,1.708,7.37,7.37,0,0,0-3,1.2c-.281.236.123.634.4.4" transform="translate(-71.941 -92.2)"/>
        <path id="Trazado_832688" data-name="Trazado 832688" d="M167.865,141.994a12.865,12.865,0,0,1,3.641-1.343c1.292-.381,2.529-.868,3.794-1.319a34.951,34.951,0,0,0,6.826-3.089c.31-.193.026-.684-.286-.49a51.392,51.392,0,0,1-7.6,3.386c-2.143.9-4.707,1.068-6.658,2.365-.3.2-.019.693.286.49" transform="translate(-72.426 -92.323)"/>
        <path id="Trazado_832689" data-name="Trazado 832689" d="M169.206,153.2c2.481-1.273,5.173-2.053,7.668-3.3.327-.163.04-.653-.286-.49-2.5,1.244-5.187,2.024-7.668,3.3-.326.167-.039.657.286.49" transform="translate(-73 -98.234)"/>
        <path id="Trazado_832690" data-name="Trazado 832690" d="M194.933,266.314a1.423,1.423,0,0,1-.767-.2c-.613-.379-.778-1.233-.836-2.4l.566-.029c.043.854.141,1.68.568,1.944.367.228,1.054.112,2.1-.35a51.584,51.584,0,0,0,6.192-3.043c1.153-.768,1.6-1.292,1.408-3.417l.565-.052c.211,2.3-.316,3.047-1.658,3.942a50.974,50.974,0,0,1-6.279,3.09,4.887,4.887,0,0,1-1.862.511" transform="translate(-83.62 -145.55)"/>
        <path id="Trazado_832691" data-name="Trazado 832691" d="M96.616,122.63c-.077-1.84-4.619-1.624-7.284,1.553a2.14,2.14,0,0,0-.265,2.105,1.8,1.8,0,0,0-.56,1.23c-.134,2.033,1.29,4.812,3.643,4.045a4.622,4.622,0,0,0-.594-1.265c-1.841.364-1.841-2.358-.326-1.457.928.2-.661-2.253.555-3.374,1.994-1.84,4.908-1,4.831-2.837" transform="translate(-38.278 -86.162)"/>
        <path id="Trazado_832692" data-name="Trazado 832692" d="M268.53,268.8c2.163-2.606,8.307-11.3,3.182-20.775-5.93-1.227-9.1-4.294-10.121-4.6s-4.413,2.944-9.1,3.682c-14.926,2.35-16.18,9.476-16.223,9.5-3.557-1.472-8.861-1.574-17.1,3.173-13.494,7.77-15.846,9.406-17.482,10.734.229.365.642.98,1.187,1.765-.814.592-1.9.8-1.8,1.3.1.488,10.089,16.469,13.295,19.489a19.222,19.222,0,0,0,1.427,1.775c2.147,2.249,23.1-5.112,30.568-8.588s24.229-11.655,23.309-14.312c-.326-.942-.717-2.062-1.137-3.148" transform="translate(-86.965 -138.902)" fill="#fff"/>
        <path id="Trazado_832693" data-name="Trazado 832693" d="M217.267,295.334h0a2.616,2.616,0,0,1-1.9-.507,19.432,19.432,0,0,1-1.45-1.8c-3.231-3.038-13.232-19.047-13.344-19.6-.106-.532.436-.8,1.01-1.079.214-.1.449-.221.671-.356-.473-.683-.826-1.212-1.03-1.538a.283.283,0,0,1,.061-.37c1.613-1.31,3.927-2.934,17.52-10.76,4.732-2.724,8.962-4.106,12.572-4.106a12.529,12.529,0,0,1,4.5.8c.591-1.725,3.478-7.379,16.358-9.407a19.578,19.578,0,0,0,6.675-2.678c1.211-.692,2.031-1.148,2.549-1a6.792,6.792,0,0,1,1.383.8,23.865,23.865,0,0,0,8.715,3.8.28.28,0,0,1,.191.143c5.143,9.514-.931,18.3-3.107,20.962.4,1.032.765,2.088,1.081,3,.921,2.66-12.248,9.442-23.458,14.662-6.814,3.173-23.355,9.034-28.993,9.034M201.841,270.36c.236.364.592.89,1.045,1.541a.285.285,0,0,1-.066.391,6.574,6.574,0,0,1-.986.56c-.253.124-.724.356-.7.458.247.657,10.018,16.33,13.211,19.337a20.133,20.133,0,0,0,1.438,1.786c.117.124.469.331,1.488.331,5.468,0,22.151-5.906,28.754-8.98,14.644-6.82,23.736-12.3,23.16-13.963-.331-.956-.719-2.066-1.133-3.138a.283.283,0,0,1,.046-.284c2.01-2.423,8.161-11.027,3.213-20.344a24.744,24.744,0,0,1-8.78-3.853,7.162,7.162,0,0,0-1.234-.727.27.27,0,0,0-.07-.009,6.714,6.714,0,0,0-2.035.953,20.056,20.056,0,0,1-6.868,2.746c-13.363,2.1-15.655,8.073-15.978,9.248a.44.44,0,0,1-.137.215.284.284,0,0,1-.261.023,11.873,11.873,0,0,0-4.566-.873c-3.51,0-7.644,1.356-12.29,4.03-13.009,7.49-15.648,9.275-17.247,10.55" transform="translate(-86.748 -138.688)"/>
        <path id="Trazado_832694" data-name="Trazado 832694" d="M203.786,294.215c1.432,2.59,3.536,4.854,5.276,7.236,2.164,2.963,4.27,5.982,6.214,9.095.194.31.684.026.49-.286-1.849-2.963-3.847-5.843-5.9-8.667-1.837-2.526-4.076-4.928-5.588-7.664-.176-.32-.667-.034-.49.286" transform="translate(-88.127 -160.697)"/>
        <path id="Trazado_832695" data-name="Trazado 832695" d="M262.686,266.655c2.712,2.666,5.2,5.535,7.632,8.454a99,99,0,0,1,7.32,9.077c.2.306.689.022.49-.286a97.164,97.164,0,0,0-7.078-8.794,117.022,117.022,0,0,0-7.963-8.852c-.261-.257-.663.145-.4.4" transform="translate(-113.582 -148.751)"/>
        <path id="Trazado_832696" data-name="Trazado 832696" d="M2.575,241.348c-.619,2.307-.061,4.762.631,6.986a46.643,46.643,0,0,0,4.6,9.72c4.213,7.127,9.578,13.624,14.5,20.268,4.2,5.666,8.379,11.36,12.842,16.822,3.16,3.867,6.536,7.565,9.9,11.259,3.921,4.312,7.89,8.584,11.943,12.772,2.474,2.556,4.946,5.331,7.97,7.257,9.732,6.2,21.963-1.071,30.967-5.291q16.257-7.618,32.4-15.472c.33-.16.041-.649-.286-.49q-11.327,5.486-22.694,10.885c-5.538,2.633-11.083,5.251-16.653,7.814-5.81,2.672-12.5,5.347-19,3.918-3.613-.793-6.373-3.106-8.943-5.624-3.733-3.658-7.3-7.495-10.853-11.326-3.875-4.177-7.713-8.393-11.452-12.692-3.913-4.5-7.52-9.244-11.1-14.009-5.341-7.117-10.822-14.187-15.9-21.492a67.3,67.3,0,0,1-6.59-11.534c-1.245-2.865-2.579-6.47-1.733-9.619a.284.284,0,0,0-.547-.151" transform="translate(-0.998 -137.927)"/>
        <path id="Trazado_832697" data-name="Trazado 832697" d="M382.414,256.7c2.891.033,5.864-1.256,8.5-2.3,4.182-1.666,8.24-3.648,12.247-5.7,6.536-3.341,13.282-6.778,19.3-11.013.3-.209.014-.7-.285-.49-5.839,4.108-12.37,7.435-18.7,10.7-3.987,2.059-8.031,4.031-12.184,5.735-2.72,1.116-5.87,2.532-8.874,2.5a.284.284,0,0,0,0,.567" transform="translate(-165.286 -136.198)"/>
        <path id="Trazado_832698" data-name="Trazado 832698" d="M298.4,266.078c-2.454-.2-7.975,1.43-10.53.408s.613-3.067,3.782-2.76,5.931-1.431,2.249-2.352-10.428.1-7.053-3.169a3.827,3.827,0,0,1,3.782-2.249c1.328-3.68,11.042,1.637,14.721,1.329,2.761,4.8,2.76,8.076-6.952,8.792" transform="translate(-123.674 -143.769)" fill="#ff8f46"/>
        <path id="Trazado_832699" data-name="Trazado 832699" d="M297.846,153.173c-4.643,2.457-8.282,9.194-8.92,13.017s-.4,5.216-1.542,5.3c-1.719.125-3.23-.048-3.639,1-.747,1.9,2.359,2.076,2.267,4.443s-2,10.833-.272,16.293,4.916,8.194,9.467,9.012,6.736-1.822,7.19,3,1.457,14.292,1.457,14.292l18.478-4.37-3.55-15.292s8.375-50.157-20.936-46.7" transform="translate(-122.677 -99.802)" fill="#ffa66b"/>
        <path id="Trazado_832700" data-name="Trazado 832700" d="M317.622,257.8c.171,3.012.714,6.134.358,9.146-.043.363.525.359.568,0,.356-3.012-.187-6.134-.358-9.146-.02-.364-.588-.366-.568,0" transform="translate(-137.38 -145.011)"/>
        <path id="Trazado_832701" data-name="Trazado 832701" d="M306.928,148.085c1.365,0,4.727,1.038,4.909,3.314-2,4.459-1.092,8.192,2.458,10.649s5.644,4.734,1.275,8.648-4.46,8.829.819,12.288,6.554,4.642,4.368,9.194-5.2,8.728-.781,14.032a17.017,17.017,0,0,1,12.433-3.109c3.914.364,6.373,0,8.74-4.642s7.373-2.639,11.286-1.456,5.917-.274,7.828-4.825,5.553-3.824,8.193-4.461,3.551-7.554,5.916-8.556c-3.641-3-5.438-.52-7.532-2.887s.639-7.369-2.274-10.737-7.363.682-8.455-2.14,4.881-5.809-1.31-12.819-10.923-1.549-15.019-6.827-23.478-6.407-32.855,4.333" transform="translate(-132.755 -94.113)"/>
        <path id="Trazado_832702" data-name="Trazado 832702" d="M300.8,167.639a4.091,4.091,0,0,1,3.579,2.91c.105.306.594.175.487-.134a4.606,4.606,0,0,0-4.066-3.282.253.253,0,0,0,0,.506" transform="translate(-129.997 -105.914)"/>
        <path id="Trazado_832703" data-name="Trazado 832703" d="M288.227,204.083a3.839,3.839,0,0,0,3.051.992,6.664,6.664,0,0,0,3.163-1.924c.248-.212-.111-.568-.358-.357-1.65,1.414-3.475,2.667-5.5.931-.246-.211-.6.145-.358.358" transform="translate(-124.63 -121.311)"/>
        <path id="Trazado_832704" data-name="Trazado 832704" d="M300.751,183.627c-.167,1.081-.826,1.876-1.471,1.776s-1.034-1.057-.867-2.137.826-1.875,1.471-1.777,1.033,1.057.867,2.138" transform="translate(-129.055 -112.12)"/>
        <path id="Trazado_832705" data-name="Trazado 832705" d="M254.246,279.373c-.712.405-3.067-.306-5.521-1.435-.03-.044-.073-.093-.123-.154-1.816-2.085-15.7-15.9-18.378-19.782a.422.422,0,0,1-.037-.074c-1.6-2.938,4.957-5.839,6.576-4.22,1.638,1.637,15.028,19.119,16.052,20.143a3,3,0,0,1,.442.608c.865,1.509,1.6,4.564.988,4.913" transform="translate(-99.455 -143.16)"/>
        <path id="Trazado_832706" data-name="Trazado 832706" d="M230.189,257.929c-1.6-2.938,4.956-5.839,6.575-4.22,1.079,2.159-4.331,6.574-6.575,4.22" transform="translate(-99.455 -143.16)" fill="#ffe7b8"/>
        <path id="Trazado_832707" data-name="Trazado 832707" d="M268.471,295.544c-.712.405-3.067-.306-5.521-1.435-.03-.044-.073-.093-.123-.154a4.134,4.134,0,0,0,4.656-3.324c.865,1.509,1.6,4.564.988,4.913" transform="translate(-113.68 -159.33)" fill="#ffe7b8"/>
        <path id="Trazado_832708" data-name="Trazado 832708" d="M235.3,290.386c.1-3.987,1.7-11.429,5.28-12.859,1.5,1.529,2.466,2.574,2.466,2.574a2.612,2.612,0,0,0,3.6,3.333c2.044-1.022,2.861-3.68,5.213-3.988s1.33,2.148-.306,5.01-3.883,6.033-6.951,6.748c-3.272.715-8.895.818-9.3-.818" transform="translate(-101.775 -153.663)" fill="#ffa66b"/>
        <path id="Trazado_832709" data-name="Trazado 832709" d="M240.038,295.944a58.5,58.5,0,0,0-1.124-13.9c-.613-2.453-5.318-5.52-10.94-.306s-11.553,34.556-5.93,42.324,16.717,7.286,23.465,1.041c9.742-9.015,19.8-18.642,20.717-19.154s-1.648,27,.09,30.788c12.778,3.374,67.443-5.007,68.466-6.336s2.448-11.751-6.651-33.22c8.079-.734,12.493-6.041,6-18.8-5.266-10.341-12.943-15.889-24.5-19.034-15.982-4.35-29.724-.817-42.811,9.61s-25.048,24.435-26.785,26.99" transform="translate(-95.06 -145.01)" fill="#6d6ee2"/>
        <path id="Trazado_832710" data-name="Trazado 832710" d="M287.9,260.9a7.341,7.341,0,0,1,4.342-.081,11.25,11.25,0,0,1,4.1,1.361c.311.195.6-.3.286-.49a13.678,13.678,0,0,0-5.1-1.568,6.675,6.675,0,0,0-3.914.288c-.333.152-.044.641.286.49" transform="translate(-124.339 -146.066)"/>
        <path id="Trazado_832711" data-name="Trazado 832711" d="M291.464,257.457a10.02,10.02,0,0,1,4.954.129,17.614,17.614,0,0,1,4.029,1.606.284.284,0,0,0,.286-.49,19.555,19.555,0,0,0-4.658-1.8,9.709,9.709,0,0,0-4.762.009c-.359.07-.207.617.151.548" transform="translate(-125.912 -144.614)"/>
        <path id="Trazado_832712" data-name="Trazado 832712" d="M238.667,334.053c1.53-2.888,4.149-5.059,6.2-7.57.932-1.142,1.832-2.3,2.844-3.372,1.131-1.2,2.423-2.225,3.485-3.493.233-.278-.166-.682-.4-.4-1.06,1.265-2.332,2.316-3.485,3.493s-2.131,2.5-3.169,3.769c-1.987,2.432-4.479,4.483-5.965,7.289-.171.323.318.609.49.286" transform="translate(-103.003 -171.653)"/>
        <path id="Trazado_832713" data-name="Trazado 832713" d="M398.011,297.6c1.995,2.929,3.147,6.771,4.472,10.068,1.127,2.806,2.6,5.735,3.261,8.7.079.358.626.205.548-.15-.679-3.061-2.21-6.085-3.374-8.982-1.311-3.262-2.439-7.02-4.416-9.922-.2-.3-.7-.017-.49.286" transform="translate(-172.129 -162.166)"/>
        <path id="Trazado_832714" data-name="Trazado 832714" d="M233.118,257.391c.69,1.38,3.834-.384,2.99-1.534s-3.834.691-2.99,1.534" transform="translate(-100.766 -144.131)"/>
        <path id="Trazado_832715" data-name="Trazado 832715" d="M270.887,294.519c-.408,1.081-1.36,2.343-2.217,2.5a3.75,3.75,0,0,0,2.328.206c.376-.213.245-1.441-.111-2.707" transform="translate(-116.207 -161.012)"/>
        <path id="Trazado_832716" data-name="Trazado 832716" d="M290.254,290.51c4.732-1.352,8.361,1.848,11.054,5.39a17.48,17.48,0,0,1,3.05,13.374c-.051.358.5.512.547.151.732-5.125-.149-10.118-3.427-14.231-2.858-3.588-6.555-6.608-11.375-5.232a.284.284,0,0,0,.151.548" transform="translate(-125.391 -158.894)"/>
        <path id="Trazado_832717" data-name="Trazado 832717" d="M306.005,279.858c.861-2.152,2.926-3.785,4.43-5.5a37.615,37.615,0,0,1,5.144-4.589c.287-.228-.118-.626-.4-.4a44.028,44.028,0,0,0-5.769,5.3c-1.416,1.592-3.142,3.022-3.951,5.043-.136.34.413.486.548.151" transform="translate(-132.11 -150.105)"/>
        <path id="Trazado_832718" data-name="Trazado 832718" d="M300.162,339.535a24.551,24.551,0,0,1,3-2.592c1.255-1,2.426-2.1,3.667-3.114.283-.232-.121-.631-.4-.4-1.128.923-2.23,1.885-3.332,2.838a36.24,36.24,0,0,0-3.335,2.868c-.246.27.154.673.4.4" transform="translate(-129.621 -177.811)"/>
        <path id="Trazado_832719" data-name="Trazado 832719" d="M311.861,345.647c0,3.719-.04,7.441.01,11.159.049,3.661.4,7.31.415,10.972a.284.284,0,0,0,.567,0c-.017-3.662-.338-7.312-.415-10.972-.08-3.717-.01-7.442-.01-11.159a.284.284,0,0,0-.567,0" transform="translate(-134.882 -183.008)"/>
        <path id="Trazado_832720" data-name="Trazado 832720" d="M87.486,80.928a60.59,60.59,0,0,0,.537,7.485,37.764,37.764,0,0,0,1.547,6.32,31.98,31.98,0,0,1,6.017-2.013,9.7,9.7,0,0,0,4.467-2.024" transform="translate(-11.165 -43.545)" fill="none" stroke="#000" stroke-linecap="round" stroke-width="1"/>
      </g>
      <g id="Grupo_1087177" data-name="Grupo 1087177" transform="translate(124.104 0)">
        <path id="Trazado_832721" data-name="Trazado 832721" d="M221.4,143.093c-.843,2.48-.672,6.469,3.629,8.305s18.556,1.314,22.012-1.745c2.7-2.387,1.809-6.154.168-9.183-2.783-5.143-23.149-5.042-25.809,2.623" transform="translate(-214.606 -75.848)" fill="#ffe7b8"/>
        <path id="Trazado_832722" data-name="Trazado 832722" d="M233.788,100.428c-1.985-6.369-4.307-12.655-6.537-18.941-2.133-6.012-4.623-11.993-6.239-18.17a5.441,5.441,0,0,1-.122-.565c-.084-.567-.943-.325-.86.237a21.47,21.47,0,0,0,.977,3.38c.623,1.919,1.282,3.827,1.946,5.732,1.017,2.919,2.073,5.824,3.119,8.732,2.307,6.411,4.56,12.853,6.692,19.324.055.168.11.337.163.507.17.548,1.032.314.86-.237" transform="translate(-214.065 -34.582)"/>
        <path id="Trazado_832723" data-name="Trazado 832723" d="M207.385,42.087c1.526-.964,3.7-1.527,5.143-.724s4.259,4.259,3.214,7.8-4.58,2.41-6.027,1.526-4.42-6.83-2.33-8.6" transform="translate(-206.664 -22.7)" fill="#6d6ee2"/>
        <path id="Trazado_832724" data-name="Trazado 832724" d="M217.586,23.482a35.841,35.841,0,0,1,3.929-2.993q3.727-2.728,7.491-5.406c4-2.866,8.028-5.706,12.036-8.568.464-.331.019-1.105-.451-.77-4.074,2.909-8.163,5.8-12.234,8.71q-3.733,2.672-7.445,5.376a36,36,0,0,0-3.957,3.02c-.413.4.219,1.033.631.631" transform="translate(-212.29 -3.136)"/>
        <path id="Trazado_832725" data-name="Trazado 832725" d="M268.23,31.111c-2.535.306-6.509,1.125-6.429,5.545s.4,4.66-1.205,5.705-7.876,6.911-6.589,13.018,11.411,8.92,20.813,6.51,11.653-6.51,11.01-10.126-3.376-9.483-7.153-10.688c-3.535-1.126-3.134-1.366-3.616-4.742s-2.17-5.785-6.831-5.223" transform="translate(-232.793 -17.188)" fill="#afd1df"/>
        <path id="Trazado_832726" data-name="Trazado 832726" d="M277.014,8.271c1.115,3.98,2.981,7.765,3.857,11.813.121.562.981.324.86-.237-.876-4.048-2.741-7.833-3.857-11.813a.446.446,0,0,0-.86.237" transform="translate(-245.623 -4.275)"/>
        <path id="Trazado_832727" data-name="Trazado 832727" d="M208.373,44.485c1.473-.084,2.633,1.916,3.2,3.039.441.874,1.62,4.355-.045,4.72-.281.062-.161.492.119.43,1.745-.383,1.073-3.207.73-4.334-.48-1.581-2.034-4.413-4-4.3-.286.017-.288.463,0,.446" transform="translate(-207.492 -24.393)"/>
        <path id="Trazado_832728" data-name="Trazado 832728" d="M223.324,150.306c.834,5.59,8.591,5.45,12.874,5.254a30.822,30.822,0,0,0,9.4-1.639,5.238,5.238,0,0,0,3.21-4.99c.014-.288-.432-.286-.446,0-.135,2.712-1.569,4.242-4.121,4.949a37.985,37.985,0,0,1-8.431,1.253,23.161,23.161,0,0,1-7.523-.628,8.339,8.339,0,0,1-3.39-1.7,4.134,4.134,0,0,1-1.14-2.617c-.042-.284-.472-.162-.43.119" transform="translate(-215.891 -82.38)"/>
        <path id="Trazado_832729" data-name="Trazado 832729" d="M270.389,1.868c.455,2.274,1.607,3.455,3.535,2.572s.8-2.813-.08-3.858-3.857-.723-3.455,1.286" transform="translate(-241.944 0)" fill="#ffe7b8"/>
        <path id="Trazado_832730" data-name="Trazado 832730" d="M271.163,1.471c1.194-.521,3.16,1.818,2.3,2.865-.181.22.133.538.315.315,1.2-1.464-1.166-4.3-2.841-3.565-.263.115-.036.5.225.385" transform="translate(-242.203 -0.536)"/>
        <path id="Trazado_832731" data-name="Trazado 832731" d="M274.944,36.643c-.4,2.161,2.179,2.627,3.794,2.721,2.24.13,5.4-.308,6.739-2.309.161-.24-.226-.463-.385-.225-1.132,1.691-3.66,2.009-5.535,2.094-1.361.062-4.56-.121-4.182-2.162.052-.281-.378-.4-.43-.119" transform="translate(-244.464 -20.209)"/>
        <path id="Trazado_832732" data-name="Trazado 832732" d="M271.736,55.444c.053,2.612,2.936,3.227,5,3.336,2.963.155,5.979-.283,7.787-2.9.164-.237-.223-.46-.385-.225-1.522,2.2-4.089,2.774-6.62,2.714-1.946-.046-5.286-.248-5.34-2.923a.223.223,0,0,0-.446,0" transform="translate(-242.71 -30.593)"/>
      </g>
    </g>
    <g id="Grupo_1087182" data-name="Grupo 1087182" transform="translate(-465.647 -11290.032)">
      <g id="Grupo_81616" data-name="Grupo 81616" transform="translate(24.404 12.96) rotate(79)">
        <path id="Trazado_113954" data-name="Trazado 113954" d="M23.845,0a.891.891,0,0,0-.179.018L.744,4.529A.921.921,0,0,0,1.1,6.337L24.022,1.826A.922.922,0,0,0,23.845,0" transform="translate(0 9.253)" fill="#12263f"/>
        <path id="Trazado_113955" data-name="Trazado 113955" d="M4.916,0A.922.922,0,0,0,4.01.764l-4,23.018A.921.921,0,0,0,1.83,24.1l4-23.018A.922.922,0,0,0,4.916,0" transform="translate(9.463 0)" fill="#12263f"/>
      </g>
      <path id="Trazado_113965" data-name="Trazado 113965" d="M15.344,0a.922.922,0,0,0-.825.51L.1,29.407a.922.922,0,0,0,1.282,1.211L36.361,10.594a.922.922,0,0,0-.093-1.646L15.708.075A.922.922,0,0,0,15.344,0M3.1,27.507,15.778,2.113l18.068,7.8Z" transform="translate(47.922 0) rotate(79)" fill="#3ece9b"/>
    </g>
    <g id="Grupo_1087183" data-name="Grupo 1087183" transform="translate(-973.315 -13431.576)">
      <path id="Trazado_114185" data-name="Trazado 114185" d="M.927,7.233A11.812,11.812,0,1,0,11.821,0,11.815,11.815,0,0,0,.927,7.233" transform="translate(830.14 2283.002)" fill="url(#linear-gradient)"/>
      <path id="Trazado_113946" data-name="Trazado 113946" d="M37.449,0,35.7.083l.855,18.134-18.556.553.553,18.572L0,37.9.023,56.82l1.755,0L1.757,39.6l18.6-.555L19.8,20.472l18.587-.553Z" transform="translate(875.129 2270.555) rotate(79)" fill="#12263f"/>
    </g>
  </g>
</svg>
