<svg xmlns="http://www.w3.org/2000/svg" xmlns:xlink="http://www.w3.org/1999/xlink" width="400" height="586" viewBox="0 0 400 586">
  <defs>
    <clipPath id="clip-path">
      <rect id="Rectángulo_384251" data-name="Rectángulo 384251" width="400" height="586" rx="14" transform="translate(1019.9 3086)" fill="#f6f6f6" opacity="0.42"/>
    </clipPath>
    <clipPath id="clip-path-2">
      <rect id="Rectángulo_384022" data-name="Rectángulo 384022" width="582" height="571" transform="translate(-0.417 -0.354)" fill="#f3f9ff"/>
    </clipPath>
    <clipPath id="clip-path-3">
      <rect id="Rectángulo_384000" data-name="Rectángulo 384000" width="627.819" height="605.952" fill="none"/>
    </clipPath>
  </defs>
  <g id="Enmascarar_grupo_1088146" data-name="Enmascarar grupo 1088146" transform="translate(-1019.9 -3086)" clip-path="url(#clip-path)">
    <g id="Enmascarar_grupo_1075535" data-name="Enmascarar grupo 1075535" transform="translate(867.318 3101.354)" clip-path="url(#clip-path-2)">
      <rect id="Rectángulo_383990" data-name="Rectángulo 383990" width="367.732" height="539.989" transform="translate(161.9 42.102)" fill="#3a3e44"/>
      <rect id="Rectángulo_383991" data-name="Rectángulo 383991" width="227.888" height="77.237" transform="translate(15.341 252.751)" fill="#262626"/>
      <g id="Grupo_1087240" data-name="Grupo 1087240" transform="translate(-32.303 20.321)">
        <g id="Grupo_1087239" data-name="Grupo 1087239" clip-path="url(#clip-path-3)">
          <path id="Trazado_831885" data-name="Trazado 831885" d="M257.7,154.015V185.3a45.546,45.546,0,0,0,6.255,23.577c5.651,9.37,16.348,19.422,36.528,22.148H72.594c-20.182-2.726-30.877-12.778-36.528-22.148A45.547,45.547,0,0,1,29.811,185.3V154.015Z" transform="translate(17.832 87.042)" fill="#73716e"/>
          <path id="Trazado_831886" data-name="Trazado 831886" d="M310.187,232.088H72.892c-21.275-2.866-31.97-13.834-37.215-22.532a46.337,46.337,0,0,1-6.367-23.975V153.515H258.8v32.067a44.8,44.8,0,0,0,6.145,23.178c5.061,8.394,15.4,18.98,35.894,21.763h9.353ZM30.908,155.08v30.5a44.813,44.813,0,0,0,6.145,23.178c5.066,8.4,15.414,19,35.948,21.771l219.726-.008c-15.983-4.195-24.618-13.432-29.162-20.967a46.357,46.357,0,0,1-6.367-23.975v-30.5Z" transform="translate(17.533 86.76)" fill="#262626"/>
          <path id="Trazado_831887" data-name="Trazado 831887" d="M29.81,46.675V216.341c0,16.955,14.029,30.694,31.342,30.694H257.7V46.675Z" transform="translate(17.832 26.38)" fill="#f2eadf"/>
          <path id="Trazado_831888" data-name="Trazado 831888" d="M258.8,248.1H61.452c-17.722,0-32.141-14.121-32.141-31.478V142.416h1.6v74.207c0,16.494,13.7,29.913,30.543,29.913H257.2V47.739H70.822V46.174H258.8Z" transform="translate(17.533 26.097)" fill="#262626"/>
          <path id="Trazado_831889" data-name="Trazado 831889" d="M79.794,158.781a31.128,31.128,0,0,1-28.518,24.8l-.128.113H281.12c22.271-1.7,28.881-24.912,28.881-24.912Z" transform="translate(30.596 89.736)" fill="#f2eadf"/>
          <path id="Trazado_831890" data-name="Trazado 831890" d="M297.922,163.476a34.7,34.7,0,0,0,1.859-4.7H69.572a30.674,30.674,0,0,1-1.338,4.7Z" transform="translate(40.816 89.736)" fill="#fff"/>
          <path id="Trazado_831891" data-name="Trazado 831891" d="M281.938,184.759H49.834l1.9-1.656.272-.019A30.34,30.34,0,0,0,79.8,158.916l.125-.635H311.838l-.283.992c-.067.238-7.021,23.756-29.587,25.484ZM59.722,183.193H281.876c18.828-1.46,26.242-18.957,27.81-23.347H81.232a31.743,31.743,0,0,1-21.51,23.347" transform="translate(29.81 89.453)" fill="#262626"/>
          <rect id="Rectángulo_383992" data-name="Rectángulo 383992" width="226.555" height="248.562" transform="translate(317.926 0.784)" fill="#f2eadf"/>
          <path id="Trazado_831892" data-name="Trazado 831892" d="M426.583,249.344h-1.6V1.565H200.028v247.78h-1.6V0H426.583Z" transform="translate(118.697 0.001)" fill="#262626"/>
          <rect id="Rectángulo_383993" data-name="Rectángulo 383993" width="180.174" height="1.565" transform="translate(364.307 209.279)" fill="#262626"/>
          <path id="Trazado_831893" data-name="Trazado 831893" d="M262.66,177.262,248,185.553l0-151.733,14.663-8.289Z" transform="translate(148.346 14.43)" fill="#fff"/>
          <path id="Trazado_831894" data-name="Trazado 831894" d="M262.659,142.032,248,150.322l0-54.163,14.663-8.289Z" transform="translate(148.347 49.661)" fill="#73716e"/>
          <path id="Trazado_831895" data-name="Trazado 831895" d="M247.5,187.4l0-153.539,16.26-9.194,0,153.539Zm1.6-152.636,0,149.924,13.064-7.384,0-149.925Z" transform="translate(148.048 13.941)" fill="#262626"/>
          <path id="Trazado_831896" data-name="Trazado 831896" d="M283.141,190.98l-14.662,8.291,0-171.889,14.663-8.291Z" transform="translate(160.598 10.791)" fill="#fff"/>
          <path id="Trazado_831897" data-name="Trazado 831897" d="M283.14,172.02l-14.662,8.291,0-119.38,14.662-8.289Z" transform="translate(160.598 29.752)" fill="#9697f8"/>
          <path id="Trazado_831898" data-name="Trazado 831898" d="M267.979,201.115l0-173.7,16.26-9.2,0,173.7Zm1.6-172.792,0,170.081,13.064-7.386,0-170.081Z" transform="translate(160.299 10.301)" fill="#262626"/>
          <path id="Trazado_831899" data-name="Trazado 831899" d="M303.622,177.262l-14.662,8.291,0-151.733,14.663-8.289Z" transform="translate(172.849 14.43)" fill="#fff"/>
          <path id="Trazado_831900" data-name="Trazado 831900" d="M303.622,154.9l-14.662,8.291,0-89.811,14.662-8.291Z" transform="translate(172.85 36.788)" fill="#73716e"/>
          <path id="Trazado_831901" data-name="Trazado 831901" d="M288.46,187.4l0-153.539,16.26-9.194,0,153.539Zm1.6-152.636,0,149.924,13.063-7.384,0-149.925Z" transform="translate(172.551 13.941)" fill="#262626"/>
          <rect id="Rectángulo_383994" data-name="Rectángulo 383994" width="1.598" height="180.18" transform="translate(363.179 29.882)" fill="#262626"/>
          <rect id="Rectángulo_383995" data-name="Rectángulo 383995" width="60.782" height="39.385" transform="translate(203.695 89.018)" fill="#fff"/>
          <rect id="Rectángulo_383996" data-name="Rectángulo 383996" width="76.443" height="13.95" transform="translate(187.683 178.583)" fill="#fff"/>
          <path id="Trazado_831902" data-name="Trazado 831902" d="M192.976,127.114H114.935V111.6h78.041Zm-76.443-1.565h74.845V113.164H116.533Z" transform="translate(68.752 63.071)" fill="#262626"/>
          <rect id="Rectángulo_383997" data-name="Rectángulo 383997" width="118.126" height="1.565" transform="translate(163.983 99.917)" fill="#262626"/>
          <rect id="Rectángulo_383998" data-name="Rectángulo 383998" width="118.126" height="1.565" transform="translate(163.983 115.495)" fill="#262626"/>
          <rect id="Rectángulo_383999" data-name="Rectángulo 383999" width="109.591" height="9.175" transform="translate(426.47 220.541)" fill="#9697f8"/>
          <path id="Trazado_831903" data-name="Trazado 831903" d="M374.535,148.147H263.348v-10.74H374.535Zm-109.589-1.565H372.937v-7.61H264.946Z" transform="translate(157.53 77.656)" fill="#262626"/>
        </g>
      </g>
      <rect id="Rectángulo_384001" data-name="Rectángulo 384001" width="318.485" height="1.565" transform="translate(247.991 569.107)" fill="#262626"/>
      <g id="Grupo_1087242" data-name="Grupo 1087242" transform="translate(-36.659 -36.062)">
        <g id="Grupo_1087241" data-name="Grupo 1087241" clip-path="url(#clip-path-3)">
          <path id="Trazado_831904" data-name="Trazado 831904" d="M272.616,117.428c0,2.232-4.19,4.033-4.616,6.143-.439,2.174,2.72,5.4,1.873,7.4-.863,2.035-5.437,2.127-6.674,3.936s.409,6-1.168,7.541-5.84-.075-7.7,1.144-1.942,5.691-4.019,6.535c-2.042.829-5.34-2.265-7.559-1.834-2.154.418-3.994,4.52-6.273,4.52s-4.119-4.1-6.273-4.52c-2.221-.43-5.519,2.664-7.561,1.834-2.079-.844-2.172-5.325-4.019-6.535s-6.123.4-7.7-1.146.077-5.717-1.17-7.541-5.809-1.9-6.672-3.935c-.846-2,2.313-5.231,1.873-7.4-.425-2.11-4.616-3.911-4.616-6.143s4.19-4.033,4.616-6.143c.44-2.174-2.719-5.4-1.871-7.4.861-2.035,5.435-2.127,6.672-3.936s-.409-6,1.168-7.541,5.84.075,7.7-1.144c1.846-1.211,1.94-5.691,4.018-6.535,2.042-.83,5.341,2.265,7.561,1.834,2.154-.418,3.992-4.52,6.273-4.52s4.117,4.1,6.273,4.52c2.22.43,5.517-2.664,7.561-1.834,2.078.844,2.17,5.323,4.018,6.535s6.123-.4,7.7,1.146-.078,5.719,1.168,7.541,5.811,1.9,6.672,3.936c.847,2-2.313,5.229-1.873,7.4.425,2.11,4.616,3.911,4.616,6.143" transform="translate(119.841 46.365)" fill="#262626"/>
          <path id="Trazado_831905" data-name="Trazado 831905" d="M237.284,160.674c-2.132-19.323-2.135-19.358-4.069-36.867a13.53,13.53,0,0,0-26.958,1.338c0,.163.019.321.026.482.644,17.688.644,17.688,1.37,37.144a14.875,14.875,0,0,0,29.721-.532,14.5,14.5,0,0,0-.09-1.565" transform="translate(123.379 63.247)" fill="#802f1d"/>
          <path id="Trazado_831906" data-name="Trazado 831906" d="M260.26,224.64q-2.867-31.14-6.174-66.847a12.131,12.131,0,0,0-.722-3.1,12.271,12.271,0,0,0-15.691-7.006,11.915,11.915,0,0,0-7.807,12.8c0,.075.014.147.024.221q4.931,35.382,9.236,66.284a10.56,10.56,0,0,0,14.27,8.355,10.407,10.407,0,0,0,6.864-10.7" transform="translate(137.434 83.035)" fill="#73716e"/>
          <path id="Trazado_831907" data-name="Trazado 831907" d="M215.445,157.464a12.041,12.041,0,0,0-11.534-12.557,12.171,12.171,0,0,0-12.373,8.687,2,2,0,0,0-.069.21q-9.9,34.373-18.542,64.389a10.672,10.672,0,0,0-.384,2.279,10.5,10.5,0,0,0,10.065,10.958,10.63,10.63,0,0,0,10.654-7.129q10.061-29.675,21.579-63.708a12.229,12.229,0,0,0,.6-3.127" transform="translate(103.204 81.886)" fill="#615f5d"/>
          <path id="Trazado_831908" data-name="Trazado 831908" d="M193.086,147.569l-7.641,32.618a38.162,38.162,0,0,0-1.005,8.7v.085a38.125,38.125,0,0,0,.793,7.735l10.735,51.828,54.431.435,23.223-97.728-24.932-8.148-26.781-2.254Z" transform="translate(110.329 79.596)" fill="#73716e"/>
          <path id="Trazado_831909" data-name="Trazado 831909" d="M194.319,192.514c-3.085-2.816-12.224-12.069-12.224-12.069L167.113,196.97s11.483,12.7,13.332,13.783a11.8,11.8,0,0,0,5.349,1.593,11.586,11.586,0,0,0,12.277-10.814,11.293,11.293,0,0,0-3.753-9.018" transform="translate(99.964 101.979)" fill="#73716e"/>
          <path id="Trazado_831910" data-name="Trazado 831910" d="M253.822,147.679l-14.037-4.587L213,140.838l-13.626,3.182c-.01.146-.046.29-.046.437,0,7.316,12.408,13.244,27.714,13.244,12.782,0,23.575-4.4,26.777-10.022" transform="translate(119.236 79.595)" fill="#802f1d"/>
          <path id="Trazado_831911" data-name="Trazado 831911" d="M236.958,332.447a12.917,12.917,0,0,0-5.646-12.178,13.479,13.479,0,0,0-18.509,3.3,12.76,12.76,0,0,0-2.356,7.55c.265,26.053.479,46.291.673,64.529a9.1,9.1,0,0,0,4.011,7.4,9.437,9.437,0,0,0,12.956-2.307,8.914,8.914,0,0,0,1.557-4.187c2.1-18.118,4.377-38.226,7.313-64.107" transform="translate(125.885 179.69)" fill="#262626"/>
          <path id="Trazado_831912" data-name="Trazado 831912" d="M253.437,204.884H195.324L185.27,226.162l-2.217,42.847,89.225-10.427Z" transform="translate(109.499 115.791)" fill="#9697f8"/>
          <path id="Trazado_831913" data-name="Trazado 831913" d="M246.863,310.711a19.514,19.514,0,0,0-38.983-1.684c-.014.3,0,.595,0,.891.074,38.215.139,63.672.214,93.2l30.091,1.3c2.728-29.409,5.081-54.761,8.613-92.819,0-.3.048-.587.061-.888" transform="translate(124.347 164.324)" fill="#9697f8"/>
          <path id="Trazado_831914" data-name="Trazado 831914" d="M245.115,265.431a26.417,26.417,0,0,0,3.212-12.629c0-14.871-12.309-26.924-27.492-26.924a27.442,27.442,0,0,0-26.156,18.646c-.019.044-.034.086-.05.133-.024.077-.051.152-.075.229C178.372,293.923,178.338,294.023,166.8,329a18.826,18.826,0,0,0-.946,5.875,19.313,19.313,0,0,0,19.511,19.107,19.556,19.556,0,0,0,17.228-10.147c17.618-32.48,17.658-32.552,42.382-78.14.029-.052.056-.1.085-.156s.038-.072.059-.109" transform="translate(99.209 127.655)" fill="#9697f8"/>
          <path id="Trazado_831915" data-name="Trazado 831915" d="M260.388,255.769c.67-14.855-11.087-27.429-26.255-28.083s-28.008,10.856-28.676,25.712c-.035.779-.018,1.548.014,2.313,2.252,53.005,2.252,53.005,3.863,90.622a19.543,19.543,0,0,0,38.828,1.676c5-37.332,5-37.332,12.02-89.935.083-.761.171-1.526.206-2.305" transform="translate(122.889 128.662)" fill="#9697f8"/>
          <path id="Trazado_831916" data-name="Trazado 831916" d="M240.017,377c-8.418-16.265-17.8-34.289-29.872-57.491a13.323,13.323,0,0,0-11.553-7.134,13.182,13.182,0,0,0-13.612,12.717,12.766,12.766,0,0,0,2.271,7.575c14.846,21.621,26.383,38.412,36.779,53.544a9.4,9.4,0,0,0,7.507,4.025,9.226,9.226,0,0,0,9.528-8.9A8.858,8.858,0,0,0,240.017,377" transform="translate(110.65 176.537)" fill="#802f1d"/>
          <path id="Trazado_831917" data-name="Trazado 831917" d="M249.064,246.609h-3.713a14.039,14.039,0,0,1-11.523-5.952l-15.814-22.641,1.32-.883,15.814,22.641a12.427,12.427,0,0,0,10.2,5.27h3.713Z" transform="translate(130.413 122.713)" fill="#262626"/>
          <path id="Trazado_831918" data-name="Trazado 831918" d="M207.979,285.275l-6.7-8.458V203.839h1.6v72.443l6.364,8.034Z" transform="translate(120.403 115.2)" fill="#262626"/>
          <path id="Trazado_831919" data-name="Trazado 831919" d="M0,0,1.569.011,1.764,29.4.194,29.386Z" transform="translate(294.498 382.714) rotate(-70.2)" fill="#262626"/>
          <rect id="Rectángulo_384002" data-name="Rectángulo 384002" width="1.598" height="11.869" transform="translate(343.525 320.675)" fill="#262626"/>
          <rect id="Rectángulo_384003" data-name="Rectángulo 384003" width="1.598" height="11.145" transform="translate(307.827 320.675)" fill="#262626"/>
          <path id="Trazado_831920" data-name="Trazado 831920" d="M238.572,365.386s-34.733-69.236-35.242-70.413a19.521,19.521,0,0,0-17.968-11.662,19.313,19.313,0,0,0-19.512,19.107,18.752,18.752,0,0,0,.948,5.871,18.987,18.987,0,0,0,2.891,5.5c.593.783,39.913,62.595,39.913,62.595Z" transform="translate(99.209 160.113)" fill="#9697f8"/>
          <path id="Trazado_831921" data-name="Trazado 831921" d="M183.214,182.93c.014,2.4-1.641,5.965-4.508,9.266a19.125,19.125,0,0,1-7.318,5.473,7.134,7.134,0,0,1-.976.274,3.258,3.258,0,0,1-2.779-.434c-1.02-.869-1.124-2.578-.473-4.677.118-.376.267-.781.43-1.186a21.884,21.884,0,0,1,3.65-5.691c3.474-3.982,7.614-6.312,10.024-5.791a2.3,2.3,0,0,1,1.02.449,2.239,2.239,0,0,1,.636.869,3.2,3.2,0,0,1,.3,1.448" transform="translate(99.747 101.78)" fill="#262626"/>
          <path id="Trazado_831922" data-name="Trazado 831922" d="M243.569,366.9l1.2,25.674h-54.03v-6.647s29.277-4.822,34.6-19.027Z" transform="translate(114.095 207.354)" fill="#262626"/>
          <rect id="Rectángulo_384004" data-name="Rectángulo 384004" width="54.03" height="4.367" transform="translate(304.831 599.931)" fill="#73716e"/>
          <path id="Trazado_831923" data-name="Trazado 831923" d="M0,0,1.595.009,1.651,9.2.056,9.186Z" transform="matrix(0.954, -0.301, 0.301, 0.954, 309.402, 592.381)" fill="#73716e"/>
          <rect id="Rectángulo_384005" data-name="Rectángulo 384005" width="38.991" height="1.565" transform="translate(319.87 601.332)" fill="#262626"/>
          <rect id="Rectángulo_384006" data-name="Rectángulo 384006" width="1.598" height="4.691" transform="translate(319.071 599.606)" fill="#262626"/>
          <path id="Trazado_831924" data-name="Trazado 831924" d="M225.424,349.14l15.693,12.875L209.242,404.74l-5.48-3.921s8.91-16.154,4.139-42.462Z" transform="translate(121.887 197.316)" fill="#73716e"/>
          <path id="Trazado_831925" data-name="Trazado 831925" d="M213.3,382.807l-8.424-2.761.505-1.485,8.424,2.761Z" transform="translate(122.556 213.943)" fill="#f2eadf"/>
          <path id="Trazado_831926" data-name="Trazado 831926" d="M0,0,53.3.532l.044,4.425L.044,4.425Z" transform="matrix(0.59, -0.807, 0.807, 0.59, 331.131, 602.057)" fill="#f2eadf"/>
          <path id="Trazado_831927" data-name="Trazado 831927" d="M0,0,38.467.384l.016,1.586L.016,1.586Z" transform="matrix(0.59, -0.807, 0.807, 0.59, 341.151, 590.987)" fill="#262626"/>
          <path id="Trazado_831928" data-name="Trazado 831928" d="M0,0,1.576.016,1.62,4.441.044,4.425Z" transform="translate(339.53 590.798) rotate(-53.853)" fill="#262626"/>
          <path id="Trazado_831929" data-name="Trazado 831929" d="M219.651,368.54a6.774,6.774,0,0,1-6.835-6.694h1.6a5.238,5.238,0,1,0,5.237-5.131,5.266,5.266,0,0,0-4.576,2.631l-1.4-.764a6.872,6.872,0,0,1,5.971-3.432,6.7,6.7,0,1,1,0,13.39" transform="translate(127.303 200.713)" fill="#f2eadf"/>
          <path id="Trazado_831930" data-name="Trazado 831930" d="M251.265,239.086H198.044a1.967,1.967,0,0,1-1.884-2.9l27.052-73.056a4.664,4.664,0,0,1,4.029-2.9h53.221a1.966,1.966,0,0,1,1.884,2.9l-27.052,73.056a4.662,4.662,0,0,1-4.029,2.9" transform="translate(117.226 90.56)" fill="#f2eadf"/>
          <path id="Trazado_831931" data-name="Trazado 831931" d="M252.19,240.011H198.971a1.967,1.967,0,0,1-1.886-2.9l27.054-73.056a4.66,4.66,0,0,1,4.029-2.9h53.219a1.966,1.966,0,0,1,1.884,2.9l-27.052,73.056a4.661,4.661,0,0,1-4.029,2.9" transform="translate(117.78 91.083)" fill="#262626"/>
          <path id="Trazado_831932" data-name="Trazado 831932" d="M216.2,183.012c-5.968-.506-8.3-.7-12.28-1.027-.058,0-.112-.006-.168-.006a1.974,1.974,0,0,0-2,1.947,1.952,1.952,0,0,0,1.513,1.881c3.877.955,6.143,1.507,11.954,2.928a3.613,3.613,0,0,0,.73.088,2.909,2.909,0,0,0,.249-5.811" transform="translate(120.682 102.846)" fill="#802f1d"/>
          <path id="Trazado_831933" data-name="Trazado 831933" d="M217.274,177.111a3.062,3.062,0,0,0-.417.041c-4.75.639-4.75.639-7.919,1.072-.077.019-.15.033-.224.052-3.276.822-3.276.822-5.216,1.312a1.186,1.186,0,0,0-.885,1.116,1.16,1.16,0,0,0,1.127,1.141c1.99.1,2.01.1,5.322.25l7.89.834c.107,0,.213.017.323.017a2.918,2.918,0,1,0,0-5.835" transform="translate(121.199 100.095)" fill="#802f1d"/>
          <path id="Trazado_831934" data-name="Trazado 831934" d="M214.5,187.553c-5.71-1.762-5.856-1.808-9.669-2.975a2.449,2.449,0,0,0-.6-.089,1.974,1.974,0,0,0-2,1.947,1.929,1.929,0,0,0,1.044,1.7c3.5,1.877,3.636,1.947,8.892,4.749a3.216,3.216,0,0,0,1.438.358,2.958,2.958,0,0,0,3-2.919,2.92,2.92,0,0,0-2.1-2.77" transform="translate(120.969 104.264)" fill="#802f1d"/>
          <path id="Trazado_831935" data-name="Trazado 831935" d="M213.571,191.174c-5-2.4-5-2.4-8.338-4a2.134,2.134,0,0,0-.882-.2,1.975,1.975,0,0,0-2,1.947,1.919,1.919,0,0,0,.762,1.518c2.91,2.259,2.91,2.259,7.28,5.633a3.117,3.117,0,0,0,1.862.632,2.959,2.959,0,0,0,3-2.919,2.9,2.9,0,0,0-1.681-2.609" transform="translate(121.043 105.668)" fill="#802f1d"/>
          <path id="Trazado_831936" data-name="Trazado 831936" d="M211.8,192.56c-4.1-1.413-4.1-1.413-6.669-2.291a2.2,2.2,0,0,0-.527-.088,1.571,1.571,0,0,0-1.592,1.549,1.514,1.514,0,0,0,.7,1.249c2.225,1.534,2.225,1.534,5.8,3.946a2.609,2.609,0,0,0,1.446.44,2.512,2.512,0,0,0,2.544-2.478,2.474,2.474,0,0,0-1.705-2.327" transform="translate(121.439 107.481)" fill="#802f1d"/>
          <path id="Trazado_831937" data-name="Trazado 831937" d="M266.671,200.272l-35.139-13.155-10.669-8.859-6.4-1.128-4.307,4.155,2.06,4.434-4.224,19.023H211.3l14.618-3.088,31.251,15.562a10.081,10.081,0,0,0,2.276,1.133l.072.036a10.442,10.442,0,0,0,3.307.548,9.839,9.839,0,0,0,9.966-9.707,9.708,9.708,0,0,0-6.119-8.954" transform="translate(124.415 100.106)" fill="#802f1d"/>
          <path id="Trazado_831938" data-name="Trazado 831938" d="M0,0,1.568.009l.041,6.919L.041,6.919Z" transform="matrix(0.298, -0.954, 0.954, 0.298, 328.177, 290.391)" fill="#262626"/>
          <path id="Trazado_831939" data-name="Trazado 831939" d="M196.971,203.563c.014,2.4-1.641,5.965-4.508,9.266a19.127,19.127,0,0,1-7.318,5.473,7.127,7.127,0,0,1-.976.274c-1.005-1.564-2.1-3.285-3.252-5.11-9.461-14.985-22.854-37.208-22.854-37.208l-.844-3.966-13.466-17.055,7.451-11.654L171,147.432l.785,21.385,24.259,32.43.636.869a3.2,3.2,0,0,1,.3,1.448" transform="translate(85.99 81.146)" fill="#802f1d"/>
          <path id="Trazado_831940" data-name="Trazado 831940" d="M162.994,144.353,161.63,157.2l-4.678,2.24-10.844-6.24,11.36-10.623Z" transform="translate(87.4 80.576)" fill="#262626"/>
          <path id="Trazado_831941" data-name="Trazado 831941" d="M151.854,148.014a2.347,2.347,0,0,0,.336-1.33,2.431,2.431,0,0,0-4.43-1.194c-1.964,2.863-1.964,2.863-4.087,5.969a2.57,2.57,0,0,0-.44,1.56,2.638,2.638,0,0,0,4.881,1.179c1.942-3.209,1.947-3.216,3.729-6.167l.011-.017" transform="translate(85.678 81.626)" fill="#802f1d"/>
          <path id="Trazado_831942" data-name="Trazado 831942" d="M158.28,147.551c-.858-1.686-.865-1.7-2.06-4.035a1.786,1.786,0,0,0-1.681-.977,1.745,1.745,0,0,0-1.678,1.816,1.705,1.705,0,0,0,.4,1c1.7,2.058,1.7,2.058,2.913,3.526a1.331,1.331,0,0,0,1.044.455,1.224,1.224,0,0,0,1.064-1.786" transform="translate(91.437 80.556)" fill="#73716e"/>
          <path id="Trazado_831943" data-name="Trazado 831943" d="M158.124,151.385c-1.36-2.085-1.672-2.556-3.6-5.459a1.8,1.8,0,0,0-1.571-.786,1.747,1.747,0,0,0-1.676,1.817,1.709,1.709,0,0,0,.452,1.06c2.346,2.589,2.728,3.007,4.408,4.852a1.34,1.34,0,0,0,1.007.413,1.248,1.248,0,0,0,1.2-1.3,1.19,1.19,0,0,0-.219-.6" transform="translate(90.491 82.025)" fill="#73716e"/>
          <path id="Trazado_831944" data-name="Trazado 831944" d="M155.926,152.831c-1.205-2.064-1.205-2.064-2.976-5.059a1.793,1.793,0,0,0-1.621-.861,1.745,1.745,0,0,0-1.675,1.817,1.7,1.7,0,0,0,.431,1.036c2.3,2.628,2.3,2.628,3.879,4.429a1.293,1.293,0,0,0,.983.413,1.2,1.2,0,0,0,1.151-1.249,1.131,1.131,0,0,0-.173-.527" transform="translate(89.52 83.027)" fill="#73716e"/>
          <path id="Trazado_831945" data-name="Trazado 831945" d="M159.5,138.623a2.666,2.666,0,0,0-.917.218c-3.041,1.26-3.214,1.141-5.407,1-.07,0-.139-.006-.211,0a1.75,1.75,0,1,0,.181,3.495,1.861,1.861,0,0,0,.211-.031c0,.008,5.482.47,5.482.47a2.977,2.977,0,0,0,.935.116,2.634,2.634,0,1,0-.273-5.26" transform="translate(90.484 78.342)" fill="#802f1d"/>
          <path id="Trazado_831946" data-name="Trazado 831946" d="M164.04,148.792c-2.308-4.879-2.316-4.9-4.093-8.648a2.7,2.7,0,0,0-2.576-1.521,2.655,2.655,0,0,0-2.549,2.764,2.489,2.489,0,0,0,.1.57c1.128,3.986,1.133,4.005,2.589,9.126a3.5,3.5,0,0,0,3.551,2.551,3.439,3.439,0,0,0,3.3-3.581,3.312,3.312,0,0,0-.323-1.261" transform="translate(92.609 78.342)" fill="#802f1d"/>
          <path id="Trazado_831947" data-name="Trazado 831947" d="M156.942,150.426c-2.509-5.833-8.795-20.383-9.819-22.751a1.369,1.369,0,0,0-.925-.754,1.312,1.312,0,0,0-1.565.977,1.224,1.224,0,0,0,.021.59c.633,2.5,4.6,17.811,6.19,23.947a3.225,3.225,0,0,0,3.3,2.382A3.19,3.19,0,0,0,157.2,151.5a3.1,3.1,0,0,0-.262-1.069" transform="translate(86.501 71.713)" fill="#802f1d"/>
          <path id="Trazado_831948" data-name="Trazado 831948" d="M158.41,144.824c-2.5-2.116-2.5-2.116-5.944-5.015a2.467,2.467,0,0,0-1.705-.571,2.392,2.392,0,0,0-2.3,2.492,2.361,2.361,0,0,0,1.167,1.909l6.714,3.975a1.788,1.788,0,0,0,1,.247,1.745,1.745,0,0,0,1.675-1.817,1.709,1.709,0,0,0-.614-1.221" transform="translate(88.807 78.69)" fill="#802f1d"/>
          <path id="Trazado_831949" data-name="Trazado 831949" d="M156.827,147.426c-2.5-2.116-2.5-2.116-5.944-5.015a2.466,2.466,0,0,0-1.7-.571,2.392,2.392,0,0,0-2.3,2.492,2.361,2.361,0,0,0,1.167,1.909c3.882,2.3,3.884,2.3,6.714,3.975a1.8,1.8,0,0,0,1,.247,1.745,1.745,0,0,0,1.675-1.817,1.709,1.709,0,0,0-.614-1.221" transform="translate(87.86 80.16)" fill="#802f1d"/>
          <path id="Trazado_831950" data-name="Trazado 831950" d="M154.779,148.665c-2.146-1.589-2.146-1.589-5.1-3.758a2.506,2.506,0,0,0-1.579-.473,2.393,2.393,0,0,0-2.3,2.492,2.363,2.363,0,0,0,1.4,2.017c3.332,1.545,3.332,1.545,5.766,2.665a1.9,1.9,0,0,0,.842.161,1.744,1.744,0,0,0,1.675-1.816,1.707,1.707,0,0,0-.708-1.29" transform="translate(87.217 81.626)" fill="#802f1d"/>
          <path id="Trazado_831951" data-name="Trazado 831951" d="M0,0,1.582.016l.164,15.689L.164,15.689Z" transform="matrix(0.727, -0.687, 0.687, 0.727, 281.983, 282.962)" fill="#262626"/>
          <rect id="Rectángulo_384007" data-name="Rectángulo 384007" width="15.275" height="1.565" transform="translate(367.189 381.194)" fill="#262626"/>
          <rect id="Rectángulo_384008" data-name="Rectángulo 384008" width="23.797" height="1.565" transform="translate(294.767 269.271)" fill="#262626"/>
          <rect id="Rectángulo_384009" data-name="Rectángulo 384009" width="11.445" height="1.565" transform="translate(364.804 254.965)" fill="#f2eadf"/>
          <path id="Trazado_831952" data-name="Trazado 831952" d="M166.868,160a3.009,3.009,0,0,0-1.152-.218,3.725,3.725,0,0,0-.681.072l1.05,1.42a.624.624,0,0,1,.237.058,2.664,2.664,0,0,1,1.36,2.071,8.5,8.5,0,0,1,.192,1.607,19.226,19.226,0,0,1-1.611,7.571c-1.951,4.735-4.835,7.688-6.816,8.165a1.835,1.835,0,0,1-1.124-.028c-.93-.377-1.507-1.709-1.552-3.678a5.2,5.2,0,0,1,.014-.665q-.686-1.108-1.285-2.129a14.779,14.779,0,0,0-.208,2.838c.074,2.606.946,4.373,2.469,4.98a3.47,3.47,0,0,0,1.152.218,3.943,3.943,0,0,0,1.317-.246c2.616-.884,5.5-4.3,7.406-8.9a21.411,21.411,0,0,0,1.7-7.514,4.768,4.768,0,0,0,.014-.637c-.074-2.62-.961-4.387-2.484-4.98" transform="translate(92.889 90.299)" fill="#f2eadf"/>
          <path id="Trazado_831953" data-name="Trazado 831953" d="M198.482,152.93a4.126,4.126,0,0,1-1.015-3.824l.535-2.138-1.432-1.919,1.678-3.678-2.033-3.761,1.384-2.449-1.873-1.222a2.354,2.354,0,0,1-.409-3.615l5.883-6.06a3.719,3.719,0,0,0,.754-4.054l-.176-.41a9.406,9.406,0,0,1-.353-6.483l1.509-4.927a9.563,9.563,0,0,1,2.381-3.955l10.1-10.117h30.99l12.682,21.6-4.823,19.5-51.158,18.611a4.31,4.31,0,0,1-4.627-1.1" transform="translate(116.438 53.304)" fill="#802f1d"/>
          <path id="Trazado_831954" data-name="Trazado 831954" d="M208.354,112.036l-2.974-1.888-6.063-.042.013-1.565,6.529.045,3.364,2.136Z" transform="translate(119.227 61.343)" fill="#262626"/>
          <path id="Trazado_831955" data-name="Trazado 831955" d="M0,0,2.821.007l0,1.6L0,1.6Z" transform="translate(320.257 175.425) rotate(-82.875)" fill="#262626"/>
          <path id="Trazado_831956" data-name="Trazado 831956" d="M0,0,1.568.01l.044,6.847L.044,6.847Z" transform="translate(319.534 175.866) rotate(-70.62)" fill="#262626"/>
          <path id="Trazado_831957" data-name="Trazado 831957" d="M200.608,116.25V112.3h1.6v1.684l2.973-1.1.566,1.463Z" transform="translate(120 63.467)" fill="#262626"/>
          <path id="Trazado_831958" data-name="Trazado 831958" d="M226.617,127.6l-5.292,4.9a5.759,5.759,0,0,1-3.043-5.843l.439-3.252a5.786,5.786,0,0,0-2.364-5.459l-3.55-2.575a3.821,3.821,0,0,1-.81-5.406l3.879-5.1-5.861-2.384a6.116,6.116,0,0,1-2.845-9.1c.043-.063,33.891-.063,33.891-.063l13.128,22.914-5.626,22.042-13.645,10.781-2.573-21.277Z" transform="translate(123.302 52.736)" fill="#262626"/>
          <path id="Trazado_831959" data-name="Trazado 831959" d="M216.53,127.573l2.143.634,8.1-2.919a4.728,4.728,0,0,0,3.155-4.431v-2.82a4.771,4.771,0,0,0-4.82-4.72,4.912,4.912,0,0,0-3.649,1.557l-5.821,6.315Z" transform="translate(128.99 64.042)" fill="#802f1d"/>
          <path id="Trazado_831960" data-name="Trazado 831960" d="M202.156,125.928h-4.863l-.889-.855a3.506,3.506,0,0,1-1.08-2.525v-.906Z" transform="translate(116.839 68.747)" fill="#262626"/>
          <path id="Trazado_831961" data-name="Trazado 831961" d="M197.293,124.381l-1.445,1.582a2,2,0,0,0-.524,1.346v1.269l6.832-4.2Z" transform="translate(116.839 70.295)" fill="#262626"/>
          <path id="Trazado_831962" data-name="Trazado 831962" d="M0,0,22.241.15l.011,1.568L.011,1.568Z" transform="translate(337.29 200.05) rotate(-20.376)" fill="#262626"/>
          <path id="Trazado_831963" data-name="Trazado 831963" d="M202.639,125.7H197.2v-1.565h3.845v-.714h1.6Z" transform="translate(117.959 69.755)" fill="#262626"/>
          <path id="Trazado_831964" data-name="Trazado 831964" d="M0,0,8.179.085,8.2,1.668.016,1.583Z" transform="matrix(0.677, -0.736, 0.736, 0.677, 348.056, 185.637)" fill="#201600"/>
          <path id="Trazado_831965" data-name="Trazado 831965" d="M0,0,30.988.216,31,1.785.011,1.569Z" transform="translate(308.52 535.766) rotate(-21.174)" fill="#262626"/>
        </g>
      </g>
      <g id="Grupo_1087248" data-name="Grupo 1087248" transform="translate(-32.303 -35.279)">
        <rect id="Rectángulo_384011" data-name="Rectángulo 384011" width="408.213" height="7.098" transform="translate(162.684 412.376)" fill="#73716e"/>
        <g id="Grupo_1087247" data-name="Grupo 1087247">
          <g id="Grupo_1087244" data-name="Grupo 1087244">
            <g id="Grupo_1087243" data-name="Grupo 1087243" clip-path="url(#clip-path-3)">
              <path id="Trazado_831966" data-name="Trazado 831966" d="M260.517,372.539l47.79-75.066a2.658,2.658,0,0,1,3.615-.822L341.1,314.466a2.571,2.571,0,0,1,1.156,1.548l3.422,13.186a2.568,2.568,0,0,0,1.156,1.548l48.331,29.511A2.543,2.543,0,0,1,396,363.8l-41.932,65.86a2.656,2.656,0,0,1-3.615.822l-89.1-54.4a2.54,2.54,0,0,1-.839-3.542" transform="translate(155.599 167.433)"/>
              <path id="Trazado_831967" data-name="Trazado 831967" d="M0,0,29.262.276l.987,105.693L.987,105.693Z" transform="matrix(0.529, -0.849, 0.849, 0.529, 442.128, 499.112)" fill="#f2eadf"/>
              <path id="Trazado_831968" data-name="Trazado 831968" d="M350.453,424.4l-89.1-54.4a2.538,2.538,0,0,1-.839-3.54L297.478,308.4a3.012,3.012,0,0,1,4.1-.931l88.5,54.038a2.879,2.879,0,0,1,.951,4.015l-36.96,58.054a2.658,2.658,0,0,1-3.617.822" transform="translate(155.599 173.517)" fill="#9697f8"/>
              <rect id="Rectángulo_384012" data-name="Rectángulo 384012" width="72.85" height="71.645" transform="translate(411.006 534.308)" fill="#f2eadf"/>
              <rect id="Rectángulo_384013" data-name="Rectángulo 384013" width="81.074" height="71.645" transform="translate(483.856 534.308)" fill="#73716e"/>
              <path id="Trazado_831969" data-name="Trazado 831969" d="M307.35,360.053H270.737a5.883,5.883,0,1,1,0-11.765H307.35a5.883,5.883,0,1,1,0,11.765m-36.613-10.2a4.318,4.318,0,1,0,0,8.635H307.35a4.318,4.318,0,1,0,0-8.635Z" transform="translate(158.387 196.835)" fill="#262626"/>
              <path id="Trazado_831970" data-name="Trazado 831970" d="M337.964,373.847h81.074l-35.211-32.469H302.755Z" transform="translate(181.103 192.93)" fill="#262626"/>
            </g>
          </g>
          <path id="Trazado_831971" data-name="Trazado 831971" d="M508.1,270.637H98.294v-8.665H508.1ZM99.892,269.072H506.5v-5.534H99.892Z" transform="translate(58.798 148.054)" fill="#262626"/>
          <g id="Grupo_1087246" data-name="Grupo 1087246">
            <g id="Grupo_1087245" data-name="Grupo 1087245" clip-path="url(#clip-path-3)">
              <path id="Trazado_831972" data-name="Trazado 831972" d="M393.685,278.628H240.7a3.237,3.237,0,0,1-2.621-1.183,3.282,3.282,0,0,1-.5-2.916l23.479-86.578a5.213,5.213,0,0,1,4.815-3.7H418.858a3.237,3.237,0,0,1,2.619,1.185,3.281,3.281,0,0,1,.5,2.916L398.5,274.93a5.2,5.2,0,0,1-4.814,3.7M265.87,185.818a3.651,3.651,0,0,0-3.27,2.537L239.121,274.93a1.733,1.733,0,0,0,.224,1.559,1.664,1.664,0,0,0,1.354.574H393.685a3.644,3.644,0,0,0,3.268-2.534l23.482-86.578a1.735,1.735,0,0,0-.225-1.559,1.658,1.658,0,0,0-1.352-.574Z" transform="translate(142.032 104.131)" fill="#262626"/>
              <path id="Trazado_831973" data-name="Trazado 831973" d="M395.386,277.563H242.4a2.331,2.331,0,0,1-2.351-3.118l23.48-86.576a4.432,4.432,0,0,1,4.042-3.116H420.558a2.331,2.331,0,0,1,2.351,3.116l-23.48,86.576a4.433,4.433,0,0,1-4.042,3.118" transform="translate(143.527 104.414)" fill="#fff"/>
              <rect id="Rectángulo_384015" data-name="Rectángulo 384015" width="25.847" height="39.831" transform="translate(463.92 342.145)" fill="#73716e"/>
              <path id="Trazado_831974" data-name="Trazado 831974" d="M395.685,278.628H242.7a3.237,3.237,0,0,1-2.621-1.183,3.276,3.276,0,0,1-.5-2.916l23.479-86.578a5.213,5.213,0,0,1,4.815-3.7H420.856a3.238,3.238,0,0,1,2.621,1.185,3.281,3.281,0,0,1,.5,2.916L400.5,274.93a5.2,5.2,0,0,1-4.814,3.7M267.87,185.818a3.649,3.649,0,0,0-3.27,2.537L241.121,274.93a1.733,1.733,0,0,0,.224,1.559,1.664,1.664,0,0,0,1.354.574H395.685a3.646,3.646,0,0,0,3.268-2.534l23.482-86.578a1.735,1.735,0,0,0-.225-1.559,1.659,1.659,0,0,0-1.354-.574Z" transform="translate(143.229 104.131)" fill="#262626"/>
              <path id="Trazado_831975" data-name="Trazado 831975" d="M333.975,287.638H307.917L290.053,218.6h26.058Z" transform="translate(173.504 123.544)" fill="#fff"/>
              <path id="Trazado_831976" data-name="Trazado 831976" d="M335.388,288.7H307.682L289.41,218.1h27.706Zm-26.464-1.565h24.409l-17.459-67.469H291.464Z" transform="translate(173.12 123.261)" fill="#262626"/>
              <path id="Trazado_831977" data-name="Trazado 831977" d="M290.053,218.6h0Z" transform="translate(173.505 123.544)" fill="#fff"/>
              <rect id="Rectángulo_384016" data-name="Rectángulo 384016" width="34.466" height="1.565" transform="translate(463.558 341.364)" fill="#262626"/>
              <rect id="Rectángulo_384017" data-name="Rectángulo 384017" width="10.754" height="1.565" transform="translate(415.718 293.283)" fill="#262626"/>
              <rect id="Rectángulo_384018" data-name="Rectángulo 384018" width="1.828" height="1.565" transform="translate(431.204 293.283)" fill="#262626"/>
              <path id="Trazado_831978" data-name="Trazado 831978" d="M0,0,1.6.006l.751,191.081-1.6-.006Z" transform="translate(472.623 418.057) rotate(-10.942)" fill="#262626"/>
            </g>
          </g>
        </g>
        <rect id="Rectángulo_384020" data-name="Rectángulo 384020" width="194.756" height="1.565" transform="translate(66.794 603.85)" fill="#262626"/>
      </g>
      <rect id="Rectángulo_384021" data-name="Rectángulo 384021" width="5.301" height="1.565" transform="translate(233.665 568.324)" fill="#262626"/>
    </g>
  </g>
</svg>
