<svg xmlns="http://www.w3.org/2000/svg" xmlns:xlink="http://www.w3.org/1999/xlink" width="190" height="96.751" viewBox="0 0 190 96.751">
  <defs>
    <linearGradient id="linear-gradient" x1="0.5" y1="0.3" x2="0.5" y2="1" gradientUnits="objectBoundingBox">
      <stop offset="0" stop-color="#8fc3fc"/>
      <stop offset="1" stop-color="#be97f6"/>
    </linearGradient>
  </defs>
  <g id="Grupo_1088423" data-name="Grupo 1088423" transform="translate(-600.9 -4696.382)">
    <rect id="Rectángulo_377901" data-name="Rectángulo 377901" width="190" height="63" rx="7" transform="translate(600.9 4713.444)" fill="url(#linear-gradient)"/>
    <g id="clasificacion_2_" data-name="clasificacion (2)" transform="translate(639.08 4686.815)">
      <path id="Trazado_830451" data-name="Trazado 830451" d="M71.107,107.394H30.67a11.083,11.083,0,0,0-11.082,11.082v12.91H30.81v27.706H70.967V131.386H82.189v-12.91A11.082,11.082,0,0,0,71.107,107.394Z" transform="translate(-6.961 -57.868)" fill="#cecece"/>
      <g id="Grupo_1084223" data-name="Grupo 1084223" transform="translate(12.627 49.526)">
        <path id="Trazado_830452" data-name="Trazado 830452" d="M36.661,107.394H30.67a11.083,11.083,0,0,0-11.082,11.082v12.91h5.991v-12.91A11.083,11.083,0,0,1,36.661,107.394Z" transform="translate(-19.588 -107.394)" fill="#afafaf"/>
        <path id="Trazado_830453" data-name="Trazado 830453" d="M47.062,166.131h5.991v27.706H47.062Z" transform="translate(-35.84 -142.139)" fill="#afafaf"/>
      </g>
      <path id="Trazado_830454" data-name="Trazado 830454" d="M88.377,92.2a5.414,5.414,0,0,1-5.414-5.414V77.341a5.414,5.414,0,1,1,10.828,0v9.441A5.414,5.414,0,0,1,88.377,92.2Z" transform="translate(-44.45 -36.888)" fill="#f8af23"/>
      <path id="Trazado_830455" data-name="Trazado 830455" d="M82.963,77.683v9.441A5.415,5.415,0,0,0,86.8,92.3V72.5A5.416,5.416,0,0,0,82.963,77.683Z" transform="translate(-44.45 -37.229)" fill="#f87023"/>
      <circle id="Elipse_10720" data-name="Elipse 10720" cx="3.128" cy="3.128" r="3.128" transform="translate(26.955 27.206)" fill="#f87023"/>
      <circle id="Elipse_10721" data-name="Elipse 10721" cx="3.128" cy="3.128" r="3.128" transform="translate(54.644 27.206)" fill="#f8af23"/>
      <path id="Trazado_830456" data-name="Trazado 830456" d="M76.168,52.519A13.845,13.845,0,0,1,62.323,38.674V34.031a13.845,13.845,0,0,1,27.69,0v4.643A13.845,13.845,0,0,1,76.168,52.519Z" transform="translate(-32.24 -6.282)" fill="#f8af23"/>
      <g id="Grupo_1084224" data-name="Grupo 1084224" transform="translate(30.083 13.904)">
        <path id="Trazado_830457" data-name="Trazado 830457" d="M68.314,38.674V34.031A13.847,13.847,0,0,1,79.163,20.515a13.841,13.841,0,0,0-16.84,13.516v4.643A13.841,13.841,0,0,0,79.163,52.19,13.847,13.847,0,0,1,68.314,38.674Z" transform="translate(-62.323 -20.186)" fill="#f87023"/>
      </g>
      <g id="Grupo_1084225" data-name="Grupo 1084225" transform="translate(36.261 30.204)">
        <circle id="Elipse_10722" data-name="Elipse 10722" cx="1.501" cy="1.501" r="1.501" transform="translate(0 0)" fill="#3f3679"/>
        <circle id="Elipse_10723" data-name="Elipse 10723" cx="1.501" cy="1.501" r="1.501" transform="translate(12.33 0)" fill="#3f3679"/>
      </g>
      <path id="Trazado_830458" data-name="Trazado 830458" d="M122.257,37.424l1.374,6.363h1.835v-10.4h-3.209Z" transform="translate(-67.693 -14.088)" fill="#707070"/>
      <path id="Trazado_830459" data-name="Trazado 830459" d="M58.625,30.587h.792a1.922,1.922,0,0,0,1.668-.967L63.277,25.8a3.126,3.126,0,0,1,2.713-1.572H83.106A4.126,4.126,0,0,0,87.232,20.1v-4.9a4.126,4.126,0,0,0-4.126-4.126H63.02a3.3,3.3,0,0,0-3.154,2.34,1.463,1.463,0,0,1-.582.788l-1.2.808a4.55,4.55,0,0,0-1.9,4.779Z" transform="translate(-28.543 -0.887)" fill="#707070"/>
      <g id="Grupo_1084226" data-name="Grupo 1084226" transform="translate(27.529 10.179)">
        <path id="Trazado_830460" data-name="Trazado 830460" d="M64.074,15l1.2-.808a1.461,1.461,0,0,0,.582-.788,3.3,3.3,0,0,1,3.154-2.34H63.02a3.3,3.3,0,0,0-3.154,2.34,1.463,1.463,0,0,1-.582.788l-1.2.808a4.55,4.55,0,0,0-1.9,4.779l2.441,10.806h.792a1.922,1.922,0,0,0,1.668-.967l2.192-3.825a3.145,3.145,0,0,1,.192-.288l-1.294-5.726A4.55,4.55,0,0,1,64.074,15Z" transform="translate(-56.072 -11.066)" fill="#5b5b5b"/>
      </g>
      <path id="Trazado_830461" data-name="Trazado 830461" d="M79.691,103.92l5.425,7.2-5.425,3.053-2.241-8.836Z" transform="translate(-41.189 -55.813)" fill="#cecece"/>
      <path id="Trazado_830462" data-name="Trazado 830462" d="M101.643,103.92l-5.425,7.2,5.425,3.053,2.241-8.836Z" transform="translate(-52.29 -55.813)" fill="#cecece"/>
      <path id="Trazado_830463" data-name="Trazado 830463" d="M22.989,166.131V179.08a6.1,6.1,0,0,0,6.1,6.1H42.4a5.074,5.074,0,0,0,0-10.147h-9.58v-8.9Z" transform="translate(-8.973 -92.613)" fill="#f8af23"/>
      <g id="Grupo_1084227" data-name="Grupo 1084227" transform="translate(14.016 73.518)">
        <path id="Trazado_830464" data-name="Trazado 830464" d="M28.98,179.08V166.131H22.989V179.08a6.1,6.1,0,0,0,6.1,6.1h5.991A6.1,6.1,0,0,1,28.98,179.08Z" transform="translate(-22.989 -166.131)" fill="#f87023"/>
      </g>
      <path id="Trazado_830465" data-name="Trazado 830465" d="M134.71,93.19h41.541v57.5H134.71Z" transform="translate(-75.06 -49.466)" fill="#63bce7"/>
      <g id="Grupo_1084228" data-name="Grupo 1084228" transform="translate(95.201 43.724)">
        <path id="Trazado_830466" data-name="Trazado 830466" d="M221.745,93.19h5.991v57.5h-5.991Z" transform="translate(-221.745 -93.19)" fill="#63e2e7"/>
      </g>
      <path id="Trazado_830467" data-name="Trazado 830467" d="M178.878,91.571h-5.108A4.368,4.368,0,0,1,169.4,87.2V84.348h13.845V87.2A4.369,4.369,0,0,1,178.878,91.571Z" transform="translate(-95.581 -44.236)" fill="#f8af23"/>
      <path id="Trazado_830468" data-name="Trazado 830468" d="M152.3,87.96h5.916V84.348H152.3a1.806,1.806,0,0,0,0,3.612Z" transform="translate(-84.398 -44.236)" fill="#f8af23"/>
      <path id="Trazado_830469" data-name="Trazado 830469" d="M144.665,110.085h4.128v4.128h-4.128Z" transform="translate(-80.949 -59.46)" fill="#f8af23"/>
      <path id="Trazado_830470" data-name="Trazado 830470" d="M144.665,175.676h4.128V179.8h-4.128Z" transform="translate(-80.949 -98.259)" fill="#f8af23"/>
      <path id="Trazado_830471" data-name="Trazado 830471" d="M0,0H4.128V4.128H0Z" transform="translate(65.78 58.5) rotate(45)" fill="#f46275"/>
      <path id="Trazado_830472" data-name="Trazado 830472" d="M0,0H4.128V4.128H0Z" transform="translate(65.783 85.901) rotate(45)" fill="#f46275"/>
      <circle id="Elipse_10724" data-name="Elipse 10724" cx="2.162" cy="2.162" r="2.162" transform="translate(63.618 68.721)" fill="#cecece"/>
      <g id="Grupo_1084229" data-name="Grupo 1084229" transform="translate(75.798 51.27)">
        <path id="Trazado_830473" data-name="Trazado 830473" d="M174.244,111.664h21.584V114.5H174.244Z" transform="translate(-174.244 -111.664)" fill="#f8af23"/>
        <path id="Trazado_830474" data-name="Trazado 830474" d="M174.244,133.066h18.875V135.9H174.244Z" transform="translate(-174.244 -124.324)" fill="#f8af23"/>
        <path id="Trazado_830475" data-name="Trazado 830475" d="M174.244,156.206h16.3v2.838h-16.3Z" transform="translate(-174.244 -138.012)" fill="#f8af23"/>
        <path id="Trazado_830476" data-name="Trazado 830476" d="M174.244,177.254h13.265v2.838H174.244Z" transform="translate(-174.244 -150.463)" fill="#f8af23"/>
        <path id="Trazado_830477" data-name="Trazado 830477" d="M174.244,200.155h11.2v2.838h-11.2Z" transform="translate(-174.244 -164.009)" fill="#f8af23"/>
      </g>
      <g id="Grupo_1084230" data-name="Grupo 1084230" transform="translate(7.82 9.567)">
        <path id="Trazado_830478" data-name="Trazado 830478" d="M15.786,243.433H8.433a.613.613,0,0,0,0,1.225h7.354a.613.613,0,0,0,0-1.225Z" transform="translate(-7.82 -147.907)" fill="#3f3679"/>
        <path id="Trazado_830479" data-name="Trazado 830479" d="M235.143,243.433H227.79a.613.613,0,1,0,0,1.225h7.354a.613.613,0,1,0,0-1.225Z" transform="translate(-137.577 -147.907)" fill="#3f3679"/>
        <path id="Trazado_830480" data-name="Trazado 830480" d="M110.549,243.433H36.634a.613.613,0,0,0,0,1.225h73.916a.613.613,0,1,0,0-1.225Z" transform="translate(-24.502 -147.907)" fill="#3f3679"/>
        <path id="Trazado_830481" data-name="Trazado 830481" d="M8.433,101.836h96.953a.613.613,0,1,0,0-1.225H101.8V43.724a.613.613,0,0,0-.613-.613H88.271c0-.048.007-.1.007-.144V40.112a.613.613,0,0,0-.613-.613H67.9a2.415,2.415,0,0,0-2.1,3.612H59.65a.613.613,0,0,0-.613.613v5.189H51.772l-1.817-1.15V45.529a14.489,14.489,0,0,0,8.335-11.495,3.736,3.736,0,0,0,.1-7.387V22a4.707,4.707,0,0,0,.917-2.79v-4.9a4.744,4.744,0,0,0-4.739-4.739H34.477a3.885,3.885,0,0,0-3.74,2.775.854.854,0,0,1-.339.458l-1.2.808a5.129,5.129,0,0,0-2.153,5.422l1.76,7.789a3.738,3.738,0,0,0,.762,7.216A14.489,14.489,0,0,0,37.9,45.53v2.234l-1.829,1.158A.591.591,0,0,0,36,48.913H23.71a11.708,11.708,0,0,0-11.7,11.7v12.91a.613.613,0,0,0,.613.613H13.4V86.467a6.718,6.718,0,0,0,6.711,6.711h3.122v7.433H8.433a.613.613,0,1,0,0,1.225Zm25-8.659a5.679,5.679,0,0,0,4.645-2.417v9.85H28.818V93.178Zm2.355-43.039,2.124,8.374a.611.611,0,0,0,.165.281V84.222a5.679,5.679,0,0,0-4.645-2.417H28.818V50.139Zm8.143,5.873,4.628,2.605v41.995H39.3V58.616Zm8.143-5.873h6.967v50.472H49.781V58.794a.608.608,0,0,0,.165-.281Zm34.982-7.171A3.76,3.76,0,0,1,83.3,46.723H78.189a3.76,3.76,0,0,1-3.756-3.755V40.726h12.62v2.242ZM66.711,41.919A1.2,1.2,0,0,1,67.9,40.726h5.3v2.386H67.9A1.2,1.2,0,0,1,66.711,41.919Zm-6.448,2.418H73.4a4.987,4.987,0,0,0,4.786,3.612H83.3a4.987,4.987,0,0,0,4.786-3.612h12.5v56.274H60.263V44.337Zm-11.308,13.1-4.117-2.318L49.5,48.927l1.388.879Zm8.2-29.686v1.338h-.727l-1.124-5.2a4.705,4.705,0,0,0,1.851-.714Zm3.128,2.585a2.517,2.517,0,0,1-1.912,2.439c0-.127.01-.253.01-.38V27.9A2.518,2.518,0,0,1,60.288,30.334ZM29.882,14.624l1.2-.808a2.076,2.076,0,0,0,.827-1.119,2.667,2.667,0,0,1,2.568-1.9H54.564a3.517,3.517,0,0,1,3.513,3.513v4.905a3.517,3.517,0,0,1-3.513,3.513H37.447A3.748,3.748,0,0,0,34.2,24.6l-2.192,3.824a1.313,1.313,0,0,1-1.136.659h-.3L28.239,18.759a3.913,3.913,0,0,1,1.643-4.135Zm-2.315,15.71a2.519,2.519,0,0,1,1.511-2.3l.4,1.759c0,.017-.005.034-.005.051v2.551c0,.127.007.254.01.38a2.516,2.516,0,0,1-1.912-2.439ZM30.7,32.393v-2.08h.179a2.542,2.542,0,0,0,2.2-1.275l2.192-3.824a2.52,2.52,0,0,1,2.181-1.264H54.069l1.27,5.88a.613.613,0,0,0,.6.484h1.222v2.08a13.232,13.232,0,1,1-26.464,0ZM43.928,46.851a14.389,14.389,0,0,0,4.8-.823v1.889l-4.8,6.374-4.8-6.374V46.028a14.4,14.4,0,0,0,4.8.823Zm-5.574,2.076,4.663,6.191L38.9,57.435l-1.935-7.629ZM27.592,50.139V81.805h-3.13V62.726a.613.613,0,0,0-1.225,0V72.905h-4.9V51.627a10.4,10.4,0,0,1,5.374-1.488ZM13.24,60.608a10.452,10.452,0,0,1,3.871-8.121V72.9H13.24v-12.3Zm1.389,25.859V74.131h8.608v8.287a.613.613,0,0,0,.613.613h9.58a4.461,4.461,0,0,1,0,8.922H20.114a5.492,5.492,0,0,1-5.486-5.486Zm9.833,6.711h3.13v7.433h-3.13Z" transform="translate(-7.82 -9.567)" fill="#3f3679"/>
        <path id="Trazado_830482" data-name="Trazado 830482" d="M95.331,68.834a.613.613,0,0,0,.613-.613V65.708a.613.613,0,0,0-1.225,0v2.513A.613.613,0,0,0,95.331,68.834Z" transform="translate(-59.223 -42.414)" fill="#3f3679"/>
        <path id="Trazado_830483" data-name="Trazado 830483" d="M94.761,81.914a.613.613,0,0,0-.922-.808,2.437,2.437,0,0,1-3.677,0,.613.613,0,1,0-.921.808,3.664,3.664,0,0,0,5.52,0Z" transform="translate(-55.894 -51.761)" fill="#3f3679"/>
        <path id="Trazado_830484" data-name="Trazado 830484" d="M79.284,54.92H75.03a.613.613,0,0,0,0,1.225h4.255a.613.613,0,1,0,0-1.225Z" transform="translate(-47.214 -36.395)" fill="#3f3679"/>
        <path id="Trazado_830485" data-name="Trazado 830485" d="M105.216,56.145h4.255a.613.613,0,0,0,0-1.225h-4.255a.613.613,0,1,0,0,1.225Z" transform="translate(-65.07 -36.395)" fill="#3f3679"/>
        <path id="Trazado_830486" data-name="Trazado 830486" d="M143.778,113.938h4.128a.613.613,0,0,0,.613-.613V109.2a.613.613,0,0,0-.613-.613h-4.128a.613.613,0,0,0-.613.613v4.128A.613.613,0,0,0,143.778,113.938Zm.613-4.128h2.9v2.9h-2.9Z" transform="translate(-87.881 -68.14)" fill="#3f3679"/>
        <path id="Trazado_830487" data-name="Trazado 830487" d="M143.778,174.176a.613.613,0,0,0-.613.613v4.127a.613.613,0,0,0,.613.613h4.128a.613.613,0,0,0,.613-.613v-4.127a.613.613,0,0,0-.613-.613Zm3.515,4.127h-2.9v-2.9h2.9Z" transform="translate(-87.881 -106.939)" fill="#3f3679"/>
        <path id="Trazado_830488" data-name="Trazado 830488" d="M144.171,134.776a.613.613,0,0,0,.867,0l2.919-2.919a.612.612,0,0,0,0-.866l-2.919-2.919a.612.612,0,0,0-.866,0l-2.919,2.919a.612.612,0,0,0,0,.866Zm.433-5.4,2.052,2.052-2.052,2.052-2.052-2.052Z" transform="translate(-86.643 -79.561)" fill="#3f3679"/>
        <path id="Trazado_830489" data-name="Trazado 830489" d="M144.171,201.866a.613.613,0,0,0,.867,0l2.919-2.919a.612.612,0,0,0,0-.866l-2.919-2.919a.612.612,0,0,0-.866,0l-2.919,2.919a.612.612,0,0,0,0,.866Zm.433-5.4,2.052,2.052-2.052,2.052-2.052-2.052Z" transform="translate(-86.643 -119.247)" fill="#3f3679"/>
        <path id="Trazado_830490" data-name="Trazado 830490" d="M145.7,152.888a2.775,2.775,0,1,0,2.774,2.774,2.778,2.778,0,0,0-2.774-2.774Zm0,4.324a1.549,1.549,0,1,1,1.549-1.549A1.551,1.551,0,0,1,145.7,157.212Z" transform="translate(-87.739 -94.346)" fill="#3f3679"/>
        <path id="Trazado_830491" data-name="Trazado 830491" d="M173.357,114.227h21.584a.613.613,0,0,0,.613-.613v-2.838a.613.613,0,0,0-.613-.613H173.357a.613.613,0,0,0-.613.613v2.838A.613.613,0,0,0,173.357,114.227Zm.613-2.838h20.359V113H173.969Z" transform="translate(-105.378 -69.074)" fill="#3f3679"/>
        <path id="Trazado_830492" data-name="Trazado 830492" d="M173.357,135.629h18.875a.613.613,0,0,0,.613-.613v-2.838a.613.613,0,0,0-.613-.613H173.357a.613.613,0,0,0-.613.613v2.838A.613.613,0,0,0,173.357,135.629Zm.613-2.838h17.65V134.4h-17.65Z" transform="translate(-105.378 -81.734)" fill="#3f3679"/>
        <path id="Trazado_830493" data-name="Trazado 830493" d="M173.357,158.769h16.3a.613.613,0,0,0,.613-.613v-2.838a.613.613,0,0,0-.613-.613h-16.3a.613.613,0,0,0-.613.613v2.838A.613.613,0,0,0,173.357,158.769Zm.613-2.838h15.07v1.613h-15.07Z" transform="translate(-105.378 -95.422)" fill="#3f3679"/>
        <path id="Trazado_830494" data-name="Trazado 830494" d="M173.357,179.818h13.264a.613.613,0,0,0,.613-.613v-2.838a.613.613,0,0,0-.613-.613H173.357a.613.613,0,0,0-.613.613v2.838A.613.613,0,0,0,173.357,179.818Zm.613-2.838h12.039v1.612H173.969Z" transform="translate(-105.378 -107.873)" fill="#3f3679"/>
        <path id="Trazado_830495" data-name="Trazado 830495" d="M173.357,202.719h11.2a.613.613,0,0,0,.613-.613v-2.838a.613.613,0,0,0-.613-.613h-11.2a.613.613,0,0,0-.613.613v2.838A.613.613,0,0,0,173.357,202.719Zm.613-2.838h9.975v1.612h-9.975Z" transform="translate(-105.378 -121.42)" fill="#3f3679"/>
      </g>
    </g>
  </g>
</svg>
