<svg id="conexion" xmlns="http://www.w3.org/2000/svg" width="110.938" height="110.938" viewBox="0 0 110.938 110.938">
  <g id="Grupo_1084255" data-name="Grupo 1084255" transform="translate(5.643 5.845)">
    <path id="Trazado_830541" data-name="Trazado 830541" d="M29.55,125.256l-3.506-1.169L38.866,85.612,35,35.379l47.923,11.5,30.769-19.908,2.008,3.1-32.1,20.77L39.081,40.161l3.532,45.914-.12.353Z" transform="translate(-26.044 -26.974)" fill="#ef2648"/>
    <rect id="Rectángulo_383008" data-name="Rectángulo 383008" width="3.698" height="40.844" transform="translate(98.064 23.75) rotate(95.192)" fill="#ef2648"/>
    <rect id="Rectángulo_383009" data-name="Rectángulo 383009" width="3.696" height="40.937" transform="matrix(-0.949, 0.316, -0.316, -0.949, 29.391, 97.123)" fill="#ef2648"/>
    <path id="Trazado_830542" data-name="Trazado 830542" d="M204.663,266.241l-8.2-36.891,3.613-.8,6.592,29.672,19.782-23.079,2.807,2.408Z" transform="translate(-159.537 -184.872)" fill="#ef2648"/>
    <rect id="Rectángulo_383010" data-name="Rectángulo 383010" width="3.698" height="43.949" transform="matrix(-0.252, 0.968, -0.968, -0.252, 89.129, 86.674)" fill="#ef2648"/>
  </g>
  <circle id="Elipse_10727" data-name="Elipse 10727" cx="14.792" cy="14.792" r="14.792" transform="translate(1.849 1.849)" fill="#b7e5ff"/>
  <path id="Trazado_830543" data-name="Trazado 830543" d="M41.358,20.779A14.783,14.783,0,0,1,20.779,41.358,14.792,14.792,0,1,0,41.358,20.779Z" transform="translate(-16.277 -16.277)" fill="#99c8e0"/>
  <circle id="Elipse_10728" data-name="Elipse 10728" cx="14.792" cy="14.792" r="14.792" transform="translate(79.506 79.506)" fill="#b7e5ff"/>
  <path id="Trazado_830544" data-name="Trazado 830544" d="M399.758,379.179a14.783,14.783,0,0,1-20.579,20.579,14.792,14.792,0,1,0,20.579-20.579Z" transform="translate(-297.02 -297.02)" fill="#99c8e0"/>
  <circle id="Elipse_10729" data-name="Elipse 10729" cx="9.245" cy="9.245" r="9.245" transform="translate(42.526 73.959)" fill="#4db5ff"/>
  <path id="Trazado_830545" data-name="Trazado 830545" d="M217.8,349.969a9.206,9.206,0,0,1-12.9,12.9,9.219,9.219,0,1,0,12.9-12.9Z" transform="translate(-160.505 -274.139)" fill="#3596d8"/>
  <path id="Trazado_830565" data-name="Trazado 830565" d="M9.245,0A9.245,9.245,0,1,1,0,9.245,9.245,9.245,0,0,1,9.245,0Z" transform="translate(11.094 55.469)" fill="#4db5ff"/>
  <path id="Trazado_830546" data-name="Trazado 830546" d="M72.734,264.636a9.206,9.206,0,0,1-12.9,12.9,9.219,9.219,0,1,0,12.9-12.9Z" transform="translate(-46.871 -207.296)" fill="#3596d8"/>
  <circle id="Elipse_10731" data-name="Elipse 10731" cx="9.245" cy="9.245" r="9.245" transform="translate(53.62 18.49)" fill="#4db5ff"/>
  <path id="Trazado_830547" data-name="Trazado 830547" d="M269,93.969a9.206,9.206,0,0,1-12.9,12.9,9.219,9.219,0,1,0,12.9-12.9Z" transform="translate(-200.611 -73.608)" fill="#3596d8"/>
  <circle id="Elipse_10732" data-name="Elipse 10732" cx="5.547" cy="5.547" r="5.547" transform="translate(1.849 97.996)" fill="#235087"/>
  <path id="Trazado_830548" data-name="Trazado 830548" d="M19.935,456.073a5.483,5.483,0,0,1,.825,2.873,5.546,5.546,0,0,1-5.547,5.547,5.484,5.484,0,0,1-2.873-.825,5.532,5.532,0,1,0,7.6-7.6Z" transform="translate(-9.665 -357.253)" fill="#163768"/>
  <circle id="Elipse_10733" data-name="Elipse 10733" cx="5.547" cy="5.547" r="5.547" transform="translate(27.735 97.996)" fill="#235087"/>
  <path id="Trazado_830549" data-name="Trazado 830549" d="M139.4,456.073a5.482,5.482,0,0,1,.825,2.873,5.546,5.546,0,0,1-5.547,5.547,5.484,5.484,0,0,1-2.873-.825,5.532,5.532,0,1,0,7.6-7.6Z" transform="translate(-103.247 -357.253)" fill="#163768"/>
  <circle id="Elipse_10734" data-name="Elipse 10734" cx="5.547" cy="5.547" r="5.547" transform="translate(38.828 44.375)" fill="#235087"/>
  <path id="Trazado_830550" data-name="Trazado 830550" d="M190.6,208.606a5.483,5.483,0,0,1,.825,2.873,5.547,5.547,0,0,1-5.547,5.547,5.483,5.483,0,0,1-2.873-.825,5.532,5.532,0,1,0,7.6-7.6Z" transform="translate(-143.353 -163.406)" fill="#163768"/>
  <circle id="Elipse_10735" data-name="Elipse 10735" cx="5.547" cy="5.547" r="5.547" transform="translate(68.412 51.771)" fill="#235087"/>
  <path id="Trazado_830551" data-name="Trazado 830551" d="M327.135,242.739a5.483,5.483,0,0,1,.825,2.873,5.546,5.546,0,0,1-5.547,5.547,5.483,5.483,0,0,1-2.873-.825,5.532,5.532,0,1,0,7.6-7.6Z" transform="translate(-250.302 -190.143)" fill="#163768"/>
  <circle id="Elipse_10736" data-name="Elipse 10736" cx="5.547" cy="5.547" r="5.547" transform="translate(97.996 25.886)" fill="#235087"/>
  <path id="Trazado_830552" data-name="Trazado 830552" d="M463.669,123.273a5.484,5.484,0,0,1,.825,2.873,5.546,5.546,0,0,1-5.547,5.547,5.483,5.483,0,0,1-2.873-.825,5.532,5.532,0,1,0,7.6-7.6Z" transform="translate(-357.253 -96.563)" fill="#163768"/>
  <circle id="Elipse_10737" data-name="Elipse 10737" cx="5.547" cy="5.547" r="5.547" transform="translate(88.751 1.849)" fill="#235087"/>
  <path id="Trazado_830553" data-name="Trazado 830553" d="M421,12.339a5.483,5.483,0,0,1,.825,2.873,5.547,5.547,0,0,1-5.547,5.547,5.483,5.483,0,0,1-2.873-.825,5.532,5.532,0,1,0,7.6-7.6Z" transform="translate(-323.831 -9.665)" fill="#163768"/>
  <path id="Trazado_830554" data-name="Trazado 830554" d="M16.641,33.282A16.641,16.641,0,1,1,33.282,16.641,16.64,16.64,0,0,1,16.641,33.282Zm0-29.584A12.943,12.943,0,1,0,29.584,16.641,12.943,12.943,0,0,0,16.641,3.7Z" fill="#3f3679"/>
  <path id="Trazado_830555" data-name="Trazado 830555" d="M408.463,14.792a7.4,7.4,0,1,1,7.4-7.4A7.4,7.4,0,0,1,408.463,14.792Zm0-11.094a3.7,3.7,0,1,0,3.7,3.7A3.7,3.7,0,0,0,408.463,3.7Z" transform="translate(-314.165)" fill="#3f3679"/>
  <path id="Trazado_830556" data-name="Trazado 830556" d="M250.027,98.988a11.094,11.094,0,1,1,11.094-11.094A11.093,11.093,0,0,1,250.027,98.988Zm0-18.49a7.4,7.4,0,1,0,7.4,7.4A7.4,7.4,0,0,0,250.027,80.5Z" transform="translate(-187.162 -60.159)" fill="#3f3679"/>
  <path id="Trazado_830557" data-name="Trazado 830557" d="M451.13,125.726a7.4,7.4,0,1,1,7.4-7.4A7.4,7.4,0,0,1,451.13,125.726Zm0-11.094a3.7,3.7,0,1,0,3.7,3.7A3.7,3.7,0,0,0,451.13,114.632Z" transform="translate(-347.587 -86.897)" fill="#3f3679"/>
  <path id="Trazado_830558" data-name="Trazado 830558" d="M375.041,391.682a16.641,16.641,0,1,1,16.641-16.641A16.64,16.64,0,0,1,375.041,391.682Zm0-29.583a12.943,12.943,0,1,0,12.943,12.943A12.943,12.943,0,0,0,375.041,362.1Z" transform="translate(-280.743 -280.743)" fill="#3f3679"/>
  <path id="Trazado_830559" data-name="Trazado 830559" d="M53.761,269.655a11.094,11.094,0,1,1,11.094-11.094A11.093,11.093,0,0,1,53.761,269.655Zm0-18.49a7.4,7.4,0,1,0,7.4,7.4A7.4,7.4,0,0,0,53.761,251.165Z" transform="translate(-33.422 -193.847)" fill="#3f3679"/>
  <path id="Trazado_830560" data-name="Trazado 830560" d="M7.4,458.526a7.4,7.4,0,1,1,7.4-7.4A7.4,7.4,0,0,1,7.4,458.526Zm0-11.094a3.7,3.7,0,1,0,3.7,3.7A3.7,3.7,0,0,0,7.4,447.432Z" transform="translate(0 -347.587)" fill="#3f3679"/>
  <path id="Trazado_830561" data-name="Trazado 830561" d="M198.827,354.988a11.094,11.094,0,1,1,11.094-11.094A11.093,11.093,0,0,1,198.827,354.988Zm0-18.49a7.4,7.4,0,1,0,7.4,7.4A7.4,7.4,0,0,0,198.827,336.5Z" transform="translate(-147.056 -260.69)" fill="#3f3679"/>
  <path id="Trazado_830562" data-name="Trazado 830562" d="M178.063,211.059a7.4,7.4,0,1,1,7.4-7.4A7.4,7.4,0,0,1,178.063,211.059Zm0-11.094a3.7,3.7,0,1,0,3.7,3.7A3.7,3.7,0,0,0,178.063,199.965Z" transform="translate(-133.687 -153.741)" fill="#3f3679"/>
  <path id="Trazado_830563" data-name="Trazado 830563" d="M314.6,245.193a7.4,7.4,0,1,1,7.4-7.4A7.4,7.4,0,0,1,314.6,245.193Zm0-11.094a3.7,3.7,0,1,0,3.7,3.7A3.7,3.7,0,0,0,314.6,234.1Z" transform="translate(-240.637 -180.478)" fill="#3f3679"/>
  <path id="Trazado_830564" data-name="Trazado 830564" d="M126.863,458.526a7.4,7.4,0,1,1,7.4-7.4A7.4,7.4,0,0,1,126.863,458.526Zm0-11.094a3.7,3.7,0,1,0,3.7,3.7A3.7,3.7,0,0,0,126.863,447.432Z" transform="translate(-93.581 -347.587)" fill="#3f3679"/>
</svg>
