<svg xmlns="http://www.w3.org/2000/svg" xmlns:xlink="http://www.w3.org/1999/xlink" width="495" height="239.219" viewBox="0 0 495 239.219">
  <defs>
    <clipPath id="clip-path">
      <rect id="AdobeStock_635143489" width="495" height="239.219" rx="14" transform="translate(819.9 7713)" fill="#f6f6f6"/>
    </clipPath>
  </defs>
  <g id="Enmascarar_grupo_1075509" data-name="Enmascarar grupo 1075509" transform="translate(-819.9 -7713)" clip-path="url(#clip-path)">
    <g id="Enmascarar_grupo_1075505" data-name="Enmascarar grupo 1075505" clip-path="url(#clip-path)">
      <rect id="AdobeStock_635143489-3" data-name="AdobeStock_635143489" width="495" height="239.219" rx="14" transform="translate(819.9 7713)" fill="#f6f6f6"/>
    </g>
    <g id="Grupo_1084419" data-name="Grupo 1084419" transform="translate(-86.12 400)">
      <g id="Rectángulo_383027" data-name="Rectángulo 383027" transform="translate(989.9 7400)" fill="none" stroke="#7d1316" stroke-width="1">
        <rect width="21.891" height="20.148" stroke="none"/>
        <rect x="0.5" y="0.5" width="20.891" height="19.148" fill="none"/>
      </g>
      <path id="Trazado_830616" data-name="Trazado 830616" d="M-1968.091-4287.863l12.512-11.054" transform="translate(2958.514 11700.09)" fill="none" stroke="#7d1316" stroke-width="1"/>
      <path id="Trazado_830618" data-name="Trazado 830618" d="M-1968.091-4288.01l11.593-10.907" transform="translate(2967.752 11708.157)" fill="none" stroke="#7d1316" stroke-width="1"/>
      <path id="Trazado_830617" data-name="Trazado 830617" d="M-1968.091-4279.91l20.831-19.007" transform="translate(2958.513 11699.43)" fill="none" stroke="#7d1316" stroke-width="1"/>
    </g>
    <g id="Grupo_1084420" data-name="Grupo 1084420" transform="translate(-103.12 514)">
      <g id="Rectángulo_383027-2" data-name="Rectángulo 383027" transform="translate(989.9 7400)" fill="none" stroke="#7d1316" stroke-width="1">
        <rect width="21.891" height="20.148" stroke="none"/>
        <rect x="0.5" y="0.5" width="20.891" height="19.148" fill="none"/>
      </g>
      <path id="Trazado_830616-2" data-name="Trazado 830616" d="M-1968.091-4287.863l12.512-11.054" transform="translate(2958.514 11700.09)" fill="none" stroke="#7d1316" stroke-width="1"/>
      <path id="Trazado_830618-2" data-name="Trazado 830618" d="M-1968.091-4288.01l11.593-10.907" transform="translate(2967.752 11708.157)" fill="none" stroke="#7d1316" stroke-width="1"/>
      <path id="Trazado_830617-2" data-name="Trazado 830617" d="M-1968.091-4279.91l20.831-19.007" transform="translate(2958.513 11699.43)" fill="none" stroke="#7d1316" stroke-width="1"/>
    </g>
    <g id="Grupo_1084421" data-name="Grupo 1084421" transform="translate(-17.12 514)">
      <g id="Rectángulo_383027-3" data-name="Rectángulo 383027" transform="translate(989.9 7400)" fill="none" stroke="#7d1316" stroke-width="1">
        <rect width="21.891" height="20.148" stroke="none"/>
        <rect x="0.5" y="0.5" width="20.891" height="19.148" fill="none"/>
      </g>
      <path id="Trazado_830616-3" data-name="Trazado 830616" d="M-1968.091-4287.863l12.512-11.054" transform="translate(2958.514 11700.09)" fill="none" stroke="#7d1316" stroke-width="1"/>
      <path id="Trazado_830618-3" data-name="Trazado 830618" d="M-1968.091-4288.01l11.593-10.907" transform="translate(2967.752 11708.157)" fill="none" stroke="#7d1316" stroke-width="1"/>
      <path id="Trazado_830617-3" data-name="Trazado 830617" d="M-1968.091-4279.91l20.831-19.007" transform="translate(2958.513 11699.43)" fill="none" stroke="#7d1316" stroke-width="1"/>
    </g>
    <g id="Grupo_1084422" data-name="Grupo 1084422" transform="translate(-11.12 431)">
      <g id="Rectángulo_383027-4" data-name="Rectángulo 383027" transform="translate(989.9 7400)" fill="none" stroke="#7d1316" stroke-width="1">
        <rect width="21.891" height="20.148" stroke="none"/>
        <rect x="0.5" y="0.5" width="20.891" height="19.148" fill="none"/>
      </g>
      <path id="Trazado_830616-4" data-name="Trazado 830616" d="M-1968.091-4287.863l12.512-11.054" transform="translate(2958.514 11700.09)" fill="none" stroke="#7d1316" stroke-width="1"/>
      <path id="Trazado_830618-4" data-name="Trazado 830618" d="M-1968.091-4288.01l11.593-10.907" transform="translate(2967.752 11708.157)" fill="none" stroke="#7d1316" stroke-width="1"/>
      <path id="Trazado_830617-4" data-name="Trazado 830617" d="M-1968.091-4279.91l20.831-19.007" transform="translate(2958.513 11699.43)" fill="none" stroke="#7d1316" stroke-width="1"/>
    </g>
    <g id="Elipse_10783" data-name="Elipse 10783" transform="translate(954.094 7726)" fill="none" stroke="#994c00" stroke-linecap="round" stroke-width="3" stroke-dasharray="8">
      <ellipse cx="105.403" cy="69.5" rx="105.403" ry="69.5" stroke="none"/>
      <ellipse cx="105.403" cy="69.5" rx="103.903" ry="68" fill="none"/>
    </g>
    <g id="Grupo_1084423" data-name="Grupo 1084423" transform="translate(1122.195 7764.132)">
      <g id="Polígono_7" data-name="Polígono 7" transform="translate(0.302 -0.349)" fill="none">
        <path d="M11.877,0,23.753,19.435H0Z" stroke="none"/>
        <path d="M 11.87668228149414 1.917720794677734 L 1.783056259155273 18.4345645904541 L 21.97030830383301 18.4345645904541 L 11.87668228149414 1.917720794677734 M 11.87668228149414 -5.7220458984375e-06 L 23.75336265563965 19.4345645904541 L 1.9073486328125e-06 19.4345645904541 L 11.87668228149414 -5.7220458984375e-06 Z" stroke="none" fill="#0a7c0a"/>
      </g>
      <path id="Trazado_830619" data-name="Trazado 830619" d="M-1775.977-4242.743l-7.509,11.235" transform="translate(1792.089 4249.97)" fill="none" stroke="#0a7c0a" stroke-width="1"/>
      <path id="Trazado_830620" data-name="Trazado 830620" d="M-1779.906-4242.743l-3.58,5.588" transform="translate(1799.898 4256.24)" fill="none" stroke="#0a7c0a" stroke-width="1"/>
    </g>
    <g id="Grupo_1084424" data-name="Grupo 1084424" transform="translate(1156.195 7810.132)">
      <g id="Polígono_7-2" data-name="Polígono 7" transform="translate(0.302 -0.349)" fill="none">
        <path d="M11.877,0,23.753,19.435H0Z" stroke="none"/>
        <path d="M 11.87668228149414 1.917720794677734 L 1.783056259155273 18.4345645904541 L 21.97030830383301 18.4345645904541 L 11.87668228149414 1.917720794677734 M 11.87668228149414 -5.7220458984375e-06 L 23.75336265563965 19.4345645904541 L 1.9073486328125e-06 19.4345645904541 L 11.87668228149414 -5.7220458984375e-06 Z" stroke="none" fill="#0a7c0a"/>
      </g>
      <path id="Trazado_830619-2" data-name="Trazado 830619" d="M-1775.977-4242.743l-7.509,11.235" transform="translate(1792.089 4249.97)" fill="none" stroke="#0a7c0a" stroke-width="1"/>
      <path id="Trazado_830620-2" data-name="Trazado 830620" d="M-1779.906-4242.743l-3.58,5.588" transform="translate(1799.898 4256.24)" fill="none" stroke="#0a7c0a" stroke-width="1"/>
    </g>
    <g id="Grupo_1084425" data-name="Grupo 1084425" transform="translate(1226.195 7792.132)">
      <g id="Polígono_7-3" data-name="Polígono 7" transform="translate(0.302 -0.349)" fill="none">
        <path d="M11.877,0,23.753,19.435H0Z" stroke="none"/>
        <path d="M 11.87668228149414 1.917720794677734 L 1.783056259155273 18.4345645904541 L 21.97030830383301 18.4345645904541 L 11.87668228149414 1.917720794677734 M 11.87668228149414 -5.7220458984375e-06 L 23.75336265563965 19.4345645904541 L 1.9073486328125e-06 19.4345645904541 L 11.87668228149414 -5.7220458984375e-06 Z" stroke="none" fill="#0a7c0a"/>
      </g>
      <path id="Trazado_830619-3" data-name="Trazado 830619" d="M-1775.977-4242.743l-7.509,11.235" transform="translate(1792.089 4249.97)" fill="none" stroke="#0a7c0a" stroke-width="1"/>
      <path id="Trazado_830620-3" data-name="Trazado 830620" d="M-1779.906-4242.743l-3.58,5.588" transform="translate(1799.898 4256.24)" fill="none" stroke="#0a7c0a" stroke-width="1"/>
    </g>
    <g id="Grupo_1084426" data-name="Grupo 1084426" transform="translate(1225.195 7829.566)">
      <g id="Polígono_7-4" data-name="Polígono 7" transform="translate(0.302 -0.349)" fill="none">
        <path d="M11.877,0,23.753,19.435H0Z" stroke="none"/>
        <path d="M 11.87668228149414 1.917720794677734 L 1.783056259155273 18.4345645904541 L 21.97030830383301 18.4345645904541 L 11.87668228149414 1.917720794677734 M 11.87668228149414 -5.7220458984375e-06 L 23.75336265563965 19.4345645904541 L 1.9073486328125e-06 19.4345645904541 L 11.87668228149414 -5.7220458984375e-06 Z" stroke="none" fill="#0a7c0a"/>
      </g>
      <path id="Trazado_830619-4" data-name="Trazado 830619" d="M-1775.977-4242.743l-7.509,11.235" transform="translate(1792.089 4249.97)" fill="none" stroke="#0a7c0a" stroke-width="1"/>
      <path id="Trazado_830620-4" data-name="Trazado 830620" d="M-1779.906-4242.743l-3.58,5.588" transform="translate(1799.898 4256.24)" fill="none" stroke="#0a7c0a" stroke-width="1"/>
    </g>
    <g id="Grupo_1084427" data-name="Grupo 1084427" transform="translate(1174.195 7839.284)">
      <g id="Polígono_7-5" data-name="Polígono 7" transform="translate(0.302 -0.349)" fill="none">
        <path d="M11.877,0,23.753,19.435H0Z" stroke="none"/>
        <path d="M 11.87668228149414 1.917720794677734 L 1.783056259155273 18.4345645904541 L 21.97030830383301 18.4345645904541 L 11.87668228149414 1.917720794677734 M 11.87668228149414 -5.7220458984375e-06 L 23.75336265563965 19.4345645904541 L 1.9073486328125e-06 19.4345645904541 L 11.87668228149414 -5.7220458984375e-06 Z" stroke="none" fill="#0a7c0a"/>
      </g>
      <path id="Trazado_830619-5" data-name="Trazado 830619" d="M-1775.977-4242.743l-7.509,11.235" transform="translate(1792.089 4249.97)" fill="none" stroke="#0a7c0a" stroke-width="1"/>
      <path id="Trazado_830620-5" data-name="Trazado 830620" d="M-1779.906-4242.743l-3.58,5.588" transform="translate(1799.898 4256.24)" fill="none" stroke="#0a7c0a" stroke-width="1"/>
    </g>
    <g id="Grupo_1084428" data-name="Grupo 1084428" transform="translate(1122.195 7867.284)">
      <g id="Polígono_7-6" data-name="Polígono 7" transform="translate(0.302 -0.349)" fill="none">
        <path d="M11.877,0,23.753,19.435H0Z" stroke="none"/>
        <path d="M 11.87668228149414 1.917720794677734 L 1.783056259155273 18.4345645904541 L 21.97030830383301 18.4345645904541 L 11.87668228149414 1.917720794677734 M 11.87668228149414 -5.7220458984375e-06 L 23.75336265563965 19.4345645904541 L 1.9073486328125e-06 19.4345645904541 L 11.87668228149414 -5.7220458984375e-06 Z" stroke="none" fill="#0a7c0a"/>
      </g>
      <path id="Trazado_830619-6" data-name="Trazado 830619" d="M-1775.977-4242.743l-7.509,11.235" transform="translate(1792.089 4249.97)" fill="none" stroke="#0a7c0a" stroke-width="1"/>
      <path id="Trazado_830620-6" data-name="Trazado 830620" d="M-1779.906-4242.743l-3.58,5.588" transform="translate(1799.898 4256.24)" fill="none" stroke="#0a7c0a" stroke-width="1"/>
    </g>
    <g id="Grupo_1084429" data-name="Grupo 1084429" transform="translate(1156.195 7894.915)">
      <g id="Polígono_7-7" data-name="Polígono 7" transform="translate(0.302 -0.349)" fill="none">
        <path d="M11.877,0,23.753,19.435H0Z" stroke="none"/>
        <path d="M 11.87668228149414 1.917720794677734 L 1.783056259155273 18.4345645904541 L 21.97030830383301 18.4345645904541 L 11.87668228149414 1.917720794677734 M 11.87668228149414 -5.7220458984375e-06 L 23.75336265563965 19.4345645904541 L 1.9073486328125e-06 19.4345645904541 L 11.87668228149414 -5.7220458984375e-06 Z" stroke="none" fill="#0a7c0a"/>
      </g>
      <path id="Trazado_830619-7" data-name="Trazado 830619" d="M-1775.977-4242.743l-7.509,11.235" transform="translate(1792.089 4249.97)" fill="none" stroke="#0a7c0a" stroke-width="1"/>
      <path id="Trazado_830620-7" data-name="Trazado 830620" d="M-1779.906-4242.743l-3.58,5.588" transform="translate(1799.898 4256.24)" fill="none" stroke="#0a7c0a" stroke-width="1"/>
    </g>
    <path id="Trazado_830629" data-name="Trazado 830629" d="M-1834.009-4290.869l10.772,8.552,11.512-8.552-11.1-8.715Z" transform="translate(2872.336 12083.935)" fill="#f1b832" stroke="#dba20e" stroke-width="1"/>
  </g>
</svg>
