<svg xmlns="http://www.w3.org/2000/svg" xmlns:xlink="http://www.w3.org/1999/xlink" width="124" height="124" viewBox="0 0 124 124">
  <defs>
    <linearGradient id="linear-gradient" x1="0.5" x2="0.5" y2="1" gradientUnits="objectBoundingBox">
      <stop offset="0" stop-color="#459fff"/>
      <stop offset="1" stop-color="#a96dff"/>
    </linearGradient>
    <clipPath id="clip-path">
      <rect id="Rectángulo_382972" data-name="Rectángulo 382972" width="75.552" height="82.783" fill="none"/>
    </clipPath>
  </defs>
  <g id="Grupo_1088271" data-name="Grupo 1088271" transform="translate(-822.9 -3451)">
    <g id="Grupo_1088261" data-name="Grupo 1088261" transform="translate(822.9 3451)">
      <rect id="Rectángulo_375591" data-name="Rectángulo 375591" width="124" height="124" rx="14" fill="url(#linear-gradient)"/>
    </g>
    <g id="Grupo_1084089" data-name="Grupo 1084089" transform="translate(630.536 1469.172)">
      <g id="Grupo_1070195" data-name="Grupo 1070195" transform="translate(220.729 2002.458)">
        <rect id="Rectángulo_374304" data-name="Rectángulo 374304" width="68.272" height="84.46" rx="6" transform="translate(0 0)" fill="#e6fcf4"/>
      </g>
      <g id="Grupo_1084091" data-name="Grupo 1084091" transform="translate(216.589 2000.738)">
        <g id="Grupo_1084090" data-name="Grupo 1084090" clip-path="url(#clip-path)">
          <path id="Trazado_830056" data-name="Trazado 830056" d="M53.583,228.482a3.77,3.77,0,1,1-3.775-3.765,3.776,3.776,0,0,1,3.775,3.765" transform="translate(-34.615 -168.94)" fill="#72dbd4"/>
          <path id="Trazado_830057" data-name="Trazado 830057" d="M50.739,232.134a3.616,3.616,0,0,1-.923.121,3.773,3.773,0,0,1,0-7.545,3.6,3.6,0,0,1,.923.121,3.763,3.763,0,0,0,0,7.3" transform="translate(-34.625 -168.934)" fill="#c7f1ed"/>
          <path id="Trazado_830058" data-name="Trazado 830058" d="M61.456,228.478a3.781,3.781,0,0,1-3.777,3.777,3.476,3.476,0,0,1-1.164-.19,3.763,3.763,0,0,0,0-7.166,3.47,3.47,0,0,1,1.164-.19,3.774,3.774,0,0,1,3.777,3.768" transform="translate(-42.487 -168.935)" fill="#6cc6c6"/>
          <path id="Trazado_830059" data-name="Trazado 830059" d="M112.368,157.68a3.77,3.77,0,1,1-3.775-3.765,3.776,3.776,0,0,1,3.775,3.765" transform="translate(-78.809 -115.712)" fill="#72dbd4"/>
          <path id="Trazado_830060" data-name="Trazado 830060" d="M109.66,161.3a3.585,3.585,0,0,1-1.061.155,3.773,3.773,0,0,1,0-7.545,3.585,3.585,0,0,1,1.061.155,3.77,3.77,0,0,0,0,7.235" transform="translate(-78.818 -115.706)" fill="#c7f1ed"/>
          <path id="Trazado_830061" data-name="Trazado 830061" d="M120.343,157.674a3.776,3.776,0,0,1-3.777,3.777,3.482,3.482,0,0,1-1.13-.181,3.763,3.763,0,0,0,0-7.183,3.482,3.482,0,0,1,1.13-.181,3.774,3.774,0,0,1,3.777,3.768" transform="translate(-86.784 -115.705)" fill="#6cc6c6"/>
          <path id="Trazado_830062" data-name="Trazado 830062" d="M48.947,152.637a3.77,3.77,0,1,1-3.775-3.765,3.776,3.776,0,0,1,3.775,3.765" transform="translate(-31.13 -111.921)" fill="#72dbd4"/>
          <path id="Trazado_830063" data-name="Trazado 830063" d="M46.128,156.276a3.564,3.564,0,0,1-.957.129,3.768,3.768,0,1,1,0-7.537,3.564,3.564,0,0,1,.957.129,3.761,3.761,0,0,0,0,7.278" transform="translate(-31.126 -111.918)" fill="#c7f1ed"/>
          <path id="Trazado_830064" data-name="Trazado 830064" d="M57.01,152.637a3.772,3.772,0,0,1-3.768,3.768,3.562,3.562,0,0,1-1.1-.173,3.759,3.759,0,0,0,0-7.192,3.563,3.563,0,0,1,1.1-.173,3.772,3.772,0,0,1,3.768,3.768" transform="translate(-39.197 -111.918)" fill="#6cc6c6"/>
          <path id="Trazado_830065" data-name="Trazado 830065" d="M135.1,112.819a3.77,3.77,0,1,1-3.775-3.765,3.776,3.776,0,0,1,3.775,3.765" transform="translate(-95.901 -81.986)" fill="#72dbd4"/>
          <path id="Trazado_830066" data-name="Trazado 830066" d="M132.279,116.462a3.455,3.455,0,0,1-.949.129,3.768,3.768,0,0,1,0-7.537,3.455,3.455,0,0,1,.949.129,3.761,3.761,0,0,0,0,7.278" transform="translate(-95.9 -81.987)" fill="#c7f1ed"/>
          <path id="Trazado_830067" data-name="Trazado 830067" d="M143.456,112.823a3.772,3.772,0,0,1-3.768,3.768,3.525,3.525,0,0,1-1.009-.147,3.753,3.753,0,0,0,0-7.243,3.525,3.525,0,0,1,1.009-.146,3.772,3.772,0,0,1,3.768,3.768" transform="translate(-104.258 -81.987)" fill="#6cc6c6"/>
          <path id="Trazado_830068" data-name="Trazado 830068" d="M147.935,61.468A3.77,3.77,0,1,1,144.16,57.7a3.776,3.776,0,0,1,3.775,3.765" transform="translate(-105.548 -43.381)" fill="#72dbd4"/>
          <path id="Trazado_830069" data-name="Trazado 830069" d="M147.935,61.468A3.77,3.77,0,1,1,144.16,57.7a3.776,3.776,0,0,1,3.775,3.765" transform="translate(-105.548 -43.381)" fill="#72dbd4"/>
          <path id="Trazado_830070" data-name="Trazado 830070" d="M145.132,65.1a3.387,3.387,0,0,1-.983.138,3.768,3.768,0,0,1,0-7.537,3.379,3.379,0,0,1,.983.138,3.759,3.759,0,0,0,0,7.261" transform="translate(-105.537 -43.383)" fill="#c7f1ed"/>
          <path id="Trazado_830071" data-name="Trazado 830071" d="M155.109,61.467a3.778,3.778,0,0,1-5.174,3.51,3.77,3.77,0,0,0,0-7,3.778,3.778,0,0,1,5.174,3.492" transform="translate(-112.72 -43.384)" fill="#6cc6c6"/>
          <path id="Trazado_830072" data-name="Trazado 830072" d="M205.442,76.656a3.77,3.77,0,1,1-3.775-3.764,3.776,3.776,0,0,1,3.775,3.764" transform="translate(-148.782 -54.8)" fill="#72dbd4"/>
          <path id="Trazado_830073" data-name="Trazado 830073" d="M202.631,80.3a3.472,3.472,0,0,1-.957.129,3.768,3.768,0,0,1,0-7.537,3.472,3.472,0,0,1,.957.129,3.761,3.761,0,0,0,0,7.278" transform="translate(-148.79 -54.797)" fill="#c7f1ed"/>
          <path id="Trazado_830074" data-name="Trazado 830074" d="M212.919,76.657a3.774,3.774,0,0,1-3.777,3.768,3.62,3.62,0,0,1-1.293-.233,3.758,3.758,0,0,0,0-7.071,3.615,3.615,0,0,1,1.293-.233,3.774,3.774,0,0,1,3.777,3.768" transform="translate(-156.259 -54.797)" fill="#6cc6c6"/>
          <path id="Trazado_830075" data-name="Trazado 830075" d="M228.734,24.354a3.77,3.77,0,1,1-3.775-3.765,3.776,3.776,0,0,1,3.775,3.765" transform="translate(-166.292 -15.479)" fill="#72dbd4"/>
          <path id="Trazado_830076" data-name="Trazado 830076" d="M225.89,28.019a3.684,3.684,0,0,1-.931.121,3.768,3.768,0,1,1,0-7.537,3.684,3.684,0,0,1,.931.121,3.766,3.766,0,0,0,0,7.3" transform="translate(-166.289 -15.489)" fill="#c7f1ed"/>
          <path id="Trazado_830077" data-name="Trazado 830077" d="M236.614,24.363a3.774,3.774,0,0,1-3.768,3.777,3.47,3.47,0,0,1-1.164-.19,3.761,3.761,0,0,0,0-7.157,3.47,3.47,0,0,1,1.164-.19,3.77,3.77,0,0,1,3.768,3.76" transform="translate(-174.176 -15.489)" fill="#6cc6c6"/>
          <path id="Trazado_830078" data-name="Trazado 830078" d="M77.051,99.329a3.77,3.77,0,1,1-3.775-3.765,3.776,3.776,0,0,1,3.775,3.765" transform="translate(-52.258 -71.844)" fill="#72dbd4"/>
          <path id="Trazado_830079" data-name="Trazado 830079" d="M74.121,103.017a3.847,3.847,0,0,1-.845.1,3.768,3.768,0,0,1,0-7.537,3.847,3.847,0,0,1,.845.095,3.77,3.77,0,0,0,0,7.347" transform="translate(-52.255 -71.852)" fill="#c7f1ed"/>
          <path id="Trazado_830080" data-name="Trazado 830080" d="M85.063,99.335a3.774,3.774,0,0,1-3.768,3.777,3.713,3.713,0,0,1-1.121-.173,3.769,3.769,0,0,0,0-7.192,3.713,3.713,0,0,1,1.121-.173,3.77,3.77,0,0,1,3.768,3.76" transform="translate(-60.274 -71.852)" fill="#6cc6c6"/>
          <path id="Trazado_830081" data-name="Trazado 830081" d="M270.539,142.813a3.77,3.77,0,1,1,3.664,3.873,3.776,3.776,0,0,1-3.664-3.873" transform="translate(-203.388 -104.61)" fill="#72dbd4"/>
          <path id="Trazado_830082" data-name="Trazado 830082" d="M275.338,146.527a3.47,3.47,0,0,1-1.13.147,3.77,3.77,0,0,1,.224-7.537,3.55,3.55,0,0,1,.914.147,3.76,3.76,0,0,0-.009,7.243" transform="translate(-203.397 -104.601)" fill="#c7f1ed"/>
          <path id="Trazado_830083" data-name="Trazado 830083" d="M286.243,143.027a3.767,3.767,0,0,1-3.881,3.648,3.24,3.24,0,0,1-.966-.164,3.765,3.765,0,0,0,0-7.218,3.858,3.858,0,0,1,1.19-.155,3.771,3.771,0,0,1,3.656,3.889" transform="translate(-211.552 -104.602)" fill="#6cc6c6"/>
          <path id="Trazado_830084" data-name="Trazado 830084" d="M183.259,180.1a3.77,3.77,0,1,1,3.664,3.873,3.776,3.776,0,0,1-3.664-3.873" transform="translate(-137.771 -132.645)" fill="#72dbd4"/>
          <path id="Trazado_830085" data-name="Trazado 830085" d="M188.885,183.848a3.557,3.557,0,0,1-1.1.138,3.77,3.77,0,1,1,.224-7.537,3.362,3.362,0,0,1,.888.138,3.759,3.759,0,0,0-.009,7.261" transform="translate(-138.416 -132.652)" fill="#c7f1ed"/>
          <path id="Trazado_830086" data-name="Trazado 830086" d="M198.833,180.331a3.767,3.767,0,0,1-3.872,3.656,3.531,3.531,0,0,1-1-.173,3.767,3.767,0,0,0-.009-7.192,3.888,3.888,0,0,1,1.233-.173,3.767,3.767,0,0,1,3.648,3.881" transform="translate(-145.811 -132.653)" fill="#6cc6c6"/>
          <path id="Trazado_830087" data-name="Trazado 830087" d="M168.936,231.06a3.77,3.77,0,1,1,3.664,3.873,3.776,3.776,0,0,1-3.664-3.873" transform="translate(-127.003 -170.953)" fill="#72dbd4"/>
          <path id="Trazado_830088" data-name="Trazado 830088" d="M174.762,234.762a3.857,3.857,0,0,1-1.19.155,3.77,3.77,0,1,1,.215-7.537,3.974,3.974,0,0,1,.966.155,3.769,3.769,0,0,0,.009,7.226" transform="translate(-127.733 -170.941)" fill="#c7f1ed"/>
          <path id="Trazado_830089" data-name="Trazado 830089" d="M184.468,231.271a3.76,3.76,0,0,1-3.872,3.648,3.717,3.717,0,0,1-1.026-.173,3.771,3.771,0,0,0,.009-7.192,3.886,3.886,0,0,1,1.233-.173,3.776,3.776,0,0,1,3.656,3.889" transform="translate(-134.999 -170.943)" fill="#6cc6c6"/>
          <path id="Trazado_830090" data-name="Trazado 830090" d="M111.9,214.2a3.77,3.77,0,1,1,3.664,3.873A3.776,3.776,0,0,1,111.9,214.2" transform="translate(-84.121 -158.281)" fill="#72dbd4"/>
          <path id="Trazado_830091" data-name="Trazado 830091" d="M116.665,217.929a3.644,3.644,0,0,1-1.112.138,3.77,3.77,0,1,1,1.121-7.4,3.766,3.766,0,0,0-.009,7.261" transform="translate(-84.115 -158.273)" fill="#c7f1ed"/>
          <path id="Trazado_830092" data-name="Trazado 830092" d="M127,214.417a3.759,3.759,0,0,1-3.872,3.648,3.491,3.491,0,0,1-1.164-.224,3.77,3.77,0,0,0,0-7.088,3.7,3.7,0,0,1,1.388-.224A3.769,3.769,0,0,1,127,214.417" transform="translate(-91.694 -158.272)" fill="#6cc6c6"/>
          <path id="Trazado_830093" data-name="Trazado 830093" d="M87.091,265.8a3.77,3.77,0,1,1,3.664,3.873,3.776,3.776,0,0,1-3.664-3.873" transform="translate(-65.473 -197.073)" fill="#72dbd4"/>
          <path id="Trazado_830094" data-name="Trazado 830094" d="M92.041,269.494a3.393,3.393,0,0,1-1.293.2,3.77,3.77,0,1,1,.224-7.537,3.512,3.512,0,0,1,1.087.2,3.76,3.76,0,0,0-.017,7.14" transform="translate(-65.467 -197.085)" fill="#c7f1ed"/>
          <path id="Trazado_830095" data-name="Trazado 830095" d="M102.539,266.039a3.766,3.766,0,0,1-3.872,3.656,3.5,3.5,0,0,1-1.052-.19,3.768,3.768,0,0,0,.008-7.166,3.864,3.864,0,0,1,1.268-.181,3.762,3.762,0,0,1,3.648,3.881" transform="translate(-73.386 -197.088)" fill="#6cc6c6"/>
          <path id="Trazado_830096" data-name="Trazado 830096" d="M240.893,195.28a3.77,3.77,0,1,1,3.664,3.873,3.776,3.776,0,0,1-3.664-3.873" transform="translate(-181.1 -144.054)" fill="#72dbd4"/>
          <path id="Trazado_830097" data-name="Trazado 830097" d="M245.66,199.029a3.651,3.651,0,0,1-1.112.138,3.77,3.77,0,1,1,.224-7.537,3.417,3.417,0,0,1,.9.138,3.766,3.766,0,0,0-.009,7.261" transform="translate(-181.092 -144.065)" fill="#c7f1ed"/>
          <path id="Trazado_830098" data-name="Trazado 830098" d="M256.1,195.508a3.767,3.767,0,0,1-3.872,3.656,3.5,3.5,0,0,1-1.13-.215,3.762,3.762,0,0,0,.009-7.105,3.476,3.476,0,0,1,1.345-.216,3.762,3.762,0,0,1,3.648,3.881" transform="translate(-188.776 -144.062)" fill="#6cc6c6"/>
          <path id="Trazado_830099" data-name="Trazado 830099" d="M201.54,132.654a3.77,3.77,0,1,1-3.775-3.764,3.776,3.776,0,0,1,3.775,3.764" transform="translate(-145.848 -96.898)" fill="#72dbd4"/>
          <path id="Trazado_830100" data-name="Trazado 830100" d="M198.583,136.335a3.768,3.768,0,1,1,0-7.347,3.765,3.765,0,0,0,0,7.347" transform="translate(-145.838 -96.901)" fill="#c7f1ed"/>
          <path id="Trazado_830101" data-name="Trazado 830101" d="M209.237,132.653a3.776,3.776,0,0,1-3.777,3.777,3.578,3.578,0,0,1-1.224-.207,3.765,3.765,0,0,0,0-7.123,3.578,3.578,0,0,1,1.224-.207,3.772,3.772,0,0,1,3.777,3.76" transform="translate(-153.543 -96.901)" fill="#6cc6c6"/>
          <path id="Trazado_830102" data-name="Trazado 830102" d="M259.109,82.443a3.77,3.77,0,1,1-3.775-3.765,3.776,3.776,0,0,1,3.775,3.765" transform="translate(-189.128 -59.149)" fill="#72dbd4"/>
          <path id="Trazado_830103" data-name="Trazado 830103" d="M256.272,86.1a3.454,3.454,0,0,1-.948.129,3.768,3.768,0,0,1,0-7.537,3.454,3.454,0,0,1,.948.129,3.755,3.755,0,0,0,0,7.278" transform="translate(-189.117 -59.159)" fill="#c7f1ed"/>
          <path id="Trazado_830104" data-name="Trazado 830104" d="M267.013,82.451a3.776,3.776,0,0,1-3.777,3.777,3.419,3.419,0,0,1-1.155-.19,3.757,3.757,0,0,0,0-7.157,3.419,3.419,0,0,1,1.155-.19,3.772,3.772,0,0,1,3.777,3.76" transform="translate(-197.03 -59.159)" fill="#6cc6c6"/>
          <path id="Trazado_830105" data-name="Trazado 830105" d="M73.2,81.059H65.828v-3.5a.862.862,0,0,0-1.725,0v3.5H51.861v-3.5a.862.862,0,0,0-1.725,0v3.5H37.894v-3.5a.862.862,0,1,0-1.725,0v3.5H23.927v-3.5a.862.862,0,1,0-1.725,0v3.5H9.959v-3.5a.862.862,0,1,0-1.725,0v3.5H1.725v-9.5h3.5a.862.862,0,0,0,0-1.725h-3.5V57.594h3.5a.862.862,0,1,0,0-1.725h-3.5V43.627h3.5a.862.862,0,0,0,0-1.725h-3.5V29.66h3.5a.862.862,0,0,0,0-1.725h-3.5V15.693h3.5a.862.862,0,0,0,0-1.725h-3.5V.863A.862.862,0,0,0,0,.863V81.921a.862.862,0,0,0,.862.862H73.2a.862.862,0,0,0,0-1.725" transform="translate(0 -0.001)" fill="#215"/>
          <path id="Trazado_830106" data-name="Trazado 830106" d="M57.386,76.986A20.727,20.727,0,0,0,53.6,79.662a22.849,22.849,0,0,0-5.891,8.961,4.552,4.552,0,0,0-.517-.052,4.626,4.626,0,0,0-1.677,8.937c-.345,2.362-.57,4.73-.784,7.056a.864.864,0,0,0,.78.938c.027,0,.054,0,.08,0a.863.863,0,0,0,.858-.783c.209-2.276.431-4.591.765-6.89a4.614,4.614,0,0,0,2.148-8.7,21.088,21.088,0,0,1,5.392-8.19,18.981,18.981,0,0,1,3.44-2.429,4.612,4.612,0,0,0,8.226-2.891c0-.068-.017-.132-.02-.2.243-.063.475-.128.728-.189,1.461-.351,2.966-.664,4.421-.967a76.835,76.835,0,0,0,8.617-2.163,4.622,4.622,0,0,0,8.388-2.694,4.553,4.553,0,0,0-.23-1.367,39.375,39.375,0,0,0,7.75-7.005,4.556,4.556,0,0,0,2.132.547,4.642,4.642,0,0,0,4.638-4.638,4.594,4.594,0,0,0-1.671-3.526,35.084,35.084,0,0,0,2.273-5.5l2.128,3.784a.863.863,0,0,0,1.5-.846l-3.095-5.5a.871.871,0,0,0-1.32-.435L96.841,48.89a.862.862,0,0,0,.972,1.425l3.912-2.667a33.333,33.333,0,0,1-2.061,4.93,4.6,4.6,0,0,0-4.929,7.4A37.57,37.57,0,0,1,87.5,66.511a4.6,4.6,0,0,0-8.059,4.018A77.214,77.214,0,0,1,71.2,72.58c-1.468.305-2.986.621-4.472.978-.232.056-.476.12-.716.181a4.627,4.627,0,0,0-8.853,1.885,4.586,4.586,0,0,0,.227,1.362M47.2,96.11A2.907,2.907,0,1,1,50.108,93.2,2.911,2.911,0,0,1,47.2,96.11M98.209,54.046a2.907,2.907,0,1,1-2.9,2.9,2.911,2.911,0,0,1,2.9-2.9M83.92,66.509a2.907,2.907,0,1,1-2.9,2.9,2.91,2.91,0,0,1,2.9-2.9M61.786,72.721a2.908,2.908,0,1,1-2.9,2.9,2.911,2.911,0,0,1,2.9-2.9" transform="translate(-32.002 -33.655)" fill="#215"/>
          <path id="Trazado_830107" data-name="Trazado 830107" d="M42.561,154.663a4.632,4.632,0,1,0-4.627-4.638,4.642,4.642,0,0,0,4.627,4.638m0-7.539a2.907,2.907,0,1,1-2.9,2.9,2.911,2.911,0,0,1,2.9-2.9" transform="translate(-28.518 -109.31)" fill="#215"/>
          <path id="Trazado_830108" data-name="Trazado 830108" d="M128.716,114.844a4.632,4.632,0,1,0-4.627-4.638,4.642,4.642,0,0,0,4.627,4.638m0-7.54a2.908,2.908,0,1,1-2.9,2.9,2.911,2.911,0,0,1,2.9-2.9" transform="translate(-93.289 -79.373)" fill="#215"/>
          <path id="Trazado_830109" data-name="Trazado 830109" d="M141.547,63.494a4.632,4.632,0,1,0-4.627-4.638,4.642,4.642,0,0,0,4.627,4.638m0-7.539a2.907,2.907,0,1,1-2.9,2.9,2.91,2.91,0,0,1,2.9-2.9" transform="translate(-102.935 -40.77)" fill="#215"/>
          <path id="Trazado_830110" data-name="Trazado 830110" d="M199.054,78.683a4.632,4.632,0,1,0-4.627-4.638,4.642,4.642,0,0,0,4.627,4.638m0-7.539a2.907,2.907,0,1,1-2.9,2.9,2.911,2.911,0,0,1,2.9-2.9" transform="translate(-146.168 -52.189)" fill="#215"/>
          <path id="Trazado_830111" data-name="Trazado 830111" d="M222.348,26.381a4.632,4.632,0,1,0-4.627-4.638,4.642,4.642,0,0,0,4.627,4.638m0-7.539a2.907,2.907,0,1,1-2.9,2.9,2.911,2.911,0,0,1,2.9-2.9" transform="translate(-163.681 -12.868)" fill="#215"/>
          <path id="Trazado_830112" data-name="Trazado 830112" d="M70.663,101.354a4.632,4.632,0,1,0-4.627-4.638,4.642,4.642,0,0,0,4.627,4.638m0-7.54a2.908,2.908,0,1,1-2.9,2.9,2.911,2.911,0,0,1,2.9-2.9" transform="translate(-49.645 -69.232)" fill="#215"/>
          <path id="Trazado_830113" data-name="Trazado 830113" d="M275.067,137.133a4.592,4.592,0,0,0-3.234-1.455,4.687,4.687,0,0,0-3.317,1.263,4.632,4.632,0,0,0,3.047,8l.138,0a4.634,4.634,0,0,0,3.366-7.808m-1.376,5.291A2.907,2.907,0,1,1,271.7,137.4l.087,0a2.911,2.911,0,0,1,1.908,5.022" transform="translate(-200.773 -102.002)" fill="#215"/>
          <path id="Trazado_830114" data-name="Trazado 830114" d="M189.045,177.741a4.632,4.632,0,1,0-4.76,4.491l.137,0a4.634,4.634,0,0,0,4.624-4.493m-4.71,2.766a2.908,2.908,0,0,1,.083-5.814h.087a2.9,2.9,0,0,1,2.816,3,2.914,2.914,0,0,1-2.985,2.817" transform="translate(-135.159 -130.037)" fill="#215"/>
          <path id="Trazado_830115" data-name="Trazado 830115" d="M170.232,223.922l-.137,0a4.644,4.644,0,0,0-4.634,4.5,4.638,4.638,0,0,0,4.5,4.76l.14,0a4.632,4.632,0,0,0,.131-9.262m1.858,6.745a2.935,2.935,0,0,1-2.078.791,2.907,2.907,0,0,1,.083-5.813l.086,0a2.91,2.91,0,0,1,1.908,5.021" transform="translate(-124.39 -168.341)" fill="#215"/>
          <path id="Trazado_830116" data-name="Trazado 830116" d="M113.059,216.329a4.617,4.617,0,1,0-.136,0l.136,0m-2.912-4.712a2.911,2.911,0,0,1,2.908-2.828l.088,0a2.906,2.906,0,1,1-3,2.826" transform="translate(-81.509 -155.67)" fill="#215"/>
          <path id="Trazado_830117" data-name="Trazado 830117" d="M85.068,259.933a4.63,4.63,0,0,0,3.047,8h.137a4.632,4.632,0,1,0-3.183-8m6.083,3.458a2.877,2.877,0,0,1-2.985,2.816,2.907,2.907,0,1,1,.169-5.811,2.9,2.9,0,0,1,2.816,3" transform="translate(-62.859 -194.466)" fill="#215"/>
          <path id="Trazado_830118" data-name="Trazado 830118" d="M237.417,192.645a4.64,4.64,0,0,0,4.5,4.76l.137,0a4.629,4.629,0,1,0-4.638-4.762m2.637-1.983a2.926,2.926,0,0,1,2.083-.792,2.9,2.9,0,0,1,2.816,3,2.906,2.906,0,0,1-2.9,2.818h-.085a2.9,2.9,0,0,1-1.914-5.019" transform="translate(-178.487 -141.445)" fill="#215"/>
        </g>
      </g>
    </g>
  </g>
</svg>
