<svg xmlns="http://www.w3.org/2000/svg" xmlns:xlink="http://www.w3.org/1999/xlink" width="248.308" height="184.51" viewBox="0 0 248.308 184.51">
  <defs>
    <linearGradient id="linear-gradient" x1="0.5" x2="0.5" y2="1" gradientUnits="objectBoundingBox">
      <stop offset="0" stop-color="#b31a8f"/>
      <stop offset="1" stop-color="#fe117e"/>
    </linearGradient>
    <clipPath id="clip-path">
      <path id="Trazado_831534" data-name="Trazado 831534" d="M113.36,106.529s-.245,4.387.485,6.458,1.706,3.412,1.706,4.387-1.586,2.19-1.586,4.142,3.531,11.324,4.507,13.155.611,2.436,1.825,2.556,4.261-1.341,4.261-1.341,1.825.245,2.071.976.85,3.286.85,3.286l17.782-7.918a17.823,17.823,0,0,1-3.651-6.213c-1.1-3.531.611-9.014.611-9.014s1.706-12.79-6.087-16.441-19.122-1.341-20.948.485-1.825,5.482-1.825,5.482Z" transform="translate(-113.32 -98.628)" fill="#fff" stroke="#263238" stroke-linecap="round" stroke-linejoin="round" stroke-width="1"/>
    </clipPath>
    <clipPath id="clip-path-2">
      <path id="Trazado_831548" data-name="Trazado 831548" d="M93.951,155.87s.157.107.447.308c1.712,1.177,8.032,5.558,12.828,9.316,5.6,4.387,5.967,12.545,6.213,18.877s4.331,45.767,5.3,50.638-7.736,6.118-16.145,7.339-19.242-.12-24.479-2.556-6.452-2.316-6.452-4.991-.12-8.768-.12-9.259-3.777-30.326-3.531-39.094-.485-13.52,1.586-17.9,7.308-7.792,14.251-10.109,10.109-2.556,10.109-2.556Z" transform="translate(-68.001 -155.87)" fill="#c6ff00" stroke="#263238" stroke-linecap="round" stroke-linejoin="round" stroke-width="1"/>
    </clipPath>
    <clipPath id="clip-path-3">
      <path id="Trazado_831552" data-name="Trazado 831552" d="M127.839,149.256l3.286,5.482a137.722,137.722,0,0,0-14.981,4.387c-5.117,2.071-11.934,7.553-11.934,7.553s1.1-6.213,2.071-7.792,11.084-6.943,15.226-8.523,6.332-1.1,6.332-1.1Z" transform="translate(-104.21 -149.199)" fill="#c6ff00" stroke="#263238" stroke-linecap="round" stroke-linejoin="round" stroke-width="1"/>
    </clipPath>
    <clipPath id="clip-path-4">
      <path id="Trazado_831559" data-name="Trazado 831559" d="M173.112,189.342s3.418,4.633,4.513,8.283-.245,8.888-.611,10.109-19.853,39.579-21.923,43.356S150.7,255.112,149,254.5s-21.313-14.616-22.043-15.346-4.022-3.531-4.022-3.531-.611-3.9,2.071-5.967,4.022-.976,4.022-.976l17.052,4.626s9.624-33.127,10.719-39.46-.611-5.967,2.8-9.379a48.036,48.036,0,0,1,7.547-5.98" transform="translate(-122.88 -178.49)" fill="#c6ff00" stroke="#263238" stroke-linecap="round" stroke-linejoin="round" stroke-width="1"/>
    </clipPath>
  </defs>
  <g id="Grupo_1084879" data-name="Grupo 1084879" transform="translate(-2875.914 10368.035)">
    <path id="Trazado_831282" data-name="Trazado 831282" d="M148.49,218.98q-1.1,0-2.2.048c-12.18.548-23.647,5.507-35.135,9.583-8.44,3-17.389,5.564-26.239,5.564a39.862,39.862,0,0,1-9.526-1.106c-8.573-2.1-16.109-7.287-24.607-9.651a38.372,38.372,0,0,0-10.3-1.428c-28.666,0-50.437,33.2-35.806,60.156,4.009,7.388,10.2,13.31,15.383,19.929s9.559,14.6,8.86,22.979c-.581,6.932-4.533,13.111-6.171,19.874-3.129,12.958,3.076,27.21,13.817,35.1a43.587,43.587,0,0,0,25.866,8.032,50.46,50.46,0,0,0,12.278-1.521c12.923-3.244,24.337-11.2,33.312-21.049,4.805-5.271,9.492-11.438,16.4-13.23a17.713,17.713,0,0,1,4.473-.543c5.2,0,10.484,1.906,15.7,2.9a44.824,44.824,0,0,0,8.394.787,46.5,46.5,0,0,0,27.435-8.942c16.246-12,25.119-34.2,25.948-56.647.921-24.834-8.006-49.973-27.668-61.938a58.768,58.768,0,0,0-30.213-8.9h0Z" transform="translate(2905.264 -10587.015)" fill-rule="evenodd" opacity="0.41" fill="url(#linear-gradient)"/>
    <g id="_2202_w023_n001_1945b_p1_1945_Convertido_" data-name="2202_w023_n001_1945b_p1_1945 [Convertido]" transform="translate(2876.414 -10391.724)">
      <g id="Plants" transform="translate(3.613 124.26)">
        <path id="Trazado_831434" data-name="Trazado 831434" d="M350.148,225.713c2.279,2.851,3.393,4.438,3.871,5.155a54.235,54.235,0,0,0-2.6-9.19,27.205,27.205,0,0,1-1.586-7.182c.113.063.189.1.214.113l.2-.378c-.076-.044-7.837-4.161-10.033-8.044l-.371.208c1.983,3.512,8.113,7.062,9.788,7.988-1.592-.151-6.565-.906-9.517-4.563a14.426,14.426,0,0,1-2.927-9.826s6.691,4.6,9.41,8.158a25.549,25.549,0,0,1,3.172,5.281,36.762,36.762,0,0,1,.661-8.642c-2.235-1.756-10.455-8.523-11.355-13.577-1.045-5.854.415-15.893.415-15.893a51.242,51.242,0,0,0,2.927,6.061c1.882,3.349,7.736,8.573,8.781,14.219a24.416,24.416,0,0,1,.409,4.28,83.577,83.577,0,0,1,3.38-9.259,18.085,18.085,0,0,0,.837-2.493h0l.183-.107c-.038-.063-3.808-6.42-3.808-8.252h-.428c0,1.712,2.877,6.766,3.67,8.132a9.548,9.548,0,0,1-4.268-4.935,10.026,10.026,0,0,1,.579-7.113s3.179,4.67,4.047,7.66a17.59,17.59,0,0,1,.724,4.192,23.555,23.555,0,0,1,2.612-5.08,26.164,26.164,0,0,0,3.135-6.276,10.181,10.181,0,0,1,.629,8.158c-1.372,3.437-5.287,4.752-6.641,5.117-.151.453-.315.9-.5,1.328a71.975,71.975,0,0,0-4.286,12.872,25.837,25.837,0,0,1,4.557-4.859,26.177,26.177,0,0,0,4.822-5.092,10.158,10.158,0,0,1-1.762,7.988c-2.3,2.877-6.4,3.015-7.818,2.971a31.067,31.067,0,0,0,.566,15.459c.107-.995.7-3.689,3.984-6.71,4.142-3.814,12.444-16,12.444-16s-.661,14.389-4.639,19.122c-3.638,4.337-10.524,4.079-11.651,4.009.076.227.151.453.233.674a45.78,45.78,0,0,1,3.235,14.578h4.941v22.792h-13.6V235.966h7.792a32.757,32.757,0,0,0-.459-4.438,1.2,1.2,0,0,1,.138.044l.113-.409c-.088-.025-8.6-2.423-14.553-8.548l-.3.3a36.538,36.538,0,0,0,13.722,8.334c-2.455-.308-8.466-1.209-11.254-3.015-3.556-2.3-6.691-9.2-6.691-9.2s11.5,2.511,14.848,6.691Zm6.471-37.036a10.669,10.669,0,0,0,5.457-7.3l-.415-.082a10.214,10.214,0,0,1-5.212,7l.176.39Zm-6.017,16.24.094.145.164-.063c.233-.094,5.8-2.386,8.063-5.7l-.352-.239c-1.983,2.9-6.773,5.067-7.711,5.47-.718-1.1-5.243-8.12-6.817-12.526l-.4.145c1.725,4.821,6.9,12.689,6.962,12.765Zm1.983,15.61c.069-.025,6.7-2.524,9.649-8.246l-.378-.2c-2.876,5.583-9.353,8.019-9.416,8.044Z" transform="translate(-335.3 -175.32)" fill="#263238"/>
      </g>
      <g id="Table" transform="translate(25.039 96.527)">
        <g id="Grupo_1084837" data-name="Grupo 1084837">
          <g id="Grupo_1084829" data-name="Grupo 1084829" transform="translate(30.559)">
            <rect id="Rectángulo_383254" data-name="Rectángulo 383254" width="98.054" height="111.165" transform="translate(0.006)" fill="none" stroke="#263238" stroke-miterlimit="10" stroke-width="1"/>
            <rect id="Rectángulo_383255" data-name="Rectángulo 383255" width="89.733" height="101.73" transform="translate(8.327 9.435)" fill="none" stroke="#263238" stroke-miterlimit="10" stroke-width="1"/>
            <path id="Trazado_831435" data-name="Trazado 831435" d="M300.187,140.7l-8.327-9.435V242.425h8.327Z" transform="translate(-291.86 -131.26)" fill="#263238"/>
          </g>
          <g id="Grupo_1084836" data-name="Grupo 1084836" transform="translate(0 73.235)">
            <g id="Grupo_1084833" data-name="Grupo 1084833">
              <g id="Grupo_1084830" data-name="Grupo 1084830" transform="translate(12.954 3.26)">
                <rect id="Rectángulo_383256" data-name="Rectángulo 383256" width="4.054" height="20.482" transform="translate(17.605 14.194)" fill="#fff" stroke="#263238" stroke-linecap="round" stroke-linejoin="round" stroke-width="1"/>
                <path id="Trazado_831436" data-name="Trazado 831436" d="M305.09,287.459V252.79L322.7,266.984v20.476Z" transform="translate(-305.09 -252.79)" fill="#263238" stroke="#263238" stroke-linecap="round" stroke-linejoin="round" stroke-width="1"/>
              </g>
              <g id="Grupo_1084831" data-name="Grupo 1084831" transform="translate(150.776 3.26)">
                <rect id="Rectángulo_383257" data-name="Rectángulo 383257" width="4.054" height="20.482" transform="translate(17.605 14.194)" fill="#fff" stroke="#263238" stroke-linecap="round" stroke-linejoin="round" stroke-width="1"/>
                <path id="Trazado_831437" data-name="Trazado 831437" d="M86.13,287.459V252.79l17.605,14.194v20.476Z" transform="translate(-86.13 -252.79)" fill="#263238" stroke="#263238" stroke-linecap="round" stroke-linejoin="round" stroke-width="1"/>
              </g>
              <g id="Grupo_1084832" data-name="Grupo 1084832">
                <path id="Trazado_831438" data-name="Trazado 831438" d="M80.465,268.69h162.37l.063-1.328L54.79,247.61v1.341Z" transform="translate(-54.79 -247.61)" fill="#fff" stroke="#263238" stroke-linecap="round" stroke-linejoin="round" stroke-width="1"/>
                <path id="Trazado_831439" data-name="Trazado 831439" d="M80.565,267.349h162.37L201.971,247.61H54.89Z" transform="translate(-54.89 -247.61)" fill="#fff" stroke="#263238" stroke-linecap="round" stroke-linejoin="round" stroke-width="1"/>
                <path id="Trazado_831440" data-name="Trazado 831440" d="M281.339,269h17.2l-9.926-7.944H270.5Z" transform="translate(-246.204 -252.594)" stroke="#263238" stroke-linecap="round" stroke-linejoin="round" stroke-width="1" fill="url(#linear-gradient)"/>
                <path id="Trazado_831441" data-name="Trazado 831441" d="M338.525,268.69v-1.341L312.85,247.61v1.341Z" transform="translate(-312.85 -247.61)" fill="#263238" stroke="#263238" stroke-linecap="round" stroke-linejoin="round" stroke-width="1"/>
              </g>
            </g>
            <g id="Grupo_1084835" data-name="Grupo 1084835" transform="translate(13.771 0.895)">
              <path id="Trazado_831442" data-name="Trazado 831442" d="M312.158,249.062H282.531s-4.387-.409-3.569,1.781,4.664,2.329,13.168,2.606,10.7,5.489,10.7,5.489" transform="translate(-278.86 -249.032)" fill="none" stroke="#263238" stroke-linecap="round" stroke-linejoin="round" stroke-width="1"/>
              <g id="Grupo_1084834" data-name="Grupo 1084834" transform="translate(20.068 8.027)">
                <path id="Trazado_831443" data-name="Trazado 831443" d="M286.41,261.908a9.046,9.046,0,0,1,4.771.491c1.24.623,2.354,2.8,3.009,4.337a1.139,1.139,0,0,1-1.051,1.586h-3.745a1.123,1.123,0,0,1-.85-.384l-3.77-4.224s.164-1.643,1.643-1.813Z" transform="translate(-284.773 -261.785)" fill="#263238"/>
                <path id="Trazado_831444" data-name="Trazado 831444" d="M295.845,267.93a4.246,4.246,0,0,0-2.323-4.11" transform="translate(-291.861 -262.539)" fill="none" stroke="#fff" stroke-linecap="round" stroke-linejoin="round" stroke-width="0.5"/>
              </g>
            </g>
          </g>
        </g>
        <g id="Grupo_1084840" data-name="Grupo 1084840" transform="translate(43.041 79.032)">
          <g id="Grupo_1084838" data-name="Grupo 1084838" transform="translate(0)">
            <path id="Trazado_831445" data-name="Trazado 831445" d="M180.641,268.546h60.407L226.357,256.82H165.95Z" transform="translate(-165.95 -256.82)" fill="#fff" stroke="#263238" stroke-linecap="round" stroke-linejoin="round" stroke-width="1"/>
            <path id="Trazado_831446" data-name="Trazado 831446" d="M261.92,257.556v-.736l14.691,11.726v.736Z" transform="translate(-261.92 -256.82)" fill="none" stroke="#263238" stroke-linecap="round" stroke-linejoin="round" stroke-width="1"/>
            <rect id="Rectángulo_383258" data-name="Rectángulo 383258" width="60.407" height="0.736" transform="translate(14.691 11.726)" fill="#fff" stroke="#263238" stroke-linecap="round" stroke-linejoin="round" stroke-width="1"/>
          </g>
          <g id="Grupo_1084839" data-name="Grupo 1084839" transform="translate(5.703 1.964)">
            <path id="Trazado_831447" data-name="Trazado 831447" d="M198.151,267.41l1.939,1.567H196.1l-1.945-1.567Z" transform="translate(-148.45 -262.708)" fill="none" stroke="#263238" stroke-linecap="round" stroke-linejoin="round" stroke-width="1"/>
            <path id="Trazado_831448" data-name="Trazado 831448" d="M204.474,267.41l1.945,1.567h-3.991l-1.939-1.567Z" transform="translate(-158.764 -262.708)" fill="none" stroke="#263238" stroke-linecap="round" stroke-linejoin="round" stroke-width="1"/>
            <path id="Trazado_831449" data-name="Trazado 831449" d="M191.811,267.41l1.939,1.567h-3.991l-1.939-1.567Z" transform="translate(-138.119 -262.708)" fill="none" stroke="#263238" stroke-linecap="round" stroke-linejoin="round" stroke-width="1"/>
            <path id="Trazado_831450" data-name="Trazado 831450" d="M190.9,264.92h3.984l1.945,1.567h-3.991Z" transform="translate(-143.138 -261.785)" fill="none" stroke="#263238" stroke-linecap="round" stroke-linejoin="round" stroke-width="1"/>
            <path id="Trazado_831451" data-name="Trazado 831451" d="M202.259,264l-1.939-1.567H204.3L206.249,264Z" transform="translate(-158.487 -260.863)" fill="none" stroke="#263238" stroke-linecap="round" stroke-linejoin="round" stroke-width="1"/>
            <path id="Trazado_831452" data-name="Trazado 831452" d="M193.99,262.43h3.991L199.919,264h-3.984Z" transform="translate(-148.173 -260.863)" fill="none" stroke="#263238" stroke-linecap="round" stroke-linejoin="round" stroke-width="1"/>
            <path id="Trazado_831453" data-name="Trazado 831453" d="M210.821,267.41l1.939,1.567h-3.991l-1.939-1.567Z" transform="translate(-169.095 -262.708)" fill="none" stroke="#263238" stroke-linecap="round" stroke-linejoin="round" stroke-width="1"/>
            <path id="Trazado_831454" data-name="Trazado 831454" d="M242.5,267.41l1.945,1.567h-3.991l-1.945-1.567Z" transform="translate(-220.722 -262.708)" fill="none" stroke="#263238" stroke-linecap="round" stroke-linejoin="round" stroke-width="1"/>
            <path id="Trazado_831455" data-name="Trazado 831455" d="M208.6,264l-1.939-1.567h3.991L212.589,264Z" transform="translate(-168.818 -260.863)" fill="none" stroke="#263238" stroke-linecap="round" stroke-linejoin="round" stroke-width="1"/>
            <path id="Trazado_831456" data-name="Trazado 831456" d="M217.161,267.41l1.939,1.567h-3.984l-1.945-1.567Z" transform="translate(-179.426 -262.708)" fill="none" stroke="#263238" stroke-linecap="round" stroke-linejoin="round" stroke-width="1"/>
            <path id="Trazado_831457" data-name="Trazado 831457" d="M257.119,268.977h-3.984l-1.945-1.567h3.991Z" transform="translate(-241.377 -262.708)" fill="none" stroke="#263238" stroke-linecap="round" stroke-linejoin="round" stroke-width="1"/>
            <path id="Trazado_831458" data-name="Trazado 831458" d="M260.2,266.487h-3.991l-1.939-1.567h3.984Z" transform="translate(-246.396 -261.785)" fill="none" stroke="#263238" stroke-linecap="round" stroke-linejoin="round" stroke-width="1"/>
            <path id="Trazado_831459" data-name="Trazado 831459" d="M248.834,267.41l1.945,1.567h-3.991l-1.939-1.567Z" transform="translate(-231.046 -262.708)" fill="none" stroke="#263238" stroke-linecap="round" stroke-linejoin="round" stroke-width="1"/>
            <path id="Trazado_831460" data-name="Trazado 831460" d="M236.171,267.41l1.939,1.567h-3.984l-1.945-1.567Z" transform="translate(-210.401 -262.708)" fill="none" stroke="#263238" stroke-linecap="round" stroke-linejoin="round" stroke-width="1"/>
            <path id="Trazado_831461" data-name="Trazado 831461" d="M223.484,267.41l1.945,1.567h-3.991L219.5,267.41Z" transform="translate(-189.74 -262.708)" fill="none" stroke="#263238" stroke-linecap="round" stroke-linejoin="round" stroke-width="1"/>
            <path id="Trazado_831462" data-name="Trazado 831462" d="M229.831,267.41l1.939,1.567h-3.991l-1.939-1.567Z" transform="translate(-200.071 -262.708)" fill="none" stroke="#263238" stroke-linecap="round" stroke-linejoin="round" stroke-width="1"/>
            <path id="Trazado_831463" data-name="Trazado 831463" d="M233.949,264l-1.939-1.567H236L237.939,264Z" transform="translate(-210.124 -260.863)" fill="none" stroke="#263238" stroke-linecap="round" stroke-linejoin="round" stroke-width="1"/>
            <path id="Trazado_831464" data-name="Trazado 831464" d="M245.591,264.92l1.939,1.567h-3.991L241.6,264.92Z" transform="translate(-225.751 -261.785)" fill="none" stroke="#263238" stroke-linecap="round" stroke-linejoin="round" stroke-width="1"/>
            <path id="Trazado_831465" data-name="Trazado 831465" d="M232.911,264.92l1.945,1.567h-3.991l-1.945-1.567Z" transform="translate(-205.096 -261.785)" fill="none" stroke="#263238" stroke-linecap="round" stroke-linejoin="round" stroke-width="1"/>
            <path id="Trazado_831466" data-name="Trazado 831466" d="M220.241,264.92l1.939,1.567h-3.991l-1.939-1.567Z" transform="translate(-184.444 -261.785)" fill="none" stroke="#263238" stroke-linecap="round" stroke-linejoin="round" stroke-width="1"/>
            <path id="Trazado_831467" data-name="Trazado 831467" d="M239.244,264.92l1.945,1.567H237.2l-1.939-1.567Z" transform="translate(-215.42 -261.785)" fill="none" stroke="#263238" stroke-linecap="round" stroke-linejoin="round" stroke-width="1"/>
            <path id="Trazado_831468" data-name="Trazado 831468" d="M214.945,264,213,262.43h3.991L218.929,264Z" transform="translate(-179.149 -260.863)" fill="none" stroke="#263238" stroke-linecap="round" stroke-linejoin="round" stroke-width="1"/>
            <path id="Trazado_831469" data-name="Trazado 831469" d="M201.231,264.92l1.939,1.567h-3.991l-1.939-1.567Z" transform="translate(-153.469 -261.785)" fill="none" stroke="#263238" stroke-linecap="round" stroke-linejoin="round" stroke-width="1"/>
            <path id="Trazado_831470" data-name="Trazado 831470" d="M213.894,264.92l1.945,1.567h-3.991l-1.939-1.567Z" transform="translate(-174.114 -261.785)" fill="none" stroke="#263238" stroke-linecap="round" stroke-linejoin="round" stroke-width="1"/>
            <path id="Trazado_831471" data-name="Trazado 831471" d="M207.571,264.92l1.939,1.567h-3.984l-1.945-1.567Z" transform="translate(-163.799 -261.785)" fill="none" stroke="#263238" stroke-linecap="round" stroke-linejoin="round" stroke-width="1"/>
            <path id="Trazado_831472" data-name="Trazado 831472" d="M226.581,264.92l1.939,1.567h-3.984l-1.945-1.567Z" transform="translate(-194.775 -261.785)" fill="none" stroke="#263238" stroke-linecap="round" stroke-linejoin="round" stroke-width="1"/>
            <path id="Trazado_831473" data-name="Trazado 831473" d="M227.609,264l-1.939-1.567h3.984L231.6,264Z" transform="translate(-199.794 -260.863)" fill="none" stroke="#263238" stroke-linecap="round" stroke-linejoin="round" stroke-width="1"/>
            <path id="Trazado_831474" data-name="Trazado 831474" d="M263.289,264H259.3l-1.945-1.567h3.991Z" transform="translate(-251.431 -260.863)" fill="none" stroke="#263238" stroke-linecap="round" stroke-linejoin="round" stroke-width="1"/>
            <path id="Trazado_831475" data-name="Trazado 831475" d="M221.275,264l-1.945-1.567h3.991L225.266,264Z" transform="translate(-189.469 -260.863)" fill="none" stroke="#263238" stroke-linecap="round" stroke-linejoin="round" stroke-width="1"/>
            <path id="Trazado_831476" data-name="Trazado 831476" d="M246.619,264l-1.939-1.567h3.984L250.609,264Z" transform="translate(-230.769 -260.863)" fill="none" stroke="#263238" stroke-linecap="round" stroke-linejoin="round" stroke-width="1"/>
            <path id="Trazado_831477" data-name="Trazado 831477" d="M252.959,264l-1.939-1.567h3.991L256.949,264Z" transform="translate(-241.1 -260.863)" fill="none" stroke="#263238" stroke-linecap="round" stroke-linejoin="round" stroke-width="1"/>
            <path id="Trazado_831478" data-name="Trazado 831478" d="M253.869,266.487h-3.984l-1.945-1.567h3.991Z" transform="translate(-236.081 -261.785)" fill="none" stroke="#263238" stroke-linecap="round" stroke-linejoin="round" stroke-width="1"/>
            <path id="Trazado_831479" data-name="Trazado 831479" d="M240.295,264l-1.945-1.567h3.991L244.279,264Z" transform="translate(-220.455 -260.863)" fill="none" stroke="#263238" stroke-linecap="round" stroke-linejoin="round" stroke-width="1"/>
            <path id="Trazado_831480" data-name="Trazado 831480" d="M226.751,269.9l1.939,1.567H224.7L222.76,269.9Z" transform="translate(-195.052 -263.631)" fill="none" stroke="#263238" stroke-linecap="round" stroke-linejoin="round" stroke-width="1"/>
            <path id="Trazado_831481" data-name="Trazado 831481" d="M233.074,269.9l1.945,1.567h-3.991L229.09,269.9Z" transform="translate(-205.366 -263.631)" fill="none" stroke="#263238" stroke-linecap="round" stroke-linejoin="round" stroke-width="1"/>
            <path id="Trazado_831482" data-name="Trazado 831482" d="M220.411,269.9l1.939,1.567h-3.991L216.42,269.9Z" transform="translate(-184.721 -263.631)" fill="none" stroke="#263238" stroke-linecap="round" stroke-linejoin="round" stroke-width="1"/>
            <path id="Trazado_831483" data-name="Trazado 831483" d="M239.421,269.9l1.939,1.567h-3.991L235.43,269.9Z" transform="translate(-215.697 -263.631)" fill="none" stroke="#263238" stroke-linecap="round" stroke-linejoin="round" stroke-width="1"/>
            <path id="Trazado_831484" data-name="Trazado 831484" d="M214.064,269.9l1.945,1.567h-3.991L210.08,269.9Z" transform="translate(-174.391 -263.631)" fill="none" stroke="#263238" stroke-linecap="round" stroke-linejoin="round" stroke-width="1"/>
            <path id="Trazado_831485" data-name="Trazado 831485" d="M207.741,269.9l1.939,1.567h-3.984L203.75,269.9Z" transform="translate(-164.076 -263.631)" fill="none" stroke="#263238" stroke-linecap="round" stroke-linejoin="round" stroke-width="1"/>
            <path id="Trazado_831486" data-name="Trazado 831486" d="M245.761,269.9l1.939,1.567h-3.984L241.77,269.9Z" transform="translate(-226.028 -263.631)" fill="none" stroke="#263238" stroke-linecap="round" stroke-linejoin="round" stroke-width="1"/>
            <path id="Trazado_831487" data-name="Trazado 831487" d="M195.054,269.9,197,271.467h-3.991L191.07,269.9Z" transform="translate(-143.415 -263.631)" fill="none" stroke="#263238" stroke-linecap="round" stroke-linejoin="round" stroke-width="1"/>
            <path id="Trazado_831488" data-name="Trazado 831488" d="M201.4,269.9l1.939,1.567h-3.991L197.41,269.9Z" transform="translate(-153.746 -263.631)" fill="none" stroke="#263238" stroke-linecap="round" stroke-linejoin="round" stroke-width="1"/>
            <path id="Trazado_831489" data-name="Trazado 831489" d="M266.539,266.487h-3.991l-1.939-1.567H264.6Z" transform="translate(-256.726 -261.785)" fill="none" stroke="#263238" stroke-linecap="round" stroke-linejoin="round" stroke-width="1"/>
            <path id="Trazado_831490" data-name="Trazado 831490" d="M270.771,259.94l1.939,1.567h-3.984l-1.945-1.567Z" transform="translate(-266.78 -259.94)" fill="none" stroke="#263238" stroke-linecap="round" stroke-linejoin="round" stroke-width="1"/>
            <path id="Trazado_831491" data-name="Trazado 831491" d="M269.619,264h-3.991l-1.939-1.567h3.984Z" transform="translate(-261.745 -260.863)" fill="none" stroke="#263238" stroke-linecap="round" stroke-linejoin="round" stroke-width="1"/>
            <path id="Trazado_831492" data-name="Trazado 831492" d="M188.731,269.9l1.939,1.567h-3.984L184.74,269.9Z" transform="translate(-133.101 -263.631)" fill="none" stroke="#263238" stroke-linecap="round" stroke-linejoin="round" stroke-width="1"/>
            <path id="Trazado_831493" data-name="Trazado 831493" d="M252.084,269.9l1.945,1.567h-3.991L248.1,269.9Z" transform="translate(-236.342 -263.631)" fill="none" stroke="#263238" stroke-linecap="round" stroke-linejoin="round" stroke-width="1"/>
            <path id="Trazado_831494" data-name="Trazado 831494" d="M260.369,271.467h-3.991L254.44,269.9h3.991Z" transform="translate(-246.673 -263.631)" fill="none" stroke="#263238" stroke-linecap="round" stroke-linejoin="round" stroke-width="1"/>
            <path id="Trazado_831495" data-name="Trazado 831495" d="M263.456,268.977h-3.991l-1.945-1.567h3.991Z" transform="translate(-251.698 -262.708)" fill="none" stroke="#263238" stroke-linecap="round" stroke-linejoin="round" stroke-width="1"/>
            <path id="Trazado_831496" data-name="Trazado 831496" d="M184.57,264.92h3.991l1.939,1.567h-3.984Z" transform="translate(-132.824 -261.785)" fill="none" stroke="#263238" stroke-linecap="round" stroke-linejoin="round" stroke-width="1"/>
            <path id="Trazado_831497" data-name="Trazado 831497" d="M230.7,261.507l-1.945-1.567h3.991l1.939,1.567Z" transform="translate(-204.829 -259.94)" fill="none" stroke="#263238" stroke-linecap="round" stroke-linejoin="round" stroke-width="1"/>
            <path id="Trazado_831498" data-name="Trazado 831498" d="M237.029,261.507l-1.939-1.567h3.984l1.945,1.567Z" transform="translate(-215.143 -259.94)" fill="none" stroke="#263238" stroke-linecap="round" stroke-linejoin="round" stroke-width="1"/>
            <path id="Trazado_831499" data-name="Trazado 831499" d="M224.359,261.507l-1.939-1.567h3.991l1.939,1.567Z" transform="translate(-194.498 -259.94)" fill="none" stroke="#263238" stroke-linecap="round" stroke-linejoin="round" stroke-width="1"/>
            <path id="Trazado_831500" data-name="Trazado 831500" d="M243.369,261.507l-1.939-1.567h3.991l1.939,1.567Z" transform="translate(-225.474 -259.94)" fill="none" stroke="#263238" stroke-linecap="round" stroke-linejoin="round" stroke-width="1"/>
            <path id="Trazado_831501" data-name="Trazado 831501" d="M256.039,261.507,254.1,259.94h3.984l1.945,1.567Z" transform="translate(-246.119 -259.94)" fill="none" stroke="#263238" stroke-linecap="round" stroke-linejoin="round" stroke-width="1"/>
            <path id="Trazado_831502" data-name="Trazado 831502" d="M249.715,261.507l-1.945-1.567h3.991l1.939,1.567Z" transform="translate(-235.804 -259.94)" fill="none" stroke="#263238" stroke-linecap="round" stroke-linejoin="round" stroke-width="1"/>
            <path id="Trazado_831503" data-name="Trazado 831503" d="M218.019,261.507l-1.939-1.567h3.984l1.945,1.567Z" transform="translate(-184.167 -259.94)" fill="none" stroke="#263238" stroke-linecap="round" stroke-linejoin="round" stroke-width="1"/>
            <path id="Trazado_831504" data-name="Trazado 831504" d="M181.48,267.41h3.984l1.945,1.567h-3.991Z" transform="translate(-127.789 -262.708)" fill="none" stroke="#263238" stroke-linecap="round" stroke-linejoin="round" stroke-width="1"/>
            <path id="Trazado_831505" data-name="Trazado 831505" d="M187.65,262.43h3.991L193.579,264h-3.991Z" transform="translate(-137.842 -260.863)" fill="none" stroke="#263238" stroke-linecap="round" stroke-linejoin="round" stroke-width="1"/>
            <path id="Trazado_831506" data-name="Trazado 831506" d="M262.379,261.507l-1.939-1.567h3.991l1.939,1.567Z" transform="translate(-256.449 -259.94)" fill="none" stroke="#263238" stroke-linecap="round" stroke-linejoin="round" stroke-width="1"/>
            <path id="Trazado_831507" data-name="Trazado 831507" d="M182.391,269.9l1.939,1.567h-3.991L178.4,269.9Z" transform="translate(-122.77 -263.631)" fill="none" stroke="#263238" stroke-linecap="round" stroke-linejoin="round" stroke-width="1"/>
            <path id="Trazado_831508" data-name="Trazado 831508" d="M190.73,259.94h3.991l1.945,1.567h-3.991Z" transform="translate(-142.867 -259.94)" fill="none" stroke="#263238" stroke-linecap="round" stroke-linejoin="round" stroke-width="1"/>
            <path id="Trazado_831509" data-name="Trazado 831509" d="M205.355,261.507l-1.945-1.567H207.4l1.939,1.567Z" transform="translate(-163.522 -259.94)" fill="none" stroke="#263238" stroke-linecap="round" stroke-linejoin="round" stroke-width="1"/>
            <path id="Trazado_831510" data-name="Trazado 831510" d="M199.009,261.507l-1.939-1.567h3.984L203,261.507Z" transform="translate(-153.192 -259.94)" fill="none" stroke="#263238" stroke-linecap="round" stroke-linejoin="round" stroke-width="1"/>
            <path id="Trazado_831511" data-name="Trazado 831511" d="M211.685,261.507l-1.945-1.567h3.991l1.945,1.567Z" transform="translate(-173.843 -259.94)" fill="none" stroke="#263238" stroke-linecap="round" stroke-linejoin="round" stroke-width="1"/>
          </g>
        </g>
      </g>
      <g id="Device_3" data-name="Device 3" transform="translate(41.367 109.802)">
        <g id="Grupo_1084843" data-name="Grupo 1084843" transform="translate(0)">
          <g id="Grupo_1084841" data-name="Grupo 1084841" transform="translate(21.557 48.517)">
            <path id="Trazado_831512" data-name="Trazado 831512" d="M258.074,252.809H278.9a.328.328,0,0,0,.145-.623l-4.28-2.065a.373.373,0,0,0-.145-.031H255.392a.331.331,0,0,0-.2.592l2.681,2.065a.325.325,0,0,0,.2.069Z" transform="translate(-255.064 -237.086)" fill="#263238" stroke="#263238" stroke-linecap="round" stroke-linejoin="round" stroke-width="1"/>
            <rect id="Rectángulo_383259" data-name="Rectángulo 383259" width="3.827" height="14.584" transform="translate(9.122)" fill="#fff" stroke="#263238" stroke-linecap="round" stroke-linejoin="round" stroke-width="1"/>
            <rect id="Rectángulo_383260" data-name="Rectángulo 383260" width="5.023" height="10.587" transform="translate(8.524)" fill="#263238" stroke="#263238" stroke-linecap="round" stroke-linejoin="round" stroke-width="1"/>
          </g>
          <rect id="Rectángulo_383261" data-name="Rectángulo 383261" width="63.372" height="49.568" fill="#fff" stroke="#263238" stroke-linecap="round" stroke-linejoin="round" stroke-width="1"/>
          <rect id="Rectángulo_383262" data-name="Rectángulo 383262" width="56.593" height="44.268" transform="translate(3.393 2.656)" fill="#263238" stroke="#263238" stroke-linecap="round" stroke-linejoin="round" stroke-width="1"/>
          <g id="Grupo_1084842" data-name="Grupo 1084842" transform="translate(14.137 4.941)">
            <path id="Trazado_831513" data-name="Trazado 831513" d="M256.135,160.962h1.46a.359.359,0,0,0,.359-.359.363.363,0,0,0-.359-.359h-1.46a.359.359,0,0,0-.359.359A.363.363,0,0,0,256.135,160.962Zm-.359,1.309a.359.359,0,0,1,.359-.359h1.46a.359.359,0,0,1,.359.359.363.363,0,0,1-.359.359h-1.46A.359.359,0,0,1,255.776,162.271Zm0,1.668a.359.359,0,0,1,.359-.359h1.46a.359.359,0,0,1,.359.359.363.363,0,0,1-.359.359h-1.46A.359.359,0,0,1,255.776,163.939Zm0,1.668a.359.359,0,0,1,.359-.359h1.46a.359.359,0,0,1,.359.359.363.363,0,0,1-.359.359h-1.46A.359.359,0,0,1,255.776,165.607Zm0,1.668a.359.359,0,0,1,.359-.359h1.46a.359.359,0,0,1,.359.359.363.363,0,0,1-.359.359h-1.46A.359.359,0,0,1,255.776,167.275Zm0,1.668a.359.359,0,0,1,.359-.359h1.46a.359.359,0,0,1,.359.359.363.363,0,0,1-.359.359h-1.46A.359.359,0,0,1,255.776,168.943Zm0,1.668a.359.359,0,0,1,.359-.359h1.46a.359.359,0,0,1,.359.359.363.363,0,0,1-.359.359h-1.46A.359.359,0,0,1,255.776,170.611Zm0,1.668a.359.359,0,0,1,.359-.359h1.46a.359.359,0,0,1,.359.359.363.363,0,0,1-.359.359h-1.46A.359.359,0,0,1,255.776,172.279Zm-5.457-11.67a.359.359,0,0,1,.359-.359H254.5a.359.359,0,0,1,.359.359.363.363,0,0,1-.359.359h-3.827A.359.359,0,0,1,250.319,160.609Zm0,1.668a.359.359,0,0,1,.359-.359H254.5a.359.359,0,0,1,.359.359.363.363,0,0,1-.359.359h-3.827A.359.359,0,0,1,250.319,162.277Zm0,1.668a.359.359,0,0,1,.359-.359H254.5a.359.359,0,0,1,.359.359.363.363,0,0,1-.359.359h-3.827A.359.359,0,0,1,250.319,163.945Zm0,1.668a.359.359,0,0,1,.359-.359H254.5a.359.359,0,0,1,.359.359.363.363,0,0,1-.359.359h-3.827A.359.359,0,0,1,250.319,165.613Zm0,1.668a.359.359,0,0,1,.359-.359H254.5a.359.359,0,0,1,.359.359.363.363,0,0,1-.359.359h-3.827A.359.359,0,0,1,250.319,167.281Zm-4.582,1.668a.359.359,0,0,1,.359-.359h3.827a.359.359,0,0,1,.359.359.363.363,0,0,1-.359.359H246.1A.359.359,0,0,1,245.736,168.949Zm0,1.668a.359.359,0,0,1,.359-.359h3.827a.359.359,0,0,1,.359.359.363.363,0,0,1-.359.359H246.1A.359.359,0,0,1,245.736,170.617Zm0,1.668a.359.359,0,0,1,.359-.359h3.827a.359.359,0,0,1,.359.359.363.363,0,0,1-.359.359H246.1A.359.359,0,0,1,245.736,172.285Zm2.9-11.67a.415.415,0,1,1,.415.415A.415.415,0,0,1,248.638,160.615Zm-1.253,0a.415.415,0,1,1,.415.415A.415.415,0,0,1,247.386,160.615Zm-1.253,0a.415.415,0,1,1,.415.415A.415.415,0,0,1,246.133,160.615Zm-1.253,0a.415.415,0,1,1,.415.415A.415.415,0,0,1,244.88,160.615Zm-1.253,0a.415.415,0,1,1,.415.415A.415.415,0,0,1,243.628,160.615Zm-1.253,0a.415.415,0,1,1,.415.415A.415.415,0,0,1,242.375,160.615Zm6.25,3.336a.415.415,0,1,1,.415.415A.415.415,0,0,1,248.626,163.951Zm-1.253,0a.415.415,0,1,1,.415.415A.415.415,0,0,1,247.373,163.951Zm-1.253,0a.415.415,0,1,1,.415.415A.415.415,0,0,1,246.12,163.951Zm-1.253,0a.415.415,0,1,1,.415.415A.415.415,0,0,1,244.868,163.951Zm-1.253,0a.415.415,0,1,1,.415.415A.415.415,0,0,1,243.615,163.951Zm-1.253,0a.415.415,0,1,1,.415.415A.415.415,0,0,1,242.363,163.951Zm1.983,4.79a.415.415,0,1,1,.415.415A.415.415,0,0,1,244.345,168.741Zm-1.253,0a.415.415,0,1,1,.415.415A.415.415,0,0,1,243.093,168.741Zm-1.253,0a.415.415,0,1,1,.415.415A.415.415,0,0,1,241.84,168.741Zm-1.253,0a.415.415,0,1,1,.415.415A.415.415,0,0,1,240.588,168.741Zm-1.253,0a.415.415,0,1,1,.415.415A.415.415,0,0,1,239.335,168.741Zm-1.253,0a.415.415,0,1,1,.415.415A.415.415,0,0,1,238.083,168.741Zm6.25,3.437a.415.415,0,1,1,.415.415A.415.415,0,0,1,244.333,172.178Zm-1.253,0a.415.415,0,1,1,.415.415A.415.415,0,0,1,243.08,172.178Zm-1.253,0a.415.415,0,1,1,.415.415A.415.415,0,0,1,241.828,172.178Zm-1.253,0a.415.415,0,1,1,.415.415A.415.415,0,0,1,240.575,172.178Zm-1.253,0a.415.415,0,1,1,.415.415A.415.415,0,0,1,239.323,172.178Zm-1.253,0a.415.415,0,1,1,.415.415A.415.415,0,0,1,238.07,172.178Z" transform="translate(-215.675 -160.2)" fill="url(#linear-gradient)"/>
            <path id="Trazado_831514" data-name="Trazado 831514" d="M256.135,182.152h1.46a.359.359,0,0,0,.359-.359.363.363,0,0,0-.359-.359h-1.46a.359.359,0,0,0-.359.359A.363.363,0,0,0,256.135,182.152Zm-.359,1.309a.359.359,0,0,1,.359-.359h1.46a.359.359,0,0,1,.359.359.363.363,0,0,1-.359.359h-1.46A.359.359,0,0,1,255.776,183.461Zm0,1.668a.359.359,0,0,1,.359-.359h1.46a.359.359,0,0,1,.359.359.363.363,0,0,1-.359.359h-1.46A.359.359,0,0,1,255.776,185.129Zm0,1.668a.359.359,0,0,1,.359-.359h1.46a.359.359,0,0,1,.359.359.363.363,0,0,1-.359.359h-1.46A.359.359,0,0,1,255.776,186.8Zm0,1.668a.359.359,0,0,1,.359-.359h1.46a.359.359,0,0,1,.359.359.363.363,0,0,1-.359.359h-1.46A.359.359,0,0,1,255.776,188.465Zm0,1.668a.359.359,0,0,1,.359-.359h1.46a.359.359,0,0,1,.359.359.363.363,0,0,1-.359.359h-1.46A.359.359,0,0,1,255.776,190.133Zm0,1.668a.359.359,0,0,1,.359-.359h1.46a.359.359,0,0,1,.359.359.363.363,0,0,1-.359.359h-1.46A.359.359,0,0,1,255.776,191.8Zm0,1.668a.359.359,0,0,1,.359-.359h1.46a.359.359,0,0,1,.359.359.363.363,0,0,1-.359.359h-1.46A.359.359,0,0,1,255.776,193.469Zm-5.457-11.67a.359.359,0,0,1,.359-.359H254.5a.359.359,0,0,1,.359.359.363.363,0,0,1-.359.359h-3.827A.359.359,0,0,1,250.319,181.8Zm0,1.668a.359.359,0,0,1,.359-.359H254.5a.359.359,0,0,1,.359.359.363.363,0,0,1-.359.359h-3.827A.359.359,0,0,1,250.319,183.467Zm0,1.668a.359.359,0,0,1,.359-.359H254.5a.359.359,0,0,1,.359.359.363.363,0,0,1-.359.359h-3.827A.359.359,0,0,1,250.319,185.135Zm0,1.668a.359.359,0,0,1,.359-.359H254.5a.359.359,0,0,1,.359.359.363.363,0,0,1-.359.359h-3.827A.359.359,0,0,1,250.319,186.8Zm0,1.668a.359.359,0,0,1,.359-.359H254.5a.359.359,0,0,1,.359.359.363.363,0,0,1-.359.359h-3.827A.359.359,0,0,1,250.319,188.471Zm-4.582,1.668a.359.359,0,0,1,.359-.359h3.827a.359.359,0,0,1,.359.359.363.363,0,0,1-.359.359H246.1A.359.359,0,0,1,245.736,190.139Zm0,1.668a.359.359,0,0,1,.359-.359h3.827a.359.359,0,0,1,.359.359.363.363,0,0,1-.359.359H246.1A.359.359,0,0,1,245.736,191.807Zm0,1.668a.359.359,0,0,1,.359-.359h3.827a.359.359,0,0,1,.359.359.363.363,0,0,1-.359.359H246.1A.359.359,0,0,1,245.736,193.475Zm2.9-11.67a.415.415,0,1,1,.415.415A.415.415,0,0,1,248.638,181.805Zm-1.253,0a.415.415,0,1,1,.415.415A.415.415,0,0,1,247.386,181.805Zm-1.253,0a.415.415,0,1,1,.415.415A.415.415,0,0,1,246.133,181.805Zm-1.253,0a.415.415,0,1,1,.415.415A.415.415,0,0,1,244.88,181.805Zm-1.253,0a.415.415,0,1,1,.415.415A.415.415,0,0,1,243.628,181.805Zm-1.253,0a.415.415,0,1,1,.415.415A.415.415,0,0,1,242.375,181.805Zm6.25,3.336a.415.415,0,1,1,.415.415A.415.415,0,0,1,248.626,185.141Zm-1.253,0a.415.415,0,1,1,.415.415A.415.415,0,0,1,247.373,185.141Zm-1.253,0a.415.415,0,1,1,.415.415A.415.415,0,0,1,246.12,185.141Zm-1.253,0a.415.415,0,1,1,.415.415A.415.415,0,0,1,244.868,185.141Zm-1.253,0a.415.415,0,1,1,.415.415A.415.415,0,0,1,243.615,185.141Zm-1.253,0a.415.415,0,1,1,.415.415A.415.415,0,0,1,242.363,185.141Zm1.983,4.79a.415.415,0,1,1,.415.415A.415.415,0,0,1,244.345,189.931Zm-1.253,0a.415.415,0,1,1,.415.415A.415.415,0,0,1,243.093,189.931Zm-1.253,0a.415.415,0,1,1,.415.415A.415.415,0,0,1,241.84,189.931Zm-1.253,0a.415.415,0,1,1,.415.415A.415.415,0,0,1,240.588,189.931Zm-1.253,0a.415.415,0,1,1,.415.415A.415.415,0,0,1,239.335,189.931Zm-1.253,0a.415.415,0,1,1,.415.415A.415.415,0,0,1,238.083,189.931Zm6.25,3.437a.415.415,0,1,1,.415.415A.415.415,0,0,1,244.333,193.368Zm-1.253,0a.415.415,0,1,1,.415.415A.415.415,0,0,1,243.08,193.368Zm-1.253,0a.415.415,0,1,1,.415.415A.415.415,0,0,1,241.828,193.368Zm-1.253,0a.415.415,0,1,1,.415.415A.415.415,0,0,1,240.575,193.368Zm-1.253,0a.415.415,0,1,1,.415.415A.415.415,0,0,1,239.323,193.368Zm-1.253,0a.415.415,0,1,1,.415.415A.415.415,0,0,1,238.07,193.368Z" transform="translate(-215.675 -168.052)" fill="url(#linear-gradient)"/>
            <path id="Trazado_831515" data-name="Trazado 831515" d="M256.135,203.862h1.46a.359.359,0,0,0,.359-.359.363.363,0,0,0-.359-.359h-1.46a.359.359,0,0,0-.359.359A.363.363,0,0,0,256.135,203.862Zm-.359,1.309a.359.359,0,0,1,.359-.359h1.46a.359.359,0,0,1,.359.359.363.363,0,0,1-.359.359h-1.46A.359.359,0,0,1,255.776,205.171Zm0,1.668a.359.359,0,0,1,.359-.359h1.46a.359.359,0,0,1,.359.359.363.363,0,0,1-.359.359h-1.46A.359.359,0,0,1,255.776,206.839Zm0,1.668a.359.359,0,0,1,.359-.359h1.46a.359.359,0,0,1,.359.359.363.363,0,0,1-.359.359h-1.46A.359.359,0,0,1,255.776,208.507Zm0,1.668a.359.359,0,0,1,.359-.359h1.46a.359.359,0,0,1,.359.359.363.363,0,0,1-.359.359h-1.46A.359.359,0,0,1,255.776,210.175Zm0,1.668a.359.359,0,0,1,.359-.359h1.46a.359.359,0,0,1,.359.359.363.363,0,0,1-.359.359h-1.46A.359.359,0,0,1,255.776,211.843Zm0,1.668a.359.359,0,0,1,.359-.359h1.46a.359.359,0,0,1,.359.359.363.363,0,0,1-.359.359h-1.46A.359.359,0,0,1,255.776,213.511Zm0,1.668a.359.359,0,0,1,.359-.359h1.46a.359.359,0,0,1,.359.359.363.363,0,0,1-.359.359h-1.46A.359.359,0,0,1,255.776,215.179Zm-5.457-11.67a.359.359,0,0,1,.359-.359H254.5a.359.359,0,0,1,.359.359.363.363,0,0,1-.359.359h-3.827A.359.359,0,0,1,250.319,203.509Zm0,1.668a.359.359,0,0,1,.359-.359H254.5a.359.359,0,0,1,.359.359.363.363,0,0,1-.359.359h-3.827A.359.359,0,0,1,250.319,205.177Zm0,1.668a.359.359,0,0,1,.359-.359H254.5a.359.359,0,0,1,.359.359.363.363,0,0,1-.359.359h-3.827A.359.359,0,0,1,250.319,206.845Zm0,1.668a.359.359,0,0,1,.359-.359H254.5a.359.359,0,0,1,.359.359.363.363,0,0,1-.359.359h-3.827A.359.359,0,0,1,250.319,208.513Zm0,1.668a.359.359,0,0,1,.359-.359H254.5a.359.359,0,0,1,.359.359.363.363,0,0,1-.359.359h-3.827A.359.359,0,0,1,250.319,210.181Zm-4.582,1.668a.359.359,0,0,1,.359-.359h3.827a.359.359,0,0,1,.359.359.363.363,0,0,1-.359.359H246.1A.359.359,0,0,1,245.736,211.849Zm0,1.668a.359.359,0,0,1,.359-.359h3.827a.359.359,0,0,1,.359.359.363.363,0,0,1-.359.359H246.1A.359.359,0,0,1,245.736,213.517Zm0,1.668a.359.359,0,0,1,.359-.359h3.827a.359.359,0,0,1,.359.359.363.363,0,0,1-.359.359H246.1A.359.359,0,0,1,245.736,215.185Zm2.9-11.67a.415.415,0,1,1,.415.415A.415.415,0,0,1,248.638,203.515Zm-1.253,0a.415.415,0,1,1,.415.415A.415.415,0,0,1,247.386,203.515Zm-1.253,0a.415.415,0,1,1,.415.415A.415.415,0,0,1,246.133,203.515Zm-1.253,0a.415.415,0,1,1,.415.415A.415.415,0,0,1,244.88,203.515Zm-1.253,0a.415.415,0,1,1,.415.415A.415.415,0,0,1,243.628,203.515Zm-1.253,0a.415.415,0,1,1,.415.415A.415.415,0,0,1,242.375,203.515Zm6.25,3.336a.415.415,0,1,1,.415.415A.415.415,0,0,1,248.626,206.851Zm-1.253,0a.415.415,0,1,1,.415.415A.415.415,0,0,1,247.373,206.851Zm-1.253,0a.415.415,0,1,1,.415.415A.415.415,0,0,1,246.12,206.851Zm-1.253,0a.415.415,0,1,1,.415.415A.415.415,0,0,1,244.868,206.851Zm-1.253,0a.415.415,0,1,1,.415.415A.415.415,0,0,1,243.615,206.851Zm-1.253,0a.415.415,0,1,1,.415.415A.415.415,0,0,1,242.363,206.851Zm1.983,4.79a.415.415,0,1,1,.415.415A.415.415,0,0,1,244.345,211.641Zm-1.253,0a.415.415,0,1,1,.415.415A.415.415,0,0,1,243.093,211.641Zm-1.253,0a.415.415,0,1,1,.415.415A.415.415,0,0,1,241.84,211.641Zm-1.253,0a.415.415,0,1,1,.415.415A.415.415,0,0,1,240.588,211.641Zm-1.253,0a.415.415,0,1,1,.415.415A.415.415,0,0,1,239.335,211.641Zm-1.253,0a.415.415,0,1,1,.415.415A.415.415,0,0,1,238.083,211.641Zm6.25,3.437a.415.415,0,1,1,.415.415A.415.415,0,0,1,244.333,215.078Zm-1.253,0a.415.415,0,1,1,.415.415A.415.415,0,0,1,243.08,215.078Zm-1.253,0a.415.415,0,1,1,.415.415A.415.415,0,0,1,241.828,215.078Zm-1.253,0a.415.415,0,1,1,.415.415A.415.415,0,0,1,240.575,215.078Zm-1.253,0a.415.415,0,1,1,.415.415A.415.415,0,0,1,239.323,215.078Zm-1.253,0a.415.415,0,1,1,.415.415A.415.415,0,0,1,238.07,215.078Z" transform="translate(-215.675 -176.097)" fill="url(#linear-gradient)"/>
            <path id="Trazado_831516" data-name="Trazado 831516" d="M291.715,160.962h1.46a.359.359,0,0,0,.359-.359.363.363,0,0,0-.359-.359h-1.46a.359.359,0,0,0-.359.359A.363.363,0,0,0,291.715,160.962Zm-.359,1.309a.359.359,0,0,1,.359-.359h1.46a.359.359,0,0,1,.359.359.363.363,0,0,1-.359.359h-1.46A.359.359,0,0,1,291.356,162.271Zm0,1.668a.359.359,0,0,1,.359-.359h1.46a.359.359,0,0,1,.359.359.363.363,0,0,1-.359.359h-1.46A.359.359,0,0,1,291.356,163.939Zm0,1.668a.359.359,0,0,1,.359-.359h1.46a.359.359,0,0,1,.359.359.363.363,0,0,1-.359.359h-1.46A.359.359,0,0,1,291.356,165.607Zm0,1.668a.359.359,0,0,1,.359-.359h1.46a.359.359,0,0,1,.359.359.363.363,0,0,1-.359.359h-1.46A.359.359,0,0,1,291.356,167.275Zm0,1.668a.359.359,0,0,1,.359-.359h1.46a.359.359,0,0,1,.359.359.363.363,0,0,1-.359.359h-1.46A.359.359,0,0,1,291.356,168.943Zm0,1.668a.359.359,0,0,1,.359-.359h1.46a.359.359,0,0,1,.359.359.363.363,0,0,1-.359.359h-1.46A.359.359,0,0,1,291.356,170.611Zm0,1.668a.359.359,0,0,1,.359-.359h1.46a.359.359,0,0,1,.359.359.363.363,0,0,1-.359.359h-1.46A.359.359,0,0,1,291.356,172.279Zm-5.457-11.67a.359.359,0,0,1,.359-.359h3.827a.359.359,0,0,1,.359.359.363.363,0,0,1-.359.359h-3.827A.359.359,0,0,1,285.9,160.609Zm0,1.668a.359.359,0,0,1,.359-.359h3.827a.359.359,0,0,1,.359.359.363.363,0,0,1-.359.359h-3.827A.359.359,0,0,1,285.9,162.277Zm0,1.668a.359.359,0,0,1,.359-.359h3.827a.359.359,0,0,1,.359.359.363.363,0,0,1-.359.359h-3.827A.359.359,0,0,1,285.9,163.945Zm0,1.668a.359.359,0,0,1,.359-.359h3.827a.359.359,0,0,1,.359.359.363.363,0,0,1-.359.359h-3.827A.359.359,0,0,1,285.9,165.613Zm0,1.668a.359.359,0,0,1,.359-.359h3.827a.359.359,0,0,1,.359.359.363.363,0,0,1-.359.359h-3.827A.359.359,0,0,1,285.9,167.281Zm-4.582,1.668a.359.359,0,0,1,.359-.359H285.5a.359.359,0,0,1,.359.359.363.363,0,0,1-.359.359h-3.827A.359.359,0,0,1,281.316,168.949Zm0,1.668a.359.359,0,0,1,.359-.359H285.5a.359.359,0,0,1,.359.359.363.363,0,0,1-.359.359h-3.827A.359.359,0,0,1,281.316,170.617Zm0,1.668a.359.359,0,0,1,.359-.359H285.5a.359.359,0,0,1,.359.359.363.363,0,0,1-.359.359h-3.827A.359.359,0,0,1,281.316,172.285Zm2.9-11.67a.415.415,0,1,1,.415.415A.415.415,0,0,1,284.218,160.615Zm-1.253,0a.415.415,0,1,1,.415.415A.415.415,0,0,1,282.966,160.615Zm-1.253,0a.415.415,0,1,1,.416.415A.415.415,0,0,1,281.713,160.615Zm-1.253,0a.415.415,0,1,1,.415.415A.415.415,0,0,1,280.46,160.615Zm-1.253,0a.415.415,0,1,1,.415.415A.415.415,0,0,1,279.208,160.615Zm-1.253,0a.415.415,0,1,1,.415.415A.415.415,0,0,1,277.955,160.615Zm6.25,3.336a.415.415,0,1,1,.415.415A.415.415,0,0,1,284.206,163.951Zm-1.253,0a.415.415,0,1,1,.415.415A.415.415,0,0,1,282.953,163.951Zm-1.253,0a.415.415,0,1,1,.415.415A.415.415,0,0,1,281.7,163.951Zm-1.253,0a.415.415,0,1,1,.416.415A.415.415,0,0,1,280.448,163.951Zm-1.253,0a.415.415,0,1,1,.415.415A.415.415,0,0,1,279.2,163.951Zm-1.253,0a.415.415,0,1,1,.415.415A.415.415,0,0,1,277.943,163.951Zm1.983,4.79a.415.415,0,1,1,.415.415A.415.415,0,0,1,279.925,168.741Zm-1.253,0a.415.415,0,1,1,.415.415A.415.415,0,0,1,278.673,168.741Zm-1.253,0a.415.415,0,1,1,.415.415A.415.415,0,0,1,277.42,168.741Zm-1.253,0a.415.415,0,1,1,.415.415A.415.415,0,0,1,276.168,168.741Zm-1.253,0a.415.415,0,1,1,.415.415A.415.415,0,0,1,274.915,168.741Zm-1.253,0a.415.415,0,1,1,.415.415A.415.415,0,0,1,273.663,168.741Zm6.25,3.437a.415.415,0,1,1,.415.415A.415.415,0,0,1,279.913,172.178Zm-1.253,0a.415.415,0,1,1,.415.415A.415.415,0,0,1,278.66,172.178Zm-1.253,0a.415.415,0,1,1,.415.415A.415.415,0,0,1,277.408,172.178Zm-1.253,0a.415.415,0,1,1,.415.415A.415.415,0,0,1,276.155,172.178Zm-1.253,0a.415.415,0,1,1,.415.415A.415.415,0,0,1,274.9,172.178Zm-1.253,0a.415.415,0,1,1,.415.415A.415.415,0,0,1,273.65,172.178Z" transform="translate(-273.65 -160.2)" fill="url(#linear-gradient)"/>
            <path id="Trazado_831517" data-name="Trazado 831517" d="M291.715,182.662h1.46a.359.359,0,0,0,.359-.359.363.363,0,0,0-.359-.359h-1.46a.359.359,0,0,0-.359.359A.363.363,0,0,0,291.715,182.662Zm-.359,1.309a.359.359,0,0,1,.359-.359h1.46a.359.359,0,0,1,.359.359.363.363,0,0,1-.359.359h-1.46A.359.359,0,0,1,291.356,183.971Zm0,1.668a.359.359,0,0,1,.359-.359h1.46a.359.359,0,0,1,.359.359.363.363,0,0,1-.359.359h-1.46A.359.359,0,0,1,291.356,185.639Zm0,1.668a.359.359,0,0,1,.359-.359h1.46a.359.359,0,0,1,.359.359.363.363,0,0,1-.359.359h-1.46A.359.359,0,0,1,291.356,187.307Zm0,1.668a.359.359,0,0,1,.359-.359h1.46a.359.359,0,0,1,.359.359.363.363,0,0,1-.359.359h-1.46A.359.359,0,0,1,291.356,188.975Zm0,1.668a.359.359,0,0,1,.359-.359h1.46a.359.359,0,0,1,.359.359.363.363,0,0,1-.359.359h-1.46A.359.359,0,0,1,291.356,190.643Zm0,1.668a.359.359,0,0,1,.359-.359h1.46a.359.359,0,0,1,.359.359.363.363,0,0,1-.359.359h-1.46A.359.359,0,0,1,291.356,192.311Zm0,1.668a.359.359,0,0,1,.359-.359h1.46a.359.359,0,0,1,.359.359.363.363,0,0,1-.359.359h-1.46A.359.359,0,0,1,291.356,193.979Zm-5.457-11.67a.359.359,0,0,1,.359-.359h3.827a.359.359,0,0,1,.359.359.363.363,0,0,1-.359.359h-3.827A.359.359,0,0,1,285.9,182.309Zm0,1.668a.359.359,0,0,1,.359-.359h3.827a.359.359,0,0,1,.359.359.363.363,0,0,1-.359.359h-3.827A.359.359,0,0,1,285.9,183.977Zm0,1.668a.359.359,0,0,1,.359-.359h3.827a.359.359,0,0,1,.359.359.363.363,0,0,1-.359.359h-3.827A.359.359,0,0,1,285.9,185.645Zm0,1.668a.359.359,0,0,1,.359-.359h3.827a.359.359,0,0,1,.359.359.363.363,0,0,1-.359.359h-3.827A.359.359,0,0,1,285.9,187.313Zm0,1.668a.359.359,0,0,1,.359-.359h3.827a.359.359,0,0,1,.359.359.363.363,0,0,1-.359.359h-3.827A.359.359,0,0,1,285.9,188.981Zm-4.582,1.668a.359.359,0,0,1,.359-.359H285.5a.359.359,0,0,1,.359.359.363.363,0,0,1-.359.359h-3.827A.359.359,0,0,1,281.316,190.649Zm0,1.668a.359.359,0,0,1,.359-.359H285.5a.359.359,0,0,1,.359.359.363.363,0,0,1-.359.359h-3.827A.359.359,0,0,1,281.316,192.317Zm0,1.668a.359.359,0,0,1,.359-.359H285.5a.359.359,0,0,1,.359.359.363.363,0,0,1-.359.359h-3.827A.359.359,0,0,1,281.316,193.985Zm2.9-11.67a.415.415,0,1,1,.415.415A.415.415,0,0,1,284.218,182.315Zm-1.253,0a.415.415,0,1,1,.415.415A.415.415,0,0,1,282.966,182.315Zm-1.253,0a.415.415,0,1,1,.416.415A.415.415,0,0,1,281.713,182.315Zm-1.253,0a.415.415,0,1,1,.415.415A.415.415,0,0,1,280.46,182.315Zm-1.253,0a.415.415,0,1,1,.415.415A.415.415,0,0,1,279.208,182.315Zm-1.253,0a.415.415,0,1,1,.415.415A.415.415,0,0,1,277.955,182.315Zm6.25,3.336a.415.415,0,1,1,.415.415A.415.415,0,0,1,284.206,185.651Zm-1.253,0a.415.415,0,1,1,.415.415A.415.415,0,0,1,282.953,185.651Zm-1.253,0a.415.415,0,1,1,.415.415A.415.415,0,0,1,281.7,185.651Zm-1.253,0a.415.415,0,1,1,.416.415A.415.415,0,0,1,280.448,185.651Zm-1.253,0a.415.415,0,1,1,.415.415A.415.415,0,0,1,279.2,185.651Zm-1.253,0a.415.415,0,1,1,.415.415A.415.415,0,0,1,277.943,185.651Zm1.983,4.79a.415.415,0,1,1,.415.415A.415.415,0,0,1,279.925,190.441Zm-1.253,0a.415.415,0,1,1,.415.415A.415.415,0,0,1,278.673,190.441Zm-1.253,0a.415.415,0,1,1,.415.415A.415.415,0,0,1,277.42,190.441Zm-1.253,0a.415.415,0,1,1,.415.415A.415.415,0,0,1,276.168,190.441Zm-1.253,0a.415.415,0,1,1,.415.415A.415.415,0,0,1,274.915,190.441Zm-1.253,0a.415.415,0,1,1,.415.415A.415.415,0,0,1,273.663,190.441Zm6.25,3.437a.415.415,0,1,1,.415.415A.415.415,0,0,1,279.913,193.878Zm-1.253,0a.415.415,0,1,1,.415.415A.415.415,0,0,1,278.66,193.878Zm-1.253,0a.415.415,0,1,1,.415.415A.415.415,0,0,1,277.408,193.878Zm-1.253,0a.415.415,0,1,1,.415.415A.415.415,0,0,1,276.155,193.878Zm-1.253,0a.415.415,0,1,1,.415.415A.415.415,0,0,1,274.9,193.878Zm-1.253,0a.415.415,0,1,1,.415.415A.415.415,0,0,1,273.65,193.878Z" transform="translate(-273.65 -168.241)" fill="url(#linear-gradient)"/>
          </g>
        </g>
      </g>
      <g id="Device_2" data-name="Device 2" transform="translate(72.927 37.523)">
        <g id="Grupo_1084851" data-name="Grupo 1084851" transform="translate(0)">
          <g id="Grupo_1084844" data-name="Grupo 1084844" transform="translate(21.563 48.511)">
            <path id="Trazado_831518" data-name="Trazado 831518" d="M207.924,137.969h20.822a.328.328,0,0,0,.145-.623l-4.28-2.065a.373.373,0,0,0-.145-.031H205.242a.331.331,0,0,0-.2.592l2.681,2.065a.325.325,0,0,0,.2.069Z" transform="translate(-204.914 -122.246)" fill="#263238" stroke="#263238" stroke-linecap="round" stroke-linejoin="round" stroke-width="1"/>
            <rect id="Rectángulo_383263" data-name="Rectángulo 383263" width="3.827" height="14.584" transform="translate(9.116)" fill="#fff" stroke="#263238" stroke-linecap="round" stroke-linejoin="round" stroke-width="1"/>
            <rect id="Rectángulo_383264" data-name="Rectángulo 383264" width="5.029" height="10.587" transform="translate(8.512)" fill="#263238" stroke="#263238" stroke-linecap="round" stroke-linejoin="round" stroke-width="1"/>
          </g>
          <rect id="Rectángulo_383265" data-name="Rectángulo 383265" width="63.372" height="49.568" fill="#fff" stroke="#263238" stroke-linecap="round" stroke-linejoin="round" stroke-width="1"/>
          <rect id="Rectángulo_383266" data-name="Rectángulo 383266" width="56.593" height="44.268" transform="translate(3.393 2.65)" fill="#263238" stroke="#263238" stroke-linecap="round" stroke-linejoin="round" stroke-width="1"/>
          <rect id="Rectángulo_383267" data-name="Rectángulo 383267" width="23.063" height="10.247" transform="translate(32.498 7.597)" fill="none" stroke="#f41281" stroke-miterlimit="10" stroke-width="1"/>
          <g id="Grupo_1084850" data-name="Grupo 1084850" transform="translate(9.435 22.465)">
            <g id="Grupo_1084845" data-name="Grupo 1084845" transform="translate(4.242 2.493)">
              <path id="Trazado_831519" data-name="Trazado 831519" d="M232.94,77.17h-5.375a16.6,16.6,0,0,0-7.018,1.561l-2.511,1.177a9.866,9.866,0,0,1-8.932-.29l-.718-.4a16.507,16.507,0,0,0-7.975-2.046H194.06" transform="translate(-194.06 -77.17)" fill="none" stroke="#d81586" stroke-miterlimit="10" stroke-width="1"/>
              <path id="Trazado_831520" data-name="Trazado 831520" d="M232.94,83.14h-5.375a16.6,16.6,0,0,0-7.018,1.561l-2.511,1.177a9.866,9.866,0,0,1-8.932-.29l-.718-.4a16.507,16.507,0,0,0-7.975-2.046H194.06" transform="translate(-194.06 -79.382)" fill="none" stroke="#d81586" stroke-miterlimit="10" stroke-width="1"/>
              <path id="Trazado_831521" data-name="Trazado 831521" d="M232.94,100.141h-5.375a16.6,16.6,0,0,1-7.018-1.561L218.035,97.4a9.866,9.866,0,0,0-8.932.29l-.718.4a16.507,16.507,0,0,1-7.975,2.046H194.06" transform="translate(-194.06 -84.323)" fill="none" stroke="#d81586" stroke-miterlimit="10" stroke-width="1"/>
              <path id="Trazado_831522" data-name="Trazado 831522" d="M232.94,94.171h-5.375a16.6,16.6,0,0,1-7.018-1.561l-2.511-1.177a9.866,9.866,0,0,0-8.932.29l-.718.4a16.507,16.507,0,0,1-7.975,2.046H194.06" transform="translate(-194.06 -82.111)" fill="none" stroke="#d81586" stroke-miterlimit="10" stroke-width="1"/>
            </g>
            <g id="Grupo_1084846" data-name="Grupo 1084846" transform="translate(0)">
              <rect id="Rectángulo_383268" data-name="Rectángulo 383268" width="3.607" height="3.607" transform="translate(0)" fill="url(#linear-gradient)"/>
              <rect id="Rectángulo_383269" data-name="Rectángulo 383269" width="3.607" height="3.607" transform="translate(0 4.438)" fill="url(#linear-gradient)"/>
            </g>
            <g id="Grupo_1084847" data-name="Grupo 1084847" transform="translate(0 12.066)">
              <rect id="Rectángulo_383270" data-name="Rectángulo 383270" width="3.607" height="3.607" transform="translate(0)" fill="url(#linear-gradient)"/>
              <rect id="Rectángulo_383271" data-name="Rectángulo 383271" width="3.607" height="3.607" transform="translate(0 4.438)" fill="url(#linear-gradient)"/>
            </g>
            <g id="Grupo_1084848" data-name="Grupo 1084848" transform="translate(43.834)">
              <rect id="Rectángulo_383272" data-name="Rectángulo 383272" width="3.607" height="3.607" transform="translate(0)" fill="url(#linear-gradient)"/>
              <rect id="Rectángulo_383273" data-name="Rectángulo 383273" width="3.607" height="3.607" transform="translate(0 4.438)" fill="url(#linear-gradient)"/>
            </g>
            <g id="Grupo_1084849" data-name="Grupo 1084849" transform="translate(43.834 12.066)">
              <rect id="Rectángulo_383274" data-name="Rectángulo 383274" width="3.607" height="3.607" transform="translate(0)" fill="url(#linear-gradient)"/>
              <rect id="Rectángulo_383275" data-name="Rectángulo 383275" width="3.607" height="3.607" transform="translate(0 4.438)" fill="url(#linear-gradient)"/>
            </g>
          </g>
          <path id="Trazado_831523" data-name="Trazado 831523" d="M249.225,48.862h1.46a.359.359,0,0,0,.359-.359.363.363,0,0,0-.359-.359h-1.46a.359.359,0,0,0-.359.359A.363.363,0,0,0,249.225,48.862Zm-.359,1.309a.359.359,0,0,1,.359-.359h1.46a.359.359,0,0,1,.359.359.363.363,0,0,1-.359.359h-1.46A.359.359,0,0,1,248.866,50.171Zm0,1.668a.359.359,0,0,1,.359-.359h1.46a.359.359,0,0,1,.359.359.363.363,0,0,1-.359.359h-1.46A.359.359,0,0,1,248.866,51.839Zm0,1.668a.359.359,0,0,1,.359-.359h1.46a.359.359,0,0,1,.359.359.363.363,0,0,1-.359.359h-1.46A.359.359,0,0,1,248.866,53.507Zm0,1.668a.359.359,0,0,1,.359-.359h1.46a.359.359,0,0,1,.359.359.363.363,0,0,1-.359.359h-1.46A.359.359,0,0,1,248.866,55.175Zm0,1.668a.359.359,0,0,1,.359-.359h1.46a.359.359,0,0,1,.359.359.363.363,0,0,1-.359.359h-1.46A.359.359,0,0,1,248.866,56.843Zm0,1.668a.359.359,0,0,1,.359-.359h1.46a.359.359,0,0,1,.359.359.363.363,0,0,1-.359.359h-1.46A.359.359,0,0,1,248.866,58.511Zm0,1.668a.359.359,0,0,1,.359-.359h1.46a.359.359,0,0,1,.359.359.363.363,0,0,1-.359.359h-1.46A.359.359,0,0,1,248.866,60.179Zm-5.457-11.67a.359.359,0,0,1,.359-.359h3.827a.359.359,0,0,1,.359.359.363.363,0,0,1-.359.359h-3.827A.359.359,0,0,1,243.409,48.509Zm0,1.668a.359.359,0,0,1,.359-.359h3.827a.359.359,0,0,1,.359.359.363.363,0,0,1-.359.359h-3.827A.359.359,0,0,1,243.409,50.177Zm0,1.668a.359.359,0,0,1,.359-.359h3.827a.359.359,0,0,1,.359.359.363.363,0,0,1-.359.359h-3.827A.359.359,0,0,1,243.409,51.845Zm0,1.668a.359.359,0,0,1,.359-.359h3.827a.359.359,0,0,1,.359.359.363.363,0,0,1-.359.359h-3.827A.359.359,0,0,1,243.409,53.513Zm0,1.668a.359.359,0,0,1,.359-.359h3.827a.359.359,0,0,1,.359.359.363.363,0,0,1-.359.359h-3.827A.359.359,0,0,1,243.409,55.181Zm-4.582,1.668a.359.359,0,0,1,.359-.359h3.827a.359.359,0,0,1,.359.359.363.363,0,0,1-.359.359h-3.827A.359.359,0,0,1,238.827,56.849Zm0,1.668a.359.359,0,0,1,.359-.359h3.827a.359.359,0,0,1,.359.359.363.363,0,0,1-.359.359h-3.827A.359.359,0,0,1,238.827,58.517Zm0,1.668a.359.359,0,0,1,.359-.359h3.827a.359.359,0,0,1,.359.359.363.363,0,0,1-.359.359h-3.827A.359.359,0,0,1,238.827,60.185Zm2.9-11.67a.415.415,0,1,1,.415.415A.415.415,0,0,1,241.728,48.515Zm-1.253,0a.415.415,0,1,1,.415.415A.415.415,0,0,1,240.476,48.515Zm-1.253,0a.415.415,0,1,1,.415.415A.415.415,0,0,1,239.223,48.515Zm-1.253,0a.415.415,0,1,1,.415.415A.415.415,0,0,1,237.97,48.515Zm-1.253,0a.415.415,0,1,1,.415.415A.415.415,0,0,1,236.718,48.515Zm-1.253,0a.415.415,0,1,1,.415.415A.415.415,0,0,1,235.465,48.515Zm6.25,3.336a.415.415,0,1,1,.415.415A.415.415,0,0,1,241.716,51.851Zm-1.253,0a.415.415,0,1,1,.415.415A.415.415,0,0,1,240.463,51.851Zm-1.253,0a.415.415,0,1,1,.415.415A.415.415,0,0,1,239.21,51.851Zm-1.253,0a.415.415,0,1,1,.415.415A.415.415,0,0,1,237.958,51.851Zm-1.253,0a.415.415,0,1,1,.415.415A.415.415,0,0,1,236.705,51.851Zm-1.253,0a.415.415,0,1,1,.415.415A.415.415,0,0,1,235.453,51.851Zm1.983,4.79a.415.415,0,1,1,.415.415A.415.415,0,0,1,237.435,56.641Zm-1.253,0a.415.415,0,1,1,.415.415A.415.415,0,0,1,236.183,56.641Zm-1.253,0a.415.415,0,1,1,.415.415A.415.415,0,0,1,234.93,56.641Zm-1.253,0a.415.415,0,1,1,.415.415A.415.415,0,0,1,233.678,56.641Zm-1.253,0a.415.415,0,1,1,.415.415A.415.415,0,0,1,232.425,56.641Zm-1.253,0a.415.415,0,1,1,.415.415A.415.415,0,0,1,231.173,56.641Zm6.25,3.437a.415.415,0,1,1,.415.415A.415.415,0,0,1,237.423,60.078Zm-1.253,0a.415.415,0,1,1,.415.415A.415.415,0,0,1,236.17,60.078Zm-1.253,0a.415.415,0,1,1,.415.415A.415.415,0,0,1,234.918,60.078Zm-1.253,0a.415.415,0,1,1,.415.415A.415.415,0,0,1,233.665,60.078Zm-1.253,0a.415.415,0,1,1,.415.415A.415.415,0,0,1,232.413,60.078Zm-1.253,0a.415.415,0,1,1,.415.415A.415.415,0,0,1,231.16,60.078Z" transform="translate(-221.838 -41.441)" fill="url(#linear-gradient)"/>
        </g>
      </g>
      <g id="Device_1" data-name="Device 1" transform="translate(115.578 109.802)">
        <g id="Grupo_1084854" data-name="Grupo 1084854" transform="translate(0)">
          <g id="Grupo_1084852" data-name="Grupo 1084852" transform="translate(21.557 48.517)">
            <path id="Trazado_831524" data-name="Trazado 831524" d="M140.174,252.809H161a.328.328,0,0,0,.145-.623l-4.28-2.065a.373.373,0,0,0-.145-.031H137.492a.331.331,0,0,0-.2.592l2.681,2.065a.325.325,0,0,0,.2.069Z" transform="translate(-137.164 -237.086)" fill="#263238" stroke="#263238" stroke-linecap="round" stroke-linejoin="round" stroke-width="1"/>
            <rect id="Rectángulo_383276" data-name="Rectángulo 383276" width="3.827" height="14.584" transform="translate(9.116)" fill="#fff" stroke="#263238" stroke-linecap="round" stroke-linejoin="round" stroke-width="1"/>
            <rect id="Rectángulo_383277" data-name="Rectángulo 383277" width="5.029" height="10.587" transform="translate(8.512)" fill="#263238" stroke="#263238" stroke-linecap="round" stroke-linejoin="round" stroke-width="1"/>
          </g>
          <rect id="Rectángulo_383278" data-name="Rectángulo 383278" width="63.372" height="49.568" fill="#fff" stroke="#263238" stroke-linecap="round" stroke-linejoin="round" stroke-width="1"/>
          <rect id="Rectángulo_383279" data-name="Rectángulo 383279" width="56.593" height="44.268" transform="translate(3.386 2.656)" fill="#263238" stroke="#263238" stroke-linecap="round" stroke-linejoin="round" stroke-width="1"/>
          <g id="Grupo_1084853" data-name="Grupo 1084853" transform="translate(6.962 4.941)">
            <path id="Trazado_831525" data-name="Trazado 831525" d="M149.635,160.962h1.46a.359.359,0,0,0,.359-.359.363.363,0,0,0-.359-.359h-1.46a.359.359,0,0,0-.359.359A.363.363,0,0,0,149.635,160.962Zm-.359,1.309a.359.359,0,0,1,.359-.359h1.46a.359.359,0,0,1,.359.359.363.363,0,0,1-.359.359h-1.46A.359.359,0,0,1,149.276,162.271Zm0,1.668a.359.359,0,0,1,.359-.359h1.46a.359.359,0,0,1,.359.359.363.363,0,0,1-.359.359h-1.46A.359.359,0,0,1,149.276,163.939Zm0,1.668a.359.359,0,0,1,.359-.359h1.46a.359.359,0,0,1,.359.359.363.363,0,0,1-.359.359h-1.46A.359.359,0,0,1,149.276,165.607Zm0,1.668a.359.359,0,0,1,.359-.359h1.46a.359.359,0,0,1,.359.359.363.363,0,0,1-.359.359h-1.46A.359.359,0,0,1,149.276,167.275Zm0,1.668a.359.359,0,0,1,.359-.359h1.46a.359.359,0,0,1,.359.359.363.363,0,0,1-.359.359h-1.46A.359.359,0,0,1,149.276,168.943Zm0,1.668a.359.359,0,0,1,.359-.359h1.46a.359.359,0,0,1,.359.359.363.363,0,0,1-.359.359h-1.46A.359.359,0,0,1,149.276,170.611Zm0,1.668a.359.359,0,0,1,.359-.359h1.46a.359.359,0,0,1,.359.359.363.363,0,0,1-.359.359h-1.46A.359.359,0,0,1,149.276,172.279Zm-5.457-11.67a.359.359,0,0,1,.359-.359H148a.359.359,0,0,1,.359.359.363.363,0,0,1-.359.359h-3.827A.359.359,0,0,1,143.819,160.609Zm0,1.668a.359.359,0,0,1,.359-.359H148a.359.359,0,0,1,.359.359.363.363,0,0,1-.359.359h-3.827A.359.359,0,0,1,143.819,162.277Zm0,1.668a.359.359,0,0,1,.359-.359H148a.359.359,0,0,1,.359.359.363.363,0,0,1-.359.359h-3.827A.359.359,0,0,1,143.819,163.945Zm0,1.668a.359.359,0,0,1,.359-.359H148a.359.359,0,0,1,.359.359.363.363,0,0,1-.359.359h-3.827A.359.359,0,0,1,143.819,165.613Zm0,1.668a.359.359,0,0,1,.359-.359H148a.359.359,0,0,1,.359.359.363.363,0,0,1-.359.359h-3.827A.359.359,0,0,1,143.819,167.281Zm-4.582,1.668a.359.359,0,0,1,.359-.359h3.827a.359.359,0,0,1,.359.359.363.363,0,0,1-.359.359H139.6A.359.359,0,0,1,139.237,168.949Zm0,1.668a.359.359,0,0,1,.359-.359h3.827a.359.359,0,0,1,.359.359.363.363,0,0,1-.359.359H139.6A.359.359,0,0,1,139.237,170.617Zm0,1.668a.359.359,0,0,1,.359-.359h3.827a.359.359,0,0,1,.359.359.363.363,0,0,1-.359.359H139.6A.359.359,0,0,1,139.237,172.285Zm2.9-11.67a.415.415,0,1,1,.415.415A.415.415,0,0,1,142.138,160.615Zm-1.253,0a.415.415,0,1,1,.415.415A.415.415,0,0,1,140.886,160.615Zm-1.253,0a.415.415,0,1,1,.415.415A.415.415,0,0,1,139.633,160.615Zm-1.253,0a.415.415,0,1,1,.415.415A.415.415,0,0,1,138.381,160.615Zm-1.253,0a.415.415,0,1,1,.415.415A.415.415,0,0,1,137.128,160.615Zm-1.253,0a.415.415,0,1,1,.415.415A.415.415,0,0,1,135.875,160.615Zm6.25,3.336a.415.415,0,1,1,.415.415A.415.415,0,0,1,142.126,163.951Zm-1.253,0a.415.415,0,1,1,.415.415A.415.415,0,0,1,140.873,163.951Zm-1.253,0a.415.415,0,1,1,.415.415A.415.415,0,0,1,139.621,163.951Zm-1.253,0a.415.415,0,1,1,.415.415A.415.415,0,0,1,138.368,163.951Zm-1.253,0a.415.415,0,1,1,.415.415A.415.415,0,0,1,137.115,163.951Zm-1.253,0a.415.415,0,1,1,.415.415A.415.415,0,0,1,135.863,163.951Zm1.983,4.79a.415.415,0,1,1,.415.415A.415.415,0,0,1,137.846,168.741Zm-1.253,0a.415.415,0,1,1,.415.415A.415.415,0,0,1,136.593,168.741Zm-1.253,0a.415.415,0,1,1,.415.415A.415.415,0,0,1,135.34,168.741Zm-1.253,0a.415.415,0,1,1,.415.415A.415.415,0,0,1,134.088,168.741Zm-1.253,0a.415.415,0,1,1,.415.415A.415.415,0,0,1,132.835,168.741Zm-1.253,0a.415.415,0,1,1,.415.415A.415.415,0,0,1,131.583,168.741Zm6.25,3.437a.415.415,0,1,1,.415.415A.415.415,0,0,1,137.833,172.178Zm-1.253,0a.415.415,0,1,1,.415.415A.415.415,0,0,1,136.58,172.178Zm-1.253,0a.415.415,0,1,1,.415.415A.415.415,0,0,1,135.328,172.178Zm-1.253,0a.415.415,0,1,1,.415.415A.415.415,0,0,1,134.075,172.178Zm-1.253,0a.415.415,0,1,1,.415.415A.415.415,0,0,1,132.823,172.178Zm-1.253,0a.415.415,0,1,1,.415.415A.415.415,0,0,1,131.57,172.178Z" transform="translate(-109.175 -160.2)" fill="url(#linear-gradient)"/>
            <path id="Trazado_831526" data-name="Trazado 831526" d="M149.635,182.152h1.46a.359.359,0,0,0,.359-.359.363.363,0,0,0-.359-.359h-1.46a.359.359,0,0,0-.359.359A.363.363,0,0,0,149.635,182.152Zm-.359,1.309a.359.359,0,0,1,.359-.359h1.46a.359.359,0,0,1,.359.359.363.363,0,0,1-.359.359h-1.46A.359.359,0,0,1,149.276,183.461Zm0,1.668a.359.359,0,0,1,.359-.359h1.46a.359.359,0,0,1,.359.359.363.363,0,0,1-.359.359h-1.46A.359.359,0,0,1,149.276,185.129Zm0,1.668a.359.359,0,0,1,.359-.359h1.46a.359.359,0,0,1,.359.359.363.363,0,0,1-.359.359h-1.46A.359.359,0,0,1,149.276,186.8Zm0,1.668a.359.359,0,0,1,.359-.359h1.46a.359.359,0,0,1,.359.359.363.363,0,0,1-.359.359h-1.46A.359.359,0,0,1,149.276,188.465Zm0,1.668a.359.359,0,0,1,.359-.359h1.46a.359.359,0,0,1,.359.359.363.363,0,0,1-.359.359h-1.46A.359.359,0,0,1,149.276,190.133Zm0,1.668a.359.359,0,0,1,.359-.359h1.46a.359.359,0,0,1,.359.359.363.363,0,0,1-.359.359h-1.46A.359.359,0,0,1,149.276,191.8Zm0,1.668a.359.359,0,0,1,.359-.359h1.46a.359.359,0,0,1,.359.359.363.363,0,0,1-.359.359h-1.46A.359.359,0,0,1,149.276,193.469Zm-5.457-11.67a.359.359,0,0,1,.359-.359H148a.359.359,0,0,1,.359.359.363.363,0,0,1-.359.359h-3.827A.359.359,0,0,1,143.819,181.8Zm0,1.668a.359.359,0,0,1,.359-.359H148a.359.359,0,0,1,.359.359.363.363,0,0,1-.359.359h-3.827A.359.359,0,0,1,143.819,183.467Zm0,1.668a.359.359,0,0,1,.359-.359H148a.359.359,0,0,1,.359.359.363.363,0,0,1-.359.359h-3.827A.359.359,0,0,1,143.819,185.135Zm0,1.668a.359.359,0,0,1,.359-.359H148a.359.359,0,0,1,.359.359.363.363,0,0,1-.359.359h-3.827A.359.359,0,0,1,143.819,186.8Zm0,1.668a.359.359,0,0,1,.359-.359H148a.359.359,0,0,1,.359.359.363.363,0,0,1-.359.359h-3.827A.359.359,0,0,1,143.819,188.471Zm-4.582,1.668a.359.359,0,0,1,.359-.359h3.827a.359.359,0,0,1,.359.359.363.363,0,0,1-.359.359H139.6A.359.359,0,0,1,139.237,190.139Zm0,1.668a.359.359,0,0,1,.359-.359h3.827a.359.359,0,0,1,.359.359.363.363,0,0,1-.359.359H139.6A.359.359,0,0,1,139.237,191.807Zm0,1.668a.359.359,0,0,1,.359-.359h3.827a.359.359,0,0,1,.359.359.363.363,0,0,1-.359.359H139.6A.359.359,0,0,1,139.237,193.475Zm2.9-11.67a.415.415,0,1,1,.415.415A.415.415,0,0,1,142.138,181.805Zm-1.253,0a.415.415,0,1,1,.415.415A.415.415,0,0,1,140.886,181.805Zm-1.253,0a.415.415,0,1,1,.415.415A.415.415,0,0,1,139.633,181.805Zm-1.253,0a.415.415,0,1,1,.415.415A.415.415,0,0,1,138.381,181.805Zm-1.253,0a.415.415,0,1,1,.415.415A.415.415,0,0,1,137.128,181.805Zm-1.253,0a.415.415,0,1,1,.415.415A.415.415,0,0,1,135.875,181.805Zm6.25,3.336a.415.415,0,1,1,.415.415A.415.415,0,0,1,142.126,185.141Zm-1.253,0a.415.415,0,1,1,.415.415A.415.415,0,0,1,140.873,185.141Zm-1.253,0a.415.415,0,1,1,.415.415A.415.415,0,0,1,139.621,185.141Zm-1.253,0a.415.415,0,1,1,.415.415A.415.415,0,0,1,138.368,185.141Zm-1.253,0a.415.415,0,1,1,.415.415A.415.415,0,0,1,137.115,185.141Zm-1.253,0a.415.415,0,1,1,.415.415A.415.415,0,0,1,135.863,185.141Zm1.983,4.79a.415.415,0,1,1,.415.415A.415.415,0,0,1,137.846,189.931Zm-1.253,0a.415.415,0,1,1,.415.415A.415.415,0,0,1,136.593,189.931Zm-1.253,0a.415.415,0,1,1,.415.415A.415.415,0,0,1,135.34,189.931Zm-1.253,0a.415.415,0,1,1,.415.415A.415.415,0,0,1,134.088,189.931Zm-1.253,0a.415.415,0,1,1,.415.415A.415.415,0,0,1,132.835,189.931Zm-1.253,0a.415.415,0,1,1,.415.415A.415.415,0,0,1,131.583,189.931Zm6.25,3.437a.415.415,0,1,1,.415.415A.415.415,0,0,1,137.833,193.368Zm-1.253,0a.415.415,0,1,1,.415.415A.415.415,0,0,1,136.58,193.368Zm-1.253,0a.415.415,0,1,1,.415.415A.415.415,0,0,1,135.328,193.368Zm-1.253,0a.415.415,0,1,1,.415.415A.415.415,0,0,1,134.075,193.368Zm-1.253,0a.415.415,0,1,1,.415.415A.415.415,0,0,1,132.823,193.368Zm-1.253,0a.415.415,0,1,1,.415.415A.415.415,0,0,1,131.57,193.368Z" transform="translate(-109.175 -168.052)" fill="url(#linear-gradient)"/>
            <path id="Trazado_831527" data-name="Trazado 831527" d="M149.635,203.862h1.46a.359.359,0,0,0,.359-.359.363.363,0,0,0-.359-.359h-1.46a.359.359,0,0,0-.359.359A.363.363,0,0,0,149.635,203.862Zm-.359,1.309a.359.359,0,0,1,.359-.359h1.46a.359.359,0,0,1,.359.359.363.363,0,0,1-.359.359h-1.46A.359.359,0,0,1,149.276,205.171Zm0,1.668a.359.359,0,0,1,.359-.359h1.46a.359.359,0,0,1,.359.359.363.363,0,0,1-.359.359h-1.46A.359.359,0,0,1,149.276,206.839Zm0,1.668a.359.359,0,0,1,.359-.359h1.46a.359.359,0,0,1,.359.359.363.363,0,0,1-.359.359h-1.46A.359.359,0,0,1,149.276,208.507Zm0,1.668a.359.359,0,0,1,.359-.359h1.46a.359.359,0,0,1,.359.359.363.363,0,0,1-.359.359h-1.46A.359.359,0,0,1,149.276,210.175Zm0,1.668a.359.359,0,0,1,.359-.359h1.46a.359.359,0,0,1,.359.359.363.363,0,0,1-.359.359h-1.46A.359.359,0,0,1,149.276,211.843Zm0,1.668a.359.359,0,0,1,.359-.359h1.46a.359.359,0,0,1,.359.359.363.363,0,0,1-.359.359h-1.46A.359.359,0,0,1,149.276,213.511Zm0,1.668a.359.359,0,0,1,.359-.359h1.46a.359.359,0,0,1,.359.359.363.363,0,0,1-.359.359h-1.46A.359.359,0,0,1,149.276,215.179Zm-5.457-11.67a.359.359,0,0,1,.359-.359H148a.359.359,0,0,1,.359.359.363.363,0,0,1-.359.359h-3.827A.359.359,0,0,1,143.819,203.509Zm0,1.668a.359.359,0,0,1,.359-.359H148a.359.359,0,0,1,.359.359.363.363,0,0,1-.359.359h-3.827A.359.359,0,0,1,143.819,205.177Zm0,1.668a.359.359,0,0,1,.359-.359H148a.359.359,0,0,1,.359.359.363.363,0,0,1-.359.359h-3.827A.359.359,0,0,1,143.819,206.845Zm0,1.668a.359.359,0,0,1,.359-.359H148a.359.359,0,0,1,.359.359.363.363,0,0,1-.359.359h-3.827A.359.359,0,0,1,143.819,208.513Zm0,1.668a.359.359,0,0,1,.359-.359H148a.359.359,0,0,1,.359.359.363.363,0,0,1-.359.359h-3.827A.359.359,0,0,1,143.819,210.181Zm-4.582,1.668a.359.359,0,0,1,.359-.359h3.827a.359.359,0,0,1,.359.359.363.363,0,0,1-.359.359H139.6A.359.359,0,0,1,139.237,211.849Zm0,1.668a.359.359,0,0,1,.359-.359h3.827a.359.359,0,0,1,.359.359.363.363,0,0,1-.359.359H139.6A.359.359,0,0,1,139.237,213.517Zm0,1.668a.359.359,0,0,1,.359-.359h3.827a.359.359,0,0,1,.359.359.363.363,0,0,1-.359.359H139.6A.359.359,0,0,1,139.237,215.185Zm2.9-11.67a.415.415,0,1,1,.415.415A.415.415,0,0,1,142.138,203.515Zm-1.253,0a.415.415,0,1,1,.415.415A.415.415,0,0,1,140.886,203.515Zm-1.253,0a.415.415,0,1,1,.415.415A.415.415,0,0,1,139.633,203.515Zm-1.253,0a.415.415,0,1,1,.415.415A.415.415,0,0,1,138.381,203.515Zm-1.253,0a.415.415,0,1,1,.415.415A.415.415,0,0,1,137.128,203.515Zm-1.253,0a.415.415,0,1,1,.415.415A.415.415,0,0,1,135.875,203.515Zm6.25,3.336a.415.415,0,1,1,.415.415A.415.415,0,0,1,142.126,206.851Zm-1.253,0a.415.415,0,1,1,.415.415A.415.415,0,0,1,140.873,206.851Zm-1.253,0a.415.415,0,1,1,.415.415A.415.415,0,0,1,139.621,206.851Zm-1.253,0a.415.415,0,1,1,.415.415A.415.415,0,0,1,138.368,206.851Zm-1.253,0a.415.415,0,1,1,.415.415A.415.415,0,0,1,137.115,206.851Zm-1.253,0a.415.415,0,1,1,.415.415A.415.415,0,0,1,135.863,206.851Zm1.983,4.79a.415.415,0,1,1,.415.415A.415.415,0,0,1,137.846,211.641Zm-1.253,0a.415.415,0,1,1,.415.415A.415.415,0,0,1,136.593,211.641Zm-1.253,0a.415.415,0,1,1,.415.415A.415.415,0,0,1,135.34,211.641Zm-1.253,0a.415.415,0,1,1,.415.415A.415.415,0,0,1,134.088,211.641Zm-1.253,0a.415.415,0,1,1,.415.415A.415.415,0,0,1,132.835,211.641Zm-1.253,0a.415.415,0,1,1,.415.415A.415.415,0,0,1,131.583,211.641Zm6.25,3.437a.415.415,0,1,1,.415.415A.415.415,0,0,1,137.833,215.078Zm-1.253,0a.415.415,0,1,1,.415.415A.415.415,0,0,1,136.58,215.078Zm-1.253,0a.415.415,0,1,1,.415.415A.415.415,0,0,1,135.328,215.078Zm-1.253,0a.415.415,0,1,1,.415.415A.415.415,0,0,1,134.075,215.078Zm-1.253,0a.415.415,0,1,1,.415.415A.415.415,0,0,1,132.823,215.078Zm-1.253,0a.415.415,0,1,1,.415.415A.415.415,0,0,1,131.57,215.078Z" transform="translate(-109.175 -176.097)" fill="url(#linear-gradient)"/>
            <path id="Trazado_831528" data-name="Trazado 831528" d="M185.215,160.962h1.46a.359.359,0,0,0,.359-.359.363.363,0,0,0-.359-.359h-1.46a.359.359,0,0,0-.359.359A.363.363,0,0,0,185.215,160.962Zm-.359,1.309a.359.359,0,0,1,.359-.359h1.46a.359.359,0,0,1,.359.359.363.363,0,0,1-.359.359h-1.46A.359.359,0,0,1,184.856,162.271Zm0,1.668a.359.359,0,0,1,.359-.359h1.46a.359.359,0,0,1,.359.359.363.363,0,0,1-.359.359h-1.46A.359.359,0,0,1,184.856,163.939Zm0,1.668a.359.359,0,0,1,.359-.359h1.46a.359.359,0,0,1,.359.359.363.363,0,0,1-.359.359h-1.46A.359.359,0,0,1,184.856,165.607Zm0,1.668a.359.359,0,0,1,.359-.359h1.46a.359.359,0,0,1,.359.359.363.363,0,0,1-.359.359h-1.46A.359.359,0,0,1,184.856,167.275Zm0,1.668a.359.359,0,0,1,.359-.359h1.46a.359.359,0,0,1,.359.359.363.363,0,0,1-.359.359h-1.46A.359.359,0,0,1,184.856,168.943Zm0,1.668a.359.359,0,0,1,.359-.359h1.46a.359.359,0,0,1,.359.359.363.363,0,0,1-.359.359h-1.46A.359.359,0,0,1,184.856,170.611Zm0,1.668a.359.359,0,0,1,.359-.359h1.46a.359.359,0,0,1,.359.359.363.363,0,0,1-.359.359h-1.46A.359.359,0,0,1,184.856,172.279Zm-5.457-11.67a.359.359,0,0,1,.359-.359h3.827a.359.359,0,0,1,.359.359.363.363,0,0,1-.359.359h-3.827A.359.359,0,0,1,179.4,160.609Zm0,1.668a.359.359,0,0,1,.359-.359h3.827a.359.359,0,0,1,.359.359.363.363,0,0,1-.359.359h-3.827A.359.359,0,0,1,179.4,162.277Zm0,1.668a.359.359,0,0,1,.359-.359h3.827a.359.359,0,0,1,.359.359.363.363,0,0,1-.359.359h-3.827A.359.359,0,0,1,179.4,163.945Zm0,1.668a.359.359,0,0,1,.359-.359h3.827a.359.359,0,0,1,.359.359.363.363,0,0,1-.359.359h-3.827A.359.359,0,0,1,179.4,165.613Zm0,1.668a.359.359,0,0,1,.359-.359h3.827a.359.359,0,0,1,.359.359.363.363,0,0,1-.359.359h-3.827A.359.359,0,0,1,179.4,167.281Zm-4.582,1.668a.359.359,0,0,1,.359-.359H179a.359.359,0,0,1,.359.359.363.363,0,0,1-.359.359h-3.827A.359.359,0,0,1,174.817,168.949Zm0,1.668a.359.359,0,0,1,.359-.359H179a.359.359,0,0,1,.359.359.363.363,0,0,1-.359.359h-3.827A.359.359,0,0,1,174.817,170.617Zm0,1.668a.359.359,0,0,1,.359-.359H179a.359.359,0,0,1,.359.359.363.363,0,0,1-.359.359h-3.827A.359.359,0,0,1,174.817,172.285Zm2.9-11.67a.415.415,0,1,1,.415.415A.415.415,0,0,1,177.718,160.615Zm-1.253,0a.415.415,0,1,1,.415.415A.415.415,0,0,1,176.466,160.615Zm-1.253,0a.415.415,0,1,1,.415.415A.415.415,0,0,1,175.213,160.615Zm-1.253,0a.415.415,0,1,1,.415.415A.415.415,0,0,1,173.961,160.615Zm-1.253,0a.415.415,0,1,1,.415.415A.415.415,0,0,1,172.708,160.615Zm-1.253,0a.415.415,0,1,1,.415.415A.415.415,0,0,1,171.455,160.615Zm6.25,3.336a.415.415,0,1,1,.415.415A.415.415,0,0,1,177.706,163.951Zm-1.253,0a.415.415,0,1,1,.415.415A.415.415,0,0,1,176.453,163.951Zm-1.253,0a.415.415,0,1,1,.415.415A.415.415,0,0,1,175.2,163.951Zm-1.253,0a.415.415,0,1,1,.415.415A.415.415,0,0,1,173.948,163.951Zm-1.253,0a.415.415,0,1,1,.415.415A.415.415,0,0,1,172.7,163.951Zm-1.253,0a.415.415,0,1,1,.415.415A.415.415,0,0,1,171.443,163.951Zm1.983,4.79a.415.415,0,1,1,.415.415A.415.415,0,0,1,173.426,168.741Zm-1.253,0a.415.415,0,1,1,.415.415A.415.415,0,0,1,172.173,168.741Zm-1.253,0a.415.415,0,1,1,.415.415A.415.415,0,0,1,170.92,168.741Zm-1.253,0a.415.415,0,1,1,.415.415A.415.415,0,0,1,169.668,168.741Zm-1.253,0a.415.415,0,1,1,.415.415A.415.415,0,0,1,168.415,168.741Zm-1.253,0a.415.415,0,1,1,.415.415A.415.415,0,0,1,167.163,168.741Zm6.25,3.437a.415.415,0,1,1,.415.415A.415.415,0,0,1,173.413,172.178Zm-1.253,0a.415.415,0,1,1,.415.415A.415.415,0,0,1,172.16,172.178Zm-1.253,0a.415.415,0,1,1,.415.415A.415.415,0,0,1,170.908,172.178Zm-1.253,0a.415.415,0,1,1,.415.415A.415.415,0,0,1,169.655,172.178Zm-1.253,0a.415.415,0,1,1,.415.415A.415.415,0,0,1,168.4,172.178Zm-1.253,0a.415.415,0,1,1,.415.415A.415.415,0,0,1,167.15,172.178Z" transform="translate(-167.15 -160.2)" fill="url(#linear-gradient)"/>
            <path id="Trazado_831529" data-name="Trazado 831529" d="M185.215,182.662h1.46a.359.359,0,0,0,.359-.359.363.363,0,0,0-.359-.359h-1.46a.359.359,0,0,0-.359.359A.363.363,0,0,0,185.215,182.662Zm-.359,1.309a.359.359,0,0,1,.359-.359h1.46a.359.359,0,0,1,.359.359.363.363,0,0,1-.359.359h-1.46A.359.359,0,0,1,184.856,183.971Zm0,1.668a.359.359,0,0,1,.359-.359h1.46a.359.359,0,0,1,.359.359.363.363,0,0,1-.359.359h-1.46A.359.359,0,0,1,184.856,185.639Zm0,1.668a.359.359,0,0,1,.359-.359h1.46a.359.359,0,0,1,.359.359.363.363,0,0,1-.359.359h-1.46A.359.359,0,0,1,184.856,187.307Zm0,1.668a.359.359,0,0,1,.359-.359h1.46a.359.359,0,0,1,.359.359.363.363,0,0,1-.359.359h-1.46A.359.359,0,0,1,184.856,188.975Zm0,1.668a.359.359,0,0,1,.359-.359h1.46a.359.359,0,0,1,.359.359.363.363,0,0,1-.359.359h-1.46A.359.359,0,0,1,184.856,190.643Zm0,1.668a.359.359,0,0,1,.359-.359h1.46a.359.359,0,0,1,.359.359.363.363,0,0,1-.359.359h-1.46A.359.359,0,0,1,184.856,192.311Zm0,1.668a.359.359,0,0,1,.359-.359h1.46a.359.359,0,0,1,.359.359.363.363,0,0,1-.359.359h-1.46A.359.359,0,0,1,184.856,193.979Zm-5.457-11.67a.359.359,0,0,1,.359-.359h3.827a.359.359,0,0,1,.359.359.363.363,0,0,1-.359.359h-3.827A.359.359,0,0,1,179.4,182.309Zm0,1.668a.359.359,0,0,1,.359-.359h3.827a.359.359,0,0,1,.359.359.363.363,0,0,1-.359.359h-3.827A.359.359,0,0,1,179.4,183.977Zm0,1.668a.359.359,0,0,1,.359-.359h3.827a.359.359,0,0,1,.359.359.363.363,0,0,1-.359.359h-3.827A.359.359,0,0,1,179.4,185.645Zm0,1.668a.359.359,0,0,1,.359-.359h3.827a.359.359,0,0,1,.359.359.363.363,0,0,1-.359.359h-3.827A.359.359,0,0,1,179.4,187.313Zm0,1.668a.359.359,0,0,1,.359-.359h3.827a.359.359,0,0,1,.359.359.363.363,0,0,1-.359.359h-3.827A.359.359,0,0,1,179.4,188.981Zm-4.582,1.668a.359.359,0,0,1,.359-.359H179a.359.359,0,0,1,.359.359.363.363,0,0,1-.359.359h-3.827A.359.359,0,0,1,174.817,190.649Zm0,1.668a.359.359,0,0,1,.359-.359H179a.359.359,0,0,1,.359.359.363.363,0,0,1-.359.359h-3.827A.359.359,0,0,1,174.817,192.317Zm0,1.668a.359.359,0,0,1,.359-.359H179a.359.359,0,0,1,.359.359.363.363,0,0,1-.359.359h-3.827A.359.359,0,0,1,174.817,193.985Zm2.9-11.67a.415.415,0,1,1,.415.415A.415.415,0,0,1,177.718,182.315Zm-1.253,0a.415.415,0,1,1,.415.415A.415.415,0,0,1,176.466,182.315Zm-1.253,0a.415.415,0,1,1,.415.415A.415.415,0,0,1,175.213,182.315Zm-1.253,0a.415.415,0,1,1,.415.415A.415.415,0,0,1,173.961,182.315Zm-1.253,0a.415.415,0,1,1,.415.415A.415.415,0,0,1,172.708,182.315Zm-1.253,0a.415.415,0,1,1,.415.415A.415.415,0,0,1,171.455,182.315Zm6.25,3.336a.415.415,0,1,1,.415.415A.415.415,0,0,1,177.706,185.651Zm-1.253,0a.415.415,0,1,1,.415.415A.415.415,0,0,1,176.453,185.651Zm-1.253,0a.415.415,0,1,1,.415.415A.415.415,0,0,1,175.2,185.651Zm-1.253,0a.415.415,0,1,1,.415.415A.415.415,0,0,1,173.948,185.651Zm-1.253,0a.415.415,0,1,1,.415.415A.415.415,0,0,1,172.7,185.651Zm-1.253,0a.415.415,0,1,1,.415.415A.415.415,0,0,1,171.443,185.651Zm1.983,4.79a.415.415,0,1,1,.415.415A.415.415,0,0,1,173.426,190.441Zm-1.253,0a.415.415,0,1,1,.415.415A.415.415,0,0,1,172.173,190.441Zm-1.253,0a.415.415,0,1,1,.415.415A.415.415,0,0,1,170.92,190.441Zm-1.253,0a.415.415,0,1,1,.415.415A.415.415,0,0,1,169.668,190.441Zm-1.253,0a.415.415,0,1,1,.415.415A.415.415,0,0,1,168.415,190.441Zm-1.253,0a.415.415,0,1,1,.415.415A.415.415,0,0,1,167.163,190.441Zm6.25,3.437a.415.415,0,1,1,.415.415A.415.415,0,0,1,173.413,193.878Zm-1.253,0a.415.415,0,1,1,.415.415A.415.415,0,0,1,172.16,193.878Zm-1.253,0a.415.415,0,1,1,.415.415A.415.415,0,0,1,170.908,193.878Zm-1.253,0a.415.415,0,1,1,.415.415A.415.415,0,0,1,169.655,193.878Zm-1.253,0a.415.415,0,1,1,.415.415A.415.415,0,0,1,168.4,193.878Zm-1.253,0a.415.415,0,1,1,.415.415A.415.415,0,0,1,167.15,193.878Z" transform="translate(-167.15 -168.241)" fill="url(#linear-gradient)"/>
          </g>
        </g>
      </g>
      <g id="Character" transform="translate(97.316 69.73)">
        <g id="Grupo_1084871" data-name="Grupo 1084871" transform="translate(0)">
          <g id="Grupo_1084859" data-name="Grupo 1084859" transform="translate(40.65)">
            <path id="Trazado_831530" data-name="Trazado 831530" d="M159.935,128.06c.183,2.379,1.316,4.236,2.518,4.142s2.033-2.1,1.851-4.482-1.316-4.236-2.518-4.142S159.753,125.68,159.935,128.06Z" transform="translate(-155.314 -101.616)" fill="none" stroke="#263238" stroke-linecap="round" stroke-linejoin="round" stroke-width="1"/>
            <g id="Grupo_1084856" data-name="Grupo 1084856" transform="translate(6.401 6.256)">
              <path id="Trazado_831531" data-name="Trazado 831531" d="M113.36,106.529s-.245,4.387.485,6.458,1.706,3.412,1.706,4.387-1.586,2.19-1.586,4.142,3.531,11.324,4.507,13.155.611,2.436,1.825,2.556,4.261-1.341,4.261-1.341,1.825.245,2.071.976.85,3.286.85,3.286l17.782-7.918a17.823,17.823,0,0,1-3.651-6.213c-1.1-3.531.611-9.014.611-9.014s1.706-12.79-6.087-16.441-19.122-1.341-20.948.485-1.825,5.482-1.825,5.482Z" transform="translate(-113.32 -98.628)" fill="#fff"/>
              <g id="Grupo_1084855" data-name="Grupo 1084855" transform="translate(0)" clip-path="url(#clip-path)">
                <path id="Trazado_831532" data-name="Trazado 831532" d="M117.84,127.308a63.216,63.216,0,0,1,1.309-12.891s-.22-1.75,3.059-7.213a71.868,71.868,0,0,1,4.438-7.043,18.359,18.359,0,0,1,2.6.969c7.792,3.651,6.087,16.441,6.087,16.441s-1.706,5.482-.611,9.014a17.823,17.823,0,0,0,3.651,6.213l-10.329,4.6-8.246-1.127s-.422.189-1.045.441a5.942,5.942,0,0,0-1.089-.258s-3.046,1.46-4.261,1.341c-.812-.982,4.645-4.8,4.425-10.48Z" transform="translate(-106.433 -99.195)" opacity="0.4"/>
                <path id="Trazado_831533" data-name="Trazado 831533" d="M157.244,111.11l-4.368-.22s2.625,2.839-.434,2.839-5.023-.768-5.029-2.4-1.53-4.154,4.368-4.154,7.213,2.4,5.464,3.934Z" transform="translate(-147.366 -101.793)" opacity="0.4"/>
              </g>
              <path id="Trazado_831535" data-name="Trazado 831535" d="M113.36,106.529s-.245,4.387.485,6.458,1.706,3.412,1.706,4.387-1.586,2.19-1.586,4.142,3.531,11.324,4.507,13.155.611,2.436,1.825,2.556,4.261-1.341,4.261-1.341,1.825.245,2.071.976.85,3.286.85,3.286l17.782-7.918a17.823,17.823,0,0,1-3.651-6.213c-1.1-3.531.611-9.014.611-9.014s1.706-12.79-6.087-16.441-19.122-1.341-20.948.485-1.825,5.482-1.825,5.482Z" transform="translate(-113.32 -98.628)" fill="none" stroke="#263238" stroke-linecap="round" stroke-linejoin="round" stroke-width="1"/>
            </g>
            <g id="Grupo_1084858" data-name="Grupo 1084858">
              <path id="Trazado_831536" data-name="Trazado 831536" d="M137.576,114.169s-2.921.85-3.286,0,.73-1.1-.611-1.586-4.507-2.436-4.507-4.387,3.651-5.237,1.825-5.722-7.427-.245-7.427-.245,3.9,1.825,1.951,2.681-6.7-.245-8.523-2.921.73-6.943,4.261-9.259,10.593-4.261,17.536-4.022,12.06,2.681,13.52,6.7-.85,18.147-.976,21.923-2.436,4.872-5.117,4.872a6.344,6.344,0,0,1-5.6-4.387c-.611-2.071-.85-4.142-1.215-4.626s-1.825.976-1.825.976Z" transform="translate(-116.394 -88.688)" fill="#263238" stroke="#263238" stroke-linecap="round" stroke-linejoin="round" stroke-width="1"/>
              <g id="Grupo_1084857" data-name="Grupo 1084857" transform="translate(1.298 9.21)">
                <path id="Trazado_831537" data-name="Trazado 831537" d="M125.36,128.35a9.138,9.138,0,0,0,1.485,1.322" transform="translate(-97.381 -112.595)" fill="none" stroke="#707070" stroke-linecap="round" stroke-linejoin="round" stroke-width="1"/>
                <path id="Trazado_831538" data-name="Trazado 831538" d="M130.4,103.32s.812,1.221,4.066,2.033,10.159-2.644,17.681.812c5.124,2.354,3.833,5.929,4.545,9.454" transform="translate(-130.4 -103.32)" fill="none" stroke="#707070" stroke-linecap="round" stroke-linejoin="round" stroke-width="1"/>
                <path id="Trazado_831539" data-name="Trazado 831539" d="M129.55,113.01s2.644.409,4.677,3.858,1.832,8.737,7.925,10.367" transform="translate(-115.325 -106.911)" fill="none" stroke="#707070" stroke-linecap="round" stroke-linejoin="round" stroke-width="1"/>
              </g>
            </g>
            <line id="Línea_4075" data-name="Línea 4075" x1="17.417" y2="1.825" transform="translate(4.861 23.41)" fill="none" stroke="#263238" stroke-linecap="round" stroke-linejoin="round" stroke-width="1"/>
            <path id="Trazado_831540" data-name="Trazado 831540" d="M134.045,127.793s-.245-4.261,1.341-6.332,2.921-.611,3.651,3.531.73,6.332-.85,6.943a4.476,4.476,0,0,1-3.166-.12" transform="translate(-114.203 -100.486)" fill="#fff" stroke="#263238" stroke-linecap="round" stroke-linejoin="round" stroke-width="1"/>
          </g>
          <g id="Grupo_1084870" data-name="Grupo 1084870" transform="translate(0 38.088)">
            <path id="Trazado_831541" data-name="Trazado 831541" d="M65.81,297.683a23.328,23.328,0,0,1,10.2-6.024c6.231-1.485,33.543-4.6,33.543-4.6l1.334-5.489a36.249,36.249,0,0,1,4.752-1.19c.894,0,4.9,1.334,13.8,3.267s24.85-2.795,24.85-2.795a12.118,12.118,0,0,1,4.337,9.253c0,3.758-.352,6.918-.793,7.578H65.816Z" transform="translate(-49.738 -197.809)" fill="#263238" stroke="#263238" stroke-linecap="round" stroke-linejoin="round" stroke-width="1"/>
            <g id="Grupo_1084869" data-name="Grupo 1084869">
              <g id="Grupo_1084861" data-name="Grupo 1084861" transform="translate(56.703 4.199)">
                <path id="Trazado_831542" data-name="Trazado 831542" d="M93.951,155.87s.157.107.447.308c1.712,1.177,8.032,5.558,12.828,9.316,5.6,4.387,5.967,12.545,6.213,18.877s4.331,45.767,5.3,50.638-7.736,6.118-16.145,7.339-19.242-.12-24.479-2.556-6.452-2.316-6.452-4.991-.12-8.768-.12-9.259-3.777-30.326-3.531-39.094-.485-13.52,1.586-17.9,7.308-7.792,14.251-10.109,10.109-2.556,10.109-2.556Z" transform="translate(-68.001 -155.87)" fill="url(#linear-gradient)"/>
                <g id="Grupo_1084860" data-name="Grupo 1084860" transform="translate(0)" opacity="0.45" clip-path="url(#clip-path-2)">
                  <path id="Trazado_831543" data-name="Trazado 831543" d="M73.279,173.72c2.058-4.161,8.693-11.676,8.693-11.676s-5.042-1.492,12.117-5.684h.006c1.712,1.177,8.032,5.558,12.828,9.316,5.6,4.387,5.967,12.545,6.213,18.877s4.331,45.767,5.3,50.638-7.736,6.118-16.145,7.339a47.061,47.061,0,0,1-6.7.453L71.1,222.879s-.057.076-.164.214c-.661-5.615-2.235-19.022-2.921-28.52,1.762-8.233,3.827-17.97,5.256-20.853Z" transform="translate(-67.703 -156.052)" opacity="0.4"/>
                  <path id="Trazado_831544" data-name="Trazado 831544" d="M100.688,196.05s-1.12,10.814-6.338,17.712" transform="translate(-66.461 -170.759)" fill="none" stroke="#263238" stroke-linecap="round" stroke-linejoin="round" stroke-width="1"/>
                  <path id="Trazado_831545" data-name="Trazado 831545" d="M125.93,224.78s-1.12,2.612-6.71,6.9" transform="translate(-107.356 -181.405)" fill="none" stroke="#263238" stroke-linecap="round" stroke-linejoin="round" stroke-width="1"/>
                  <path id="Trazado_831546" data-name="Trazado 831546" d="M123.865,237.22a25.953,25.953,0,0,1-11.745.932" transform="translate(-100.823 -186.015)" fill="none" stroke="#263238" stroke-linecap="round" stroke-linejoin="round" stroke-width="1"/>
                  <path id="Trazado_831547" data-name="Trazado 831547" d="M126.3,286.438S114,280.1,109.15,273.95" transform="translate(-101.39 -199.626)" fill="none" stroke="#263238" stroke-linecap="round" stroke-linejoin="round" stroke-width="1"/>
                </g>
                <path id="Trazado_831549" data-name="Trazado 831549" d="M93.951,155.87s.157.107.447.308c1.712,1.177,8.032,5.558,12.828,9.316,5.6,4.387,5.967,12.545,6.213,18.877s4.331,45.767,5.3,50.638-7.736,6.118-16.145,7.339-19.242-.12-24.479-2.556-6.452-2.316-6.452-4.991-.12-8.768-.12-9.259-3.777-30.326-3.531-39.094-.485-13.52,1.586-17.9,7.308-7.792,14.251-10.109,10.109-2.556,10.109-2.556Z" transform="translate(-68.001 -155.87)" fill="none" stroke="#263238" stroke-linecap="round" stroke-linejoin="round" stroke-width="1"/>
              </g>
              <g id="Grupo_1084863" data-name="Grupo 1084863" transform="translate(57.81)">
                <path id="Trazado_831550" data-name="Trazado 831550" d="M127.839,149.256l3.286,5.482a137.722,137.722,0,0,0-14.981,4.387c-5.117,2.071-11.934,7.553-11.934,7.553s1.1-6.213,2.071-7.792,11.084-6.943,15.226-8.523,6.332-1.1,6.332-1.1Z" transform="translate(-104.21 -149.199)" fill="url(#linear-gradient)"/>
                <g id="Grupo_1084862" data-name="Grupo 1084862" clip-path="url(#clip-path-3)">
                  <path id="Trazado_831551" data-name="Trazado 831551" d="M105.151,160.881a1.32,1.32,0,0,1-.913-1.02c-.352-2.9,4.563-7.031,4.809-7.239,1.926-.957,3.72-1.781,4.973-2.26,4.142-1.586,6.332-1.1,6.332-1.1l3.286,5.482a137.721,137.721,0,0,0-14.981,4.387,29.455,29.455,0,0,0-3.512,1.756Z" transform="translate(-96.729 -149.198)" opacity="0.4"/>
                </g>
                <path id="Trazado_831553" data-name="Trazado 831553" d="M127.839,149.256l3.286,5.482a137.722,137.722,0,0,0-14.981,4.387c-5.117,2.071-11.934,7.553-11.934,7.553s1.1-6.213,2.071-7.792,11.084-6.943,15.226-8.523,6.332-1.1,6.332-1.1Z" transform="translate(-104.21 -149.199)" fill="none" stroke="#263238" stroke-linecap="round" stroke-linejoin="round" stroke-width="1"/>
              </g>
              <g id="Grupo_1084864" data-name="Grupo 1084864" transform="translate(0 58.147)">
                <path id="Trazado_831554" data-name="Trazado 831554" d="M222.847,252.424a23.515,23.515,0,0,1-4.626-5.357c-1.46-2.681-2.436-3.412-3.531-3.166a9.9,9.9,0,0,1-1.951.245s-3.9-2.316-5.117-2.556-3.651,2.681-3.651,2.681-4.142,3.166-3.651,3.9,1.215.365,1.706.365,1.586-.85,2.19-.611,3.286,1.951,3.286,1.951a18.541,18.541,0,0,0-4.022.365c-.85.365-4.022,3.166-3.412,3.531s.611.485,1.341.365a10.9,10.9,0,0,0,2.436-1.215l3.286.611s-1.951,2.071-2.556,2.556-2.921,1.221-1.951,1.825,1.706.365,2.921-.485a17.979,17.979,0,0,1,4.387-2.19c.491,0,1.825,1.706,4.022,2.436a21.342,21.342,0,0,0,5.482.73l.611.611,3.651-4.387.73-.611-1.586-1.586Z" transform="translate(-199.99 -241.578)" fill="#fff" stroke="#263238" stroke-linecap="round" stroke-linejoin="round" stroke-width="1"/>
                <path id="Trazado_831555" data-name="Trazado 831555" d="M221.08,245.637s1.1-.611,1.825-.245,5.357,3.046,5.357,3.046" transform="translate(-217.1 -242.948)" fill="none" stroke="#263238" stroke-linecap="round" stroke-linejoin="round" stroke-width="1"/>
                <line id="Línea_4076" data-name="Línea 4076" x2="2.19" y2="1.46" transform="translate(12.748 2.563)" fill="none" stroke="#263238" stroke-linecap="round" stroke-linejoin="round" stroke-width="1"/>
              </g>
              <g id="Grupo_1084865" data-name="Grupo 1084865" transform="translate(30.118 57.652)">
                <path id="Trazado_831556" data-name="Trazado 831556" d="M172.423,254.084s-8.038-.12-9.259-.85-4.142-2.8-4.261-3.651.611-1.341,1.825-.85a40.507,40.507,0,0,0,4.872,1.706,17.4,17.4,0,0,0,2.556-.73,52.8,52.8,0,0,0-4.991-4.022,4,4,0,0,0-3.9,0c-.85.485-2.19-1.1-1.1-1.951a6.094,6.094,0,0,1,3.9-1.341,5.424,5.424,0,0,1,1.706.365s1.341-2.19,2.316-1.951a4.162,4.162,0,0,1,1.706.976,2.2,2.2,0,0,1,2.19.12,34.158,34.158,0,0,1,3.412,1.951c1.215.976,4.752,3.286,5.237,4.142S172.423,254.084,172.423,254.084Z" transform="translate(-157.76 -240.791)" fill="#fff" stroke="#263238" stroke-linecap="round" stroke-linejoin="round" stroke-width="1"/>
                <line id="Línea_4077" data-name="Línea 4077" x2="3.412" y2="1.951" transform="translate(6.014 1.963)" fill="none" stroke="#263238" stroke-linecap="round" stroke-linejoin="round" stroke-width="1"/>
                <line id="Línea_4078" data-name="Línea 4078" x2="2.436" y2="1.706" transform="translate(10.03 0.988)" fill="none" stroke="#263238" stroke-linecap="round" stroke-linejoin="round" stroke-width="1"/>
              </g>
              <g id="Grupo_1084868" data-name="Grupo 1084868" transform="translate(17.806 18.437)">
                <g id="Grupo_1084867" data-name="Grupo 1084867" transform="translate(0)">
                  <path id="Trazado_831557" data-name="Trazado 831557" d="M173.112,189.342s3.418,4.633,4.513,8.283-.245,8.888-.611,10.109-19.853,39.579-21.923,43.356S150.7,255.112,149,254.5s-21.313-14.616-22.043-15.346-4.022-3.531-4.022-3.531-.611-3.9,2.071-5.967,4.022-.976,4.022-.976l17.052,4.626s9.624-33.127,10.719-39.46-.611-5.967,2.8-9.379a48.036,48.036,0,0,1,7.547-5.98" transform="translate(-122.88 -178.49)" fill="url(#linear-gradient)"/>
                  <g id="Grupo_1084866" data-name="Grupo 1084866" clip-path="url(#clip-path-4)">
                    <path id="Trazado_831558" data-name="Trazado 831558" d="M126.968,239.937c-.73-.73-4.022-3.531-4.022-3.531a8.285,8.285,0,0,1,.157-2.839c6.855,2.713,20.9,8.34,21.722,9.158,1.089,1.089.541-.812.541-2.99s3.26,3.8,3.8,5.161,1.781-3.865,2.172-5.973,6.792-18.468,8.693-26.071,5.281-25.99,7.333-30.15a22.607,22.607,0,0,1,1.221-2.1l5.149,9.158a54.343,54.343,0,0,1,3.9,8.648c1.1,3.651-.245,8.888-.611,10.109-.2.661-6.068,12.337-11.708,23.447l-.126-.1s-10.329,26.141-15.4,23.6c-4.979-3.153-22.194-14.886-22.83-15.528Z" transform="translate(-122.893 -179.272)" opacity="0.23"/>
                  </g>
                  <path id="Trazado_831560" data-name="Trazado 831560" d="M173.112,189.342s3.418,4.633,4.513,8.283-.245,8.888-.611,10.109-19.853,39.579-21.923,43.356S150.7,255.112,149,254.5s-21.313-14.616-22.043-15.346-4.022-3.531-4.022-3.531-.611-3.9,2.071-5.967,4.022-.976,4.022-.976l17.052,4.626s9.624-33.127,10.719-39.46-.611-5.967,2.8-9.379a48.036,48.036,0,0,1,7.547-5.98" transform="translate(-122.88 -178.49)" fill="none" stroke="#263238" stroke-linecap="round" stroke-linejoin="round" stroke-width="1"/>
                </g>
                <path id="Trazado_831561" data-name="Trazado 831561" d="M202.927,259.97s-5.533.7-5.847,8.038" transform="translate(-194.465 -208.683)" fill="none" stroke="#263238" stroke-linecap="round" stroke-linejoin="round" stroke-width="1"/>
              </g>
            </g>
          </g>
        </g>
      </g>
      <g id="Chair" transform="translate(0 108.07)">
        <g id="Grupo_1084873" data-name="Grupo 1084873">
          <g id="Grupo_1084872" data-name="Grupo 1084872" transform="translate(180.127)">
            <path id="Trazado_831562" data-name="Trazado 831562" d="M32.636,249.972H29.81c4.324-8.076,28.205-52.678,29.011-54.7.888-2.228,2.228-2.228,2.669-3.116s-.151-4.752,0-7.27,8.309-25.971,10.537-29.829,5.64-3.412,5.64-3.412l.888,2.373-14.1,38.44L32.63,249.978Z" transform="translate(-29.81 -150.349)" fill="#fff" stroke="#263238" stroke-linecap="round" stroke-linejoin="round" stroke-width="1"/>
            <path id="Trazado_831563" data-name="Trazado 831563" d="M55.751,194.082C49.9,207.615,33.255,245.5,31.87,249.221H.492c3.682-6.634,25.574-46.213,30.194-58.708,5.048-13.653,12.91-37.993,14.842-39.629s11.575-1.63,15.434-.447,4.01,1.63,3.858,4.154-3.229,26-9.07,39.485Z" transform="translate(2.34 -149.598)" fill="#263238" stroke="#263238" stroke-linecap="round" stroke-linejoin="round" stroke-width="1"/>
          </g>
          <line id="Línea_4079" data-name="Línea 4079" x1="226.982" transform="translate(0 99.622)" fill="#fff" stroke="#263238" stroke-linecap="round" stroke-linejoin="round" stroke-width="1"/>
        </g>
      </g>
    </g>
  </g>
</svg>
