<svg xmlns="http://www.w3.org/2000/svg" xmlns:xlink="http://www.w3.org/1999/xlink" width="124.384" height="124.384" viewBox="0 0 124.384 124.384">
  <defs>
    <filter id="Elipse_10794" x="0" y="0" width="124.384" height="124.384" filterUnits="userSpaceOnUse">
      <feOffset dy="3" input="SourceAlpha"/>
      <feGaussianBlur stdDeviation="3" result="blur"/>
      <feFlood flood-opacity="0.161"/>
      <feComposite operator="in" in2="blur"/>
      <feComposite in="SourceGraphic"/>
    </filter>
  </defs>
  <g id="Grupo_1087186" data-name="Grupo 1087186" transform="translate(-324.68 -1894.213)">
    <g transform="matrix(1, 0, 0, 1, 324.68, 1894.21)" filter="url(#Elipse_10794)">
      <circle id="Elipse_10794-2" data-name="Elipse 10794" cx="53.192" cy="53.192" r="53.192" transform="translate(9 6)" fill="#fff"/>
    </g>
    <g id="Grupo_1084512" data-name="Grupo 1084512" transform="translate(354.743 1912.69)">
      <g id="Grupo_1070195" data-name="Grupo 1070195" transform="translate(9.006 0)">
        <rect id="Rectángulo_374304" data-name="Rectángulo 374304" width="46.442" height="78.789" rx="3" transform="translate(0 0)" fill="#9697f8"/>
      </g>
      <g id="statistical-analysis" transform="translate(0 9.749)">
        <g id="Grupo_1084526" data-name="Grupo 1084526" transform="translate(0)">
          <path id="Trazado_830852" data-name="Trazado 830852" d="M7.5,66.474V120.9a1.3,1.3,0,0,0,1.3,1.3H69.3a1.3,1.3,0,0,0,1.3-1.3V66.474Z" transform="translate(-7.5 -60.154)" fill="#f9f3f1"/>
          <path id="Trazado_830853" data-name="Trazado 830853" d="M441.3,66.474V120.9a1.3,1.3,0,0,1-1.3,1.3h5.421a1.3,1.3,0,0,0,1.3-1.3V66.474Z" transform="translate(-383.626 -60.154)" fill="#f3eae6"/>
          <path id="Trazado_830854" data-name="Trazado 830854" d="M70.6,112.234V67.474H7.5v54.293a1.3,1.3,0,0,0,1.3,1.3H69.3a1.3,1.3,0,0,0,1.3-1.3v-4.121" transform="translate(-7.5 -61.024)" fill="none" stroke="#000" stroke-linecap="round" stroke-linejoin="round" stroke-miterlimit="10" stroke-width="1"/>
          <path id="Trazado_830855" data-name="Trazado 830855" d="M69.3,17.989H8.8a1.3,1.3,0,0,0-1.3,1.3v5.147H70.6V19.292A1.3,1.3,0,0,0,69.3,17.989Z" transform="translate(-7.5 -17.989)" fill="#26a6fe"/>
          <path id="Trazado_830856" data-name="Trazado 830856" d="M445.421,17.989H440a1.3,1.3,0,0,1,1.3,1.3v5.147h5.421V19.292A1.3,1.3,0,0,0,445.421,17.989Z" transform="translate(-383.626 -17.989)" fill="#0593fc"/>
          <path id="Trazado_830857" data-name="Trazado 830857" d="M8.8,17.989a1.3,1.3,0,0,0-1.3,1.3v5.147h8.9v-6.45Z" transform="translate(-7.5 -17.989)" fill="#60b7ff"/>
          <path id="Trazado_830858" data-name="Trazado 830858" d="M56.76,17.989H8.8a1.3,1.3,0,0,0-1.3,1.3v5.147H70.6V19.292a1.3,1.3,0,0,0-1.3-1.3H61.323" transform="translate(-7.5 -17.989)" fill="none" stroke="#000" stroke-linecap="round" stroke-linejoin="round" stroke-miterlimit="10" stroke-width="1"/>
          <line id="Línea_4026" data-name="Línea 4026" y1="6.45" transform="translate(8.904)" fill="none" stroke="#000" stroke-linecap="round" stroke-linejoin="round" stroke-miterlimit="10" stroke-width="1"/>
          <g id="Grupo_1084520" data-name="Grupo 1084520" transform="translate(18.685 10.762)">
            <path id="Trazado_830859" data-name="Trazado 830859" d="M353.032,305.784l3.044-3.044a.521.521,0,0,1,.113-.083l-4.98-4.98a16.135,16.135,0,0,1-3.241,3.241l4.98,4.98A.53.53,0,0,1,353.032,305.784Z" transform="translate(-322.275 -271.983)" fill="#acacac"/>
            <path id="Trazado_830860" data-name="Trazado 830860" d="M369.976,303.3a.648.648,0,0,1,.11-.087l-4.786-4.786a16.213,16.213,0,0,1-1.242,1.466l4.663,4.663Z" transform="translate(-336.266 -272.637)" fill="#9c9c9c"/>
            <path id="Trazado_830861" data-name="Trazado 830861" d="M353.594,306.346l3.044-3.044a.651.651,0,0,1,.11-.087l-4.786-4.786a16.221,16.221,0,0,1-3.241,3.241l4.786,4.786A.651.651,0,0,1,353.594,306.346Z" transform="translate(-322.928 -272.637)" fill="none" stroke="#000" stroke-linecap="round" stroke-linejoin="round" stroke-miterlimit="10" stroke-width="1"/>
            <path id="Trazado_830862" data-name="Trazado 830862" d="M399.447,349.156h0a2.8,2.8,0,0,1-3.966,0l-10.644-10.644a.652.652,0,0,1,0-.922l3.044-3.044a.652.652,0,0,1,.922,0l10.644,10.644A2.8,2.8,0,0,1,399.447,349.156Z" transform="translate(-354.172 -303.881)" fill="#838383"/>
            <path id="Trazado_830863" data-name="Trazado 830863" d="M413.481,345.19l-10.644-10.644a.652.652,0,0,0-.922,0l-1.132,1.132,9.485,9.485a2.8,2.8,0,0,1,0,3.966h0a2.809,2.809,0,0,1-.4.327,2.8,2.8,0,0,0,3.608-4.265Z" transform="translate(-368.205 -303.881)" fill="#5a5a5a"/>
            <path id="Trazado_830864" data-name="Trazado 830864" d="M399.447,349.156h0a2.8,2.8,0,0,1-3.966,0l-10.644-10.644a.652.652,0,0,1,0-.922l3.044-3.044a.652.652,0,0,1,.922,0l10.644,10.644A2.8,2.8,0,0,1,399.447,349.156Z" transform="translate(-354.172 -303.881)" fill="none" stroke="#000" stroke-linecap="round" stroke-linejoin="round" stroke-miterlimit="10" stroke-width="1"/>
            <circle id="Elipse_10795" data-name="Elipse 10795" cx="16.125" cy="16.125" r="16.125" fill="#26a6fe"/>
            <path id="Trazado_830865" data-name="Trazado 830865" d="M256.363,100.556a16.226,16.226,0,0,0-2.727.231,16.138,16.138,0,0,1,11.043,7.5,11.813,11.813,0,0,1,0,16.785,16.137,16.137,0,0,1-11.043,7.5,16.126,16.126,0,1,0,2.727-32.02Z" transform="translate(-240.238 -100.556)" fill="#0593fc"/>
            <circle id="Elipse_10796" data-name="Elipse 10796" cx="16.125" cy="16.125" r="16.125" fill="none" stroke="#000" stroke-linecap="round" stroke-linejoin="round" stroke-miterlimit="10" stroke-width="1"/>
            <g id="Grupo_1084519" data-name="Grupo 1084519" transform="translate(4.31 4.31)">
              <circle id="Elipse_10797" data-name="Elipse 10797" cx="11.815" cy="11.815" r="11.815" fill="#ffd15b"/>
              <path id="Trazado_830866" data-name="Trazado 830866" d="M274.56,224.268l8.355,8.355a11.779,11.779,0,0,0,3.461-8.355Z" transform="translate(-262.745 -212.453)" fill="#05e39c"/>
              <path id="Trazado_830867" data-name="Trazado 830867" d="M274.56,133.621v11.815h11.815A11.815,11.815,0,0,0,274.56,133.621Z" transform="translate(-262.745 -133.621)" fill="#fd8087"/>
              <path id="Trazado_830868" data-name="Trazado 830868" d="M185.668,151.634a11.8,11.8,0,1,0-1.6-4.274" transform="translate(-183.913 -133.621)" fill="none" stroke="#000" stroke-linecap="round" stroke-linejoin="round" stroke-miterlimit="10" stroke-width="1"/>
              <line id="Línea_4027" data-name="Línea 4027" x2="8.355" y2="8.355" transform="translate(11.815 11.815)" fill="none" stroke="#000" stroke-linecap="round" stroke-linejoin="round" stroke-miterlimit="10" stroke-width="1"/>
              <line id="Línea_4028" data-name="Línea 4028" x1="11.815" transform="translate(11.815 11.815)" fill="none" stroke="#000" stroke-linecap="round" stroke-linejoin="round" stroke-miterlimit="10" stroke-width="1"/>
            </g>
          </g>
          <path id="Trazado_830869" data-name="Trazado 830869" d="M310.6,115.2l9.535-9.535h9.289" transform="translate(-271.091 -94.235)" fill="none" stroke="#000" stroke-linecap="round" stroke-linejoin="round" stroke-miterlimit="10" stroke-width="1"/>
          <line id="Línea_4029" data-name="Línea 4029" x2="5.012" transform="translate(53.319 15.767)" fill="none" stroke="#000" stroke-linecap="round" stroke-linejoin="round" stroke-miterlimit="10" stroke-width="1"/>
          <line id="Línea_4030" data-name="Línea 4030" x2="5.012" transform="translate(53.319 20.105)" fill="none" stroke="#000" stroke-linecap="round" stroke-linejoin="round" stroke-miterlimit="10" stroke-width="1"/>
          <g id="Grupo_1084523" data-name="Grupo 1084523" transform="translate(4.627 39.24)">
            <g id="Grupo_1084521" data-name="Grupo 1084521" transform="translate(2.14)">
              <path id="Trazado_830870" data-name="Trazado 830870" d="M63.354,379.885v9.3H59.417v-9.3a.442.442,0,0,1,.442-.442h3.053A.442.442,0,0,1,63.354,379.885Z" transform="translate(-59.417 -371.569)" fill="#ffd15b"/>
              <path id="Trazado_830871" data-name="Trazado 830871" d="M123.769,319.477v17.177h-3.937V319.477a.442.442,0,0,1,.442-.442h3.053A.442.442,0,0,1,123.769,319.477Z" transform="translate(-111.957 -319.035)" fill="#05e39c"/>
              <path id="Trazado_830872" data-name="Trazado 830872" d="M184.183,365.735v11.147h-3.937V365.735a.442.442,0,0,1,.442-.442h3.053A.442.442,0,0,1,184.183,365.735Z" transform="translate(-164.497 -359.264)" fill="#ffd15b"/>
              <path id="Trazado_830873" data-name="Trazado 830873" d="M244.6,395.549v7.261h-3.937v-7.261a.442.442,0,0,1,.442-.442h3.053A.442.442,0,0,1,244.6,395.549Z" transform="translate(-217.037 -385.191)" fill="#fe646f"/>
            </g>
            <g id="Grupo_1084522" data-name="Grupo 1084522" transform="translate(2.14)">
              <path id="Trazado_830874" data-name="Trazado 830874" d="M63.354,379.885v9.3H59.417v-9.3a.442.442,0,0,1,.442-.442h3.053A.442.442,0,0,1,63.354,379.885Z" transform="translate(-59.417 -371.569)" fill="none" stroke="#000" stroke-linecap="round" stroke-linejoin="round" stroke-miterlimit="10" stroke-width="1"/>
              <path id="Trazado_830875" data-name="Trazado 830875" d="M119.832,329.588v7.066h3.937V319.477a.442.442,0,0,0-.442-.442h-3.053a.442.442,0,0,0-.442.442v5.549" transform="translate(-111.957 -319.035)" fill="none" stroke="#000" stroke-linecap="round" stroke-linejoin="round" stroke-miterlimit="10" stroke-width="1"/>
              <path id="Trazado_830876" data-name="Trazado 830876" d="M184.183,365.735v11.147h-3.937V365.735a.442.442,0,0,1,.442-.442h3.053A.442.442,0,0,1,184.183,365.735Z" transform="translate(-164.497 -359.264)" fill="none" stroke="#000" stroke-linecap="round" stroke-linejoin="round" stroke-miterlimit="10" stroke-width="1"/>
              <path id="Trazado_830877" data-name="Trazado 830877" d="M244.6,395.549v7.261h-3.937v-7.261a.442.442,0,0,1,.442-.442h3.053A.442.442,0,0,1,244.6,395.549Z" transform="translate(-217.037 -385.191)" fill="none" stroke="#000" stroke-linecap="round" stroke-linejoin="round" stroke-miterlimit="10" stroke-width="1"/>
            </g>
            <line id="Línea_4031" data-name="Línea 4031" x2="31.841" transform="translate(0 17.619)" fill="none" stroke="#000" stroke-linecap="round" stroke-linejoin="round" stroke-miterlimit="10" stroke-width="1"/>
          </g>
          <circle id="Elipse_10798" data-name="Elipse 10798" cx="4.277" cy="4.277" r="4.277" transform="translate(4.627 12.62)" fill="#05e39c"/>
          <path id="Trazado_830878" data-name="Trazado 830878" d="M66.68,114.807a4.268,4.268,0,0,0-1.369.225,4.276,4.276,0,0,1,0,8.1,4.277,4.277,0,1,0,1.369-8.328Z" transform="translate(-57.776 -102.187)" fill="#0ed290"/>
          <circle id="Elipse_10799" data-name="Elipse 10799" cx="4.277" cy="4.277" r="4.277" transform="translate(4.627 12.62)" fill="none" stroke="#000" stroke-linecap="round" stroke-linejoin="round" stroke-miterlimit="10" stroke-width="1"/>
          <path id="Trazado_830879" data-name="Trazado 830879" d="M108.621,147.617h4.487L121,155.5" transform="translate(-95.44 -130.721)" fill="none" stroke="#000" stroke-linecap="round" stroke-linejoin="round" stroke-miterlimit="10" stroke-width="1"/>
          <g id="Grupo_1084524" data-name="Grupo 1084524" transform="translate(4.627 25.8)">
            <line id="Línea_4032" data-name="Línea 4032" x2="7.572" fill="none" stroke="#000" stroke-linecap="round" stroke-linejoin="round" stroke-miterlimit="10" stroke-width="1"/>
            <line id="Línea_4033" data-name="Línea 4033" x2="7.572" transform="translate(0 4.066)" fill="none" stroke="#000" stroke-linecap="round" stroke-linejoin="round" stroke-miterlimit="10" stroke-width="1"/>
            <line id="Línea_4034" data-name="Línea 4034" x2="5.242" transform="translate(0 8.133)" fill="none" stroke="#000" stroke-linecap="round" stroke-linejoin="round" stroke-miterlimit="10" stroke-width="1"/>
          </g>
          <g id="Grupo_1084525" data-name="Grupo 1084525" transform="translate(40.383 52.792)">
            <line id="Línea_4035" data-name="Línea 4035" x2="9.114" fill="none" stroke="#000" stroke-linecap="round" stroke-linejoin="round" stroke-miterlimit="10" stroke-width="1"/>
            <line id="Línea_4036" data-name="Línea 4036" x2="6.31" transform="translate(0 4.066)" fill="none" stroke="#000" stroke-linecap="round" stroke-linejoin="round" stroke-miterlimit="10" stroke-width="1"/>
          </g>
        </g>
        <line id="Línea_4037" data-name="Línea 4037" y2="11.815" transform="translate(34.81 15.072)" fill="none" stroke="#000" stroke-linecap="round" stroke-linejoin="round" stroke-miterlimit="10" stroke-width="1"/>
      </g>
    </g>
  </g>
</svg>
