<svg xmlns="http://www.w3.org/2000/svg" xmlns:xlink="http://www.w3.org/1999/xlink" width="102.4" height="102.4" viewBox="0 0 102.4 102.4">
  <defs>
    <filter id="Elipse_10794" x="0" y="0" width="102.4" height="102.4" filterUnits="userSpaceOnUse">
      <feOffset dy="3" input="SourceAlpha"/>
      <feGaussianBlur stdDeviation="3" result="blur"/>
      <feFlood flood-opacity="0.161"/>
      <feComposite operator="in" in2="blur"/>
      <feComposite in="SourceGraphic"/>
    </filter>
  </defs>
  <g id="Grupo_1084747" data-name="Grupo 1084747" transform="translate(-324.68 -1894.213)">
    <g transform="matrix(1, 0, 0, 1, 324.68, 1894.21)" filter="url(#Elipse_10794)">
      <circle id="Elipse_10794-2" data-name="Elipse 10794" cx="42.2" cy="42.2" r="42.2" transform="translate(9 6)" fill="#fff"/>
    </g>
    <g id="Grupo_1084512" data-name="Grupo 1084512" transform="translate(350.39 1910.112)">
      <g id="Grupo_1070195" data-name="Grupo 1070195" transform="translate(7.145 0)">
        <rect id="Rectángulo_374304" data-name="Rectángulo 374304" width="36.845" height="62.508" rx="3" transform="translate(0 0)" fill="#9697f8"/>
      </g>
    </g>
    <g id="equilibrio" transform="translate(318.799 1875.328)">
      <g id="Grupo_1084600" data-name="Grupo 1084600" transform="translate(25.686 44.286)">
        <path id="Trazado_831008" data-name="Trazado 831008" d="M164.021,49.6H123.1V96.8h40.921Z" transform="translate(-112.57 -49.6)" fill="#fcb13b" fill-rule="evenodd"/>
        <path id="Trazado_831011" data-name="Trazado 831011" d="M371.5,99.6h7.146v5.374H371.5Zm0,32.529h7.146V137.5H371.5Z" transform="translate(-332.568 -93.883)" fill="#b5b682" fill-rule="evenodd"/>
        <path id="Trazado_831012" data-name="Trazado 831012" d="M371.5,241.8h7.146v5.374H371.5Z" transform="translate(-332.568 -219.824)" fill="#b5b682" fill-rule="evenodd"/>
      </g>
      <path id="Trazado_831013" data-name="Trazado 831013" d="M64.618,65.576h7.146a.688.688,0,0,1,.686.686v5.374a.688.688,0,0,1-.686.686H64.618a.688.688,0,0,1-.686-.686V66.262A.688.688,0,0,1,64.618,65.576Zm6.46,1.372H65.3v4h5.774Zm-6.46-17.631h7.146A.688.688,0,0,1,72.45,50v5.374a.688.688,0,0,1-.686.686H64.618a.688.688,0,0,1-.686-.686V50A.688.688,0,0,1,64.618,49.317Zm6.46,1.372H65.3v4h5.774Zm-6.46,31.157h7.146a.688.688,0,0,1,.686.686v5.374a.688.688,0,0,1-.686.686H64.618a.688.688,0,0,1-.686-.686V82.532A.688.688,0,0,1,64.618,81.846Zm6.46,1.372H65.3v4h5.774ZM58.672,71.075a.687.687,0,0,1-.743-1.155l.446-.3H48.222L59.827,83.744l-.069-.652a.683.683,0,0,1,1.361-.126l.24,2.493a.675.675,0,0,1-.812.732l-2.858-.446a.682.682,0,1,1,.206-1.349l.766.114L46.45,69.635h-3.59a.686.686,0,0,1,0-1.372h3.59L58.661,53.387l-.766.114a.682.682,0,1,1-.206-1.349l2.858-.446a.684.684,0,0,1,.812.732l-.24,2.493a.683.683,0,0,1-1.361-.126l.069-.675L48.222,68.263H58.375l-.446-.3a.682.682,0,1,1,.743-1.143l2.367,1.544a.689.689,0,0,1,.011,1.155ZM37.52,75.5h-.606V90.8H76.452V44.972H36.9v15h4.025a.688.688,0,0,1,.686.686v4.07a.688.688,0,0,1-.686.686H40.39v7.2A2.881,2.881,0,0,1,37.52,75.5Zm-1.978,0L35.53,59.973V44.286a.688.688,0,0,1,.686-.686H77.138a.688.688,0,0,1,.686.686v47.2a.688.688,0,0,1-.686.686H36.216a.688.688,0,0,1-.686-.686V75.5Zm4.7-14.155.011,2.7v-2.7ZM50.429,48.379a.686.686,0,1,1,0,1.372H41.35a.686.686,0,1,1,0-1.372ZM45.889,77.444a.686.686,0,0,1,0,1.372H41.35a.686.686,0,1,1,0-1.372Zm4.539,3.945a.686.686,0,1,1,0,1.372H41.35a.686.686,0,1,1,0-1.372Zm0,3.945a.686.686,0,1,1,0,1.372H41.35a.686.686,0,1,1,0-1.372ZM45.889,56.269a.686.686,0,1,1,0,1.372H41.35a.686.686,0,1,1,0-1.372Zm4.539-3.945a.686.686,0,1,1,0,1.372H41.35a.686.686,0,1,1,0-1.372Z"/>
      <g id="Grupo_1084748" data-name="Grupo 1084748" transform="translate(-197.59 -2164.437)">
        <g id="Grupo_1084746" data-name="Grupo 1084746" transform="translate(223.519 2222.542)">
          <g id="Grupo_1084744" data-name="Grupo 1084744" transform="translate(0 0)">
            <path id="Trazado_831281" data-name="Trazado 831281" d="M10.916,0A10.916,10.916,0,1,1,0,10.916,10.916,10.916,0,0,1,10.916,0Z" transform="translate(0)" fill="#39ae41"/>
            <path id="Trazado_831276" data-name="Trazado 831276" d="M395.1,8.011a10.97,10.97,0,1,1,0,21.939q-.555,0-1.1-.054a10.97,10.97,0,0,0,0-21.83Q394.54,8.012,395.1,8.011Z" transform="translate(-384.244 -8.001)" fill="#1a731f" fill-rule="evenodd"/>
            <path id="Trazado_831277" data-name="Trazado 831277" d="M341.665,45.677V41.5a1.651,1.651,0,1,1,3.3,0v4.174h4.174a1.651,1.651,0,0,1,0,3.3h-4.174v4.174a1.651,1.651,0,1,1-3.3,0V48.98h-4.174a1.651,1.651,0,0,1,0-3.3h4.174Z" transform="translate(-332.465 -36.349)" fill="#fff" fill-rule="evenodd"/>
          </g>
        </g>
        <path id="Trazado_831280" data-name="Trazado 831280" d="M75.1,12.63H70.921a.878.878,0,0,0-.878.878v4.174a.774.774,0,1,1-1.548,0V13.508a.878.878,0,0,0-.878-.878H63.444a.774.774,0,1,1,0-1.547h4.174a.878.878,0,0,0,.878-.877V6.031a.774.774,0,0,1,1.548,0v4.174a.878.878,0,0,0,.878.877H75.1a.774.774,0,1,1,0,1.547Zm0-3.3H71.8v-3.3a2.529,2.529,0,0,0-5.058,0v3.3h-3.3a2.529,2.529,0,1,0,0,5.058h3.3v3.3a2.529,2.529,0,1,0,5.058,0v-3.3h3.3a2.529,2.529,0,1,0,0-5.058ZM69.27,21.949A10.092,10.092,0,1,0,59.178,11.857,10.1,10.1,0,0,0,69.27,21.949Zm0-21.94A11.847,11.847,0,1,0,81.117,11.857,11.861,11.861,0,0,0,69.27.009Z" transform="translate(165.101 2221.665)" fill-rule="evenodd"/>
      </g>
    </g>
  </g>
</svg>
