<svg xmlns="http://www.w3.org/2000/svg" xmlns:xlink="http://www.w3.org/1999/xlink" width="124.384" height="124.384" viewBox="0 0 124.384 124.384">
  <defs>
    <filter id="Elipse_10794" x="0" y="0" width="124.384" height="124.384" filterUnits="userSpaceOnUse">
      <feOffset dy="3" input="SourceAlpha"/>
      <feGaussianBlur stdDeviation="3" result="blur"/>
      <feFlood flood-opacity="0.161"/>
      <feComposite operator="in" in2="blur"/>
      <feComposite in="SourceGraphic"/>
    </filter>
  </defs>
  <g id="Grupo_1084516" data-name="Grupo 1084516" transform="translate(-324.68 -1894.213)">
    <g transform="matrix(1, 0, 0, 1, 324.68, 1894.21)" filter="url(#Elipse_10794)">
      <circle id="Elipse_10794-2" data-name="Elipse 10794" cx="53.192" cy="53.192" r="53.192" transform="translate(9 6)" fill="#fff"/>
    </g>
    <g id="Grupo_1084512" data-name="Grupo 1084512" transform="translate(364.73 1914.343)">
      <g id="Grupo_1070195" data-name="Grupo 1070195" transform="translate(0 0)">
        <rect id="Rectángulo_374304" data-name="Rectángulo 374304" width="44.494" height="79.842" rx="3" transform="translate(0 0)" fill="#9697f8"/>
      </g>
    </g>
    <g id="publico-objetivo" transform="translate(350.646 1918.775)">
      <g id="Grupo_1084552" data-name="Grupo 1084552" transform="translate(0 0)">
        <circle id="Elipse_10806" data-name="Elipse 10806" cx="30.762" cy="30.762" r="30.762" transform="translate(5.463 5.463)" fill="#f2fbff"/>
        <path id="Trazado_830920" data-name="Trazado 830920" d="M269.481,75.742A30.762,30.762,0,0,1,238.719,106.5q-1.493,0-2.949-.14a30.764,30.764,0,0,0,0-61.243q1.456-.14,2.949-.14A30.762,30.762,0,0,1,269.481,75.742Z" transform="translate(-202.494 -39.516)" fill="#deecf1"/>
        <path id="Trazado_830921" data-name="Trazado 830921" d="M238.376,20.773h-7.253V11.127A3.626,3.626,0,0,1,234.749,7.5h0a3.627,3.627,0,0,1,3.627,3.627Z" transform="translate(-198.524 -7.5)" fill="#fe93bb"/>
        <path id="Trazado_830922" data-name="Trazado 830922" d="M249,11.127v9.646h-3.627V11.127a3.635,3.635,0,0,0-1.813-3.141A3.628,3.628,0,0,1,249,11.127Z" transform="translate(-209.148 -7.5)" fill="#fe76a8"/>
        <path id="Trazado_830923" data-name="Trazado 830923" d="M413.449,238.376v-7.253H423.1a3.627,3.627,0,0,1,3.627,3.627h0a3.627,3.627,0,0,1-3.627,3.627h-9.646Z" transform="translate(-354.271 -198.524)" fill="#fe93bb"/>
        <path id="Trazado_830924" data-name="Trazado 830924" d="M461.994,234.747a3.628,3.628,0,0,1-3.627,3.627H454.74a3.627,3.627,0,1,0,0-7.254h3.627A3.627,3.627,0,0,1,461.994,234.747Z" transform="translate(-389.543 -198.522)" fill="#fe76a8"/>
        <path id="Trazado_830925" data-name="Trazado 830925" d="M231.121,413.449h7.253V423.1a3.627,3.627,0,0,1-3.627,3.627h0a3.627,3.627,0,0,1-3.627-3.627v-9.646Z" transform="translate(-198.522 -354.271)" fill="#fe93bb"/>
        <path id="Trazado_830926" data-name="Trazado 830926" d="M249,413.45V423.1a3.628,3.628,0,0,1-5.44,3.142,3.624,3.624,0,0,0,1.813-3.142V413.45Z" transform="translate(-209.148 -354.272)" fill="#fe76a8"/>
        <path id="Trazado_830927" data-name="Trazado 830927" d="M20.773,231.12v7.254H11.127a3.627,3.627,0,0,1,0-7.254Z" transform="translate(-7.5 -198.522)" fill="#fe93bb"/>
        <path id="Trazado_830928" data-name="Trazado 830928" d="M67.7,231.12v7.254h-5a25.06,25.06,0,0,1,0-7.254Z" transform="translate(-54.431 -198.522)" fill="#fe76a8"/>
        <path id="Trazado_830929" data-name="Trazado 830929" d="M135.167,110.309A24.838,24.838,0,0,1,124.674,130.6c-.45.319-.913.625-1.386.914a24.88,24.88,0,0,1-25.969,0c-.344-.21-.681-.429-1.013-.655a24.864,24.864,0,1,1,38.861-20.55Z" transform="translate(-74.078 -74.082)" fill="#ffe177"/>
        <rect id="Rectángulo_383112" data-name="Rectángulo 383112" width="7.253" height="5.855" transform="translate(32.599 39.47)" fill="#ffb09e"/>
        <path id="Trazado_830930" data-name="Trazado 830930" d="M214.471,194.878h-3.619a5.586,5.586,0,0,1-5.586-5.586V179.121h14.791v10.171A5.586,5.586,0,0,1,214.471,194.878Z" transform="translate(-176.437 -154.103)" fill="#ffcebf"/>
        <path id="Trazado_830931" data-name="Trazado 830931" d="M182.055,213.282h.912v-5.788h-.912a2.894,2.894,0,0,0-2.894,2.894h0A2.894,2.894,0,0,0,182.055,213.282Z" transform="translate(-154.137 -178.34)" fill="#ffb09e"/>
        <path id="Trazado_830932" data-name="Trazado 830932" d="M307.645,213.282h-.912v-5.788h.912a2.894,2.894,0,0,1,2.894,2.894h0A2.894,2.894,0,0,1,307.645,213.282Z" transform="translate(-263.112 -178.34)" fill="#ffb09e"/>
        <path id="Trazado_830933" data-name="Trazado 830933" d="M328.932,334.016a24.965,24.965,0,0,1-7.628,8.7c-.45.319-.913.625-1.386.914-.72-.9-1.466-1.883-2.131-2.771-1.217-1.63-2.16-2.953-2.16-2.953l.36-1.969a2.658,2.658,0,0,1,2.612-2.178h9.193a1.016,1.016,0,0,1,.115,0A2.6,2.6,0,0,1,328.932,334.016Z" transform="translate(-270.709 -286.195)" fill="#60b7ff"/>
        <rect id="Rectángulo_383113" data-name="Rectángulo 383113" width="3.879" height="4.257" transform="translate(50.547 43.303)" fill="#ffdfcf"/>
        <path id="Trazado_830934" data-name="Trazado 830934" d="M349.107,256.713v1.97a3.8,3.8,0,0,1-7.591,0v-1.97a2.529,2.529,0,0,1,2.529-2.528h2.532a2.531,2.531,0,0,1,2.529,2.528Z" transform="translate(-292.825 -218.224)" fill="#ffeee6"/>
        <g id="Grupo_1084551" data-name="Grupo 1084551" transform="translate(14.228 35.961)">
          <path id="Trazado_830935" data-name="Trazado 830935" d="M118.4,337.9s-2.251,3.159-4.292,5.723c-.344-.21-.681-.429-1.013-.655a24.94,24.94,0,0,1-8-8.956,2.617,2.617,0,0,1,1.025-.255,1.009,1.009,0,0,1,.115,0h9.193a2.658,2.658,0,0,1,2.612,2.178Z" transform="translate(-105.1 -322.156)" fill="#9be69d"/>
          <rect id="Rectángulo_383114" data-name="Rectángulo 383114" width="3.88" height="4.257" transform="translate(7.676 11.6) rotate(180)" fill="#ffb09e"/>
          <path id="Trazado_830936" data-name="Trazado 830936" d="M122.214,262.476h0a3.8,3.8,0,0,1-3.795-3.795v-1.968a2.529,2.529,0,0,1,2.529-2.528h2.532a2.529,2.529,0,0,1,2.529,2.528v1.968A3.8,3.8,0,0,1,122.214,262.476Z" transform="translate(-116.477 -254.185)" fill="#ffcebf"/>
        </g>
        <path id="Trazado_830937" data-name="Trazado 830937" d="M188.344,329.618a24.755,24.755,0,0,1-14.371,4.57,25.009,25.009,0,0,1-2.916-.169,24.711,24.711,0,0,1-11.082-4.143l.671-4.988a6.11,6.11,0,0,1,3.795-4.26l5.905-2.2H177.6l5.905,2.2a6.11,6.11,0,0,1,3.795,4.26l.05.226Z" transform="translate(-137.749 -273.1)" fill="#925cb4"/>
        <path id="Trazado_830938" data-name="Trazado 830938" d="M193.323,148.729s-2.66-2.548-1.9-5.521c.606-2.381,2.683-4.349,6.9-3.037,1.925.6,3.818-.632,5.68-1.293,1.79-.636,3.732.472,3.185,2.771,0,0,2.228-1.149,3.284.821,1.512,2.822-2.352,6.259-2.352,6.259a11.719,11.719,0,0,1-9.715-2.073S196.045,149.488,193.323,148.729Z" transform="translate(-164.493 -119.574)" fill="#678d98"/>
        <path id="Trazado_830939" data-name="Trazado 830939" d="M374.741,27.547H357.259a1.449,1.449,0,0,0-.874.294l-1.633,1.236a.318.318,0,0,1-.511-.254V8.9a1.4,1.4,0,0,1,1.4-1.4h19.1a1.4,1.4,0,0,1,1.4,1.4V26.143A1.4,1.4,0,0,1,374.741,27.547Z" transform="translate(-303.695 -7.5)" fill="#9be69d"/>
        <path id="Trazado_830940" data-name="Trazado 830940" d="M462.1,8.9V26.143a1.4,1.4,0,0,1-1.4,1.4H454.87a1.4,1.4,0,0,0,1.4-1.4V8.9a1.4,1.4,0,0,0-1.4-1.4H460.7A1.4,1.4,0,0,1,462.1,8.9Z" transform="translate(-389.654 -7.5)" fill="#6fd7a3"/>
        <path id="Trazado_830941" data-name="Trazado 830941" d="M393.883,55.227a9.544,9.544,0,0,1-13.267,0,1.668,1.668,0,0,1,0-2.4,9.546,9.546,0,0,1,13.269,0A1.667,1.667,0,0,1,393.883,55.227Z" transform="translate(-325.791 -43.933)" fill="#f2fbff"/>
        <path id="Trazado_830942" data-name="Trazado 830942" d="M465.972,64.111a9.58,9.58,0,0,1-1.472,1.168V60.55a9.572,9.572,0,0,1,1.472,1.166A1.667,1.667,0,0,1,465.972,64.111Z" transform="translate(-397.88 -52.817)" fill="#deecf1"/>
        <circle id="Elipse_10807" data-name="Elipse 10807" cx="2.938" cy="2.938" r="2.938" transform="translate(58.52 7.159)" fill="#678d98"/>
      </g>
      <g id="Grupo_1084556" data-name="Grupo 1084556" transform="translate(0 0)">
        <path id="Trazado_830943" data-name="Trazado 830943" d="M231.122,285.126v4.854h7.253v-4.854" transform="translate(-198.523 -244.655)" fill="none" stroke="#000" stroke-linecap="round" stroke-linejoin="round" stroke-miterlimit="10" stroke-width="1"/>
        <path id="Trazado_830944" data-name="Trazado 830944" d="M183.995,320.833a6.111,6.111,0,0,1,3.31,4.054l1.044,4.73a24.877,24.877,0,0,1-28.368.258l.671-4.988a6.11,6.11,0,0,1,3.795-4.26l5.905-2.2H177.6l1.534.572" transform="translate(-137.752 -273.1)" fill="none" stroke="#000" stroke-linecap="round" stroke-linejoin="round" stroke-miterlimit="10" stroke-width="1"/>
        <path id="Trazado_830945" data-name="Trazado 830945" d="M220.057,207.494v6.035a5.586,5.586,0,0,1-5.586,5.586h-3.619a5.586,5.586,0,0,1-5.586-5.586v-6.035" transform="translate(-176.437 -178.34)" fill="none" stroke="#000" stroke-linecap="round" stroke-linejoin="round" stroke-miterlimit="10" stroke-width="1"/>
        <path id="Trazado_830946" data-name="Trazado 830946" d="M182.055,213.282h.912v-5.788h-.912a2.894,2.894,0,0,0-2.894,2.894h0A2.894,2.894,0,0,0,182.055,213.282Z" transform="translate(-154.137 -178.34)" fill="none" stroke="#000" stroke-linecap="round" stroke-linejoin="round" stroke-miterlimit="10" stroke-width="1"/>
        <path id="Trazado_830947" data-name="Trazado 830947" d="M307.645,213.282h-.912v-5.788h.912a2.894,2.894,0,0,1,2.894,2.894h0A2.894,2.894,0,0,1,307.645,213.282Z" transform="translate(-263.112 -178.34)" fill="none" stroke="#000" stroke-linecap="round" stroke-linejoin="round" stroke-miterlimit="10" stroke-width="1"/>
        <g id="Grupo_1084553" data-name="Grupo 1084553" transform="translate(34.758 35.656)">
          <path id="Trazado_830948" data-name="Trazado 830948" d="M245.933,252.1a2.434,2.434,0,0,0,1.468.569,2.388,2.388,0,0,0,1.57-.569" transform="translate(-245.933 -252.098)" fill="none" stroke="#000" stroke-linecap="round" stroke-linejoin="round" stroke-miterlimit="10" stroke-width="1"/>
        </g>
        <g id="Grupo_1084554" data-name="Grupo 1084554" transform="translate(46.58 35.961)">
          <path id="Trazado_830949" data-name="Trazado 830949" d="M345.315,262.476h0a3.8,3.8,0,0,0,3.795-3.795v-1.968a2.529,2.529,0,0,0-2.529-2.528h-2.532a2.529,2.529,0,0,0-2.528,2.528v1.968A3.8,3.8,0,0,0,345.315,262.476Z" transform="translate(-339.408 -254.185)" fill="none" stroke="#000" stroke-linecap="round" stroke-linejoin="round" stroke-miterlimit="10" stroke-width="1"/>
          <path id="Trazado_830950" data-name="Trazado 830950" d="M327.029,334.1a2.644,2.644,0,0,1,1.311-.346h9.193a1.008,1.008,0,0,1,.115,0,2.6,2.6,0,0,1,1.026.257" transform="translate(-327.029 -322.156)" fill="none" stroke="#000" stroke-linecap="round" stroke-linejoin="round" stroke-miterlimit="10" stroke-width="1"/>
          <path id="Trazado_830951" data-name="Trazado 830951" d="M358.121,307.4v3.842h-3.88V307.4" transform="translate(-350.274 -299.644)" fill="none" stroke="#000" stroke-linecap="round" stroke-linejoin="round" stroke-miterlimit="10" stroke-width="1"/>
        </g>
        <path id="Trazado_830952" data-name="Trazado 830952" d="M122.214,262.476h0a3.8,3.8,0,0,1-3.795-3.795v-1.968a2.529,2.529,0,0,1,2.529-2.528h2.532a2.529,2.529,0,0,1,2.529,2.528v1.968A3.8,3.8,0,0,1,122.214,262.476Z" transform="translate(-102.25 -218.224)" fill="none" stroke="#000" stroke-linecap="round" stroke-linejoin="round" stroke-miterlimit="10" stroke-width="1"/>
        <path id="Trazado_830953" data-name="Trazado 830953" d="M105.1,334.014a2.617,2.617,0,0,1,1.025-.255,1.009,1.009,0,0,1,.115,0h9.193a2.644,2.644,0,0,1,1.311.346" transform="translate(-90.872 -286.195)" fill="none" stroke="#000" stroke-linecap="round" stroke-linejoin="round" stroke-miterlimit="10" stroke-width="1"/>
        <path id="Trazado_830954" data-name="Trazado 830954" d="M131.14,307.4v3.842h3.88V307.4" transform="translate(-113.116 -263.683)" fill="none" stroke="#000" stroke-linecap="round" stroke-linejoin="round" stroke-miterlimit="10" stroke-width="1"/>
        <path id="Trazado_830955" data-name="Trazado 830955" d="M193.323,148.729s-2.66-2.548-1.9-5.521c.606-2.381,2.683-4.349,6.9-3.037,1.925.6,3.818-.632,5.68-1.293,1.79-.636,3.732.472,3.185,2.771,0,0,2.228-1.149,3.284.821,1.512,2.822-2.352,6.259-2.352,6.259a11.719,11.719,0,0,1-9.715-2.073S196.045,149.488,193.323,148.729Z" transform="translate(-164.493 -119.574)" fill="none" stroke="#000" stroke-linecap="round" stroke-linejoin="round" stroke-miterlimit="10" stroke-width="1"/>
        <path id="Trazado_830956" data-name="Trazado 830956" d="M129.184,94.125a24.843,24.843,0,1,1-4.559-4.149" transform="translate(-74.078 -74.078)" fill="none" stroke="#000" stroke-linecap="round" stroke-linejoin="round" stroke-miterlimit="10" stroke-width="1"/>
        <path id="Trazado_830957" data-name="Trazado 830957" d="M231.122,18.862V11.127A3.627,3.627,0,0,1,234.749,7.5h0a3.627,3.627,0,0,1,3.627,3.627v7.736" transform="translate(-198.523 -7.5)" fill="none" stroke="#000" stroke-linecap="round" stroke-linejoin="round" stroke-miterlimit="10" stroke-width="1"/>
        <path id="Trazado_830958" data-name="Trazado 830958" d="M426.56,231.122H434.3a3.627,3.627,0,0,1,3.627,3.627h0a3.627,3.627,0,0,1-3.627,3.627H426.56" transform="translate(-365.471 -198.523)" fill="none" stroke="#000" stroke-linecap="round" stroke-linejoin="round" stroke-miterlimit="10" stroke-width="1"/>
        <path id="Trazado_830959" data-name="Trazado 830959" d="M238.375,426.555v7.736a3.627,3.627,0,0,1-3.627,3.627h0a3.627,3.627,0,0,1-3.627-3.627v-7.736" transform="translate(-198.523 -365.467)" fill="none" stroke="#000" stroke-linecap="round" stroke-linejoin="round" stroke-miterlimit="10" stroke-width="1"/>
        <line id="Línea_4052" data-name="Línea 4052" x1="4.625" transform="translate(6.737 39.852)" fill="none" stroke="#000" stroke-linecap="round" stroke-linejoin="round" stroke-miterlimit="10" stroke-width="1"/>
        <path id="Trazado_830960" data-name="Trazado 830960" d="M14.237,238.375h-3.11A3.627,3.627,0,0,1,7.5,234.749h0a3.627,3.627,0,0,1,3.627-3.627h7.735" transform="translate(-7.5 -198.523)" fill="none" stroke="#000" stroke-linecap="round" stroke-linejoin="round" stroke-miterlimit="10" stroke-width="1"/>
        <g id="Grupo_1084555" data-name="Grupo 1084555" transform="translate(50.546 0)">
          <path id="Trazado_830961" data-name="Trazado 830961" d="M368.91,7.5h5.83a1.4,1.4,0,0,1,1.4,1.4V26.143a1.4,1.4,0,0,1-1.4,1.4H357.259a1.449,1.449,0,0,0-.874.294l-1.633,1.236a.318.318,0,0,1-.511-.254V8.9a1.4,1.4,0,0,1,1.4-1.4h7.936" transform="translate(-354.241 -7.5)" fill="none" stroke="#000" stroke-linecap="round" stroke-linejoin="round" stroke-miterlimit="10" stroke-width="1"/>
          <path id="Trazado_830962" data-name="Trazado 830962" d="M393.882,52.829a1.666,1.666,0,0,1,0,2.394,9.543,9.543,0,0,1-13.268,0,1.667,1.667,0,0,1,0-2.394,9.542,9.542,0,0,1,13.268,0Z" transform="translate(-376.337 -43.929)" fill="none" stroke="#000" stroke-linecap="round" stroke-linejoin="round" stroke-miterlimit="10" stroke-width="1"/>
          <circle id="Elipse_10808" data-name="Elipse 10808" cx="2.938" cy="2.938" r="2.938" transform="translate(7.974 7.159)" fill="none" stroke="#000" stroke-linecap="round" stroke-linejoin="round" stroke-miterlimit="10" stroke-width="1"/>
        </g>
        <path id="Trazado_830963" data-name="Trazado 830963" d="M46.409,73.41A30.776,30.776,0,0,1,73.286,46.468" transform="translate(-40.737 -40.787)" fill="none" stroke="#000" stroke-linecap="round" stroke-linejoin="round" stroke-miterlimit="10" stroke-width="1"/>
        <path id="Trazado_830964" data-name="Trazado 830964" d="M73.237,307.647a30.776,30.776,0,0,1-26.828-26.936" transform="translate(-40.737 -240.883)" fill="none" stroke="#000" stroke-linecap="round" stroke-linejoin="round" stroke-miterlimit="10" stroke-width="1"/>
        <path id="Trazado_830965" data-name="Trazado 830965" d="M308.331,282.111a30.777,30.777,0,0,1-26.808,26.733" transform="translate(-241.577 -242.079)" fill="none" stroke="#000" stroke-linecap="round" stroke-linejoin="round" stroke-miterlimit="10" stroke-width="1"/>
        <path id="Trazado_830966" data-name="Trazado 830966" d="M436.622,146.825A30.565,30.565,0,0,1,440.828,159" transform="translate(-374.066 -126.515)" fill="none" stroke="#000" stroke-linecap="round" stroke-linejoin="round" stroke-miterlimit="10" stroke-width="1"/>
        <path id="Trazado_830967" data-name="Trazado 830967" d="M280.878,46.428A30.555,30.555,0,0,1,291.49,49.7" transform="translate(-241.026 -40.753)" fill="none" stroke="#000" stroke-linecap="round" stroke-linejoin="round" stroke-miterlimit="10" stroke-width="1"/>
      </g>
    </g>
  </g>
</svg>
